G04 #@! TF.GenerationSoftware,KiCad,Pcbnew,(5.1.4)-1*
G04 #@! TF.CreationDate,2022-04-26T14:24:58-06:00*
G04 #@! TF.ProjectId,UselessBox V2,5573656c-6573-4734-926f-782056322e6b,2*
G04 #@! TF.SameCoordinates,Original*
G04 #@! TF.FileFunction,Copper,L1,Top*
G04 #@! TF.FilePolarity,Positive*
%FSLAX46Y46*%
G04 Gerber Fmt 4.6, Leading zero omitted, Abs format (unit mm)*
G04 Created by KiCad (PCBNEW (5.1.4)-1) date 2022-04-26 14:24:58*
%MOMM*%
%LPD*%
G04 APERTURE LIST*
%ADD10C,1.600000*%
%ADD11O,1.700000X1.700000*%
%ADD12R,1.700000X1.700000*%
%ADD13O,2.200000X2.200000*%
%ADD14R,2.200000X2.200000*%
%ADD15R,2.000000X2.000000*%
%ADD16C,2.000000*%
%ADD17R,1.600000X1.600000*%
%ADD18R,1.800000X1.800000*%
%ADD19C,1.800000*%
%ADD20O,1.600000X1.600000*%
%ADD21R,1.400000X1.400000*%
%ADD22C,1.400000*%
%ADD23R,2.000000X1.905000*%
%ADD24O,2.000000X1.905000*%
%ADD25R,2.400000X1.600000*%
%ADD26O,2.400000X1.600000*%
%ADD27C,1.000000*%
%ADD28C,0.300000*%
%ADD29C,0.250000*%
%ADD30C,0.254000*%
G04 APERTURE END LIST*
D10*
X141859000Y-84544000D03*
X141859000Y-82044000D03*
D11*
X135763000Y-82804000D03*
D12*
X135763000Y-85344000D03*
D11*
X160370677Y-118364000D03*
X157830677Y-118364000D03*
D12*
X155290677Y-118364000D03*
D13*
X149860000Y-113057000D03*
D14*
X139700000Y-113057000D03*
D13*
X149860000Y-107106250D03*
D14*
X139700000Y-107106250D03*
D13*
X149860000Y-101155500D03*
D14*
X139700000Y-101155500D03*
D13*
X149860000Y-95204750D03*
D14*
X139700000Y-95204750D03*
D13*
X149860000Y-89254000D03*
D14*
X139700000Y-89254000D03*
D15*
X160655000Y-99187000D03*
D16*
X155655000Y-99187000D03*
D17*
X159512000Y-110236000D03*
D10*
X157512000Y-110236000D03*
X148209000Y-82044000D03*
X148209000Y-84544000D03*
D18*
X146304000Y-119888000D03*
D19*
X148844000Y-119888000D03*
D12*
X166751000Y-112014000D03*
D11*
X166751000Y-109474000D03*
X166751000Y-106934000D03*
D10*
X127000000Y-90551000D03*
D20*
X134620000Y-90551000D03*
X134620000Y-96551750D03*
D10*
X127000000Y-96551750D03*
X127000000Y-102552500D03*
D20*
X134620000Y-102552500D03*
X134620000Y-108553250D03*
D10*
X127000000Y-108553250D03*
X127000000Y-114554000D03*
D20*
X134620000Y-114554000D03*
D21*
X139319000Y-121793000D03*
D22*
X136819000Y-121793000D03*
X134319000Y-121793000D03*
X139319000Y-118493000D03*
X136819000Y-118493000D03*
X134319000Y-118493000D03*
D23*
X166116000Y-92964000D03*
D24*
X166116000Y-95504000D03*
X166116000Y-98044000D03*
D25*
X154178000Y-82169000D03*
D26*
X161798000Y-89789000D03*
X154178000Y-84709000D03*
X161798000Y-87249000D03*
X154178000Y-87249000D03*
X161798000Y-84709000D03*
X154178000Y-89789000D03*
X161798000Y-82169000D03*
D27*
X138277600Y-84023200D03*
X136804400Y-97790000D03*
X136753600Y-88138000D03*
X137109200Y-93776800D03*
D28*
X139700000Y-90654000D02*
X139700000Y-89254000D01*
X138149999Y-92204001D02*
X139700000Y-90654000D01*
X138149999Y-98205499D02*
X138149999Y-92204001D01*
X139700000Y-99755500D02*
X138149999Y-98205499D01*
X139700000Y-101155500D02*
X139700000Y-99755500D01*
X166116000Y-92964000D02*
X166068500Y-92964000D01*
X151275998Y-92964000D02*
X164816000Y-92964000D01*
X147565998Y-89254000D02*
X151275998Y-92964000D01*
X139700000Y-89254000D02*
X147565998Y-89254000D01*
X160655000Y-97887000D02*
X160655000Y-99187000D01*
X160655000Y-97125000D02*
X160655000Y-97887000D01*
X164816000Y-92964000D02*
X160655000Y-97125000D01*
X166116000Y-92964000D02*
X164816000Y-92964000D01*
X134645400Y-90525600D02*
X134620000Y-90551000D01*
X137210800Y-90525600D02*
X134645400Y-90525600D01*
X136753600Y-97739200D02*
X136804400Y-97790000D01*
X137515600Y-90220800D02*
X137210800Y-90525600D01*
X137610799Y-90125601D02*
X137515600Y-90220800D01*
X138277600Y-84023200D02*
X137610799Y-84690001D01*
X137505105Y-88093601D02*
X137610799Y-88093601D01*
X137460706Y-88138000D02*
X137505105Y-88093601D01*
X136753600Y-88138000D02*
X137460706Y-88138000D01*
X137610799Y-84690001D02*
X137610799Y-88093601D01*
X137610799Y-88093601D02*
X137610799Y-90125601D01*
X136804400Y-94081600D02*
X137109200Y-93776800D01*
X136804400Y-97790000D02*
X136804400Y-94081600D01*
D29*
X153778000Y-84709000D02*
X154178000Y-84709000D01*
X161398000Y-87249000D02*
X161798000Y-87249000D01*
X158858000Y-84709000D02*
X161398000Y-87249000D01*
X154178000Y-84709000D02*
X158858000Y-84709000D01*
X136117000Y-113057000D02*
X139700000Y-113057000D01*
X134620000Y-114554000D02*
X136117000Y-113057000D01*
X141059001Y-83744001D02*
X141859000Y-84544000D01*
X135198999Y-81628999D02*
X138943999Y-81628999D01*
X133044989Y-83783009D02*
X135198999Y-81628999D01*
X133044989Y-103278901D02*
X133044989Y-83783009D01*
X139700000Y-109933912D02*
X133044989Y-103278901D01*
X139700000Y-113057000D02*
X139700000Y-109933912D01*
X142658999Y-83744001D02*
X141859000Y-84544000D01*
X142984001Y-83418999D02*
X142658999Y-83744001D01*
X148749001Y-83418999D02*
X142984001Y-83418999D01*
X150039002Y-84709000D02*
X148749001Y-83418999D01*
X154178000Y-84709000D02*
X150039002Y-84709000D01*
X138943999Y-81628999D02*
X141059001Y-83744001D01*
X149008999Y-85343999D02*
X148209000Y-84544000D01*
X149499010Y-85834010D02*
X149008999Y-85343999D01*
X157443010Y-85834010D02*
X149499010Y-85834010D01*
X161398000Y-89789000D02*
X157443010Y-85834010D01*
X161798000Y-89789000D02*
X161398000Y-89789000D01*
X145154000Y-119888000D02*
X146304000Y-119888000D01*
X141725000Y-116459000D02*
X145154000Y-119888000D01*
X127239998Y-116459000D02*
X141725000Y-116459000D01*
X125774999Y-114994001D02*
X127239998Y-116459000D01*
X125774999Y-91776001D02*
X125774999Y-114994001D01*
X127000000Y-90551000D02*
X125774999Y-91776001D01*
X160370677Y-118364000D02*
X153638676Y-111631999D01*
X135419999Y-103352499D02*
X134620000Y-102552500D01*
X140468003Y-103352499D02*
X135419999Y-103352499D01*
X144090003Y-99730499D02*
X140468003Y-103352499D01*
X150544001Y-99730499D02*
X144090003Y-99730499D01*
X153638676Y-102825174D02*
X150544001Y-99730499D01*
X153638676Y-111631999D02*
X153638676Y-102825174D01*
X128619250Y-114554000D02*
X127000000Y-114554000D01*
X134620000Y-108553250D02*
X128619250Y-114554000D01*
X152523677Y-113057000D02*
X157830677Y-118364000D01*
X149860000Y-113057000D02*
X152523677Y-113057000D01*
X127799999Y-107753251D02*
X127000000Y-108553250D01*
X128125001Y-107428249D02*
X127799999Y-107753251D01*
X135160001Y-107428249D02*
X128125001Y-107428249D01*
X135745001Y-108013249D02*
X135160001Y-107428249D01*
X135745001Y-109093251D02*
X135745001Y-108013249D01*
X133494999Y-115094001D02*
X133494999Y-111343253D01*
X133494999Y-111343253D02*
X135745001Y-109093251D01*
X134097998Y-115697000D02*
X133494999Y-115094001D01*
X147220000Y-115697000D02*
X134097998Y-115697000D01*
X149860000Y-113057000D02*
X147220000Y-115697000D01*
X143909250Y-107106250D02*
X149860000Y-101155500D01*
X139700000Y-107106250D02*
X143909250Y-107106250D01*
X165651000Y-112014000D02*
X166751000Y-112014000D01*
X165100000Y-106299000D02*
X165100000Y-111463000D01*
X165100000Y-111463000D02*
X165651000Y-112014000D01*
X154178000Y-87249000D02*
X154578000Y-87249000D01*
X154578000Y-87249000D02*
X158243010Y-90914010D01*
X158243010Y-90914010D02*
X166783512Y-90914010D01*
X166783512Y-90914010D02*
X167541010Y-91671508D01*
X167541010Y-91671508D02*
X167541010Y-103857990D01*
X167541010Y-103857990D02*
X165100000Y-106299000D01*
D28*
X166116000Y-98044000D02*
X166068500Y-98044000D01*
X159512000Y-110236000D02*
X159512000Y-109136000D01*
X166116000Y-102532000D02*
X166116000Y-98044000D01*
X159512000Y-109136000D02*
X166116000Y-102532000D01*
X127000000Y-102552500D02*
X127000000Y-96551750D01*
X160298000Y-82169000D02*
X161798000Y-82169000D01*
X158372989Y-80243989D02*
X160298000Y-82169000D01*
X135770823Y-80243989D02*
X158372989Y-80243989D01*
X128250001Y-87764811D02*
X135770823Y-80243989D01*
X128250001Y-95301749D02*
X128250001Y-87764811D01*
X127000000Y-96551750D02*
X128250001Y-95301749D01*
X162198000Y-82169000D02*
X161798000Y-82169000D01*
X169866010Y-89837010D02*
X162198000Y-82169000D01*
X169866010Y-106358990D02*
X166751000Y-109474000D01*
X169866010Y-89837010D02*
X169866010Y-106358990D01*
X167600999Y-110323999D02*
X166751000Y-109474000D01*
X168051001Y-110774001D02*
X167600999Y-110323999D01*
X168051001Y-113224001D02*
X168051001Y-110774001D01*
X167961001Y-113314001D02*
X168051001Y-113224001D01*
X161490001Y-113314001D02*
X167961001Y-113314001D01*
X159512000Y-111336000D02*
X161490001Y-113314001D01*
X159512000Y-110236000D02*
X159512000Y-111336000D01*
D30*
G36*
X169683875Y-78540234D02*
G01*
X169939622Y-78617448D01*
X170175504Y-78742869D01*
X170382530Y-78911716D01*
X170552813Y-79117554D01*
X170679879Y-79352556D01*
X170758876Y-79607756D01*
X170790000Y-79903882D01*
X170790001Y-122399675D01*
X170760766Y-122697840D01*
X170683551Y-122953588D01*
X170558131Y-123189468D01*
X170389289Y-123396489D01*
X170183446Y-123566777D01*
X169948444Y-123693843D01*
X169693240Y-123772841D01*
X169397136Y-123803962D01*
X126397319Y-123800004D01*
X126099124Y-123770766D01*
X125843376Y-123693551D01*
X125607496Y-123568131D01*
X125400475Y-123399289D01*
X125230187Y-123193446D01*
X125103121Y-122958444D01*
X125024123Y-122703240D01*
X124993000Y-122407118D01*
X124993000Y-120925071D01*
X125478623Y-120925071D01*
X125478623Y-121390929D01*
X125569507Y-121847835D01*
X125747783Y-122278232D01*
X126006600Y-122665579D01*
X126336011Y-122994990D01*
X126723358Y-123253807D01*
X127153755Y-123432083D01*
X127610661Y-123522967D01*
X128076519Y-123522967D01*
X128533425Y-123432083D01*
X128963822Y-123253807D01*
X129351169Y-122994990D01*
X129680580Y-122665579D01*
X129939397Y-122278232D01*
X130117673Y-121847835D01*
X130154734Y-121661514D01*
X132984000Y-121661514D01*
X132984000Y-121924486D01*
X133035304Y-122182405D01*
X133135939Y-122425359D01*
X133282038Y-122644013D01*
X133467987Y-122829962D01*
X133686641Y-122976061D01*
X133929595Y-123076696D01*
X134187514Y-123128000D01*
X134450486Y-123128000D01*
X134708405Y-123076696D01*
X134951359Y-122976061D01*
X135170013Y-122829962D01*
X135355962Y-122644013D01*
X135502061Y-122425359D01*
X135569000Y-122263754D01*
X135635939Y-122425359D01*
X135782038Y-122644013D01*
X135967987Y-122829962D01*
X136186641Y-122976061D01*
X136429595Y-123076696D01*
X136687514Y-123128000D01*
X136950486Y-123128000D01*
X137208405Y-123076696D01*
X137451359Y-122976061D01*
X137670013Y-122829962D01*
X137855962Y-122644013D01*
X137980928Y-122456987D01*
X137980928Y-122493000D01*
X137993188Y-122617482D01*
X138029498Y-122737180D01*
X138088463Y-122847494D01*
X138167815Y-122944185D01*
X138264506Y-123023537D01*
X138374820Y-123082502D01*
X138494518Y-123118812D01*
X138619000Y-123131072D01*
X140019000Y-123131072D01*
X140143482Y-123118812D01*
X140263180Y-123082502D01*
X140373494Y-123023537D01*
X140470185Y-122944185D01*
X140549537Y-122847494D01*
X140608502Y-122737180D01*
X140644812Y-122617482D01*
X140657072Y-122493000D01*
X140657072Y-121093000D01*
X140644812Y-120968518D01*
X140608502Y-120848820D01*
X140549537Y-120738506D01*
X140470185Y-120641815D01*
X140373494Y-120562463D01*
X140263180Y-120503498D01*
X140143482Y-120467188D01*
X140019000Y-120454928D01*
X138619000Y-120454928D01*
X138494518Y-120467188D01*
X138374820Y-120503498D01*
X138264506Y-120562463D01*
X138167815Y-120641815D01*
X138088463Y-120738506D01*
X138029498Y-120848820D01*
X137993188Y-120968518D01*
X137980928Y-121093000D01*
X137980928Y-121129013D01*
X137855962Y-120941987D01*
X137670013Y-120756038D01*
X137451359Y-120609939D01*
X137208405Y-120509304D01*
X136950486Y-120458000D01*
X136687514Y-120458000D01*
X136429595Y-120509304D01*
X136186641Y-120609939D01*
X135967987Y-120756038D01*
X135782038Y-120941987D01*
X135635939Y-121160641D01*
X135569000Y-121322246D01*
X135502061Y-121160641D01*
X135355962Y-120941987D01*
X135170013Y-120756038D01*
X134951359Y-120609939D01*
X134708405Y-120509304D01*
X134450486Y-120458000D01*
X134187514Y-120458000D01*
X133929595Y-120509304D01*
X133686641Y-120609939D01*
X133467987Y-120756038D01*
X133282038Y-120941987D01*
X133135939Y-121160641D01*
X133035304Y-121403595D01*
X132984000Y-121661514D01*
X130154734Y-121661514D01*
X130208557Y-121390929D01*
X130208557Y-120925071D01*
X130117673Y-120468165D01*
X129939397Y-120037768D01*
X129680580Y-119650421D01*
X129351169Y-119321010D01*
X128963822Y-119062193D01*
X128533425Y-118883917D01*
X128076519Y-118793033D01*
X127610661Y-118793033D01*
X127153755Y-118883917D01*
X126723358Y-119062193D01*
X126336011Y-119321010D01*
X126006600Y-119650421D01*
X125747783Y-120037768D01*
X125569507Y-120468165D01*
X125478623Y-120925071D01*
X124993000Y-120925071D01*
X124993000Y-91776001D01*
X125011323Y-91776001D01*
X125014999Y-91813323D01*
X125015000Y-114956668D01*
X125011323Y-114994001D01*
X125015000Y-115031334D01*
X125025997Y-115142987D01*
X125039044Y-115185997D01*
X125069453Y-115286247D01*
X125140025Y-115418277D01*
X125181455Y-115468759D01*
X125234999Y-115534002D01*
X125263997Y-115557800D01*
X126676203Y-116970008D01*
X126699997Y-116999001D01*
X126728990Y-117022795D01*
X126728994Y-117022799D01*
X126799683Y-117080811D01*
X126815722Y-117093974D01*
X126947751Y-117164546D01*
X127091012Y-117208003D01*
X127202665Y-117219000D01*
X127202674Y-117219000D01*
X127239997Y-117222676D01*
X127277320Y-117219000D01*
X133906187Y-117219000D01*
X133686641Y-117309939D01*
X133467987Y-117456038D01*
X133282038Y-117641987D01*
X133135939Y-117860641D01*
X133035304Y-118103595D01*
X132984000Y-118361514D01*
X132984000Y-118624486D01*
X133035304Y-118882405D01*
X133135939Y-119125359D01*
X133282038Y-119344013D01*
X133467987Y-119529962D01*
X133686641Y-119676061D01*
X133929595Y-119776696D01*
X134187514Y-119828000D01*
X134450486Y-119828000D01*
X134708405Y-119776696D01*
X134951359Y-119676061D01*
X135170013Y-119529962D01*
X135355962Y-119344013D01*
X135502061Y-119125359D01*
X135569000Y-118963754D01*
X135635939Y-119125359D01*
X135782038Y-119344013D01*
X135967987Y-119529962D01*
X136186641Y-119676061D01*
X136429595Y-119776696D01*
X136687514Y-119828000D01*
X136950486Y-119828000D01*
X137208405Y-119776696D01*
X137451359Y-119676061D01*
X137670013Y-119529962D01*
X137855962Y-119344013D01*
X138002061Y-119125359D01*
X138069000Y-118963754D01*
X138135939Y-119125359D01*
X138282038Y-119344013D01*
X138467987Y-119529962D01*
X138686641Y-119676061D01*
X138929595Y-119776696D01*
X139187514Y-119828000D01*
X139450486Y-119828000D01*
X139708405Y-119776696D01*
X139951359Y-119676061D01*
X140170013Y-119529962D01*
X140355962Y-119344013D01*
X140502061Y-119125359D01*
X140602696Y-118882405D01*
X140654000Y-118624486D01*
X140654000Y-118361514D01*
X140602696Y-118103595D01*
X140502061Y-117860641D01*
X140355962Y-117641987D01*
X140170013Y-117456038D01*
X139951359Y-117309939D01*
X139731813Y-117219000D01*
X141410199Y-117219000D01*
X144590201Y-120399003D01*
X144613999Y-120428001D01*
X144729724Y-120522974D01*
X144765928Y-120542326D01*
X144765928Y-120788000D01*
X144778188Y-120912482D01*
X144814498Y-121032180D01*
X144873463Y-121142494D01*
X144952815Y-121239185D01*
X145049506Y-121318537D01*
X145159820Y-121377502D01*
X145279518Y-121413812D01*
X145404000Y-121426072D01*
X147204000Y-121426072D01*
X147328482Y-121413812D01*
X147448180Y-121377502D01*
X147558494Y-121318537D01*
X147655185Y-121239185D01*
X147734537Y-121142494D01*
X147793502Y-121032180D01*
X147796813Y-121021265D01*
X147843578Y-121068030D01*
X147959526Y-120952082D01*
X148043208Y-121206261D01*
X148315775Y-121337158D01*
X148608642Y-121412365D01*
X148910553Y-121428991D01*
X149209907Y-121386397D01*
X149495199Y-121286222D01*
X149644792Y-121206261D01*
X149728475Y-120952080D01*
X149701466Y-120925071D01*
X165478623Y-120925071D01*
X165478623Y-121390929D01*
X165569507Y-121847835D01*
X165747783Y-122278232D01*
X166006600Y-122665579D01*
X166336011Y-122994990D01*
X166723358Y-123253807D01*
X167153755Y-123432083D01*
X167610661Y-123522967D01*
X168076519Y-123522967D01*
X168533425Y-123432083D01*
X168963822Y-123253807D01*
X169351169Y-122994990D01*
X169680580Y-122665579D01*
X169939397Y-122278232D01*
X170117673Y-121847835D01*
X170208557Y-121390929D01*
X170208557Y-120925071D01*
X170117673Y-120468165D01*
X169939397Y-120037768D01*
X169680580Y-119650421D01*
X169351169Y-119321010D01*
X168963822Y-119062193D01*
X168533425Y-118883917D01*
X168076519Y-118793033D01*
X167610661Y-118793033D01*
X167153755Y-118883917D01*
X166723358Y-119062193D01*
X166336011Y-119321010D01*
X166006600Y-119650421D01*
X165747783Y-120037768D01*
X165569507Y-120468165D01*
X165478623Y-120925071D01*
X149701466Y-120925071D01*
X148844000Y-120067605D01*
X148829858Y-120081748D01*
X148650253Y-119902143D01*
X148664395Y-119888000D01*
X149023605Y-119888000D01*
X149908080Y-120772475D01*
X150162261Y-120688792D01*
X150293158Y-120416225D01*
X150368365Y-120123358D01*
X150384991Y-119821447D01*
X150342397Y-119522093D01*
X150242222Y-119236801D01*
X150162261Y-119087208D01*
X149908080Y-119003525D01*
X149023605Y-119888000D01*
X148664395Y-119888000D01*
X148650253Y-119873858D01*
X148829858Y-119694253D01*
X148844000Y-119708395D01*
X149728475Y-118823920D01*
X149644792Y-118569739D01*
X149372225Y-118438842D01*
X149079358Y-118363635D01*
X148777447Y-118347009D01*
X148478093Y-118389603D01*
X148192801Y-118489778D01*
X148043208Y-118569739D01*
X147959526Y-118823918D01*
X147843578Y-118707970D01*
X147796813Y-118754735D01*
X147793502Y-118743820D01*
X147734537Y-118633506D01*
X147655185Y-118536815D01*
X147558494Y-118457463D01*
X147448180Y-118398498D01*
X147328482Y-118362188D01*
X147204000Y-118349928D01*
X145404000Y-118349928D01*
X145279518Y-118362188D01*
X145159820Y-118398498D01*
X145049506Y-118457463D01*
X144952815Y-118536815D01*
X144918919Y-118578117D01*
X142797801Y-116457000D01*
X147182678Y-116457000D01*
X147220000Y-116460676D01*
X147257322Y-116457000D01*
X147257333Y-116457000D01*
X147368986Y-116446003D01*
X147512247Y-116402546D01*
X147644276Y-116331974D01*
X147760001Y-116237001D01*
X147783804Y-116207997D01*
X149293560Y-114698241D01*
X149519881Y-114766895D01*
X149774775Y-114792000D01*
X149945225Y-114792000D01*
X150200119Y-114766895D01*
X150527168Y-114667686D01*
X150828578Y-114506579D01*
X151092766Y-114289766D01*
X151309579Y-114025578D01*
X151421066Y-113817000D01*
X152208876Y-113817000D01*
X155267803Y-116875928D01*
X154440677Y-116875928D01*
X154316195Y-116888188D01*
X154196497Y-116924498D01*
X154086183Y-116983463D01*
X153989492Y-117062815D01*
X153910140Y-117159506D01*
X153851175Y-117269820D01*
X153814865Y-117389518D01*
X153802605Y-117514000D01*
X153802605Y-119214000D01*
X153814865Y-119338482D01*
X153851175Y-119458180D01*
X153910140Y-119568494D01*
X153989492Y-119665185D01*
X154086183Y-119744537D01*
X154196497Y-119803502D01*
X154316195Y-119839812D01*
X154440677Y-119852072D01*
X156140677Y-119852072D01*
X156265159Y-119839812D01*
X156384857Y-119803502D01*
X156495171Y-119744537D01*
X156591862Y-119665185D01*
X156671214Y-119568494D01*
X156730179Y-119458180D01*
X156751070Y-119389313D01*
X156775543Y-119419134D01*
X157001663Y-119604706D01*
X157259643Y-119742599D01*
X157539566Y-119827513D01*
X157757727Y-119849000D01*
X157903627Y-119849000D01*
X158121788Y-119827513D01*
X158401711Y-119742599D01*
X158659691Y-119604706D01*
X158885811Y-119419134D01*
X159071383Y-119193014D01*
X159100677Y-119138209D01*
X159129971Y-119193014D01*
X159315543Y-119419134D01*
X159541663Y-119604706D01*
X159799643Y-119742599D01*
X160079566Y-119827513D01*
X160297727Y-119849000D01*
X160443627Y-119849000D01*
X160661788Y-119827513D01*
X160941711Y-119742599D01*
X161199691Y-119604706D01*
X161425811Y-119419134D01*
X161611383Y-119193014D01*
X161749276Y-118935034D01*
X161834190Y-118655111D01*
X161862862Y-118364000D01*
X161834190Y-118072889D01*
X161749276Y-117792966D01*
X161611383Y-117534986D01*
X161425811Y-117308866D01*
X161199691Y-117123294D01*
X160941711Y-116985401D01*
X160661788Y-116900487D01*
X160443627Y-116879000D01*
X160297727Y-116879000D01*
X160079566Y-116900487D01*
X160004682Y-116923203D01*
X154398676Y-111317198D01*
X154398676Y-110094665D01*
X156077000Y-110094665D01*
X156077000Y-110377335D01*
X156132147Y-110654574D01*
X156240320Y-110915727D01*
X156397363Y-111150759D01*
X156597241Y-111350637D01*
X156832273Y-111507680D01*
X157093426Y-111615853D01*
X157370665Y-111671000D01*
X157653335Y-111671000D01*
X157930574Y-111615853D01*
X158191727Y-111507680D01*
X158247210Y-111470607D01*
X158260815Y-111487185D01*
X158357506Y-111566537D01*
X158467820Y-111625502D01*
X158587518Y-111661812D01*
X158712000Y-111674072D01*
X159226250Y-111671000D01*
X159385000Y-111512250D01*
X159385000Y-110363000D01*
X159639000Y-110363000D01*
X159639000Y-111512250D01*
X159797750Y-111671000D01*
X160312000Y-111674072D01*
X160436482Y-111661812D01*
X160556180Y-111625502D01*
X160666494Y-111566537D01*
X160763185Y-111487185D01*
X160842537Y-111390494D01*
X160901502Y-111280180D01*
X160937812Y-111160482D01*
X160950072Y-111036000D01*
X160947000Y-110521750D01*
X160788250Y-110363000D01*
X159639000Y-110363000D01*
X159385000Y-110363000D01*
X159365000Y-110363000D01*
X159365000Y-110109000D01*
X159385000Y-110109000D01*
X159385000Y-108959750D01*
X159639000Y-108959750D01*
X159639000Y-110109000D01*
X160788250Y-110109000D01*
X160947000Y-109950250D01*
X160950072Y-109436000D01*
X160937812Y-109311518D01*
X160901502Y-109191820D01*
X160842537Y-109081506D01*
X160763185Y-108984815D01*
X160666494Y-108905463D01*
X160556180Y-108846498D01*
X160436482Y-108810188D01*
X160312000Y-108797928D01*
X159797750Y-108801000D01*
X159639000Y-108959750D01*
X159385000Y-108959750D01*
X159226250Y-108801000D01*
X158712000Y-108797928D01*
X158587518Y-108810188D01*
X158467820Y-108846498D01*
X158357506Y-108905463D01*
X158260815Y-108984815D01*
X158247210Y-109001393D01*
X158191727Y-108964320D01*
X157930574Y-108856147D01*
X157653335Y-108801000D01*
X157370665Y-108801000D01*
X157093426Y-108856147D01*
X156832273Y-108964320D01*
X156597241Y-109121363D01*
X156397363Y-109321241D01*
X156240320Y-109556273D01*
X156132147Y-109817426D01*
X156077000Y-110094665D01*
X154398676Y-110094665D01*
X154398676Y-102862496D01*
X154402352Y-102825173D01*
X154398676Y-102787850D01*
X154398676Y-102787841D01*
X154387679Y-102676188D01*
X154344222Y-102532927D01*
X154273650Y-102400898D01*
X154178677Y-102285173D01*
X154149679Y-102261375D01*
X151107805Y-99219502D01*
X151084002Y-99190498D01*
X150968277Y-99095525D01*
X150838146Y-99025967D01*
X154020000Y-99025967D01*
X154020000Y-99348033D01*
X154082832Y-99663912D01*
X154206082Y-99961463D01*
X154385013Y-100229252D01*
X154612748Y-100456987D01*
X154880537Y-100635918D01*
X155178088Y-100759168D01*
X155493967Y-100822000D01*
X155816033Y-100822000D01*
X156131912Y-100759168D01*
X156429463Y-100635918D01*
X156697252Y-100456987D01*
X156924987Y-100229252D01*
X157103918Y-99961463D01*
X157227168Y-99663912D01*
X157290000Y-99348033D01*
X157290000Y-99025967D01*
X157227168Y-98710088D01*
X157103918Y-98412537D01*
X156924987Y-98144748D01*
X156697252Y-97917013D01*
X156429463Y-97738082D01*
X156131912Y-97614832D01*
X155816033Y-97552000D01*
X155493967Y-97552000D01*
X155178088Y-97614832D01*
X154880537Y-97738082D01*
X154612748Y-97917013D01*
X154385013Y-98144748D01*
X154206082Y-98412537D01*
X154082832Y-98710088D01*
X154020000Y-99025967D01*
X150838146Y-99025967D01*
X150836248Y-99024953D01*
X150692987Y-98981496D01*
X150581334Y-98970499D01*
X150581323Y-98970499D01*
X150544001Y-98966823D01*
X150506679Y-98970499D01*
X144127336Y-98970499D01*
X144090003Y-98966822D01*
X144052670Y-98970499D01*
X143941017Y-98981496D01*
X143797756Y-99024953D01*
X143665727Y-99095525D01*
X143550002Y-99190498D01*
X143526204Y-99219496D01*
X141438072Y-101307629D01*
X141438072Y-100055500D01*
X141425812Y-99931018D01*
X141389502Y-99811320D01*
X141330537Y-99701006D01*
X141251185Y-99604315D01*
X141154494Y-99524963D01*
X141044180Y-99465998D01*
X140924482Y-99429688D01*
X140800000Y-99417428D01*
X140409399Y-99417428D01*
X140355862Y-99317267D01*
X140257764Y-99197736D01*
X140227816Y-99173158D01*
X138934999Y-97880342D01*
X138934999Y-96942822D01*
X140800000Y-96942822D01*
X140924482Y-96930562D01*
X141044180Y-96894252D01*
X141154494Y-96835287D01*
X141251185Y-96755935D01*
X141330537Y-96659244D01*
X141389502Y-96548930D01*
X141425812Y-96429232D01*
X141438072Y-96304750D01*
X141438072Y-95204750D01*
X148116606Y-95204750D01*
X148150105Y-95544869D01*
X148249314Y-95871918D01*
X148410421Y-96173328D01*
X148627234Y-96437516D01*
X148891422Y-96654329D01*
X149192832Y-96815436D01*
X149519881Y-96914645D01*
X149774775Y-96939750D01*
X149945225Y-96939750D01*
X150200119Y-96914645D01*
X150527168Y-96815436D01*
X150828578Y-96654329D01*
X151092766Y-96437516D01*
X151309579Y-96173328D01*
X151470686Y-95871918D01*
X151569895Y-95544869D01*
X151603394Y-95204750D01*
X151569895Y-94864631D01*
X151470686Y-94537582D01*
X151309579Y-94236172D01*
X151092766Y-93971984D01*
X150828578Y-93755171D01*
X150527168Y-93594064D01*
X150200119Y-93494855D01*
X149945225Y-93469750D01*
X149774775Y-93469750D01*
X149519881Y-93494855D01*
X149192832Y-93594064D01*
X148891422Y-93755171D01*
X148627234Y-93971984D01*
X148410421Y-94236172D01*
X148249314Y-94537582D01*
X148150105Y-94864631D01*
X148116606Y-95204750D01*
X141438072Y-95204750D01*
X141438072Y-94104750D01*
X141425812Y-93980268D01*
X141389502Y-93860570D01*
X141330537Y-93750256D01*
X141251185Y-93653565D01*
X141154494Y-93574213D01*
X141044180Y-93515248D01*
X140924482Y-93478938D01*
X140800000Y-93466678D01*
X138934999Y-93466678D01*
X138934999Y-92529158D01*
X140227817Y-91236341D01*
X140257764Y-91211764D01*
X140282634Y-91181461D01*
X140315817Y-91141027D01*
X140355862Y-91092233D01*
X140409399Y-90992072D01*
X140800000Y-90992072D01*
X140924482Y-90979812D01*
X141044180Y-90943502D01*
X141154494Y-90884537D01*
X141251185Y-90805185D01*
X141330537Y-90708494D01*
X141389502Y-90598180D01*
X141425812Y-90478482D01*
X141438072Y-90354000D01*
X141438072Y-90039000D01*
X147240841Y-90039000D01*
X150693656Y-93491816D01*
X150718234Y-93521764D01*
X150748182Y-93546342D01*
X150748185Y-93546345D01*
X150777557Y-93570450D01*
X150837765Y-93619862D01*
X150974138Y-93692754D01*
X151087670Y-93727194D01*
X151122110Y-93737641D01*
X151136488Y-93739057D01*
X151237437Y-93749000D01*
X151237444Y-93749000D01*
X151275997Y-93752797D01*
X151314550Y-93749000D01*
X162920843Y-93749000D01*
X160127190Y-96542653D01*
X160097236Y-96567236D01*
X159999138Y-96686768D01*
X159926246Y-96823141D01*
X159881359Y-96971114D01*
X159870000Y-97086440D01*
X159870000Y-97086447D01*
X159866203Y-97125000D01*
X159870000Y-97163553D01*
X159870000Y-97548928D01*
X159655000Y-97548928D01*
X159530518Y-97561188D01*
X159410820Y-97597498D01*
X159300506Y-97656463D01*
X159203815Y-97735815D01*
X159124463Y-97832506D01*
X159065498Y-97942820D01*
X159029188Y-98062518D01*
X159016928Y-98187000D01*
X159016928Y-100187000D01*
X159029188Y-100311482D01*
X159065498Y-100431180D01*
X159124463Y-100541494D01*
X159203815Y-100638185D01*
X159300506Y-100717537D01*
X159410820Y-100776502D01*
X159530518Y-100812812D01*
X159655000Y-100825072D01*
X161655000Y-100825072D01*
X161779482Y-100812812D01*
X161899180Y-100776502D01*
X162009494Y-100717537D01*
X162106185Y-100638185D01*
X162185537Y-100541494D01*
X162244502Y-100431180D01*
X162280812Y-100311482D01*
X162293072Y-100187000D01*
X162293072Y-98416980D01*
X164525437Y-98416980D01*
X164596429Y-98635094D01*
X164740031Y-98910923D01*
X164934685Y-99153437D01*
X165172911Y-99353316D01*
X165445554Y-99502879D01*
X165742137Y-99596378D01*
X165989000Y-99469570D01*
X165989000Y-98171000D01*
X164645406Y-98171000D01*
X164525437Y-98416980D01*
X162293072Y-98416980D01*
X162293072Y-98187000D01*
X162280812Y-98062518D01*
X162244502Y-97942820D01*
X162185537Y-97832506D01*
X162106185Y-97735815D01*
X162009494Y-97656463D01*
X161899180Y-97597498D01*
X161779482Y-97561188D01*
X161655000Y-97548928D01*
X161440000Y-97548928D01*
X161440000Y-97450157D01*
X164600653Y-94289504D01*
X164664815Y-94367685D01*
X164761506Y-94447037D01*
X164845446Y-94491905D01*
X164742155Y-94617765D01*
X164594745Y-94893551D01*
X164503970Y-95192796D01*
X164473319Y-95504000D01*
X164503970Y-95815204D01*
X164594745Y-96114449D01*
X164742155Y-96390235D01*
X164940537Y-96631963D01*
X165119899Y-96779163D01*
X164934685Y-96934563D01*
X164740031Y-97177077D01*
X164596429Y-97452906D01*
X164525437Y-97671020D01*
X164645406Y-97917000D01*
X165989000Y-97917000D01*
X165989000Y-97897000D01*
X166243000Y-97897000D01*
X166243000Y-97917000D01*
X166263000Y-97917000D01*
X166263000Y-98171000D01*
X166243000Y-98171000D01*
X166243000Y-99469570D01*
X166489863Y-99596378D01*
X166781011Y-99504593D01*
X166781011Y-103543186D01*
X164589003Y-105735196D01*
X164559999Y-105758999D01*
X164504871Y-105826174D01*
X164465026Y-105874724D01*
X164461261Y-105881768D01*
X164394454Y-106006754D01*
X164350997Y-106150015D01*
X164340000Y-106261668D01*
X164340000Y-106261678D01*
X164336324Y-106299000D01*
X164340000Y-106336323D01*
X164340001Y-111425668D01*
X164336324Y-111463000D01*
X164340001Y-111500333D01*
X164350998Y-111611986D01*
X164364180Y-111655442D01*
X164394454Y-111755246D01*
X164465026Y-111887276D01*
X164495367Y-111924246D01*
X164560000Y-112003001D01*
X164588998Y-112026799D01*
X165087200Y-112525002D01*
X165110999Y-112554001D01*
X165226724Y-112648974D01*
X165262928Y-112668326D01*
X165262928Y-112864000D01*
X165275188Y-112988482D01*
X165311498Y-113108180D01*
X165370463Y-113218494D01*
X165449815Y-113315185D01*
X165546506Y-113394537D01*
X165656820Y-113453502D01*
X165776518Y-113489812D01*
X165901000Y-113502072D01*
X167601000Y-113502072D01*
X167725482Y-113489812D01*
X167845180Y-113453502D01*
X167955494Y-113394537D01*
X168052185Y-113315185D01*
X168131537Y-113218494D01*
X168190502Y-113108180D01*
X168226812Y-112988482D01*
X168239072Y-112864000D01*
X168239072Y-111164000D01*
X168226812Y-111039518D01*
X168190502Y-110919820D01*
X168131537Y-110809506D01*
X168052185Y-110712815D01*
X167955494Y-110633463D01*
X167845180Y-110574498D01*
X167764534Y-110550034D01*
X167848588Y-110474269D01*
X168022641Y-110240920D01*
X168147825Y-109978099D01*
X168192476Y-109830890D01*
X168071155Y-109601000D01*
X166878000Y-109601000D01*
X166878000Y-109621000D01*
X166624000Y-109621000D01*
X166624000Y-109601000D01*
X166604000Y-109601000D01*
X166604000Y-109347000D01*
X166624000Y-109347000D01*
X166624000Y-109327000D01*
X166878000Y-109327000D01*
X166878000Y-109347000D01*
X168071155Y-109347000D01*
X168192476Y-109117110D01*
X168147825Y-108969901D01*
X168022641Y-108707080D01*
X167848588Y-108473731D01*
X167632355Y-108278822D01*
X167515477Y-108209201D01*
X167580014Y-108174706D01*
X167806134Y-107989134D01*
X167991706Y-107763014D01*
X168129599Y-107505034D01*
X168214513Y-107225111D01*
X168243185Y-106934000D01*
X168214513Y-106642889D01*
X168129599Y-106362966D01*
X167991706Y-106104986D01*
X167806134Y-105878866D01*
X167580014Y-105693294D01*
X167322034Y-105555401D01*
X167042111Y-105470487D01*
X167006794Y-105467009D01*
X168052018Y-104421785D01*
X168081011Y-104397991D01*
X168104805Y-104368998D01*
X168104809Y-104368994D01*
X168175983Y-104282267D01*
X168175984Y-104282266D01*
X168246556Y-104150237D01*
X168290013Y-104006976D01*
X168301010Y-103895323D01*
X168301010Y-103895314D01*
X168304686Y-103857991D01*
X168301010Y-103820668D01*
X168301010Y-91708831D01*
X168304686Y-91671508D01*
X168301010Y-91634185D01*
X168301010Y-91634175D01*
X168290013Y-91522522D01*
X168246556Y-91379261D01*
X168243438Y-91373428D01*
X168175984Y-91247231D01*
X168104809Y-91160505D01*
X168081011Y-91131507D01*
X168052014Y-91107710D01*
X167347315Y-90403012D01*
X167323513Y-90374009D01*
X167207788Y-90279036D01*
X167075759Y-90208464D01*
X166932498Y-90165007D01*
X166820845Y-90154010D01*
X166820834Y-90154010D01*
X166783512Y-90150334D01*
X166746190Y-90154010D01*
X163586846Y-90154010D01*
X163612236Y-90070309D01*
X163639943Y-89789000D01*
X163612236Y-89507691D01*
X163530182Y-89237192D01*
X163396932Y-88987899D01*
X163217608Y-88769392D01*
X162999101Y-88590068D01*
X162866142Y-88519000D01*
X162999101Y-88447932D01*
X163217608Y-88268608D01*
X163396932Y-88050101D01*
X163530182Y-87800808D01*
X163612236Y-87530309D01*
X163639943Y-87249000D01*
X163612236Y-86967691D01*
X163530182Y-86697192D01*
X163396932Y-86447899D01*
X163217608Y-86229392D01*
X162999101Y-86050068D01*
X162866142Y-85979000D01*
X162999101Y-85907932D01*
X163217608Y-85728608D01*
X163396932Y-85510101D01*
X163530182Y-85260808D01*
X163612236Y-84990309D01*
X163639943Y-84709000D01*
X163612236Y-84427691D01*
X163530182Y-84157192D01*
X163396932Y-83907899D01*
X163217608Y-83689392D01*
X162999101Y-83510068D01*
X162871259Y-83441735D01*
X163100839Y-83291601D01*
X163302500Y-83093895D01*
X163461715Y-82860646D01*
X163572367Y-82600818D01*
X163589904Y-82518039D01*
X163467915Y-82296000D01*
X161925000Y-82296000D01*
X161925000Y-82316000D01*
X161671000Y-82316000D01*
X161671000Y-82296000D01*
X160128085Y-82296000D01*
X160006096Y-82518039D01*
X160023633Y-82600818D01*
X160134285Y-82860646D01*
X160293500Y-83093895D01*
X160495161Y-83291601D01*
X160724741Y-83441735D01*
X160596899Y-83510068D01*
X160378392Y-83689392D01*
X160199068Y-83907899D01*
X160065818Y-84157192D01*
X159983764Y-84427691D01*
X159956057Y-84709000D01*
X159958598Y-84734796D01*
X159421804Y-84198003D01*
X159398001Y-84168999D01*
X159282276Y-84074026D01*
X159150247Y-84003454D01*
X159006986Y-83959997D01*
X158895333Y-83949000D01*
X158895322Y-83949000D01*
X158858000Y-83945324D01*
X158820678Y-83949000D01*
X155798901Y-83949000D01*
X155776932Y-83907899D01*
X155597608Y-83689392D01*
X155484518Y-83596581D01*
X155502482Y-83594812D01*
X155622180Y-83558502D01*
X155732494Y-83499537D01*
X155829185Y-83420185D01*
X155908537Y-83323494D01*
X155967502Y-83213180D01*
X156003812Y-83093482D01*
X156016072Y-82969000D01*
X156016072Y-81819961D01*
X160006096Y-81819961D01*
X160128085Y-82042000D01*
X161671000Y-82042000D01*
X161671000Y-80734000D01*
X161925000Y-80734000D01*
X161925000Y-82042000D01*
X163467915Y-82042000D01*
X163589904Y-81819961D01*
X163572367Y-81737182D01*
X163461715Y-81477354D01*
X163302500Y-81244105D01*
X163100839Y-81046399D01*
X162915308Y-80925071D01*
X165478623Y-80925071D01*
X165478623Y-81390929D01*
X165569507Y-81847835D01*
X165747783Y-82278232D01*
X166006600Y-82665579D01*
X166336011Y-82994990D01*
X166723358Y-83253807D01*
X167153755Y-83432083D01*
X167610661Y-83522967D01*
X168076519Y-83522967D01*
X168533425Y-83432083D01*
X168963822Y-83253807D01*
X169351169Y-82994990D01*
X169680580Y-82665579D01*
X169939397Y-82278232D01*
X170117673Y-81847835D01*
X170208557Y-81390929D01*
X170208557Y-80925071D01*
X170117673Y-80468165D01*
X169939397Y-80037768D01*
X169680580Y-79650421D01*
X169351169Y-79321010D01*
X168963822Y-79062193D01*
X168533425Y-78883917D01*
X168076519Y-78793033D01*
X167610661Y-78793033D01*
X167153755Y-78883917D01*
X166723358Y-79062193D01*
X166336011Y-79321010D01*
X166006600Y-79650421D01*
X165747783Y-80037768D01*
X165569507Y-80468165D01*
X165478623Y-80925071D01*
X162915308Y-80925071D01*
X162864483Y-80891834D01*
X162602514Y-80786350D01*
X162325000Y-80734000D01*
X161925000Y-80734000D01*
X161671000Y-80734000D01*
X161271000Y-80734000D01*
X160993486Y-80786350D01*
X160731517Y-80891834D01*
X160495161Y-81046399D01*
X160293500Y-81244105D01*
X160134285Y-81477354D01*
X160023633Y-81737182D01*
X160006096Y-81819961D01*
X156016072Y-81819961D01*
X156016072Y-81369000D01*
X156003812Y-81244518D01*
X155967502Y-81124820D01*
X155908537Y-81014506D01*
X155829185Y-80917815D01*
X155732494Y-80838463D01*
X155622180Y-80779498D01*
X155502482Y-80743188D01*
X155378000Y-80730928D01*
X152978000Y-80730928D01*
X152853518Y-80743188D01*
X152733820Y-80779498D01*
X152623506Y-80838463D01*
X152526815Y-80917815D01*
X152447463Y-81014506D01*
X152388498Y-81124820D01*
X152352188Y-81244518D01*
X152339928Y-81369000D01*
X152339928Y-82969000D01*
X152352188Y-83093482D01*
X152388498Y-83213180D01*
X152447463Y-83323494D01*
X152526815Y-83420185D01*
X152623506Y-83499537D01*
X152733820Y-83558502D01*
X152853518Y-83594812D01*
X152871482Y-83596581D01*
X152758392Y-83689392D01*
X152579068Y-83907899D01*
X152557099Y-83949000D01*
X150353804Y-83949000D01*
X149339629Y-82934826D01*
X149480680Y-82723727D01*
X149588853Y-82462574D01*
X149644000Y-82185335D01*
X149644000Y-81902665D01*
X149588853Y-81625426D01*
X149480680Y-81364273D01*
X149323637Y-81129241D01*
X149123759Y-80929363D01*
X148888727Y-80772320D01*
X148627574Y-80664147D01*
X148350335Y-80609000D01*
X148067665Y-80609000D01*
X147790426Y-80664147D01*
X147529273Y-80772320D01*
X147294241Y-80929363D01*
X147094363Y-81129241D01*
X146937320Y-81364273D01*
X146829147Y-81625426D01*
X146774000Y-81902665D01*
X146774000Y-82185335D01*
X146829147Y-82462574D01*
X146910509Y-82658999D01*
X143157491Y-82658999D01*
X143238853Y-82462574D01*
X143294000Y-82185335D01*
X143294000Y-81902665D01*
X143238853Y-81625426D01*
X143130680Y-81364273D01*
X142973637Y-81129241D01*
X142773759Y-80929363D01*
X142538727Y-80772320D01*
X142277574Y-80664147D01*
X142000335Y-80609000D01*
X141717665Y-80609000D01*
X141440426Y-80664147D01*
X141179273Y-80772320D01*
X140944241Y-80929363D01*
X140744363Y-81129241D01*
X140587320Y-81364273D01*
X140479147Y-81625426D01*
X140424000Y-81902665D01*
X140424000Y-82034199D01*
X139507803Y-81118002D01*
X139484000Y-81088998D01*
X139368275Y-80994025D01*
X139236246Y-80923453D01*
X139092985Y-80879996D01*
X138981332Y-80868999D01*
X138981321Y-80868999D01*
X138943999Y-80865323D01*
X138906677Y-80868999D01*
X135236321Y-80868999D01*
X135198998Y-80865323D01*
X135161675Y-80868999D01*
X135161666Y-80868999D01*
X135050013Y-80879996D01*
X134906752Y-80923453D01*
X134774722Y-80994025D01*
X134710905Y-81046399D01*
X134658998Y-81088998D01*
X134635200Y-81117996D01*
X132533987Y-83219210D01*
X132504989Y-83243008D01*
X132481191Y-83272006D01*
X132481190Y-83272007D01*
X132410015Y-83358733D01*
X132339443Y-83490763D01*
X132295987Y-83634024D01*
X132281313Y-83783009D01*
X132284990Y-83820342D01*
X132284989Y-103241579D01*
X132281313Y-103278901D01*
X132284989Y-103316223D01*
X132284989Y-103316233D01*
X132295986Y-103427886D01*
X132318312Y-103501485D01*
X132339443Y-103571147D01*
X132410015Y-103703177D01*
X132449617Y-103751432D01*
X132504988Y-103818902D01*
X132533992Y-103842705D01*
X135397331Y-106706044D01*
X135308987Y-106679246D01*
X135197334Y-106668249D01*
X135197323Y-106668249D01*
X135160001Y-106664573D01*
X135122679Y-106668249D01*
X128162323Y-106668249D01*
X128125000Y-106664573D01*
X128087677Y-106668249D01*
X128087668Y-106668249D01*
X127976015Y-106679246D01*
X127832754Y-106722703D01*
X127700725Y-106793275D01*
X127585000Y-106888248D01*
X127561197Y-106917252D01*
X127323887Y-107154562D01*
X127141335Y-107118250D01*
X126858665Y-107118250D01*
X126581426Y-107173397D01*
X126534999Y-107192628D01*
X126534999Y-103915336D01*
X126788184Y-103978800D01*
X127070512Y-103992717D01*
X127350130Y-103951287D01*
X127616292Y-103856103D01*
X127741514Y-103789171D01*
X127813097Y-103545202D01*
X127000000Y-102732105D01*
X126985858Y-102746248D01*
X126806253Y-102566643D01*
X126820395Y-102552500D01*
X127179605Y-102552500D01*
X127992702Y-103365597D01*
X128236671Y-103294014D01*
X128357571Y-103038504D01*
X128426300Y-102764316D01*
X128440217Y-102481988D01*
X128398787Y-102202370D01*
X128303603Y-101936208D01*
X128236671Y-101810986D01*
X127992702Y-101739403D01*
X127179605Y-102552500D01*
X126820395Y-102552500D01*
X126806253Y-102538358D01*
X126985858Y-102358753D01*
X127000000Y-102372895D01*
X127813097Y-101559798D01*
X127741514Y-101315829D01*
X127486004Y-101194929D01*
X127211816Y-101126200D01*
X126929488Y-101112283D01*
X126649870Y-101153713D01*
X126534999Y-101194793D01*
X126534999Y-97914586D01*
X126788184Y-97978050D01*
X127070512Y-97991967D01*
X127350130Y-97950537D01*
X127616292Y-97855353D01*
X127741514Y-97788421D01*
X127813097Y-97544452D01*
X127000000Y-96731355D01*
X126985858Y-96745498D01*
X126806253Y-96565893D01*
X126820395Y-96551750D01*
X127179605Y-96551750D01*
X127992702Y-97364847D01*
X128236671Y-97293264D01*
X128357571Y-97037754D01*
X128426300Y-96763566D01*
X128440217Y-96481238D01*
X128398787Y-96201620D01*
X128303603Y-95935458D01*
X128236671Y-95810236D01*
X127992702Y-95738653D01*
X127179605Y-96551750D01*
X126820395Y-96551750D01*
X126806253Y-96537608D01*
X126985858Y-96358003D01*
X127000000Y-96372145D01*
X127813097Y-95559048D01*
X127741514Y-95315079D01*
X127486004Y-95194179D01*
X127211816Y-95125450D01*
X126929488Y-95111533D01*
X126649870Y-95152963D01*
X126534999Y-95194043D01*
X126534999Y-92090802D01*
X126676114Y-91949688D01*
X126858665Y-91986000D01*
X127141335Y-91986000D01*
X127418574Y-91930853D01*
X127679727Y-91822680D01*
X127914759Y-91665637D01*
X128114637Y-91465759D01*
X128271680Y-91230727D01*
X128379853Y-90969574D01*
X128435000Y-90692335D01*
X128435000Y-90409665D01*
X128379853Y-90132426D01*
X128271680Y-89871273D01*
X128114637Y-89636241D01*
X127914759Y-89436363D01*
X127679727Y-89279320D01*
X127418574Y-89171147D01*
X127141335Y-89116000D01*
X126858665Y-89116000D01*
X126581426Y-89171147D01*
X126320273Y-89279320D01*
X126085241Y-89436363D01*
X125885363Y-89636241D01*
X125728320Y-89871273D01*
X125620147Y-90132426D01*
X125565000Y-90409665D01*
X125565000Y-90692335D01*
X125601312Y-90874886D01*
X125264002Y-91212197D01*
X125234998Y-91236000D01*
X125183098Y-91299241D01*
X125140025Y-91351725D01*
X125091345Y-91442798D01*
X125069453Y-91483755D01*
X125025996Y-91627016D01*
X125014999Y-91738669D01*
X125014999Y-91738679D01*
X125011323Y-91776001D01*
X124993000Y-91776001D01*
X124993000Y-80925071D01*
X125478623Y-80925071D01*
X125478623Y-81390929D01*
X125569507Y-81847835D01*
X125747783Y-82278232D01*
X126006600Y-82665579D01*
X126336011Y-82994990D01*
X126723358Y-83253807D01*
X127153755Y-83432083D01*
X127610661Y-83522967D01*
X128076519Y-83522967D01*
X128533425Y-83432083D01*
X128963822Y-83253807D01*
X129351169Y-82994990D01*
X129680580Y-82665579D01*
X129939397Y-82278232D01*
X130117673Y-81847835D01*
X130208557Y-81390929D01*
X130208557Y-80925071D01*
X130117673Y-80468165D01*
X129939397Y-80037768D01*
X129680580Y-79650421D01*
X129351169Y-79321010D01*
X128963822Y-79062193D01*
X128533425Y-78883917D01*
X128076519Y-78793033D01*
X127610661Y-78793033D01*
X127153755Y-78883917D01*
X126723358Y-79062193D01*
X126336011Y-79321010D01*
X126006600Y-79650421D01*
X125747783Y-80037768D01*
X125569507Y-80468165D01*
X125478623Y-80925071D01*
X124993000Y-80925071D01*
X124993000Y-79915279D01*
X125022234Y-79617125D01*
X125099448Y-79361378D01*
X125224869Y-79125496D01*
X125393716Y-78918470D01*
X125599554Y-78748187D01*
X125834556Y-78621121D01*
X126089756Y-78542124D01*
X126385882Y-78511000D01*
X169385721Y-78511000D01*
X169683875Y-78540234D01*
X169683875Y-78540234D01*
G37*
X169683875Y-78540234D02*
X169939622Y-78617448D01*
X170175504Y-78742869D01*
X170382530Y-78911716D01*
X170552813Y-79117554D01*
X170679879Y-79352556D01*
X170758876Y-79607756D01*
X170790000Y-79903882D01*
X170790001Y-122399675D01*
X170760766Y-122697840D01*
X170683551Y-122953588D01*
X170558131Y-123189468D01*
X170389289Y-123396489D01*
X170183446Y-123566777D01*
X169948444Y-123693843D01*
X169693240Y-123772841D01*
X169397136Y-123803962D01*
X126397319Y-123800004D01*
X126099124Y-123770766D01*
X125843376Y-123693551D01*
X125607496Y-123568131D01*
X125400475Y-123399289D01*
X125230187Y-123193446D01*
X125103121Y-122958444D01*
X125024123Y-122703240D01*
X124993000Y-122407118D01*
X124993000Y-120925071D01*
X125478623Y-120925071D01*
X125478623Y-121390929D01*
X125569507Y-121847835D01*
X125747783Y-122278232D01*
X126006600Y-122665579D01*
X126336011Y-122994990D01*
X126723358Y-123253807D01*
X127153755Y-123432083D01*
X127610661Y-123522967D01*
X128076519Y-123522967D01*
X128533425Y-123432083D01*
X128963822Y-123253807D01*
X129351169Y-122994990D01*
X129680580Y-122665579D01*
X129939397Y-122278232D01*
X130117673Y-121847835D01*
X130154734Y-121661514D01*
X132984000Y-121661514D01*
X132984000Y-121924486D01*
X133035304Y-122182405D01*
X133135939Y-122425359D01*
X133282038Y-122644013D01*
X133467987Y-122829962D01*
X133686641Y-122976061D01*
X133929595Y-123076696D01*
X134187514Y-123128000D01*
X134450486Y-123128000D01*
X134708405Y-123076696D01*
X134951359Y-122976061D01*
X135170013Y-122829962D01*
X135355962Y-122644013D01*
X135502061Y-122425359D01*
X135569000Y-122263754D01*
X135635939Y-122425359D01*
X135782038Y-122644013D01*
X135967987Y-122829962D01*
X136186641Y-122976061D01*
X136429595Y-123076696D01*
X136687514Y-123128000D01*
X136950486Y-123128000D01*
X137208405Y-123076696D01*
X137451359Y-122976061D01*
X137670013Y-122829962D01*
X137855962Y-122644013D01*
X137980928Y-122456987D01*
X137980928Y-122493000D01*
X137993188Y-122617482D01*
X138029498Y-122737180D01*
X138088463Y-122847494D01*
X138167815Y-122944185D01*
X138264506Y-123023537D01*
X138374820Y-123082502D01*
X138494518Y-123118812D01*
X138619000Y-123131072D01*
X140019000Y-123131072D01*
X140143482Y-123118812D01*
X140263180Y-123082502D01*
X140373494Y-123023537D01*
X140470185Y-122944185D01*
X140549537Y-122847494D01*
X140608502Y-122737180D01*
X140644812Y-122617482D01*
X140657072Y-122493000D01*
X140657072Y-121093000D01*
X140644812Y-120968518D01*
X140608502Y-120848820D01*
X140549537Y-120738506D01*
X140470185Y-120641815D01*
X140373494Y-120562463D01*
X140263180Y-120503498D01*
X140143482Y-120467188D01*
X140019000Y-120454928D01*
X138619000Y-120454928D01*
X138494518Y-120467188D01*
X138374820Y-120503498D01*
X138264506Y-120562463D01*
X138167815Y-120641815D01*
X138088463Y-120738506D01*
X138029498Y-120848820D01*
X137993188Y-120968518D01*
X137980928Y-121093000D01*
X137980928Y-121129013D01*
X137855962Y-120941987D01*
X137670013Y-120756038D01*
X137451359Y-120609939D01*
X137208405Y-120509304D01*
X136950486Y-120458000D01*
X136687514Y-120458000D01*
X136429595Y-120509304D01*
X136186641Y-120609939D01*
X135967987Y-120756038D01*
X135782038Y-120941987D01*
X135635939Y-121160641D01*
X135569000Y-121322246D01*
X135502061Y-121160641D01*
X135355962Y-120941987D01*
X135170013Y-120756038D01*
X134951359Y-120609939D01*
X134708405Y-120509304D01*
X134450486Y-120458000D01*
X134187514Y-120458000D01*
X133929595Y-120509304D01*
X133686641Y-120609939D01*
X133467987Y-120756038D01*
X133282038Y-120941987D01*
X133135939Y-121160641D01*
X133035304Y-121403595D01*
X132984000Y-121661514D01*
X130154734Y-121661514D01*
X130208557Y-121390929D01*
X130208557Y-120925071D01*
X130117673Y-120468165D01*
X129939397Y-120037768D01*
X129680580Y-119650421D01*
X129351169Y-119321010D01*
X128963822Y-119062193D01*
X128533425Y-118883917D01*
X128076519Y-118793033D01*
X127610661Y-118793033D01*
X127153755Y-118883917D01*
X126723358Y-119062193D01*
X126336011Y-119321010D01*
X126006600Y-119650421D01*
X125747783Y-120037768D01*
X125569507Y-120468165D01*
X125478623Y-120925071D01*
X124993000Y-120925071D01*
X124993000Y-91776001D01*
X125011323Y-91776001D01*
X125014999Y-91813323D01*
X125015000Y-114956668D01*
X125011323Y-114994001D01*
X125015000Y-115031334D01*
X125025997Y-115142987D01*
X125039044Y-115185997D01*
X125069453Y-115286247D01*
X125140025Y-115418277D01*
X125181455Y-115468759D01*
X125234999Y-115534002D01*
X125263997Y-115557800D01*
X126676203Y-116970008D01*
X126699997Y-116999001D01*
X126728990Y-117022795D01*
X126728994Y-117022799D01*
X126799683Y-117080811D01*
X126815722Y-117093974D01*
X126947751Y-117164546D01*
X127091012Y-117208003D01*
X127202665Y-117219000D01*
X127202674Y-117219000D01*
X127239997Y-117222676D01*
X127277320Y-117219000D01*
X133906187Y-117219000D01*
X133686641Y-117309939D01*
X133467987Y-117456038D01*
X133282038Y-117641987D01*
X133135939Y-117860641D01*
X133035304Y-118103595D01*
X132984000Y-118361514D01*
X132984000Y-118624486D01*
X133035304Y-118882405D01*
X133135939Y-119125359D01*
X133282038Y-119344013D01*
X133467987Y-119529962D01*
X133686641Y-119676061D01*
X133929595Y-119776696D01*
X134187514Y-119828000D01*
X134450486Y-119828000D01*
X134708405Y-119776696D01*
X134951359Y-119676061D01*
X135170013Y-119529962D01*
X135355962Y-119344013D01*
X135502061Y-119125359D01*
X135569000Y-118963754D01*
X135635939Y-119125359D01*
X135782038Y-119344013D01*
X135967987Y-119529962D01*
X136186641Y-119676061D01*
X136429595Y-119776696D01*
X136687514Y-119828000D01*
X136950486Y-119828000D01*
X137208405Y-119776696D01*
X137451359Y-119676061D01*
X137670013Y-119529962D01*
X137855962Y-119344013D01*
X138002061Y-119125359D01*
X138069000Y-118963754D01*
X138135939Y-119125359D01*
X138282038Y-119344013D01*
X138467987Y-119529962D01*
X138686641Y-119676061D01*
X138929595Y-119776696D01*
X139187514Y-119828000D01*
X139450486Y-119828000D01*
X139708405Y-119776696D01*
X139951359Y-119676061D01*
X140170013Y-119529962D01*
X140355962Y-119344013D01*
X140502061Y-119125359D01*
X140602696Y-118882405D01*
X140654000Y-118624486D01*
X140654000Y-118361514D01*
X140602696Y-118103595D01*
X140502061Y-117860641D01*
X140355962Y-117641987D01*
X140170013Y-117456038D01*
X139951359Y-117309939D01*
X139731813Y-117219000D01*
X141410199Y-117219000D01*
X144590201Y-120399003D01*
X144613999Y-120428001D01*
X144729724Y-120522974D01*
X144765928Y-120542326D01*
X144765928Y-120788000D01*
X144778188Y-120912482D01*
X144814498Y-121032180D01*
X144873463Y-121142494D01*
X144952815Y-121239185D01*
X145049506Y-121318537D01*
X145159820Y-121377502D01*
X145279518Y-121413812D01*
X145404000Y-121426072D01*
X147204000Y-121426072D01*
X147328482Y-121413812D01*
X147448180Y-121377502D01*
X147558494Y-121318537D01*
X147655185Y-121239185D01*
X147734537Y-121142494D01*
X147793502Y-121032180D01*
X147796813Y-121021265D01*
X147843578Y-121068030D01*
X147959526Y-120952082D01*
X148043208Y-121206261D01*
X148315775Y-121337158D01*
X148608642Y-121412365D01*
X148910553Y-121428991D01*
X149209907Y-121386397D01*
X149495199Y-121286222D01*
X149644792Y-121206261D01*
X149728475Y-120952080D01*
X149701466Y-120925071D01*
X165478623Y-120925071D01*
X165478623Y-121390929D01*
X165569507Y-121847835D01*
X165747783Y-122278232D01*
X166006600Y-122665579D01*
X166336011Y-122994990D01*
X166723358Y-123253807D01*
X167153755Y-123432083D01*
X167610661Y-123522967D01*
X168076519Y-123522967D01*
X168533425Y-123432083D01*
X168963822Y-123253807D01*
X169351169Y-122994990D01*
X169680580Y-122665579D01*
X169939397Y-122278232D01*
X170117673Y-121847835D01*
X170208557Y-121390929D01*
X170208557Y-120925071D01*
X170117673Y-120468165D01*
X169939397Y-120037768D01*
X169680580Y-119650421D01*
X169351169Y-119321010D01*
X168963822Y-119062193D01*
X168533425Y-118883917D01*
X168076519Y-118793033D01*
X167610661Y-118793033D01*
X167153755Y-118883917D01*
X166723358Y-119062193D01*
X166336011Y-119321010D01*
X166006600Y-119650421D01*
X165747783Y-120037768D01*
X165569507Y-120468165D01*
X165478623Y-120925071D01*
X149701466Y-120925071D01*
X148844000Y-120067605D01*
X148829858Y-120081748D01*
X148650253Y-119902143D01*
X148664395Y-119888000D01*
X149023605Y-119888000D01*
X149908080Y-120772475D01*
X150162261Y-120688792D01*
X150293158Y-120416225D01*
X150368365Y-120123358D01*
X150384991Y-119821447D01*
X150342397Y-119522093D01*
X150242222Y-119236801D01*
X150162261Y-119087208D01*
X149908080Y-119003525D01*
X149023605Y-119888000D01*
X148664395Y-119888000D01*
X148650253Y-119873858D01*
X148829858Y-119694253D01*
X148844000Y-119708395D01*
X149728475Y-118823920D01*
X149644792Y-118569739D01*
X149372225Y-118438842D01*
X149079358Y-118363635D01*
X148777447Y-118347009D01*
X148478093Y-118389603D01*
X148192801Y-118489778D01*
X148043208Y-118569739D01*
X147959526Y-118823918D01*
X147843578Y-118707970D01*
X147796813Y-118754735D01*
X147793502Y-118743820D01*
X147734537Y-118633506D01*
X147655185Y-118536815D01*
X147558494Y-118457463D01*
X147448180Y-118398498D01*
X147328482Y-118362188D01*
X147204000Y-118349928D01*
X145404000Y-118349928D01*
X145279518Y-118362188D01*
X145159820Y-118398498D01*
X145049506Y-118457463D01*
X144952815Y-118536815D01*
X144918919Y-118578117D01*
X142797801Y-116457000D01*
X147182678Y-116457000D01*
X147220000Y-116460676D01*
X147257322Y-116457000D01*
X147257333Y-116457000D01*
X147368986Y-116446003D01*
X147512247Y-116402546D01*
X147644276Y-116331974D01*
X147760001Y-116237001D01*
X147783804Y-116207997D01*
X149293560Y-114698241D01*
X149519881Y-114766895D01*
X149774775Y-114792000D01*
X149945225Y-114792000D01*
X150200119Y-114766895D01*
X150527168Y-114667686D01*
X150828578Y-114506579D01*
X151092766Y-114289766D01*
X151309579Y-114025578D01*
X151421066Y-113817000D01*
X152208876Y-113817000D01*
X155267803Y-116875928D01*
X154440677Y-116875928D01*
X154316195Y-116888188D01*
X154196497Y-116924498D01*
X154086183Y-116983463D01*
X153989492Y-117062815D01*
X153910140Y-117159506D01*
X153851175Y-117269820D01*
X153814865Y-117389518D01*
X153802605Y-117514000D01*
X153802605Y-119214000D01*
X153814865Y-119338482D01*
X153851175Y-119458180D01*
X153910140Y-119568494D01*
X153989492Y-119665185D01*
X154086183Y-119744537D01*
X154196497Y-119803502D01*
X154316195Y-119839812D01*
X154440677Y-119852072D01*
X156140677Y-119852072D01*
X156265159Y-119839812D01*
X156384857Y-119803502D01*
X156495171Y-119744537D01*
X156591862Y-119665185D01*
X156671214Y-119568494D01*
X156730179Y-119458180D01*
X156751070Y-119389313D01*
X156775543Y-119419134D01*
X157001663Y-119604706D01*
X157259643Y-119742599D01*
X157539566Y-119827513D01*
X157757727Y-119849000D01*
X157903627Y-119849000D01*
X158121788Y-119827513D01*
X158401711Y-119742599D01*
X158659691Y-119604706D01*
X158885811Y-119419134D01*
X159071383Y-119193014D01*
X159100677Y-119138209D01*
X159129971Y-119193014D01*
X159315543Y-119419134D01*
X159541663Y-119604706D01*
X159799643Y-119742599D01*
X160079566Y-119827513D01*
X160297727Y-119849000D01*
X160443627Y-119849000D01*
X160661788Y-119827513D01*
X160941711Y-119742599D01*
X161199691Y-119604706D01*
X161425811Y-119419134D01*
X161611383Y-119193014D01*
X161749276Y-118935034D01*
X161834190Y-118655111D01*
X161862862Y-118364000D01*
X161834190Y-118072889D01*
X161749276Y-117792966D01*
X161611383Y-117534986D01*
X161425811Y-117308866D01*
X161199691Y-117123294D01*
X160941711Y-116985401D01*
X160661788Y-116900487D01*
X160443627Y-116879000D01*
X160297727Y-116879000D01*
X160079566Y-116900487D01*
X160004682Y-116923203D01*
X154398676Y-111317198D01*
X154398676Y-110094665D01*
X156077000Y-110094665D01*
X156077000Y-110377335D01*
X156132147Y-110654574D01*
X156240320Y-110915727D01*
X156397363Y-111150759D01*
X156597241Y-111350637D01*
X156832273Y-111507680D01*
X157093426Y-111615853D01*
X157370665Y-111671000D01*
X157653335Y-111671000D01*
X157930574Y-111615853D01*
X158191727Y-111507680D01*
X158247210Y-111470607D01*
X158260815Y-111487185D01*
X158357506Y-111566537D01*
X158467820Y-111625502D01*
X158587518Y-111661812D01*
X158712000Y-111674072D01*
X159226250Y-111671000D01*
X159385000Y-111512250D01*
X159385000Y-110363000D01*
X159639000Y-110363000D01*
X159639000Y-111512250D01*
X159797750Y-111671000D01*
X160312000Y-111674072D01*
X160436482Y-111661812D01*
X160556180Y-111625502D01*
X160666494Y-111566537D01*
X160763185Y-111487185D01*
X160842537Y-111390494D01*
X160901502Y-111280180D01*
X160937812Y-111160482D01*
X160950072Y-111036000D01*
X160947000Y-110521750D01*
X160788250Y-110363000D01*
X159639000Y-110363000D01*
X159385000Y-110363000D01*
X159365000Y-110363000D01*
X159365000Y-110109000D01*
X159385000Y-110109000D01*
X159385000Y-108959750D01*
X159639000Y-108959750D01*
X159639000Y-110109000D01*
X160788250Y-110109000D01*
X160947000Y-109950250D01*
X160950072Y-109436000D01*
X160937812Y-109311518D01*
X160901502Y-109191820D01*
X160842537Y-109081506D01*
X160763185Y-108984815D01*
X160666494Y-108905463D01*
X160556180Y-108846498D01*
X160436482Y-108810188D01*
X160312000Y-108797928D01*
X159797750Y-108801000D01*
X159639000Y-108959750D01*
X159385000Y-108959750D01*
X159226250Y-108801000D01*
X158712000Y-108797928D01*
X158587518Y-108810188D01*
X158467820Y-108846498D01*
X158357506Y-108905463D01*
X158260815Y-108984815D01*
X158247210Y-109001393D01*
X158191727Y-108964320D01*
X157930574Y-108856147D01*
X157653335Y-108801000D01*
X157370665Y-108801000D01*
X157093426Y-108856147D01*
X156832273Y-108964320D01*
X156597241Y-109121363D01*
X156397363Y-109321241D01*
X156240320Y-109556273D01*
X156132147Y-109817426D01*
X156077000Y-110094665D01*
X154398676Y-110094665D01*
X154398676Y-102862496D01*
X154402352Y-102825173D01*
X154398676Y-102787850D01*
X154398676Y-102787841D01*
X154387679Y-102676188D01*
X154344222Y-102532927D01*
X154273650Y-102400898D01*
X154178677Y-102285173D01*
X154149679Y-102261375D01*
X151107805Y-99219502D01*
X151084002Y-99190498D01*
X150968277Y-99095525D01*
X150838146Y-99025967D01*
X154020000Y-99025967D01*
X154020000Y-99348033D01*
X154082832Y-99663912D01*
X154206082Y-99961463D01*
X154385013Y-100229252D01*
X154612748Y-100456987D01*
X154880537Y-100635918D01*
X155178088Y-100759168D01*
X155493967Y-100822000D01*
X155816033Y-100822000D01*
X156131912Y-100759168D01*
X156429463Y-100635918D01*
X156697252Y-100456987D01*
X156924987Y-100229252D01*
X157103918Y-99961463D01*
X157227168Y-99663912D01*
X157290000Y-99348033D01*
X157290000Y-99025967D01*
X157227168Y-98710088D01*
X157103918Y-98412537D01*
X156924987Y-98144748D01*
X156697252Y-97917013D01*
X156429463Y-97738082D01*
X156131912Y-97614832D01*
X155816033Y-97552000D01*
X155493967Y-97552000D01*
X155178088Y-97614832D01*
X154880537Y-97738082D01*
X154612748Y-97917013D01*
X154385013Y-98144748D01*
X154206082Y-98412537D01*
X154082832Y-98710088D01*
X154020000Y-99025967D01*
X150838146Y-99025967D01*
X150836248Y-99024953D01*
X150692987Y-98981496D01*
X150581334Y-98970499D01*
X150581323Y-98970499D01*
X150544001Y-98966823D01*
X150506679Y-98970499D01*
X144127336Y-98970499D01*
X144090003Y-98966822D01*
X144052670Y-98970499D01*
X143941017Y-98981496D01*
X143797756Y-99024953D01*
X143665727Y-99095525D01*
X143550002Y-99190498D01*
X143526204Y-99219496D01*
X141438072Y-101307629D01*
X141438072Y-100055500D01*
X141425812Y-99931018D01*
X141389502Y-99811320D01*
X141330537Y-99701006D01*
X141251185Y-99604315D01*
X141154494Y-99524963D01*
X141044180Y-99465998D01*
X140924482Y-99429688D01*
X140800000Y-99417428D01*
X140409399Y-99417428D01*
X140355862Y-99317267D01*
X140257764Y-99197736D01*
X140227816Y-99173158D01*
X138934999Y-97880342D01*
X138934999Y-96942822D01*
X140800000Y-96942822D01*
X140924482Y-96930562D01*
X141044180Y-96894252D01*
X141154494Y-96835287D01*
X141251185Y-96755935D01*
X141330537Y-96659244D01*
X141389502Y-96548930D01*
X141425812Y-96429232D01*
X141438072Y-96304750D01*
X141438072Y-95204750D01*
X148116606Y-95204750D01*
X148150105Y-95544869D01*
X148249314Y-95871918D01*
X148410421Y-96173328D01*
X148627234Y-96437516D01*
X148891422Y-96654329D01*
X149192832Y-96815436D01*
X149519881Y-96914645D01*
X149774775Y-96939750D01*
X149945225Y-96939750D01*
X150200119Y-96914645D01*
X150527168Y-96815436D01*
X150828578Y-96654329D01*
X151092766Y-96437516D01*
X151309579Y-96173328D01*
X151470686Y-95871918D01*
X151569895Y-95544869D01*
X151603394Y-95204750D01*
X151569895Y-94864631D01*
X151470686Y-94537582D01*
X151309579Y-94236172D01*
X151092766Y-93971984D01*
X150828578Y-93755171D01*
X150527168Y-93594064D01*
X150200119Y-93494855D01*
X149945225Y-93469750D01*
X149774775Y-93469750D01*
X149519881Y-93494855D01*
X149192832Y-93594064D01*
X148891422Y-93755171D01*
X148627234Y-93971984D01*
X148410421Y-94236172D01*
X148249314Y-94537582D01*
X148150105Y-94864631D01*
X148116606Y-95204750D01*
X141438072Y-95204750D01*
X141438072Y-94104750D01*
X141425812Y-93980268D01*
X141389502Y-93860570D01*
X141330537Y-93750256D01*
X141251185Y-93653565D01*
X141154494Y-93574213D01*
X141044180Y-93515248D01*
X140924482Y-93478938D01*
X140800000Y-93466678D01*
X138934999Y-93466678D01*
X138934999Y-92529158D01*
X140227817Y-91236341D01*
X140257764Y-91211764D01*
X140282634Y-91181461D01*
X140315817Y-91141027D01*
X140355862Y-91092233D01*
X140409399Y-90992072D01*
X140800000Y-90992072D01*
X140924482Y-90979812D01*
X141044180Y-90943502D01*
X141154494Y-90884537D01*
X141251185Y-90805185D01*
X141330537Y-90708494D01*
X141389502Y-90598180D01*
X141425812Y-90478482D01*
X141438072Y-90354000D01*
X141438072Y-90039000D01*
X147240841Y-90039000D01*
X150693656Y-93491816D01*
X150718234Y-93521764D01*
X150748182Y-93546342D01*
X150748185Y-93546345D01*
X150777557Y-93570450D01*
X150837765Y-93619862D01*
X150974138Y-93692754D01*
X151087670Y-93727194D01*
X151122110Y-93737641D01*
X151136488Y-93739057D01*
X151237437Y-93749000D01*
X151237444Y-93749000D01*
X151275997Y-93752797D01*
X151314550Y-93749000D01*
X162920843Y-93749000D01*
X160127190Y-96542653D01*
X160097236Y-96567236D01*
X159999138Y-96686768D01*
X159926246Y-96823141D01*
X159881359Y-96971114D01*
X159870000Y-97086440D01*
X159870000Y-97086447D01*
X159866203Y-97125000D01*
X159870000Y-97163553D01*
X159870000Y-97548928D01*
X159655000Y-97548928D01*
X159530518Y-97561188D01*
X159410820Y-97597498D01*
X159300506Y-97656463D01*
X159203815Y-97735815D01*
X159124463Y-97832506D01*
X159065498Y-97942820D01*
X159029188Y-98062518D01*
X159016928Y-98187000D01*
X159016928Y-100187000D01*
X159029188Y-100311482D01*
X159065498Y-100431180D01*
X159124463Y-100541494D01*
X159203815Y-100638185D01*
X159300506Y-100717537D01*
X159410820Y-100776502D01*
X159530518Y-100812812D01*
X159655000Y-100825072D01*
X161655000Y-100825072D01*
X161779482Y-100812812D01*
X161899180Y-100776502D01*
X162009494Y-100717537D01*
X162106185Y-100638185D01*
X162185537Y-100541494D01*
X162244502Y-100431180D01*
X162280812Y-100311482D01*
X162293072Y-100187000D01*
X162293072Y-98416980D01*
X164525437Y-98416980D01*
X164596429Y-98635094D01*
X164740031Y-98910923D01*
X164934685Y-99153437D01*
X165172911Y-99353316D01*
X165445554Y-99502879D01*
X165742137Y-99596378D01*
X165989000Y-99469570D01*
X165989000Y-98171000D01*
X164645406Y-98171000D01*
X164525437Y-98416980D01*
X162293072Y-98416980D01*
X162293072Y-98187000D01*
X162280812Y-98062518D01*
X162244502Y-97942820D01*
X162185537Y-97832506D01*
X162106185Y-97735815D01*
X162009494Y-97656463D01*
X161899180Y-97597498D01*
X161779482Y-97561188D01*
X161655000Y-97548928D01*
X161440000Y-97548928D01*
X161440000Y-97450157D01*
X164600653Y-94289504D01*
X164664815Y-94367685D01*
X164761506Y-94447037D01*
X164845446Y-94491905D01*
X164742155Y-94617765D01*
X164594745Y-94893551D01*
X164503970Y-95192796D01*
X164473319Y-95504000D01*
X164503970Y-95815204D01*
X164594745Y-96114449D01*
X164742155Y-96390235D01*
X164940537Y-96631963D01*
X165119899Y-96779163D01*
X164934685Y-96934563D01*
X164740031Y-97177077D01*
X164596429Y-97452906D01*
X164525437Y-97671020D01*
X164645406Y-97917000D01*
X165989000Y-97917000D01*
X165989000Y-97897000D01*
X166243000Y-97897000D01*
X166243000Y-97917000D01*
X166263000Y-97917000D01*
X166263000Y-98171000D01*
X166243000Y-98171000D01*
X166243000Y-99469570D01*
X166489863Y-99596378D01*
X166781011Y-99504593D01*
X166781011Y-103543186D01*
X164589003Y-105735196D01*
X164559999Y-105758999D01*
X164504871Y-105826174D01*
X164465026Y-105874724D01*
X164461261Y-105881768D01*
X164394454Y-106006754D01*
X164350997Y-106150015D01*
X164340000Y-106261668D01*
X164340000Y-106261678D01*
X164336324Y-106299000D01*
X164340000Y-106336323D01*
X164340001Y-111425668D01*
X164336324Y-111463000D01*
X164340001Y-111500333D01*
X164350998Y-111611986D01*
X164364180Y-111655442D01*
X164394454Y-111755246D01*
X164465026Y-111887276D01*
X164495367Y-111924246D01*
X164560000Y-112003001D01*
X164588998Y-112026799D01*
X165087200Y-112525002D01*
X165110999Y-112554001D01*
X165226724Y-112648974D01*
X165262928Y-112668326D01*
X165262928Y-112864000D01*
X165275188Y-112988482D01*
X165311498Y-113108180D01*
X165370463Y-113218494D01*
X165449815Y-113315185D01*
X165546506Y-113394537D01*
X165656820Y-113453502D01*
X165776518Y-113489812D01*
X165901000Y-113502072D01*
X167601000Y-113502072D01*
X167725482Y-113489812D01*
X167845180Y-113453502D01*
X167955494Y-113394537D01*
X168052185Y-113315185D01*
X168131537Y-113218494D01*
X168190502Y-113108180D01*
X168226812Y-112988482D01*
X168239072Y-112864000D01*
X168239072Y-111164000D01*
X168226812Y-111039518D01*
X168190502Y-110919820D01*
X168131537Y-110809506D01*
X168052185Y-110712815D01*
X167955494Y-110633463D01*
X167845180Y-110574498D01*
X167764534Y-110550034D01*
X167848588Y-110474269D01*
X168022641Y-110240920D01*
X168147825Y-109978099D01*
X168192476Y-109830890D01*
X168071155Y-109601000D01*
X166878000Y-109601000D01*
X166878000Y-109621000D01*
X166624000Y-109621000D01*
X166624000Y-109601000D01*
X166604000Y-109601000D01*
X166604000Y-109347000D01*
X166624000Y-109347000D01*
X166624000Y-109327000D01*
X166878000Y-109327000D01*
X166878000Y-109347000D01*
X168071155Y-109347000D01*
X168192476Y-109117110D01*
X168147825Y-108969901D01*
X168022641Y-108707080D01*
X167848588Y-108473731D01*
X167632355Y-108278822D01*
X167515477Y-108209201D01*
X167580014Y-108174706D01*
X167806134Y-107989134D01*
X167991706Y-107763014D01*
X168129599Y-107505034D01*
X168214513Y-107225111D01*
X168243185Y-106934000D01*
X168214513Y-106642889D01*
X168129599Y-106362966D01*
X167991706Y-106104986D01*
X167806134Y-105878866D01*
X167580014Y-105693294D01*
X167322034Y-105555401D01*
X167042111Y-105470487D01*
X167006794Y-105467009D01*
X168052018Y-104421785D01*
X168081011Y-104397991D01*
X168104805Y-104368998D01*
X168104809Y-104368994D01*
X168175983Y-104282267D01*
X168175984Y-104282266D01*
X168246556Y-104150237D01*
X168290013Y-104006976D01*
X168301010Y-103895323D01*
X168301010Y-103895314D01*
X168304686Y-103857991D01*
X168301010Y-103820668D01*
X168301010Y-91708831D01*
X168304686Y-91671508D01*
X168301010Y-91634185D01*
X168301010Y-91634175D01*
X168290013Y-91522522D01*
X168246556Y-91379261D01*
X168243438Y-91373428D01*
X168175984Y-91247231D01*
X168104809Y-91160505D01*
X168081011Y-91131507D01*
X168052014Y-91107710D01*
X167347315Y-90403012D01*
X167323513Y-90374009D01*
X167207788Y-90279036D01*
X167075759Y-90208464D01*
X166932498Y-90165007D01*
X166820845Y-90154010D01*
X166820834Y-90154010D01*
X166783512Y-90150334D01*
X166746190Y-90154010D01*
X163586846Y-90154010D01*
X163612236Y-90070309D01*
X163639943Y-89789000D01*
X163612236Y-89507691D01*
X163530182Y-89237192D01*
X163396932Y-88987899D01*
X163217608Y-88769392D01*
X162999101Y-88590068D01*
X162866142Y-88519000D01*
X162999101Y-88447932D01*
X163217608Y-88268608D01*
X163396932Y-88050101D01*
X163530182Y-87800808D01*
X163612236Y-87530309D01*
X163639943Y-87249000D01*
X163612236Y-86967691D01*
X163530182Y-86697192D01*
X163396932Y-86447899D01*
X163217608Y-86229392D01*
X162999101Y-86050068D01*
X162866142Y-85979000D01*
X162999101Y-85907932D01*
X163217608Y-85728608D01*
X163396932Y-85510101D01*
X163530182Y-85260808D01*
X163612236Y-84990309D01*
X163639943Y-84709000D01*
X163612236Y-84427691D01*
X163530182Y-84157192D01*
X163396932Y-83907899D01*
X163217608Y-83689392D01*
X162999101Y-83510068D01*
X162871259Y-83441735D01*
X163100839Y-83291601D01*
X163302500Y-83093895D01*
X163461715Y-82860646D01*
X163572367Y-82600818D01*
X163589904Y-82518039D01*
X163467915Y-82296000D01*
X161925000Y-82296000D01*
X161925000Y-82316000D01*
X161671000Y-82316000D01*
X161671000Y-82296000D01*
X160128085Y-82296000D01*
X160006096Y-82518039D01*
X160023633Y-82600818D01*
X160134285Y-82860646D01*
X160293500Y-83093895D01*
X160495161Y-83291601D01*
X160724741Y-83441735D01*
X160596899Y-83510068D01*
X160378392Y-83689392D01*
X160199068Y-83907899D01*
X160065818Y-84157192D01*
X159983764Y-84427691D01*
X159956057Y-84709000D01*
X159958598Y-84734796D01*
X159421804Y-84198003D01*
X159398001Y-84168999D01*
X159282276Y-84074026D01*
X159150247Y-84003454D01*
X159006986Y-83959997D01*
X158895333Y-83949000D01*
X158895322Y-83949000D01*
X158858000Y-83945324D01*
X158820678Y-83949000D01*
X155798901Y-83949000D01*
X155776932Y-83907899D01*
X155597608Y-83689392D01*
X155484518Y-83596581D01*
X155502482Y-83594812D01*
X155622180Y-83558502D01*
X155732494Y-83499537D01*
X155829185Y-83420185D01*
X155908537Y-83323494D01*
X155967502Y-83213180D01*
X156003812Y-83093482D01*
X156016072Y-82969000D01*
X156016072Y-81819961D01*
X160006096Y-81819961D01*
X160128085Y-82042000D01*
X161671000Y-82042000D01*
X161671000Y-80734000D01*
X161925000Y-80734000D01*
X161925000Y-82042000D01*
X163467915Y-82042000D01*
X163589904Y-81819961D01*
X163572367Y-81737182D01*
X163461715Y-81477354D01*
X163302500Y-81244105D01*
X163100839Y-81046399D01*
X162915308Y-80925071D01*
X165478623Y-80925071D01*
X165478623Y-81390929D01*
X165569507Y-81847835D01*
X165747783Y-82278232D01*
X166006600Y-82665579D01*
X166336011Y-82994990D01*
X166723358Y-83253807D01*
X167153755Y-83432083D01*
X167610661Y-83522967D01*
X168076519Y-83522967D01*
X168533425Y-83432083D01*
X168963822Y-83253807D01*
X169351169Y-82994990D01*
X169680580Y-82665579D01*
X169939397Y-82278232D01*
X170117673Y-81847835D01*
X170208557Y-81390929D01*
X170208557Y-80925071D01*
X170117673Y-80468165D01*
X169939397Y-80037768D01*
X169680580Y-79650421D01*
X169351169Y-79321010D01*
X168963822Y-79062193D01*
X168533425Y-78883917D01*
X168076519Y-78793033D01*
X167610661Y-78793033D01*
X167153755Y-78883917D01*
X166723358Y-79062193D01*
X166336011Y-79321010D01*
X166006600Y-79650421D01*
X165747783Y-80037768D01*
X165569507Y-80468165D01*
X165478623Y-80925071D01*
X162915308Y-80925071D01*
X162864483Y-80891834D01*
X162602514Y-80786350D01*
X162325000Y-80734000D01*
X161925000Y-80734000D01*
X161671000Y-80734000D01*
X161271000Y-80734000D01*
X160993486Y-80786350D01*
X160731517Y-80891834D01*
X160495161Y-81046399D01*
X160293500Y-81244105D01*
X160134285Y-81477354D01*
X160023633Y-81737182D01*
X160006096Y-81819961D01*
X156016072Y-81819961D01*
X156016072Y-81369000D01*
X156003812Y-81244518D01*
X155967502Y-81124820D01*
X155908537Y-81014506D01*
X155829185Y-80917815D01*
X155732494Y-80838463D01*
X155622180Y-80779498D01*
X155502482Y-80743188D01*
X155378000Y-80730928D01*
X152978000Y-80730928D01*
X152853518Y-80743188D01*
X152733820Y-80779498D01*
X152623506Y-80838463D01*
X152526815Y-80917815D01*
X152447463Y-81014506D01*
X152388498Y-81124820D01*
X152352188Y-81244518D01*
X152339928Y-81369000D01*
X152339928Y-82969000D01*
X152352188Y-83093482D01*
X152388498Y-83213180D01*
X152447463Y-83323494D01*
X152526815Y-83420185D01*
X152623506Y-83499537D01*
X152733820Y-83558502D01*
X152853518Y-83594812D01*
X152871482Y-83596581D01*
X152758392Y-83689392D01*
X152579068Y-83907899D01*
X152557099Y-83949000D01*
X150353804Y-83949000D01*
X149339629Y-82934826D01*
X149480680Y-82723727D01*
X149588853Y-82462574D01*
X149644000Y-82185335D01*
X149644000Y-81902665D01*
X149588853Y-81625426D01*
X149480680Y-81364273D01*
X149323637Y-81129241D01*
X149123759Y-80929363D01*
X148888727Y-80772320D01*
X148627574Y-80664147D01*
X148350335Y-80609000D01*
X148067665Y-80609000D01*
X147790426Y-80664147D01*
X147529273Y-80772320D01*
X147294241Y-80929363D01*
X147094363Y-81129241D01*
X146937320Y-81364273D01*
X146829147Y-81625426D01*
X146774000Y-81902665D01*
X146774000Y-82185335D01*
X146829147Y-82462574D01*
X146910509Y-82658999D01*
X143157491Y-82658999D01*
X143238853Y-82462574D01*
X143294000Y-82185335D01*
X143294000Y-81902665D01*
X143238853Y-81625426D01*
X143130680Y-81364273D01*
X142973637Y-81129241D01*
X142773759Y-80929363D01*
X142538727Y-80772320D01*
X142277574Y-80664147D01*
X142000335Y-80609000D01*
X141717665Y-80609000D01*
X141440426Y-80664147D01*
X141179273Y-80772320D01*
X140944241Y-80929363D01*
X140744363Y-81129241D01*
X140587320Y-81364273D01*
X140479147Y-81625426D01*
X140424000Y-81902665D01*
X140424000Y-82034199D01*
X139507803Y-81118002D01*
X139484000Y-81088998D01*
X139368275Y-80994025D01*
X139236246Y-80923453D01*
X139092985Y-80879996D01*
X138981332Y-80868999D01*
X138981321Y-80868999D01*
X138943999Y-80865323D01*
X138906677Y-80868999D01*
X135236321Y-80868999D01*
X135198998Y-80865323D01*
X135161675Y-80868999D01*
X135161666Y-80868999D01*
X135050013Y-80879996D01*
X134906752Y-80923453D01*
X134774722Y-80994025D01*
X134710905Y-81046399D01*
X134658998Y-81088998D01*
X134635200Y-81117996D01*
X132533987Y-83219210D01*
X132504989Y-83243008D01*
X132481191Y-83272006D01*
X132481190Y-83272007D01*
X132410015Y-83358733D01*
X132339443Y-83490763D01*
X132295987Y-83634024D01*
X132281313Y-83783009D01*
X132284990Y-83820342D01*
X132284989Y-103241579D01*
X132281313Y-103278901D01*
X132284989Y-103316223D01*
X132284989Y-103316233D01*
X132295986Y-103427886D01*
X132318312Y-103501485D01*
X132339443Y-103571147D01*
X132410015Y-103703177D01*
X132449617Y-103751432D01*
X132504988Y-103818902D01*
X132533992Y-103842705D01*
X135397331Y-106706044D01*
X135308987Y-106679246D01*
X135197334Y-106668249D01*
X135197323Y-106668249D01*
X135160001Y-106664573D01*
X135122679Y-106668249D01*
X128162323Y-106668249D01*
X128125000Y-106664573D01*
X128087677Y-106668249D01*
X128087668Y-106668249D01*
X127976015Y-106679246D01*
X127832754Y-106722703D01*
X127700725Y-106793275D01*
X127585000Y-106888248D01*
X127561197Y-106917252D01*
X127323887Y-107154562D01*
X127141335Y-107118250D01*
X126858665Y-107118250D01*
X126581426Y-107173397D01*
X126534999Y-107192628D01*
X126534999Y-103915336D01*
X126788184Y-103978800D01*
X127070512Y-103992717D01*
X127350130Y-103951287D01*
X127616292Y-103856103D01*
X127741514Y-103789171D01*
X127813097Y-103545202D01*
X127000000Y-102732105D01*
X126985858Y-102746248D01*
X126806253Y-102566643D01*
X126820395Y-102552500D01*
X127179605Y-102552500D01*
X127992702Y-103365597D01*
X128236671Y-103294014D01*
X128357571Y-103038504D01*
X128426300Y-102764316D01*
X128440217Y-102481988D01*
X128398787Y-102202370D01*
X128303603Y-101936208D01*
X128236671Y-101810986D01*
X127992702Y-101739403D01*
X127179605Y-102552500D01*
X126820395Y-102552500D01*
X126806253Y-102538358D01*
X126985858Y-102358753D01*
X127000000Y-102372895D01*
X127813097Y-101559798D01*
X127741514Y-101315829D01*
X127486004Y-101194929D01*
X127211816Y-101126200D01*
X126929488Y-101112283D01*
X126649870Y-101153713D01*
X126534999Y-101194793D01*
X126534999Y-97914586D01*
X126788184Y-97978050D01*
X127070512Y-97991967D01*
X127350130Y-97950537D01*
X127616292Y-97855353D01*
X127741514Y-97788421D01*
X127813097Y-97544452D01*
X127000000Y-96731355D01*
X126985858Y-96745498D01*
X126806253Y-96565893D01*
X126820395Y-96551750D01*
X127179605Y-96551750D01*
X127992702Y-97364847D01*
X128236671Y-97293264D01*
X128357571Y-97037754D01*
X128426300Y-96763566D01*
X128440217Y-96481238D01*
X128398787Y-96201620D01*
X128303603Y-95935458D01*
X128236671Y-95810236D01*
X127992702Y-95738653D01*
X127179605Y-96551750D01*
X126820395Y-96551750D01*
X126806253Y-96537608D01*
X126985858Y-96358003D01*
X127000000Y-96372145D01*
X127813097Y-95559048D01*
X127741514Y-95315079D01*
X127486004Y-95194179D01*
X127211816Y-95125450D01*
X126929488Y-95111533D01*
X126649870Y-95152963D01*
X126534999Y-95194043D01*
X126534999Y-92090802D01*
X126676114Y-91949688D01*
X126858665Y-91986000D01*
X127141335Y-91986000D01*
X127418574Y-91930853D01*
X127679727Y-91822680D01*
X127914759Y-91665637D01*
X128114637Y-91465759D01*
X128271680Y-91230727D01*
X128379853Y-90969574D01*
X128435000Y-90692335D01*
X128435000Y-90409665D01*
X128379853Y-90132426D01*
X128271680Y-89871273D01*
X128114637Y-89636241D01*
X127914759Y-89436363D01*
X127679727Y-89279320D01*
X127418574Y-89171147D01*
X127141335Y-89116000D01*
X126858665Y-89116000D01*
X126581426Y-89171147D01*
X126320273Y-89279320D01*
X126085241Y-89436363D01*
X125885363Y-89636241D01*
X125728320Y-89871273D01*
X125620147Y-90132426D01*
X125565000Y-90409665D01*
X125565000Y-90692335D01*
X125601312Y-90874886D01*
X125264002Y-91212197D01*
X125234998Y-91236000D01*
X125183098Y-91299241D01*
X125140025Y-91351725D01*
X125091345Y-91442798D01*
X125069453Y-91483755D01*
X125025996Y-91627016D01*
X125014999Y-91738669D01*
X125014999Y-91738679D01*
X125011323Y-91776001D01*
X124993000Y-91776001D01*
X124993000Y-80925071D01*
X125478623Y-80925071D01*
X125478623Y-81390929D01*
X125569507Y-81847835D01*
X125747783Y-82278232D01*
X126006600Y-82665579D01*
X126336011Y-82994990D01*
X126723358Y-83253807D01*
X127153755Y-83432083D01*
X127610661Y-83522967D01*
X128076519Y-83522967D01*
X128533425Y-83432083D01*
X128963822Y-83253807D01*
X129351169Y-82994990D01*
X129680580Y-82665579D01*
X129939397Y-82278232D01*
X130117673Y-81847835D01*
X130208557Y-81390929D01*
X130208557Y-80925071D01*
X130117673Y-80468165D01*
X129939397Y-80037768D01*
X129680580Y-79650421D01*
X129351169Y-79321010D01*
X128963822Y-79062193D01*
X128533425Y-78883917D01*
X128076519Y-78793033D01*
X127610661Y-78793033D01*
X127153755Y-78883917D01*
X126723358Y-79062193D01*
X126336011Y-79321010D01*
X126006600Y-79650421D01*
X125747783Y-80037768D01*
X125569507Y-80468165D01*
X125478623Y-80925071D01*
X124993000Y-80925071D01*
X124993000Y-79915279D01*
X125022234Y-79617125D01*
X125099448Y-79361378D01*
X125224869Y-79125496D01*
X125393716Y-78918470D01*
X125599554Y-78748187D01*
X125834556Y-78621121D01*
X126089756Y-78542124D01*
X126385882Y-78511000D01*
X169385721Y-78511000D01*
X169683875Y-78540234D01*
G36*
X140460312Y-84220114D02*
G01*
X140424000Y-84402665D01*
X140424000Y-84685335D01*
X140479147Y-84962574D01*
X140587320Y-85223727D01*
X140744363Y-85458759D01*
X140944241Y-85658637D01*
X141179273Y-85815680D01*
X141440426Y-85923853D01*
X141717665Y-85979000D01*
X142000335Y-85979000D01*
X142277574Y-85923853D01*
X142538727Y-85815680D01*
X142773759Y-85658637D01*
X142973637Y-85458759D01*
X143130680Y-85223727D01*
X143238853Y-84962574D01*
X143294000Y-84685335D01*
X143294000Y-84402665D01*
X143257688Y-84220113D01*
X143298802Y-84178999D01*
X146818491Y-84178999D01*
X146774000Y-84402665D01*
X146774000Y-84685335D01*
X146829147Y-84962574D01*
X146937320Y-85223727D01*
X147094363Y-85458759D01*
X147294241Y-85658637D01*
X147529273Y-85815680D01*
X147790426Y-85923853D01*
X148067665Y-85979000D01*
X148350335Y-85979000D01*
X148532887Y-85942688D01*
X148935206Y-86345007D01*
X148959009Y-86374011D01*
X149074734Y-86468984D01*
X149206763Y-86539556D01*
X149350024Y-86583013D01*
X149461677Y-86594010D01*
X149461686Y-86594010D01*
X149499009Y-86597686D01*
X149536332Y-86594010D01*
X152500970Y-86594010D01*
X152445818Y-86697192D01*
X152363764Y-86967691D01*
X152336057Y-87249000D01*
X152363764Y-87530309D01*
X152445818Y-87800808D01*
X152579068Y-88050101D01*
X152758392Y-88268608D01*
X152976899Y-88447932D01*
X153104741Y-88516265D01*
X152875161Y-88666399D01*
X152673500Y-88864105D01*
X152514285Y-89097354D01*
X152403633Y-89357182D01*
X152386096Y-89439961D01*
X152508085Y-89662000D01*
X154051000Y-89662000D01*
X154051000Y-89642000D01*
X154305000Y-89642000D01*
X154305000Y-89662000D01*
X155847915Y-89662000D01*
X155872128Y-89617929D01*
X157679210Y-91425012D01*
X157703009Y-91454011D01*
X157818734Y-91548984D01*
X157950763Y-91619556D01*
X158094024Y-91663013D01*
X158205677Y-91674010D01*
X158205687Y-91674010D01*
X158243010Y-91677686D01*
X158280333Y-91674010D01*
X164576374Y-91674010D01*
X164526498Y-91767320D01*
X164490188Y-91887018D01*
X164477928Y-92011500D01*
X164477928Y-92179000D01*
X151601156Y-92179000D01*
X150342776Y-90920621D01*
X150527168Y-90864686D01*
X150828578Y-90703579D01*
X151092766Y-90486766D01*
X151309579Y-90222578D01*
X151354766Y-90138039D01*
X152386096Y-90138039D01*
X152403633Y-90220818D01*
X152514285Y-90480646D01*
X152673500Y-90713895D01*
X152875161Y-90911601D01*
X153111517Y-91066166D01*
X153373486Y-91171650D01*
X153651000Y-91224000D01*
X154051000Y-91224000D01*
X154051000Y-89916000D01*
X154305000Y-89916000D01*
X154305000Y-91224000D01*
X154705000Y-91224000D01*
X154982514Y-91171650D01*
X155244483Y-91066166D01*
X155480839Y-90911601D01*
X155682500Y-90713895D01*
X155841715Y-90480646D01*
X155952367Y-90220818D01*
X155969904Y-90138039D01*
X155847915Y-89916000D01*
X154305000Y-89916000D01*
X154051000Y-89916000D01*
X152508085Y-89916000D01*
X152386096Y-90138039D01*
X151354766Y-90138039D01*
X151470686Y-89921168D01*
X151569895Y-89594119D01*
X151603394Y-89254000D01*
X151569895Y-88913881D01*
X151470686Y-88586832D01*
X151309579Y-88285422D01*
X151092766Y-88021234D01*
X150828578Y-87804421D01*
X150527168Y-87643314D01*
X150200119Y-87544105D01*
X149945225Y-87519000D01*
X149774775Y-87519000D01*
X149519881Y-87544105D01*
X149192832Y-87643314D01*
X148891422Y-87804421D01*
X148627234Y-88021234D01*
X148410421Y-88285422D01*
X148249314Y-88586832D01*
X148193379Y-88771224D01*
X148148345Y-88726190D01*
X148123762Y-88696236D01*
X148004231Y-88598138D01*
X147867858Y-88525246D01*
X147719885Y-88480359D01*
X147604559Y-88469000D01*
X147604551Y-88469000D01*
X147565998Y-88465203D01*
X147527445Y-88469000D01*
X141438072Y-88469000D01*
X141438072Y-88154000D01*
X141425812Y-88029518D01*
X141389502Y-87909820D01*
X141330537Y-87799506D01*
X141251185Y-87702815D01*
X141154494Y-87623463D01*
X141044180Y-87564498D01*
X140924482Y-87528188D01*
X140800000Y-87515928D01*
X138600000Y-87515928D01*
X138475518Y-87528188D01*
X138395799Y-87552371D01*
X138395799Y-85156925D01*
X138608667Y-85114583D01*
X138815224Y-85029024D01*
X139001120Y-84904812D01*
X139159212Y-84746720D01*
X139283424Y-84560824D01*
X139368983Y-84354267D01*
X139412600Y-84134988D01*
X139412600Y-83911412D01*
X139368983Y-83692133D01*
X139283424Y-83485576D01*
X139159212Y-83299680D01*
X139001120Y-83141588D01*
X138815224Y-83017376D01*
X138608667Y-82931817D01*
X138389388Y-82888200D01*
X138165812Y-82888200D01*
X137946533Y-82931817D01*
X137739976Y-83017376D01*
X137554080Y-83141588D01*
X137395988Y-83299680D01*
X137271776Y-83485576D01*
X137186217Y-83692133D01*
X137142600Y-83911412D01*
X137142600Y-84048043D01*
X137101887Y-84088756D01*
X137064185Y-84042815D01*
X136967494Y-83963463D01*
X136857180Y-83904498D01*
X136788313Y-83883607D01*
X136818134Y-83859134D01*
X137003706Y-83633014D01*
X137141599Y-83375034D01*
X137226513Y-83095111D01*
X137255185Y-82804000D01*
X137226513Y-82512889D01*
X137188931Y-82388999D01*
X138629198Y-82388999D01*
X140460312Y-84220114D01*
X140460312Y-84220114D01*
G37*
X140460312Y-84220114D02*
X140424000Y-84402665D01*
X140424000Y-84685335D01*
X140479147Y-84962574D01*
X140587320Y-85223727D01*
X140744363Y-85458759D01*
X140944241Y-85658637D01*
X141179273Y-85815680D01*
X141440426Y-85923853D01*
X141717665Y-85979000D01*
X142000335Y-85979000D01*
X142277574Y-85923853D01*
X142538727Y-85815680D01*
X142773759Y-85658637D01*
X142973637Y-85458759D01*
X143130680Y-85223727D01*
X143238853Y-84962574D01*
X143294000Y-84685335D01*
X143294000Y-84402665D01*
X143257688Y-84220113D01*
X143298802Y-84178999D01*
X146818491Y-84178999D01*
X146774000Y-84402665D01*
X146774000Y-84685335D01*
X146829147Y-84962574D01*
X146937320Y-85223727D01*
X147094363Y-85458759D01*
X147294241Y-85658637D01*
X147529273Y-85815680D01*
X147790426Y-85923853D01*
X148067665Y-85979000D01*
X148350335Y-85979000D01*
X148532887Y-85942688D01*
X148935206Y-86345007D01*
X148959009Y-86374011D01*
X149074734Y-86468984D01*
X149206763Y-86539556D01*
X149350024Y-86583013D01*
X149461677Y-86594010D01*
X149461686Y-86594010D01*
X149499009Y-86597686D01*
X149536332Y-86594010D01*
X152500970Y-86594010D01*
X152445818Y-86697192D01*
X152363764Y-86967691D01*
X152336057Y-87249000D01*
X152363764Y-87530309D01*
X152445818Y-87800808D01*
X152579068Y-88050101D01*
X152758392Y-88268608D01*
X152976899Y-88447932D01*
X153104741Y-88516265D01*
X152875161Y-88666399D01*
X152673500Y-88864105D01*
X152514285Y-89097354D01*
X152403633Y-89357182D01*
X152386096Y-89439961D01*
X152508085Y-89662000D01*
X154051000Y-89662000D01*
X154051000Y-89642000D01*
X154305000Y-89642000D01*
X154305000Y-89662000D01*
X155847915Y-89662000D01*
X155872128Y-89617929D01*
X157679210Y-91425012D01*
X157703009Y-91454011D01*
X157818734Y-91548984D01*
X157950763Y-91619556D01*
X158094024Y-91663013D01*
X158205677Y-91674010D01*
X158205687Y-91674010D01*
X158243010Y-91677686D01*
X158280333Y-91674010D01*
X164576374Y-91674010D01*
X164526498Y-91767320D01*
X164490188Y-91887018D01*
X164477928Y-92011500D01*
X164477928Y-92179000D01*
X151601156Y-92179000D01*
X150342776Y-90920621D01*
X150527168Y-90864686D01*
X150828578Y-90703579D01*
X151092766Y-90486766D01*
X151309579Y-90222578D01*
X151354766Y-90138039D01*
X152386096Y-90138039D01*
X152403633Y-90220818D01*
X152514285Y-90480646D01*
X152673500Y-90713895D01*
X152875161Y-90911601D01*
X153111517Y-91066166D01*
X153373486Y-91171650D01*
X153651000Y-91224000D01*
X154051000Y-91224000D01*
X154051000Y-89916000D01*
X154305000Y-89916000D01*
X154305000Y-91224000D01*
X154705000Y-91224000D01*
X154982514Y-91171650D01*
X155244483Y-91066166D01*
X155480839Y-90911601D01*
X155682500Y-90713895D01*
X155841715Y-90480646D01*
X155952367Y-90220818D01*
X155969904Y-90138039D01*
X155847915Y-89916000D01*
X154305000Y-89916000D01*
X154051000Y-89916000D01*
X152508085Y-89916000D01*
X152386096Y-90138039D01*
X151354766Y-90138039D01*
X151470686Y-89921168D01*
X151569895Y-89594119D01*
X151603394Y-89254000D01*
X151569895Y-88913881D01*
X151470686Y-88586832D01*
X151309579Y-88285422D01*
X151092766Y-88021234D01*
X150828578Y-87804421D01*
X150527168Y-87643314D01*
X150200119Y-87544105D01*
X149945225Y-87519000D01*
X149774775Y-87519000D01*
X149519881Y-87544105D01*
X149192832Y-87643314D01*
X148891422Y-87804421D01*
X148627234Y-88021234D01*
X148410421Y-88285422D01*
X148249314Y-88586832D01*
X148193379Y-88771224D01*
X148148345Y-88726190D01*
X148123762Y-88696236D01*
X148004231Y-88598138D01*
X147867858Y-88525246D01*
X147719885Y-88480359D01*
X147604559Y-88469000D01*
X147604551Y-88469000D01*
X147565998Y-88465203D01*
X147527445Y-88469000D01*
X141438072Y-88469000D01*
X141438072Y-88154000D01*
X141425812Y-88029518D01*
X141389502Y-87909820D01*
X141330537Y-87799506D01*
X141251185Y-87702815D01*
X141154494Y-87623463D01*
X141044180Y-87564498D01*
X140924482Y-87528188D01*
X140800000Y-87515928D01*
X138600000Y-87515928D01*
X138475518Y-87528188D01*
X138395799Y-87552371D01*
X138395799Y-85156925D01*
X138608667Y-85114583D01*
X138815224Y-85029024D01*
X139001120Y-84904812D01*
X139159212Y-84746720D01*
X139283424Y-84560824D01*
X139368983Y-84354267D01*
X139412600Y-84134988D01*
X139412600Y-83911412D01*
X139368983Y-83692133D01*
X139283424Y-83485576D01*
X139159212Y-83299680D01*
X139001120Y-83141588D01*
X138815224Y-83017376D01*
X138608667Y-82931817D01*
X138389388Y-82888200D01*
X138165812Y-82888200D01*
X137946533Y-82931817D01*
X137739976Y-83017376D01*
X137554080Y-83141588D01*
X137395988Y-83299680D01*
X137271776Y-83485576D01*
X137186217Y-83692133D01*
X137142600Y-83911412D01*
X137142600Y-84048043D01*
X137101887Y-84088756D01*
X137064185Y-84042815D01*
X136967494Y-83963463D01*
X136857180Y-83904498D01*
X136788313Y-83883607D01*
X136818134Y-83859134D01*
X137003706Y-83633014D01*
X137141599Y-83375034D01*
X137226513Y-83095111D01*
X137255185Y-82804000D01*
X137226513Y-82512889D01*
X137188931Y-82388999D01*
X138629198Y-82388999D01*
X140460312Y-84220114D01*
M02*
