G04 #@! TF.GenerationSoftware,KiCad,Pcbnew,(5.1.4)-1*
G04 #@! TF.CreationDate,2022-04-26T14:24:58-06:00*
G04 #@! TF.ProjectId,UselessBox V2,5573656c-6573-4734-926f-782056322e6b,2*
G04 #@! TF.SameCoordinates,Original*
G04 #@! TF.FileFunction,Soldermask,Top*
G04 #@! TF.FilePolarity,Negative*
%FSLAX46Y46*%
G04 Gerber Fmt 4.6, Leading zero omitted, Abs format (unit mm)*
G04 Created by KiCad (PCBNEW (5.1.4)-1) date 2022-04-26 14:24:58*
%MOMM*%
%LPD*%
G04 APERTURE LIST*
%ADD10C,0.100000*%
G04 APERTURE END LIST*
D10*
G36*
X140070000Y-122544000D02*
G01*
X138568000Y-122544000D01*
X138568000Y-121042000D01*
X140070000Y-121042000D01*
X140070000Y-122544000D01*
X140070000Y-122544000D01*
G37*
G36*
X137038059Y-121070860D02*
G01*
X137174732Y-121127472D01*
X137297735Y-121209660D01*
X137402340Y-121314265D01*
X137484528Y-121437268D01*
X137541140Y-121573941D01*
X137570000Y-121719033D01*
X137570000Y-121866967D01*
X137541140Y-122012059D01*
X137484528Y-122148732D01*
X137402340Y-122271735D01*
X137297735Y-122376340D01*
X137174732Y-122458528D01*
X137174731Y-122458529D01*
X137174730Y-122458529D01*
X137038059Y-122515140D01*
X136892968Y-122544000D01*
X136745032Y-122544000D01*
X136599941Y-122515140D01*
X136463270Y-122458529D01*
X136463269Y-122458529D01*
X136463268Y-122458528D01*
X136340265Y-122376340D01*
X136235660Y-122271735D01*
X136153472Y-122148732D01*
X136096860Y-122012059D01*
X136068000Y-121866967D01*
X136068000Y-121719033D01*
X136096860Y-121573941D01*
X136153472Y-121437268D01*
X136235660Y-121314265D01*
X136340265Y-121209660D01*
X136463268Y-121127472D01*
X136599941Y-121070860D01*
X136745032Y-121042000D01*
X136892968Y-121042000D01*
X137038059Y-121070860D01*
X137038059Y-121070860D01*
G37*
G36*
X134538059Y-121070860D02*
G01*
X134674732Y-121127472D01*
X134797735Y-121209660D01*
X134902340Y-121314265D01*
X134984528Y-121437268D01*
X135041140Y-121573941D01*
X135070000Y-121719033D01*
X135070000Y-121866967D01*
X135041140Y-122012059D01*
X134984528Y-122148732D01*
X134902340Y-122271735D01*
X134797735Y-122376340D01*
X134674732Y-122458528D01*
X134674731Y-122458529D01*
X134674730Y-122458529D01*
X134538059Y-122515140D01*
X134392968Y-122544000D01*
X134245032Y-122544000D01*
X134099941Y-122515140D01*
X133963270Y-122458529D01*
X133963269Y-122458529D01*
X133963268Y-122458528D01*
X133840265Y-122376340D01*
X133735660Y-122271735D01*
X133653472Y-122148732D01*
X133596860Y-122012059D01*
X133568000Y-121866967D01*
X133568000Y-121719033D01*
X133596860Y-121573941D01*
X133653472Y-121437268D01*
X133735660Y-121314265D01*
X133840265Y-121209660D01*
X133963268Y-121127472D01*
X134099941Y-121070860D01*
X134245032Y-121042000D01*
X134392968Y-121042000D01*
X134538059Y-121070860D01*
X134538059Y-121070860D01*
G37*
G36*
X147255000Y-120839000D02*
G01*
X145353000Y-120839000D01*
X145353000Y-118937000D01*
X147255000Y-118937000D01*
X147255000Y-120839000D01*
X147255000Y-120839000D01*
G37*
G36*
X149121395Y-118973546D02*
G01*
X149294466Y-119045234D01*
X149294467Y-119045235D01*
X149450227Y-119149310D01*
X149582690Y-119281773D01*
X149582691Y-119281775D01*
X149686766Y-119437534D01*
X149758454Y-119610605D01*
X149795000Y-119794333D01*
X149795000Y-119981667D01*
X149758454Y-120165395D01*
X149686766Y-120338466D01*
X149686765Y-120338467D01*
X149582690Y-120494227D01*
X149450227Y-120626690D01*
X149371818Y-120679081D01*
X149294466Y-120730766D01*
X149121395Y-120802454D01*
X148937667Y-120839000D01*
X148750333Y-120839000D01*
X148566605Y-120802454D01*
X148393534Y-120730766D01*
X148316182Y-120679081D01*
X148237773Y-120626690D01*
X148105310Y-120494227D01*
X148001235Y-120338467D01*
X148001234Y-120338466D01*
X147929546Y-120165395D01*
X147893000Y-119981667D01*
X147893000Y-119794333D01*
X147929546Y-119610605D01*
X148001234Y-119437534D01*
X148105309Y-119281775D01*
X148105310Y-119281773D01*
X148237773Y-119149310D01*
X148393533Y-119045235D01*
X148393534Y-119045234D01*
X148566605Y-118973546D01*
X148750333Y-118937000D01*
X148937667Y-118937000D01*
X149121395Y-118973546D01*
X149121395Y-118973546D01*
G37*
G36*
X160481119Y-117469518D02*
G01*
X160547304Y-117476037D01*
X160717143Y-117527557D01*
X160873668Y-117611222D01*
X160909406Y-117640552D01*
X161010863Y-117723814D01*
X161094125Y-117825271D01*
X161123455Y-117861009D01*
X161207120Y-118017534D01*
X161258640Y-118187373D01*
X161276036Y-118364000D01*
X161258640Y-118540627D01*
X161207120Y-118710466D01*
X161123455Y-118866991D01*
X161094125Y-118902729D01*
X161010863Y-119004186D01*
X160909406Y-119087448D01*
X160873668Y-119116778D01*
X160717143Y-119200443D01*
X160547304Y-119251963D01*
X160481120Y-119258481D01*
X160414937Y-119265000D01*
X160326417Y-119265000D01*
X160260234Y-119258481D01*
X160194050Y-119251963D01*
X160024211Y-119200443D01*
X159867686Y-119116778D01*
X159831948Y-119087448D01*
X159730491Y-119004186D01*
X159647229Y-118902729D01*
X159617899Y-118866991D01*
X159534234Y-118710466D01*
X159482714Y-118540627D01*
X159465318Y-118364000D01*
X159482714Y-118187373D01*
X159534234Y-118017534D01*
X159617899Y-117861009D01*
X159647229Y-117825271D01*
X159730491Y-117723814D01*
X159831948Y-117640552D01*
X159867686Y-117611222D01*
X160024211Y-117527557D01*
X160194050Y-117476037D01*
X160260235Y-117469518D01*
X160326417Y-117463000D01*
X160414937Y-117463000D01*
X160481119Y-117469518D01*
X160481119Y-117469518D01*
G37*
G36*
X157941119Y-117469518D02*
G01*
X158007304Y-117476037D01*
X158177143Y-117527557D01*
X158333668Y-117611222D01*
X158369406Y-117640552D01*
X158470863Y-117723814D01*
X158554125Y-117825271D01*
X158583455Y-117861009D01*
X158667120Y-118017534D01*
X158718640Y-118187373D01*
X158736036Y-118364000D01*
X158718640Y-118540627D01*
X158667120Y-118710466D01*
X158583455Y-118866991D01*
X158554125Y-118902729D01*
X158470863Y-119004186D01*
X158369406Y-119087448D01*
X158333668Y-119116778D01*
X158177143Y-119200443D01*
X158007304Y-119251963D01*
X157941120Y-119258481D01*
X157874937Y-119265000D01*
X157786417Y-119265000D01*
X157720234Y-119258481D01*
X157654050Y-119251963D01*
X157484211Y-119200443D01*
X157327686Y-119116778D01*
X157291948Y-119087448D01*
X157190491Y-119004186D01*
X157107229Y-118902729D01*
X157077899Y-118866991D01*
X156994234Y-118710466D01*
X156942714Y-118540627D01*
X156925318Y-118364000D01*
X156942714Y-118187373D01*
X156994234Y-118017534D01*
X157077899Y-117861009D01*
X157107229Y-117825271D01*
X157190491Y-117723814D01*
X157291948Y-117640552D01*
X157327686Y-117611222D01*
X157484211Y-117527557D01*
X157654050Y-117476037D01*
X157720235Y-117469518D01*
X157786417Y-117463000D01*
X157874937Y-117463000D01*
X157941119Y-117469518D01*
X157941119Y-117469518D01*
G37*
G36*
X156191677Y-119265000D02*
G01*
X154389677Y-119265000D01*
X154389677Y-117463000D01*
X156191677Y-117463000D01*
X156191677Y-119265000D01*
X156191677Y-119265000D01*
G37*
G36*
X139538059Y-117770860D02*
G01*
X139674732Y-117827472D01*
X139797735Y-117909660D01*
X139902340Y-118014265D01*
X139902341Y-118014267D01*
X139984529Y-118137270D01*
X140041140Y-118273941D01*
X140059054Y-118364000D01*
X140070000Y-118419033D01*
X140070000Y-118566967D01*
X140041140Y-118712059D01*
X139984528Y-118848732D01*
X139902340Y-118971735D01*
X139797735Y-119076340D01*
X139674732Y-119158528D01*
X139674731Y-119158529D01*
X139674730Y-119158529D01*
X139538059Y-119215140D01*
X139392968Y-119244000D01*
X139245032Y-119244000D01*
X139099941Y-119215140D01*
X138963270Y-119158529D01*
X138963269Y-119158529D01*
X138963268Y-119158528D01*
X138840265Y-119076340D01*
X138735660Y-118971735D01*
X138653472Y-118848732D01*
X138596860Y-118712059D01*
X138568000Y-118566967D01*
X138568000Y-118419033D01*
X138578947Y-118364000D01*
X138596860Y-118273941D01*
X138653471Y-118137270D01*
X138735659Y-118014267D01*
X138735660Y-118014265D01*
X138840265Y-117909660D01*
X138963268Y-117827472D01*
X139099941Y-117770860D01*
X139245032Y-117742000D01*
X139392968Y-117742000D01*
X139538059Y-117770860D01*
X139538059Y-117770860D01*
G37*
G36*
X137038059Y-117770860D02*
G01*
X137174732Y-117827472D01*
X137297735Y-117909660D01*
X137402340Y-118014265D01*
X137402341Y-118014267D01*
X137484529Y-118137270D01*
X137541140Y-118273941D01*
X137559054Y-118364000D01*
X137570000Y-118419033D01*
X137570000Y-118566967D01*
X137541140Y-118712059D01*
X137484528Y-118848732D01*
X137402340Y-118971735D01*
X137297735Y-119076340D01*
X137174732Y-119158528D01*
X137174731Y-119158529D01*
X137174730Y-119158529D01*
X137038059Y-119215140D01*
X136892968Y-119244000D01*
X136745032Y-119244000D01*
X136599941Y-119215140D01*
X136463270Y-119158529D01*
X136463269Y-119158529D01*
X136463268Y-119158528D01*
X136340265Y-119076340D01*
X136235660Y-118971735D01*
X136153472Y-118848732D01*
X136096860Y-118712059D01*
X136068000Y-118566967D01*
X136068000Y-118419033D01*
X136078947Y-118364000D01*
X136096860Y-118273941D01*
X136153471Y-118137270D01*
X136235659Y-118014267D01*
X136235660Y-118014265D01*
X136340265Y-117909660D01*
X136463268Y-117827472D01*
X136599941Y-117770860D01*
X136745032Y-117742000D01*
X136892968Y-117742000D01*
X137038059Y-117770860D01*
X137038059Y-117770860D01*
G37*
G36*
X134538059Y-117770860D02*
G01*
X134674732Y-117827472D01*
X134797735Y-117909660D01*
X134902340Y-118014265D01*
X134902341Y-118014267D01*
X134984529Y-118137270D01*
X135041140Y-118273941D01*
X135059054Y-118364000D01*
X135070000Y-118419033D01*
X135070000Y-118566967D01*
X135041140Y-118712059D01*
X134984528Y-118848732D01*
X134902340Y-118971735D01*
X134797735Y-119076340D01*
X134674732Y-119158528D01*
X134674731Y-119158529D01*
X134674730Y-119158529D01*
X134538059Y-119215140D01*
X134392968Y-119244000D01*
X134245032Y-119244000D01*
X134099941Y-119215140D01*
X133963270Y-119158529D01*
X133963269Y-119158529D01*
X133963268Y-119158528D01*
X133840265Y-119076340D01*
X133735660Y-118971735D01*
X133653472Y-118848732D01*
X133596860Y-118712059D01*
X133568000Y-118566967D01*
X133568000Y-118419033D01*
X133578947Y-118364000D01*
X133596860Y-118273941D01*
X133653471Y-118137270D01*
X133735659Y-118014267D01*
X133735660Y-118014265D01*
X133840265Y-117909660D01*
X133963268Y-117827472D01*
X134099941Y-117770860D01*
X134245032Y-117742000D01*
X134392968Y-117742000D01*
X134538059Y-117770860D01*
X134538059Y-117770860D01*
G37*
G36*
X134786823Y-113715313D02*
G01*
X134947242Y-113763976D01*
X135014361Y-113799852D01*
X135095078Y-113842996D01*
X135224659Y-113949341D01*
X135331004Y-114078922D01*
X135331005Y-114078924D01*
X135410024Y-114226758D01*
X135458687Y-114387177D01*
X135475117Y-114554000D01*
X135458687Y-114720823D01*
X135410024Y-114881242D01*
X135369477Y-114957100D01*
X135331004Y-115029078D01*
X135224659Y-115158659D01*
X135095078Y-115265004D01*
X135095076Y-115265005D01*
X134947242Y-115344024D01*
X134786823Y-115392687D01*
X134661804Y-115405000D01*
X134578196Y-115405000D01*
X134453177Y-115392687D01*
X134292758Y-115344024D01*
X134144924Y-115265005D01*
X134144922Y-115265004D01*
X134015341Y-115158659D01*
X133908996Y-115029078D01*
X133870523Y-114957100D01*
X133829976Y-114881242D01*
X133781313Y-114720823D01*
X133764883Y-114554000D01*
X133781313Y-114387177D01*
X133829976Y-114226758D01*
X133908995Y-114078924D01*
X133908996Y-114078922D01*
X134015341Y-113949341D01*
X134144922Y-113842996D01*
X134225639Y-113799852D01*
X134292758Y-113763976D01*
X134453177Y-113715313D01*
X134578196Y-113703000D01*
X134661804Y-113703000D01*
X134786823Y-113715313D01*
X134786823Y-113715313D01*
G37*
G36*
X127248228Y-113735703D02*
G01*
X127403100Y-113799853D01*
X127542481Y-113892985D01*
X127661015Y-114011519D01*
X127754147Y-114150900D01*
X127818297Y-114305772D01*
X127851000Y-114470184D01*
X127851000Y-114637816D01*
X127818297Y-114802228D01*
X127754147Y-114957100D01*
X127661015Y-115096481D01*
X127542481Y-115215015D01*
X127403100Y-115308147D01*
X127248228Y-115372297D01*
X127083816Y-115405000D01*
X126916184Y-115405000D01*
X126751772Y-115372297D01*
X126596900Y-115308147D01*
X126457519Y-115215015D01*
X126338985Y-115096481D01*
X126245853Y-114957100D01*
X126181703Y-114802228D01*
X126149000Y-114637816D01*
X126149000Y-114470184D01*
X126181703Y-114305772D01*
X126245853Y-114150900D01*
X126338985Y-114011519D01*
X126457519Y-113892985D01*
X126596900Y-113799853D01*
X126751772Y-113735703D01*
X126916184Y-113703000D01*
X127083816Y-113703000D01*
X127248228Y-113735703D01*
X127248228Y-113735703D01*
G37*
G36*
X140851000Y-114208000D02*
G01*
X138549000Y-114208000D01*
X138549000Y-111906000D01*
X140851000Y-111906000D01*
X140851000Y-114208000D01*
X140851000Y-114208000D01*
G37*
G36*
X150029271Y-111917103D02*
G01*
X150085635Y-111922654D01*
X150302600Y-111988470D01*
X150302602Y-111988471D01*
X150502555Y-112095347D01*
X150677818Y-112239182D01*
X150821653Y-112414445D01*
X150928529Y-112614398D01*
X150994346Y-112831366D01*
X151016569Y-113057000D01*
X150994346Y-113282634D01*
X150928529Y-113499602D01*
X150821653Y-113699555D01*
X150677818Y-113874818D01*
X150502555Y-114018653D01*
X150302602Y-114125529D01*
X150302600Y-114125530D01*
X150085635Y-114191346D01*
X150029271Y-114196897D01*
X149916545Y-114208000D01*
X149803455Y-114208000D01*
X149690729Y-114196897D01*
X149634365Y-114191346D01*
X149417400Y-114125530D01*
X149417398Y-114125529D01*
X149217445Y-114018653D01*
X149042182Y-113874818D01*
X148898347Y-113699555D01*
X148791471Y-113499602D01*
X148725654Y-113282634D01*
X148703431Y-113057000D01*
X148725654Y-112831366D01*
X148791471Y-112614398D01*
X148898347Y-112414445D01*
X149042182Y-112239182D01*
X149217445Y-112095347D01*
X149417398Y-111988471D01*
X149417400Y-111988470D01*
X149634365Y-111922654D01*
X149690729Y-111917103D01*
X149803455Y-111906000D01*
X149916545Y-111906000D01*
X150029271Y-111917103D01*
X150029271Y-111917103D01*
G37*
G36*
X167652000Y-112915000D02*
G01*
X165850000Y-112915000D01*
X165850000Y-111113000D01*
X167652000Y-111113000D01*
X167652000Y-112915000D01*
X167652000Y-112915000D01*
G37*
G36*
X160363000Y-111087000D02*
G01*
X158661000Y-111087000D01*
X158661000Y-109385000D01*
X160363000Y-109385000D01*
X160363000Y-111087000D01*
X160363000Y-111087000D01*
G37*
G36*
X157760228Y-109417703D02*
G01*
X157915100Y-109481853D01*
X158054481Y-109574985D01*
X158173015Y-109693519D01*
X158266147Y-109832900D01*
X158330297Y-109987772D01*
X158363000Y-110152184D01*
X158363000Y-110319816D01*
X158330297Y-110484228D01*
X158266147Y-110639100D01*
X158173015Y-110778481D01*
X158054481Y-110897015D01*
X157915100Y-110990147D01*
X157760228Y-111054297D01*
X157595816Y-111087000D01*
X157428184Y-111087000D01*
X157263772Y-111054297D01*
X157108900Y-110990147D01*
X156969519Y-110897015D01*
X156850985Y-110778481D01*
X156757853Y-110639100D01*
X156693703Y-110484228D01*
X156661000Y-110319816D01*
X156661000Y-110152184D01*
X156693703Y-109987772D01*
X156757853Y-109832900D01*
X156850985Y-109693519D01*
X156969519Y-109574985D01*
X157108900Y-109481853D01*
X157263772Y-109417703D01*
X157428184Y-109385000D01*
X157595816Y-109385000D01*
X157760228Y-109417703D01*
X157760228Y-109417703D01*
G37*
G36*
X166861442Y-108579518D02*
G01*
X166927627Y-108586037D01*
X167097466Y-108637557D01*
X167253991Y-108721222D01*
X167289729Y-108750552D01*
X167391186Y-108833814D01*
X167474448Y-108935271D01*
X167503778Y-108971009D01*
X167587443Y-109127534D01*
X167638963Y-109297373D01*
X167656359Y-109474000D01*
X167638963Y-109650627D01*
X167587443Y-109820466D01*
X167503778Y-109976991D01*
X167494931Y-109987771D01*
X167391186Y-110114186D01*
X167289729Y-110197448D01*
X167253991Y-110226778D01*
X167097466Y-110310443D01*
X166927627Y-110361963D01*
X166861442Y-110368482D01*
X166795260Y-110375000D01*
X166706740Y-110375000D01*
X166640558Y-110368482D01*
X166574373Y-110361963D01*
X166404534Y-110310443D01*
X166248009Y-110226778D01*
X166212271Y-110197448D01*
X166110814Y-110114186D01*
X166007069Y-109987771D01*
X165998222Y-109976991D01*
X165914557Y-109820466D01*
X165863037Y-109650627D01*
X165845641Y-109474000D01*
X165863037Y-109297373D01*
X165914557Y-109127534D01*
X165998222Y-108971009D01*
X166027552Y-108935271D01*
X166110814Y-108833814D01*
X166212271Y-108750552D01*
X166248009Y-108721222D01*
X166404534Y-108637557D01*
X166574373Y-108586037D01*
X166640558Y-108579518D01*
X166706740Y-108573000D01*
X166795260Y-108573000D01*
X166861442Y-108579518D01*
X166861442Y-108579518D01*
G37*
G36*
X127248228Y-107734953D02*
G01*
X127403100Y-107799103D01*
X127542481Y-107892235D01*
X127661015Y-108010769D01*
X127754147Y-108150150D01*
X127818297Y-108305022D01*
X127851000Y-108469434D01*
X127851000Y-108637066D01*
X127818297Y-108801478D01*
X127754147Y-108956350D01*
X127661015Y-109095731D01*
X127542481Y-109214265D01*
X127403100Y-109307397D01*
X127248228Y-109371547D01*
X127083816Y-109404250D01*
X126916184Y-109404250D01*
X126751772Y-109371547D01*
X126596900Y-109307397D01*
X126457519Y-109214265D01*
X126338985Y-109095731D01*
X126245853Y-108956350D01*
X126181703Y-108801478D01*
X126149000Y-108637066D01*
X126149000Y-108469434D01*
X126181703Y-108305022D01*
X126245853Y-108150150D01*
X126338985Y-108010769D01*
X126457519Y-107892235D01*
X126596900Y-107799103D01*
X126751772Y-107734953D01*
X126916184Y-107702250D01*
X127083816Y-107702250D01*
X127248228Y-107734953D01*
X127248228Y-107734953D01*
G37*
G36*
X134786823Y-107714563D02*
G01*
X134947242Y-107763226D01*
X135014361Y-107799102D01*
X135095078Y-107842246D01*
X135224659Y-107948591D01*
X135331004Y-108078172D01*
X135331005Y-108078174D01*
X135410024Y-108226008D01*
X135458687Y-108386427D01*
X135475117Y-108553250D01*
X135458687Y-108720073D01*
X135410024Y-108880492D01*
X135339114Y-109013156D01*
X135331004Y-109028328D01*
X135224659Y-109157909D01*
X135095078Y-109264254D01*
X135095076Y-109264255D01*
X134947242Y-109343274D01*
X134786823Y-109391937D01*
X134661804Y-109404250D01*
X134578196Y-109404250D01*
X134453177Y-109391937D01*
X134292758Y-109343274D01*
X134144924Y-109264255D01*
X134144922Y-109264254D01*
X134015341Y-109157909D01*
X133908996Y-109028328D01*
X133900886Y-109013156D01*
X133829976Y-108880492D01*
X133781313Y-108720073D01*
X133764883Y-108553250D01*
X133781313Y-108386427D01*
X133829976Y-108226008D01*
X133908995Y-108078174D01*
X133908996Y-108078172D01*
X134015341Y-107948591D01*
X134144922Y-107842246D01*
X134225639Y-107799102D01*
X134292758Y-107763226D01*
X134453177Y-107714563D01*
X134578196Y-107702250D01*
X134661804Y-107702250D01*
X134786823Y-107714563D01*
X134786823Y-107714563D01*
G37*
G36*
X150029271Y-105966353D02*
G01*
X150085635Y-105971904D01*
X150302600Y-106037720D01*
X150302602Y-106037721D01*
X150502555Y-106144597D01*
X150677818Y-106288432D01*
X150821653Y-106463695D01*
X150928529Y-106663648D01*
X150928530Y-106663650D01*
X150956961Y-106757375D01*
X150994346Y-106880616D01*
X151016569Y-107106250D01*
X150994346Y-107331884D01*
X150928529Y-107548852D01*
X150821653Y-107748805D01*
X150677818Y-107924068D01*
X150502555Y-108067903D01*
X150348680Y-108150150D01*
X150302600Y-108174780D01*
X150085635Y-108240596D01*
X150029271Y-108246147D01*
X149916545Y-108257250D01*
X149803455Y-108257250D01*
X149690729Y-108246147D01*
X149634365Y-108240596D01*
X149417400Y-108174780D01*
X149371320Y-108150150D01*
X149217445Y-108067903D01*
X149042182Y-107924068D01*
X148898347Y-107748805D01*
X148791471Y-107548852D01*
X148725654Y-107331884D01*
X148703431Y-107106250D01*
X148725654Y-106880616D01*
X148763039Y-106757375D01*
X148791470Y-106663650D01*
X148791471Y-106663648D01*
X148898347Y-106463695D01*
X149042182Y-106288432D01*
X149217445Y-106144597D01*
X149417398Y-106037721D01*
X149417400Y-106037720D01*
X149634365Y-105971904D01*
X149690729Y-105966353D01*
X149803455Y-105955250D01*
X149916545Y-105955250D01*
X150029271Y-105966353D01*
X150029271Y-105966353D01*
G37*
G36*
X140851000Y-108257250D02*
G01*
X138549000Y-108257250D01*
X138549000Y-105955250D01*
X140851000Y-105955250D01*
X140851000Y-108257250D01*
X140851000Y-108257250D01*
G37*
G36*
X166843182Y-106037720D02*
G01*
X166927627Y-106046037D01*
X167097466Y-106097557D01*
X167253991Y-106181222D01*
X167289729Y-106210552D01*
X167391186Y-106293814D01*
X167474448Y-106395271D01*
X167503778Y-106431009D01*
X167587443Y-106587534D01*
X167638963Y-106757373D01*
X167656359Y-106934000D01*
X167638963Y-107110627D01*
X167587443Y-107280466D01*
X167503778Y-107436991D01*
X167474448Y-107472729D01*
X167391186Y-107574186D01*
X167289729Y-107657448D01*
X167253991Y-107686778D01*
X167097466Y-107770443D01*
X166927627Y-107821963D01*
X166861443Y-107828481D01*
X166795260Y-107835000D01*
X166706740Y-107835000D01*
X166640557Y-107828481D01*
X166574373Y-107821963D01*
X166404534Y-107770443D01*
X166248009Y-107686778D01*
X166212271Y-107657448D01*
X166110814Y-107574186D01*
X166027552Y-107472729D01*
X165998222Y-107436991D01*
X165914557Y-107280466D01*
X165863037Y-107110627D01*
X165845641Y-106934000D01*
X165863037Y-106757373D01*
X165914557Y-106587534D01*
X165998222Y-106431009D01*
X166027552Y-106395271D01*
X166110814Y-106293814D01*
X166212271Y-106210552D01*
X166248009Y-106181222D01*
X166404534Y-106097557D01*
X166574373Y-106046037D01*
X166658818Y-106037720D01*
X166706740Y-106033000D01*
X166795260Y-106033000D01*
X166843182Y-106037720D01*
X166843182Y-106037720D01*
G37*
G36*
X134786823Y-101713813D02*
G01*
X134947242Y-101762476D01*
X135014361Y-101798352D01*
X135095078Y-101841496D01*
X135224659Y-101947841D01*
X135331004Y-102077422D01*
X135331005Y-102077424D01*
X135410024Y-102225258D01*
X135458687Y-102385677D01*
X135475117Y-102552500D01*
X135458687Y-102719323D01*
X135410024Y-102879742D01*
X135369477Y-102955600D01*
X135331004Y-103027578D01*
X135224659Y-103157159D01*
X135095078Y-103263504D01*
X135095076Y-103263505D01*
X134947242Y-103342524D01*
X134786823Y-103391187D01*
X134661804Y-103403500D01*
X134578196Y-103403500D01*
X134453177Y-103391187D01*
X134292758Y-103342524D01*
X134144924Y-103263505D01*
X134144922Y-103263504D01*
X134015341Y-103157159D01*
X133908996Y-103027578D01*
X133870523Y-102955600D01*
X133829976Y-102879742D01*
X133781313Y-102719323D01*
X133764883Y-102552500D01*
X133781313Y-102385677D01*
X133829976Y-102225258D01*
X133908995Y-102077424D01*
X133908996Y-102077422D01*
X134015341Y-101947841D01*
X134144922Y-101841496D01*
X134225639Y-101798352D01*
X134292758Y-101762476D01*
X134453177Y-101713813D01*
X134578196Y-101701500D01*
X134661804Y-101701500D01*
X134786823Y-101713813D01*
X134786823Y-101713813D01*
G37*
G36*
X127248228Y-101734203D02*
G01*
X127403100Y-101798353D01*
X127542481Y-101891485D01*
X127661015Y-102010019D01*
X127754147Y-102149400D01*
X127818297Y-102304272D01*
X127851000Y-102468684D01*
X127851000Y-102636316D01*
X127818297Y-102800728D01*
X127754147Y-102955600D01*
X127661015Y-103094981D01*
X127542481Y-103213515D01*
X127403100Y-103306647D01*
X127248228Y-103370797D01*
X127083816Y-103403500D01*
X126916184Y-103403500D01*
X126751772Y-103370797D01*
X126596900Y-103306647D01*
X126457519Y-103213515D01*
X126338985Y-103094981D01*
X126245853Y-102955600D01*
X126181703Y-102800728D01*
X126149000Y-102636316D01*
X126149000Y-102468684D01*
X126181703Y-102304272D01*
X126245853Y-102149400D01*
X126338985Y-102010019D01*
X126457519Y-101891485D01*
X126596900Y-101798353D01*
X126751772Y-101734203D01*
X126916184Y-101701500D01*
X127083816Y-101701500D01*
X127248228Y-101734203D01*
X127248228Y-101734203D01*
G37*
G36*
X140851000Y-102306500D02*
G01*
X138549000Y-102306500D01*
X138549000Y-100004500D01*
X140851000Y-100004500D01*
X140851000Y-102306500D01*
X140851000Y-102306500D01*
G37*
G36*
X150029271Y-100015603D02*
G01*
X150085635Y-100021154D01*
X150302600Y-100086970D01*
X150302602Y-100086971D01*
X150502555Y-100193847D01*
X150677818Y-100337682D01*
X150821653Y-100512945D01*
X150928529Y-100712898D01*
X150994346Y-100929866D01*
X151016569Y-101155500D01*
X150994346Y-101381134D01*
X150928529Y-101598102D01*
X150821653Y-101798055D01*
X150677818Y-101973318D01*
X150502555Y-102117153D01*
X150302602Y-102224029D01*
X150302600Y-102224030D01*
X150085635Y-102289846D01*
X150029271Y-102295397D01*
X149916545Y-102306500D01*
X149803455Y-102306500D01*
X149690729Y-102295397D01*
X149634365Y-102289846D01*
X149417400Y-102224030D01*
X149417398Y-102224029D01*
X149217445Y-102117153D01*
X149042182Y-101973318D01*
X148898347Y-101798055D01*
X148791471Y-101598102D01*
X148725654Y-101381134D01*
X148703431Y-101155500D01*
X148725654Y-100929866D01*
X148791471Y-100712898D01*
X148898347Y-100512945D01*
X149042182Y-100337682D01*
X149217445Y-100193847D01*
X149417398Y-100086971D01*
X149417400Y-100086970D01*
X149634365Y-100021154D01*
X149690729Y-100015603D01*
X149803455Y-100004500D01*
X149916545Y-100004500D01*
X150029271Y-100015603D01*
X150029271Y-100015603D01*
G37*
G36*
X155961564Y-98176389D02*
G01*
X156116868Y-98240718D01*
X156152835Y-98255616D01*
X156324973Y-98370635D01*
X156471365Y-98517027D01*
X156529620Y-98604211D01*
X156586385Y-98689167D01*
X156665611Y-98880436D01*
X156706000Y-99083484D01*
X156706000Y-99290516D01*
X156665611Y-99493564D01*
X156586385Y-99684833D01*
X156586384Y-99684835D01*
X156471365Y-99856973D01*
X156324973Y-100003365D01*
X156152835Y-100118384D01*
X156152834Y-100118385D01*
X156152833Y-100118385D01*
X155961564Y-100197611D01*
X155758516Y-100238000D01*
X155551484Y-100238000D01*
X155348436Y-100197611D01*
X155157167Y-100118385D01*
X155157166Y-100118385D01*
X155157165Y-100118384D01*
X154985027Y-100003365D01*
X154838635Y-99856973D01*
X154723616Y-99684835D01*
X154723615Y-99684833D01*
X154644389Y-99493564D01*
X154604000Y-99290516D01*
X154604000Y-99083484D01*
X154644389Y-98880436D01*
X154723615Y-98689167D01*
X154780381Y-98604211D01*
X154838635Y-98517027D01*
X154985027Y-98370635D01*
X155157165Y-98255616D01*
X155193132Y-98240718D01*
X155348436Y-98176389D01*
X155551484Y-98136000D01*
X155758516Y-98136000D01*
X155961564Y-98176389D01*
X155961564Y-98176389D01*
G37*
G36*
X161706000Y-100238000D02*
G01*
X159604000Y-100238000D01*
X159604000Y-98136000D01*
X161706000Y-98136000D01*
X161706000Y-100238000D01*
X161706000Y-100238000D01*
G37*
G36*
X166261936Y-97045340D02*
G01*
X166360220Y-97055020D01*
X166549381Y-97112401D01*
X166723712Y-97205583D01*
X166876515Y-97330985D01*
X167001917Y-97483788D01*
X167095099Y-97658119D01*
X167152480Y-97847280D01*
X167171855Y-98044000D01*
X167152480Y-98240720D01*
X167095099Y-98429881D01*
X167001917Y-98604212D01*
X166876515Y-98757015D01*
X166723712Y-98882417D01*
X166549381Y-98975599D01*
X166360220Y-99032980D01*
X166261936Y-99042660D01*
X166212795Y-99047500D01*
X166019205Y-99047500D01*
X165970064Y-99042660D01*
X165871780Y-99032980D01*
X165682619Y-98975599D01*
X165508288Y-98882417D01*
X165355485Y-98757015D01*
X165230083Y-98604212D01*
X165136901Y-98429881D01*
X165079520Y-98240720D01*
X165060145Y-98044000D01*
X165079520Y-97847280D01*
X165136901Y-97658119D01*
X165230083Y-97483788D01*
X165355485Y-97330985D01*
X165508288Y-97205583D01*
X165682619Y-97112401D01*
X165871780Y-97055020D01*
X165970064Y-97045340D01*
X166019205Y-97040500D01*
X166212795Y-97040500D01*
X166261936Y-97045340D01*
X166261936Y-97045340D01*
G37*
G36*
X134786823Y-95713063D02*
G01*
X134947242Y-95761726D01*
X135014361Y-95797602D01*
X135095078Y-95840746D01*
X135224659Y-95947091D01*
X135331004Y-96076672D01*
X135331005Y-96076674D01*
X135410024Y-96224508D01*
X135458687Y-96384927D01*
X135475117Y-96551750D01*
X135458687Y-96718573D01*
X135410024Y-96878992D01*
X135369477Y-96954850D01*
X135331004Y-97026828D01*
X135224659Y-97156409D01*
X135095078Y-97262754D01*
X135095076Y-97262755D01*
X134947242Y-97341774D01*
X134786823Y-97390437D01*
X134661804Y-97402750D01*
X134578196Y-97402750D01*
X134453177Y-97390437D01*
X134292758Y-97341774D01*
X134144924Y-97262755D01*
X134144922Y-97262754D01*
X134015341Y-97156409D01*
X133908996Y-97026828D01*
X133870523Y-96954850D01*
X133829976Y-96878992D01*
X133781313Y-96718573D01*
X133764883Y-96551750D01*
X133781313Y-96384927D01*
X133829976Y-96224508D01*
X133908995Y-96076674D01*
X133908996Y-96076672D01*
X134015341Y-95947091D01*
X134144922Y-95840746D01*
X134225639Y-95797602D01*
X134292758Y-95761726D01*
X134453177Y-95713063D01*
X134578196Y-95700750D01*
X134661804Y-95700750D01*
X134786823Y-95713063D01*
X134786823Y-95713063D01*
G37*
G36*
X127248228Y-95733453D02*
G01*
X127403100Y-95797603D01*
X127542481Y-95890735D01*
X127661015Y-96009269D01*
X127754147Y-96148650D01*
X127818297Y-96303522D01*
X127851000Y-96467934D01*
X127851000Y-96635566D01*
X127818297Y-96799978D01*
X127754147Y-96954850D01*
X127661015Y-97094231D01*
X127542481Y-97212765D01*
X127403100Y-97305897D01*
X127248228Y-97370047D01*
X127083816Y-97402750D01*
X126916184Y-97402750D01*
X126751772Y-97370047D01*
X126596900Y-97305897D01*
X126457519Y-97212765D01*
X126338985Y-97094231D01*
X126245853Y-96954850D01*
X126181703Y-96799978D01*
X126149000Y-96635566D01*
X126149000Y-96467934D01*
X126181703Y-96303522D01*
X126245853Y-96148650D01*
X126338985Y-96009269D01*
X126457519Y-95890735D01*
X126596900Y-95797603D01*
X126751772Y-95733453D01*
X126916184Y-95700750D01*
X127083816Y-95700750D01*
X127248228Y-95733453D01*
X127248228Y-95733453D01*
G37*
G36*
X166261936Y-94505340D02*
G01*
X166360220Y-94515020D01*
X166549381Y-94572401D01*
X166723712Y-94665583D01*
X166876515Y-94790985D01*
X167001917Y-94943788D01*
X167095099Y-95118119D01*
X167152480Y-95307280D01*
X167171855Y-95504000D01*
X167152480Y-95700720D01*
X167095099Y-95889881D01*
X167001917Y-96064212D01*
X166876515Y-96217015D01*
X166723712Y-96342417D01*
X166549381Y-96435599D01*
X166360220Y-96492980D01*
X166261936Y-96502660D01*
X166212795Y-96507500D01*
X166019205Y-96507500D01*
X165970064Y-96502660D01*
X165871780Y-96492980D01*
X165682619Y-96435599D01*
X165508288Y-96342417D01*
X165355485Y-96217015D01*
X165230083Y-96064212D01*
X165136901Y-95889881D01*
X165079520Y-95700720D01*
X165060145Y-95504000D01*
X165079520Y-95307280D01*
X165136901Y-95118119D01*
X165230083Y-94943788D01*
X165355485Y-94790985D01*
X165508288Y-94665583D01*
X165682619Y-94572401D01*
X165871780Y-94515020D01*
X165970064Y-94505340D01*
X166019205Y-94500500D01*
X166212795Y-94500500D01*
X166261936Y-94505340D01*
X166261936Y-94505340D01*
G37*
G36*
X140851000Y-96355750D02*
G01*
X138549000Y-96355750D01*
X138549000Y-94053750D01*
X140851000Y-94053750D01*
X140851000Y-96355750D01*
X140851000Y-96355750D01*
G37*
G36*
X150029271Y-94064853D02*
G01*
X150085635Y-94070404D01*
X150302600Y-94136220D01*
X150302602Y-94136221D01*
X150502555Y-94243097D01*
X150677818Y-94386932D01*
X150821653Y-94562195D01*
X150876914Y-94665583D01*
X150928530Y-94762150D01*
X150994346Y-94979115D01*
X151016569Y-95204750D01*
X151006471Y-95307282D01*
X150994346Y-95430384D01*
X150928529Y-95647352D01*
X150821653Y-95847305D01*
X150677818Y-96022568D01*
X150502555Y-96166403D01*
X150393841Y-96224511D01*
X150302600Y-96273280D01*
X150085635Y-96339096D01*
X150051916Y-96342417D01*
X149916545Y-96355750D01*
X149803455Y-96355750D01*
X149668084Y-96342417D01*
X149634365Y-96339096D01*
X149417400Y-96273280D01*
X149326159Y-96224511D01*
X149217445Y-96166403D01*
X149042182Y-96022568D01*
X148898347Y-95847305D01*
X148791471Y-95647352D01*
X148725654Y-95430384D01*
X148713530Y-95307282D01*
X148703431Y-95204750D01*
X148725654Y-94979115D01*
X148791470Y-94762150D01*
X148843086Y-94665583D01*
X148898347Y-94562195D01*
X149042182Y-94386932D01*
X149217445Y-94243097D01*
X149417398Y-94136221D01*
X149417400Y-94136220D01*
X149634365Y-94070404D01*
X149690729Y-94064853D01*
X149803455Y-94053750D01*
X149916545Y-94053750D01*
X150029271Y-94064853D01*
X150029271Y-94064853D01*
G37*
G36*
X167167000Y-93967500D02*
G01*
X165065000Y-93967500D01*
X165065000Y-91960500D01*
X167167000Y-91960500D01*
X167167000Y-93967500D01*
X167167000Y-93967500D01*
G37*
G36*
X134786823Y-89712313D02*
G01*
X134947242Y-89760976D01*
X135014361Y-89796852D01*
X135095078Y-89839996D01*
X135224659Y-89946341D01*
X135331004Y-90075922D01*
X135331005Y-90075924D01*
X135410024Y-90223758D01*
X135458687Y-90384177D01*
X135475117Y-90551000D01*
X135458687Y-90717823D01*
X135410024Y-90878242D01*
X135369477Y-90954100D01*
X135331004Y-91026078D01*
X135224659Y-91155659D01*
X135095078Y-91262004D01*
X135095076Y-91262005D01*
X134947242Y-91341024D01*
X134786823Y-91389687D01*
X134661804Y-91402000D01*
X134578196Y-91402000D01*
X134453177Y-91389687D01*
X134292758Y-91341024D01*
X134144924Y-91262005D01*
X134144922Y-91262004D01*
X134015341Y-91155659D01*
X133908996Y-91026078D01*
X133870523Y-90954100D01*
X133829976Y-90878242D01*
X133781313Y-90717823D01*
X133764883Y-90551000D01*
X133781313Y-90384177D01*
X133829976Y-90223758D01*
X133908995Y-90075924D01*
X133908996Y-90075922D01*
X134015341Y-89946341D01*
X134144922Y-89839996D01*
X134225639Y-89796852D01*
X134292758Y-89760976D01*
X134453177Y-89712313D01*
X134578196Y-89700000D01*
X134661804Y-89700000D01*
X134786823Y-89712313D01*
X134786823Y-89712313D01*
G37*
G36*
X127248228Y-89732703D02*
G01*
X127403100Y-89796853D01*
X127542481Y-89889985D01*
X127661015Y-90008519D01*
X127754147Y-90147900D01*
X127818297Y-90302772D01*
X127851000Y-90467184D01*
X127851000Y-90634816D01*
X127818297Y-90799228D01*
X127754147Y-90954100D01*
X127661015Y-91093481D01*
X127542481Y-91212015D01*
X127403100Y-91305147D01*
X127248228Y-91369297D01*
X127083816Y-91402000D01*
X126916184Y-91402000D01*
X126751772Y-91369297D01*
X126596900Y-91305147D01*
X126457519Y-91212015D01*
X126338985Y-91093481D01*
X126245853Y-90954100D01*
X126181703Y-90799228D01*
X126149000Y-90634816D01*
X126149000Y-90467184D01*
X126181703Y-90302772D01*
X126245853Y-90147900D01*
X126338985Y-90008519D01*
X126457519Y-89889985D01*
X126596900Y-89796853D01*
X126751772Y-89732703D01*
X126916184Y-89700000D01*
X127083816Y-89700000D01*
X127248228Y-89732703D01*
X127248228Y-89732703D01*
G37*
G36*
X162364823Y-88950313D02*
G01*
X162525242Y-88998976D01*
X162657906Y-89069886D01*
X162673078Y-89077996D01*
X162802659Y-89184341D01*
X162909004Y-89313922D01*
X162909005Y-89313924D01*
X162988024Y-89461758D01*
X163036687Y-89622177D01*
X163053117Y-89789000D01*
X163036687Y-89955823D01*
X162988024Y-90116242D01*
X162934888Y-90215652D01*
X162909004Y-90264078D01*
X162802659Y-90393659D01*
X162673078Y-90500004D01*
X162673076Y-90500005D01*
X162525242Y-90579024D01*
X162364823Y-90627687D01*
X162239804Y-90640000D01*
X161356196Y-90640000D01*
X161231177Y-90627687D01*
X161070758Y-90579024D01*
X160922924Y-90500005D01*
X160922922Y-90500004D01*
X160793341Y-90393659D01*
X160686996Y-90264078D01*
X160661112Y-90215652D01*
X160607976Y-90116242D01*
X160559313Y-89955823D01*
X160542883Y-89789000D01*
X160559313Y-89622177D01*
X160607976Y-89461758D01*
X160686995Y-89313924D01*
X160686996Y-89313922D01*
X160793341Y-89184341D01*
X160922922Y-89077996D01*
X160938094Y-89069886D01*
X161070758Y-88998976D01*
X161231177Y-88950313D01*
X161356196Y-88938000D01*
X162239804Y-88938000D01*
X162364823Y-88950313D01*
X162364823Y-88950313D01*
G37*
G36*
X154744823Y-88950313D02*
G01*
X154905242Y-88998976D01*
X155037906Y-89069886D01*
X155053078Y-89077996D01*
X155182659Y-89184341D01*
X155289004Y-89313922D01*
X155289005Y-89313924D01*
X155368024Y-89461758D01*
X155416687Y-89622177D01*
X155433117Y-89789000D01*
X155416687Y-89955823D01*
X155368024Y-90116242D01*
X155314888Y-90215652D01*
X155289004Y-90264078D01*
X155182659Y-90393659D01*
X155053078Y-90500004D01*
X155053076Y-90500005D01*
X154905242Y-90579024D01*
X154744823Y-90627687D01*
X154619804Y-90640000D01*
X153736196Y-90640000D01*
X153611177Y-90627687D01*
X153450758Y-90579024D01*
X153302924Y-90500005D01*
X153302922Y-90500004D01*
X153173341Y-90393659D01*
X153066996Y-90264078D01*
X153041112Y-90215652D01*
X152987976Y-90116242D01*
X152939313Y-89955823D01*
X152922883Y-89789000D01*
X152939313Y-89622177D01*
X152987976Y-89461758D01*
X153066995Y-89313924D01*
X153066996Y-89313922D01*
X153173341Y-89184341D01*
X153302922Y-89077996D01*
X153318094Y-89069886D01*
X153450758Y-88998976D01*
X153611177Y-88950313D01*
X153736196Y-88938000D01*
X154619804Y-88938000D01*
X154744823Y-88950313D01*
X154744823Y-88950313D01*
G37*
G36*
X140851000Y-90405000D02*
G01*
X138549000Y-90405000D01*
X138549000Y-88103000D01*
X140851000Y-88103000D01*
X140851000Y-90405000D01*
X140851000Y-90405000D01*
G37*
G36*
X150029271Y-88114103D02*
G01*
X150085635Y-88119654D01*
X150302600Y-88185470D01*
X150302602Y-88185471D01*
X150502555Y-88292347D01*
X150677818Y-88436182D01*
X150821653Y-88611445D01*
X150928529Y-88811398D01*
X150928530Y-88811400D01*
X150994346Y-89028365D01*
X151016569Y-89254000D01*
X150994346Y-89479635D01*
X150951107Y-89622175D01*
X150928529Y-89696602D01*
X150821653Y-89896555D01*
X150677818Y-90071818D01*
X150502555Y-90215653D01*
X150339567Y-90302771D01*
X150302600Y-90322530D01*
X150085635Y-90388346D01*
X150031691Y-90393659D01*
X149916545Y-90405000D01*
X149803455Y-90405000D01*
X149688309Y-90393659D01*
X149634365Y-90388346D01*
X149417400Y-90322530D01*
X149380433Y-90302771D01*
X149217445Y-90215653D01*
X149042182Y-90071818D01*
X148898347Y-89896555D01*
X148791471Y-89696602D01*
X148768894Y-89622175D01*
X148725654Y-89479635D01*
X148703431Y-89254000D01*
X148725654Y-89028365D01*
X148791470Y-88811400D01*
X148791471Y-88811398D01*
X148898347Y-88611445D01*
X149042182Y-88436182D01*
X149217445Y-88292347D01*
X149417398Y-88185471D01*
X149417400Y-88185470D01*
X149634365Y-88119654D01*
X149690729Y-88114103D01*
X149803455Y-88103000D01*
X149916545Y-88103000D01*
X150029271Y-88114103D01*
X150029271Y-88114103D01*
G37*
G36*
X162364823Y-86410313D02*
G01*
X162525242Y-86458976D01*
X162657906Y-86529886D01*
X162673078Y-86537996D01*
X162802659Y-86644341D01*
X162909004Y-86773922D01*
X162909005Y-86773924D01*
X162988024Y-86921758D01*
X163036687Y-87082177D01*
X163053117Y-87249000D01*
X163036687Y-87415823D01*
X162988024Y-87576242D01*
X162917114Y-87708906D01*
X162909004Y-87724078D01*
X162802659Y-87853659D01*
X162673078Y-87960004D01*
X162673076Y-87960005D01*
X162525242Y-88039024D01*
X162364823Y-88087687D01*
X162239804Y-88100000D01*
X161356196Y-88100000D01*
X161231177Y-88087687D01*
X161070758Y-88039024D01*
X160922924Y-87960005D01*
X160922922Y-87960004D01*
X160793341Y-87853659D01*
X160686996Y-87724078D01*
X160678886Y-87708906D01*
X160607976Y-87576242D01*
X160559313Y-87415823D01*
X160542883Y-87249000D01*
X160559313Y-87082177D01*
X160607976Y-86921758D01*
X160686995Y-86773924D01*
X160686996Y-86773922D01*
X160793341Y-86644341D01*
X160922922Y-86537996D01*
X160938094Y-86529886D01*
X161070758Y-86458976D01*
X161231177Y-86410313D01*
X161356196Y-86398000D01*
X162239804Y-86398000D01*
X162364823Y-86410313D01*
X162364823Y-86410313D01*
G37*
G36*
X154744823Y-86410313D02*
G01*
X154905242Y-86458976D01*
X155037906Y-86529886D01*
X155053078Y-86537996D01*
X155182659Y-86644341D01*
X155289004Y-86773922D01*
X155289005Y-86773924D01*
X155368024Y-86921758D01*
X155416687Y-87082177D01*
X155433117Y-87249000D01*
X155416687Y-87415823D01*
X155368024Y-87576242D01*
X155297114Y-87708906D01*
X155289004Y-87724078D01*
X155182659Y-87853659D01*
X155053078Y-87960004D01*
X155053076Y-87960005D01*
X154905242Y-88039024D01*
X154744823Y-88087687D01*
X154619804Y-88100000D01*
X153736196Y-88100000D01*
X153611177Y-88087687D01*
X153450758Y-88039024D01*
X153302924Y-87960005D01*
X153302922Y-87960004D01*
X153173341Y-87853659D01*
X153066996Y-87724078D01*
X153058886Y-87708906D01*
X152987976Y-87576242D01*
X152939313Y-87415823D01*
X152922883Y-87249000D01*
X152939313Y-87082177D01*
X152987976Y-86921758D01*
X153066995Y-86773924D01*
X153066996Y-86773922D01*
X153173341Y-86644341D01*
X153302922Y-86537996D01*
X153318094Y-86529886D01*
X153450758Y-86458976D01*
X153611177Y-86410313D01*
X153736196Y-86398000D01*
X154619804Y-86398000D01*
X154744823Y-86410313D01*
X154744823Y-86410313D01*
G37*
G36*
X136664000Y-86245000D02*
G01*
X134862000Y-86245000D01*
X134862000Y-84443000D01*
X136664000Y-84443000D01*
X136664000Y-86245000D01*
X136664000Y-86245000D01*
G37*
G36*
X154744823Y-83870313D02*
G01*
X154905242Y-83918976D01*
X155037906Y-83989886D01*
X155053078Y-83997996D01*
X155182659Y-84104341D01*
X155289004Y-84233922D01*
X155289005Y-84233924D01*
X155368024Y-84381758D01*
X155416687Y-84542177D01*
X155433117Y-84709000D01*
X155416687Y-84875823D01*
X155368024Y-85036242D01*
X155297114Y-85168906D01*
X155289004Y-85184078D01*
X155182659Y-85313659D01*
X155053078Y-85420004D01*
X155053076Y-85420005D01*
X154905242Y-85499024D01*
X154744823Y-85547687D01*
X154619804Y-85560000D01*
X153736196Y-85560000D01*
X153611177Y-85547687D01*
X153450758Y-85499024D01*
X153302924Y-85420005D01*
X153302922Y-85420004D01*
X153173341Y-85313659D01*
X153066996Y-85184078D01*
X153058886Y-85168906D01*
X152987976Y-85036242D01*
X152939313Y-84875823D01*
X152922883Y-84709000D01*
X152939313Y-84542177D01*
X152987976Y-84381758D01*
X153066995Y-84233924D01*
X153066996Y-84233922D01*
X153173341Y-84104341D01*
X153302922Y-83997996D01*
X153318094Y-83989886D01*
X153450758Y-83918976D01*
X153611177Y-83870313D01*
X153736196Y-83858000D01*
X154619804Y-83858000D01*
X154744823Y-83870313D01*
X154744823Y-83870313D01*
G37*
G36*
X162364823Y-83870313D02*
G01*
X162525242Y-83918976D01*
X162657906Y-83989886D01*
X162673078Y-83997996D01*
X162802659Y-84104341D01*
X162909004Y-84233922D01*
X162909005Y-84233924D01*
X162988024Y-84381758D01*
X163036687Y-84542177D01*
X163053117Y-84709000D01*
X163036687Y-84875823D01*
X162988024Y-85036242D01*
X162917114Y-85168906D01*
X162909004Y-85184078D01*
X162802659Y-85313659D01*
X162673078Y-85420004D01*
X162673076Y-85420005D01*
X162525242Y-85499024D01*
X162364823Y-85547687D01*
X162239804Y-85560000D01*
X161356196Y-85560000D01*
X161231177Y-85547687D01*
X161070758Y-85499024D01*
X160922924Y-85420005D01*
X160922922Y-85420004D01*
X160793341Y-85313659D01*
X160686996Y-85184078D01*
X160678886Y-85168906D01*
X160607976Y-85036242D01*
X160559313Y-84875823D01*
X160542883Y-84709000D01*
X160559313Y-84542177D01*
X160607976Y-84381758D01*
X160686995Y-84233924D01*
X160686996Y-84233922D01*
X160793341Y-84104341D01*
X160922922Y-83997996D01*
X160938094Y-83989886D01*
X161070758Y-83918976D01*
X161231177Y-83870313D01*
X161356196Y-83858000D01*
X162239804Y-83858000D01*
X162364823Y-83870313D01*
X162364823Y-83870313D01*
G37*
G36*
X142107228Y-83725703D02*
G01*
X142262100Y-83789853D01*
X142401481Y-83882985D01*
X142520015Y-84001519D01*
X142613147Y-84140900D01*
X142677297Y-84295772D01*
X142710000Y-84460184D01*
X142710000Y-84627816D01*
X142677297Y-84792228D01*
X142613147Y-84947100D01*
X142520015Y-85086481D01*
X142401481Y-85205015D01*
X142262100Y-85298147D01*
X142107228Y-85362297D01*
X141942816Y-85395000D01*
X141775184Y-85395000D01*
X141610772Y-85362297D01*
X141455900Y-85298147D01*
X141316519Y-85205015D01*
X141197985Y-85086481D01*
X141104853Y-84947100D01*
X141040703Y-84792228D01*
X141008000Y-84627816D01*
X141008000Y-84460184D01*
X141040703Y-84295772D01*
X141104853Y-84140900D01*
X141197985Y-84001519D01*
X141316519Y-83882985D01*
X141455900Y-83789853D01*
X141610772Y-83725703D01*
X141775184Y-83693000D01*
X141942816Y-83693000D01*
X142107228Y-83725703D01*
X142107228Y-83725703D01*
G37*
G36*
X148457228Y-83725703D02*
G01*
X148612100Y-83789853D01*
X148751481Y-83882985D01*
X148870015Y-84001519D01*
X148963147Y-84140900D01*
X149027297Y-84295772D01*
X149060000Y-84460184D01*
X149060000Y-84627816D01*
X149027297Y-84792228D01*
X148963147Y-84947100D01*
X148870015Y-85086481D01*
X148751481Y-85205015D01*
X148612100Y-85298147D01*
X148457228Y-85362297D01*
X148292816Y-85395000D01*
X148125184Y-85395000D01*
X147960772Y-85362297D01*
X147805900Y-85298147D01*
X147666519Y-85205015D01*
X147547985Y-85086481D01*
X147454853Y-84947100D01*
X147390703Y-84792228D01*
X147358000Y-84627816D01*
X147358000Y-84460184D01*
X147390703Y-84295772D01*
X147454853Y-84140900D01*
X147547985Y-84001519D01*
X147666519Y-83882985D01*
X147805900Y-83789853D01*
X147960772Y-83725703D01*
X148125184Y-83693000D01*
X148292816Y-83693000D01*
X148457228Y-83725703D01*
X148457228Y-83725703D01*
G37*
G36*
X135873442Y-81909518D02*
G01*
X135939627Y-81916037D01*
X136109466Y-81967557D01*
X136265991Y-82051222D01*
X136301729Y-82080552D01*
X136403186Y-82163814D01*
X136486448Y-82265271D01*
X136515778Y-82301009D01*
X136599443Y-82457534D01*
X136650963Y-82627373D01*
X136668359Y-82804000D01*
X136650963Y-82980627D01*
X136599443Y-83150466D01*
X136515778Y-83306991D01*
X136486448Y-83342729D01*
X136403186Y-83444186D01*
X136301729Y-83527448D01*
X136265991Y-83556778D01*
X136109466Y-83640443D01*
X135939627Y-83691963D01*
X135873442Y-83698482D01*
X135807260Y-83705000D01*
X135718740Y-83705000D01*
X135652558Y-83698482D01*
X135586373Y-83691963D01*
X135416534Y-83640443D01*
X135260009Y-83556778D01*
X135224271Y-83527448D01*
X135122814Y-83444186D01*
X135039552Y-83342729D01*
X135010222Y-83306991D01*
X134926557Y-83150466D01*
X134875037Y-82980627D01*
X134857641Y-82804000D01*
X134875037Y-82627373D01*
X134926557Y-82457534D01*
X135010222Y-82301009D01*
X135039552Y-82265271D01*
X135122814Y-82163814D01*
X135224271Y-82080552D01*
X135260009Y-82051222D01*
X135416534Y-81967557D01*
X135586373Y-81916037D01*
X135652558Y-81909518D01*
X135718740Y-81903000D01*
X135807260Y-81903000D01*
X135873442Y-81909518D01*
X135873442Y-81909518D01*
G37*
G36*
X155429000Y-83020000D02*
G01*
X152927000Y-83020000D01*
X152927000Y-81318000D01*
X155429000Y-81318000D01*
X155429000Y-83020000D01*
X155429000Y-83020000D01*
G37*
G36*
X162364823Y-81330313D02*
G01*
X162525242Y-81378976D01*
X162657906Y-81449886D01*
X162673078Y-81457996D01*
X162802659Y-81564341D01*
X162909004Y-81693922D01*
X162909005Y-81693924D01*
X162988024Y-81841758D01*
X163036687Y-82002177D01*
X163053117Y-82169000D01*
X163036687Y-82335823D01*
X162988024Y-82496242D01*
X162939791Y-82586480D01*
X162909004Y-82644078D01*
X162802659Y-82773659D01*
X162673078Y-82880004D01*
X162673076Y-82880005D01*
X162525242Y-82959024D01*
X162364823Y-83007687D01*
X162239804Y-83020000D01*
X161356196Y-83020000D01*
X161231177Y-83007687D01*
X161070758Y-82959024D01*
X160922924Y-82880005D01*
X160922922Y-82880004D01*
X160793341Y-82773659D01*
X160686996Y-82644078D01*
X160656209Y-82586480D01*
X160607976Y-82496242D01*
X160559313Y-82335823D01*
X160542883Y-82169000D01*
X160559313Y-82002177D01*
X160607976Y-81841758D01*
X160686995Y-81693924D01*
X160686996Y-81693922D01*
X160793341Y-81564341D01*
X160922922Y-81457996D01*
X160938094Y-81449886D01*
X161070758Y-81378976D01*
X161231177Y-81330313D01*
X161356196Y-81318000D01*
X162239804Y-81318000D01*
X162364823Y-81330313D01*
X162364823Y-81330313D01*
G37*
G36*
X148457228Y-81225703D02*
G01*
X148612100Y-81289853D01*
X148751481Y-81382985D01*
X148870015Y-81501519D01*
X148963147Y-81640900D01*
X149027297Y-81795772D01*
X149060000Y-81960184D01*
X149060000Y-82127816D01*
X149027297Y-82292228D01*
X148963147Y-82447100D01*
X148870015Y-82586481D01*
X148751481Y-82705015D01*
X148612100Y-82798147D01*
X148457228Y-82862297D01*
X148292816Y-82895000D01*
X148125184Y-82895000D01*
X147960772Y-82862297D01*
X147805900Y-82798147D01*
X147666519Y-82705015D01*
X147547985Y-82586481D01*
X147454853Y-82447100D01*
X147390703Y-82292228D01*
X147358000Y-82127816D01*
X147358000Y-81960184D01*
X147390703Y-81795772D01*
X147454853Y-81640900D01*
X147547985Y-81501519D01*
X147666519Y-81382985D01*
X147805900Y-81289853D01*
X147960772Y-81225703D01*
X148125184Y-81193000D01*
X148292816Y-81193000D01*
X148457228Y-81225703D01*
X148457228Y-81225703D01*
G37*
G36*
X142107228Y-81225703D02*
G01*
X142262100Y-81289853D01*
X142401481Y-81382985D01*
X142520015Y-81501519D01*
X142613147Y-81640900D01*
X142677297Y-81795772D01*
X142710000Y-81960184D01*
X142710000Y-82127816D01*
X142677297Y-82292228D01*
X142613147Y-82447100D01*
X142520015Y-82586481D01*
X142401481Y-82705015D01*
X142262100Y-82798147D01*
X142107228Y-82862297D01*
X141942816Y-82895000D01*
X141775184Y-82895000D01*
X141610772Y-82862297D01*
X141455900Y-82798147D01*
X141316519Y-82705015D01*
X141197985Y-82586481D01*
X141104853Y-82447100D01*
X141040703Y-82292228D01*
X141008000Y-82127816D01*
X141008000Y-81960184D01*
X141040703Y-81795772D01*
X141104853Y-81640900D01*
X141197985Y-81501519D01*
X141316519Y-81382985D01*
X141455900Y-81289853D01*
X141610772Y-81225703D01*
X141775184Y-81193000D01*
X141942816Y-81193000D01*
X142107228Y-81225703D01*
X142107228Y-81225703D01*
G37*
M02*
