G04 #@! TF.GenerationSoftware,KiCad,Pcbnew,(5.1.4)-1*
G04 #@! TF.CreationDate,2022-04-26T14:24:58-06:00*
G04 #@! TF.ProjectId,UselessBox V2,5573656c-6573-4734-926f-782056322e6b,2*
G04 #@! TF.SameCoordinates,Original*
G04 #@! TF.FileFunction,Legend,Top*
G04 #@! TF.FilePolarity,Positive*
%FSLAX46Y46*%
G04 Gerber Fmt 4.6, Leading zero omitted, Abs format (unit mm)*
G04 Created by KiCad (PCBNEW (5.1.4)-1) date 2022-04-26 14:24:58*
%MOMM*%
%LPD*%
G04 APERTURE LIST*
%ADD10C,0.150000*%
%ADD11C,0.120000*%
G04 APERTURE END LIST*
D10*
X131328000Y-123769380D02*
X131328000Y-122769380D01*
X131756571Y-123769380D02*
X131756571Y-123245571D01*
X131708952Y-123150333D01*
X131613714Y-123102714D01*
X131470857Y-123102714D01*
X131375619Y-123150333D01*
X131328000Y-123197952D01*
X132089904Y-123102714D02*
X132470857Y-123102714D01*
X132232761Y-122769380D02*
X132232761Y-123626523D01*
X132280380Y-123721761D01*
X132375619Y-123769380D01*
X132470857Y-123769380D01*
X132661333Y-123102714D02*
X133042285Y-123102714D01*
X132804190Y-122769380D02*
X132804190Y-123626523D01*
X132851809Y-123721761D01*
X132947047Y-123769380D01*
X133042285Y-123769380D01*
X133375619Y-123102714D02*
X133375619Y-124102714D01*
X133375619Y-123150333D02*
X133470857Y-123102714D01*
X133661333Y-123102714D01*
X133756571Y-123150333D01*
X133804190Y-123197952D01*
X133851809Y-123293190D01*
X133851809Y-123578904D01*
X133804190Y-123674142D01*
X133756571Y-123721761D01*
X133661333Y-123769380D01*
X133470857Y-123769380D01*
X133375619Y-123721761D01*
X134232761Y-123721761D02*
X134328000Y-123769380D01*
X134518476Y-123769380D01*
X134613714Y-123721761D01*
X134661333Y-123626523D01*
X134661333Y-123578904D01*
X134613714Y-123483666D01*
X134518476Y-123436047D01*
X134375619Y-123436047D01*
X134280380Y-123388428D01*
X134232761Y-123293190D01*
X134232761Y-123245571D01*
X134280380Y-123150333D01*
X134375619Y-123102714D01*
X134518476Y-123102714D01*
X134613714Y-123150333D01*
X135089904Y-123674142D02*
X135137523Y-123721761D01*
X135089904Y-123769380D01*
X135042285Y-123721761D01*
X135089904Y-123674142D01*
X135089904Y-123769380D01*
X135089904Y-123150333D02*
X135137523Y-123197952D01*
X135089904Y-123245571D01*
X135042285Y-123197952D01*
X135089904Y-123150333D01*
X135089904Y-123245571D01*
X136280380Y-122721761D02*
X135423238Y-124007476D01*
X137328000Y-122721761D02*
X136470857Y-124007476D01*
X138089904Y-123102714D02*
X138089904Y-123912238D01*
X138042285Y-124007476D01*
X137994666Y-124055095D01*
X137899428Y-124102714D01*
X137756571Y-124102714D01*
X137661333Y-124055095D01*
X138089904Y-123721761D02*
X137994666Y-123769380D01*
X137804190Y-123769380D01*
X137708952Y-123721761D01*
X137661333Y-123674142D01*
X137613714Y-123578904D01*
X137613714Y-123293190D01*
X137661333Y-123197952D01*
X137708952Y-123150333D01*
X137804190Y-123102714D01*
X137994666Y-123102714D01*
X138089904Y-123150333D01*
X138566095Y-123769380D02*
X138566095Y-123102714D01*
X138566095Y-122769380D02*
X138518476Y-122817000D01*
X138566095Y-122864619D01*
X138613714Y-122817000D01*
X138566095Y-122769380D01*
X138566095Y-122864619D01*
X138899428Y-123102714D02*
X139280380Y-123102714D01*
X139042285Y-122769380D02*
X139042285Y-123626523D01*
X139089904Y-123721761D01*
X139185142Y-123769380D01*
X139280380Y-123769380D01*
X139613714Y-123769380D02*
X139613714Y-122769380D01*
X140042285Y-123769380D02*
X140042285Y-123245571D01*
X139994666Y-123150333D01*
X139899428Y-123102714D01*
X139756571Y-123102714D01*
X139661333Y-123150333D01*
X139613714Y-123197952D01*
X140947047Y-123102714D02*
X140947047Y-123769380D01*
X140518476Y-123102714D02*
X140518476Y-123626523D01*
X140566095Y-123721761D01*
X140661333Y-123769380D01*
X140804190Y-123769380D01*
X140899428Y-123721761D01*
X140947047Y-123674142D01*
X141423238Y-123769380D02*
X141423238Y-122769380D01*
X141423238Y-123150333D02*
X141518476Y-123102714D01*
X141708952Y-123102714D01*
X141804190Y-123150333D01*
X141851809Y-123197952D01*
X141899428Y-123293190D01*
X141899428Y-123578904D01*
X141851809Y-123674142D01*
X141804190Y-123721761D01*
X141708952Y-123769380D01*
X141518476Y-123769380D01*
X141423238Y-123721761D01*
X142328000Y-123674142D02*
X142375619Y-123721761D01*
X142328000Y-123769380D01*
X142280380Y-123721761D01*
X142328000Y-123674142D01*
X142328000Y-123769380D01*
X143232761Y-123721761D02*
X143137523Y-123769380D01*
X142947047Y-123769380D01*
X142851809Y-123721761D01*
X142804190Y-123674142D01*
X142756571Y-123578904D01*
X142756571Y-123293190D01*
X142804190Y-123197952D01*
X142851809Y-123150333D01*
X142947047Y-123102714D01*
X143137523Y-123102714D01*
X143232761Y-123150333D01*
X143804190Y-123769380D02*
X143708952Y-123721761D01*
X143661333Y-123674142D01*
X143613714Y-123578904D01*
X143613714Y-123293190D01*
X143661333Y-123197952D01*
X143708952Y-123150333D01*
X143804190Y-123102714D01*
X143947047Y-123102714D01*
X144042285Y-123150333D01*
X144089904Y-123197952D01*
X144137523Y-123293190D01*
X144137523Y-123578904D01*
X144089904Y-123674142D01*
X144042285Y-123721761D01*
X143947047Y-123769380D01*
X143804190Y-123769380D01*
X144566095Y-123769380D02*
X144566095Y-123102714D01*
X144566095Y-123197952D02*
X144613714Y-123150333D01*
X144708952Y-123102714D01*
X144851809Y-123102714D01*
X144947047Y-123150333D01*
X144994666Y-123245571D01*
X144994666Y-123769380D01*
X144994666Y-123245571D02*
X145042285Y-123150333D01*
X145137523Y-123102714D01*
X145280380Y-123102714D01*
X145375619Y-123150333D01*
X145423238Y-123245571D01*
X145423238Y-123769380D01*
X146613714Y-122721761D02*
X145756571Y-124007476D01*
X147089904Y-123769380D02*
X146994666Y-123721761D01*
X146947047Y-123626523D01*
X146947047Y-122769380D01*
X147851809Y-123721761D02*
X147756571Y-123769380D01*
X147566095Y-123769380D01*
X147470857Y-123721761D01*
X147423238Y-123626523D01*
X147423238Y-123245571D01*
X147470857Y-123150333D01*
X147566095Y-123102714D01*
X147756571Y-123102714D01*
X147851809Y-123150333D01*
X147899428Y-123245571D01*
X147899428Y-123340809D01*
X147423238Y-123436047D01*
X148328000Y-123769380D02*
X148328000Y-123102714D01*
X148328000Y-122769380D02*
X148280380Y-122817000D01*
X148328000Y-122864619D01*
X148375619Y-122817000D01*
X148328000Y-122769380D01*
X148328000Y-122864619D01*
X148756571Y-123721761D02*
X148851809Y-123769380D01*
X149042285Y-123769380D01*
X149137523Y-123721761D01*
X149185142Y-123626523D01*
X149185142Y-123578904D01*
X149137523Y-123483666D01*
X149042285Y-123436047D01*
X148899428Y-123436047D01*
X148804190Y-123388428D01*
X148756571Y-123293190D01*
X148756571Y-123245571D01*
X148804190Y-123150333D01*
X148899428Y-123102714D01*
X149042285Y-123102714D01*
X149137523Y-123150333D01*
X149470857Y-123102714D02*
X149851809Y-123102714D01*
X149613714Y-122769380D02*
X149613714Y-123626523D01*
X149661333Y-123721761D01*
X149756571Y-123769380D01*
X149851809Y-123769380D01*
X150185142Y-123769380D02*
X150185142Y-123102714D01*
X150185142Y-122769380D02*
X150137523Y-122817000D01*
X150185142Y-122864619D01*
X150232761Y-122817000D01*
X150185142Y-122769380D01*
X150185142Y-122864619D01*
X150661333Y-123769380D02*
X150661333Y-123102714D01*
X150661333Y-123197952D02*
X150708952Y-123150333D01*
X150804190Y-123102714D01*
X150947047Y-123102714D01*
X151042285Y-123150333D01*
X151089904Y-123245571D01*
X151089904Y-123769380D01*
X151089904Y-123245571D02*
X151137523Y-123150333D01*
X151232761Y-123102714D01*
X151375619Y-123102714D01*
X151470857Y-123150333D01*
X151518476Y-123245571D01*
X151518476Y-123769380D01*
X152137523Y-123769380D02*
X152042285Y-123721761D01*
X151994666Y-123674142D01*
X151947047Y-123578904D01*
X151947047Y-123293190D01*
X151994666Y-123197952D01*
X152042285Y-123150333D01*
X152137523Y-123102714D01*
X152280380Y-123102714D01*
X152375619Y-123150333D01*
X152423238Y-123197952D01*
X152470857Y-123293190D01*
X152470857Y-123578904D01*
X152423238Y-123674142D01*
X152375619Y-123721761D01*
X152280380Y-123769380D01*
X152137523Y-123769380D01*
X153613714Y-122721761D02*
X152756571Y-124007476D01*
X153947047Y-122769380D02*
X153947047Y-123578904D01*
X153994666Y-123674142D01*
X154042285Y-123721761D01*
X154137523Y-123769380D01*
X154328000Y-123769380D01*
X154423238Y-123721761D01*
X154470857Y-123674142D01*
X154518476Y-123578904D01*
X154518476Y-122769380D01*
X154947047Y-123721761D02*
X155042285Y-123769380D01*
X155232761Y-123769380D01*
X155328000Y-123721761D01*
X155375619Y-123626523D01*
X155375619Y-123578904D01*
X155328000Y-123483666D01*
X155232761Y-123436047D01*
X155089904Y-123436047D01*
X154994666Y-123388428D01*
X154947047Y-123293190D01*
X154947047Y-123245571D01*
X154994666Y-123150333D01*
X155089904Y-123102714D01*
X155232761Y-123102714D01*
X155328000Y-123150333D01*
X156185142Y-123721761D02*
X156089904Y-123769380D01*
X155899428Y-123769380D01*
X155804190Y-123721761D01*
X155756571Y-123626523D01*
X155756571Y-123245571D01*
X155804190Y-123150333D01*
X155899428Y-123102714D01*
X156089904Y-123102714D01*
X156185142Y-123150333D01*
X156232761Y-123245571D01*
X156232761Y-123340809D01*
X155756571Y-123436047D01*
X156804190Y-123769380D02*
X156708952Y-123721761D01*
X156661333Y-123626523D01*
X156661333Y-122769380D01*
X157566095Y-123721761D02*
X157470857Y-123769380D01*
X157280380Y-123769380D01*
X157185142Y-123721761D01*
X157137523Y-123626523D01*
X157137523Y-123245571D01*
X157185142Y-123150333D01*
X157280380Y-123102714D01*
X157470857Y-123102714D01*
X157566095Y-123150333D01*
X157613714Y-123245571D01*
X157613714Y-123340809D01*
X157137523Y-123436047D01*
X157994666Y-123721761D02*
X158089904Y-123769380D01*
X158280380Y-123769380D01*
X158375619Y-123721761D01*
X158423238Y-123626523D01*
X158423238Y-123578904D01*
X158375619Y-123483666D01*
X158280380Y-123436047D01*
X158137523Y-123436047D01*
X158042285Y-123388428D01*
X157994666Y-123293190D01*
X157994666Y-123245571D01*
X158042285Y-123150333D01*
X158137523Y-123102714D01*
X158280380Y-123102714D01*
X158375619Y-123150333D01*
X158804190Y-123721761D02*
X158899428Y-123769380D01*
X159089904Y-123769380D01*
X159185142Y-123721761D01*
X159232761Y-123626523D01*
X159232761Y-123578904D01*
X159185142Y-123483666D01*
X159089904Y-123436047D01*
X158947047Y-123436047D01*
X158851809Y-123388428D01*
X158804190Y-123293190D01*
X158804190Y-123245571D01*
X158851809Y-123150333D01*
X158947047Y-123102714D01*
X159089904Y-123102714D01*
X159185142Y-123150333D01*
X159994666Y-123245571D02*
X160137523Y-123293190D01*
X160185142Y-123340809D01*
X160232761Y-123436047D01*
X160232761Y-123578904D01*
X160185142Y-123674142D01*
X160137523Y-123721761D01*
X160042285Y-123769380D01*
X159661333Y-123769380D01*
X159661333Y-122769380D01*
X159994666Y-122769380D01*
X160089904Y-122817000D01*
X160137523Y-122864619D01*
X160185142Y-122959857D01*
X160185142Y-123055095D01*
X160137523Y-123150333D01*
X160089904Y-123197952D01*
X159994666Y-123245571D01*
X159661333Y-123245571D01*
X160804190Y-123769380D02*
X160708952Y-123721761D01*
X160661333Y-123674142D01*
X160613714Y-123578904D01*
X160613714Y-123293190D01*
X160661333Y-123197952D01*
X160708952Y-123150333D01*
X160804190Y-123102714D01*
X160947047Y-123102714D01*
X161042285Y-123150333D01*
X161089904Y-123197952D01*
X161137523Y-123293190D01*
X161137523Y-123578904D01*
X161089904Y-123674142D01*
X161042285Y-123721761D01*
X160947047Y-123769380D01*
X160804190Y-123769380D01*
X161470857Y-123769380D02*
X161994666Y-123102714D01*
X161470857Y-123102714D02*
X161994666Y-123769380D01*
X162375619Y-123674142D02*
X162423238Y-123721761D01*
X162375619Y-123769380D01*
X162328000Y-123721761D01*
X162375619Y-123674142D01*
X162375619Y-123769380D01*
X163280380Y-123102714D02*
X163280380Y-123912238D01*
X163232761Y-124007476D01*
X163185142Y-124055095D01*
X163089904Y-124102714D01*
X162947047Y-124102714D01*
X162851809Y-124055095D01*
X163280380Y-123721761D02*
X163185142Y-123769380D01*
X162994666Y-123769380D01*
X162899428Y-123721761D01*
X162851809Y-123674142D01*
X162804190Y-123578904D01*
X162804190Y-123293190D01*
X162851809Y-123197952D01*
X162899428Y-123150333D01*
X162994666Y-123102714D01*
X163185142Y-123102714D01*
X163280380Y-123150333D01*
X163756571Y-123769380D02*
X163756571Y-123102714D01*
X163756571Y-122769380D02*
X163708952Y-122817000D01*
X163756571Y-122864619D01*
X163804190Y-122817000D01*
X163756571Y-122769380D01*
X163756571Y-122864619D01*
X164089904Y-123102714D02*
X164470857Y-123102714D01*
X164232761Y-122769380D02*
X164232761Y-123626523D01*
X164280380Y-123721761D01*
X164375619Y-123769380D01*
X164470857Y-123769380D01*
X168576761Y-111720380D02*
X168767238Y-111720380D01*
X168862476Y-111768000D01*
X168957714Y-111863238D01*
X169005333Y-112053714D01*
X169005333Y-112387047D01*
X168957714Y-112577523D01*
X168862476Y-112672761D01*
X168767238Y-112720380D01*
X168576761Y-112720380D01*
X168481523Y-112672761D01*
X168386285Y-112577523D01*
X168338666Y-112387047D01*
X168338666Y-112053714D01*
X168386285Y-111863238D01*
X168481523Y-111768000D01*
X168576761Y-111720380D01*
X170005333Y-112720380D02*
X169672000Y-112244190D01*
X169433904Y-112720380D02*
X169433904Y-111720380D01*
X169814857Y-111720380D01*
X169910095Y-111768000D01*
X169957714Y-111815619D01*
X170005333Y-111910857D01*
X170005333Y-112053714D01*
X169957714Y-112148952D01*
X169910095Y-112196571D01*
X169814857Y-112244190D01*
X169433904Y-112244190D01*
X170957714Y-111768000D02*
X170862476Y-111720380D01*
X170719619Y-111720380D01*
X170576761Y-111768000D01*
X170481523Y-111863238D01*
X170433904Y-111958476D01*
X170386285Y-112148952D01*
X170386285Y-112291809D01*
X170433904Y-112482285D01*
X170481523Y-112577523D01*
X170576761Y-112672761D01*
X170719619Y-112720380D01*
X170814857Y-112720380D01*
X170957714Y-112672761D01*
X171005333Y-112625142D01*
X171005333Y-112291809D01*
X170814857Y-112291809D01*
X168957714Y-110116880D02*
X168624381Y-109640690D01*
X168386286Y-110116880D02*
X168386286Y-109116880D01*
X168767238Y-109116880D01*
X168862476Y-109164500D01*
X168910095Y-109212119D01*
X168957714Y-109307357D01*
X168957714Y-109450214D01*
X168910095Y-109545452D01*
X168862476Y-109593071D01*
X168767238Y-109640690D01*
X168386286Y-109640690D01*
X169386286Y-109593071D02*
X169719619Y-109593071D01*
X169862476Y-110116880D02*
X169386286Y-110116880D01*
X169386286Y-109116880D01*
X169862476Y-109116880D01*
X170291048Y-110116880D02*
X170291048Y-109116880D01*
X170529143Y-109116880D01*
X170672000Y-109164500D01*
X170767238Y-109259738D01*
X170814857Y-109354976D01*
X170862476Y-109545452D01*
X170862476Y-109688309D01*
X170814857Y-109878785D01*
X170767238Y-109974023D01*
X170672000Y-110069261D01*
X170529143Y-110116880D01*
X170291048Y-110116880D01*
X168719619Y-106989571D02*
X168862476Y-107037190D01*
X168910095Y-107084809D01*
X168957714Y-107180047D01*
X168957714Y-107322904D01*
X168910095Y-107418142D01*
X168862476Y-107465761D01*
X168767238Y-107513380D01*
X168386285Y-107513380D01*
X168386285Y-106513380D01*
X168719619Y-106513380D01*
X168814857Y-106561000D01*
X168862476Y-106608619D01*
X168910095Y-106703857D01*
X168910095Y-106799095D01*
X168862476Y-106894333D01*
X168814857Y-106941952D01*
X168719619Y-106989571D01*
X168386285Y-106989571D01*
X169957714Y-107513380D02*
X169624380Y-107037190D01*
X169386285Y-107513380D02*
X169386285Y-106513380D01*
X169767238Y-106513380D01*
X169862476Y-106561000D01*
X169910095Y-106608619D01*
X169957714Y-106703857D01*
X169957714Y-106846714D01*
X169910095Y-106941952D01*
X169862476Y-106989571D01*
X169767238Y-107037190D01*
X169386285Y-107037190D01*
X170386285Y-107513380D02*
X170386285Y-106513380D01*
X170957714Y-107513380D01*
X170957714Y-106513380D01*
X132294380Y-85399571D02*
X132437238Y-85447190D01*
X132484857Y-85494809D01*
X132532476Y-85590047D01*
X132532476Y-85732904D01*
X132484857Y-85828142D01*
X132437238Y-85875761D01*
X132342000Y-85923380D01*
X131961047Y-85923380D01*
X131961047Y-84923380D01*
X132294380Y-84923380D01*
X132389619Y-84971000D01*
X132437238Y-85018619D01*
X132484857Y-85113857D01*
X132484857Y-85209095D01*
X132437238Y-85304333D01*
X132389619Y-85351952D01*
X132294380Y-85399571D01*
X131961047Y-85399571D01*
X132961047Y-85542428D02*
X133722952Y-85542428D01*
X132294380Y-82351571D02*
X132437238Y-82399190D01*
X132484857Y-82446809D01*
X132532476Y-82542047D01*
X132532476Y-82684904D01*
X132484857Y-82780142D01*
X132437238Y-82827761D01*
X132342000Y-82875380D01*
X131961047Y-82875380D01*
X131961047Y-81875380D01*
X132294380Y-81875380D01*
X132389619Y-81923000D01*
X132437238Y-81970619D01*
X132484857Y-82065857D01*
X132484857Y-82161095D01*
X132437238Y-82256333D01*
X132389619Y-82303952D01*
X132294380Y-82351571D01*
X131961047Y-82351571D01*
X132961047Y-82494428D02*
X133722952Y-82494428D01*
X133342000Y-82875380D02*
X133342000Y-82113476D01*
D11*
X140489000Y-85414000D02*
X140489000Y-81174000D01*
X143229000Y-85414000D02*
X143229000Y-81174000D01*
X140489000Y-85414000D02*
X141194000Y-85414000D01*
X142524000Y-85414000D02*
X143229000Y-85414000D01*
X140489000Y-81174000D02*
X141194000Y-81174000D01*
X142524000Y-81174000D02*
X143229000Y-81174000D01*
X137093000Y-86674000D02*
X135763000Y-86674000D01*
X137093000Y-85344000D02*
X137093000Y-86674000D01*
X137093000Y-84074000D02*
X134433000Y-84074000D01*
X134433000Y-84074000D02*
X134433000Y-81474000D01*
X137093000Y-84074000D02*
X137093000Y-81474000D01*
X137093000Y-81474000D02*
X134433000Y-81474000D01*
X153960677Y-119694000D02*
X153960677Y-118364000D01*
X155290677Y-119694000D02*
X153960677Y-119694000D01*
X156560677Y-119694000D02*
X156560677Y-117034000D01*
X156560677Y-117034000D02*
X161700677Y-117034000D01*
X156560677Y-119694000D02*
X161700677Y-119694000D01*
X161700677Y-119694000D02*
X161700677Y-117034000D01*
X142840000Y-111587000D02*
X142840000Y-114527000D01*
X143080000Y-111587000D02*
X143080000Y-114527000D01*
X142960000Y-111587000D02*
X142960000Y-114527000D01*
X148520000Y-113057000D02*
X147500000Y-113057000D01*
X141040000Y-113057000D02*
X142060000Y-113057000D01*
X147500000Y-111587000D02*
X142060000Y-111587000D01*
X147500000Y-114527000D02*
X147500000Y-111587000D01*
X142060000Y-114527000D02*
X147500000Y-114527000D01*
X142060000Y-111587000D02*
X142060000Y-114527000D01*
X142840000Y-105636250D02*
X142840000Y-108576250D01*
X143080000Y-105636250D02*
X143080000Y-108576250D01*
X142960000Y-105636250D02*
X142960000Y-108576250D01*
X148520000Y-107106250D02*
X147500000Y-107106250D01*
X141040000Y-107106250D02*
X142060000Y-107106250D01*
X147500000Y-105636250D02*
X142060000Y-105636250D01*
X147500000Y-108576250D02*
X147500000Y-105636250D01*
X142060000Y-108576250D02*
X147500000Y-108576250D01*
X142060000Y-105636250D02*
X142060000Y-108576250D01*
X142840000Y-99685500D02*
X142840000Y-102625500D01*
X143080000Y-99685500D02*
X143080000Y-102625500D01*
X142960000Y-99685500D02*
X142960000Y-102625500D01*
X148520000Y-101155500D02*
X147500000Y-101155500D01*
X141040000Y-101155500D02*
X142060000Y-101155500D01*
X147500000Y-99685500D02*
X142060000Y-99685500D01*
X147500000Y-102625500D02*
X147500000Y-99685500D01*
X142060000Y-102625500D02*
X147500000Y-102625500D01*
X142060000Y-99685500D02*
X142060000Y-102625500D01*
X142840000Y-93734750D02*
X142840000Y-96674750D01*
X143080000Y-93734750D02*
X143080000Y-96674750D01*
X142960000Y-93734750D02*
X142960000Y-96674750D01*
X148520000Y-95204750D02*
X147500000Y-95204750D01*
X141040000Y-95204750D02*
X142060000Y-95204750D01*
X147500000Y-93734750D02*
X142060000Y-93734750D01*
X147500000Y-96674750D02*
X147500000Y-93734750D01*
X142060000Y-96674750D02*
X147500000Y-96674750D01*
X142060000Y-93734750D02*
X142060000Y-96674750D01*
X142840000Y-87784000D02*
X142840000Y-90724000D01*
X143080000Y-87784000D02*
X143080000Y-90724000D01*
X142960000Y-87784000D02*
X142960000Y-90724000D01*
X148520000Y-89254000D02*
X147500000Y-89254000D01*
X141040000Y-89254000D02*
X142060000Y-89254000D01*
X147500000Y-87784000D02*
X142060000Y-87784000D01*
X147500000Y-90724000D02*
X147500000Y-87784000D01*
X142060000Y-90724000D02*
X147500000Y-90724000D01*
X142060000Y-87784000D02*
X142060000Y-90724000D01*
X163275000Y-99187000D02*
G75*
G03X163275000Y-99187000I-5120000J0D01*
G01*
X158155000Y-104267000D02*
X158155000Y-94107000D01*
X158115000Y-104267000D02*
X158115000Y-94107000D01*
X158075000Y-104267000D02*
X158075000Y-94107000D01*
X158035000Y-104266000D02*
X158035000Y-94108000D01*
X157995000Y-104265000D02*
X157995000Y-94109000D01*
X157955000Y-104264000D02*
X157955000Y-94110000D01*
X157915000Y-104262000D02*
X157915000Y-94112000D01*
X157875000Y-104260000D02*
X157875000Y-94114000D01*
X157835000Y-104257000D02*
X157835000Y-94117000D01*
X157795000Y-104255000D02*
X157795000Y-94119000D01*
X157755000Y-104252000D02*
X157755000Y-94122000D01*
X157715000Y-104249000D02*
X157715000Y-94125000D01*
X157675000Y-104245000D02*
X157675000Y-94129000D01*
X157635000Y-104241000D02*
X157635000Y-94133000D01*
X157595000Y-104237000D02*
X157595000Y-94137000D01*
X157555000Y-104232000D02*
X157555000Y-94142000D01*
X157515000Y-104227000D02*
X157515000Y-94147000D01*
X157475000Y-104222000D02*
X157475000Y-94152000D01*
X157434000Y-104217000D02*
X157434000Y-94157000D01*
X157394000Y-104211000D02*
X157394000Y-94163000D01*
X157354000Y-104205000D02*
X157354000Y-94169000D01*
X157314000Y-104198000D02*
X157314000Y-94176000D01*
X157274000Y-104191000D02*
X157274000Y-94183000D01*
X157234000Y-104184000D02*
X157234000Y-94190000D01*
X157194000Y-104177000D02*
X157194000Y-94197000D01*
X157154000Y-104169000D02*
X157154000Y-94205000D01*
X157114000Y-104161000D02*
X157114000Y-94213000D01*
X157074000Y-104152000D02*
X157074000Y-94222000D01*
X157034000Y-104143000D02*
X157034000Y-94231000D01*
X156994000Y-104134000D02*
X156994000Y-94240000D01*
X156954000Y-104125000D02*
X156954000Y-94249000D01*
X156914000Y-104115000D02*
X156914000Y-94259000D01*
X156874000Y-104105000D02*
X156874000Y-100428000D01*
X156874000Y-97946000D02*
X156874000Y-94269000D01*
X156834000Y-104094000D02*
X156834000Y-100428000D01*
X156834000Y-97946000D02*
X156834000Y-94280000D01*
X156794000Y-104084000D02*
X156794000Y-100428000D01*
X156794000Y-97946000D02*
X156794000Y-94290000D01*
X156754000Y-104072000D02*
X156754000Y-100428000D01*
X156754000Y-97946000D02*
X156754000Y-94302000D01*
X156714000Y-104061000D02*
X156714000Y-100428000D01*
X156714000Y-97946000D02*
X156714000Y-94313000D01*
X156674000Y-104049000D02*
X156674000Y-100428000D01*
X156674000Y-97946000D02*
X156674000Y-94325000D01*
X156634000Y-104037000D02*
X156634000Y-100428000D01*
X156634000Y-97946000D02*
X156634000Y-94337000D01*
X156594000Y-104024000D02*
X156594000Y-100428000D01*
X156594000Y-97946000D02*
X156594000Y-94350000D01*
X156554000Y-104011000D02*
X156554000Y-100428000D01*
X156554000Y-97946000D02*
X156554000Y-94363000D01*
X156514000Y-103998000D02*
X156514000Y-100428000D01*
X156514000Y-97946000D02*
X156514000Y-94376000D01*
X156474000Y-103984000D02*
X156474000Y-100428000D01*
X156474000Y-97946000D02*
X156474000Y-94390000D01*
X156434000Y-103970000D02*
X156434000Y-100428000D01*
X156434000Y-97946000D02*
X156434000Y-94404000D01*
X156394000Y-103955000D02*
X156394000Y-100428000D01*
X156394000Y-97946000D02*
X156394000Y-94419000D01*
X156354000Y-103941000D02*
X156354000Y-100428000D01*
X156354000Y-97946000D02*
X156354000Y-94433000D01*
X156314000Y-103925000D02*
X156314000Y-100428000D01*
X156314000Y-97946000D02*
X156314000Y-94449000D01*
X156274000Y-103910000D02*
X156274000Y-100428000D01*
X156274000Y-97946000D02*
X156274000Y-94464000D01*
X156234000Y-103894000D02*
X156234000Y-100428000D01*
X156234000Y-97946000D02*
X156234000Y-94480000D01*
X156194000Y-103877000D02*
X156194000Y-100428000D01*
X156194000Y-97946000D02*
X156194000Y-94497000D01*
X156154000Y-103861000D02*
X156154000Y-100428000D01*
X156154000Y-97946000D02*
X156154000Y-94513000D01*
X156114000Y-103844000D02*
X156114000Y-100428000D01*
X156114000Y-97946000D02*
X156114000Y-94530000D01*
X156074000Y-103826000D02*
X156074000Y-100428000D01*
X156074000Y-97946000D02*
X156074000Y-94548000D01*
X156034000Y-103808000D02*
X156034000Y-100428000D01*
X156034000Y-97946000D02*
X156034000Y-94566000D01*
X155994000Y-103790000D02*
X155994000Y-100428000D01*
X155994000Y-97946000D02*
X155994000Y-94584000D01*
X155954000Y-103771000D02*
X155954000Y-100428000D01*
X155954000Y-97946000D02*
X155954000Y-94603000D01*
X155914000Y-103751000D02*
X155914000Y-100428000D01*
X155914000Y-97946000D02*
X155914000Y-94623000D01*
X155874000Y-103732000D02*
X155874000Y-100428000D01*
X155874000Y-97946000D02*
X155874000Y-94642000D01*
X155834000Y-103712000D02*
X155834000Y-100428000D01*
X155834000Y-97946000D02*
X155834000Y-94662000D01*
X155794000Y-103691000D02*
X155794000Y-100428000D01*
X155794000Y-97946000D02*
X155794000Y-94683000D01*
X155754000Y-103670000D02*
X155754000Y-100428000D01*
X155754000Y-97946000D02*
X155754000Y-94704000D01*
X155714000Y-103649000D02*
X155714000Y-100428000D01*
X155714000Y-97946000D02*
X155714000Y-94725000D01*
X155674000Y-103627000D02*
X155674000Y-100428000D01*
X155674000Y-97946000D02*
X155674000Y-94747000D01*
X155634000Y-103604000D02*
X155634000Y-100428000D01*
X155634000Y-97946000D02*
X155634000Y-94770000D01*
X155594000Y-103582000D02*
X155594000Y-100428000D01*
X155594000Y-97946000D02*
X155594000Y-94792000D01*
X155554000Y-103558000D02*
X155554000Y-100428000D01*
X155554000Y-97946000D02*
X155554000Y-94816000D01*
X155514000Y-103534000D02*
X155514000Y-100428000D01*
X155514000Y-97946000D02*
X155514000Y-94840000D01*
X155474000Y-103510000D02*
X155474000Y-100428000D01*
X155474000Y-97946000D02*
X155474000Y-94864000D01*
X155434000Y-103485000D02*
X155434000Y-100428000D01*
X155434000Y-97946000D02*
X155434000Y-94889000D01*
X155394000Y-103460000D02*
X155394000Y-100428000D01*
X155394000Y-97946000D02*
X155394000Y-94914000D01*
X155354000Y-103434000D02*
X155354000Y-100428000D01*
X155354000Y-97946000D02*
X155354000Y-94940000D01*
X155314000Y-103408000D02*
X155314000Y-100428000D01*
X155314000Y-97946000D02*
X155314000Y-94966000D01*
X155274000Y-103381000D02*
X155274000Y-100428000D01*
X155274000Y-97946000D02*
X155274000Y-94993000D01*
X155234000Y-103353000D02*
X155234000Y-100428000D01*
X155234000Y-97946000D02*
X155234000Y-95021000D01*
X155194000Y-103325000D02*
X155194000Y-100428000D01*
X155194000Y-97946000D02*
X155194000Y-95049000D01*
X155154000Y-103297000D02*
X155154000Y-100428000D01*
X155154000Y-97946000D02*
X155154000Y-95077000D01*
X155114000Y-103267000D02*
X155114000Y-100428000D01*
X155114000Y-97946000D02*
X155114000Y-95107000D01*
X155074000Y-103237000D02*
X155074000Y-100428000D01*
X155074000Y-97946000D02*
X155074000Y-95137000D01*
X155034000Y-103207000D02*
X155034000Y-100428000D01*
X155034000Y-97946000D02*
X155034000Y-95167000D01*
X154994000Y-103176000D02*
X154994000Y-100428000D01*
X154994000Y-97946000D02*
X154994000Y-95198000D01*
X154954000Y-103144000D02*
X154954000Y-100428000D01*
X154954000Y-97946000D02*
X154954000Y-95230000D01*
X154914000Y-103112000D02*
X154914000Y-100428000D01*
X154914000Y-97946000D02*
X154914000Y-95262000D01*
X154874000Y-103079000D02*
X154874000Y-100428000D01*
X154874000Y-97946000D02*
X154874000Y-95295000D01*
X154834000Y-103045000D02*
X154834000Y-100428000D01*
X154834000Y-97946000D02*
X154834000Y-95329000D01*
X154794000Y-103011000D02*
X154794000Y-100428000D01*
X154794000Y-97946000D02*
X154794000Y-95363000D01*
X154754000Y-102976000D02*
X154754000Y-100428000D01*
X154754000Y-97946000D02*
X154754000Y-95398000D01*
X154714000Y-102940000D02*
X154714000Y-100428000D01*
X154714000Y-97946000D02*
X154714000Y-95434000D01*
X154674000Y-102903000D02*
X154674000Y-100428000D01*
X154674000Y-97946000D02*
X154674000Y-95471000D01*
X154634000Y-102866000D02*
X154634000Y-100428000D01*
X154634000Y-97946000D02*
X154634000Y-95508000D01*
X154594000Y-102827000D02*
X154594000Y-100428000D01*
X154594000Y-97946000D02*
X154594000Y-95547000D01*
X154554000Y-102788000D02*
X154554000Y-100428000D01*
X154554000Y-97946000D02*
X154554000Y-95586000D01*
X154514000Y-102748000D02*
X154514000Y-100428000D01*
X154514000Y-97946000D02*
X154514000Y-95626000D01*
X154474000Y-102707000D02*
X154474000Y-100428000D01*
X154474000Y-97946000D02*
X154474000Y-95667000D01*
X154434000Y-102665000D02*
X154434000Y-100428000D01*
X154434000Y-97946000D02*
X154434000Y-95709000D01*
X154394000Y-102623000D02*
X154394000Y-95751000D01*
X154354000Y-102579000D02*
X154354000Y-95795000D01*
X154314000Y-102534000D02*
X154314000Y-95840000D01*
X154274000Y-102488000D02*
X154274000Y-95886000D01*
X154234000Y-102441000D02*
X154234000Y-95933000D01*
X154194000Y-102393000D02*
X154194000Y-95981000D01*
X154154000Y-102343000D02*
X154154000Y-96031000D01*
X154114000Y-102293000D02*
X154114000Y-96081000D01*
X154074000Y-102241000D02*
X154074000Y-96133000D01*
X154034000Y-102187000D02*
X154034000Y-96187000D01*
X153994000Y-102132000D02*
X153994000Y-96242000D01*
X153954000Y-102076000D02*
X153954000Y-96298000D01*
X153914000Y-102017000D02*
X153914000Y-96357000D01*
X153874000Y-101957000D02*
X153874000Y-96417000D01*
X153834000Y-101896000D02*
X153834000Y-96478000D01*
X153794000Y-101832000D02*
X153794000Y-96542000D01*
X153754000Y-101766000D02*
X153754000Y-96608000D01*
X153714000Y-101697000D02*
X153714000Y-96677000D01*
X153674000Y-101626000D02*
X153674000Y-96748000D01*
X153634000Y-101552000D02*
X153634000Y-96822000D01*
X153594000Y-101476000D02*
X153594000Y-96898000D01*
X153554000Y-101396000D02*
X153554000Y-96978000D01*
X153514000Y-101312000D02*
X153514000Y-97062000D01*
X153474000Y-101224000D02*
X153474000Y-97150000D01*
X153434000Y-101131000D02*
X153434000Y-97243000D01*
X153394000Y-101033000D02*
X153394000Y-97341000D01*
X153354000Y-100929000D02*
X153354000Y-97445000D01*
X153314000Y-100817000D02*
X153314000Y-97557000D01*
X153274000Y-100697000D02*
X153274000Y-97677000D01*
X153234000Y-100565000D02*
X153234000Y-97809000D01*
X153194000Y-100417000D02*
X153194000Y-97957000D01*
X153154000Y-100249000D02*
X153154000Y-98125000D01*
X153114000Y-100049000D02*
X153114000Y-98325000D01*
X153074000Y-99786000D02*
X153074000Y-98588000D01*
X163634646Y-102062000D02*
X162634646Y-102062000D01*
X163134646Y-102562000D02*
X163134646Y-101562000D01*
X161132000Y-110236000D02*
G75*
G03X161132000Y-110236000I-2620000J0D01*
G01*
X158512000Y-109196000D02*
X158512000Y-107656000D01*
X158512000Y-112816000D02*
X158512000Y-111276000D01*
X158472000Y-109196000D02*
X158472000Y-107656000D01*
X158472000Y-112816000D02*
X158472000Y-111276000D01*
X158432000Y-112815000D02*
X158432000Y-111276000D01*
X158432000Y-109196000D02*
X158432000Y-107657000D01*
X158392000Y-112814000D02*
X158392000Y-111276000D01*
X158392000Y-109196000D02*
X158392000Y-107658000D01*
X158352000Y-112812000D02*
X158352000Y-111276000D01*
X158352000Y-109196000D02*
X158352000Y-107660000D01*
X158312000Y-112809000D02*
X158312000Y-111276000D01*
X158312000Y-109196000D02*
X158312000Y-107663000D01*
X158272000Y-112805000D02*
X158272000Y-111276000D01*
X158272000Y-109196000D02*
X158272000Y-107667000D01*
X158232000Y-112801000D02*
X158232000Y-111276000D01*
X158232000Y-109196000D02*
X158232000Y-107671000D01*
X158192000Y-112797000D02*
X158192000Y-111276000D01*
X158192000Y-109196000D02*
X158192000Y-107675000D01*
X158152000Y-112792000D02*
X158152000Y-111276000D01*
X158152000Y-109196000D02*
X158152000Y-107680000D01*
X158112000Y-112786000D02*
X158112000Y-111276000D01*
X158112000Y-109196000D02*
X158112000Y-107686000D01*
X158072000Y-112779000D02*
X158072000Y-111276000D01*
X158072000Y-109196000D02*
X158072000Y-107693000D01*
X158032000Y-112772000D02*
X158032000Y-111276000D01*
X158032000Y-109196000D02*
X158032000Y-107700000D01*
X157992000Y-112764000D02*
X157992000Y-111276000D01*
X157992000Y-109196000D02*
X157992000Y-107708000D01*
X157952000Y-112756000D02*
X157952000Y-111276000D01*
X157952000Y-109196000D02*
X157952000Y-107716000D01*
X157912000Y-112747000D02*
X157912000Y-111276000D01*
X157912000Y-109196000D02*
X157912000Y-107725000D01*
X157872000Y-112737000D02*
X157872000Y-111276000D01*
X157872000Y-109196000D02*
X157872000Y-107735000D01*
X157832000Y-112727000D02*
X157832000Y-111276000D01*
X157832000Y-109196000D02*
X157832000Y-107745000D01*
X157791000Y-112716000D02*
X157791000Y-111276000D01*
X157791000Y-109196000D02*
X157791000Y-107756000D01*
X157751000Y-112704000D02*
X157751000Y-111276000D01*
X157751000Y-109196000D02*
X157751000Y-107768000D01*
X157711000Y-112691000D02*
X157711000Y-111276000D01*
X157711000Y-109196000D02*
X157711000Y-107781000D01*
X157671000Y-112678000D02*
X157671000Y-111276000D01*
X157671000Y-109196000D02*
X157671000Y-107794000D01*
X157631000Y-112664000D02*
X157631000Y-111276000D01*
X157631000Y-109196000D02*
X157631000Y-107808000D01*
X157591000Y-112650000D02*
X157591000Y-111276000D01*
X157591000Y-109196000D02*
X157591000Y-107822000D01*
X157551000Y-112634000D02*
X157551000Y-111276000D01*
X157551000Y-109196000D02*
X157551000Y-107838000D01*
X157511000Y-112618000D02*
X157511000Y-111276000D01*
X157511000Y-109196000D02*
X157511000Y-107854000D01*
X157471000Y-112601000D02*
X157471000Y-111276000D01*
X157471000Y-109196000D02*
X157471000Y-107871000D01*
X157431000Y-112584000D02*
X157431000Y-111276000D01*
X157431000Y-109196000D02*
X157431000Y-107888000D01*
X157391000Y-112565000D02*
X157391000Y-111276000D01*
X157391000Y-109196000D02*
X157391000Y-107907000D01*
X157351000Y-112546000D02*
X157351000Y-111276000D01*
X157351000Y-109196000D02*
X157351000Y-107926000D01*
X157311000Y-112526000D02*
X157311000Y-111276000D01*
X157311000Y-109196000D02*
X157311000Y-107946000D01*
X157271000Y-112504000D02*
X157271000Y-111276000D01*
X157271000Y-109196000D02*
X157271000Y-107968000D01*
X157231000Y-112483000D02*
X157231000Y-111276000D01*
X157231000Y-109196000D02*
X157231000Y-107989000D01*
X157191000Y-112460000D02*
X157191000Y-111276000D01*
X157191000Y-109196000D02*
X157191000Y-108012000D01*
X157151000Y-112436000D02*
X157151000Y-111276000D01*
X157151000Y-109196000D02*
X157151000Y-108036000D01*
X157111000Y-112411000D02*
X157111000Y-111276000D01*
X157111000Y-109196000D02*
X157111000Y-108061000D01*
X157071000Y-112385000D02*
X157071000Y-111276000D01*
X157071000Y-109196000D02*
X157071000Y-108087000D01*
X157031000Y-112358000D02*
X157031000Y-111276000D01*
X157031000Y-109196000D02*
X157031000Y-108114000D01*
X156991000Y-112331000D02*
X156991000Y-111276000D01*
X156991000Y-109196000D02*
X156991000Y-108141000D01*
X156951000Y-112301000D02*
X156951000Y-111276000D01*
X156951000Y-109196000D02*
X156951000Y-108171000D01*
X156911000Y-112271000D02*
X156911000Y-111276000D01*
X156911000Y-109196000D02*
X156911000Y-108201000D01*
X156871000Y-112240000D02*
X156871000Y-111276000D01*
X156871000Y-109196000D02*
X156871000Y-108232000D01*
X156831000Y-112207000D02*
X156831000Y-111276000D01*
X156831000Y-109196000D02*
X156831000Y-108265000D01*
X156791000Y-112173000D02*
X156791000Y-111276000D01*
X156791000Y-109196000D02*
X156791000Y-108299000D01*
X156751000Y-112137000D02*
X156751000Y-111276000D01*
X156751000Y-109196000D02*
X156751000Y-108335000D01*
X156711000Y-112100000D02*
X156711000Y-111276000D01*
X156711000Y-109196000D02*
X156711000Y-108372000D01*
X156671000Y-112062000D02*
X156671000Y-111276000D01*
X156671000Y-109196000D02*
X156671000Y-108410000D01*
X156631000Y-112021000D02*
X156631000Y-111276000D01*
X156631000Y-109196000D02*
X156631000Y-108451000D01*
X156591000Y-111979000D02*
X156591000Y-111276000D01*
X156591000Y-109196000D02*
X156591000Y-108493000D01*
X156551000Y-111935000D02*
X156551000Y-111276000D01*
X156551000Y-109196000D02*
X156551000Y-108537000D01*
X156511000Y-111889000D02*
X156511000Y-111276000D01*
X156511000Y-109196000D02*
X156511000Y-108583000D01*
X156471000Y-111841000D02*
X156471000Y-108631000D01*
X156431000Y-111790000D02*
X156431000Y-108682000D01*
X156391000Y-111736000D02*
X156391000Y-108736000D01*
X156351000Y-111679000D02*
X156351000Y-108793000D01*
X156311000Y-111619000D02*
X156311000Y-108853000D01*
X156271000Y-111555000D02*
X156271000Y-108917000D01*
X156231000Y-111487000D02*
X156231000Y-108985000D01*
X156191000Y-111414000D02*
X156191000Y-109058000D01*
X156151000Y-111334000D02*
X156151000Y-109138000D01*
X156111000Y-111247000D02*
X156111000Y-109225000D01*
X156071000Y-111151000D02*
X156071000Y-109321000D01*
X156031000Y-111041000D02*
X156031000Y-109431000D01*
X155991000Y-110913000D02*
X155991000Y-109559000D01*
X155951000Y-110754000D02*
X155951000Y-109718000D01*
X155911000Y-110520000D02*
X155911000Y-109952000D01*
X161316775Y-111711000D02*
X160816775Y-111711000D01*
X161066775Y-111961000D02*
X161066775Y-111461000D01*
X148874000Y-81174000D02*
X149579000Y-81174000D01*
X146839000Y-81174000D02*
X147544000Y-81174000D01*
X148874000Y-85414000D02*
X149579000Y-85414000D01*
X146839000Y-85414000D02*
X147544000Y-85414000D01*
X149579000Y-85414000D02*
X149579000Y-81174000D01*
X146839000Y-85414000D02*
X146839000Y-81174000D01*
X149246335Y-118809392D02*
G75*
G03X146014000Y-118652484I-1672335J-1078608D01*
G01*
X149246335Y-120966608D02*
G75*
G02X146014000Y-121123516I-1672335J1078608D01*
G01*
X148615130Y-118808163D02*
G75*
G03X146533039Y-118808000I-1041130J-1079837D01*
G01*
X148615130Y-120967837D02*
G75*
G02X146533039Y-120968000I-1041130J1079837D01*
G01*
X146014000Y-118652000D02*
X146014000Y-118808000D01*
X146014000Y-120968000D02*
X146014000Y-121124000D01*
X168081000Y-105604000D02*
X165421000Y-105604000D01*
X168081000Y-110744000D02*
X168081000Y-105604000D01*
X165421000Y-110744000D02*
X165421000Y-105604000D01*
X168081000Y-110744000D02*
X165421000Y-110744000D01*
X168081000Y-112014000D02*
X168081000Y-113344000D01*
X168081000Y-113344000D02*
X166751000Y-113344000D01*
X127540000Y-89511000D02*
X127540000Y-89181000D01*
X127540000Y-89181000D02*
X134080000Y-89181000D01*
X134080000Y-89181000D02*
X134080000Y-89511000D01*
X127540000Y-91591000D02*
X127540000Y-91921000D01*
X127540000Y-91921000D02*
X134080000Y-91921000D01*
X134080000Y-91921000D02*
X134080000Y-91591000D01*
X134080000Y-97921750D02*
X134080000Y-97591750D01*
X127540000Y-97921750D02*
X134080000Y-97921750D01*
X127540000Y-97591750D02*
X127540000Y-97921750D01*
X134080000Y-95181750D02*
X134080000Y-95511750D01*
X127540000Y-95181750D02*
X134080000Y-95181750D01*
X127540000Y-95511750D02*
X127540000Y-95181750D01*
X127540000Y-101512500D02*
X127540000Y-101182500D01*
X127540000Y-101182500D02*
X134080000Y-101182500D01*
X134080000Y-101182500D02*
X134080000Y-101512500D01*
X127540000Y-103592500D02*
X127540000Y-103922500D01*
X127540000Y-103922500D02*
X134080000Y-103922500D01*
X134080000Y-103922500D02*
X134080000Y-103592500D01*
X134080000Y-109923250D02*
X134080000Y-109593250D01*
X127540000Y-109923250D02*
X134080000Y-109923250D01*
X127540000Y-109593250D02*
X127540000Y-109923250D01*
X134080000Y-107183250D02*
X134080000Y-107513250D01*
X127540000Y-107183250D02*
X134080000Y-107183250D01*
X127540000Y-107513250D02*
X127540000Y-107183250D01*
X127540000Y-113514000D02*
X127540000Y-113184000D01*
X127540000Y-113184000D02*
X134080000Y-113184000D01*
X134080000Y-113184000D02*
X134080000Y-113514000D01*
X127540000Y-115594000D02*
X127540000Y-115924000D01*
X127540000Y-115924000D02*
X134080000Y-115924000D01*
X134080000Y-115924000D02*
X134080000Y-115594000D01*
X141719000Y-122543000D02*
X141719000Y-121343000D01*
X140519000Y-122543000D02*
X141719000Y-122543000D01*
X132219000Y-118043000D02*
X133419000Y-118043000D01*
X132219000Y-122243000D02*
X132219000Y-118043000D01*
X133419000Y-122243000D02*
X132219000Y-122243000D01*
X141419000Y-118043000D02*
X140219000Y-118043000D01*
X141419000Y-122243000D02*
X141419000Y-118043000D01*
X140219000Y-122243000D02*
X141419000Y-122243000D01*
X169386000Y-90384000D02*
X169386000Y-100624000D01*
X164745000Y-90384000D02*
X164745000Y-100624000D01*
X169386000Y-90384000D02*
X164745000Y-90384000D01*
X169386000Y-100624000D02*
X164745000Y-100624000D01*
X167876000Y-90384000D02*
X167876000Y-100624000D01*
X169386000Y-93654000D02*
X167876000Y-93654000D01*
X169386000Y-97355000D02*
X167876000Y-97355000D01*
X158988000Y-80839000D02*
G75*
G02X156988000Y-80839000I-1000000J0D01*
G01*
X156988000Y-80839000D02*
X155738000Y-80839000D01*
X155738000Y-80839000D02*
X155738000Y-91119000D01*
X155738000Y-91119000D02*
X160238000Y-91119000D01*
X160238000Y-91119000D02*
X160238000Y-80839000D01*
X160238000Y-80839000D02*
X158988000Y-80839000D01*
D10*
X139716142Y-83460666D02*
X139763761Y-83508285D01*
X139811380Y-83651142D01*
X139811380Y-83746380D01*
X139763761Y-83889238D01*
X139668523Y-83984476D01*
X139573285Y-84032095D01*
X139382809Y-84079714D01*
X139239952Y-84079714D01*
X139049476Y-84032095D01*
X138954238Y-83984476D01*
X138859000Y-83889238D01*
X138811380Y-83746380D01*
X138811380Y-83651142D01*
X138859000Y-83508285D01*
X138906619Y-83460666D01*
X138811380Y-83127333D02*
X138811380Y-82508285D01*
X139192333Y-82841619D01*
X139192333Y-82698761D01*
X139239952Y-82603523D01*
X139287571Y-82555904D01*
X139382809Y-82508285D01*
X139620904Y-82508285D01*
X139716142Y-82555904D01*
X139763761Y-82603523D01*
X139811380Y-82698761D01*
X139811380Y-82984476D01*
X139763761Y-83079714D01*
X139716142Y-83127333D01*
X156497343Y-116228761D02*
X156640200Y-116276380D01*
X156878296Y-116276380D01*
X156973534Y-116228761D01*
X157021153Y-116181142D01*
X157068772Y-116085904D01*
X157068772Y-115990666D01*
X157021153Y-115895428D01*
X156973534Y-115847809D01*
X156878296Y-115800190D01*
X156687819Y-115752571D01*
X156592581Y-115704952D01*
X156544962Y-115657333D01*
X156497343Y-115562095D01*
X156497343Y-115466857D01*
X156544962Y-115371619D01*
X156592581Y-115324000D01*
X156687819Y-115276380D01*
X156925915Y-115276380D01*
X157068772Y-115324000D01*
X157402105Y-115276380D02*
X157640200Y-116276380D01*
X157830677Y-115562095D01*
X158021153Y-116276380D01*
X158259248Y-115276380D01*
X158592581Y-115371619D02*
X158640200Y-115324000D01*
X158735438Y-115276380D01*
X158973534Y-115276380D01*
X159068772Y-115324000D01*
X159116391Y-115371619D01*
X159164010Y-115466857D01*
X159164010Y-115562095D01*
X159116391Y-115704952D01*
X158544962Y-116276380D01*
X159164010Y-116276380D01*
X144041904Y-111039380D02*
X144041904Y-110039380D01*
X144280000Y-110039380D01*
X144422857Y-110087000D01*
X144518095Y-110182238D01*
X144565714Y-110277476D01*
X144613333Y-110467952D01*
X144613333Y-110610809D01*
X144565714Y-110801285D01*
X144518095Y-110896523D01*
X144422857Y-110991761D01*
X144280000Y-111039380D01*
X144041904Y-111039380D01*
X145470476Y-110039380D02*
X145280000Y-110039380D01*
X145184761Y-110087000D01*
X145137142Y-110134619D01*
X145041904Y-110277476D01*
X144994285Y-110467952D01*
X144994285Y-110848904D01*
X145041904Y-110944142D01*
X145089523Y-110991761D01*
X145184761Y-111039380D01*
X145375238Y-111039380D01*
X145470476Y-110991761D01*
X145518095Y-110944142D01*
X145565714Y-110848904D01*
X145565714Y-110610809D01*
X145518095Y-110515571D01*
X145470476Y-110467952D01*
X145375238Y-110420333D01*
X145184761Y-110420333D01*
X145089523Y-110467952D01*
X145041904Y-110515571D01*
X144994285Y-110610809D01*
X139438095Y-111409380D02*
X139438095Y-110409380D01*
X140009523Y-111409380D02*
X139580952Y-110837952D01*
X140009523Y-110409380D02*
X139438095Y-110980809D01*
X144041904Y-105088630D02*
X144041904Y-104088630D01*
X144280000Y-104088630D01*
X144422857Y-104136250D01*
X144518095Y-104231488D01*
X144565714Y-104326726D01*
X144613333Y-104517202D01*
X144613333Y-104660059D01*
X144565714Y-104850535D01*
X144518095Y-104945773D01*
X144422857Y-105041011D01*
X144280000Y-105088630D01*
X144041904Y-105088630D01*
X145470476Y-104421964D02*
X145470476Y-105088630D01*
X145232380Y-104041011D02*
X144994285Y-104755297D01*
X145613333Y-104755297D01*
X139438095Y-105458630D02*
X139438095Y-104458630D01*
X140009523Y-105458630D02*
X139580952Y-104887202D01*
X140009523Y-104458630D02*
X139438095Y-105030059D01*
X144041904Y-99137880D02*
X144041904Y-98137880D01*
X144280000Y-98137880D01*
X144422857Y-98185500D01*
X144518095Y-98280738D01*
X144565714Y-98375976D01*
X144613333Y-98566452D01*
X144613333Y-98709309D01*
X144565714Y-98899785D01*
X144518095Y-98995023D01*
X144422857Y-99090261D01*
X144280000Y-99137880D01*
X144041904Y-99137880D01*
X144946666Y-98137880D02*
X145565714Y-98137880D01*
X145232380Y-98518833D01*
X145375238Y-98518833D01*
X145470476Y-98566452D01*
X145518095Y-98614071D01*
X145565714Y-98709309D01*
X145565714Y-98947404D01*
X145518095Y-99042642D01*
X145470476Y-99090261D01*
X145375238Y-99137880D01*
X145089523Y-99137880D01*
X144994285Y-99090261D01*
X144946666Y-99042642D01*
X139438095Y-99507880D02*
X139438095Y-98507880D01*
X140009523Y-99507880D02*
X139580952Y-98936452D01*
X140009523Y-98507880D02*
X139438095Y-99079309D01*
X144041904Y-93187130D02*
X144041904Y-92187130D01*
X144280000Y-92187130D01*
X144422857Y-92234750D01*
X144518095Y-92329988D01*
X144565714Y-92425226D01*
X144613333Y-92615702D01*
X144613333Y-92758559D01*
X144565714Y-92949035D01*
X144518095Y-93044273D01*
X144422857Y-93139511D01*
X144280000Y-93187130D01*
X144041904Y-93187130D01*
X144994285Y-92282369D02*
X145041904Y-92234750D01*
X145137142Y-92187130D01*
X145375238Y-92187130D01*
X145470476Y-92234750D01*
X145518095Y-92282369D01*
X145565714Y-92377607D01*
X145565714Y-92472845D01*
X145518095Y-92615702D01*
X144946666Y-93187130D01*
X145565714Y-93187130D01*
X139438095Y-93557130D02*
X139438095Y-92557130D01*
X140009523Y-93557130D02*
X139580952Y-92985702D01*
X140009523Y-92557130D02*
X139438095Y-93128559D01*
X144041904Y-87236380D02*
X144041904Y-86236380D01*
X144280000Y-86236380D01*
X144422857Y-86284000D01*
X144518095Y-86379238D01*
X144565714Y-86474476D01*
X144613333Y-86664952D01*
X144613333Y-86807809D01*
X144565714Y-86998285D01*
X144518095Y-87093523D01*
X144422857Y-87188761D01*
X144280000Y-87236380D01*
X144041904Y-87236380D01*
X145565714Y-87236380D02*
X144994285Y-87236380D01*
X145280000Y-87236380D02*
X145280000Y-86236380D01*
X145184761Y-86379238D01*
X145089523Y-86474476D01*
X144994285Y-86522095D01*
X139438095Y-87606380D02*
X139438095Y-86606380D01*
X140009523Y-87606380D02*
X139580952Y-87034952D01*
X140009523Y-86606380D02*
X139438095Y-87177809D01*
X157988333Y-105794142D02*
X157940714Y-105841761D01*
X157797857Y-105889380D01*
X157702619Y-105889380D01*
X157559761Y-105841761D01*
X157464523Y-105746523D01*
X157416904Y-105651285D01*
X157369285Y-105460809D01*
X157369285Y-105317952D01*
X157416904Y-105127476D01*
X157464523Y-105032238D01*
X157559761Y-104937000D01*
X157702619Y-104889380D01*
X157797857Y-104889380D01*
X157940714Y-104937000D01*
X157988333Y-104984619D01*
X158940714Y-105889380D02*
X158369285Y-105889380D01*
X158655000Y-105889380D02*
X158655000Y-104889380D01*
X158559761Y-105032238D01*
X158464523Y-105127476D01*
X158369285Y-105175095D01*
X158345333Y-114343142D02*
X158297714Y-114390761D01*
X158154857Y-114438380D01*
X158059619Y-114438380D01*
X157916761Y-114390761D01*
X157821523Y-114295523D01*
X157773904Y-114200285D01*
X157726285Y-114009809D01*
X157726285Y-113866952D01*
X157773904Y-113676476D01*
X157821523Y-113581238D01*
X157916761Y-113486000D01*
X158059619Y-113438380D01*
X158154857Y-113438380D01*
X158297714Y-113486000D01*
X158345333Y-113533619D01*
X158726285Y-113533619D02*
X158773904Y-113486000D01*
X158869142Y-113438380D01*
X159107238Y-113438380D01*
X159202476Y-113486000D01*
X159250095Y-113533619D01*
X159297714Y-113628857D01*
X159297714Y-113724095D01*
X159250095Y-113866952D01*
X158678666Y-114438380D01*
X159297714Y-114438380D01*
X146066142Y-83460666D02*
X146113761Y-83508285D01*
X146161380Y-83651142D01*
X146161380Y-83746380D01*
X146113761Y-83889238D01*
X146018523Y-83984476D01*
X145923285Y-84032095D01*
X145732809Y-84079714D01*
X145589952Y-84079714D01*
X145399476Y-84032095D01*
X145304238Y-83984476D01*
X145209000Y-83889238D01*
X145161380Y-83746380D01*
X145161380Y-83651142D01*
X145209000Y-83508285D01*
X145256619Y-83460666D01*
X145494714Y-82603523D02*
X146161380Y-82603523D01*
X145113761Y-82841619D02*
X145828047Y-83079714D01*
X145828047Y-82460666D01*
X143279904Y-120467380D02*
X143279904Y-119467380D01*
X143518000Y-119467380D01*
X143660857Y-119515000D01*
X143756095Y-119610238D01*
X143803714Y-119705476D01*
X143851333Y-119895952D01*
X143851333Y-120038809D01*
X143803714Y-120229285D01*
X143756095Y-120324523D01*
X143660857Y-120419761D01*
X143518000Y-120467380D01*
X143279904Y-120467380D01*
X144756095Y-119467380D02*
X144279904Y-119467380D01*
X144232285Y-119943571D01*
X144279904Y-119895952D01*
X144375142Y-119848333D01*
X144613238Y-119848333D01*
X144708476Y-119895952D01*
X144756095Y-119943571D01*
X144803714Y-120038809D01*
X144803714Y-120276904D01*
X144756095Y-120372142D01*
X144708476Y-120419761D01*
X144613238Y-120467380D01*
X144375142Y-120467380D01*
X144279904Y-120419761D01*
X144232285Y-120372142D01*
X163790380Y-109553333D02*
X164504666Y-109553333D01*
X164647523Y-109600952D01*
X164742761Y-109696190D01*
X164790380Y-109839047D01*
X164790380Y-109934285D01*
X163885619Y-109124761D02*
X163838000Y-109077142D01*
X163790380Y-108981904D01*
X163790380Y-108743809D01*
X163838000Y-108648571D01*
X163885619Y-108600952D01*
X163980857Y-108553333D01*
X164076095Y-108553333D01*
X164218952Y-108600952D01*
X164790380Y-109172380D01*
X164790380Y-108553333D01*
X128103333Y-88844380D02*
X127770000Y-88368190D01*
X127531904Y-88844380D02*
X127531904Y-87844380D01*
X127912857Y-87844380D01*
X128008095Y-87892000D01*
X128055714Y-87939619D01*
X128103333Y-88034857D01*
X128103333Y-88177714D01*
X128055714Y-88272952D01*
X128008095Y-88320571D01*
X127912857Y-88368190D01*
X127531904Y-88368190D01*
X129055714Y-88844380D02*
X128484285Y-88844380D01*
X128770000Y-88844380D02*
X128770000Y-87844380D01*
X128674761Y-87987238D01*
X128579523Y-88082476D01*
X128484285Y-88130095D01*
X132437285Y-87844380D02*
X131961095Y-87844380D01*
X131913476Y-88320571D01*
X131961095Y-88272952D01*
X132056333Y-88225333D01*
X132294428Y-88225333D01*
X132389666Y-88272952D01*
X132437285Y-88320571D01*
X132484904Y-88415809D01*
X132484904Y-88653904D01*
X132437285Y-88749142D01*
X132389666Y-88796761D01*
X132294428Y-88844380D01*
X132056333Y-88844380D01*
X131961095Y-88796761D01*
X131913476Y-88749142D01*
X133342047Y-87844380D02*
X133151571Y-87844380D01*
X133056333Y-87892000D01*
X133008714Y-87939619D01*
X132913476Y-88082476D01*
X132865857Y-88272952D01*
X132865857Y-88653904D01*
X132913476Y-88749142D01*
X132961095Y-88796761D01*
X133056333Y-88844380D01*
X133246809Y-88844380D01*
X133342047Y-88796761D01*
X133389666Y-88749142D01*
X133437285Y-88653904D01*
X133437285Y-88415809D01*
X133389666Y-88320571D01*
X133342047Y-88272952D01*
X133246809Y-88225333D01*
X133056333Y-88225333D01*
X132961095Y-88272952D01*
X132913476Y-88320571D01*
X132865857Y-88415809D01*
X134056333Y-87844380D02*
X134151571Y-87844380D01*
X134246809Y-87892000D01*
X134294428Y-87939619D01*
X134342047Y-88034857D01*
X134389666Y-88225333D01*
X134389666Y-88463428D01*
X134342047Y-88653904D01*
X134294428Y-88749142D01*
X134246809Y-88796761D01*
X134151571Y-88844380D01*
X134056333Y-88844380D01*
X133961095Y-88796761D01*
X133913476Y-88749142D01*
X133865857Y-88653904D01*
X133818238Y-88463428D01*
X133818238Y-88225333D01*
X133865857Y-88034857D01*
X133913476Y-87939619D01*
X133961095Y-87892000D01*
X134056333Y-87844380D01*
X134770619Y-88844380D02*
X135008714Y-88844380D01*
X135008714Y-88653904D01*
X134913476Y-88606285D01*
X134818238Y-88511047D01*
X134770619Y-88368190D01*
X134770619Y-88130095D01*
X134818238Y-87987238D01*
X134913476Y-87892000D01*
X135056333Y-87844380D01*
X135246809Y-87844380D01*
X135389666Y-87892000D01*
X135484904Y-87987238D01*
X135532523Y-88130095D01*
X135532523Y-88368190D01*
X135484904Y-88511047D01*
X135389666Y-88606285D01*
X135294428Y-88653904D01*
X135294428Y-88844380D01*
X135532523Y-88844380D01*
X128103333Y-94813380D02*
X127770000Y-94337190D01*
X127531904Y-94813380D02*
X127531904Y-93813380D01*
X127912857Y-93813380D01*
X128008095Y-93861000D01*
X128055714Y-93908619D01*
X128103333Y-94003857D01*
X128103333Y-94146714D01*
X128055714Y-94241952D01*
X128008095Y-94289571D01*
X127912857Y-94337190D01*
X127531904Y-94337190D01*
X128484285Y-93908619D02*
X128531904Y-93861000D01*
X128627142Y-93813380D01*
X128865238Y-93813380D01*
X128960476Y-93861000D01*
X129008095Y-93908619D01*
X129055714Y-94003857D01*
X129055714Y-94099095D01*
X129008095Y-94241952D01*
X128436666Y-94813380D01*
X129055714Y-94813380D01*
X131865856Y-93908619D02*
X131913475Y-93861000D01*
X132008713Y-93813380D01*
X132246809Y-93813380D01*
X132342047Y-93861000D01*
X132389666Y-93908619D01*
X132437285Y-94003857D01*
X132437285Y-94099095D01*
X132389666Y-94241952D01*
X131818237Y-94813380D01*
X132437285Y-94813380D01*
X132770618Y-93813380D02*
X133437285Y-93813380D01*
X133008713Y-94813380D01*
X133818237Y-94813380D02*
X133818237Y-93813380D01*
X134389666Y-94813380D02*
X133961094Y-94241952D01*
X134389666Y-93813380D02*
X133818237Y-94384809D01*
X134770618Y-94813380D02*
X135008713Y-94813380D01*
X135008713Y-94622904D01*
X134913475Y-94575285D01*
X134818237Y-94480047D01*
X134770618Y-94337190D01*
X134770618Y-94099095D01*
X134818237Y-93956238D01*
X134913475Y-93861000D01*
X135056332Y-93813380D01*
X135246809Y-93813380D01*
X135389666Y-93861000D01*
X135484904Y-93956238D01*
X135532523Y-94099095D01*
X135532523Y-94337190D01*
X135484904Y-94480047D01*
X135389666Y-94575285D01*
X135294428Y-94622904D01*
X135294428Y-94813380D01*
X135532523Y-94813380D01*
X128103333Y-100782380D02*
X127770000Y-100306190D01*
X127531904Y-100782380D02*
X127531904Y-99782380D01*
X127912857Y-99782380D01*
X128008095Y-99830000D01*
X128055714Y-99877619D01*
X128103333Y-99972857D01*
X128103333Y-100115714D01*
X128055714Y-100210952D01*
X128008095Y-100258571D01*
X127912857Y-100306190D01*
X127531904Y-100306190D01*
X128436666Y-99782380D02*
X129055714Y-99782380D01*
X128722380Y-100163333D01*
X128865238Y-100163333D01*
X128960476Y-100210952D01*
X129008095Y-100258571D01*
X129055714Y-100353809D01*
X129055714Y-100591904D01*
X129008095Y-100687142D01*
X128960476Y-100734761D01*
X128865238Y-100782380D01*
X128579523Y-100782380D01*
X128484285Y-100734761D01*
X128436666Y-100687142D01*
X131961094Y-100782380D02*
X131389666Y-100782380D01*
X131675380Y-100782380D02*
X131675380Y-99782380D01*
X131580142Y-99925238D01*
X131484904Y-100020476D01*
X131389666Y-100068095D01*
X132580142Y-99782380D02*
X132675380Y-99782380D01*
X132770618Y-99830000D01*
X132818237Y-99877619D01*
X132865856Y-99972857D01*
X132913475Y-100163333D01*
X132913475Y-100401428D01*
X132865856Y-100591904D01*
X132818237Y-100687142D01*
X132770618Y-100734761D01*
X132675380Y-100782380D01*
X132580142Y-100782380D01*
X132484904Y-100734761D01*
X132437285Y-100687142D01*
X132389666Y-100591904D01*
X132342047Y-100401428D01*
X132342047Y-100163333D01*
X132389666Y-99972857D01*
X132437285Y-99877619D01*
X132484904Y-99830000D01*
X132580142Y-99782380D01*
X133532523Y-99782380D02*
X133627761Y-99782380D01*
X133722999Y-99830000D01*
X133770618Y-99877619D01*
X133818237Y-99972857D01*
X133865856Y-100163333D01*
X133865856Y-100401428D01*
X133818237Y-100591904D01*
X133770618Y-100687142D01*
X133722999Y-100734761D01*
X133627761Y-100782380D01*
X133532523Y-100782380D01*
X133437285Y-100734761D01*
X133389666Y-100687142D01*
X133342047Y-100591904D01*
X133294428Y-100401428D01*
X133294428Y-100163333D01*
X133342047Y-99972857D01*
X133389666Y-99877619D01*
X133437285Y-99830000D01*
X133532523Y-99782380D01*
X134294428Y-100782380D02*
X134294428Y-99782380D01*
X134865856Y-100782380D02*
X134437285Y-100210952D01*
X134865856Y-99782380D02*
X134294428Y-100353809D01*
X135246809Y-100782380D02*
X135484904Y-100782380D01*
X135484904Y-100591904D01*
X135389666Y-100544285D01*
X135294428Y-100449047D01*
X135246809Y-100306190D01*
X135246809Y-100068095D01*
X135294428Y-99925238D01*
X135389666Y-99830000D01*
X135532523Y-99782380D01*
X135722999Y-99782380D01*
X135865856Y-99830000D01*
X135961094Y-99925238D01*
X136008713Y-100068095D01*
X136008713Y-100306190D01*
X135961094Y-100449047D01*
X135865856Y-100544285D01*
X135770618Y-100591904D01*
X135770618Y-100782380D01*
X136008713Y-100782380D01*
X128103333Y-106878380D02*
X127770000Y-106402190D01*
X127531904Y-106878380D02*
X127531904Y-105878380D01*
X127912857Y-105878380D01*
X128008095Y-105926000D01*
X128055714Y-105973619D01*
X128103333Y-106068857D01*
X128103333Y-106211714D01*
X128055714Y-106306952D01*
X128008095Y-106354571D01*
X127912857Y-106402190D01*
X127531904Y-106402190D01*
X128960476Y-106211714D02*
X128960476Y-106878380D01*
X128722380Y-105830761D02*
X128484285Y-106545047D01*
X129103333Y-106545047D01*
X131818237Y-106878380D02*
X131246808Y-106878380D01*
X131532523Y-106878380D02*
X131532523Y-105878380D01*
X131437285Y-106021238D01*
X131342046Y-106116476D01*
X131246808Y-106164095D01*
X132246808Y-106783142D02*
X132294427Y-106830761D01*
X132246808Y-106878380D01*
X132199189Y-106830761D01*
X132246808Y-106783142D01*
X132246808Y-106878380D01*
X132675380Y-105973619D02*
X132722999Y-105926000D01*
X132818237Y-105878380D01*
X133056332Y-105878380D01*
X133151570Y-105926000D01*
X133199189Y-105973619D01*
X133246808Y-106068857D01*
X133246808Y-106164095D01*
X133199189Y-106306952D01*
X132627761Y-106878380D01*
X133246808Y-106878380D01*
X133675380Y-106878380D02*
X133675380Y-105878380D01*
X134008713Y-106592666D01*
X134342046Y-105878380D01*
X134342046Y-106878380D01*
X134770618Y-106878380D02*
X135008713Y-106878380D01*
X135008713Y-106687904D01*
X134913475Y-106640285D01*
X134818237Y-106545047D01*
X134770618Y-106402190D01*
X134770618Y-106164095D01*
X134818237Y-106021238D01*
X134913475Y-105926000D01*
X135056332Y-105878380D01*
X135246808Y-105878380D01*
X135389666Y-105926000D01*
X135484904Y-106021238D01*
X135532523Y-106164095D01*
X135532523Y-106402190D01*
X135484904Y-106545047D01*
X135389666Y-106640285D01*
X135294427Y-106687904D01*
X135294427Y-106878380D01*
X135532523Y-106878380D01*
X128230333Y-112847380D02*
X127897000Y-112371190D01*
X127658904Y-112847380D02*
X127658904Y-111847380D01*
X128039857Y-111847380D01*
X128135095Y-111895000D01*
X128182714Y-111942619D01*
X128230333Y-112037857D01*
X128230333Y-112180714D01*
X128182714Y-112275952D01*
X128135095Y-112323571D01*
X128039857Y-112371190D01*
X127658904Y-112371190D01*
X129135095Y-111847380D02*
X128658904Y-111847380D01*
X128611285Y-112323571D01*
X128658904Y-112275952D01*
X128754142Y-112228333D01*
X128992238Y-112228333D01*
X129087476Y-112275952D01*
X129135095Y-112323571D01*
X129182714Y-112418809D01*
X129182714Y-112656904D01*
X129135095Y-112752142D01*
X129087476Y-112799761D01*
X128992238Y-112847380D01*
X128754142Y-112847380D01*
X128658904Y-112799761D01*
X128611285Y-112752142D01*
X131484904Y-112847380D02*
X130913476Y-112847380D01*
X131199190Y-112847380D02*
X131199190Y-111847380D01*
X131103952Y-111990238D01*
X131008714Y-112085476D01*
X130913476Y-112133095D01*
X132103952Y-111847380D02*
X132199190Y-111847380D01*
X132294428Y-111895000D01*
X132342047Y-111942619D01*
X132389666Y-112037857D01*
X132437285Y-112228333D01*
X132437285Y-112466428D01*
X132389666Y-112656904D01*
X132342047Y-112752142D01*
X132294428Y-112799761D01*
X132199190Y-112847380D01*
X132103952Y-112847380D01*
X132008714Y-112799761D01*
X131961095Y-112752142D01*
X131913476Y-112656904D01*
X131865857Y-112466428D01*
X131865857Y-112228333D01*
X131913476Y-112037857D01*
X131961095Y-111942619D01*
X132008714Y-111895000D01*
X132103952Y-111847380D01*
X133056333Y-111847380D02*
X133151571Y-111847380D01*
X133246809Y-111895000D01*
X133294428Y-111942619D01*
X133342047Y-112037857D01*
X133389666Y-112228333D01*
X133389666Y-112466428D01*
X133342047Y-112656904D01*
X133294428Y-112752142D01*
X133246809Y-112799761D01*
X133151571Y-112847380D01*
X133056333Y-112847380D01*
X132961095Y-112799761D01*
X132913476Y-112752142D01*
X132865857Y-112656904D01*
X132818238Y-112466428D01*
X132818238Y-112228333D01*
X132865857Y-112037857D01*
X132913476Y-111942619D01*
X132961095Y-111895000D01*
X133056333Y-111847380D01*
X133818238Y-112847380D02*
X133818238Y-111847380D01*
X134389666Y-112847380D02*
X133961095Y-112275952D01*
X134389666Y-111847380D02*
X133818238Y-112418809D01*
X134770619Y-112847380D02*
X135008714Y-112847380D01*
X135008714Y-112656904D01*
X134913476Y-112609285D01*
X134818238Y-112514047D01*
X134770619Y-112371190D01*
X134770619Y-112133095D01*
X134818238Y-111990238D01*
X134913476Y-111895000D01*
X135056333Y-111847380D01*
X135246809Y-111847380D01*
X135389666Y-111895000D01*
X135484904Y-111990238D01*
X135532523Y-112133095D01*
X135532523Y-112371190D01*
X135484904Y-112514047D01*
X135389666Y-112609285D01*
X135294428Y-112656904D01*
X135294428Y-112847380D01*
X135532523Y-112847380D01*
X129222666Y-119403761D02*
X129365523Y-119451380D01*
X129603619Y-119451380D01*
X129698857Y-119403761D01*
X129746476Y-119356142D01*
X129794095Y-119260904D01*
X129794095Y-119165666D01*
X129746476Y-119070428D01*
X129698857Y-119022809D01*
X129603619Y-118975190D01*
X129413142Y-118927571D01*
X129317904Y-118879952D01*
X129270285Y-118832333D01*
X129222666Y-118737095D01*
X129222666Y-118641857D01*
X129270285Y-118546619D01*
X129317904Y-118499000D01*
X129413142Y-118451380D01*
X129651238Y-118451380D01*
X129794095Y-118499000D01*
X130127428Y-118451380D02*
X130365523Y-119451380D01*
X130556000Y-118737095D01*
X130746476Y-119451380D01*
X130984571Y-118451380D01*
X131889333Y-119451380D02*
X131317904Y-119451380D01*
X131603619Y-119451380D02*
X131603619Y-118451380D01*
X131508380Y-118594238D01*
X131413142Y-118689476D01*
X131317904Y-118737095D01*
X169838380Y-96265904D02*
X170647904Y-96265904D01*
X170743142Y-96218285D01*
X170790761Y-96170666D01*
X170838380Y-96075428D01*
X170838380Y-95884952D01*
X170790761Y-95789714D01*
X170743142Y-95742095D01*
X170647904Y-95694476D01*
X169838380Y-95694476D01*
X170838380Y-94694476D02*
X170838380Y-95265904D01*
X170838380Y-94980190D02*
X169838380Y-94980190D01*
X169981238Y-95075428D01*
X170076476Y-95170666D01*
X170124095Y-95265904D01*
X157226095Y-79291380D02*
X157226095Y-80100904D01*
X157273714Y-80196142D01*
X157321333Y-80243761D01*
X157416571Y-80291380D01*
X157607047Y-80291380D01*
X157702285Y-80243761D01*
X157749904Y-80196142D01*
X157797523Y-80100904D01*
X157797523Y-79291380D01*
X158226095Y-79386619D02*
X158273714Y-79339000D01*
X158368952Y-79291380D01*
X158607047Y-79291380D01*
X158702285Y-79339000D01*
X158749904Y-79386619D01*
X158797523Y-79481857D01*
X158797523Y-79577095D01*
X158749904Y-79719952D01*
X158178476Y-80291380D01*
X158797523Y-80291380D01*
M02*
