M48
; DRILL file {KiCad (5.1.4)-1} date 4/13/2022 8:27:12 AM
; FORMAT={-:-/ absolute / inch / decimal}
; #@! TF.CreationDate,2022-04-13T08:27:12-06:00
; #@! TF.GenerationSoftware,Kicad,Pcbnew,(5.1.4)-1
; #@! TF.FileFunction,Plated,1,2,PTH
FMAT,2
INCH
T1C0.0315
T2C0.0354
T3C0.0394
T4C0.0433
%
G90
G05
T1
X5.3Y-3.565
X5.0Y-3.8013
X5.0Y-4.2737
X5.3Y-4.2737
X6.2013Y-4.34
X6.28Y-4.34
X5.0Y-4.0375
X5.3Y-4.0375
X6.07Y-3.235
X6.07Y-3.335
X6.07Y-3.435
X6.07Y-3.535
X6.37Y-3.235
X6.37Y-3.335
X6.37Y-3.435
X6.37Y-3.535
X5.0Y-3.565
X5.3Y-3.8013
X5.585Y-3.2301
X5.585Y-3.3285
X5.0Y-4.51
X5.3Y-4.51
X5.835Y-3.2301
X5.835Y-3.3285
T2
X5.2881Y-4.6651
X5.2881Y-4.795
X5.3866Y-4.6651
X5.3866Y-4.795
X5.485Y-4.6651
X5.485Y-4.795
X5.76Y-4.72
X5.86Y-4.72
T3
X6.565Y-4.21
X6.565Y-4.31
X6.565Y-4.41
X5.345Y-3.26
X5.345Y-3.36
X6.1138Y-4.66
X6.2138Y-4.66
X6.3138Y-4.66
X6.1281Y-3.905
X6.325Y-3.905
T4
X5.5Y-3.9825
X5.9Y-3.9825
X5.5Y-4.2168
X5.9Y-4.2168
X5.5Y-3.7482
X5.9Y-3.7482
X5.9Y-3.5139
X6.54Y-3.66
X6.54Y-3.76
X6.54Y-3.86
X5.5Y-4.4511
X5.9Y-4.4511
X5.5Y-3.5139
T0
M30
