G04 #@! TF.GenerationSoftware,KiCad,Pcbnew,(5.1.4)-1*
G04 #@! TF.CreationDate,2022-04-26T14:24:58-06:00*
G04 #@! TF.ProjectId,UselessBox V2,5573656c-6573-4734-926f-782056322e6b,2*
G04 #@! TF.SameCoordinates,Original*
G04 #@! TF.FileFunction,Copper,L2,Bot*
G04 #@! TF.FilePolarity,Positive*
%FSLAX46Y46*%
G04 Gerber Fmt 4.6, Leading zero omitted, Abs format (unit mm)*
G04 Created by KiCad (PCBNEW (5.1.4)-1) date 2022-04-26 14:24:58*
%MOMM*%
%LPD*%
G04 APERTURE LIST*
%ADD10C,1.600000*%
%ADD11O,1.700000X1.700000*%
%ADD12R,1.700000X1.700000*%
%ADD13O,2.200000X2.200000*%
%ADD14R,2.200000X2.200000*%
%ADD15R,2.000000X2.000000*%
%ADD16C,2.000000*%
%ADD17R,1.600000X1.600000*%
%ADD18R,1.800000X1.800000*%
%ADD19C,1.800000*%
%ADD20O,1.600000X1.600000*%
%ADD21R,1.400000X1.400000*%
%ADD22C,1.400000*%
%ADD23R,2.000000X1.905000*%
%ADD24O,2.000000X1.905000*%
%ADD25R,2.400000X1.600000*%
%ADD26O,2.400000X1.600000*%
%ADD27C,1.000000*%
%ADD28C,0.300000*%
%ADD29C,0.250000*%
%ADD30C,0.254000*%
G04 APERTURE END LIST*
D10*
X141859000Y-84544000D03*
X141859000Y-82044000D03*
D11*
X135763000Y-82804000D03*
D12*
X135763000Y-85344000D03*
D11*
X160370677Y-118364000D03*
X157830677Y-118364000D03*
D12*
X155290677Y-118364000D03*
D13*
X149860000Y-113057000D03*
D14*
X139700000Y-113057000D03*
D13*
X149860000Y-107106250D03*
D14*
X139700000Y-107106250D03*
D13*
X149860000Y-101155500D03*
D14*
X139700000Y-101155500D03*
D13*
X149860000Y-95204750D03*
D14*
X139700000Y-95204750D03*
D13*
X149860000Y-89254000D03*
D14*
X139700000Y-89254000D03*
D15*
X160655000Y-99187000D03*
D16*
X155655000Y-99187000D03*
D17*
X159512000Y-110236000D03*
D10*
X157512000Y-110236000D03*
X148209000Y-82044000D03*
X148209000Y-84544000D03*
D18*
X146304000Y-119888000D03*
D19*
X148844000Y-119888000D03*
D12*
X166751000Y-112014000D03*
D11*
X166751000Y-109474000D03*
X166751000Y-106934000D03*
D10*
X127000000Y-90551000D03*
D20*
X134620000Y-90551000D03*
X134620000Y-96551750D03*
D10*
X127000000Y-96551750D03*
X127000000Y-102552500D03*
D20*
X134620000Y-102552500D03*
X134620000Y-108553250D03*
D10*
X127000000Y-108553250D03*
X127000000Y-114554000D03*
D20*
X134620000Y-114554000D03*
D21*
X139319000Y-121793000D03*
D22*
X136819000Y-121793000D03*
X134319000Y-121793000D03*
X139319000Y-118493000D03*
X136819000Y-118493000D03*
X134319000Y-118493000D03*
D23*
X166116000Y-92964000D03*
D24*
X166116000Y-95504000D03*
X166116000Y-98044000D03*
D25*
X154178000Y-82169000D03*
D26*
X161798000Y-89789000D03*
X154178000Y-84709000D03*
X161798000Y-87249000D03*
X154178000Y-87249000D03*
X161798000Y-84709000D03*
X154178000Y-89789000D03*
X161798000Y-82169000D03*
D27*
X138277600Y-84023200D03*
X136804400Y-97790000D03*
X136753600Y-88138000D03*
X137109200Y-93776800D03*
D28*
X154382250Y-107106250D02*
X149860000Y-107106250D01*
X157512000Y-110236000D02*
X154382250Y-107106250D01*
X153842250Y-99187000D02*
X155655000Y-99187000D01*
X149860000Y-95204750D02*
X153842250Y-99187000D01*
X154053000Y-82044000D02*
X154178000Y-82169000D01*
X148209000Y-82044000D02*
X154053000Y-82044000D01*
X167416000Y-95504000D02*
X166116000Y-95504000D01*
X167566001Y-95353999D02*
X167416000Y-95504000D01*
X167566001Y-85769220D02*
X167566001Y-95353999D01*
X162715771Y-80918990D02*
X167566001Y-85769220D01*
X156928010Y-80918990D02*
X162715771Y-80918990D01*
X155678000Y-82169000D02*
X156928010Y-80918990D01*
X154178000Y-82169000D02*
X155678000Y-82169000D01*
X167600999Y-106084001D02*
X166751000Y-106934000D01*
X167416000Y-95504000D02*
X167600999Y-95688999D01*
X167600999Y-95688999D02*
X167600999Y-106084001D01*
X155655000Y-101311250D02*
X155655000Y-99187000D01*
X149860000Y-107106250D02*
X155655000Y-101311250D01*
X141859000Y-82044000D02*
X148209000Y-82044000D01*
D29*
X141125001Y-105545503D02*
X141125001Y-105565001D01*
D28*
X134620000Y-99005146D02*
X134637678Y-99022824D01*
X134620000Y-96551750D02*
X134620000Y-99005146D01*
X138750007Y-103190007D02*
X141125001Y-105565001D01*
X138750007Y-103135153D02*
X138750007Y-103190007D01*
X134620000Y-99005146D02*
X138750007Y-103135153D01*
X141125001Y-105565001D02*
X146304000Y-110744000D01*
X146304000Y-110744000D02*
X146304000Y-111912400D01*
X152755600Y-118364000D02*
X155290677Y-118364000D01*
X146304000Y-111912400D02*
X152755600Y-118364000D01*
D29*
X158680676Y-117514001D02*
X157830677Y-118364000D01*
X163323010Y-112871667D02*
X158680676Y-117514001D01*
X163323010Y-86783006D02*
X163323010Y-112871667D01*
X161798000Y-85257996D02*
X163323010Y-86783006D01*
X161798000Y-84709000D02*
X161798000Y-85257996D01*
D28*
X139700000Y-93804750D02*
X139700000Y-95204750D01*
X144250750Y-89254000D02*
X139700000Y-93804750D01*
X149860000Y-89254000D02*
X144250750Y-89254000D01*
X138300000Y-95204750D02*
X139700000Y-95204750D01*
X134264998Y-95204750D02*
X138300000Y-95204750D01*
X133469999Y-98562265D02*
X133469999Y-95999749D01*
X138249999Y-103342265D02*
X133469999Y-98562265D01*
X133469999Y-95999749D02*
X134264998Y-95204750D01*
X138249999Y-119723999D02*
X138249999Y-103342265D01*
X139319000Y-120793000D02*
X138249999Y-119723999D01*
X139319000Y-121793000D02*
X139319000Y-120793000D01*
X148760001Y-100055501D02*
X149860000Y-101155500D01*
X148309999Y-99605499D02*
X148760001Y-100055501D01*
X148309999Y-94460749D02*
X148309999Y-99605499D01*
X151310001Y-91460747D02*
X148309999Y-94460749D01*
X151310001Y-88557999D02*
X151310001Y-91460747D01*
X150556001Y-87803999D02*
X151310001Y-88557999D01*
X141260001Y-87803999D02*
X150556001Y-87803999D01*
X138800002Y-85344000D02*
X141260001Y-87803999D01*
X135763000Y-85344000D02*
X138800002Y-85344000D01*
X135829051Y-121793000D02*
X136819000Y-121793000D01*
X132969989Y-118933938D02*
X135829051Y-121793000D01*
X135763000Y-82804000D02*
X134560919Y-82804000D01*
X132969989Y-95792639D02*
X132969989Y-118933938D01*
X135870001Y-92892627D02*
X132969989Y-95792639D01*
X135870001Y-89950999D02*
X135870001Y-92892627D01*
X134560919Y-88641917D02*
X135870001Y-89950999D01*
X134560919Y-82804000D02*
X134560919Y-88641917D01*
X154578000Y-89789000D02*
X154178000Y-89789000D01*
X160298000Y-84069000D02*
X154578000Y-89789000D01*
X160298000Y-83269000D02*
X160298000Y-84069000D01*
X161398000Y-82169000D02*
X160298000Y-83269000D01*
X161798000Y-82169000D02*
X161398000Y-82169000D01*
D30*
G36*
X169683875Y-78540234D02*
G01*
X169939622Y-78617448D01*
X170175504Y-78742869D01*
X170382530Y-78911716D01*
X170552813Y-79117554D01*
X170679879Y-79352556D01*
X170758876Y-79607756D01*
X170790000Y-79903882D01*
X170790001Y-122399675D01*
X170760766Y-122697840D01*
X170683551Y-122953588D01*
X170558131Y-123189468D01*
X170389289Y-123396489D01*
X170183446Y-123566777D01*
X169948444Y-123693843D01*
X169693240Y-123772841D01*
X169397136Y-123803962D01*
X126397319Y-123800004D01*
X126099124Y-123770766D01*
X125843376Y-123693551D01*
X125607496Y-123568131D01*
X125400475Y-123399289D01*
X125230187Y-123193446D01*
X125103121Y-122958444D01*
X125024123Y-122703240D01*
X124993000Y-122407118D01*
X124993000Y-120925071D01*
X125478623Y-120925071D01*
X125478623Y-121390929D01*
X125569507Y-121847835D01*
X125747783Y-122278232D01*
X126006600Y-122665579D01*
X126336011Y-122994990D01*
X126723358Y-123253807D01*
X127153755Y-123432083D01*
X127610661Y-123522967D01*
X128076519Y-123522967D01*
X128533425Y-123432083D01*
X128963822Y-123253807D01*
X129351169Y-122994990D01*
X129680580Y-122665579D01*
X129939397Y-122278232D01*
X130117673Y-121847835D01*
X130208557Y-121390929D01*
X130208557Y-120925071D01*
X130117673Y-120468165D01*
X129939397Y-120037768D01*
X129680580Y-119650421D01*
X129351169Y-119321010D01*
X128963822Y-119062193D01*
X128533425Y-118883917D01*
X128076519Y-118793033D01*
X127610661Y-118793033D01*
X127153755Y-118883917D01*
X126723358Y-119062193D01*
X126336011Y-119321010D01*
X126006600Y-119650421D01*
X125747783Y-120037768D01*
X125569507Y-120468165D01*
X125478623Y-120925071D01*
X124993000Y-120925071D01*
X124993000Y-114412665D01*
X125565000Y-114412665D01*
X125565000Y-114695335D01*
X125620147Y-114972574D01*
X125728320Y-115233727D01*
X125885363Y-115468759D01*
X126085241Y-115668637D01*
X126320273Y-115825680D01*
X126581426Y-115933853D01*
X126858665Y-115989000D01*
X127141335Y-115989000D01*
X127418574Y-115933853D01*
X127679727Y-115825680D01*
X127914759Y-115668637D01*
X128114637Y-115468759D01*
X128271680Y-115233727D01*
X128379853Y-114972574D01*
X128435000Y-114695335D01*
X128435000Y-114412665D01*
X128379853Y-114135426D01*
X128271680Y-113874273D01*
X128114637Y-113639241D01*
X127914759Y-113439363D01*
X127679727Y-113282320D01*
X127418574Y-113174147D01*
X127141335Y-113119000D01*
X126858665Y-113119000D01*
X126581426Y-113174147D01*
X126320273Y-113282320D01*
X126085241Y-113439363D01*
X125885363Y-113639241D01*
X125728320Y-113874273D01*
X125620147Y-114135426D01*
X125565000Y-114412665D01*
X124993000Y-114412665D01*
X124993000Y-108411915D01*
X125565000Y-108411915D01*
X125565000Y-108694585D01*
X125620147Y-108971824D01*
X125728320Y-109232977D01*
X125885363Y-109468009D01*
X126085241Y-109667887D01*
X126320273Y-109824930D01*
X126581426Y-109933103D01*
X126858665Y-109988250D01*
X127141335Y-109988250D01*
X127418574Y-109933103D01*
X127679727Y-109824930D01*
X127914759Y-109667887D01*
X128114637Y-109468009D01*
X128271680Y-109232977D01*
X128379853Y-108971824D01*
X128435000Y-108694585D01*
X128435000Y-108411915D01*
X128379853Y-108134676D01*
X128271680Y-107873523D01*
X128114637Y-107638491D01*
X127914759Y-107438613D01*
X127679727Y-107281570D01*
X127418574Y-107173397D01*
X127141335Y-107118250D01*
X126858665Y-107118250D01*
X126581426Y-107173397D01*
X126320273Y-107281570D01*
X126085241Y-107438613D01*
X125885363Y-107638491D01*
X125728320Y-107873523D01*
X125620147Y-108134676D01*
X125565000Y-108411915D01*
X124993000Y-108411915D01*
X124993000Y-102411165D01*
X125565000Y-102411165D01*
X125565000Y-102693835D01*
X125620147Y-102971074D01*
X125728320Y-103232227D01*
X125885363Y-103467259D01*
X126085241Y-103667137D01*
X126320273Y-103824180D01*
X126581426Y-103932353D01*
X126858665Y-103987500D01*
X127141335Y-103987500D01*
X127418574Y-103932353D01*
X127679727Y-103824180D01*
X127914759Y-103667137D01*
X128114637Y-103467259D01*
X128271680Y-103232227D01*
X128379853Y-102971074D01*
X128435000Y-102693835D01*
X128435000Y-102411165D01*
X128379853Y-102133926D01*
X128271680Y-101872773D01*
X128114637Y-101637741D01*
X127914759Y-101437863D01*
X127679727Y-101280820D01*
X127418574Y-101172647D01*
X127141335Y-101117500D01*
X126858665Y-101117500D01*
X126581426Y-101172647D01*
X126320273Y-101280820D01*
X126085241Y-101437863D01*
X125885363Y-101637741D01*
X125728320Y-101872773D01*
X125620147Y-102133926D01*
X125565000Y-102411165D01*
X124993000Y-102411165D01*
X124993000Y-96410415D01*
X125565000Y-96410415D01*
X125565000Y-96693085D01*
X125620147Y-96970324D01*
X125728320Y-97231477D01*
X125885363Y-97466509D01*
X126085241Y-97666387D01*
X126320273Y-97823430D01*
X126581426Y-97931603D01*
X126858665Y-97986750D01*
X127141335Y-97986750D01*
X127418574Y-97931603D01*
X127679727Y-97823430D01*
X127914759Y-97666387D01*
X128114637Y-97466509D01*
X128271680Y-97231477D01*
X128379853Y-96970324D01*
X128435000Y-96693085D01*
X128435000Y-96410415D01*
X128379853Y-96133176D01*
X128271680Y-95872023D01*
X128218638Y-95792639D01*
X132181192Y-95792639D01*
X132184989Y-95831192D01*
X132184990Y-118895375D01*
X132181192Y-118933938D01*
X132196348Y-119087824D01*
X132241235Y-119235797D01*
X132241236Y-119235798D01*
X132314128Y-119372171D01*
X132352670Y-119419134D01*
X132387644Y-119461750D01*
X132387648Y-119461754D01*
X132412226Y-119491702D01*
X132442174Y-119516280D01*
X133596238Y-120670344D01*
X133467987Y-120756038D01*
X133282038Y-120941987D01*
X133135939Y-121160641D01*
X133035304Y-121403595D01*
X132984000Y-121661514D01*
X132984000Y-121924486D01*
X133035304Y-122182405D01*
X133135939Y-122425359D01*
X133282038Y-122644013D01*
X133467987Y-122829962D01*
X133686641Y-122976061D01*
X133929595Y-123076696D01*
X134187514Y-123128000D01*
X134450486Y-123128000D01*
X134708405Y-123076696D01*
X134951359Y-122976061D01*
X135170013Y-122829962D01*
X135355962Y-122644013D01*
X135461215Y-122486490D01*
X135527191Y-122521754D01*
X135620026Y-122549915D01*
X135675163Y-122566641D01*
X135689541Y-122568057D01*
X135734227Y-122572458D01*
X135782038Y-122644013D01*
X135967987Y-122829962D01*
X136186641Y-122976061D01*
X136429595Y-123076696D01*
X136687514Y-123128000D01*
X136950486Y-123128000D01*
X137208405Y-123076696D01*
X137451359Y-122976061D01*
X137670013Y-122829962D01*
X137855962Y-122644013D01*
X137980928Y-122456987D01*
X137980928Y-122493000D01*
X137993188Y-122617482D01*
X138029498Y-122737180D01*
X138088463Y-122847494D01*
X138167815Y-122944185D01*
X138264506Y-123023537D01*
X138374820Y-123082502D01*
X138494518Y-123118812D01*
X138619000Y-123131072D01*
X140019000Y-123131072D01*
X140143482Y-123118812D01*
X140263180Y-123082502D01*
X140373494Y-123023537D01*
X140470185Y-122944185D01*
X140549537Y-122847494D01*
X140608502Y-122737180D01*
X140644812Y-122617482D01*
X140657072Y-122493000D01*
X140657072Y-121093000D01*
X140644812Y-120968518D01*
X140608502Y-120848820D01*
X140549537Y-120738506D01*
X140470185Y-120641815D01*
X140373494Y-120562463D01*
X140263180Y-120503498D01*
X140143482Y-120467188D01*
X140028921Y-120455905D01*
X139974862Y-120354767D01*
X139876764Y-120235236D01*
X139846810Y-120210653D01*
X139461889Y-119825732D01*
X139708405Y-119776696D01*
X139951359Y-119676061D01*
X140170013Y-119529962D01*
X140355962Y-119344013D01*
X140502061Y-119125359D01*
X140558957Y-118988000D01*
X144765928Y-118988000D01*
X144765928Y-120788000D01*
X144778188Y-120912482D01*
X144814498Y-121032180D01*
X144873463Y-121142494D01*
X144952815Y-121239185D01*
X145049506Y-121318537D01*
X145159820Y-121377502D01*
X145279518Y-121413812D01*
X145404000Y-121426072D01*
X147204000Y-121426072D01*
X147328482Y-121413812D01*
X147448180Y-121377502D01*
X147558494Y-121318537D01*
X147655185Y-121239185D01*
X147734537Y-121142494D01*
X147793502Y-121032180D01*
X147799056Y-121013873D01*
X147865495Y-121080312D01*
X148116905Y-121248299D01*
X148396257Y-121364011D01*
X148692816Y-121423000D01*
X148995184Y-121423000D01*
X149291743Y-121364011D01*
X149571095Y-121248299D01*
X149822505Y-121080312D01*
X149977746Y-120925071D01*
X165478623Y-120925071D01*
X165478623Y-121390929D01*
X165569507Y-121847835D01*
X165747783Y-122278232D01*
X166006600Y-122665579D01*
X166336011Y-122994990D01*
X166723358Y-123253807D01*
X167153755Y-123432083D01*
X167610661Y-123522967D01*
X168076519Y-123522967D01*
X168533425Y-123432083D01*
X168963822Y-123253807D01*
X169351169Y-122994990D01*
X169680580Y-122665579D01*
X169939397Y-122278232D01*
X170117673Y-121847835D01*
X170208557Y-121390929D01*
X170208557Y-120925071D01*
X170117673Y-120468165D01*
X169939397Y-120037768D01*
X169680580Y-119650421D01*
X169351169Y-119321010D01*
X168963822Y-119062193D01*
X168533425Y-118883917D01*
X168076519Y-118793033D01*
X167610661Y-118793033D01*
X167153755Y-118883917D01*
X166723358Y-119062193D01*
X166336011Y-119321010D01*
X166006600Y-119650421D01*
X165747783Y-120037768D01*
X165569507Y-120468165D01*
X165478623Y-120925071D01*
X149977746Y-120925071D01*
X150036312Y-120866505D01*
X150204299Y-120615095D01*
X150320011Y-120335743D01*
X150379000Y-120039184D01*
X150379000Y-119736816D01*
X150320011Y-119440257D01*
X150204299Y-119160905D01*
X150036312Y-118909495D01*
X149822505Y-118695688D01*
X149571095Y-118527701D01*
X149291743Y-118411989D01*
X148995184Y-118353000D01*
X148692816Y-118353000D01*
X148396257Y-118411989D01*
X148116905Y-118527701D01*
X147865495Y-118695688D01*
X147799056Y-118762127D01*
X147793502Y-118743820D01*
X147734537Y-118633506D01*
X147655185Y-118536815D01*
X147558494Y-118457463D01*
X147448180Y-118398498D01*
X147328482Y-118362188D01*
X147204000Y-118349928D01*
X145404000Y-118349928D01*
X145279518Y-118362188D01*
X145159820Y-118398498D01*
X145049506Y-118457463D01*
X144952815Y-118536815D01*
X144873463Y-118633506D01*
X144814498Y-118743820D01*
X144778188Y-118863518D01*
X144765928Y-118988000D01*
X140558957Y-118988000D01*
X140602696Y-118882405D01*
X140654000Y-118624486D01*
X140654000Y-118361514D01*
X140602696Y-118103595D01*
X140502061Y-117860641D01*
X140355962Y-117641987D01*
X140170013Y-117456038D01*
X139951359Y-117309939D01*
X139708405Y-117209304D01*
X139450486Y-117158000D01*
X139187514Y-117158000D01*
X139034999Y-117188338D01*
X139034999Y-114795072D01*
X140800000Y-114795072D01*
X140924482Y-114782812D01*
X141044180Y-114746502D01*
X141154494Y-114687537D01*
X141251185Y-114608185D01*
X141330537Y-114511494D01*
X141389502Y-114401180D01*
X141425812Y-114281482D01*
X141438072Y-114157000D01*
X141438072Y-111957000D01*
X141425812Y-111832518D01*
X141389502Y-111712820D01*
X141330537Y-111602506D01*
X141251185Y-111505815D01*
X141154494Y-111426463D01*
X141044180Y-111367498D01*
X140924482Y-111331188D01*
X140800000Y-111318928D01*
X139034999Y-111318928D01*
X139034999Y-108844322D01*
X140800000Y-108844322D01*
X140924482Y-108832062D01*
X141044180Y-108795752D01*
X141154494Y-108736787D01*
X141251185Y-108657435D01*
X141330537Y-108560744D01*
X141389502Y-108450430D01*
X141425812Y-108330732D01*
X141438072Y-108206250D01*
X141438072Y-106988229D01*
X145519000Y-111069157D01*
X145519001Y-111873838D01*
X145515203Y-111912400D01*
X145530359Y-112066286D01*
X145575246Y-112214259D01*
X145609177Y-112277740D01*
X145648139Y-112350633D01*
X145680309Y-112389832D01*
X145721655Y-112440212D01*
X145721659Y-112440216D01*
X145746237Y-112470164D01*
X145776185Y-112494742D01*
X152173258Y-118891816D01*
X152197836Y-118921764D01*
X152227784Y-118946342D01*
X152227787Y-118946345D01*
X152232677Y-118950358D01*
X152317367Y-119019862D01*
X152453740Y-119092754D01*
X152561225Y-119125359D01*
X152601712Y-119137641D01*
X152616090Y-119139057D01*
X152717039Y-119149000D01*
X152717046Y-119149000D01*
X152755599Y-119152797D01*
X152794152Y-119149000D01*
X153802605Y-119149000D01*
X153802605Y-119214000D01*
X153814865Y-119338482D01*
X153851175Y-119458180D01*
X153910140Y-119568494D01*
X153989492Y-119665185D01*
X154086183Y-119744537D01*
X154196497Y-119803502D01*
X154316195Y-119839812D01*
X154440677Y-119852072D01*
X156140677Y-119852072D01*
X156265159Y-119839812D01*
X156384857Y-119803502D01*
X156495171Y-119744537D01*
X156591862Y-119665185D01*
X156671214Y-119568494D01*
X156730179Y-119458180D01*
X156751070Y-119389313D01*
X156775543Y-119419134D01*
X157001663Y-119604706D01*
X157259643Y-119742599D01*
X157539566Y-119827513D01*
X157757727Y-119849000D01*
X157903627Y-119849000D01*
X158121788Y-119827513D01*
X158401711Y-119742599D01*
X158659691Y-119604706D01*
X158885811Y-119419134D01*
X159071383Y-119193014D01*
X159100677Y-119138209D01*
X159129971Y-119193014D01*
X159315543Y-119419134D01*
X159541663Y-119604706D01*
X159799643Y-119742599D01*
X160079566Y-119827513D01*
X160297727Y-119849000D01*
X160443627Y-119849000D01*
X160661788Y-119827513D01*
X160941711Y-119742599D01*
X161199691Y-119604706D01*
X161425811Y-119419134D01*
X161611383Y-119193014D01*
X161749276Y-118935034D01*
X161834190Y-118655111D01*
X161862862Y-118364000D01*
X161834190Y-118072889D01*
X161749276Y-117792966D01*
X161611383Y-117534986D01*
X161425811Y-117308866D01*
X161199691Y-117123294D01*
X160941711Y-116985401D01*
X160661788Y-116900487D01*
X160443627Y-116879000D01*
X160390478Y-116879000D01*
X163834013Y-113435466D01*
X163863011Y-113411668D01*
X163957984Y-113295943D01*
X164028556Y-113163914D01*
X164072013Y-113020653D01*
X164083010Y-112909000D01*
X164083010Y-112908992D01*
X164086686Y-112871667D01*
X164083010Y-112834342D01*
X164083010Y-109474000D01*
X165258815Y-109474000D01*
X165287487Y-109765111D01*
X165372401Y-110045034D01*
X165510294Y-110303014D01*
X165695866Y-110529134D01*
X165725687Y-110553607D01*
X165656820Y-110574498D01*
X165546506Y-110633463D01*
X165449815Y-110712815D01*
X165370463Y-110809506D01*
X165311498Y-110919820D01*
X165275188Y-111039518D01*
X165262928Y-111164000D01*
X165262928Y-112864000D01*
X165275188Y-112988482D01*
X165311498Y-113108180D01*
X165370463Y-113218494D01*
X165449815Y-113315185D01*
X165546506Y-113394537D01*
X165656820Y-113453502D01*
X165776518Y-113489812D01*
X165901000Y-113502072D01*
X167601000Y-113502072D01*
X167725482Y-113489812D01*
X167845180Y-113453502D01*
X167955494Y-113394537D01*
X168052185Y-113315185D01*
X168131537Y-113218494D01*
X168190502Y-113108180D01*
X168226812Y-112988482D01*
X168239072Y-112864000D01*
X168239072Y-111164000D01*
X168226812Y-111039518D01*
X168190502Y-110919820D01*
X168131537Y-110809506D01*
X168052185Y-110712815D01*
X167955494Y-110633463D01*
X167845180Y-110574498D01*
X167776313Y-110553607D01*
X167806134Y-110529134D01*
X167991706Y-110303014D01*
X168129599Y-110045034D01*
X168214513Y-109765111D01*
X168243185Y-109474000D01*
X168214513Y-109182889D01*
X168129599Y-108902966D01*
X167991706Y-108644986D01*
X167806134Y-108418866D01*
X167580014Y-108233294D01*
X167515477Y-108198799D01*
X167632355Y-108129178D01*
X167848588Y-107934269D01*
X168022641Y-107700920D01*
X168147825Y-107438099D01*
X168192476Y-107290890D01*
X168071155Y-107061000D01*
X166878000Y-107061000D01*
X166878000Y-107081000D01*
X166624000Y-107081000D01*
X166624000Y-107061000D01*
X165430845Y-107061000D01*
X165309524Y-107290890D01*
X165354175Y-107438099D01*
X165479359Y-107700920D01*
X165653412Y-107934269D01*
X165869645Y-108129178D01*
X165986523Y-108198799D01*
X165921986Y-108233294D01*
X165695866Y-108418866D01*
X165510294Y-108644986D01*
X165372401Y-108902966D01*
X165287487Y-109182889D01*
X165258815Y-109474000D01*
X164083010Y-109474000D01*
X164083010Y-106577110D01*
X165309524Y-106577110D01*
X165430845Y-106807000D01*
X166624000Y-106807000D01*
X166624000Y-105613186D01*
X166878000Y-105613186D01*
X166878000Y-106807000D01*
X168071155Y-106807000D01*
X168192476Y-106577110D01*
X168147825Y-106429901D01*
X168022641Y-106167080D01*
X167848588Y-105933731D01*
X167632355Y-105738822D01*
X167382252Y-105589843D01*
X167107891Y-105492519D01*
X166878000Y-105613186D01*
X166624000Y-105613186D01*
X166394109Y-105492519D01*
X166119748Y-105589843D01*
X165869645Y-105738822D01*
X165653412Y-105933731D01*
X165479359Y-106167080D01*
X165354175Y-106429901D01*
X165309524Y-106577110D01*
X164083010Y-106577110D01*
X164083010Y-98044000D01*
X164473319Y-98044000D01*
X164503970Y-98355204D01*
X164594745Y-98654449D01*
X164742155Y-98930235D01*
X164940537Y-99171963D01*
X165182265Y-99370345D01*
X165458051Y-99517755D01*
X165757296Y-99608530D01*
X165990514Y-99631500D01*
X166241486Y-99631500D01*
X166474704Y-99608530D01*
X166773949Y-99517755D01*
X167049735Y-99370345D01*
X167291463Y-99171963D01*
X167489845Y-98930235D01*
X167637255Y-98654449D01*
X167728030Y-98355204D01*
X167758681Y-98044000D01*
X167728030Y-97732796D01*
X167637255Y-97433551D01*
X167489845Y-97157765D01*
X167291463Y-96916037D01*
X167112101Y-96768837D01*
X167297315Y-96613437D01*
X167491969Y-96370923D01*
X167635571Y-96095094D01*
X167706563Y-95876980D01*
X167586594Y-95631000D01*
X166243000Y-95631000D01*
X166243000Y-95651000D01*
X165989000Y-95651000D01*
X165989000Y-95631000D01*
X164645406Y-95631000D01*
X164525437Y-95876980D01*
X164596429Y-96095094D01*
X164740031Y-96370923D01*
X164934685Y-96613437D01*
X165119899Y-96768837D01*
X164940537Y-96916037D01*
X164742155Y-97157765D01*
X164594745Y-97433551D01*
X164503970Y-97732796D01*
X164473319Y-98044000D01*
X164083010Y-98044000D01*
X164083010Y-92011500D01*
X164477928Y-92011500D01*
X164477928Y-93916500D01*
X164490188Y-94040982D01*
X164526498Y-94160680D01*
X164585463Y-94270994D01*
X164664815Y-94367685D01*
X164761506Y-94447037D01*
X164853219Y-94496059D01*
X164740031Y-94637077D01*
X164596429Y-94912906D01*
X164525437Y-95131020D01*
X164645406Y-95377000D01*
X165989000Y-95377000D01*
X165989000Y-95357000D01*
X166243000Y-95357000D01*
X166243000Y-95377000D01*
X167586594Y-95377000D01*
X167706563Y-95131020D01*
X167635571Y-94912906D01*
X167491969Y-94637077D01*
X167378781Y-94496059D01*
X167470494Y-94447037D01*
X167567185Y-94367685D01*
X167646537Y-94270994D01*
X167705502Y-94160680D01*
X167741812Y-94040982D01*
X167754072Y-93916500D01*
X167754072Y-92011500D01*
X167741812Y-91887018D01*
X167705502Y-91767320D01*
X167646537Y-91657006D01*
X167567185Y-91560315D01*
X167470494Y-91480963D01*
X167360180Y-91421998D01*
X167240482Y-91385688D01*
X167116000Y-91373428D01*
X165116000Y-91373428D01*
X164991518Y-91385688D01*
X164871820Y-91421998D01*
X164761506Y-91480963D01*
X164664815Y-91560315D01*
X164585463Y-91657006D01*
X164526498Y-91767320D01*
X164490188Y-91887018D01*
X164477928Y-92011500D01*
X164083010Y-92011500D01*
X164083010Y-86820329D01*
X164086686Y-86783006D01*
X164083010Y-86745683D01*
X164083010Y-86745673D01*
X164072013Y-86634020D01*
X164028556Y-86490759D01*
X163957984Y-86358730D01*
X163863011Y-86243005D01*
X163834014Y-86219208D01*
X163274315Y-85659510D01*
X163396932Y-85510101D01*
X163530182Y-85260808D01*
X163612236Y-84990309D01*
X163639943Y-84709000D01*
X163612236Y-84427691D01*
X163530182Y-84157192D01*
X163396932Y-83907899D01*
X163217608Y-83689392D01*
X162999101Y-83510068D01*
X162866142Y-83439000D01*
X162999101Y-83367932D01*
X163217608Y-83188608D01*
X163396932Y-82970101D01*
X163530182Y-82720808D01*
X163612236Y-82450309D01*
X163639943Y-82169000D01*
X163612236Y-81887691D01*
X163530182Y-81617192D01*
X163396932Y-81367899D01*
X163217608Y-81149392D01*
X162999101Y-80970068D01*
X162914918Y-80925071D01*
X165478623Y-80925071D01*
X165478623Y-81390929D01*
X165569507Y-81847835D01*
X165747783Y-82278232D01*
X166006600Y-82665579D01*
X166336011Y-82994990D01*
X166723358Y-83253807D01*
X167153755Y-83432083D01*
X167610661Y-83522967D01*
X168076519Y-83522967D01*
X168533425Y-83432083D01*
X168963822Y-83253807D01*
X169351169Y-82994990D01*
X169680580Y-82665579D01*
X169939397Y-82278232D01*
X170117673Y-81847835D01*
X170208557Y-81390929D01*
X170208557Y-80925071D01*
X170117673Y-80468165D01*
X169939397Y-80037768D01*
X169680580Y-79650421D01*
X169351169Y-79321010D01*
X168963822Y-79062193D01*
X168533425Y-78883917D01*
X168076519Y-78793033D01*
X167610661Y-78793033D01*
X167153755Y-78883917D01*
X166723358Y-79062193D01*
X166336011Y-79321010D01*
X166006600Y-79650421D01*
X165747783Y-80037768D01*
X165569507Y-80468165D01*
X165478623Y-80925071D01*
X162914918Y-80925071D01*
X162749808Y-80836818D01*
X162479309Y-80754764D01*
X162268492Y-80734000D01*
X161327508Y-80734000D01*
X161116691Y-80754764D01*
X160846192Y-80836818D01*
X160596899Y-80970068D01*
X160378392Y-81149392D01*
X160199068Y-81367899D01*
X160065818Y-81617192D01*
X159983764Y-81887691D01*
X159956057Y-82169000D01*
X159983764Y-82450309D01*
X159989063Y-82467779D01*
X159770190Y-82686653D01*
X159740236Y-82711236D01*
X159642138Y-82830768D01*
X159569246Y-82967141D01*
X159524359Y-83115114D01*
X159513000Y-83230440D01*
X159513000Y-83230447D01*
X159509203Y-83269000D01*
X159513000Y-83307553D01*
X159513000Y-83743843D01*
X156018858Y-87237985D01*
X155992236Y-86967691D01*
X155910182Y-86697192D01*
X155776932Y-86447899D01*
X155597608Y-86229392D01*
X155379101Y-86050068D01*
X155246142Y-85979000D01*
X155379101Y-85907932D01*
X155597608Y-85728608D01*
X155776932Y-85510101D01*
X155910182Y-85260808D01*
X155992236Y-84990309D01*
X156019943Y-84709000D01*
X155992236Y-84427691D01*
X155910182Y-84157192D01*
X155776932Y-83907899D01*
X155597608Y-83689392D01*
X155484518Y-83596581D01*
X155502482Y-83594812D01*
X155622180Y-83558502D01*
X155732494Y-83499537D01*
X155829185Y-83420185D01*
X155908537Y-83323494D01*
X155967502Y-83213180D01*
X156003812Y-83093482D01*
X156016072Y-82969000D01*
X156013000Y-82454750D01*
X155854250Y-82296000D01*
X154305000Y-82296000D01*
X154305000Y-82316000D01*
X154051000Y-82316000D01*
X154051000Y-82296000D01*
X152501750Y-82296000D01*
X152343000Y-82454750D01*
X152339928Y-82969000D01*
X152352188Y-83093482D01*
X152388498Y-83213180D01*
X152447463Y-83323494D01*
X152526815Y-83420185D01*
X152623506Y-83499537D01*
X152733820Y-83558502D01*
X152853518Y-83594812D01*
X152871482Y-83596581D01*
X152758392Y-83689392D01*
X152579068Y-83907899D01*
X152445818Y-84157192D01*
X152363764Y-84427691D01*
X152336057Y-84709000D01*
X152363764Y-84990309D01*
X152445818Y-85260808D01*
X152579068Y-85510101D01*
X152758392Y-85728608D01*
X152976899Y-85907932D01*
X153109858Y-85979000D01*
X152976899Y-86050068D01*
X152758392Y-86229392D01*
X152579068Y-86447899D01*
X152445818Y-86697192D01*
X152363764Y-86967691D01*
X152336057Y-87249000D01*
X152363764Y-87530309D01*
X152445818Y-87800808D01*
X152579068Y-88050101D01*
X152758392Y-88268608D01*
X152976899Y-88447932D01*
X153109858Y-88519000D01*
X152976899Y-88590068D01*
X152758392Y-88769392D01*
X152579068Y-88987899D01*
X152445818Y-89237192D01*
X152363764Y-89507691D01*
X152336057Y-89789000D01*
X152363764Y-90070309D01*
X152445818Y-90340808D01*
X152579068Y-90590101D01*
X152758392Y-90808608D01*
X152976899Y-90987932D01*
X153226192Y-91121182D01*
X153496691Y-91203236D01*
X153707508Y-91224000D01*
X154648492Y-91224000D01*
X154859309Y-91203236D01*
X155129808Y-91121182D01*
X155379101Y-90987932D01*
X155597608Y-90808608D01*
X155776932Y-90590101D01*
X155910182Y-90340808D01*
X155992236Y-90070309D01*
X156019943Y-89789000D01*
X155992236Y-89507691D01*
X155986936Y-89490221D01*
X160118252Y-85358905D01*
X160199068Y-85510101D01*
X160378392Y-85728608D01*
X160596899Y-85907932D01*
X160729858Y-85979000D01*
X160596899Y-86050068D01*
X160378392Y-86229392D01*
X160199068Y-86447899D01*
X160065818Y-86697192D01*
X159983764Y-86967691D01*
X159956057Y-87249000D01*
X159983764Y-87530309D01*
X160065818Y-87800808D01*
X160199068Y-88050101D01*
X160378392Y-88268608D01*
X160596899Y-88447932D01*
X160729858Y-88519000D01*
X160596899Y-88590068D01*
X160378392Y-88769392D01*
X160199068Y-88987899D01*
X160065818Y-89237192D01*
X159983764Y-89507691D01*
X159956057Y-89789000D01*
X159983764Y-90070309D01*
X160065818Y-90340808D01*
X160199068Y-90590101D01*
X160378392Y-90808608D01*
X160596899Y-90987932D01*
X160846192Y-91121182D01*
X161116691Y-91203236D01*
X161327508Y-91224000D01*
X162268492Y-91224000D01*
X162479309Y-91203236D01*
X162563010Y-91177846D01*
X162563011Y-112556864D01*
X158196673Y-116923203D01*
X158121788Y-116900487D01*
X157903627Y-116879000D01*
X157757727Y-116879000D01*
X157539566Y-116900487D01*
X157259643Y-116985401D01*
X157001663Y-117123294D01*
X156775543Y-117308866D01*
X156751070Y-117338687D01*
X156730179Y-117269820D01*
X156671214Y-117159506D01*
X156591862Y-117062815D01*
X156495171Y-116983463D01*
X156384857Y-116924498D01*
X156265159Y-116888188D01*
X156140677Y-116875928D01*
X154440677Y-116875928D01*
X154316195Y-116888188D01*
X154196497Y-116924498D01*
X154086183Y-116983463D01*
X153989492Y-117062815D01*
X153910140Y-117159506D01*
X153851175Y-117269820D01*
X153814865Y-117389518D01*
X153802605Y-117514000D01*
X153802605Y-117579000D01*
X153080758Y-117579000D01*
X150252702Y-114750944D01*
X150527168Y-114667686D01*
X150828578Y-114506579D01*
X151092766Y-114289766D01*
X151309579Y-114025578D01*
X151470686Y-113724168D01*
X151569895Y-113397119D01*
X151603394Y-113057000D01*
X151569895Y-112716881D01*
X151470686Y-112389832D01*
X151309579Y-112088422D01*
X151092766Y-111824234D01*
X150828578Y-111607421D01*
X150527168Y-111446314D01*
X150200119Y-111347105D01*
X149945225Y-111322000D01*
X149774775Y-111322000D01*
X149519881Y-111347105D01*
X149192832Y-111446314D01*
X148891422Y-111607421D01*
X148627234Y-111824234D01*
X148410421Y-112088422D01*
X148249314Y-112389832D01*
X148166056Y-112664298D01*
X147089000Y-111587243D01*
X147089000Y-110782556D01*
X147092797Y-110744000D01*
X147089000Y-110705440D01*
X147089000Y-110705439D01*
X147081911Y-110633463D01*
X147077642Y-110590113D01*
X147032754Y-110442140D01*
X147018571Y-110415605D01*
X146960261Y-110306512D01*
X156071783Y-110306512D01*
X156113213Y-110586130D01*
X156208397Y-110852292D01*
X156275329Y-110977514D01*
X156519298Y-111049097D01*
X157332395Y-110236000D01*
X156519298Y-109422903D01*
X156275329Y-109494486D01*
X156154429Y-109749996D01*
X156085700Y-110024184D01*
X156071783Y-110306512D01*
X146960261Y-110306512D01*
X146959862Y-110305767D01*
X146861764Y-110186236D01*
X146831811Y-110161654D01*
X145913455Y-109243298D01*
X156698903Y-109243298D01*
X157512000Y-110056395D01*
X157526143Y-110042253D01*
X157705748Y-110221858D01*
X157691605Y-110236000D01*
X157705748Y-110250143D01*
X157526143Y-110429748D01*
X157512000Y-110415605D01*
X156698903Y-111228702D01*
X156770486Y-111472671D01*
X157025996Y-111593571D01*
X157300184Y-111662300D01*
X157582512Y-111676217D01*
X157862130Y-111634787D01*
X158128292Y-111539603D01*
X158250309Y-111474384D01*
X158260815Y-111487185D01*
X158357506Y-111566537D01*
X158467820Y-111625502D01*
X158587518Y-111661812D01*
X158712000Y-111674072D01*
X160312000Y-111674072D01*
X160436482Y-111661812D01*
X160556180Y-111625502D01*
X160666494Y-111566537D01*
X160763185Y-111487185D01*
X160842537Y-111390494D01*
X160901502Y-111280180D01*
X160937812Y-111160482D01*
X160950072Y-111036000D01*
X160950072Y-109436000D01*
X160937812Y-109311518D01*
X160901502Y-109191820D01*
X160842537Y-109081506D01*
X160763185Y-108984815D01*
X160666494Y-108905463D01*
X160556180Y-108846498D01*
X160436482Y-108810188D01*
X160312000Y-108797928D01*
X158712000Y-108797928D01*
X158587518Y-108810188D01*
X158467820Y-108846498D01*
X158357506Y-108905463D01*
X158260815Y-108984815D01*
X158250193Y-108997758D01*
X157998004Y-108878429D01*
X157723816Y-108809700D01*
X157441488Y-108795783D01*
X157161870Y-108837213D01*
X156895708Y-108932397D01*
X156770486Y-108999329D01*
X156698903Y-109243298D01*
X145913455Y-109243298D01*
X144172529Y-107502372D01*
X148170825Y-107502372D01*
X148235425Y-107715344D01*
X148385469Y-108020579D01*
X148592178Y-108290677D01*
X148847609Y-108515258D01*
X149141946Y-108685692D01*
X149463877Y-108795429D01*
X149733000Y-108677850D01*
X149733000Y-107233250D01*
X149987000Y-107233250D01*
X149987000Y-108677850D01*
X150256123Y-108795429D01*
X150578054Y-108685692D01*
X150872391Y-108515258D01*
X151127822Y-108290677D01*
X151334531Y-108020579D01*
X151484575Y-107715344D01*
X151549175Y-107502372D01*
X151431125Y-107233250D01*
X149987000Y-107233250D01*
X149733000Y-107233250D01*
X148288875Y-107233250D01*
X148170825Y-107502372D01*
X144172529Y-107502372D01*
X143380285Y-106710128D01*
X148170825Y-106710128D01*
X148288875Y-106979250D01*
X149733000Y-106979250D01*
X149733000Y-105534650D01*
X149987000Y-105534650D01*
X149987000Y-106979250D01*
X151431125Y-106979250D01*
X151549175Y-106710128D01*
X151484575Y-106497156D01*
X151334531Y-106191921D01*
X151127822Y-105921823D01*
X150872391Y-105697242D01*
X150578054Y-105526808D01*
X150256123Y-105417071D01*
X149987000Y-105534650D01*
X149733000Y-105534650D01*
X149463877Y-105417071D01*
X149141946Y-105526808D01*
X148847609Y-105697242D01*
X148592178Y-105921823D01*
X148385469Y-106191921D01*
X148235425Y-106497156D01*
X148170825Y-106710128D01*
X143380285Y-106710128D01*
X139563729Y-102893572D01*
X140800000Y-102893572D01*
X140924482Y-102881312D01*
X141044180Y-102845002D01*
X141154494Y-102786037D01*
X141251185Y-102706685D01*
X141330537Y-102609994D01*
X141389502Y-102499680D01*
X141425812Y-102379982D01*
X141438072Y-102255500D01*
X141438072Y-100055500D01*
X141425812Y-99931018D01*
X141389502Y-99811320D01*
X141330537Y-99701006D01*
X141251185Y-99604315D01*
X141154494Y-99524963D01*
X141044180Y-99465998D01*
X140924482Y-99429688D01*
X140800000Y-99417428D01*
X138600000Y-99417428D01*
X138475518Y-99429688D01*
X138355820Y-99465998D01*
X138245506Y-99524963D01*
X138148815Y-99604315D01*
X138069463Y-99701006D01*
X138010498Y-99811320D01*
X137974188Y-99931018D01*
X137961928Y-100055500D01*
X137961928Y-101236916D01*
X135405000Y-98679989D01*
X135405000Y-97759288D01*
X135421101Y-97750682D01*
X135639608Y-97571358D01*
X135818932Y-97352851D01*
X135952182Y-97103558D01*
X136034236Y-96833059D01*
X136061943Y-96551750D01*
X136034236Y-96270441D01*
X135952182Y-95999942D01*
X135946734Y-95989750D01*
X137961928Y-95989750D01*
X137961928Y-96304750D01*
X137974188Y-96429232D01*
X138010498Y-96548930D01*
X138069463Y-96659244D01*
X138148815Y-96755935D01*
X138245506Y-96835287D01*
X138355820Y-96894252D01*
X138475518Y-96930562D01*
X138600000Y-96942822D01*
X140800000Y-96942822D01*
X140924482Y-96930562D01*
X141044180Y-96894252D01*
X141154494Y-96835287D01*
X141251185Y-96755935D01*
X141330537Y-96659244D01*
X141389502Y-96548930D01*
X141425812Y-96429232D01*
X141438072Y-96304750D01*
X141438072Y-94104750D01*
X141425812Y-93980268D01*
X141389502Y-93860570D01*
X141330537Y-93750256D01*
X141251185Y-93653565D01*
X141154494Y-93574213D01*
X141080334Y-93534573D01*
X144575908Y-90039000D01*
X148312297Y-90039000D01*
X148410421Y-90222578D01*
X148627234Y-90486766D01*
X148891422Y-90703579D01*
X149192832Y-90864686D01*
X149519881Y-90963895D01*
X149774775Y-90989000D01*
X149945225Y-90989000D01*
X150200119Y-90963895D01*
X150525002Y-90865343D01*
X150525002Y-91135589D01*
X147782189Y-93878402D01*
X147752235Y-93902985D01*
X147654137Y-94022517D01*
X147581245Y-94158890D01*
X147536358Y-94306863D01*
X147524999Y-94422189D01*
X147524999Y-94422196D01*
X147521202Y-94460749D01*
X147524999Y-94499302D01*
X147525000Y-99566936D01*
X147521202Y-99605499D01*
X147536358Y-99759385D01*
X147581245Y-99907358D01*
X147581246Y-99907359D01*
X147654138Y-100043732D01*
X147663797Y-100055501D01*
X147727654Y-100133311D01*
X147727658Y-100133315D01*
X147752236Y-100163263D01*
X147782184Y-100187841D01*
X148210530Y-100616187D01*
X148150105Y-100815381D01*
X148116606Y-101155500D01*
X148150105Y-101495619D01*
X148249314Y-101822668D01*
X148410421Y-102124078D01*
X148627234Y-102388266D01*
X148891422Y-102605079D01*
X149192832Y-102766186D01*
X149519881Y-102865395D01*
X149774775Y-102890500D01*
X149945225Y-102890500D01*
X150200119Y-102865395D01*
X150527168Y-102766186D01*
X150828578Y-102605079D01*
X151092766Y-102388266D01*
X151309579Y-102124078D01*
X151470686Y-101822668D01*
X151569895Y-101495619D01*
X151603394Y-101155500D01*
X151569895Y-100815381D01*
X151470686Y-100488332D01*
X151382001Y-100322413D01*
X154699192Y-100322413D01*
X154794956Y-100586814D01*
X155084571Y-100727704D01*
X155396108Y-100809384D01*
X155717595Y-100828718D01*
X156036675Y-100784961D01*
X156341088Y-100679795D01*
X156515044Y-100586814D01*
X156610808Y-100322413D01*
X155655000Y-99366605D01*
X154699192Y-100322413D01*
X151382001Y-100322413D01*
X151309579Y-100186922D01*
X151092766Y-99922734D01*
X150828578Y-99705921D01*
X150527168Y-99544814D01*
X150200119Y-99445605D01*
X149945225Y-99420500D01*
X149774775Y-99420500D01*
X149519881Y-99445605D01*
X149320687Y-99506030D01*
X149094999Y-99280342D01*
X149094999Y-99249595D01*
X154013282Y-99249595D01*
X154057039Y-99568675D01*
X154162205Y-99873088D01*
X154255186Y-100047044D01*
X154519587Y-100142808D01*
X155475395Y-99187000D01*
X155834605Y-99187000D01*
X156790413Y-100142808D01*
X157054814Y-100047044D01*
X157195704Y-99757429D01*
X157277384Y-99445892D01*
X157296718Y-99124405D01*
X157252961Y-98805325D01*
X157147795Y-98500912D01*
X157054814Y-98326956D01*
X156790413Y-98231192D01*
X155834605Y-99187000D01*
X155475395Y-99187000D01*
X154519587Y-98231192D01*
X154255186Y-98326956D01*
X154114296Y-98616571D01*
X154032616Y-98928108D01*
X154013282Y-99249595D01*
X149094999Y-99249595D01*
X149094999Y-98051587D01*
X154699192Y-98051587D01*
X155655000Y-99007395D01*
X156475395Y-98187000D01*
X159016928Y-98187000D01*
X159016928Y-100187000D01*
X159029188Y-100311482D01*
X159065498Y-100431180D01*
X159124463Y-100541494D01*
X159203815Y-100638185D01*
X159300506Y-100717537D01*
X159410820Y-100776502D01*
X159530518Y-100812812D01*
X159655000Y-100825072D01*
X161655000Y-100825072D01*
X161779482Y-100812812D01*
X161899180Y-100776502D01*
X162009494Y-100717537D01*
X162106185Y-100638185D01*
X162185537Y-100541494D01*
X162244502Y-100431180D01*
X162280812Y-100311482D01*
X162293072Y-100187000D01*
X162293072Y-98187000D01*
X162280812Y-98062518D01*
X162244502Y-97942820D01*
X162185537Y-97832506D01*
X162106185Y-97735815D01*
X162009494Y-97656463D01*
X161899180Y-97597498D01*
X161779482Y-97561188D01*
X161655000Y-97548928D01*
X159655000Y-97548928D01*
X159530518Y-97561188D01*
X159410820Y-97597498D01*
X159300506Y-97656463D01*
X159203815Y-97735815D01*
X159124463Y-97832506D01*
X159065498Y-97942820D01*
X159029188Y-98062518D01*
X159016928Y-98187000D01*
X156475395Y-98187000D01*
X156610808Y-98051587D01*
X156515044Y-97787186D01*
X156225429Y-97646296D01*
X155913892Y-97564616D01*
X155592405Y-97545282D01*
X155273325Y-97589039D01*
X154968912Y-97694205D01*
X154794956Y-97787186D01*
X154699192Y-98051587D01*
X149094999Y-98051587D01*
X149094999Y-96757008D01*
X149141946Y-96784192D01*
X149463877Y-96893929D01*
X149733000Y-96776350D01*
X149733000Y-95331750D01*
X149987000Y-95331750D01*
X149987000Y-96776350D01*
X150256123Y-96893929D01*
X150578054Y-96784192D01*
X150872391Y-96613758D01*
X151127822Y-96389177D01*
X151334531Y-96119079D01*
X151484575Y-95813844D01*
X151549175Y-95600872D01*
X151431125Y-95331750D01*
X149987000Y-95331750D01*
X149733000Y-95331750D01*
X149713000Y-95331750D01*
X149713000Y-95077750D01*
X149733000Y-95077750D01*
X149733000Y-95057750D01*
X149987000Y-95057750D01*
X149987000Y-95077750D01*
X151431125Y-95077750D01*
X151549175Y-94808628D01*
X151484575Y-94595656D01*
X151334531Y-94290421D01*
X151127822Y-94020323D01*
X150872391Y-93795742D01*
X150578054Y-93625308D01*
X150337571Y-93543334D01*
X151837811Y-92043094D01*
X151867765Y-92018511D01*
X151965863Y-91898980D01*
X152038755Y-91762607D01*
X152056720Y-91703385D01*
X152083643Y-91614634D01*
X152093513Y-91514414D01*
X152095001Y-91499308D01*
X152095001Y-91499303D01*
X152098798Y-91460747D01*
X152095001Y-91422191D01*
X152095001Y-88596551D01*
X152098798Y-88557998D01*
X152095001Y-88519445D01*
X152095001Y-88519438D01*
X152083642Y-88404112D01*
X152038755Y-88256139D01*
X151965863Y-88119766D01*
X151867765Y-88000235D01*
X151837817Y-87975658D01*
X151138348Y-87276188D01*
X151113765Y-87246235D01*
X150994234Y-87148137D01*
X150857861Y-87075245D01*
X150709888Y-87030358D01*
X150594562Y-87018999D01*
X150594554Y-87018999D01*
X150556001Y-87015202D01*
X150517448Y-87018999D01*
X141585159Y-87018999D01*
X139382349Y-84816190D01*
X139357766Y-84786236D01*
X139238235Y-84688138D01*
X139101862Y-84615246D01*
X138953889Y-84570359D01*
X138838563Y-84559000D01*
X138838555Y-84559000D01*
X138800002Y-84555203D01*
X138761449Y-84559000D01*
X137251072Y-84559000D01*
X137251072Y-84494000D01*
X137242077Y-84402665D01*
X140424000Y-84402665D01*
X140424000Y-84685335D01*
X140479147Y-84962574D01*
X140587320Y-85223727D01*
X140744363Y-85458759D01*
X140944241Y-85658637D01*
X141179273Y-85815680D01*
X141440426Y-85923853D01*
X141717665Y-85979000D01*
X142000335Y-85979000D01*
X142277574Y-85923853D01*
X142538727Y-85815680D01*
X142773759Y-85658637D01*
X142973637Y-85458759D01*
X143130680Y-85223727D01*
X143238853Y-84962574D01*
X143294000Y-84685335D01*
X143294000Y-84402665D01*
X146774000Y-84402665D01*
X146774000Y-84685335D01*
X146829147Y-84962574D01*
X146937320Y-85223727D01*
X147094363Y-85458759D01*
X147294241Y-85658637D01*
X147529273Y-85815680D01*
X147790426Y-85923853D01*
X148067665Y-85979000D01*
X148350335Y-85979000D01*
X148627574Y-85923853D01*
X148888727Y-85815680D01*
X149123759Y-85658637D01*
X149323637Y-85458759D01*
X149480680Y-85223727D01*
X149588853Y-84962574D01*
X149644000Y-84685335D01*
X149644000Y-84402665D01*
X149588853Y-84125426D01*
X149480680Y-83864273D01*
X149323637Y-83629241D01*
X149123759Y-83429363D01*
X148923131Y-83295308D01*
X148950514Y-83280671D01*
X149022097Y-83036702D01*
X148209000Y-82223605D01*
X147395903Y-83036702D01*
X147467486Y-83280671D01*
X147496341Y-83294324D01*
X147294241Y-83429363D01*
X147094363Y-83629241D01*
X146937320Y-83864273D01*
X146829147Y-84125426D01*
X146774000Y-84402665D01*
X143294000Y-84402665D01*
X143238853Y-84125426D01*
X143130680Y-83864273D01*
X142973637Y-83629241D01*
X142773759Y-83429363D01*
X142573131Y-83295308D01*
X142600514Y-83280671D01*
X142672097Y-83036702D01*
X141859000Y-82223605D01*
X141045903Y-83036702D01*
X141117486Y-83280671D01*
X141146341Y-83294324D01*
X140944241Y-83429363D01*
X140744363Y-83629241D01*
X140587320Y-83864273D01*
X140479147Y-84125426D01*
X140424000Y-84402665D01*
X137242077Y-84402665D01*
X137238812Y-84369518D01*
X137202502Y-84249820D01*
X137143537Y-84139506D01*
X137064185Y-84042815D01*
X136967494Y-83963463D01*
X136857180Y-83904498D01*
X136788313Y-83883607D01*
X136818134Y-83859134D01*
X137003706Y-83633014D01*
X137141599Y-83375034D01*
X137226513Y-83095111D01*
X137255185Y-82804000D01*
X137226513Y-82512889D01*
X137141599Y-82232966D01*
X137078285Y-82114512D01*
X140418783Y-82114512D01*
X140460213Y-82394130D01*
X140555397Y-82660292D01*
X140622329Y-82785514D01*
X140866298Y-82857097D01*
X141679395Y-82044000D01*
X142038605Y-82044000D01*
X142851702Y-82857097D01*
X143095671Y-82785514D01*
X143216571Y-82530004D01*
X143285300Y-82255816D01*
X143292265Y-82114512D01*
X146768783Y-82114512D01*
X146810213Y-82394130D01*
X146905397Y-82660292D01*
X146972329Y-82785514D01*
X147216298Y-82857097D01*
X148029395Y-82044000D01*
X148388605Y-82044000D01*
X149201702Y-82857097D01*
X149445671Y-82785514D01*
X149566571Y-82530004D01*
X149635300Y-82255816D01*
X149649217Y-81973488D01*
X149607787Y-81693870D01*
X149512603Y-81427708D01*
X149481224Y-81369000D01*
X152339928Y-81369000D01*
X152343000Y-81883250D01*
X152501750Y-82042000D01*
X154051000Y-82042000D01*
X154051000Y-80892750D01*
X154305000Y-80892750D01*
X154305000Y-82042000D01*
X155854250Y-82042000D01*
X156013000Y-81883250D01*
X156016072Y-81369000D01*
X156003812Y-81244518D01*
X155967502Y-81124820D01*
X155908537Y-81014506D01*
X155829185Y-80917815D01*
X155732494Y-80838463D01*
X155622180Y-80779498D01*
X155502482Y-80743188D01*
X155378000Y-80730928D01*
X154463750Y-80734000D01*
X154305000Y-80892750D01*
X154051000Y-80892750D01*
X153892250Y-80734000D01*
X152978000Y-80730928D01*
X152853518Y-80743188D01*
X152733820Y-80779498D01*
X152623506Y-80838463D01*
X152526815Y-80917815D01*
X152447463Y-81014506D01*
X152388498Y-81124820D01*
X152352188Y-81244518D01*
X152339928Y-81369000D01*
X149481224Y-81369000D01*
X149445671Y-81302486D01*
X149201702Y-81230903D01*
X148388605Y-82044000D01*
X148029395Y-82044000D01*
X147216298Y-81230903D01*
X146972329Y-81302486D01*
X146851429Y-81557996D01*
X146782700Y-81832184D01*
X146768783Y-82114512D01*
X143292265Y-82114512D01*
X143299217Y-81973488D01*
X143257787Y-81693870D01*
X143162603Y-81427708D01*
X143095671Y-81302486D01*
X142851702Y-81230903D01*
X142038605Y-82044000D01*
X141679395Y-82044000D01*
X140866298Y-81230903D01*
X140622329Y-81302486D01*
X140501429Y-81557996D01*
X140432700Y-81832184D01*
X140418783Y-82114512D01*
X137078285Y-82114512D01*
X137003706Y-81974986D01*
X136818134Y-81748866D01*
X136592014Y-81563294D01*
X136334034Y-81425401D01*
X136054111Y-81340487D01*
X135835950Y-81319000D01*
X135690050Y-81319000D01*
X135471889Y-81340487D01*
X135191966Y-81425401D01*
X134933986Y-81563294D01*
X134707866Y-81748866D01*
X134522294Y-81974986D01*
X134497457Y-82021453D01*
X134407032Y-82030359D01*
X134259059Y-82075246D01*
X134122686Y-82148138D01*
X134003155Y-82246236D01*
X133905057Y-82365767D01*
X133832165Y-82502140D01*
X133787278Y-82650113D01*
X133772121Y-82804000D01*
X133775919Y-82842561D01*
X133775920Y-88603354D01*
X133772122Y-88641917D01*
X133787278Y-88795803D01*
X133832165Y-88943776D01*
X133855749Y-88987899D01*
X133905058Y-89080150D01*
X133934285Y-89115763D01*
X133978574Y-89169729D01*
X133978578Y-89169733D01*
X134003156Y-89199681D01*
X134033104Y-89224259D01*
X134047836Y-89238991D01*
X134006119Y-89253930D01*
X133764869Y-89398615D01*
X133556481Y-89587586D01*
X133388963Y-89813580D01*
X133268754Y-90067913D01*
X133228096Y-90201961D01*
X133350085Y-90424000D01*
X134493000Y-90424000D01*
X134493000Y-90404000D01*
X134747000Y-90404000D01*
X134747000Y-90424000D01*
X134767000Y-90424000D01*
X134767000Y-90678000D01*
X134747000Y-90678000D01*
X134747000Y-91821624D01*
X134969040Y-91942909D01*
X135085002Y-91901383D01*
X135085002Y-92567468D01*
X132442179Y-95210292D01*
X132412225Y-95234875D01*
X132314127Y-95354407D01*
X132241235Y-95490780D01*
X132196348Y-95638753D01*
X132184989Y-95754079D01*
X132184989Y-95754086D01*
X132181192Y-95792639D01*
X128218638Y-95792639D01*
X128114637Y-95636991D01*
X127914759Y-95437113D01*
X127679727Y-95280070D01*
X127418574Y-95171897D01*
X127141335Y-95116750D01*
X126858665Y-95116750D01*
X126581426Y-95171897D01*
X126320273Y-95280070D01*
X126085241Y-95437113D01*
X125885363Y-95636991D01*
X125728320Y-95872023D01*
X125620147Y-96133176D01*
X125565000Y-96410415D01*
X124993000Y-96410415D01*
X124993000Y-90409665D01*
X125565000Y-90409665D01*
X125565000Y-90692335D01*
X125620147Y-90969574D01*
X125728320Y-91230727D01*
X125885363Y-91465759D01*
X126085241Y-91665637D01*
X126320273Y-91822680D01*
X126581426Y-91930853D01*
X126858665Y-91986000D01*
X127141335Y-91986000D01*
X127418574Y-91930853D01*
X127679727Y-91822680D01*
X127914759Y-91665637D01*
X128114637Y-91465759D01*
X128271680Y-91230727D01*
X128379853Y-90969574D01*
X128393684Y-90900039D01*
X133228096Y-90900039D01*
X133268754Y-91034087D01*
X133388963Y-91288420D01*
X133556481Y-91514414D01*
X133764869Y-91703385D01*
X134006119Y-91848070D01*
X134270960Y-91942909D01*
X134493000Y-91821624D01*
X134493000Y-90678000D01*
X133350085Y-90678000D01*
X133228096Y-90900039D01*
X128393684Y-90900039D01*
X128435000Y-90692335D01*
X128435000Y-90409665D01*
X128379853Y-90132426D01*
X128271680Y-89871273D01*
X128114637Y-89636241D01*
X127914759Y-89436363D01*
X127679727Y-89279320D01*
X127418574Y-89171147D01*
X127141335Y-89116000D01*
X126858665Y-89116000D01*
X126581426Y-89171147D01*
X126320273Y-89279320D01*
X126085241Y-89436363D01*
X125885363Y-89636241D01*
X125728320Y-89871273D01*
X125620147Y-90132426D01*
X125565000Y-90409665D01*
X124993000Y-90409665D01*
X124993000Y-80925071D01*
X125478623Y-80925071D01*
X125478623Y-81390929D01*
X125569507Y-81847835D01*
X125747783Y-82278232D01*
X126006600Y-82665579D01*
X126336011Y-82994990D01*
X126723358Y-83253807D01*
X127153755Y-83432083D01*
X127610661Y-83522967D01*
X128076519Y-83522967D01*
X128533425Y-83432083D01*
X128963822Y-83253807D01*
X129351169Y-82994990D01*
X129680580Y-82665579D01*
X129939397Y-82278232D01*
X130117673Y-81847835D01*
X130208557Y-81390929D01*
X130208557Y-81051298D01*
X141045903Y-81051298D01*
X141859000Y-81864395D01*
X142672097Y-81051298D01*
X147395903Y-81051298D01*
X148209000Y-81864395D01*
X149022097Y-81051298D01*
X148950514Y-80807329D01*
X148695004Y-80686429D01*
X148420816Y-80617700D01*
X148138488Y-80603783D01*
X147858870Y-80645213D01*
X147592708Y-80740397D01*
X147467486Y-80807329D01*
X147395903Y-81051298D01*
X142672097Y-81051298D01*
X142600514Y-80807329D01*
X142345004Y-80686429D01*
X142070816Y-80617700D01*
X141788488Y-80603783D01*
X141508870Y-80645213D01*
X141242708Y-80740397D01*
X141117486Y-80807329D01*
X141045903Y-81051298D01*
X130208557Y-81051298D01*
X130208557Y-80925071D01*
X130117673Y-80468165D01*
X129939397Y-80037768D01*
X129680580Y-79650421D01*
X129351169Y-79321010D01*
X128963822Y-79062193D01*
X128533425Y-78883917D01*
X128076519Y-78793033D01*
X127610661Y-78793033D01*
X127153755Y-78883917D01*
X126723358Y-79062193D01*
X126336011Y-79321010D01*
X126006600Y-79650421D01*
X125747783Y-80037768D01*
X125569507Y-80468165D01*
X125478623Y-80925071D01*
X124993000Y-80925071D01*
X124993000Y-79915279D01*
X125022234Y-79617125D01*
X125099448Y-79361378D01*
X125224869Y-79125496D01*
X125393716Y-78918470D01*
X125599554Y-78748187D01*
X125834556Y-78621121D01*
X126089756Y-78542124D01*
X126385882Y-78511000D01*
X169385721Y-78511000D01*
X169683875Y-78540234D01*
X169683875Y-78540234D01*
G37*
X169683875Y-78540234D02*
X169939622Y-78617448D01*
X170175504Y-78742869D01*
X170382530Y-78911716D01*
X170552813Y-79117554D01*
X170679879Y-79352556D01*
X170758876Y-79607756D01*
X170790000Y-79903882D01*
X170790001Y-122399675D01*
X170760766Y-122697840D01*
X170683551Y-122953588D01*
X170558131Y-123189468D01*
X170389289Y-123396489D01*
X170183446Y-123566777D01*
X169948444Y-123693843D01*
X169693240Y-123772841D01*
X169397136Y-123803962D01*
X126397319Y-123800004D01*
X126099124Y-123770766D01*
X125843376Y-123693551D01*
X125607496Y-123568131D01*
X125400475Y-123399289D01*
X125230187Y-123193446D01*
X125103121Y-122958444D01*
X125024123Y-122703240D01*
X124993000Y-122407118D01*
X124993000Y-120925071D01*
X125478623Y-120925071D01*
X125478623Y-121390929D01*
X125569507Y-121847835D01*
X125747783Y-122278232D01*
X126006600Y-122665579D01*
X126336011Y-122994990D01*
X126723358Y-123253807D01*
X127153755Y-123432083D01*
X127610661Y-123522967D01*
X128076519Y-123522967D01*
X128533425Y-123432083D01*
X128963822Y-123253807D01*
X129351169Y-122994990D01*
X129680580Y-122665579D01*
X129939397Y-122278232D01*
X130117673Y-121847835D01*
X130208557Y-121390929D01*
X130208557Y-120925071D01*
X130117673Y-120468165D01*
X129939397Y-120037768D01*
X129680580Y-119650421D01*
X129351169Y-119321010D01*
X128963822Y-119062193D01*
X128533425Y-118883917D01*
X128076519Y-118793033D01*
X127610661Y-118793033D01*
X127153755Y-118883917D01*
X126723358Y-119062193D01*
X126336011Y-119321010D01*
X126006600Y-119650421D01*
X125747783Y-120037768D01*
X125569507Y-120468165D01*
X125478623Y-120925071D01*
X124993000Y-120925071D01*
X124993000Y-114412665D01*
X125565000Y-114412665D01*
X125565000Y-114695335D01*
X125620147Y-114972574D01*
X125728320Y-115233727D01*
X125885363Y-115468759D01*
X126085241Y-115668637D01*
X126320273Y-115825680D01*
X126581426Y-115933853D01*
X126858665Y-115989000D01*
X127141335Y-115989000D01*
X127418574Y-115933853D01*
X127679727Y-115825680D01*
X127914759Y-115668637D01*
X128114637Y-115468759D01*
X128271680Y-115233727D01*
X128379853Y-114972574D01*
X128435000Y-114695335D01*
X128435000Y-114412665D01*
X128379853Y-114135426D01*
X128271680Y-113874273D01*
X128114637Y-113639241D01*
X127914759Y-113439363D01*
X127679727Y-113282320D01*
X127418574Y-113174147D01*
X127141335Y-113119000D01*
X126858665Y-113119000D01*
X126581426Y-113174147D01*
X126320273Y-113282320D01*
X126085241Y-113439363D01*
X125885363Y-113639241D01*
X125728320Y-113874273D01*
X125620147Y-114135426D01*
X125565000Y-114412665D01*
X124993000Y-114412665D01*
X124993000Y-108411915D01*
X125565000Y-108411915D01*
X125565000Y-108694585D01*
X125620147Y-108971824D01*
X125728320Y-109232977D01*
X125885363Y-109468009D01*
X126085241Y-109667887D01*
X126320273Y-109824930D01*
X126581426Y-109933103D01*
X126858665Y-109988250D01*
X127141335Y-109988250D01*
X127418574Y-109933103D01*
X127679727Y-109824930D01*
X127914759Y-109667887D01*
X128114637Y-109468009D01*
X128271680Y-109232977D01*
X128379853Y-108971824D01*
X128435000Y-108694585D01*
X128435000Y-108411915D01*
X128379853Y-108134676D01*
X128271680Y-107873523D01*
X128114637Y-107638491D01*
X127914759Y-107438613D01*
X127679727Y-107281570D01*
X127418574Y-107173397D01*
X127141335Y-107118250D01*
X126858665Y-107118250D01*
X126581426Y-107173397D01*
X126320273Y-107281570D01*
X126085241Y-107438613D01*
X125885363Y-107638491D01*
X125728320Y-107873523D01*
X125620147Y-108134676D01*
X125565000Y-108411915D01*
X124993000Y-108411915D01*
X124993000Y-102411165D01*
X125565000Y-102411165D01*
X125565000Y-102693835D01*
X125620147Y-102971074D01*
X125728320Y-103232227D01*
X125885363Y-103467259D01*
X126085241Y-103667137D01*
X126320273Y-103824180D01*
X126581426Y-103932353D01*
X126858665Y-103987500D01*
X127141335Y-103987500D01*
X127418574Y-103932353D01*
X127679727Y-103824180D01*
X127914759Y-103667137D01*
X128114637Y-103467259D01*
X128271680Y-103232227D01*
X128379853Y-102971074D01*
X128435000Y-102693835D01*
X128435000Y-102411165D01*
X128379853Y-102133926D01*
X128271680Y-101872773D01*
X128114637Y-101637741D01*
X127914759Y-101437863D01*
X127679727Y-101280820D01*
X127418574Y-101172647D01*
X127141335Y-101117500D01*
X126858665Y-101117500D01*
X126581426Y-101172647D01*
X126320273Y-101280820D01*
X126085241Y-101437863D01*
X125885363Y-101637741D01*
X125728320Y-101872773D01*
X125620147Y-102133926D01*
X125565000Y-102411165D01*
X124993000Y-102411165D01*
X124993000Y-96410415D01*
X125565000Y-96410415D01*
X125565000Y-96693085D01*
X125620147Y-96970324D01*
X125728320Y-97231477D01*
X125885363Y-97466509D01*
X126085241Y-97666387D01*
X126320273Y-97823430D01*
X126581426Y-97931603D01*
X126858665Y-97986750D01*
X127141335Y-97986750D01*
X127418574Y-97931603D01*
X127679727Y-97823430D01*
X127914759Y-97666387D01*
X128114637Y-97466509D01*
X128271680Y-97231477D01*
X128379853Y-96970324D01*
X128435000Y-96693085D01*
X128435000Y-96410415D01*
X128379853Y-96133176D01*
X128271680Y-95872023D01*
X128218638Y-95792639D01*
X132181192Y-95792639D01*
X132184989Y-95831192D01*
X132184990Y-118895375D01*
X132181192Y-118933938D01*
X132196348Y-119087824D01*
X132241235Y-119235797D01*
X132241236Y-119235798D01*
X132314128Y-119372171D01*
X132352670Y-119419134D01*
X132387644Y-119461750D01*
X132387648Y-119461754D01*
X132412226Y-119491702D01*
X132442174Y-119516280D01*
X133596238Y-120670344D01*
X133467987Y-120756038D01*
X133282038Y-120941987D01*
X133135939Y-121160641D01*
X133035304Y-121403595D01*
X132984000Y-121661514D01*
X132984000Y-121924486D01*
X133035304Y-122182405D01*
X133135939Y-122425359D01*
X133282038Y-122644013D01*
X133467987Y-122829962D01*
X133686641Y-122976061D01*
X133929595Y-123076696D01*
X134187514Y-123128000D01*
X134450486Y-123128000D01*
X134708405Y-123076696D01*
X134951359Y-122976061D01*
X135170013Y-122829962D01*
X135355962Y-122644013D01*
X135461215Y-122486490D01*
X135527191Y-122521754D01*
X135620026Y-122549915D01*
X135675163Y-122566641D01*
X135689541Y-122568057D01*
X135734227Y-122572458D01*
X135782038Y-122644013D01*
X135967987Y-122829962D01*
X136186641Y-122976061D01*
X136429595Y-123076696D01*
X136687514Y-123128000D01*
X136950486Y-123128000D01*
X137208405Y-123076696D01*
X137451359Y-122976061D01*
X137670013Y-122829962D01*
X137855962Y-122644013D01*
X137980928Y-122456987D01*
X137980928Y-122493000D01*
X137993188Y-122617482D01*
X138029498Y-122737180D01*
X138088463Y-122847494D01*
X138167815Y-122944185D01*
X138264506Y-123023537D01*
X138374820Y-123082502D01*
X138494518Y-123118812D01*
X138619000Y-123131072D01*
X140019000Y-123131072D01*
X140143482Y-123118812D01*
X140263180Y-123082502D01*
X140373494Y-123023537D01*
X140470185Y-122944185D01*
X140549537Y-122847494D01*
X140608502Y-122737180D01*
X140644812Y-122617482D01*
X140657072Y-122493000D01*
X140657072Y-121093000D01*
X140644812Y-120968518D01*
X140608502Y-120848820D01*
X140549537Y-120738506D01*
X140470185Y-120641815D01*
X140373494Y-120562463D01*
X140263180Y-120503498D01*
X140143482Y-120467188D01*
X140028921Y-120455905D01*
X139974862Y-120354767D01*
X139876764Y-120235236D01*
X139846810Y-120210653D01*
X139461889Y-119825732D01*
X139708405Y-119776696D01*
X139951359Y-119676061D01*
X140170013Y-119529962D01*
X140355962Y-119344013D01*
X140502061Y-119125359D01*
X140558957Y-118988000D01*
X144765928Y-118988000D01*
X144765928Y-120788000D01*
X144778188Y-120912482D01*
X144814498Y-121032180D01*
X144873463Y-121142494D01*
X144952815Y-121239185D01*
X145049506Y-121318537D01*
X145159820Y-121377502D01*
X145279518Y-121413812D01*
X145404000Y-121426072D01*
X147204000Y-121426072D01*
X147328482Y-121413812D01*
X147448180Y-121377502D01*
X147558494Y-121318537D01*
X147655185Y-121239185D01*
X147734537Y-121142494D01*
X147793502Y-121032180D01*
X147799056Y-121013873D01*
X147865495Y-121080312D01*
X148116905Y-121248299D01*
X148396257Y-121364011D01*
X148692816Y-121423000D01*
X148995184Y-121423000D01*
X149291743Y-121364011D01*
X149571095Y-121248299D01*
X149822505Y-121080312D01*
X149977746Y-120925071D01*
X165478623Y-120925071D01*
X165478623Y-121390929D01*
X165569507Y-121847835D01*
X165747783Y-122278232D01*
X166006600Y-122665579D01*
X166336011Y-122994990D01*
X166723358Y-123253807D01*
X167153755Y-123432083D01*
X167610661Y-123522967D01*
X168076519Y-123522967D01*
X168533425Y-123432083D01*
X168963822Y-123253807D01*
X169351169Y-122994990D01*
X169680580Y-122665579D01*
X169939397Y-122278232D01*
X170117673Y-121847835D01*
X170208557Y-121390929D01*
X170208557Y-120925071D01*
X170117673Y-120468165D01*
X169939397Y-120037768D01*
X169680580Y-119650421D01*
X169351169Y-119321010D01*
X168963822Y-119062193D01*
X168533425Y-118883917D01*
X168076519Y-118793033D01*
X167610661Y-118793033D01*
X167153755Y-118883917D01*
X166723358Y-119062193D01*
X166336011Y-119321010D01*
X166006600Y-119650421D01*
X165747783Y-120037768D01*
X165569507Y-120468165D01*
X165478623Y-120925071D01*
X149977746Y-120925071D01*
X150036312Y-120866505D01*
X150204299Y-120615095D01*
X150320011Y-120335743D01*
X150379000Y-120039184D01*
X150379000Y-119736816D01*
X150320011Y-119440257D01*
X150204299Y-119160905D01*
X150036312Y-118909495D01*
X149822505Y-118695688D01*
X149571095Y-118527701D01*
X149291743Y-118411989D01*
X148995184Y-118353000D01*
X148692816Y-118353000D01*
X148396257Y-118411989D01*
X148116905Y-118527701D01*
X147865495Y-118695688D01*
X147799056Y-118762127D01*
X147793502Y-118743820D01*
X147734537Y-118633506D01*
X147655185Y-118536815D01*
X147558494Y-118457463D01*
X147448180Y-118398498D01*
X147328482Y-118362188D01*
X147204000Y-118349928D01*
X145404000Y-118349928D01*
X145279518Y-118362188D01*
X145159820Y-118398498D01*
X145049506Y-118457463D01*
X144952815Y-118536815D01*
X144873463Y-118633506D01*
X144814498Y-118743820D01*
X144778188Y-118863518D01*
X144765928Y-118988000D01*
X140558957Y-118988000D01*
X140602696Y-118882405D01*
X140654000Y-118624486D01*
X140654000Y-118361514D01*
X140602696Y-118103595D01*
X140502061Y-117860641D01*
X140355962Y-117641987D01*
X140170013Y-117456038D01*
X139951359Y-117309939D01*
X139708405Y-117209304D01*
X139450486Y-117158000D01*
X139187514Y-117158000D01*
X139034999Y-117188338D01*
X139034999Y-114795072D01*
X140800000Y-114795072D01*
X140924482Y-114782812D01*
X141044180Y-114746502D01*
X141154494Y-114687537D01*
X141251185Y-114608185D01*
X141330537Y-114511494D01*
X141389502Y-114401180D01*
X141425812Y-114281482D01*
X141438072Y-114157000D01*
X141438072Y-111957000D01*
X141425812Y-111832518D01*
X141389502Y-111712820D01*
X141330537Y-111602506D01*
X141251185Y-111505815D01*
X141154494Y-111426463D01*
X141044180Y-111367498D01*
X140924482Y-111331188D01*
X140800000Y-111318928D01*
X139034999Y-111318928D01*
X139034999Y-108844322D01*
X140800000Y-108844322D01*
X140924482Y-108832062D01*
X141044180Y-108795752D01*
X141154494Y-108736787D01*
X141251185Y-108657435D01*
X141330537Y-108560744D01*
X141389502Y-108450430D01*
X141425812Y-108330732D01*
X141438072Y-108206250D01*
X141438072Y-106988229D01*
X145519000Y-111069157D01*
X145519001Y-111873838D01*
X145515203Y-111912400D01*
X145530359Y-112066286D01*
X145575246Y-112214259D01*
X145609177Y-112277740D01*
X145648139Y-112350633D01*
X145680309Y-112389832D01*
X145721655Y-112440212D01*
X145721659Y-112440216D01*
X145746237Y-112470164D01*
X145776185Y-112494742D01*
X152173258Y-118891816D01*
X152197836Y-118921764D01*
X152227784Y-118946342D01*
X152227787Y-118946345D01*
X152232677Y-118950358D01*
X152317367Y-119019862D01*
X152453740Y-119092754D01*
X152561225Y-119125359D01*
X152601712Y-119137641D01*
X152616090Y-119139057D01*
X152717039Y-119149000D01*
X152717046Y-119149000D01*
X152755599Y-119152797D01*
X152794152Y-119149000D01*
X153802605Y-119149000D01*
X153802605Y-119214000D01*
X153814865Y-119338482D01*
X153851175Y-119458180D01*
X153910140Y-119568494D01*
X153989492Y-119665185D01*
X154086183Y-119744537D01*
X154196497Y-119803502D01*
X154316195Y-119839812D01*
X154440677Y-119852072D01*
X156140677Y-119852072D01*
X156265159Y-119839812D01*
X156384857Y-119803502D01*
X156495171Y-119744537D01*
X156591862Y-119665185D01*
X156671214Y-119568494D01*
X156730179Y-119458180D01*
X156751070Y-119389313D01*
X156775543Y-119419134D01*
X157001663Y-119604706D01*
X157259643Y-119742599D01*
X157539566Y-119827513D01*
X157757727Y-119849000D01*
X157903627Y-119849000D01*
X158121788Y-119827513D01*
X158401711Y-119742599D01*
X158659691Y-119604706D01*
X158885811Y-119419134D01*
X159071383Y-119193014D01*
X159100677Y-119138209D01*
X159129971Y-119193014D01*
X159315543Y-119419134D01*
X159541663Y-119604706D01*
X159799643Y-119742599D01*
X160079566Y-119827513D01*
X160297727Y-119849000D01*
X160443627Y-119849000D01*
X160661788Y-119827513D01*
X160941711Y-119742599D01*
X161199691Y-119604706D01*
X161425811Y-119419134D01*
X161611383Y-119193014D01*
X161749276Y-118935034D01*
X161834190Y-118655111D01*
X161862862Y-118364000D01*
X161834190Y-118072889D01*
X161749276Y-117792966D01*
X161611383Y-117534986D01*
X161425811Y-117308866D01*
X161199691Y-117123294D01*
X160941711Y-116985401D01*
X160661788Y-116900487D01*
X160443627Y-116879000D01*
X160390478Y-116879000D01*
X163834013Y-113435466D01*
X163863011Y-113411668D01*
X163957984Y-113295943D01*
X164028556Y-113163914D01*
X164072013Y-113020653D01*
X164083010Y-112909000D01*
X164083010Y-112908992D01*
X164086686Y-112871667D01*
X164083010Y-112834342D01*
X164083010Y-109474000D01*
X165258815Y-109474000D01*
X165287487Y-109765111D01*
X165372401Y-110045034D01*
X165510294Y-110303014D01*
X165695866Y-110529134D01*
X165725687Y-110553607D01*
X165656820Y-110574498D01*
X165546506Y-110633463D01*
X165449815Y-110712815D01*
X165370463Y-110809506D01*
X165311498Y-110919820D01*
X165275188Y-111039518D01*
X165262928Y-111164000D01*
X165262928Y-112864000D01*
X165275188Y-112988482D01*
X165311498Y-113108180D01*
X165370463Y-113218494D01*
X165449815Y-113315185D01*
X165546506Y-113394537D01*
X165656820Y-113453502D01*
X165776518Y-113489812D01*
X165901000Y-113502072D01*
X167601000Y-113502072D01*
X167725482Y-113489812D01*
X167845180Y-113453502D01*
X167955494Y-113394537D01*
X168052185Y-113315185D01*
X168131537Y-113218494D01*
X168190502Y-113108180D01*
X168226812Y-112988482D01*
X168239072Y-112864000D01*
X168239072Y-111164000D01*
X168226812Y-111039518D01*
X168190502Y-110919820D01*
X168131537Y-110809506D01*
X168052185Y-110712815D01*
X167955494Y-110633463D01*
X167845180Y-110574498D01*
X167776313Y-110553607D01*
X167806134Y-110529134D01*
X167991706Y-110303014D01*
X168129599Y-110045034D01*
X168214513Y-109765111D01*
X168243185Y-109474000D01*
X168214513Y-109182889D01*
X168129599Y-108902966D01*
X167991706Y-108644986D01*
X167806134Y-108418866D01*
X167580014Y-108233294D01*
X167515477Y-108198799D01*
X167632355Y-108129178D01*
X167848588Y-107934269D01*
X168022641Y-107700920D01*
X168147825Y-107438099D01*
X168192476Y-107290890D01*
X168071155Y-107061000D01*
X166878000Y-107061000D01*
X166878000Y-107081000D01*
X166624000Y-107081000D01*
X166624000Y-107061000D01*
X165430845Y-107061000D01*
X165309524Y-107290890D01*
X165354175Y-107438099D01*
X165479359Y-107700920D01*
X165653412Y-107934269D01*
X165869645Y-108129178D01*
X165986523Y-108198799D01*
X165921986Y-108233294D01*
X165695866Y-108418866D01*
X165510294Y-108644986D01*
X165372401Y-108902966D01*
X165287487Y-109182889D01*
X165258815Y-109474000D01*
X164083010Y-109474000D01*
X164083010Y-106577110D01*
X165309524Y-106577110D01*
X165430845Y-106807000D01*
X166624000Y-106807000D01*
X166624000Y-105613186D01*
X166878000Y-105613186D01*
X166878000Y-106807000D01*
X168071155Y-106807000D01*
X168192476Y-106577110D01*
X168147825Y-106429901D01*
X168022641Y-106167080D01*
X167848588Y-105933731D01*
X167632355Y-105738822D01*
X167382252Y-105589843D01*
X167107891Y-105492519D01*
X166878000Y-105613186D01*
X166624000Y-105613186D01*
X166394109Y-105492519D01*
X166119748Y-105589843D01*
X165869645Y-105738822D01*
X165653412Y-105933731D01*
X165479359Y-106167080D01*
X165354175Y-106429901D01*
X165309524Y-106577110D01*
X164083010Y-106577110D01*
X164083010Y-98044000D01*
X164473319Y-98044000D01*
X164503970Y-98355204D01*
X164594745Y-98654449D01*
X164742155Y-98930235D01*
X164940537Y-99171963D01*
X165182265Y-99370345D01*
X165458051Y-99517755D01*
X165757296Y-99608530D01*
X165990514Y-99631500D01*
X166241486Y-99631500D01*
X166474704Y-99608530D01*
X166773949Y-99517755D01*
X167049735Y-99370345D01*
X167291463Y-99171963D01*
X167489845Y-98930235D01*
X167637255Y-98654449D01*
X167728030Y-98355204D01*
X167758681Y-98044000D01*
X167728030Y-97732796D01*
X167637255Y-97433551D01*
X167489845Y-97157765D01*
X167291463Y-96916037D01*
X167112101Y-96768837D01*
X167297315Y-96613437D01*
X167491969Y-96370923D01*
X167635571Y-96095094D01*
X167706563Y-95876980D01*
X167586594Y-95631000D01*
X166243000Y-95631000D01*
X166243000Y-95651000D01*
X165989000Y-95651000D01*
X165989000Y-95631000D01*
X164645406Y-95631000D01*
X164525437Y-95876980D01*
X164596429Y-96095094D01*
X164740031Y-96370923D01*
X164934685Y-96613437D01*
X165119899Y-96768837D01*
X164940537Y-96916037D01*
X164742155Y-97157765D01*
X164594745Y-97433551D01*
X164503970Y-97732796D01*
X164473319Y-98044000D01*
X164083010Y-98044000D01*
X164083010Y-92011500D01*
X164477928Y-92011500D01*
X164477928Y-93916500D01*
X164490188Y-94040982D01*
X164526498Y-94160680D01*
X164585463Y-94270994D01*
X164664815Y-94367685D01*
X164761506Y-94447037D01*
X164853219Y-94496059D01*
X164740031Y-94637077D01*
X164596429Y-94912906D01*
X164525437Y-95131020D01*
X164645406Y-95377000D01*
X165989000Y-95377000D01*
X165989000Y-95357000D01*
X166243000Y-95357000D01*
X166243000Y-95377000D01*
X167586594Y-95377000D01*
X167706563Y-95131020D01*
X167635571Y-94912906D01*
X167491969Y-94637077D01*
X167378781Y-94496059D01*
X167470494Y-94447037D01*
X167567185Y-94367685D01*
X167646537Y-94270994D01*
X167705502Y-94160680D01*
X167741812Y-94040982D01*
X167754072Y-93916500D01*
X167754072Y-92011500D01*
X167741812Y-91887018D01*
X167705502Y-91767320D01*
X167646537Y-91657006D01*
X167567185Y-91560315D01*
X167470494Y-91480963D01*
X167360180Y-91421998D01*
X167240482Y-91385688D01*
X167116000Y-91373428D01*
X165116000Y-91373428D01*
X164991518Y-91385688D01*
X164871820Y-91421998D01*
X164761506Y-91480963D01*
X164664815Y-91560315D01*
X164585463Y-91657006D01*
X164526498Y-91767320D01*
X164490188Y-91887018D01*
X164477928Y-92011500D01*
X164083010Y-92011500D01*
X164083010Y-86820329D01*
X164086686Y-86783006D01*
X164083010Y-86745683D01*
X164083010Y-86745673D01*
X164072013Y-86634020D01*
X164028556Y-86490759D01*
X163957984Y-86358730D01*
X163863011Y-86243005D01*
X163834014Y-86219208D01*
X163274315Y-85659510D01*
X163396932Y-85510101D01*
X163530182Y-85260808D01*
X163612236Y-84990309D01*
X163639943Y-84709000D01*
X163612236Y-84427691D01*
X163530182Y-84157192D01*
X163396932Y-83907899D01*
X163217608Y-83689392D01*
X162999101Y-83510068D01*
X162866142Y-83439000D01*
X162999101Y-83367932D01*
X163217608Y-83188608D01*
X163396932Y-82970101D01*
X163530182Y-82720808D01*
X163612236Y-82450309D01*
X163639943Y-82169000D01*
X163612236Y-81887691D01*
X163530182Y-81617192D01*
X163396932Y-81367899D01*
X163217608Y-81149392D01*
X162999101Y-80970068D01*
X162914918Y-80925071D01*
X165478623Y-80925071D01*
X165478623Y-81390929D01*
X165569507Y-81847835D01*
X165747783Y-82278232D01*
X166006600Y-82665579D01*
X166336011Y-82994990D01*
X166723358Y-83253807D01*
X167153755Y-83432083D01*
X167610661Y-83522967D01*
X168076519Y-83522967D01*
X168533425Y-83432083D01*
X168963822Y-83253807D01*
X169351169Y-82994990D01*
X169680580Y-82665579D01*
X169939397Y-82278232D01*
X170117673Y-81847835D01*
X170208557Y-81390929D01*
X170208557Y-80925071D01*
X170117673Y-80468165D01*
X169939397Y-80037768D01*
X169680580Y-79650421D01*
X169351169Y-79321010D01*
X168963822Y-79062193D01*
X168533425Y-78883917D01*
X168076519Y-78793033D01*
X167610661Y-78793033D01*
X167153755Y-78883917D01*
X166723358Y-79062193D01*
X166336011Y-79321010D01*
X166006600Y-79650421D01*
X165747783Y-80037768D01*
X165569507Y-80468165D01*
X165478623Y-80925071D01*
X162914918Y-80925071D01*
X162749808Y-80836818D01*
X162479309Y-80754764D01*
X162268492Y-80734000D01*
X161327508Y-80734000D01*
X161116691Y-80754764D01*
X160846192Y-80836818D01*
X160596899Y-80970068D01*
X160378392Y-81149392D01*
X160199068Y-81367899D01*
X160065818Y-81617192D01*
X159983764Y-81887691D01*
X159956057Y-82169000D01*
X159983764Y-82450309D01*
X159989063Y-82467779D01*
X159770190Y-82686653D01*
X159740236Y-82711236D01*
X159642138Y-82830768D01*
X159569246Y-82967141D01*
X159524359Y-83115114D01*
X159513000Y-83230440D01*
X159513000Y-83230447D01*
X159509203Y-83269000D01*
X159513000Y-83307553D01*
X159513000Y-83743843D01*
X156018858Y-87237985D01*
X155992236Y-86967691D01*
X155910182Y-86697192D01*
X155776932Y-86447899D01*
X155597608Y-86229392D01*
X155379101Y-86050068D01*
X155246142Y-85979000D01*
X155379101Y-85907932D01*
X155597608Y-85728608D01*
X155776932Y-85510101D01*
X155910182Y-85260808D01*
X155992236Y-84990309D01*
X156019943Y-84709000D01*
X155992236Y-84427691D01*
X155910182Y-84157192D01*
X155776932Y-83907899D01*
X155597608Y-83689392D01*
X155484518Y-83596581D01*
X155502482Y-83594812D01*
X155622180Y-83558502D01*
X155732494Y-83499537D01*
X155829185Y-83420185D01*
X155908537Y-83323494D01*
X155967502Y-83213180D01*
X156003812Y-83093482D01*
X156016072Y-82969000D01*
X156013000Y-82454750D01*
X155854250Y-82296000D01*
X154305000Y-82296000D01*
X154305000Y-82316000D01*
X154051000Y-82316000D01*
X154051000Y-82296000D01*
X152501750Y-82296000D01*
X152343000Y-82454750D01*
X152339928Y-82969000D01*
X152352188Y-83093482D01*
X152388498Y-83213180D01*
X152447463Y-83323494D01*
X152526815Y-83420185D01*
X152623506Y-83499537D01*
X152733820Y-83558502D01*
X152853518Y-83594812D01*
X152871482Y-83596581D01*
X152758392Y-83689392D01*
X152579068Y-83907899D01*
X152445818Y-84157192D01*
X152363764Y-84427691D01*
X152336057Y-84709000D01*
X152363764Y-84990309D01*
X152445818Y-85260808D01*
X152579068Y-85510101D01*
X152758392Y-85728608D01*
X152976899Y-85907932D01*
X153109858Y-85979000D01*
X152976899Y-86050068D01*
X152758392Y-86229392D01*
X152579068Y-86447899D01*
X152445818Y-86697192D01*
X152363764Y-86967691D01*
X152336057Y-87249000D01*
X152363764Y-87530309D01*
X152445818Y-87800808D01*
X152579068Y-88050101D01*
X152758392Y-88268608D01*
X152976899Y-88447932D01*
X153109858Y-88519000D01*
X152976899Y-88590068D01*
X152758392Y-88769392D01*
X152579068Y-88987899D01*
X152445818Y-89237192D01*
X152363764Y-89507691D01*
X152336057Y-89789000D01*
X152363764Y-90070309D01*
X152445818Y-90340808D01*
X152579068Y-90590101D01*
X152758392Y-90808608D01*
X152976899Y-90987932D01*
X153226192Y-91121182D01*
X153496691Y-91203236D01*
X153707508Y-91224000D01*
X154648492Y-91224000D01*
X154859309Y-91203236D01*
X155129808Y-91121182D01*
X155379101Y-90987932D01*
X155597608Y-90808608D01*
X155776932Y-90590101D01*
X155910182Y-90340808D01*
X155992236Y-90070309D01*
X156019943Y-89789000D01*
X155992236Y-89507691D01*
X155986936Y-89490221D01*
X160118252Y-85358905D01*
X160199068Y-85510101D01*
X160378392Y-85728608D01*
X160596899Y-85907932D01*
X160729858Y-85979000D01*
X160596899Y-86050068D01*
X160378392Y-86229392D01*
X160199068Y-86447899D01*
X160065818Y-86697192D01*
X159983764Y-86967691D01*
X159956057Y-87249000D01*
X159983764Y-87530309D01*
X160065818Y-87800808D01*
X160199068Y-88050101D01*
X160378392Y-88268608D01*
X160596899Y-88447932D01*
X160729858Y-88519000D01*
X160596899Y-88590068D01*
X160378392Y-88769392D01*
X160199068Y-88987899D01*
X160065818Y-89237192D01*
X159983764Y-89507691D01*
X159956057Y-89789000D01*
X159983764Y-90070309D01*
X160065818Y-90340808D01*
X160199068Y-90590101D01*
X160378392Y-90808608D01*
X160596899Y-90987932D01*
X160846192Y-91121182D01*
X161116691Y-91203236D01*
X161327508Y-91224000D01*
X162268492Y-91224000D01*
X162479309Y-91203236D01*
X162563010Y-91177846D01*
X162563011Y-112556864D01*
X158196673Y-116923203D01*
X158121788Y-116900487D01*
X157903627Y-116879000D01*
X157757727Y-116879000D01*
X157539566Y-116900487D01*
X157259643Y-116985401D01*
X157001663Y-117123294D01*
X156775543Y-117308866D01*
X156751070Y-117338687D01*
X156730179Y-117269820D01*
X156671214Y-117159506D01*
X156591862Y-117062815D01*
X156495171Y-116983463D01*
X156384857Y-116924498D01*
X156265159Y-116888188D01*
X156140677Y-116875928D01*
X154440677Y-116875928D01*
X154316195Y-116888188D01*
X154196497Y-116924498D01*
X154086183Y-116983463D01*
X153989492Y-117062815D01*
X153910140Y-117159506D01*
X153851175Y-117269820D01*
X153814865Y-117389518D01*
X153802605Y-117514000D01*
X153802605Y-117579000D01*
X153080758Y-117579000D01*
X150252702Y-114750944D01*
X150527168Y-114667686D01*
X150828578Y-114506579D01*
X151092766Y-114289766D01*
X151309579Y-114025578D01*
X151470686Y-113724168D01*
X151569895Y-113397119D01*
X151603394Y-113057000D01*
X151569895Y-112716881D01*
X151470686Y-112389832D01*
X151309579Y-112088422D01*
X151092766Y-111824234D01*
X150828578Y-111607421D01*
X150527168Y-111446314D01*
X150200119Y-111347105D01*
X149945225Y-111322000D01*
X149774775Y-111322000D01*
X149519881Y-111347105D01*
X149192832Y-111446314D01*
X148891422Y-111607421D01*
X148627234Y-111824234D01*
X148410421Y-112088422D01*
X148249314Y-112389832D01*
X148166056Y-112664298D01*
X147089000Y-111587243D01*
X147089000Y-110782556D01*
X147092797Y-110744000D01*
X147089000Y-110705440D01*
X147089000Y-110705439D01*
X147081911Y-110633463D01*
X147077642Y-110590113D01*
X147032754Y-110442140D01*
X147018571Y-110415605D01*
X146960261Y-110306512D01*
X156071783Y-110306512D01*
X156113213Y-110586130D01*
X156208397Y-110852292D01*
X156275329Y-110977514D01*
X156519298Y-111049097D01*
X157332395Y-110236000D01*
X156519298Y-109422903D01*
X156275329Y-109494486D01*
X156154429Y-109749996D01*
X156085700Y-110024184D01*
X156071783Y-110306512D01*
X146960261Y-110306512D01*
X146959862Y-110305767D01*
X146861764Y-110186236D01*
X146831811Y-110161654D01*
X145913455Y-109243298D01*
X156698903Y-109243298D01*
X157512000Y-110056395D01*
X157526143Y-110042253D01*
X157705748Y-110221858D01*
X157691605Y-110236000D01*
X157705748Y-110250143D01*
X157526143Y-110429748D01*
X157512000Y-110415605D01*
X156698903Y-111228702D01*
X156770486Y-111472671D01*
X157025996Y-111593571D01*
X157300184Y-111662300D01*
X157582512Y-111676217D01*
X157862130Y-111634787D01*
X158128292Y-111539603D01*
X158250309Y-111474384D01*
X158260815Y-111487185D01*
X158357506Y-111566537D01*
X158467820Y-111625502D01*
X158587518Y-111661812D01*
X158712000Y-111674072D01*
X160312000Y-111674072D01*
X160436482Y-111661812D01*
X160556180Y-111625502D01*
X160666494Y-111566537D01*
X160763185Y-111487185D01*
X160842537Y-111390494D01*
X160901502Y-111280180D01*
X160937812Y-111160482D01*
X160950072Y-111036000D01*
X160950072Y-109436000D01*
X160937812Y-109311518D01*
X160901502Y-109191820D01*
X160842537Y-109081506D01*
X160763185Y-108984815D01*
X160666494Y-108905463D01*
X160556180Y-108846498D01*
X160436482Y-108810188D01*
X160312000Y-108797928D01*
X158712000Y-108797928D01*
X158587518Y-108810188D01*
X158467820Y-108846498D01*
X158357506Y-108905463D01*
X158260815Y-108984815D01*
X158250193Y-108997758D01*
X157998004Y-108878429D01*
X157723816Y-108809700D01*
X157441488Y-108795783D01*
X157161870Y-108837213D01*
X156895708Y-108932397D01*
X156770486Y-108999329D01*
X156698903Y-109243298D01*
X145913455Y-109243298D01*
X144172529Y-107502372D01*
X148170825Y-107502372D01*
X148235425Y-107715344D01*
X148385469Y-108020579D01*
X148592178Y-108290677D01*
X148847609Y-108515258D01*
X149141946Y-108685692D01*
X149463877Y-108795429D01*
X149733000Y-108677850D01*
X149733000Y-107233250D01*
X149987000Y-107233250D01*
X149987000Y-108677850D01*
X150256123Y-108795429D01*
X150578054Y-108685692D01*
X150872391Y-108515258D01*
X151127822Y-108290677D01*
X151334531Y-108020579D01*
X151484575Y-107715344D01*
X151549175Y-107502372D01*
X151431125Y-107233250D01*
X149987000Y-107233250D01*
X149733000Y-107233250D01*
X148288875Y-107233250D01*
X148170825Y-107502372D01*
X144172529Y-107502372D01*
X143380285Y-106710128D01*
X148170825Y-106710128D01*
X148288875Y-106979250D01*
X149733000Y-106979250D01*
X149733000Y-105534650D01*
X149987000Y-105534650D01*
X149987000Y-106979250D01*
X151431125Y-106979250D01*
X151549175Y-106710128D01*
X151484575Y-106497156D01*
X151334531Y-106191921D01*
X151127822Y-105921823D01*
X150872391Y-105697242D01*
X150578054Y-105526808D01*
X150256123Y-105417071D01*
X149987000Y-105534650D01*
X149733000Y-105534650D01*
X149463877Y-105417071D01*
X149141946Y-105526808D01*
X148847609Y-105697242D01*
X148592178Y-105921823D01*
X148385469Y-106191921D01*
X148235425Y-106497156D01*
X148170825Y-106710128D01*
X143380285Y-106710128D01*
X139563729Y-102893572D01*
X140800000Y-102893572D01*
X140924482Y-102881312D01*
X141044180Y-102845002D01*
X141154494Y-102786037D01*
X141251185Y-102706685D01*
X141330537Y-102609994D01*
X141389502Y-102499680D01*
X141425812Y-102379982D01*
X141438072Y-102255500D01*
X141438072Y-100055500D01*
X141425812Y-99931018D01*
X141389502Y-99811320D01*
X141330537Y-99701006D01*
X141251185Y-99604315D01*
X141154494Y-99524963D01*
X141044180Y-99465998D01*
X140924482Y-99429688D01*
X140800000Y-99417428D01*
X138600000Y-99417428D01*
X138475518Y-99429688D01*
X138355820Y-99465998D01*
X138245506Y-99524963D01*
X138148815Y-99604315D01*
X138069463Y-99701006D01*
X138010498Y-99811320D01*
X137974188Y-99931018D01*
X137961928Y-100055500D01*
X137961928Y-101236916D01*
X135405000Y-98679989D01*
X135405000Y-97759288D01*
X135421101Y-97750682D01*
X135639608Y-97571358D01*
X135818932Y-97352851D01*
X135952182Y-97103558D01*
X136034236Y-96833059D01*
X136061943Y-96551750D01*
X136034236Y-96270441D01*
X135952182Y-95999942D01*
X135946734Y-95989750D01*
X137961928Y-95989750D01*
X137961928Y-96304750D01*
X137974188Y-96429232D01*
X138010498Y-96548930D01*
X138069463Y-96659244D01*
X138148815Y-96755935D01*
X138245506Y-96835287D01*
X138355820Y-96894252D01*
X138475518Y-96930562D01*
X138600000Y-96942822D01*
X140800000Y-96942822D01*
X140924482Y-96930562D01*
X141044180Y-96894252D01*
X141154494Y-96835287D01*
X141251185Y-96755935D01*
X141330537Y-96659244D01*
X141389502Y-96548930D01*
X141425812Y-96429232D01*
X141438072Y-96304750D01*
X141438072Y-94104750D01*
X141425812Y-93980268D01*
X141389502Y-93860570D01*
X141330537Y-93750256D01*
X141251185Y-93653565D01*
X141154494Y-93574213D01*
X141080334Y-93534573D01*
X144575908Y-90039000D01*
X148312297Y-90039000D01*
X148410421Y-90222578D01*
X148627234Y-90486766D01*
X148891422Y-90703579D01*
X149192832Y-90864686D01*
X149519881Y-90963895D01*
X149774775Y-90989000D01*
X149945225Y-90989000D01*
X150200119Y-90963895D01*
X150525002Y-90865343D01*
X150525002Y-91135589D01*
X147782189Y-93878402D01*
X147752235Y-93902985D01*
X147654137Y-94022517D01*
X147581245Y-94158890D01*
X147536358Y-94306863D01*
X147524999Y-94422189D01*
X147524999Y-94422196D01*
X147521202Y-94460749D01*
X147524999Y-94499302D01*
X147525000Y-99566936D01*
X147521202Y-99605499D01*
X147536358Y-99759385D01*
X147581245Y-99907358D01*
X147581246Y-99907359D01*
X147654138Y-100043732D01*
X147663797Y-100055501D01*
X147727654Y-100133311D01*
X147727658Y-100133315D01*
X147752236Y-100163263D01*
X147782184Y-100187841D01*
X148210530Y-100616187D01*
X148150105Y-100815381D01*
X148116606Y-101155500D01*
X148150105Y-101495619D01*
X148249314Y-101822668D01*
X148410421Y-102124078D01*
X148627234Y-102388266D01*
X148891422Y-102605079D01*
X149192832Y-102766186D01*
X149519881Y-102865395D01*
X149774775Y-102890500D01*
X149945225Y-102890500D01*
X150200119Y-102865395D01*
X150527168Y-102766186D01*
X150828578Y-102605079D01*
X151092766Y-102388266D01*
X151309579Y-102124078D01*
X151470686Y-101822668D01*
X151569895Y-101495619D01*
X151603394Y-101155500D01*
X151569895Y-100815381D01*
X151470686Y-100488332D01*
X151382001Y-100322413D01*
X154699192Y-100322413D01*
X154794956Y-100586814D01*
X155084571Y-100727704D01*
X155396108Y-100809384D01*
X155717595Y-100828718D01*
X156036675Y-100784961D01*
X156341088Y-100679795D01*
X156515044Y-100586814D01*
X156610808Y-100322413D01*
X155655000Y-99366605D01*
X154699192Y-100322413D01*
X151382001Y-100322413D01*
X151309579Y-100186922D01*
X151092766Y-99922734D01*
X150828578Y-99705921D01*
X150527168Y-99544814D01*
X150200119Y-99445605D01*
X149945225Y-99420500D01*
X149774775Y-99420500D01*
X149519881Y-99445605D01*
X149320687Y-99506030D01*
X149094999Y-99280342D01*
X149094999Y-99249595D01*
X154013282Y-99249595D01*
X154057039Y-99568675D01*
X154162205Y-99873088D01*
X154255186Y-100047044D01*
X154519587Y-100142808D01*
X155475395Y-99187000D01*
X155834605Y-99187000D01*
X156790413Y-100142808D01*
X157054814Y-100047044D01*
X157195704Y-99757429D01*
X157277384Y-99445892D01*
X157296718Y-99124405D01*
X157252961Y-98805325D01*
X157147795Y-98500912D01*
X157054814Y-98326956D01*
X156790413Y-98231192D01*
X155834605Y-99187000D01*
X155475395Y-99187000D01*
X154519587Y-98231192D01*
X154255186Y-98326956D01*
X154114296Y-98616571D01*
X154032616Y-98928108D01*
X154013282Y-99249595D01*
X149094999Y-99249595D01*
X149094999Y-98051587D01*
X154699192Y-98051587D01*
X155655000Y-99007395D01*
X156475395Y-98187000D01*
X159016928Y-98187000D01*
X159016928Y-100187000D01*
X159029188Y-100311482D01*
X159065498Y-100431180D01*
X159124463Y-100541494D01*
X159203815Y-100638185D01*
X159300506Y-100717537D01*
X159410820Y-100776502D01*
X159530518Y-100812812D01*
X159655000Y-100825072D01*
X161655000Y-100825072D01*
X161779482Y-100812812D01*
X161899180Y-100776502D01*
X162009494Y-100717537D01*
X162106185Y-100638185D01*
X162185537Y-100541494D01*
X162244502Y-100431180D01*
X162280812Y-100311482D01*
X162293072Y-100187000D01*
X162293072Y-98187000D01*
X162280812Y-98062518D01*
X162244502Y-97942820D01*
X162185537Y-97832506D01*
X162106185Y-97735815D01*
X162009494Y-97656463D01*
X161899180Y-97597498D01*
X161779482Y-97561188D01*
X161655000Y-97548928D01*
X159655000Y-97548928D01*
X159530518Y-97561188D01*
X159410820Y-97597498D01*
X159300506Y-97656463D01*
X159203815Y-97735815D01*
X159124463Y-97832506D01*
X159065498Y-97942820D01*
X159029188Y-98062518D01*
X159016928Y-98187000D01*
X156475395Y-98187000D01*
X156610808Y-98051587D01*
X156515044Y-97787186D01*
X156225429Y-97646296D01*
X155913892Y-97564616D01*
X155592405Y-97545282D01*
X155273325Y-97589039D01*
X154968912Y-97694205D01*
X154794956Y-97787186D01*
X154699192Y-98051587D01*
X149094999Y-98051587D01*
X149094999Y-96757008D01*
X149141946Y-96784192D01*
X149463877Y-96893929D01*
X149733000Y-96776350D01*
X149733000Y-95331750D01*
X149987000Y-95331750D01*
X149987000Y-96776350D01*
X150256123Y-96893929D01*
X150578054Y-96784192D01*
X150872391Y-96613758D01*
X151127822Y-96389177D01*
X151334531Y-96119079D01*
X151484575Y-95813844D01*
X151549175Y-95600872D01*
X151431125Y-95331750D01*
X149987000Y-95331750D01*
X149733000Y-95331750D01*
X149713000Y-95331750D01*
X149713000Y-95077750D01*
X149733000Y-95077750D01*
X149733000Y-95057750D01*
X149987000Y-95057750D01*
X149987000Y-95077750D01*
X151431125Y-95077750D01*
X151549175Y-94808628D01*
X151484575Y-94595656D01*
X151334531Y-94290421D01*
X151127822Y-94020323D01*
X150872391Y-93795742D01*
X150578054Y-93625308D01*
X150337571Y-93543334D01*
X151837811Y-92043094D01*
X151867765Y-92018511D01*
X151965863Y-91898980D01*
X152038755Y-91762607D01*
X152056720Y-91703385D01*
X152083643Y-91614634D01*
X152093513Y-91514414D01*
X152095001Y-91499308D01*
X152095001Y-91499303D01*
X152098798Y-91460747D01*
X152095001Y-91422191D01*
X152095001Y-88596551D01*
X152098798Y-88557998D01*
X152095001Y-88519445D01*
X152095001Y-88519438D01*
X152083642Y-88404112D01*
X152038755Y-88256139D01*
X151965863Y-88119766D01*
X151867765Y-88000235D01*
X151837817Y-87975658D01*
X151138348Y-87276188D01*
X151113765Y-87246235D01*
X150994234Y-87148137D01*
X150857861Y-87075245D01*
X150709888Y-87030358D01*
X150594562Y-87018999D01*
X150594554Y-87018999D01*
X150556001Y-87015202D01*
X150517448Y-87018999D01*
X141585159Y-87018999D01*
X139382349Y-84816190D01*
X139357766Y-84786236D01*
X139238235Y-84688138D01*
X139101862Y-84615246D01*
X138953889Y-84570359D01*
X138838563Y-84559000D01*
X138838555Y-84559000D01*
X138800002Y-84555203D01*
X138761449Y-84559000D01*
X137251072Y-84559000D01*
X137251072Y-84494000D01*
X137242077Y-84402665D01*
X140424000Y-84402665D01*
X140424000Y-84685335D01*
X140479147Y-84962574D01*
X140587320Y-85223727D01*
X140744363Y-85458759D01*
X140944241Y-85658637D01*
X141179273Y-85815680D01*
X141440426Y-85923853D01*
X141717665Y-85979000D01*
X142000335Y-85979000D01*
X142277574Y-85923853D01*
X142538727Y-85815680D01*
X142773759Y-85658637D01*
X142973637Y-85458759D01*
X143130680Y-85223727D01*
X143238853Y-84962574D01*
X143294000Y-84685335D01*
X143294000Y-84402665D01*
X146774000Y-84402665D01*
X146774000Y-84685335D01*
X146829147Y-84962574D01*
X146937320Y-85223727D01*
X147094363Y-85458759D01*
X147294241Y-85658637D01*
X147529273Y-85815680D01*
X147790426Y-85923853D01*
X148067665Y-85979000D01*
X148350335Y-85979000D01*
X148627574Y-85923853D01*
X148888727Y-85815680D01*
X149123759Y-85658637D01*
X149323637Y-85458759D01*
X149480680Y-85223727D01*
X149588853Y-84962574D01*
X149644000Y-84685335D01*
X149644000Y-84402665D01*
X149588853Y-84125426D01*
X149480680Y-83864273D01*
X149323637Y-83629241D01*
X149123759Y-83429363D01*
X148923131Y-83295308D01*
X148950514Y-83280671D01*
X149022097Y-83036702D01*
X148209000Y-82223605D01*
X147395903Y-83036702D01*
X147467486Y-83280671D01*
X147496341Y-83294324D01*
X147294241Y-83429363D01*
X147094363Y-83629241D01*
X146937320Y-83864273D01*
X146829147Y-84125426D01*
X146774000Y-84402665D01*
X143294000Y-84402665D01*
X143238853Y-84125426D01*
X143130680Y-83864273D01*
X142973637Y-83629241D01*
X142773759Y-83429363D01*
X142573131Y-83295308D01*
X142600514Y-83280671D01*
X142672097Y-83036702D01*
X141859000Y-82223605D01*
X141045903Y-83036702D01*
X141117486Y-83280671D01*
X141146341Y-83294324D01*
X140944241Y-83429363D01*
X140744363Y-83629241D01*
X140587320Y-83864273D01*
X140479147Y-84125426D01*
X140424000Y-84402665D01*
X137242077Y-84402665D01*
X137238812Y-84369518D01*
X137202502Y-84249820D01*
X137143537Y-84139506D01*
X137064185Y-84042815D01*
X136967494Y-83963463D01*
X136857180Y-83904498D01*
X136788313Y-83883607D01*
X136818134Y-83859134D01*
X137003706Y-83633014D01*
X137141599Y-83375034D01*
X137226513Y-83095111D01*
X137255185Y-82804000D01*
X137226513Y-82512889D01*
X137141599Y-82232966D01*
X137078285Y-82114512D01*
X140418783Y-82114512D01*
X140460213Y-82394130D01*
X140555397Y-82660292D01*
X140622329Y-82785514D01*
X140866298Y-82857097D01*
X141679395Y-82044000D01*
X142038605Y-82044000D01*
X142851702Y-82857097D01*
X143095671Y-82785514D01*
X143216571Y-82530004D01*
X143285300Y-82255816D01*
X143292265Y-82114512D01*
X146768783Y-82114512D01*
X146810213Y-82394130D01*
X146905397Y-82660292D01*
X146972329Y-82785514D01*
X147216298Y-82857097D01*
X148029395Y-82044000D01*
X148388605Y-82044000D01*
X149201702Y-82857097D01*
X149445671Y-82785514D01*
X149566571Y-82530004D01*
X149635300Y-82255816D01*
X149649217Y-81973488D01*
X149607787Y-81693870D01*
X149512603Y-81427708D01*
X149481224Y-81369000D01*
X152339928Y-81369000D01*
X152343000Y-81883250D01*
X152501750Y-82042000D01*
X154051000Y-82042000D01*
X154051000Y-80892750D01*
X154305000Y-80892750D01*
X154305000Y-82042000D01*
X155854250Y-82042000D01*
X156013000Y-81883250D01*
X156016072Y-81369000D01*
X156003812Y-81244518D01*
X155967502Y-81124820D01*
X155908537Y-81014506D01*
X155829185Y-80917815D01*
X155732494Y-80838463D01*
X155622180Y-80779498D01*
X155502482Y-80743188D01*
X155378000Y-80730928D01*
X154463750Y-80734000D01*
X154305000Y-80892750D01*
X154051000Y-80892750D01*
X153892250Y-80734000D01*
X152978000Y-80730928D01*
X152853518Y-80743188D01*
X152733820Y-80779498D01*
X152623506Y-80838463D01*
X152526815Y-80917815D01*
X152447463Y-81014506D01*
X152388498Y-81124820D01*
X152352188Y-81244518D01*
X152339928Y-81369000D01*
X149481224Y-81369000D01*
X149445671Y-81302486D01*
X149201702Y-81230903D01*
X148388605Y-82044000D01*
X148029395Y-82044000D01*
X147216298Y-81230903D01*
X146972329Y-81302486D01*
X146851429Y-81557996D01*
X146782700Y-81832184D01*
X146768783Y-82114512D01*
X143292265Y-82114512D01*
X143299217Y-81973488D01*
X143257787Y-81693870D01*
X143162603Y-81427708D01*
X143095671Y-81302486D01*
X142851702Y-81230903D01*
X142038605Y-82044000D01*
X141679395Y-82044000D01*
X140866298Y-81230903D01*
X140622329Y-81302486D01*
X140501429Y-81557996D01*
X140432700Y-81832184D01*
X140418783Y-82114512D01*
X137078285Y-82114512D01*
X137003706Y-81974986D01*
X136818134Y-81748866D01*
X136592014Y-81563294D01*
X136334034Y-81425401D01*
X136054111Y-81340487D01*
X135835950Y-81319000D01*
X135690050Y-81319000D01*
X135471889Y-81340487D01*
X135191966Y-81425401D01*
X134933986Y-81563294D01*
X134707866Y-81748866D01*
X134522294Y-81974986D01*
X134497457Y-82021453D01*
X134407032Y-82030359D01*
X134259059Y-82075246D01*
X134122686Y-82148138D01*
X134003155Y-82246236D01*
X133905057Y-82365767D01*
X133832165Y-82502140D01*
X133787278Y-82650113D01*
X133772121Y-82804000D01*
X133775919Y-82842561D01*
X133775920Y-88603354D01*
X133772122Y-88641917D01*
X133787278Y-88795803D01*
X133832165Y-88943776D01*
X133855749Y-88987899D01*
X133905058Y-89080150D01*
X133934285Y-89115763D01*
X133978574Y-89169729D01*
X133978578Y-89169733D01*
X134003156Y-89199681D01*
X134033104Y-89224259D01*
X134047836Y-89238991D01*
X134006119Y-89253930D01*
X133764869Y-89398615D01*
X133556481Y-89587586D01*
X133388963Y-89813580D01*
X133268754Y-90067913D01*
X133228096Y-90201961D01*
X133350085Y-90424000D01*
X134493000Y-90424000D01*
X134493000Y-90404000D01*
X134747000Y-90404000D01*
X134747000Y-90424000D01*
X134767000Y-90424000D01*
X134767000Y-90678000D01*
X134747000Y-90678000D01*
X134747000Y-91821624D01*
X134969040Y-91942909D01*
X135085002Y-91901383D01*
X135085002Y-92567468D01*
X132442179Y-95210292D01*
X132412225Y-95234875D01*
X132314127Y-95354407D01*
X132241235Y-95490780D01*
X132196348Y-95638753D01*
X132184989Y-95754079D01*
X132184989Y-95754086D01*
X132181192Y-95792639D01*
X128218638Y-95792639D01*
X128114637Y-95636991D01*
X127914759Y-95437113D01*
X127679727Y-95280070D01*
X127418574Y-95171897D01*
X127141335Y-95116750D01*
X126858665Y-95116750D01*
X126581426Y-95171897D01*
X126320273Y-95280070D01*
X126085241Y-95437113D01*
X125885363Y-95636991D01*
X125728320Y-95872023D01*
X125620147Y-96133176D01*
X125565000Y-96410415D01*
X124993000Y-96410415D01*
X124993000Y-90409665D01*
X125565000Y-90409665D01*
X125565000Y-90692335D01*
X125620147Y-90969574D01*
X125728320Y-91230727D01*
X125885363Y-91465759D01*
X126085241Y-91665637D01*
X126320273Y-91822680D01*
X126581426Y-91930853D01*
X126858665Y-91986000D01*
X127141335Y-91986000D01*
X127418574Y-91930853D01*
X127679727Y-91822680D01*
X127914759Y-91665637D01*
X128114637Y-91465759D01*
X128271680Y-91230727D01*
X128379853Y-90969574D01*
X128393684Y-90900039D01*
X133228096Y-90900039D01*
X133268754Y-91034087D01*
X133388963Y-91288420D01*
X133556481Y-91514414D01*
X133764869Y-91703385D01*
X134006119Y-91848070D01*
X134270960Y-91942909D01*
X134493000Y-91821624D01*
X134493000Y-90678000D01*
X133350085Y-90678000D01*
X133228096Y-90900039D01*
X128393684Y-90900039D01*
X128435000Y-90692335D01*
X128435000Y-90409665D01*
X128379853Y-90132426D01*
X128271680Y-89871273D01*
X128114637Y-89636241D01*
X127914759Y-89436363D01*
X127679727Y-89279320D01*
X127418574Y-89171147D01*
X127141335Y-89116000D01*
X126858665Y-89116000D01*
X126581426Y-89171147D01*
X126320273Y-89279320D01*
X126085241Y-89436363D01*
X125885363Y-89636241D01*
X125728320Y-89871273D01*
X125620147Y-90132426D01*
X125565000Y-90409665D01*
X124993000Y-90409665D01*
X124993000Y-80925071D01*
X125478623Y-80925071D01*
X125478623Y-81390929D01*
X125569507Y-81847835D01*
X125747783Y-82278232D01*
X126006600Y-82665579D01*
X126336011Y-82994990D01*
X126723358Y-83253807D01*
X127153755Y-83432083D01*
X127610661Y-83522967D01*
X128076519Y-83522967D01*
X128533425Y-83432083D01*
X128963822Y-83253807D01*
X129351169Y-82994990D01*
X129680580Y-82665579D01*
X129939397Y-82278232D01*
X130117673Y-81847835D01*
X130208557Y-81390929D01*
X130208557Y-81051298D01*
X141045903Y-81051298D01*
X141859000Y-81864395D01*
X142672097Y-81051298D01*
X147395903Y-81051298D01*
X148209000Y-81864395D01*
X149022097Y-81051298D01*
X148950514Y-80807329D01*
X148695004Y-80686429D01*
X148420816Y-80617700D01*
X148138488Y-80603783D01*
X147858870Y-80645213D01*
X147592708Y-80740397D01*
X147467486Y-80807329D01*
X147395903Y-81051298D01*
X142672097Y-81051298D01*
X142600514Y-80807329D01*
X142345004Y-80686429D01*
X142070816Y-80617700D01*
X141788488Y-80603783D01*
X141508870Y-80645213D01*
X141242708Y-80740397D01*
X141117486Y-80807329D01*
X141045903Y-81051298D01*
X130208557Y-81051298D01*
X130208557Y-80925071D01*
X130117673Y-80468165D01*
X129939397Y-80037768D01*
X129680580Y-79650421D01*
X129351169Y-79321010D01*
X128963822Y-79062193D01*
X128533425Y-78883917D01*
X128076519Y-78793033D01*
X127610661Y-78793033D01*
X127153755Y-78883917D01*
X126723358Y-79062193D01*
X126336011Y-79321010D01*
X126006600Y-79650421D01*
X125747783Y-80037768D01*
X125569507Y-80468165D01*
X125478623Y-80925071D01*
X124993000Y-80925071D01*
X124993000Y-79915279D01*
X125022234Y-79617125D01*
X125099448Y-79361378D01*
X125224869Y-79125496D01*
X125393716Y-78918470D01*
X125599554Y-78748187D01*
X125834556Y-78621121D01*
X126089756Y-78542124D01*
X126385882Y-78511000D01*
X169385721Y-78511000D01*
X169683875Y-78540234D01*
G36*
X139861772Y-87515928D02*
G01*
X138600000Y-87515928D01*
X138475518Y-87528188D01*
X138355820Y-87564498D01*
X138245506Y-87623463D01*
X138148815Y-87702815D01*
X138069463Y-87799506D01*
X138010498Y-87909820D01*
X137974188Y-88029518D01*
X137961928Y-88154000D01*
X137961928Y-90354000D01*
X137974188Y-90478482D01*
X138010498Y-90598180D01*
X138069463Y-90708494D01*
X138148815Y-90805185D01*
X138245506Y-90884537D01*
X138355820Y-90943502D01*
X138475518Y-90979812D01*
X138600000Y-90992072D01*
X140800000Y-90992072D01*
X140924482Y-90979812D01*
X141044180Y-90943502D01*
X141154494Y-90884537D01*
X141251185Y-90805185D01*
X141330537Y-90708494D01*
X141389502Y-90598180D01*
X141425812Y-90478482D01*
X141438072Y-90354000D01*
X141438072Y-88588999D01*
X143829615Y-88588999D01*
X143812517Y-88598138D01*
X143759173Y-88641917D01*
X143722937Y-88671655D01*
X143722934Y-88671658D01*
X143692986Y-88696236D01*
X143668408Y-88726184D01*
X139172190Y-93222403D01*
X139142236Y-93246986D01*
X139044138Y-93366518D01*
X138990602Y-93466678D01*
X138600000Y-93466678D01*
X138475518Y-93478938D01*
X138355820Y-93515248D01*
X138245506Y-93574213D01*
X138148815Y-93653565D01*
X138069463Y-93750256D01*
X138010498Y-93860570D01*
X137974188Y-93980268D01*
X137961928Y-94104750D01*
X137961928Y-94419750D01*
X135453036Y-94419750D01*
X136397817Y-93474969D01*
X136427765Y-93450391D01*
X136525863Y-93330860D01*
X136598755Y-93194487D01*
X136643642Y-93046514D01*
X136655001Y-92931188D01*
X136655001Y-92931181D01*
X136658798Y-92892628D01*
X136655001Y-92854075D01*
X136655001Y-89989555D01*
X136658798Y-89950999D01*
X136655001Y-89912439D01*
X136655001Y-89912438D01*
X136650946Y-89871273D01*
X136643643Y-89797112D01*
X136598755Y-89649139D01*
X136591861Y-89636241D01*
X136525863Y-89512766D01*
X136427765Y-89393235D01*
X136397812Y-89368653D01*
X135345919Y-88316760D01*
X135345919Y-86832072D01*
X136613000Y-86832072D01*
X136737482Y-86819812D01*
X136857180Y-86783502D01*
X136967494Y-86724537D01*
X137064185Y-86645185D01*
X137143537Y-86548494D01*
X137202502Y-86438180D01*
X137238812Y-86318482D01*
X137251072Y-86194000D01*
X137251072Y-86129000D01*
X138474845Y-86129000D01*
X139861772Y-87515928D01*
X139861772Y-87515928D01*
G37*
X139861772Y-87515928D02*
X138600000Y-87515928D01*
X138475518Y-87528188D01*
X138355820Y-87564498D01*
X138245506Y-87623463D01*
X138148815Y-87702815D01*
X138069463Y-87799506D01*
X138010498Y-87909820D01*
X137974188Y-88029518D01*
X137961928Y-88154000D01*
X137961928Y-90354000D01*
X137974188Y-90478482D01*
X138010498Y-90598180D01*
X138069463Y-90708494D01*
X138148815Y-90805185D01*
X138245506Y-90884537D01*
X138355820Y-90943502D01*
X138475518Y-90979812D01*
X138600000Y-90992072D01*
X140800000Y-90992072D01*
X140924482Y-90979812D01*
X141044180Y-90943502D01*
X141154494Y-90884537D01*
X141251185Y-90805185D01*
X141330537Y-90708494D01*
X141389502Y-90598180D01*
X141425812Y-90478482D01*
X141438072Y-90354000D01*
X141438072Y-88588999D01*
X143829615Y-88588999D01*
X143812517Y-88598138D01*
X143759173Y-88641917D01*
X143722937Y-88671655D01*
X143722934Y-88671658D01*
X143692986Y-88696236D01*
X143668408Y-88726184D01*
X139172190Y-93222403D01*
X139142236Y-93246986D01*
X139044138Y-93366518D01*
X138990602Y-93466678D01*
X138600000Y-93466678D01*
X138475518Y-93478938D01*
X138355820Y-93515248D01*
X138245506Y-93574213D01*
X138148815Y-93653565D01*
X138069463Y-93750256D01*
X138010498Y-93860570D01*
X137974188Y-93980268D01*
X137961928Y-94104750D01*
X137961928Y-94419750D01*
X135453036Y-94419750D01*
X136397817Y-93474969D01*
X136427765Y-93450391D01*
X136525863Y-93330860D01*
X136598755Y-93194487D01*
X136643642Y-93046514D01*
X136655001Y-92931188D01*
X136655001Y-92931181D01*
X136658798Y-92892628D01*
X136655001Y-92854075D01*
X136655001Y-89989555D01*
X136658798Y-89950999D01*
X136655001Y-89912439D01*
X136655001Y-89912438D01*
X136650946Y-89871273D01*
X136643643Y-89797112D01*
X136598755Y-89649139D01*
X136591861Y-89636241D01*
X136525863Y-89512766D01*
X136427765Y-89393235D01*
X136397812Y-89368653D01*
X135345919Y-88316760D01*
X135345919Y-86832072D01*
X136613000Y-86832072D01*
X136737482Y-86819812D01*
X136857180Y-86783502D01*
X136967494Y-86724537D01*
X137064185Y-86645185D01*
X137143537Y-86548494D01*
X137202502Y-86438180D01*
X137238812Y-86318482D01*
X137251072Y-86194000D01*
X137251072Y-86129000D01*
X138474845Y-86129000D01*
X139861772Y-87515928D01*
M02*
