G04 #@! TF.GenerationSoftware,KiCad,Pcbnew,(5.1.4)-1*
G04 #@! TF.CreationDate,2022-04-26T14:24:58-06:00*
G04 #@! TF.ProjectId,UselessBox V2,5573656c-6573-4734-926f-782056322e6b,2*
G04 #@! TF.SameCoordinates,Original*
G04 #@! TF.FileFunction,Legend,Bot*
G04 #@! TF.FilePolarity,Positive*
%FSLAX46Y46*%
G04 Gerber Fmt 4.6, Leading zero omitted, Abs format (unit mm)*
G04 Created by KiCad (PCBNEW (5.1.4)-1) date 2022-04-26 14:24:58*
%MOMM*%
%LPD*%
G04 APERTURE LIST*
%ADD10C,0.150000*%
%ADD11C,0.010000*%
G04 APERTURE END LIST*
D10*
X164328000Y-123769380D02*
X164328000Y-122769380D01*
X163899428Y-123769380D02*
X163899428Y-123245571D01*
X163947047Y-123150333D01*
X164042285Y-123102714D01*
X164185142Y-123102714D01*
X164280380Y-123150333D01*
X164328000Y-123197952D01*
X163566095Y-123102714D02*
X163185142Y-123102714D01*
X163423238Y-122769380D02*
X163423238Y-123626523D01*
X163375619Y-123721761D01*
X163280380Y-123769380D01*
X163185142Y-123769380D01*
X162994666Y-123102714D02*
X162613714Y-123102714D01*
X162851809Y-122769380D02*
X162851809Y-123626523D01*
X162804190Y-123721761D01*
X162708952Y-123769380D01*
X162613714Y-123769380D01*
X162280380Y-123102714D02*
X162280380Y-124102714D01*
X162280380Y-123150333D02*
X162185142Y-123102714D01*
X161994666Y-123102714D01*
X161899428Y-123150333D01*
X161851809Y-123197952D01*
X161804190Y-123293190D01*
X161804190Y-123578904D01*
X161851809Y-123674142D01*
X161899428Y-123721761D01*
X161994666Y-123769380D01*
X162185142Y-123769380D01*
X162280380Y-123721761D01*
X161423238Y-123721761D02*
X161328000Y-123769380D01*
X161137523Y-123769380D01*
X161042285Y-123721761D01*
X160994666Y-123626523D01*
X160994666Y-123578904D01*
X161042285Y-123483666D01*
X161137523Y-123436047D01*
X161280380Y-123436047D01*
X161375619Y-123388428D01*
X161423238Y-123293190D01*
X161423238Y-123245571D01*
X161375619Y-123150333D01*
X161280380Y-123102714D01*
X161137523Y-123102714D01*
X161042285Y-123150333D01*
X160566095Y-123674142D02*
X160518476Y-123721761D01*
X160566095Y-123769380D01*
X160613714Y-123721761D01*
X160566095Y-123674142D01*
X160566095Y-123769380D01*
X160566095Y-123150333D02*
X160518476Y-123197952D01*
X160566095Y-123245571D01*
X160613714Y-123197952D01*
X160566095Y-123150333D01*
X160566095Y-123245571D01*
X159375619Y-122721761D02*
X160232761Y-124007476D01*
X158328000Y-122721761D02*
X159185142Y-124007476D01*
X157566095Y-123102714D02*
X157566095Y-123912238D01*
X157613714Y-124007476D01*
X157661333Y-124055095D01*
X157756571Y-124102714D01*
X157899428Y-124102714D01*
X157994666Y-124055095D01*
X157566095Y-123721761D02*
X157661333Y-123769380D01*
X157851809Y-123769380D01*
X157947047Y-123721761D01*
X157994666Y-123674142D01*
X158042285Y-123578904D01*
X158042285Y-123293190D01*
X157994666Y-123197952D01*
X157947047Y-123150333D01*
X157851809Y-123102714D01*
X157661333Y-123102714D01*
X157566095Y-123150333D01*
X157089904Y-123769380D02*
X157089904Y-123102714D01*
X157089904Y-122769380D02*
X157137523Y-122817000D01*
X157089904Y-122864619D01*
X157042285Y-122817000D01*
X157089904Y-122769380D01*
X157089904Y-122864619D01*
X156756571Y-123102714D02*
X156375619Y-123102714D01*
X156613714Y-122769380D02*
X156613714Y-123626523D01*
X156566095Y-123721761D01*
X156470857Y-123769380D01*
X156375619Y-123769380D01*
X156042285Y-123769380D02*
X156042285Y-122769380D01*
X155613714Y-123769380D02*
X155613714Y-123245571D01*
X155661333Y-123150333D01*
X155756571Y-123102714D01*
X155899428Y-123102714D01*
X155994666Y-123150333D01*
X156042285Y-123197952D01*
X154708952Y-123102714D02*
X154708952Y-123769380D01*
X155137523Y-123102714D02*
X155137523Y-123626523D01*
X155089904Y-123721761D01*
X154994666Y-123769380D01*
X154851809Y-123769380D01*
X154756571Y-123721761D01*
X154708952Y-123674142D01*
X154232761Y-123769380D02*
X154232761Y-122769380D01*
X154232761Y-123150333D02*
X154137523Y-123102714D01*
X153947047Y-123102714D01*
X153851809Y-123150333D01*
X153804190Y-123197952D01*
X153756571Y-123293190D01*
X153756571Y-123578904D01*
X153804190Y-123674142D01*
X153851809Y-123721761D01*
X153947047Y-123769380D01*
X154137523Y-123769380D01*
X154232761Y-123721761D01*
X153328000Y-123674142D02*
X153280380Y-123721761D01*
X153328000Y-123769380D01*
X153375619Y-123721761D01*
X153328000Y-123674142D01*
X153328000Y-123769380D01*
X152423238Y-123721761D02*
X152518476Y-123769380D01*
X152708952Y-123769380D01*
X152804190Y-123721761D01*
X152851809Y-123674142D01*
X152899428Y-123578904D01*
X152899428Y-123293190D01*
X152851809Y-123197952D01*
X152804190Y-123150333D01*
X152708952Y-123102714D01*
X152518476Y-123102714D01*
X152423238Y-123150333D01*
X151851809Y-123769380D02*
X151947047Y-123721761D01*
X151994666Y-123674142D01*
X152042285Y-123578904D01*
X152042285Y-123293190D01*
X151994666Y-123197952D01*
X151947047Y-123150333D01*
X151851809Y-123102714D01*
X151708952Y-123102714D01*
X151613714Y-123150333D01*
X151566095Y-123197952D01*
X151518476Y-123293190D01*
X151518476Y-123578904D01*
X151566095Y-123674142D01*
X151613714Y-123721761D01*
X151708952Y-123769380D01*
X151851809Y-123769380D01*
X151089904Y-123769380D02*
X151089904Y-123102714D01*
X151089904Y-123197952D02*
X151042285Y-123150333D01*
X150947047Y-123102714D01*
X150804190Y-123102714D01*
X150708952Y-123150333D01*
X150661333Y-123245571D01*
X150661333Y-123769380D01*
X150661333Y-123245571D02*
X150613714Y-123150333D01*
X150518476Y-123102714D01*
X150375619Y-123102714D01*
X150280380Y-123150333D01*
X150232761Y-123245571D01*
X150232761Y-123769380D01*
X149042285Y-122721761D02*
X149899428Y-124007476D01*
X148566095Y-123769380D02*
X148661333Y-123721761D01*
X148708952Y-123626523D01*
X148708952Y-122769380D01*
X147804190Y-123721761D02*
X147899428Y-123769380D01*
X148089904Y-123769380D01*
X148185142Y-123721761D01*
X148232761Y-123626523D01*
X148232761Y-123245571D01*
X148185142Y-123150333D01*
X148089904Y-123102714D01*
X147899428Y-123102714D01*
X147804190Y-123150333D01*
X147756571Y-123245571D01*
X147756571Y-123340809D01*
X148232761Y-123436047D01*
X147328000Y-123769380D02*
X147328000Y-123102714D01*
X147328000Y-122769380D02*
X147375619Y-122817000D01*
X147328000Y-122864619D01*
X147280380Y-122817000D01*
X147328000Y-122769380D01*
X147328000Y-122864619D01*
X146899428Y-123721761D02*
X146804190Y-123769380D01*
X146613714Y-123769380D01*
X146518476Y-123721761D01*
X146470857Y-123626523D01*
X146470857Y-123578904D01*
X146518476Y-123483666D01*
X146613714Y-123436047D01*
X146756571Y-123436047D01*
X146851809Y-123388428D01*
X146899428Y-123293190D01*
X146899428Y-123245571D01*
X146851809Y-123150333D01*
X146756571Y-123102714D01*
X146613714Y-123102714D01*
X146518476Y-123150333D01*
X146185142Y-123102714D02*
X145804190Y-123102714D01*
X146042285Y-122769380D02*
X146042285Y-123626523D01*
X145994666Y-123721761D01*
X145899428Y-123769380D01*
X145804190Y-123769380D01*
X145470857Y-123769380D02*
X145470857Y-123102714D01*
X145470857Y-122769380D02*
X145518476Y-122817000D01*
X145470857Y-122864619D01*
X145423238Y-122817000D01*
X145470857Y-122769380D01*
X145470857Y-122864619D01*
X144994666Y-123769380D02*
X144994666Y-123102714D01*
X144994666Y-123197952D02*
X144947047Y-123150333D01*
X144851809Y-123102714D01*
X144708952Y-123102714D01*
X144613714Y-123150333D01*
X144566095Y-123245571D01*
X144566095Y-123769380D01*
X144566095Y-123245571D02*
X144518476Y-123150333D01*
X144423238Y-123102714D01*
X144280380Y-123102714D01*
X144185142Y-123150333D01*
X144137523Y-123245571D01*
X144137523Y-123769380D01*
X143518476Y-123769380D02*
X143613714Y-123721761D01*
X143661333Y-123674142D01*
X143708952Y-123578904D01*
X143708952Y-123293190D01*
X143661333Y-123197952D01*
X143613714Y-123150333D01*
X143518476Y-123102714D01*
X143375619Y-123102714D01*
X143280380Y-123150333D01*
X143232761Y-123197952D01*
X143185142Y-123293190D01*
X143185142Y-123578904D01*
X143232761Y-123674142D01*
X143280380Y-123721761D01*
X143375619Y-123769380D01*
X143518476Y-123769380D01*
X142042285Y-122721761D02*
X142899428Y-124007476D01*
X141708952Y-122769380D02*
X141708952Y-123578904D01*
X141661333Y-123674142D01*
X141613714Y-123721761D01*
X141518476Y-123769380D01*
X141328000Y-123769380D01*
X141232761Y-123721761D01*
X141185142Y-123674142D01*
X141137523Y-123578904D01*
X141137523Y-122769380D01*
X140708952Y-123721761D02*
X140613714Y-123769380D01*
X140423238Y-123769380D01*
X140328000Y-123721761D01*
X140280380Y-123626523D01*
X140280380Y-123578904D01*
X140328000Y-123483666D01*
X140423238Y-123436047D01*
X140566095Y-123436047D01*
X140661333Y-123388428D01*
X140708952Y-123293190D01*
X140708952Y-123245571D01*
X140661333Y-123150333D01*
X140566095Y-123102714D01*
X140423238Y-123102714D01*
X140328000Y-123150333D01*
X139470857Y-123721761D02*
X139566095Y-123769380D01*
X139756571Y-123769380D01*
X139851809Y-123721761D01*
X139899428Y-123626523D01*
X139899428Y-123245571D01*
X139851809Y-123150333D01*
X139756571Y-123102714D01*
X139566095Y-123102714D01*
X139470857Y-123150333D01*
X139423238Y-123245571D01*
X139423238Y-123340809D01*
X139899428Y-123436047D01*
X138851809Y-123769380D02*
X138947047Y-123721761D01*
X138994666Y-123626523D01*
X138994666Y-122769380D01*
X138089904Y-123721761D02*
X138185142Y-123769380D01*
X138375619Y-123769380D01*
X138470857Y-123721761D01*
X138518476Y-123626523D01*
X138518476Y-123245571D01*
X138470857Y-123150333D01*
X138375619Y-123102714D01*
X138185142Y-123102714D01*
X138089904Y-123150333D01*
X138042285Y-123245571D01*
X138042285Y-123340809D01*
X138518476Y-123436047D01*
X137661333Y-123721761D02*
X137566095Y-123769380D01*
X137375619Y-123769380D01*
X137280380Y-123721761D01*
X137232761Y-123626523D01*
X137232761Y-123578904D01*
X137280380Y-123483666D01*
X137375619Y-123436047D01*
X137518476Y-123436047D01*
X137613714Y-123388428D01*
X137661333Y-123293190D01*
X137661333Y-123245571D01*
X137613714Y-123150333D01*
X137518476Y-123102714D01*
X137375619Y-123102714D01*
X137280380Y-123150333D01*
X136851809Y-123721761D02*
X136756571Y-123769380D01*
X136566095Y-123769380D01*
X136470857Y-123721761D01*
X136423238Y-123626523D01*
X136423238Y-123578904D01*
X136470857Y-123483666D01*
X136566095Y-123436047D01*
X136708952Y-123436047D01*
X136804190Y-123388428D01*
X136851809Y-123293190D01*
X136851809Y-123245571D01*
X136804190Y-123150333D01*
X136708952Y-123102714D01*
X136566095Y-123102714D01*
X136470857Y-123150333D01*
X135661333Y-123245571D02*
X135518476Y-123293190D01*
X135470857Y-123340809D01*
X135423238Y-123436047D01*
X135423238Y-123578904D01*
X135470857Y-123674142D01*
X135518476Y-123721761D01*
X135613714Y-123769380D01*
X135994666Y-123769380D01*
X135994666Y-122769380D01*
X135661333Y-122769380D01*
X135566095Y-122817000D01*
X135518476Y-122864619D01*
X135470857Y-122959857D01*
X135470857Y-123055095D01*
X135518476Y-123150333D01*
X135566095Y-123197952D01*
X135661333Y-123245571D01*
X135994666Y-123245571D01*
X134851809Y-123769380D02*
X134947047Y-123721761D01*
X134994666Y-123674142D01*
X135042285Y-123578904D01*
X135042285Y-123293190D01*
X134994666Y-123197952D01*
X134947047Y-123150333D01*
X134851809Y-123102714D01*
X134708952Y-123102714D01*
X134613714Y-123150333D01*
X134566095Y-123197952D01*
X134518476Y-123293190D01*
X134518476Y-123578904D01*
X134566095Y-123674142D01*
X134613714Y-123721761D01*
X134708952Y-123769380D01*
X134851809Y-123769380D01*
X134185142Y-123769380D02*
X133661333Y-123102714D01*
X134185142Y-123102714D02*
X133661333Y-123769380D01*
X133280380Y-123674142D02*
X133232761Y-123721761D01*
X133280380Y-123769380D01*
X133328000Y-123721761D01*
X133280380Y-123674142D01*
X133280380Y-123769380D01*
X132375619Y-123102714D02*
X132375619Y-123912238D01*
X132423238Y-124007476D01*
X132470857Y-124055095D01*
X132566095Y-124102714D01*
X132708952Y-124102714D01*
X132804190Y-124055095D01*
X132375619Y-123721761D02*
X132470857Y-123769380D01*
X132661333Y-123769380D01*
X132756571Y-123721761D01*
X132804190Y-123674142D01*
X132851809Y-123578904D01*
X132851809Y-123293190D01*
X132804190Y-123197952D01*
X132756571Y-123150333D01*
X132661333Y-123102714D01*
X132470857Y-123102714D01*
X132375619Y-123150333D01*
X131899428Y-123769380D02*
X131899428Y-123102714D01*
X131899428Y-122769380D02*
X131947047Y-122817000D01*
X131899428Y-122864619D01*
X131851809Y-122817000D01*
X131899428Y-122769380D01*
X131899428Y-122864619D01*
X131566095Y-123102714D02*
X131185142Y-123102714D01*
X131423238Y-122769380D02*
X131423238Y-123626523D01*
X131375619Y-123721761D01*
X131280380Y-123769380D01*
X131185142Y-123769380D01*
X163037204Y-113943380D02*
X163037204Y-114752904D01*
X162989585Y-114848142D01*
X162941966Y-114895761D01*
X162846728Y-114943380D01*
X162656252Y-114943380D01*
X162561014Y-114895761D01*
X162513395Y-114848142D01*
X162465776Y-114752904D01*
X162465776Y-113943380D01*
X162037204Y-114895761D02*
X161941966Y-114943380D01*
X161751490Y-114943380D01*
X161656252Y-114895761D01*
X161608633Y-114800523D01*
X161608633Y-114752904D01*
X161656252Y-114657666D01*
X161751490Y-114610047D01*
X161894347Y-114610047D01*
X161989585Y-114562428D01*
X162037204Y-114467190D01*
X162037204Y-114419571D01*
X161989585Y-114324333D01*
X161894347Y-114276714D01*
X161751490Y-114276714D01*
X161656252Y-114324333D01*
X160799109Y-114895761D02*
X160894347Y-114943380D01*
X161084823Y-114943380D01*
X161180061Y-114895761D01*
X161227680Y-114800523D01*
X161227680Y-114419571D01*
X161180061Y-114324333D01*
X161084823Y-114276714D01*
X160894347Y-114276714D01*
X160799109Y-114324333D01*
X160751490Y-114419571D01*
X160751490Y-114514809D01*
X161227680Y-114610047D01*
X160180061Y-114943380D02*
X160275300Y-114895761D01*
X160322919Y-114800523D01*
X160322919Y-113943380D01*
X159418157Y-114895761D02*
X159513395Y-114943380D01*
X159703871Y-114943380D01*
X159799109Y-114895761D01*
X159846728Y-114800523D01*
X159846728Y-114419571D01*
X159799109Y-114324333D01*
X159703871Y-114276714D01*
X159513395Y-114276714D01*
X159418157Y-114324333D01*
X159370538Y-114419571D01*
X159370538Y-114514809D01*
X159846728Y-114610047D01*
X158989585Y-114895761D02*
X158894347Y-114943380D01*
X158703871Y-114943380D01*
X158608633Y-114895761D01*
X158561014Y-114800523D01*
X158561014Y-114752904D01*
X158608633Y-114657666D01*
X158703871Y-114610047D01*
X158846728Y-114610047D01*
X158941966Y-114562428D01*
X158989585Y-114467190D01*
X158989585Y-114419571D01*
X158941966Y-114324333D01*
X158846728Y-114276714D01*
X158703871Y-114276714D01*
X158608633Y-114324333D01*
X158180061Y-114895761D02*
X158084823Y-114943380D01*
X157894347Y-114943380D01*
X157799109Y-114895761D01*
X157751490Y-114800523D01*
X157751490Y-114752904D01*
X157799109Y-114657666D01*
X157894347Y-114610047D01*
X158037204Y-114610047D01*
X158132442Y-114562428D01*
X158180061Y-114467190D01*
X158180061Y-114419571D01*
X158132442Y-114324333D01*
X158037204Y-114276714D01*
X157894347Y-114276714D01*
X157799109Y-114324333D01*
X156227680Y-114419571D02*
X156084823Y-114467190D01*
X156037204Y-114514809D01*
X155989585Y-114610047D01*
X155989585Y-114752904D01*
X156037204Y-114848142D01*
X156084823Y-114895761D01*
X156180061Y-114943380D01*
X156561014Y-114943380D01*
X156561014Y-113943380D01*
X156227680Y-113943380D01*
X156132442Y-113991000D01*
X156084823Y-114038619D01*
X156037204Y-114133857D01*
X156037204Y-114229095D01*
X156084823Y-114324333D01*
X156132442Y-114371952D01*
X156227680Y-114419571D01*
X156561014Y-114419571D01*
X155418157Y-114943380D02*
X155513395Y-114895761D01*
X155561014Y-114848142D01*
X155608633Y-114752904D01*
X155608633Y-114467190D01*
X155561014Y-114371952D01*
X155513395Y-114324333D01*
X155418157Y-114276714D01*
X155275300Y-114276714D01*
X155180061Y-114324333D01*
X155132442Y-114371952D01*
X155084823Y-114467190D01*
X155084823Y-114752904D01*
X155132442Y-114848142D01*
X155180061Y-114895761D01*
X155275300Y-114943380D01*
X155418157Y-114943380D01*
X154751490Y-114943380D02*
X154227680Y-114276714D01*
X154751490Y-114276714D02*
X154227680Y-114943380D01*
X153227680Y-113943380D02*
X152894347Y-114943380D01*
X152561014Y-113943380D01*
X152275300Y-114038619D02*
X152227680Y-113991000D01*
X152132442Y-113943380D01*
X151894347Y-113943380D01*
X151799109Y-113991000D01*
X151751490Y-114038619D01*
X151703871Y-114133857D01*
X151703871Y-114229095D01*
X151751490Y-114371952D01*
X152322919Y-114943380D01*
X151703871Y-114943380D01*
X163180061Y-115593380D02*
X162608633Y-115593380D01*
X162894347Y-116593380D02*
X162894347Y-115593380D01*
X162275300Y-116593380D02*
X162275300Y-115926714D01*
X162275300Y-115593380D02*
X162322919Y-115641000D01*
X162275300Y-115688619D01*
X162227680Y-115641000D01*
X162275300Y-115593380D01*
X162275300Y-115688619D01*
X161799109Y-116593380D02*
X161799109Y-115926714D01*
X161799109Y-116021952D02*
X161751490Y-115974333D01*
X161656252Y-115926714D01*
X161513395Y-115926714D01*
X161418157Y-115974333D01*
X161370538Y-116069571D01*
X161370538Y-116593380D01*
X161370538Y-116069571D02*
X161322919Y-115974333D01*
X161227680Y-115926714D01*
X161084823Y-115926714D01*
X160989585Y-115974333D01*
X160941966Y-116069571D01*
X160941966Y-116593380D01*
X160322919Y-116593380D02*
X160418157Y-116545761D01*
X160465776Y-116498142D01*
X160513395Y-116402904D01*
X160513395Y-116117190D01*
X160465776Y-116021952D01*
X160418157Y-115974333D01*
X160322919Y-115926714D01*
X160180061Y-115926714D01*
X160084823Y-115974333D01*
X160037204Y-116021952D01*
X159989585Y-116117190D01*
X159989585Y-116402904D01*
X160037204Y-116498142D01*
X160084823Y-116545761D01*
X160180061Y-116593380D01*
X160322919Y-116593380D01*
X159703871Y-115926714D02*
X159322919Y-115926714D01*
X159561014Y-115593380D02*
X159561014Y-116450523D01*
X159513395Y-116545761D01*
X159418157Y-116593380D01*
X159322919Y-116593380D01*
X158989585Y-116593380D02*
X158989585Y-115593380D01*
X158561014Y-116593380D02*
X158561014Y-116069571D01*
X158608633Y-115974333D01*
X158703871Y-115926714D01*
X158846728Y-115926714D01*
X158941966Y-115974333D01*
X158989585Y-116021952D01*
X158180061Y-115926714D02*
X157941966Y-116593380D01*
X157703871Y-115926714D02*
X157941966Y-116593380D01*
X158037204Y-116831476D01*
X158084823Y-116879095D01*
X158180061Y-116926714D01*
X156608633Y-116545761D02*
X156465776Y-116593380D01*
X156227680Y-116593380D01*
X156132442Y-116545761D01*
X156084823Y-116498142D01*
X156037204Y-116402904D01*
X156037204Y-116307666D01*
X156084823Y-116212428D01*
X156132442Y-116164809D01*
X156227680Y-116117190D01*
X156418157Y-116069571D01*
X156513395Y-116021952D01*
X156561014Y-115974333D01*
X156608633Y-115879095D01*
X156608633Y-115783857D01*
X156561014Y-115688619D01*
X156513395Y-115641000D01*
X156418157Y-115593380D01*
X156180061Y-115593380D01*
X156037204Y-115641000D01*
X154370538Y-116593380D02*
X154846728Y-116593380D01*
X154846728Y-115593380D01*
X153656252Y-116545761D02*
X153751490Y-116593380D01*
X153941966Y-116593380D01*
X154037204Y-116545761D01*
X154084823Y-116450523D01*
X154084823Y-116069571D01*
X154037204Y-115974333D01*
X153941966Y-115926714D01*
X153751490Y-115926714D01*
X153656252Y-115974333D01*
X153608633Y-116069571D01*
X153608633Y-116164809D01*
X154084823Y-116260047D01*
X153180061Y-116593380D02*
X153180061Y-115926714D01*
X153180061Y-115593380D02*
X153227680Y-115641000D01*
X153180061Y-115688619D01*
X153132442Y-115641000D01*
X153180061Y-115593380D01*
X153180061Y-115688619D01*
X152751490Y-116545761D02*
X152656252Y-116593380D01*
X152465776Y-116593380D01*
X152370538Y-116545761D01*
X152322919Y-116450523D01*
X152322919Y-116402904D01*
X152370538Y-116307666D01*
X152465776Y-116260047D01*
X152608633Y-116260047D01*
X152703871Y-116212428D01*
X152751490Y-116117190D01*
X152751490Y-116069571D01*
X152703871Y-115974333D01*
X152608633Y-115926714D01*
X152465776Y-115926714D01*
X152370538Y-115974333D01*
X151894347Y-116593380D02*
X151894347Y-115593380D01*
X151465776Y-116593380D02*
X151465776Y-116069571D01*
X151513395Y-115974333D01*
X151608633Y-115926714D01*
X151751490Y-115926714D01*
X151846728Y-115974333D01*
X151894347Y-116021952D01*
X150989585Y-116593380D02*
X150989585Y-115926714D01*
X150989585Y-116021952D02*
X150941966Y-115974333D01*
X150846728Y-115926714D01*
X150703871Y-115926714D01*
X150608633Y-115974333D01*
X150561014Y-116069571D01*
X150561014Y-116593380D01*
X150561014Y-116069571D02*
X150513395Y-115974333D01*
X150418157Y-115926714D01*
X150275300Y-115926714D01*
X150180061Y-115974333D01*
X150132442Y-116069571D01*
X150132442Y-116593380D01*
X149227680Y-116593380D02*
X149227680Y-116069571D01*
X149275300Y-115974333D01*
X149370538Y-115926714D01*
X149561014Y-115926714D01*
X149656252Y-115974333D01*
X149227680Y-116545761D02*
X149322919Y-116593380D01*
X149561014Y-116593380D01*
X149656252Y-116545761D01*
X149703871Y-116450523D01*
X149703871Y-116355285D01*
X149656252Y-116260047D01*
X149561014Y-116212428D01*
X149322919Y-116212428D01*
X149227680Y-116164809D01*
X148751490Y-115926714D02*
X148751490Y-116593380D01*
X148751490Y-116021952D02*
X148703871Y-115974333D01*
X148608633Y-115926714D01*
X148465776Y-115926714D01*
X148370538Y-115974333D01*
X148322919Y-116069571D01*
X148322919Y-116593380D01*
X146656252Y-115926714D02*
X146656252Y-116593380D01*
X146894347Y-115545761D02*
X147132442Y-116260047D01*
X146513395Y-116260047D01*
X145418157Y-115545761D02*
X146275300Y-116831476D01*
X145132442Y-115688619D02*
X145084823Y-115641000D01*
X144989585Y-115593380D01*
X144751490Y-115593380D01*
X144656252Y-115641000D01*
X144608633Y-115688619D01*
X144561014Y-115783857D01*
X144561014Y-115879095D01*
X144608633Y-116021952D01*
X145180061Y-116593380D01*
X144561014Y-116593380D01*
X143656252Y-115593380D02*
X144132442Y-115593380D01*
X144180061Y-116069571D01*
X144132442Y-116021952D01*
X144037204Y-115974333D01*
X143799109Y-115974333D01*
X143703871Y-116021952D01*
X143656252Y-116069571D01*
X143608633Y-116164809D01*
X143608633Y-116402904D01*
X143656252Y-116498142D01*
X143703871Y-116545761D01*
X143799109Y-116593380D01*
X144037204Y-116593380D01*
X144132442Y-116545761D01*
X144180061Y-116498142D01*
X142465776Y-115545761D02*
X143322919Y-116831476D01*
X142180061Y-115688619D02*
X142132442Y-115641000D01*
X142037204Y-115593380D01*
X141799109Y-115593380D01*
X141703871Y-115641000D01*
X141656252Y-115688619D01*
X141608633Y-115783857D01*
X141608633Y-115879095D01*
X141656252Y-116021952D01*
X142227680Y-116593380D01*
X141608633Y-116593380D01*
X140989585Y-115593380D02*
X140894347Y-115593380D01*
X140799109Y-115641000D01*
X140751490Y-115688619D01*
X140703871Y-115783857D01*
X140656252Y-115974333D01*
X140656252Y-116212428D01*
X140703871Y-116402904D01*
X140751490Y-116498142D01*
X140799109Y-116545761D01*
X140894347Y-116593380D01*
X140989585Y-116593380D01*
X141084823Y-116545761D01*
X141132442Y-116498142D01*
X141180061Y-116402904D01*
X141227680Y-116212428D01*
X141227680Y-115974333D01*
X141180061Y-115783857D01*
X141132442Y-115688619D01*
X141084823Y-115641000D01*
X140989585Y-115593380D01*
X140275300Y-115688619D02*
X140227680Y-115641000D01*
X140132442Y-115593380D01*
X139894347Y-115593380D01*
X139799109Y-115641000D01*
X139751490Y-115688619D01*
X139703871Y-115783857D01*
X139703871Y-115879095D01*
X139751490Y-116021952D01*
X140322919Y-116593380D01*
X139703871Y-116593380D01*
X139322919Y-115688619D02*
X139275300Y-115641000D01*
X139180061Y-115593380D01*
X138941966Y-115593380D01*
X138846728Y-115641000D01*
X138799109Y-115688619D01*
X138751490Y-115783857D01*
X138751490Y-115879095D01*
X138799109Y-116021952D01*
X139370538Y-116593380D01*
X138751490Y-116593380D01*
D11*
G36*
X144623322Y-110254767D02*
G01*
X144531600Y-110259693D01*
X144460466Y-110265988D01*
X144405106Y-110274986D01*
X144360709Y-110288024D01*
X144322461Y-110306435D01*
X144285550Y-110331556D01*
X144253894Y-110357258D01*
X144203016Y-110404069D01*
X144173814Y-110440296D01*
X144165554Y-110467317D01*
X144177508Y-110486512D01*
X144183411Y-110490166D01*
X144211105Y-110500561D01*
X144240392Y-110499567D01*
X144278672Y-110486063D01*
X144310100Y-110470950D01*
X144348539Y-110453174D01*
X144379905Y-110441652D01*
X144392228Y-110439200D01*
X144408233Y-110447927D01*
X144410714Y-110467350D01*
X144400675Y-110487327D01*
X144386581Y-110496261D01*
X144367199Y-110513313D01*
X144349951Y-110545528D01*
X144338727Y-110582729D01*
X144337416Y-110614742D01*
X144339044Y-110620616D01*
X144354630Y-110633965D01*
X144386480Y-110647552D01*
X144407444Y-110653526D01*
X144446574Y-110664877D01*
X144492915Y-110681141D01*
X144538965Y-110699322D01*
X144577221Y-110716428D01*
X144600183Y-110729465D01*
X144602200Y-110731238D01*
X144615402Y-110742162D01*
X144641572Y-110762325D01*
X144656547Y-110773576D01*
X144690792Y-110800573D01*
X144719411Y-110825588D01*
X144726397Y-110832510D01*
X144745839Y-110849924D01*
X144780116Y-110877686D01*
X144823503Y-110911229D01*
X144849850Y-110930989D01*
X144934554Y-111001511D01*
X145021879Y-111087755D01*
X145105115Y-111182249D01*
X145177552Y-111277518D01*
X145219278Y-111342441D01*
X145239237Y-111371261D01*
X145254706Y-111389993D01*
X145272038Y-111417103D01*
X145291611Y-111458942D01*
X145309637Y-111505827D01*
X145322329Y-111548079D01*
X145326100Y-111572495D01*
X145317756Y-111592102D01*
X145296474Y-111595674D01*
X145267881Y-111584516D01*
X145237603Y-111559929D01*
X145228926Y-111549998D01*
X145198546Y-111515006D01*
X145160211Y-111474380D01*
X145137315Y-111451573D01*
X145098127Y-111413017D01*
X145052537Y-111367132D01*
X145017693Y-111331375D01*
X144984302Y-111298724D01*
X144956260Y-111274958D01*
X144939177Y-111264787D01*
X144938310Y-111264700D01*
X144923269Y-111256626D01*
X144894046Y-111234726D01*
X144855051Y-111202476D01*
X144816632Y-111168728D01*
X144768836Y-111127142D01*
X144723049Y-111089910D01*
X144685263Y-111061765D01*
X144665700Y-111049429D01*
X144629529Y-111026781D01*
X144599728Y-111002172D01*
X144597057Y-110999351D01*
X144573665Y-110979638D01*
X144555782Y-110972600D01*
X144540175Y-110965814D01*
X144538700Y-110961190D01*
X144528488Y-110947505D01*
X144499450Y-110921625D01*
X144453986Y-110885307D01*
X144394494Y-110840308D01*
X144323375Y-110788385D01*
X144243027Y-110731295D01*
X144155849Y-110670796D01*
X144064242Y-110608644D01*
X143989859Y-110559229D01*
X143914998Y-110510278D01*
X143857417Y-110473612D01*
X143813368Y-110447272D01*
X143779104Y-110429296D01*
X143750876Y-110417724D01*
X143724937Y-110410594D01*
X143697538Y-110405945D01*
X143696684Y-110405828D01*
X143660095Y-110402920D01*
X143636582Y-110409822D01*
X143614470Y-110430641D01*
X143609479Y-110436491D01*
X143582959Y-110462504D01*
X143558471Y-110478019D01*
X143554550Y-110479175D01*
X143536300Y-110486816D01*
X143522397Y-110504818D01*
X143510024Y-110538390D01*
X143498797Y-110582238D01*
X143492437Y-110613391D01*
X143491849Y-110638122D01*
X143498800Y-110664096D01*
X143515054Y-110698977D01*
X143533901Y-110734638D01*
X143565599Y-110794247D01*
X143601094Y-110861751D01*
X143632321Y-110921800D01*
X143655484Y-110966043D01*
X143674432Y-111001012D01*
X143686054Y-111021008D01*
X143687800Y-111023400D01*
X143697481Y-111037692D01*
X143713675Y-111065354D01*
X143718595Y-111074200D01*
X143735761Y-111103518D01*
X143761371Y-111145096D01*
X143791306Y-111192494D01*
X143821447Y-111239274D01*
X143847677Y-111278998D01*
X143865878Y-111305227D01*
X143868873Y-111309150D01*
X143879475Y-111324538D01*
X143900400Y-111356488D01*
X143928444Y-111400066D01*
X143955045Y-111441868D01*
X143988206Y-111493256D01*
X144018748Y-111538842D01*
X144042798Y-111572946D01*
X144054557Y-111587918D01*
X144074067Y-111613755D01*
X144098602Y-111651771D01*
X144113642Y-111677450D01*
X144137500Y-111717650D01*
X144160202Y-111752068D01*
X144171078Y-111766350D01*
X144190443Y-111793649D01*
X144212531Y-111831319D01*
X144219349Y-111844400D01*
X144238996Y-111880219D01*
X144257109Y-111907924D01*
X144262364Y-111914250D01*
X144276293Y-111932115D01*
X144299791Y-111965667D01*
X144328860Y-112009117D01*
X144344431Y-112033050D01*
X144377812Y-112083469D01*
X144410746Y-112130880D01*
X144437807Y-112167551D01*
X144445724Y-112177423D01*
X144515884Y-112277374D01*
X144565231Y-112372775D01*
X144582454Y-112406780D01*
X144596949Y-112428658D01*
X144602780Y-112433100D01*
X144612958Y-112443900D01*
X144625172Y-112470573D01*
X144627600Y-112477550D01*
X144640019Y-112506536D01*
X144651985Y-112521459D01*
X144653985Y-112522000D01*
X144664384Y-112532301D01*
X144665700Y-112541050D01*
X144671081Y-112557970D01*
X144675628Y-112560100D01*
X144684729Y-112571127D01*
X144696561Y-112599117D01*
X144702430Y-112617250D01*
X144714552Y-112650914D01*
X144726155Y-112671448D01*
X144730602Y-112674400D01*
X144740632Y-112684707D01*
X144741900Y-112693450D01*
X144748758Y-112710350D01*
X144754600Y-112712500D01*
X144764919Y-112723136D01*
X144767300Y-112737900D01*
X144772619Y-112758537D01*
X144780000Y-112763300D01*
X144790464Y-112773888D01*
X144792700Y-112787641D01*
X144798801Y-112809996D01*
X144806220Y-112816489D01*
X144816094Y-112830756D01*
X144824718Y-112861168D01*
X144826942Y-112874698D01*
X144830354Y-112908307D01*
X144826256Y-112923820D01*
X144811245Y-112928202D01*
X144800723Y-112928400D01*
X144776067Y-112924251D01*
X144767300Y-112915700D01*
X144756664Y-112905381D01*
X144741900Y-112903000D01*
X144721234Y-112899000D01*
X144716478Y-112893475D01*
X144705792Y-112880344D01*
X144677423Y-112860033D01*
X144636845Y-112835801D01*
X144589531Y-112810905D01*
X144540955Y-112788603D01*
X144538700Y-112787659D01*
X144495546Y-112768256D01*
X144458471Y-112749116D01*
X144441745Y-112738717D01*
X144408647Y-112715174D01*
X144386214Y-112699800D01*
X144359154Y-112680255D01*
X144343469Y-112667269D01*
X144322496Y-112653127D01*
X144290756Y-112636880D01*
X144287875Y-112635594D01*
X144260532Y-112621117D01*
X144246935Y-112609167D01*
X144246600Y-112607799D01*
X144236272Y-112599271D01*
X144227550Y-112598200D01*
X144210632Y-112592648D01*
X144208500Y-112587953D01*
X144197835Y-112578120D01*
X144169504Y-112561090D01*
X144129008Y-112540084D01*
X144116425Y-112534018D01*
X144062266Y-112507503D01*
X144007766Y-112479498D01*
X143964472Y-112455941D01*
X143963467Y-112455365D01*
X143924829Y-112435671D01*
X143891608Y-112422989D01*
X143877742Y-112420400D01*
X143857397Y-112415837D01*
X143852900Y-112409738D01*
X143842123Y-112396725D01*
X143816324Y-112382788D01*
X143785305Y-112372390D01*
X143764762Y-112369600D01*
X143741360Y-112360550D01*
X143734008Y-112350550D01*
X143716714Y-112336318D01*
X143689558Y-112331500D01*
X143660785Y-112326142D01*
X143645723Y-112314053D01*
X143629790Y-112300332D01*
X143599345Y-112289291D01*
X143593564Y-112288078D01*
X143563883Y-112280309D01*
X143548639Y-112272017D01*
X143548100Y-112270532D01*
X143537411Y-112260762D01*
X143511235Y-112248700D01*
X143506825Y-112247109D01*
X143473990Y-112235336D01*
X143427418Y-112218262D01*
X143377135Y-112199562D01*
X143376650Y-112199380D01*
X143306099Y-112173860D01*
X143229489Y-112147708D01*
X143151354Y-112122306D01*
X143076224Y-112099034D01*
X143008631Y-112079274D01*
X142953106Y-112064406D01*
X142914182Y-112055812D01*
X142900400Y-112054240D01*
X142877336Y-112051052D01*
X142837239Y-112042679D01*
X142787501Y-112030904D01*
X142735514Y-112017511D01*
X142688671Y-112004281D01*
X142672579Y-111999289D01*
X142647179Y-111993096D01*
X142610323Y-111987651D01*
X142559124Y-111982716D01*
X142490695Y-111978051D01*
X142402148Y-111973418D01*
X142311537Y-111969436D01*
X142260306Y-111969396D01*
X142213521Y-111972883D01*
X142184537Y-111978332D01*
X142148413Y-111986713D01*
X142100837Y-111994092D01*
X142074900Y-111996865D01*
X142027721Y-112003725D01*
X141985096Y-112014513D01*
X141968174Y-112021146D01*
X141937195Y-112034016D01*
X141914340Y-112039399D01*
X141914279Y-112039400D01*
X141891664Y-112050655D01*
X141866573Y-112080176D01*
X141842717Y-112121591D01*
X141823807Y-112168531D01*
X141813892Y-112211724D01*
X141812498Y-112266281D01*
X141825175Y-112301564D01*
X141853081Y-112318136D01*
X141897375Y-112316559D01*
X141959213Y-112297398D01*
X141976005Y-112290577D01*
X142001078Y-112280766D01*
X142025703Y-112273565D01*
X142054207Y-112268609D01*
X142090918Y-112265528D01*
X142140164Y-112263957D01*
X142206271Y-112263527D01*
X142290800Y-112263854D01*
X142377779Y-112265153D01*
X142456747Y-112267802D01*
X142523101Y-112271555D01*
X142572238Y-112276164D01*
X142595600Y-112280182D01*
X142715106Y-112310490D01*
X142810813Y-112333225D01*
X142868650Y-112345652D01*
X142918896Y-112357700D01*
X142975623Y-112374091D01*
X143002846Y-112383044D01*
X143044935Y-112396505D01*
X143079624Y-112405460D01*
X143094921Y-112407700D01*
X143113266Y-112413898D01*
X143116300Y-112420400D01*
X143127169Y-112429946D01*
X143148050Y-112433100D01*
X143171933Y-112436387D01*
X143179800Y-112442689D01*
X143190779Y-112451573D01*
X143219537Y-112465587D01*
X143259175Y-112481440D01*
X143310168Y-112501045D01*
X143359962Y-112521595D01*
X143389350Y-112534728D01*
X143428804Y-112552966D01*
X143489161Y-112580177D01*
X143567996Y-112615282D01*
X143662888Y-112657203D01*
X143771412Y-112704861D01*
X143776700Y-112707177D01*
X143821532Y-112728615D01*
X143883114Y-112760592D01*
X143956556Y-112800349D01*
X144036967Y-112845130D01*
X144119456Y-112892178D01*
X144199130Y-112938734D01*
X144271100Y-112982042D01*
X144330474Y-113019345D01*
X144330506Y-113019366D01*
X144375582Y-113047576D01*
X144415489Y-113070708D01*
X144443264Y-113084779D01*
X144447981Y-113086572D01*
X144469448Y-113097969D01*
X144475200Y-113107055D01*
X144485435Y-113117708D01*
X144493343Y-113118900D01*
X144517699Y-113127109D01*
X144528268Y-113134999D01*
X144559195Y-113155724D01*
X144608042Y-113178676D01*
X144667754Y-113201470D01*
X144731273Y-113221721D01*
X144791543Y-113237044D01*
X144841507Y-113245053D01*
X144855760Y-113245687D01*
X144926583Y-113234851D01*
X144993729Y-113205553D01*
X145052676Y-113161814D01*
X145098900Y-113107659D01*
X145127876Y-113047109D01*
X145135600Y-112996814D01*
X145137537Y-112963282D01*
X145142425Y-112943552D01*
X145145125Y-112941320D01*
X145158263Y-112949288D01*
X145185513Y-112970456D01*
X145222107Y-113001033D01*
X145242352Y-113018608D01*
X145338417Y-113096243D01*
X145428670Y-113153653D01*
X145518620Y-113193349D01*
X145613775Y-113217844D01*
X145702830Y-113228587D01*
X145794554Y-113230994D01*
X145869744Y-113222600D01*
X145935551Y-113201778D01*
X145999125Y-113166902D01*
X146011900Y-113158306D01*
X146065175Y-113117264D01*
X146100248Y-113077259D01*
X146120488Y-113031409D01*
X146129262Y-112972831D01*
X146130341Y-112916253D01*
X146129213Y-112871842D01*
X146128737Y-112866221D01*
X145839531Y-112866221D01*
X145837835Y-112921161D01*
X145825508Y-112956975D01*
X145806505Y-112965447D01*
X145768285Y-112963400D01*
X145714629Y-112951099D01*
X145706135Y-112948585D01*
X145597288Y-112905934D01*
X145498006Y-112848333D01*
X145415223Y-112779937D01*
X145402300Y-112766465D01*
X145336029Y-112690404D01*
X145288589Y-112625437D01*
X145258121Y-112567930D01*
X145242764Y-112514247D01*
X145240657Y-112460754D01*
X145241407Y-112452150D01*
X145249531Y-112407964D01*
X145263912Y-112359050D01*
X145281647Y-112313064D01*
X145299830Y-112277662D01*
X145313762Y-112261426D01*
X145324604Y-112243502D01*
X145326116Y-112232325D01*
X145335546Y-112204505D01*
X145358412Y-112174213D01*
X145386629Y-112150154D01*
X145410951Y-112141000D01*
X145435139Y-112152517D01*
X145457230Y-112182275D01*
X145476417Y-112212988D01*
X145506041Y-112253878D01*
X145539701Y-112296106D01*
X145539797Y-112296220D01*
X145572667Y-112337248D01*
X145600838Y-112375752D01*
X145618359Y-112403584D01*
X145618658Y-112404170D01*
X145635499Y-112435018D01*
X145659487Y-112476128D01*
X145675782Y-112502950D01*
X145736851Y-112608257D01*
X145787333Y-112708851D01*
X145823976Y-112798194D01*
X145826886Y-112806649D01*
X145839531Y-112866221D01*
X146128737Y-112866221D01*
X146125980Y-112833731D01*
X146119156Y-112797537D01*
X146107258Y-112758877D01*
X146088802Y-112713370D01*
X146062303Y-112656633D01*
X146026277Y-112584284D01*
X146001183Y-112534917D01*
X145955106Y-112446697D01*
X145915307Y-112376076D01*
X145878060Y-112317305D01*
X145839643Y-112264635D01*
X145796329Y-112212319D01*
X145780576Y-112194432D01*
X145740098Y-112145345D01*
X145698142Y-112088806D01*
X145672615Y-112050780D01*
X145642266Y-112004022D01*
X145611336Y-111958757D01*
X145589625Y-111928926D01*
X145578539Y-111911695D01*
X145198986Y-111911695D01*
X145190151Y-111950076D01*
X145172720Y-111994143D01*
X145156212Y-112025038D01*
X145121701Y-112085327D01*
X145085904Y-112152548D01*
X145051330Y-112221463D01*
X145020491Y-112286831D01*
X144995897Y-112343411D01*
X144980058Y-112385964D01*
X144976063Y-112401082D01*
X144969203Y-112430424D01*
X144961437Y-112438559D01*
X144948746Y-112429486D01*
X144948150Y-112428891D01*
X144929393Y-112405685D01*
X144907047Y-112372320D01*
X144902145Y-112364211D01*
X144864753Y-112302647D01*
X144819307Y-112230656D01*
X144768383Y-112152049D01*
X144714557Y-112070636D01*
X144660403Y-111990229D01*
X144608498Y-111914637D01*
X144561417Y-111847673D01*
X144521736Y-111793146D01*
X144492030Y-111754868D01*
X144483931Y-111745418D01*
X144466669Y-111722765D01*
X144443191Y-111687796D01*
X144428869Y-111664920D01*
X144409100Y-111632509D01*
X144391607Y-111604231D01*
X144373888Y-111576254D01*
X144353442Y-111544748D01*
X144327768Y-111505880D01*
X144294364Y-111455819D01*
X144250730Y-111390734D01*
X144219811Y-111344684D01*
X144156537Y-111249670D01*
X144096121Y-111157444D01*
X144040457Y-111071008D01*
X143991439Y-110993362D01*
X143950959Y-110927507D01*
X143920910Y-110876446D01*
X143903188Y-110843177D01*
X143902568Y-110841836D01*
X143892743Y-110811275D01*
X143899279Y-110799739D01*
X143921502Y-110807414D01*
X143951330Y-110828467D01*
X143987065Y-110855857D01*
X144033177Y-110889809D01*
X144075150Y-110919768D01*
X144113988Y-110947707D01*
X144166161Y-110986282D01*
X144228039Y-111032706D01*
X144295993Y-111084195D01*
X144366392Y-111137962D01*
X144435606Y-111191221D01*
X144500005Y-111241187D01*
X144555958Y-111285074D01*
X144599835Y-111320096D01*
X144628006Y-111343468D01*
X144632549Y-111347512D01*
X144649520Y-111361891D01*
X144679477Y-111386254D01*
X144710150Y-111410733D01*
X144753138Y-111446386D01*
X144804715Y-111491735D01*
X144861932Y-111543909D01*
X144921842Y-111600040D01*
X144981499Y-111657256D01*
X145037954Y-111712688D01*
X145088260Y-111763466D01*
X145129470Y-111806720D01*
X145158636Y-111839580D01*
X145172811Y-111859176D01*
X145173700Y-111862106D01*
X145183380Y-111873949D01*
X145186400Y-111874300D01*
X145198108Y-111884578D01*
X145198986Y-111911695D01*
X145578539Y-111911695D01*
X145567834Y-111895059D01*
X145557443Y-111860069D01*
X145554885Y-111812228D01*
X145558830Y-111759182D01*
X145568628Y-111705627D01*
X145574880Y-111684052D01*
X145595496Y-111612535D01*
X145602639Y-111548758D01*
X145596249Y-111483376D01*
X145576262Y-111407043D01*
X145572971Y-111396779D01*
X145553271Y-111341443D01*
X145532092Y-111290254D01*
X145513104Y-111251852D01*
X145507774Y-111243209D01*
X145489454Y-111214780D01*
X145479253Y-111196172D01*
X145478500Y-111193608D01*
X145470824Y-111179779D01*
X145450828Y-111152837D01*
X145423066Y-111118194D01*
X145392089Y-111081263D01*
X145362449Y-111047455D01*
X145338699Y-111022185D01*
X145325391Y-111010864D01*
X145324670Y-111010700D01*
X145313902Y-111000837D01*
X145313400Y-110996724D01*
X145304494Y-110981232D01*
X145280271Y-110952637D01*
X145244476Y-110914621D01*
X145200855Y-110870867D01*
X145153151Y-110825061D01*
X145105109Y-110780884D01*
X145060475Y-110742021D01*
X145027650Y-110715643D01*
X144985404Y-110683124D01*
X144947052Y-110652735D01*
X144920705Y-110630907D01*
X144920180Y-110630446D01*
X144895499Y-110613144D01*
X144854481Y-110588879D01*
X144803788Y-110561471D01*
X144770955Y-110544840D01*
X144713171Y-110514938D01*
X144676224Y-110492085D01*
X144657223Y-110474263D01*
X144653000Y-110462413D01*
X144654910Y-110450378D01*
X144664087Y-110443927D01*
X144685702Y-110442236D01*
X144724927Y-110444478D01*
X144751425Y-110446701D01*
X144799900Y-110451980D01*
X144838764Y-110458172D01*
X144860838Y-110464091D01*
X144862550Y-110465093D01*
X144879548Y-110470058D01*
X144916419Y-110476296D01*
X144967723Y-110483006D01*
X145027650Y-110489356D01*
X145137834Y-110501920D01*
X145243556Y-110517963D01*
X145337705Y-110536272D01*
X145409552Y-110554539D01*
X145452457Y-110563239D01*
X145489653Y-110566200D01*
X145528008Y-110569117D01*
X145574740Y-110576427D01*
X145590352Y-110579683D01*
X145639628Y-110590729D01*
X145688977Y-110601638D01*
X145700750Y-110604209D01*
X145735393Y-110611737D01*
X145786496Y-110622841D01*
X145845698Y-110635702D01*
X145878550Y-110642839D01*
X145946387Y-110657924D01*
X146018145Y-110674442D01*
X146081771Y-110689601D01*
X146101665Y-110694514D01*
X146152706Y-110706221D01*
X146198288Y-110714786D01*
X146229440Y-110718549D01*
X146231840Y-110718600D01*
X146256794Y-110722521D01*
X146265900Y-110730810D01*
X146276956Y-110741309D01*
X146304696Y-110753077D01*
X146317641Y-110756953D01*
X146369382Y-110770885D01*
X146339169Y-110811417D01*
X146309344Y-110864413D01*
X146287611Y-110927523D01*
X146278632Y-110986990D01*
X146278600Y-110990125D01*
X146281733Y-111018648D01*
X146290246Y-111065830D01*
X146302812Y-111125834D01*
X146318102Y-111192821D01*
X146334789Y-111260952D01*
X146351546Y-111324390D01*
X146365591Y-111372650D01*
X146384335Y-111434484D01*
X146400433Y-111491501D01*
X146415639Y-111550616D01*
X146431706Y-111618745D01*
X146450388Y-111702803D01*
X146456776Y-111732211D01*
X146469037Y-111781220D01*
X146484317Y-111832920D01*
X146487553Y-111842718D01*
X146500598Y-111883543D01*
X146510565Y-111918921D01*
X146512616Y-111927657D01*
X146518783Y-111952200D01*
X146530607Y-111995342D01*
X146546673Y-112052230D01*
X146565562Y-112118010D01*
X146585858Y-112187830D01*
X146606142Y-112256837D01*
X146624997Y-112320179D01*
X146641006Y-112373002D01*
X146652752Y-112410454D01*
X146658395Y-112426750D01*
X146666593Y-112450419D01*
X146680168Y-112494219D01*
X146697877Y-112553756D01*
X146718480Y-112624637D01*
X146740734Y-112702469D01*
X146763398Y-112782860D01*
X146785230Y-112861418D01*
X146804989Y-112933748D01*
X146821433Y-112995458D01*
X146833321Y-113042157D01*
X146837881Y-113061750D01*
X146846738Y-113097847D01*
X146860575Y-113148751D01*
X146876801Y-113205021D01*
X146881434Y-113220500D01*
X146903560Y-113285607D01*
X146925975Y-113329470D01*
X146952545Y-113355992D01*
X146987132Y-113369075D01*
X147032052Y-113372617D01*
X147074761Y-113369778D01*
X147104784Y-113357703D01*
X147130477Y-113335776D01*
X147153201Y-113307970D01*
X147164606Y-113277841D01*
X147164842Y-113240022D01*
X147154058Y-113189147D01*
X147136181Y-113131154D01*
X147121137Y-113083342D01*
X147109924Y-113043113D01*
X147104605Y-113017975D01*
X147104431Y-113015569D01*
X147100495Y-112993969D01*
X147090397Y-112955937D01*
X147076184Y-112909082D01*
X147073664Y-112901269D01*
X147057607Y-112849218D01*
X147044053Y-112800421D01*
X147035782Y-112764931D01*
X147035490Y-112763300D01*
X147023320Y-112707011D01*
X147003925Y-112633828D01*
X146979176Y-112550570D01*
X146963960Y-112502950D01*
X146946941Y-112446214D01*
X146929982Y-112382148D01*
X146921087Y-112344200D01*
X146906042Y-112276943D01*
X146889342Y-112205726D01*
X146872224Y-112135441D01*
X146855920Y-112070981D01*
X146841666Y-112017239D01*
X146830696Y-111979108D01*
X146824769Y-111962409D01*
X146816325Y-111937890D01*
X146803162Y-111888491D01*
X146785298Y-111814286D01*
X146762751Y-111715348D01*
X146735539Y-111591752D01*
X146734843Y-111588550D01*
X146721057Y-111526387D01*
X146707133Y-111465771D01*
X146695230Y-111416015D01*
X146690692Y-111398050D01*
X146682332Y-111365517D01*
X146674069Y-111332041D01*
X146664538Y-111291859D01*
X146652377Y-111239212D01*
X146636221Y-111168337D01*
X146633590Y-111156750D01*
X146614664Y-111067906D01*
X146600239Y-110988846D01*
X146590878Y-110923400D01*
X146587142Y-110875399D01*
X146588782Y-110851287D01*
X146597629Y-110828373D01*
X146613950Y-110821988D01*
X146637985Y-110825306D01*
X146671508Y-110833635D01*
X146723829Y-110848673D01*
X146789762Y-110868780D01*
X146864117Y-110892314D01*
X146941706Y-110917632D01*
X147017342Y-110943094D01*
X147085050Y-110966775D01*
X147140733Y-110986461D01*
X147192558Y-111004307D01*
X147232314Y-111017504D01*
X147243800Y-111021095D01*
X147281715Y-111032911D01*
X147335890Y-111050322D01*
X147398534Y-111070768D01*
X147461851Y-111091688D01*
X147518048Y-111110521D01*
X147559331Y-111124707D01*
X147561300Y-111125403D01*
X147631200Y-111151792D01*
X147711653Y-111184720D01*
X147790565Y-111219223D01*
X147796250Y-111221812D01*
X147844752Y-111242332D01*
X147894528Y-111260924D01*
X147913725Y-111267203D01*
X147946303Y-111279859D01*
X147965514Y-111292675D01*
X147967700Y-111297156D01*
X147962523Y-111315958D01*
X147949419Y-111347937D01*
X147941564Y-111364825D01*
X147926115Y-111407345D01*
X147919143Y-111448286D01*
X147919339Y-111459286D01*
X147923250Y-111499650D01*
X148027547Y-111503330D01*
X148131843Y-111507011D01*
X148164072Y-111455958D01*
X148183043Y-111424516D01*
X148194625Y-111402638D01*
X148196300Y-111397695D01*
X148206109Y-111381201D01*
X148229645Y-111359757D01*
X148258074Y-111340083D01*
X148282563Y-111328897D01*
X148287676Y-111328200D01*
X148307694Y-111316989D01*
X148328809Y-111288334D01*
X148347159Y-111249702D01*
X148358880Y-111208560D01*
X148361122Y-111186232D01*
X148355013Y-111153241D01*
X148333523Y-111127623D01*
X148292833Y-111105972D01*
X148256795Y-111093210D01*
X148181192Y-111067126D01*
X148115943Y-111040656D01*
X148077411Y-111021793D01*
X148049652Y-111009716D01*
X148002436Y-110992670D01*
X147940827Y-110972313D01*
X147869889Y-110950305D01*
X147794686Y-110928304D01*
X147775824Y-110923002D01*
X147663139Y-110887150D01*
X147542158Y-110840804D01*
X147478750Y-110813481D01*
X147425425Y-110792107D01*
X147351610Y-110766187D01*
X147261559Y-110736918D01*
X147159524Y-110705497D01*
X147049759Y-110673121D01*
X146936516Y-110640984D01*
X146824049Y-110610285D01*
X146716610Y-110582220D01*
X146618453Y-110557985D01*
X146533830Y-110538777D01*
X146466995Y-110525793D01*
X146443700Y-110522279D01*
X146417826Y-110517341D01*
X146374661Y-110507501D01*
X146321443Y-110494450D01*
X146291300Y-110486720D01*
X146227226Y-110470740D01*
X146161075Y-110455406D01*
X146104114Y-110443297D01*
X146088100Y-110440236D01*
X146034337Y-110429894D01*
X145968912Y-110416541D01*
X145904919Y-110402855D01*
X145897600Y-110401239D01*
X145833432Y-110387822D01*
X145764896Y-110374774D01*
X145705810Y-110364713D01*
X145700750Y-110363942D01*
X145642413Y-110354698D01*
X145581985Y-110344369D01*
X145542000Y-110336993D01*
X145437535Y-110318849D01*
X145318937Y-110301953D01*
X145191792Y-110286804D01*
X145061683Y-110273903D01*
X144934194Y-110263749D01*
X144814908Y-110256842D01*
X144709410Y-110253682D01*
X144623322Y-110254767D01*
X144623322Y-110254767D01*
G37*
X144623322Y-110254767D02*
X144531600Y-110259693D01*
X144460466Y-110265988D01*
X144405106Y-110274986D01*
X144360709Y-110288024D01*
X144322461Y-110306435D01*
X144285550Y-110331556D01*
X144253894Y-110357258D01*
X144203016Y-110404069D01*
X144173814Y-110440296D01*
X144165554Y-110467317D01*
X144177508Y-110486512D01*
X144183411Y-110490166D01*
X144211105Y-110500561D01*
X144240392Y-110499567D01*
X144278672Y-110486063D01*
X144310100Y-110470950D01*
X144348539Y-110453174D01*
X144379905Y-110441652D01*
X144392228Y-110439200D01*
X144408233Y-110447927D01*
X144410714Y-110467350D01*
X144400675Y-110487327D01*
X144386581Y-110496261D01*
X144367199Y-110513313D01*
X144349951Y-110545528D01*
X144338727Y-110582729D01*
X144337416Y-110614742D01*
X144339044Y-110620616D01*
X144354630Y-110633965D01*
X144386480Y-110647552D01*
X144407444Y-110653526D01*
X144446574Y-110664877D01*
X144492915Y-110681141D01*
X144538965Y-110699322D01*
X144577221Y-110716428D01*
X144600183Y-110729465D01*
X144602200Y-110731238D01*
X144615402Y-110742162D01*
X144641572Y-110762325D01*
X144656547Y-110773576D01*
X144690792Y-110800573D01*
X144719411Y-110825588D01*
X144726397Y-110832510D01*
X144745839Y-110849924D01*
X144780116Y-110877686D01*
X144823503Y-110911229D01*
X144849850Y-110930989D01*
X144934554Y-111001511D01*
X145021879Y-111087755D01*
X145105115Y-111182249D01*
X145177552Y-111277518D01*
X145219278Y-111342441D01*
X145239237Y-111371261D01*
X145254706Y-111389993D01*
X145272038Y-111417103D01*
X145291611Y-111458942D01*
X145309637Y-111505827D01*
X145322329Y-111548079D01*
X145326100Y-111572495D01*
X145317756Y-111592102D01*
X145296474Y-111595674D01*
X145267881Y-111584516D01*
X145237603Y-111559929D01*
X145228926Y-111549998D01*
X145198546Y-111515006D01*
X145160211Y-111474380D01*
X145137315Y-111451573D01*
X145098127Y-111413017D01*
X145052537Y-111367132D01*
X145017693Y-111331375D01*
X144984302Y-111298724D01*
X144956260Y-111274958D01*
X144939177Y-111264787D01*
X144938310Y-111264700D01*
X144923269Y-111256626D01*
X144894046Y-111234726D01*
X144855051Y-111202476D01*
X144816632Y-111168728D01*
X144768836Y-111127142D01*
X144723049Y-111089910D01*
X144685263Y-111061765D01*
X144665700Y-111049429D01*
X144629529Y-111026781D01*
X144599728Y-111002172D01*
X144597057Y-110999351D01*
X144573665Y-110979638D01*
X144555782Y-110972600D01*
X144540175Y-110965814D01*
X144538700Y-110961190D01*
X144528488Y-110947505D01*
X144499450Y-110921625D01*
X144453986Y-110885307D01*
X144394494Y-110840308D01*
X144323375Y-110788385D01*
X144243027Y-110731295D01*
X144155849Y-110670796D01*
X144064242Y-110608644D01*
X143989859Y-110559229D01*
X143914998Y-110510278D01*
X143857417Y-110473612D01*
X143813368Y-110447272D01*
X143779104Y-110429296D01*
X143750876Y-110417724D01*
X143724937Y-110410594D01*
X143697538Y-110405945D01*
X143696684Y-110405828D01*
X143660095Y-110402920D01*
X143636582Y-110409822D01*
X143614470Y-110430641D01*
X143609479Y-110436491D01*
X143582959Y-110462504D01*
X143558471Y-110478019D01*
X143554550Y-110479175D01*
X143536300Y-110486816D01*
X143522397Y-110504818D01*
X143510024Y-110538390D01*
X143498797Y-110582238D01*
X143492437Y-110613391D01*
X143491849Y-110638122D01*
X143498800Y-110664096D01*
X143515054Y-110698977D01*
X143533901Y-110734638D01*
X143565599Y-110794247D01*
X143601094Y-110861751D01*
X143632321Y-110921800D01*
X143655484Y-110966043D01*
X143674432Y-111001012D01*
X143686054Y-111021008D01*
X143687800Y-111023400D01*
X143697481Y-111037692D01*
X143713675Y-111065354D01*
X143718595Y-111074200D01*
X143735761Y-111103518D01*
X143761371Y-111145096D01*
X143791306Y-111192494D01*
X143821447Y-111239274D01*
X143847677Y-111278998D01*
X143865878Y-111305227D01*
X143868873Y-111309150D01*
X143879475Y-111324538D01*
X143900400Y-111356488D01*
X143928444Y-111400066D01*
X143955045Y-111441868D01*
X143988206Y-111493256D01*
X144018748Y-111538842D01*
X144042798Y-111572946D01*
X144054557Y-111587918D01*
X144074067Y-111613755D01*
X144098602Y-111651771D01*
X144113642Y-111677450D01*
X144137500Y-111717650D01*
X144160202Y-111752068D01*
X144171078Y-111766350D01*
X144190443Y-111793649D01*
X144212531Y-111831319D01*
X144219349Y-111844400D01*
X144238996Y-111880219D01*
X144257109Y-111907924D01*
X144262364Y-111914250D01*
X144276293Y-111932115D01*
X144299791Y-111965667D01*
X144328860Y-112009117D01*
X144344431Y-112033050D01*
X144377812Y-112083469D01*
X144410746Y-112130880D01*
X144437807Y-112167551D01*
X144445724Y-112177423D01*
X144515884Y-112277374D01*
X144565231Y-112372775D01*
X144582454Y-112406780D01*
X144596949Y-112428658D01*
X144602780Y-112433100D01*
X144612958Y-112443900D01*
X144625172Y-112470573D01*
X144627600Y-112477550D01*
X144640019Y-112506536D01*
X144651985Y-112521459D01*
X144653985Y-112522000D01*
X144664384Y-112532301D01*
X144665700Y-112541050D01*
X144671081Y-112557970D01*
X144675628Y-112560100D01*
X144684729Y-112571127D01*
X144696561Y-112599117D01*
X144702430Y-112617250D01*
X144714552Y-112650914D01*
X144726155Y-112671448D01*
X144730602Y-112674400D01*
X144740632Y-112684707D01*
X144741900Y-112693450D01*
X144748758Y-112710350D01*
X144754600Y-112712500D01*
X144764919Y-112723136D01*
X144767300Y-112737900D01*
X144772619Y-112758537D01*
X144780000Y-112763300D01*
X144790464Y-112773888D01*
X144792700Y-112787641D01*
X144798801Y-112809996D01*
X144806220Y-112816489D01*
X144816094Y-112830756D01*
X144824718Y-112861168D01*
X144826942Y-112874698D01*
X144830354Y-112908307D01*
X144826256Y-112923820D01*
X144811245Y-112928202D01*
X144800723Y-112928400D01*
X144776067Y-112924251D01*
X144767300Y-112915700D01*
X144756664Y-112905381D01*
X144741900Y-112903000D01*
X144721234Y-112899000D01*
X144716478Y-112893475D01*
X144705792Y-112880344D01*
X144677423Y-112860033D01*
X144636845Y-112835801D01*
X144589531Y-112810905D01*
X144540955Y-112788603D01*
X144538700Y-112787659D01*
X144495546Y-112768256D01*
X144458471Y-112749116D01*
X144441745Y-112738717D01*
X144408647Y-112715174D01*
X144386214Y-112699800D01*
X144359154Y-112680255D01*
X144343469Y-112667269D01*
X144322496Y-112653127D01*
X144290756Y-112636880D01*
X144287875Y-112635594D01*
X144260532Y-112621117D01*
X144246935Y-112609167D01*
X144246600Y-112607799D01*
X144236272Y-112599271D01*
X144227550Y-112598200D01*
X144210632Y-112592648D01*
X144208500Y-112587953D01*
X144197835Y-112578120D01*
X144169504Y-112561090D01*
X144129008Y-112540084D01*
X144116425Y-112534018D01*
X144062266Y-112507503D01*
X144007766Y-112479498D01*
X143964472Y-112455941D01*
X143963467Y-112455365D01*
X143924829Y-112435671D01*
X143891608Y-112422989D01*
X143877742Y-112420400D01*
X143857397Y-112415837D01*
X143852900Y-112409738D01*
X143842123Y-112396725D01*
X143816324Y-112382788D01*
X143785305Y-112372390D01*
X143764762Y-112369600D01*
X143741360Y-112360550D01*
X143734008Y-112350550D01*
X143716714Y-112336318D01*
X143689558Y-112331500D01*
X143660785Y-112326142D01*
X143645723Y-112314053D01*
X143629790Y-112300332D01*
X143599345Y-112289291D01*
X143593564Y-112288078D01*
X143563883Y-112280309D01*
X143548639Y-112272017D01*
X143548100Y-112270532D01*
X143537411Y-112260762D01*
X143511235Y-112248700D01*
X143506825Y-112247109D01*
X143473990Y-112235336D01*
X143427418Y-112218262D01*
X143377135Y-112199562D01*
X143376650Y-112199380D01*
X143306099Y-112173860D01*
X143229489Y-112147708D01*
X143151354Y-112122306D01*
X143076224Y-112099034D01*
X143008631Y-112079274D01*
X142953106Y-112064406D01*
X142914182Y-112055812D01*
X142900400Y-112054240D01*
X142877336Y-112051052D01*
X142837239Y-112042679D01*
X142787501Y-112030904D01*
X142735514Y-112017511D01*
X142688671Y-112004281D01*
X142672579Y-111999289D01*
X142647179Y-111993096D01*
X142610323Y-111987651D01*
X142559124Y-111982716D01*
X142490695Y-111978051D01*
X142402148Y-111973418D01*
X142311537Y-111969436D01*
X142260306Y-111969396D01*
X142213521Y-111972883D01*
X142184537Y-111978332D01*
X142148413Y-111986713D01*
X142100837Y-111994092D01*
X142074900Y-111996865D01*
X142027721Y-112003725D01*
X141985096Y-112014513D01*
X141968174Y-112021146D01*
X141937195Y-112034016D01*
X141914340Y-112039399D01*
X141914279Y-112039400D01*
X141891664Y-112050655D01*
X141866573Y-112080176D01*
X141842717Y-112121591D01*
X141823807Y-112168531D01*
X141813892Y-112211724D01*
X141812498Y-112266281D01*
X141825175Y-112301564D01*
X141853081Y-112318136D01*
X141897375Y-112316559D01*
X141959213Y-112297398D01*
X141976005Y-112290577D01*
X142001078Y-112280766D01*
X142025703Y-112273565D01*
X142054207Y-112268609D01*
X142090918Y-112265528D01*
X142140164Y-112263957D01*
X142206271Y-112263527D01*
X142290800Y-112263854D01*
X142377779Y-112265153D01*
X142456747Y-112267802D01*
X142523101Y-112271555D01*
X142572238Y-112276164D01*
X142595600Y-112280182D01*
X142715106Y-112310490D01*
X142810813Y-112333225D01*
X142868650Y-112345652D01*
X142918896Y-112357700D01*
X142975623Y-112374091D01*
X143002846Y-112383044D01*
X143044935Y-112396505D01*
X143079624Y-112405460D01*
X143094921Y-112407700D01*
X143113266Y-112413898D01*
X143116300Y-112420400D01*
X143127169Y-112429946D01*
X143148050Y-112433100D01*
X143171933Y-112436387D01*
X143179800Y-112442689D01*
X143190779Y-112451573D01*
X143219537Y-112465587D01*
X143259175Y-112481440D01*
X143310168Y-112501045D01*
X143359962Y-112521595D01*
X143389350Y-112534728D01*
X143428804Y-112552966D01*
X143489161Y-112580177D01*
X143567996Y-112615282D01*
X143662888Y-112657203D01*
X143771412Y-112704861D01*
X143776700Y-112707177D01*
X143821532Y-112728615D01*
X143883114Y-112760592D01*
X143956556Y-112800349D01*
X144036967Y-112845130D01*
X144119456Y-112892178D01*
X144199130Y-112938734D01*
X144271100Y-112982042D01*
X144330474Y-113019345D01*
X144330506Y-113019366D01*
X144375582Y-113047576D01*
X144415489Y-113070708D01*
X144443264Y-113084779D01*
X144447981Y-113086572D01*
X144469448Y-113097969D01*
X144475200Y-113107055D01*
X144485435Y-113117708D01*
X144493343Y-113118900D01*
X144517699Y-113127109D01*
X144528268Y-113134999D01*
X144559195Y-113155724D01*
X144608042Y-113178676D01*
X144667754Y-113201470D01*
X144731273Y-113221721D01*
X144791543Y-113237044D01*
X144841507Y-113245053D01*
X144855760Y-113245687D01*
X144926583Y-113234851D01*
X144993729Y-113205553D01*
X145052676Y-113161814D01*
X145098900Y-113107659D01*
X145127876Y-113047109D01*
X145135600Y-112996814D01*
X145137537Y-112963282D01*
X145142425Y-112943552D01*
X145145125Y-112941320D01*
X145158263Y-112949288D01*
X145185513Y-112970456D01*
X145222107Y-113001033D01*
X145242352Y-113018608D01*
X145338417Y-113096243D01*
X145428670Y-113153653D01*
X145518620Y-113193349D01*
X145613775Y-113217844D01*
X145702830Y-113228587D01*
X145794554Y-113230994D01*
X145869744Y-113222600D01*
X145935551Y-113201778D01*
X145999125Y-113166902D01*
X146011900Y-113158306D01*
X146065175Y-113117264D01*
X146100248Y-113077259D01*
X146120488Y-113031409D01*
X146129262Y-112972831D01*
X146130341Y-112916253D01*
X146129213Y-112871842D01*
X146128737Y-112866221D01*
X145839531Y-112866221D01*
X145837835Y-112921161D01*
X145825508Y-112956975D01*
X145806505Y-112965447D01*
X145768285Y-112963400D01*
X145714629Y-112951099D01*
X145706135Y-112948585D01*
X145597288Y-112905934D01*
X145498006Y-112848333D01*
X145415223Y-112779937D01*
X145402300Y-112766465D01*
X145336029Y-112690404D01*
X145288589Y-112625437D01*
X145258121Y-112567930D01*
X145242764Y-112514247D01*
X145240657Y-112460754D01*
X145241407Y-112452150D01*
X145249531Y-112407964D01*
X145263912Y-112359050D01*
X145281647Y-112313064D01*
X145299830Y-112277662D01*
X145313762Y-112261426D01*
X145324604Y-112243502D01*
X145326116Y-112232325D01*
X145335546Y-112204505D01*
X145358412Y-112174213D01*
X145386629Y-112150154D01*
X145410951Y-112141000D01*
X145435139Y-112152517D01*
X145457230Y-112182275D01*
X145476417Y-112212988D01*
X145506041Y-112253878D01*
X145539701Y-112296106D01*
X145539797Y-112296220D01*
X145572667Y-112337248D01*
X145600838Y-112375752D01*
X145618359Y-112403584D01*
X145618658Y-112404170D01*
X145635499Y-112435018D01*
X145659487Y-112476128D01*
X145675782Y-112502950D01*
X145736851Y-112608257D01*
X145787333Y-112708851D01*
X145823976Y-112798194D01*
X145826886Y-112806649D01*
X145839531Y-112866221D01*
X146128737Y-112866221D01*
X146125980Y-112833731D01*
X146119156Y-112797537D01*
X146107258Y-112758877D01*
X146088802Y-112713370D01*
X146062303Y-112656633D01*
X146026277Y-112584284D01*
X146001183Y-112534917D01*
X145955106Y-112446697D01*
X145915307Y-112376076D01*
X145878060Y-112317305D01*
X145839643Y-112264635D01*
X145796329Y-112212319D01*
X145780576Y-112194432D01*
X145740098Y-112145345D01*
X145698142Y-112088806D01*
X145672615Y-112050780D01*
X145642266Y-112004022D01*
X145611336Y-111958757D01*
X145589625Y-111928926D01*
X145578539Y-111911695D01*
X145198986Y-111911695D01*
X145190151Y-111950076D01*
X145172720Y-111994143D01*
X145156212Y-112025038D01*
X145121701Y-112085327D01*
X145085904Y-112152548D01*
X145051330Y-112221463D01*
X145020491Y-112286831D01*
X144995897Y-112343411D01*
X144980058Y-112385964D01*
X144976063Y-112401082D01*
X144969203Y-112430424D01*
X144961437Y-112438559D01*
X144948746Y-112429486D01*
X144948150Y-112428891D01*
X144929393Y-112405685D01*
X144907047Y-112372320D01*
X144902145Y-112364211D01*
X144864753Y-112302647D01*
X144819307Y-112230656D01*
X144768383Y-112152049D01*
X144714557Y-112070636D01*
X144660403Y-111990229D01*
X144608498Y-111914637D01*
X144561417Y-111847673D01*
X144521736Y-111793146D01*
X144492030Y-111754868D01*
X144483931Y-111745418D01*
X144466669Y-111722765D01*
X144443191Y-111687796D01*
X144428869Y-111664920D01*
X144409100Y-111632509D01*
X144391607Y-111604231D01*
X144373888Y-111576254D01*
X144353442Y-111544748D01*
X144327768Y-111505880D01*
X144294364Y-111455819D01*
X144250730Y-111390734D01*
X144219811Y-111344684D01*
X144156537Y-111249670D01*
X144096121Y-111157444D01*
X144040457Y-111071008D01*
X143991439Y-110993362D01*
X143950959Y-110927507D01*
X143920910Y-110876446D01*
X143903188Y-110843177D01*
X143902568Y-110841836D01*
X143892743Y-110811275D01*
X143899279Y-110799739D01*
X143921502Y-110807414D01*
X143951330Y-110828467D01*
X143987065Y-110855857D01*
X144033177Y-110889809D01*
X144075150Y-110919768D01*
X144113988Y-110947707D01*
X144166161Y-110986282D01*
X144228039Y-111032706D01*
X144295993Y-111084195D01*
X144366392Y-111137962D01*
X144435606Y-111191221D01*
X144500005Y-111241187D01*
X144555958Y-111285074D01*
X144599835Y-111320096D01*
X144628006Y-111343468D01*
X144632549Y-111347512D01*
X144649520Y-111361891D01*
X144679477Y-111386254D01*
X144710150Y-111410733D01*
X144753138Y-111446386D01*
X144804715Y-111491735D01*
X144861932Y-111543909D01*
X144921842Y-111600040D01*
X144981499Y-111657256D01*
X145037954Y-111712688D01*
X145088260Y-111763466D01*
X145129470Y-111806720D01*
X145158636Y-111839580D01*
X145172811Y-111859176D01*
X145173700Y-111862106D01*
X145183380Y-111873949D01*
X145186400Y-111874300D01*
X145198108Y-111884578D01*
X145198986Y-111911695D01*
X145578539Y-111911695D01*
X145567834Y-111895059D01*
X145557443Y-111860069D01*
X145554885Y-111812228D01*
X145558830Y-111759182D01*
X145568628Y-111705627D01*
X145574880Y-111684052D01*
X145595496Y-111612535D01*
X145602639Y-111548758D01*
X145596249Y-111483376D01*
X145576262Y-111407043D01*
X145572971Y-111396779D01*
X145553271Y-111341443D01*
X145532092Y-111290254D01*
X145513104Y-111251852D01*
X145507774Y-111243209D01*
X145489454Y-111214780D01*
X145479253Y-111196172D01*
X145478500Y-111193608D01*
X145470824Y-111179779D01*
X145450828Y-111152837D01*
X145423066Y-111118194D01*
X145392089Y-111081263D01*
X145362449Y-111047455D01*
X145338699Y-111022185D01*
X145325391Y-111010864D01*
X145324670Y-111010700D01*
X145313902Y-111000837D01*
X145313400Y-110996724D01*
X145304494Y-110981232D01*
X145280271Y-110952637D01*
X145244476Y-110914621D01*
X145200855Y-110870867D01*
X145153151Y-110825061D01*
X145105109Y-110780884D01*
X145060475Y-110742021D01*
X145027650Y-110715643D01*
X144985404Y-110683124D01*
X144947052Y-110652735D01*
X144920705Y-110630907D01*
X144920180Y-110630446D01*
X144895499Y-110613144D01*
X144854481Y-110588879D01*
X144803788Y-110561471D01*
X144770955Y-110544840D01*
X144713171Y-110514938D01*
X144676224Y-110492085D01*
X144657223Y-110474263D01*
X144653000Y-110462413D01*
X144654910Y-110450378D01*
X144664087Y-110443927D01*
X144685702Y-110442236D01*
X144724927Y-110444478D01*
X144751425Y-110446701D01*
X144799900Y-110451980D01*
X144838764Y-110458172D01*
X144860838Y-110464091D01*
X144862550Y-110465093D01*
X144879548Y-110470058D01*
X144916419Y-110476296D01*
X144967723Y-110483006D01*
X145027650Y-110489356D01*
X145137834Y-110501920D01*
X145243556Y-110517963D01*
X145337705Y-110536272D01*
X145409552Y-110554539D01*
X145452457Y-110563239D01*
X145489653Y-110566200D01*
X145528008Y-110569117D01*
X145574740Y-110576427D01*
X145590352Y-110579683D01*
X145639628Y-110590729D01*
X145688977Y-110601638D01*
X145700750Y-110604209D01*
X145735393Y-110611737D01*
X145786496Y-110622841D01*
X145845698Y-110635702D01*
X145878550Y-110642839D01*
X145946387Y-110657924D01*
X146018145Y-110674442D01*
X146081771Y-110689601D01*
X146101665Y-110694514D01*
X146152706Y-110706221D01*
X146198288Y-110714786D01*
X146229440Y-110718549D01*
X146231840Y-110718600D01*
X146256794Y-110722521D01*
X146265900Y-110730810D01*
X146276956Y-110741309D01*
X146304696Y-110753077D01*
X146317641Y-110756953D01*
X146369382Y-110770885D01*
X146339169Y-110811417D01*
X146309344Y-110864413D01*
X146287611Y-110927523D01*
X146278632Y-110986990D01*
X146278600Y-110990125D01*
X146281733Y-111018648D01*
X146290246Y-111065830D01*
X146302812Y-111125834D01*
X146318102Y-111192821D01*
X146334789Y-111260952D01*
X146351546Y-111324390D01*
X146365591Y-111372650D01*
X146384335Y-111434484D01*
X146400433Y-111491501D01*
X146415639Y-111550616D01*
X146431706Y-111618745D01*
X146450388Y-111702803D01*
X146456776Y-111732211D01*
X146469037Y-111781220D01*
X146484317Y-111832920D01*
X146487553Y-111842718D01*
X146500598Y-111883543D01*
X146510565Y-111918921D01*
X146512616Y-111927657D01*
X146518783Y-111952200D01*
X146530607Y-111995342D01*
X146546673Y-112052230D01*
X146565562Y-112118010D01*
X146585858Y-112187830D01*
X146606142Y-112256837D01*
X146624997Y-112320179D01*
X146641006Y-112373002D01*
X146652752Y-112410454D01*
X146658395Y-112426750D01*
X146666593Y-112450419D01*
X146680168Y-112494219D01*
X146697877Y-112553756D01*
X146718480Y-112624637D01*
X146740734Y-112702469D01*
X146763398Y-112782860D01*
X146785230Y-112861418D01*
X146804989Y-112933748D01*
X146821433Y-112995458D01*
X146833321Y-113042157D01*
X146837881Y-113061750D01*
X146846738Y-113097847D01*
X146860575Y-113148751D01*
X146876801Y-113205021D01*
X146881434Y-113220500D01*
X146903560Y-113285607D01*
X146925975Y-113329470D01*
X146952545Y-113355992D01*
X146987132Y-113369075D01*
X147032052Y-113372617D01*
X147074761Y-113369778D01*
X147104784Y-113357703D01*
X147130477Y-113335776D01*
X147153201Y-113307970D01*
X147164606Y-113277841D01*
X147164842Y-113240022D01*
X147154058Y-113189147D01*
X147136181Y-113131154D01*
X147121137Y-113083342D01*
X147109924Y-113043113D01*
X147104605Y-113017975D01*
X147104431Y-113015569D01*
X147100495Y-112993969D01*
X147090397Y-112955937D01*
X147076184Y-112909082D01*
X147073664Y-112901269D01*
X147057607Y-112849218D01*
X147044053Y-112800421D01*
X147035782Y-112764931D01*
X147035490Y-112763300D01*
X147023320Y-112707011D01*
X147003925Y-112633828D01*
X146979176Y-112550570D01*
X146963960Y-112502950D01*
X146946941Y-112446214D01*
X146929982Y-112382148D01*
X146921087Y-112344200D01*
X146906042Y-112276943D01*
X146889342Y-112205726D01*
X146872224Y-112135441D01*
X146855920Y-112070981D01*
X146841666Y-112017239D01*
X146830696Y-111979108D01*
X146824769Y-111962409D01*
X146816325Y-111937890D01*
X146803162Y-111888491D01*
X146785298Y-111814286D01*
X146762751Y-111715348D01*
X146735539Y-111591752D01*
X146734843Y-111588550D01*
X146721057Y-111526387D01*
X146707133Y-111465771D01*
X146695230Y-111416015D01*
X146690692Y-111398050D01*
X146682332Y-111365517D01*
X146674069Y-111332041D01*
X146664538Y-111291859D01*
X146652377Y-111239212D01*
X146636221Y-111168337D01*
X146633590Y-111156750D01*
X146614664Y-111067906D01*
X146600239Y-110988846D01*
X146590878Y-110923400D01*
X146587142Y-110875399D01*
X146588782Y-110851287D01*
X146597629Y-110828373D01*
X146613950Y-110821988D01*
X146637985Y-110825306D01*
X146671508Y-110833635D01*
X146723829Y-110848673D01*
X146789762Y-110868780D01*
X146864117Y-110892314D01*
X146941706Y-110917632D01*
X147017342Y-110943094D01*
X147085050Y-110966775D01*
X147140733Y-110986461D01*
X147192558Y-111004307D01*
X147232314Y-111017504D01*
X147243800Y-111021095D01*
X147281715Y-111032911D01*
X147335890Y-111050322D01*
X147398534Y-111070768D01*
X147461851Y-111091688D01*
X147518048Y-111110521D01*
X147559331Y-111124707D01*
X147561300Y-111125403D01*
X147631200Y-111151792D01*
X147711653Y-111184720D01*
X147790565Y-111219223D01*
X147796250Y-111221812D01*
X147844752Y-111242332D01*
X147894528Y-111260924D01*
X147913725Y-111267203D01*
X147946303Y-111279859D01*
X147965514Y-111292675D01*
X147967700Y-111297156D01*
X147962523Y-111315958D01*
X147949419Y-111347937D01*
X147941564Y-111364825D01*
X147926115Y-111407345D01*
X147919143Y-111448286D01*
X147919339Y-111459286D01*
X147923250Y-111499650D01*
X148027547Y-111503330D01*
X148131843Y-111507011D01*
X148164072Y-111455958D01*
X148183043Y-111424516D01*
X148194625Y-111402638D01*
X148196300Y-111397695D01*
X148206109Y-111381201D01*
X148229645Y-111359757D01*
X148258074Y-111340083D01*
X148282563Y-111328897D01*
X148287676Y-111328200D01*
X148307694Y-111316989D01*
X148328809Y-111288334D01*
X148347159Y-111249702D01*
X148358880Y-111208560D01*
X148361122Y-111186232D01*
X148355013Y-111153241D01*
X148333523Y-111127623D01*
X148292833Y-111105972D01*
X148256795Y-111093210D01*
X148181192Y-111067126D01*
X148115943Y-111040656D01*
X148077411Y-111021793D01*
X148049652Y-111009716D01*
X148002436Y-110992670D01*
X147940827Y-110972313D01*
X147869889Y-110950305D01*
X147794686Y-110928304D01*
X147775824Y-110923002D01*
X147663139Y-110887150D01*
X147542158Y-110840804D01*
X147478750Y-110813481D01*
X147425425Y-110792107D01*
X147351610Y-110766187D01*
X147261559Y-110736918D01*
X147159524Y-110705497D01*
X147049759Y-110673121D01*
X146936516Y-110640984D01*
X146824049Y-110610285D01*
X146716610Y-110582220D01*
X146618453Y-110557985D01*
X146533830Y-110538777D01*
X146466995Y-110525793D01*
X146443700Y-110522279D01*
X146417826Y-110517341D01*
X146374661Y-110507501D01*
X146321443Y-110494450D01*
X146291300Y-110486720D01*
X146227226Y-110470740D01*
X146161075Y-110455406D01*
X146104114Y-110443297D01*
X146088100Y-110440236D01*
X146034337Y-110429894D01*
X145968912Y-110416541D01*
X145904919Y-110402855D01*
X145897600Y-110401239D01*
X145833432Y-110387822D01*
X145764896Y-110374774D01*
X145705810Y-110364713D01*
X145700750Y-110363942D01*
X145642413Y-110354698D01*
X145581985Y-110344369D01*
X145542000Y-110336993D01*
X145437535Y-110318849D01*
X145318937Y-110301953D01*
X145191792Y-110286804D01*
X145061683Y-110273903D01*
X144934194Y-110263749D01*
X144814908Y-110256842D01*
X144709410Y-110253682D01*
X144623322Y-110254767D01*
G36*
X142798680Y-113874295D02*
G01*
X142794419Y-113878725D01*
X142775458Y-113915032D01*
X142779878Y-113951797D01*
X142796626Y-113974181D01*
X142830657Y-113993384D01*
X142861865Y-113988323D01*
X142872460Y-113979960D01*
X142883391Y-113957024D01*
X142887700Y-113925350D01*
X142879544Y-113884450D01*
X142858531Y-113860579D01*
X142829848Y-113856330D01*
X142798680Y-113874295D01*
X142798680Y-113874295D01*
G37*
X142798680Y-113874295D02*
X142794419Y-113878725D01*
X142775458Y-113915032D01*
X142779878Y-113951797D01*
X142796626Y-113974181D01*
X142830657Y-113993384D01*
X142861865Y-113988323D01*
X142872460Y-113979960D01*
X142883391Y-113957024D01*
X142887700Y-113925350D01*
X142879544Y-113884450D01*
X142858531Y-113860579D01*
X142829848Y-113856330D01*
X142798680Y-113874295D01*
G36*
X142793982Y-114159722D02*
G01*
X142790799Y-114193785D01*
X142788286Y-114246332D01*
X142786603Y-114313904D01*
X142785913Y-114393046D01*
X142785906Y-114398425D01*
X142785374Y-114476351D01*
X142784006Y-114545979D01*
X142781955Y-114603167D01*
X142779376Y-114643772D01*
X142776422Y-114663652D01*
X142776023Y-114664492D01*
X142757489Y-114680564D01*
X142734942Y-114692262D01*
X142726836Y-114697923D01*
X142737543Y-114701636D01*
X142769119Y-114703637D01*
X142823617Y-114704168D01*
X142836900Y-114704121D01*
X142888448Y-114703345D01*
X142925948Y-114701754D01*
X142945408Y-114699592D01*
X142944850Y-114697505D01*
X142924735Y-114690632D01*
X142909936Y-114678454D01*
X142899655Y-114657443D01*
X142893093Y-114624073D01*
X142889451Y-114574818D01*
X142887930Y-114506149D01*
X142887700Y-114445177D01*
X142888265Y-114360214D01*
X142890528Y-114297697D01*
X142895345Y-114254686D01*
X142903568Y-114228241D01*
X142916054Y-114215422D01*
X142933655Y-114213288D01*
X142953766Y-114217828D01*
X142972338Y-114221112D01*
X142970250Y-114214651D01*
X142952332Y-114204371D01*
X142918701Y-114189430D01*
X142877779Y-114173098D01*
X142837982Y-114158646D01*
X142807730Y-114149346D01*
X142797670Y-114147600D01*
X142793982Y-114159722D01*
X142793982Y-114159722D01*
G37*
X142793982Y-114159722D02*
X142790799Y-114193785D01*
X142788286Y-114246332D01*
X142786603Y-114313904D01*
X142785913Y-114393046D01*
X142785906Y-114398425D01*
X142785374Y-114476351D01*
X142784006Y-114545979D01*
X142781955Y-114603167D01*
X142779376Y-114643772D01*
X142776422Y-114663652D01*
X142776023Y-114664492D01*
X142757489Y-114680564D01*
X142734942Y-114692262D01*
X142726836Y-114697923D01*
X142737543Y-114701636D01*
X142769119Y-114703637D01*
X142823617Y-114704168D01*
X142836900Y-114704121D01*
X142888448Y-114703345D01*
X142925948Y-114701754D01*
X142945408Y-114699592D01*
X142944850Y-114697505D01*
X142924735Y-114690632D01*
X142909936Y-114678454D01*
X142899655Y-114657443D01*
X142893093Y-114624073D01*
X142889451Y-114574818D01*
X142887930Y-114506149D01*
X142887700Y-114445177D01*
X142888265Y-114360214D01*
X142890528Y-114297697D01*
X142895345Y-114254686D01*
X142903568Y-114228241D01*
X142916054Y-114215422D01*
X142933655Y-114213288D01*
X142953766Y-114217828D01*
X142972338Y-114221112D01*
X142970250Y-114214651D01*
X142952332Y-114204371D01*
X142918701Y-114189430D01*
X142877779Y-114173098D01*
X142837982Y-114158646D01*
X142807730Y-114149346D01*
X142797670Y-114147600D01*
X142793982Y-114159722D01*
G36*
X144344018Y-113867783D02*
G01*
X144341320Y-113902968D01*
X144339050Y-113958560D01*
X144337280Y-114032061D01*
X144336082Y-114120976D01*
X144335530Y-114222809D01*
X144335500Y-114253581D01*
X144335400Y-114365390D01*
X144335004Y-114454525D01*
X144334165Y-114523715D01*
X144332740Y-114575685D01*
X144330582Y-114613162D01*
X144327548Y-114638874D01*
X144323491Y-114655546D01*
X144318268Y-114665905D01*
X144313275Y-114671370D01*
X144284053Y-114690232D01*
X144265650Y-114697265D01*
X144267029Y-114699707D01*
X144289854Y-114701694D01*
X144330174Y-114703013D01*
X144379950Y-114703453D01*
X144433002Y-114702968D01*
X144472237Y-114701648D01*
X144493704Y-114699701D01*
X144494250Y-114697505D01*
X144478063Y-114692690D01*
X144465257Y-114684846D01*
X144455437Y-114671217D01*
X144448209Y-114649050D01*
X144443176Y-114615590D01*
X144439944Y-114568083D01*
X144438118Y-114503776D01*
X144437302Y-114419913D01*
X144437102Y-114313742D01*
X144437100Y-114299127D01*
X144437254Y-114189025D01*
X144438006Y-114101834D01*
X144439799Y-114035065D01*
X144443073Y-113986228D01*
X144448267Y-113952837D01*
X144455822Y-113932400D01*
X144466179Y-113922431D01*
X144479777Y-113920440D01*
X144497058Y-113923938D01*
X144503166Y-113925728D01*
X144521738Y-113929012D01*
X144519650Y-113922551D01*
X144501732Y-113912271D01*
X144468101Y-113897330D01*
X144427179Y-113880998D01*
X144387382Y-113866546D01*
X144357130Y-113857246D01*
X144347070Y-113855500D01*
X144344018Y-113867783D01*
X144344018Y-113867783D01*
G37*
X144344018Y-113867783D02*
X144341320Y-113902968D01*
X144339050Y-113958560D01*
X144337280Y-114032061D01*
X144336082Y-114120976D01*
X144335530Y-114222809D01*
X144335500Y-114253581D01*
X144335400Y-114365390D01*
X144335004Y-114454525D01*
X144334165Y-114523715D01*
X144332740Y-114575685D01*
X144330582Y-114613162D01*
X144327548Y-114638874D01*
X144323491Y-114655546D01*
X144318268Y-114665905D01*
X144313275Y-114671370D01*
X144284053Y-114690232D01*
X144265650Y-114697265D01*
X144267029Y-114699707D01*
X144289854Y-114701694D01*
X144330174Y-114703013D01*
X144379950Y-114703453D01*
X144433002Y-114702968D01*
X144472237Y-114701648D01*
X144493704Y-114699701D01*
X144494250Y-114697505D01*
X144478063Y-114692690D01*
X144465257Y-114684846D01*
X144455437Y-114671217D01*
X144448209Y-114649050D01*
X144443176Y-114615590D01*
X144439944Y-114568083D01*
X144438118Y-114503776D01*
X144437302Y-114419913D01*
X144437102Y-114313742D01*
X144437100Y-114299127D01*
X144437254Y-114189025D01*
X144438006Y-114101834D01*
X144439799Y-114035065D01*
X144443073Y-113986228D01*
X144448267Y-113952837D01*
X144455822Y-113932400D01*
X144466179Y-113922431D01*
X144479777Y-113920440D01*
X144497058Y-113923938D01*
X144503166Y-113925728D01*
X144521738Y-113929012D01*
X144519650Y-113922551D01*
X144501732Y-113912271D01*
X144468101Y-113897330D01*
X144427179Y-113880998D01*
X144387382Y-113866546D01*
X144357130Y-113857246D01*
X144347070Y-113855500D01*
X144344018Y-113867783D01*
G36*
X145596914Y-114158870D02*
G01*
X145593081Y-114187025D01*
X145592800Y-114198400D01*
X145591134Y-114230224D01*
X145586972Y-114247912D01*
X145585294Y-114249200D01*
X145572229Y-114241604D01*
X145546709Y-114222092D01*
X145526078Y-114204937D01*
X145467609Y-114166561D01*
X145410077Y-114150487D01*
X145356734Y-114156740D01*
X145310830Y-114185342D01*
X145295123Y-114203256D01*
X145284889Y-114219335D01*
X145277545Y-114238809D01*
X145272507Y-114266174D01*
X145269192Y-114305929D01*
X145267016Y-114362572D01*
X145265560Y-114431056D01*
X145263884Y-114515843D01*
X145261747Y-114578777D01*
X145258376Y-114623399D01*
X145252994Y-114653254D01*
X145244828Y-114671885D01*
X145233104Y-114682835D01*
X145217045Y-114689649D01*
X145208464Y-114692233D01*
X145196376Y-114697348D01*
X145203020Y-114700803D01*
X145230301Y-114702803D01*
X145280124Y-114703552D01*
X145313400Y-114703525D01*
X145367200Y-114702846D01*
X145406691Y-114701427D01*
X145428220Y-114699471D01*
X145428130Y-114697185D01*
X145427700Y-114697103D01*
X145404395Y-114691684D01*
X145387619Y-114682806D01*
X145376301Y-114666685D01*
X145369371Y-114639540D01*
X145365759Y-114597588D01*
X145364394Y-114537045D01*
X145364200Y-114472720D01*
X145364724Y-114393992D01*
X145366532Y-114336656D01*
X145369983Y-114296721D01*
X145375435Y-114270197D01*
X145383244Y-114253092D01*
X145383971Y-114252025D01*
X145414689Y-114228185D01*
X145456718Y-114224739D01*
X145506561Y-114241444D01*
X145541506Y-114263001D01*
X145595622Y-114302203D01*
X145590816Y-114477215D01*
X145587926Y-114555522D01*
X145583477Y-114612173D01*
X145576355Y-114650909D01*
X145565447Y-114675470D01*
X145549639Y-114689596D01*
X145527816Y-114697027D01*
X145525203Y-114697558D01*
X145525406Y-114699784D01*
X145547122Y-114701700D01*
X145586463Y-114703081D01*
X145630900Y-114703667D01*
X145689747Y-114703437D01*
X145725231Y-114701816D01*
X145739363Y-114698568D01*
X145734153Y-114693462D01*
X145730645Y-114692078D01*
X145713383Y-114683931D01*
X145700750Y-114671557D01*
X145692026Y-114651274D01*
X145686494Y-114619401D01*
X145683435Y-114572254D01*
X145682132Y-114506151D01*
X145681874Y-114442040D01*
X145682582Y-114357897D01*
X145685418Y-114296198D01*
X145691180Y-114254020D01*
X145700661Y-114228443D01*
X145714657Y-114216544D01*
X145733963Y-114215402D01*
X145743069Y-114217233D01*
X145764192Y-114220185D01*
X145764320Y-114214195D01*
X145764250Y-114214132D01*
X145746012Y-114203408D01*
X145712883Y-114187938D01*
X145673415Y-114171271D01*
X145636163Y-114156951D01*
X145609677Y-114148527D01*
X145603807Y-114147600D01*
X145596914Y-114158870D01*
X145596914Y-114158870D01*
G37*
X145596914Y-114158870D02*
X145593081Y-114187025D01*
X145592800Y-114198400D01*
X145591134Y-114230224D01*
X145586972Y-114247912D01*
X145585294Y-114249200D01*
X145572229Y-114241604D01*
X145546709Y-114222092D01*
X145526078Y-114204937D01*
X145467609Y-114166561D01*
X145410077Y-114150487D01*
X145356734Y-114156740D01*
X145310830Y-114185342D01*
X145295123Y-114203256D01*
X145284889Y-114219335D01*
X145277545Y-114238809D01*
X145272507Y-114266174D01*
X145269192Y-114305929D01*
X145267016Y-114362572D01*
X145265560Y-114431056D01*
X145263884Y-114515843D01*
X145261747Y-114578777D01*
X145258376Y-114623399D01*
X145252994Y-114653254D01*
X145244828Y-114671885D01*
X145233104Y-114682835D01*
X145217045Y-114689649D01*
X145208464Y-114692233D01*
X145196376Y-114697348D01*
X145203020Y-114700803D01*
X145230301Y-114702803D01*
X145280124Y-114703552D01*
X145313400Y-114703525D01*
X145367200Y-114702846D01*
X145406691Y-114701427D01*
X145428220Y-114699471D01*
X145428130Y-114697185D01*
X145427700Y-114697103D01*
X145404395Y-114691684D01*
X145387619Y-114682806D01*
X145376301Y-114666685D01*
X145369371Y-114639540D01*
X145365759Y-114597588D01*
X145364394Y-114537045D01*
X145364200Y-114472720D01*
X145364724Y-114393992D01*
X145366532Y-114336656D01*
X145369983Y-114296721D01*
X145375435Y-114270197D01*
X145383244Y-114253092D01*
X145383971Y-114252025D01*
X145414689Y-114228185D01*
X145456718Y-114224739D01*
X145506561Y-114241444D01*
X145541506Y-114263001D01*
X145595622Y-114302203D01*
X145590816Y-114477215D01*
X145587926Y-114555522D01*
X145583477Y-114612173D01*
X145576355Y-114650909D01*
X145565447Y-114675470D01*
X145549639Y-114689596D01*
X145527816Y-114697027D01*
X145525203Y-114697558D01*
X145525406Y-114699784D01*
X145547122Y-114701700D01*
X145586463Y-114703081D01*
X145630900Y-114703667D01*
X145689747Y-114703437D01*
X145725231Y-114701816D01*
X145739363Y-114698568D01*
X145734153Y-114693462D01*
X145730645Y-114692078D01*
X145713383Y-114683931D01*
X145700750Y-114671557D01*
X145692026Y-114651274D01*
X145686494Y-114619401D01*
X145683435Y-114572254D01*
X145682132Y-114506151D01*
X145681874Y-114442040D01*
X145682582Y-114357897D01*
X145685418Y-114296198D01*
X145691180Y-114254020D01*
X145700661Y-114228443D01*
X145714657Y-114216544D01*
X145733963Y-114215402D01*
X145743069Y-114217233D01*
X145764192Y-114220185D01*
X145764320Y-114214195D01*
X145764250Y-114214132D01*
X145746012Y-114203408D01*
X145712883Y-114187938D01*
X145673415Y-114171271D01*
X145636163Y-114156951D01*
X145609677Y-114148527D01*
X145603807Y-114147600D01*
X145596914Y-114158870D01*
G36*
X146200268Y-113860172D02*
G01*
X146195423Y-113876335D01*
X146192242Y-113907204D01*
X146190441Y-113955998D01*
X146189739Y-114025934D01*
X146189700Y-114053339D01*
X146189700Y-114251179D01*
X146136834Y-114205927D01*
X146076355Y-114165964D01*
X146017531Y-114150642D01*
X145961330Y-114160209D01*
X145960290Y-114160635D01*
X145931721Y-114176098D01*
X145910426Y-114197941D01*
X145895288Y-114229830D01*
X145885189Y-114275432D01*
X145879012Y-114338413D01*
X145875641Y-114422437D01*
X145875254Y-114439700D01*
X145873323Y-114522528D01*
X145870946Y-114583614D01*
X145867386Y-114626614D01*
X145861909Y-114655185D01*
X145853780Y-114672983D01*
X145842263Y-114683663D01*
X145826624Y-114690883D01*
X145824601Y-114691630D01*
X145814528Y-114697235D01*
X145822141Y-114700950D01*
X145849671Y-114703030D01*
X145899350Y-114703732D01*
X145929350Y-114703667D01*
X145981663Y-114702910D01*
X146019429Y-114701394D01*
X146038968Y-114699343D01*
X146037300Y-114697103D01*
X146014128Y-114691733D01*
X145997406Y-114682955D01*
X145986084Y-114667012D01*
X145979112Y-114640151D01*
X145975441Y-114598614D01*
X145974021Y-114538646D01*
X145973800Y-114469894D01*
X145974058Y-114394641D01*
X145975155Y-114340539D01*
X145977581Y-114303341D01*
X145981824Y-114278801D01*
X145988374Y-114262672D01*
X145997719Y-114250707D01*
X145999200Y-114249200D01*
X146037434Y-114227612D01*
X146084211Y-114227770D01*
X146135139Y-114249560D01*
X146140197Y-114252861D01*
X146183350Y-114281923D01*
X146186859Y-114475584D01*
X146190367Y-114669245D01*
X146148759Y-114687325D01*
X146132257Y-114695159D01*
X146127857Y-114700270D01*
X146138548Y-114703172D01*
X146167324Y-114704379D01*
X146217176Y-114704406D01*
X146246850Y-114704173D01*
X146299545Y-114703242D01*
X146338068Y-114701634D01*
X146358601Y-114699581D01*
X146358087Y-114697451D01*
X146339078Y-114692516D01*
X146324054Y-114684032D01*
X146312550Y-114669242D01*
X146304097Y-114645391D01*
X146298231Y-114609722D01*
X146294485Y-114559478D01*
X146292392Y-114491903D01*
X146291486Y-114404240D01*
X146291300Y-114302689D01*
X146291529Y-114192500D01*
X146292487Y-114105210D01*
X146294580Y-114038320D01*
X146298213Y-113989329D01*
X146303795Y-113955739D01*
X146311730Y-113935050D01*
X146322424Y-113924762D01*
X146336286Y-113922377D01*
X146352669Y-113925133D01*
X146373792Y-113928085D01*
X146373920Y-113922095D01*
X146373850Y-113922032D01*
X146353635Y-113909983D01*
X146318412Y-113893812D01*
X146277043Y-113877052D01*
X146238392Y-113863239D01*
X146211319Y-113855909D01*
X146207057Y-113855500D01*
X146200268Y-113860172D01*
X146200268Y-113860172D01*
G37*
X146200268Y-113860172D02*
X146195423Y-113876335D01*
X146192242Y-113907204D01*
X146190441Y-113955998D01*
X146189739Y-114025934D01*
X146189700Y-114053339D01*
X146189700Y-114251179D01*
X146136834Y-114205927D01*
X146076355Y-114165964D01*
X146017531Y-114150642D01*
X145961330Y-114160209D01*
X145960290Y-114160635D01*
X145931721Y-114176098D01*
X145910426Y-114197941D01*
X145895288Y-114229830D01*
X145885189Y-114275432D01*
X145879012Y-114338413D01*
X145875641Y-114422437D01*
X145875254Y-114439700D01*
X145873323Y-114522528D01*
X145870946Y-114583614D01*
X145867386Y-114626614D01*
X145861909Y-114655185D01*
X145853780Y-114672983D01*
X145842263Y-114683663D01*
X145826624Y-114690883D01*
X145824601Y-114691630D01*
X145814528Y-114697235D01*
X145822141Y-114700950D01*
X145849671Y-114703030D01*
X145899350Y-114703732D01*
X145929350Y-114703667D01*
X145981663Y-114702910D01*
X146019429Y-114701394D01*
X146038968Y-114699343D01*
X146037300Y-114697103D01*
X146014128Y-114691733D01*
X145997406Y-114682955D01*
X145986084Y-114667012D01*
X145979112Y-114640151D01*
X145975441Y-114598614D01*
X145974021Y-114538646D01*
X145973800Y-114469894D01*
X145974058Y-114394641D01*
X145975155Y-114340539D01*
X145977581Y-114303341D01*
X145981824Y-114278801D01*
X145988374Y-114262672D01*
X145997719Y-114250707D01*
X145999200Y-114249200D01*
X146037434Y-114227612D01*
X146084211Y-114227770D01*
X146135139Y-114249560D01*
X146140197Y-114252861D01*
X146183350Y-114281923D01*
X146186859Y-114475584D01*
X146190367Y-114669245D01*
X146148759Y-114687325D01*
X146132257Y-114695159D01*
X146127857Y-114700270D01*
X146138548Y-114703172D01*
X146167324Y-114704379D01*
X146217176Y-114704406D01*
X146246850Y-114704173D01*
X146299545Y-114703242D01*
X146338068Y-114701634D01*
X146358601Y-114699581D01*
X146358087Y-114697451D01*
X146339078Y-114692516D01*
X146324054Y-114684032D01*
X146312550Y-114669242D01*
X146304097Y-114645391D01*
X146298231Y-114609722D01*
X146294485Y-114559478D01*
X146292392Y-114491903D01*
X146291486Y-114404240D01*
X146291300Y-114302689D01*
X146291529Y-114192500D01*
X146292487Y-114105210D01*
X146294580Y-114038320D01*
X146298213Y-113989329D01*
X146303795Y-113955739D01*
X146311730Y-113935050D01*
X146322424Y-113924762D01*
X146336286Y-113922377D01*
X146352669Y-113925133D01*
X146373792Y-113928085D01*
X146373920Y-113922095D01*
X146373850Y-113922032D01*
X146353635Y-113909983D01*
X146318412Y-113893812D01*
X146277043Y-113877052D01*
X146238392Y-113863239D01*
X146211319Y-113855909D01*
X146207057Y-113855500D01*
X146200268Y-113860172D01*
G36*
X147523395Y-113985675D02*
G01*
X147524662Y-114034217D01*
X147528350Y-114058708D01*
X147534671Y-114060398D01*
X147535900Y-114058700D01*
X147546989Y-114030117D01*
X147548406Y-114018553D01*
X147557656Y-113997363D01*
X147580375Y-113971089D01*
X147587675Y-113964578D01*
X147612684Y-113946524D01*
X147639224Y-113936537D01*
X147675993Y-113932366D01*
X147714675Y-113931700D01*
X147802600Y-113931700D01*
X147802600Y-114284872D01*
X147802501Y-114394629D01*
X147801855Y-114481754D01*
X147800142Y-114549014D01*
X147796842Y-114599179D01*
X147791435Y-114635015D01*
X147783400Y-114659290D01*
X147772217Y-114674773D01*
X147757365Y-114684231D01*
X147738324Y-114690433D01*
X147725780Y-114693481D01*
X147717454Y-114697825D01*
X147734419Y-114700988D01*
X147776701Y-114702972D01*
X147844325Y-114703779D01*
X147859750Y-114703800D01*
X147932106Y-114703212D01*
X147979114Y-114701448D01*
X148000801Y-114698505D01*
X147997193Y-114694381D01*
X147993721Y-114693481D01*
X147972135Y-114687892D01*
X147955027Y-114680581D01*
X147941875Y-114668778D01*
X147932160Y-114649716D01*
X147925361Y-114620628D01*
X147920958Y-114578744D01*
X147918430Y-114521298D01*
X147917257Y-114445522D01*
X147916919Y-114348647D01*
X147916900Y-114284872D01*
X147916900Y-113931700D01*
X148006777Y-113931700D01*
X148055432Y-113932643D01*
X148086878Y-113937064D01*
X148109287Y-113947351D01*
X148130825Y-113965892D01*
X148133777Y-113968823D01*
X148159904Y-114003567D01*
X148170856Y-114036853D01*
X148170900Y-114038673D01*
X148175129Y-114063003D01*
X148183600Y-114071400D01*
X148190639Y-114060087D01*
X148194837Y-114031436D01*
X148195947Y-113993375D01*
X148193717Y-113953832D01*
X148188296Y-113922175D01*
X148180638Y-113893600D01*
X147523200Y-113893600D01*
X147523395Y-113985675D01*
X147523395Y-113985675D01*
G37*
X147523395Y-113985675D02*
X147524662Y-114034217D01*
X147528350Y-114058708D01*
X147534671Y-114060398D01*
X147535900Y-114058700D01*
X147546989Y-114030117D01*
X147548406Y-114018553D01*
X147557656Y-113997363D01*
X147580375Y-113971089D01*
X147587675Y-113964578D01*
X147612684Y-113946524D01*
X147639224Y-113936537D01*
X147675993Y-113932366D01*
X147714675Y-113931700D01*
X147802600Y-113931700D01*
X147802600Y-114284872D01*
X147802501Y-114394629D01*
X147801855Y-114481754D01*
X147800142Y-114549014D01*
X147796842Y-114599179D01*
X147791435Y-114635015D01*
X147783400Y-114659290D01*
X147772217Y-114674773D01*
X147757365Y-114684231D01*
X147738324Y-114690433D01*
X147725780Y-114693481D01*
X147717454Y-114697825D01*
X147734419Y-114700988D01*
X147776701Y-114702972D01*
X147844325Y-114703779D01*
X147859750Y-114703800D01*
X147932106Y-114703212D01*
X147979114Y-114701448D01*
X148000801Y-114698505D01*
X147997193Y-114694381D01*
X147993721Y-114693481D01*
X147972135Y-114687892D01*
X147955027Y-114680581D01*
X147941875Y-114668778D01*
X147932160Y-114649716D01*
X147925361Y-114620628D01*
X147920958Y-114578744D01*
X147918430Y-114521298D01*
X147917257Y-114445522D01*
X147916919Y-114348647D01*
X147916900Y-114284872D01*
X147916900Y-113931700D01*
X148006777Y-113931700D01*
X148055432Y-113932643D01*
X148086878Y-113937064D01*
X148109287Y-113947351D01*
X148130825Y-113965892D01*
X148133777Y-113968823D01*
X148159904Y-114003567D01*
X148170856Y-114036853D01*
X148170900Y-114038673D01*
X148175129Y-114063003D01*
X148183600Y-114071400D01*
X148190639Y-114060087D01*
X148194837Y-114031436D01*
X148195947Y-113993375D01*
X148193717Y-113953832D01*
X148188296Y-113922175D01*
X148180638Y-113893600D01*
X147523200Y-113893600D01*
X147523395Y-113985675D01*
G36*
X141837070Y-114160780D02*
G01*
X141832302Y-114162189D01*
X141796004Y-114170224D01*
X141773090Y-114166573D01*
X141764154Y-114160634D01*
X141754461Y-114155255D01*
X141748704Y-114161706D01*
X141745968Y-114184079D01*
X141745340Y-114226464D01*
X141745432Y-114244469D01*
X141746164Y-114344450D01*
X141775156Y-114280736D01*
X141807897Y-114230268D01*
X141849516Y-114197490D01*
X141895319Y-114184058D01*
X141940617Y-114191630D01*
X141970906Y-114211594D01*
X141994557Y-114240565D01*
X141999894Y-114268446D01*
X141985614Y-114297175D01*
X141950416Y-114328692D01*
X141892996Y-114364935D01*
X141853359Y-114386590D01*
X141797191Y-114417660D01*
X141759193Y-114442883D01*
X141734158Y-114466342D01*
X141716875Y-114492122D01*
X141715567Y-114494609D01*
X141700030Y-114530412D01*
X141697648Y-114560006D01*
X141705100Y-114592098D01*
X141734171Y-114649412D01*
X141780447Y-114689579D01*
X141841397Y-114711443D01*
X141914489Y-114713844D01*
X141956339Y-114707042D01*
X142000399Y-114698922D01*
X142027483Y-114699121D01*
X142043762Y-114706907D01*
X142053114Y-114711456D01*
X142058693Y-114703243D01*
X142061414Y-114678219D01*
X142062194Y-114632334D01*
X142062200Y-114625405D01*
X142061455Y-114579462D01*
X142059482Y-114545321D01*
X142056674Y-114529140D01*
X142056021Y-114528600D01*
X142047495Y-114539009D01*
X142034559Y-114564591D01*
X142032258Y-114569875D01*
X141996205Y-114626249D01*
X141945703Y-114663403D01*
X141897844Y-114677430D01*
X141859109Y-114679302D01*
X141831938Y-114669646D01*
X141814046Y-114655126D01*
X141788388Y-114623164D01*
X141782374Y-114592084D01*
X141797077Y-114560101D01*
X141833565Y-114525430D01*
X141892910Y-114486288D01*
X141926878Y-114467002D01*
X141987079Y-114431383D01*
X142027037Y-114400226D01*
X142050377Y-114369306D01*
X142060722Y-114334398D01*
X142062200Y-114309243D01*
X142051895Y-114245926D01*
X142021797Y-114197031D01*
X141981466Y-114168362D01*
X141935487Y-114151701D01*
X141891081Y-114149328D01*
X141837070Y-114160780D01*
X141837070Y-114160780D01*
G37*
X141837070Y-114160780D02*
X141832302Y-114162189D01*
X141796004Y-114170224D01*
X141773090Y-114166573D01*
X141764154Y-114160634D01*
X141754461Y-114155255D01*
X141748704Y-114161706D01*
X141745968Y-114184079D01*
X141745340Y-114226464D01*
X141745432Y-114244469D01*
X141746164Y-114344450D01*
X141775156Y-114280736D01*
X141807897Y-114230268D01*
X141849516Y-114197490D01*
X141895319Y-114184058D01*
X141940617Y-114191630D01*
X141970906Y-114211594D01*
X141994557Y-114240565D01*
X141999894Y-114268446D01*
X141985614Y-114297175D01*
X141950416Y-114328692D01*
X141892996Y-114364935D01*
X141853359Y-114386590D01*
X141797191Y-114417660D01*
X141759193Y-114442883D01*
X141734158Y-114466342D01*
X141716875Y-114492122D01*
X141715567Y-114494609D01*
X141700030Y-114530412D01*
X141697648Y-114560006D01*
X141705100Y-114592098D01*
X141734171Y-114649412D01*
X141780447Y-114689579D01*
X141841397Y-114711443D01*
X141914489Y-114713844D01*
X141956339Y-114707042D01*
X142000399Y-114698922D01*
X142027483Y-114699121D01*
X142043762Y-114706907D01*
X142053114Y-114711456D01*
X142058693Y-114703243D01*
X142061414Y-114678219D01*
X142062194Y-114632334D01*
X142062200Y-114625405D01*
X142061455Y-114579462D01*
X142059482Y-114545321D01*
X142056674Y-114529140D01*
X142056021Y-114528600D01*
X142047495Y-114539009D01*
X142034559Y-114564591D01*
X142032258Y-114569875D01*
X141996205Y-114626249D01*
X141945703Y-114663403D01*
X141897844Y-114677430D01*
X141859109Y-114679302D01*
X141831938Y-114669646D01*
X141814046Y-114655126D01*
X141788388Y-114623164D01*
X141782374Y-114592084D01*
X141797077Y-114560101D01*
X141833565Y-114525430D01*
X141892910Y-114486288D01*
X141926878Y-114467002D01*
X141987079Y-114431383D01*
X142027037Y-114400226D01*
X142050377Y-114369306D01*
X142060722Y-114334398D01*
X142062200Y-114309243D01*
X142051895Y-114245926D01*
X142021797Y-114197031D01*
X141981466Y-114168362D01*
X141935487Y-114151701D01*
X141891081Y-114149328D01*
X141837070Y-114160780D01*
G36*
X142321933Y-114155219D02*
G01*
X142260988Y-114179747D01*
X142211741Y-114221234D01*
X142178471Y-114277489D01*
X142168157Y-114316172D01*
X142160477Y-114363500D01*
X142547033Y-114363500D01*
X142538065Y-114417475D01*
X142519675Y-114486141D01*
X142487871Y-114539277D01*
X142455378Y-114571540D01*
X142396939Y-114606776D01*
X142337000Y-114618207D01*
X142279659Y-114606600D01*
X142229012Y-114572720D01*
X142191714Y-114522279D01*
X142177546Y-114499126D01*
X142169725Y-114497529D01*
X142166626Y-114506673D01*
X142169825Y-114538079D01*
X142186644Y-114579580D01*
X142212724Y-114623323D01*
X142243710Y-114661459D01*
X142261267Y-114677201D01*
X142313031Y-114703415D01*
X142375374Y-114715848D01*
X142437443Y-114713249D01*
X142474950Y-114701803D01*
X142536254Y-114659835D01*
X142582416Y-114599790D01*
X142611336Y-114525388D01*
X142620930Y-114443282D01*
X142611990Y-114348866D01*
X142601419Y-114318642D01*
X142544800Y-114318642D01*
X142532983Y-114321437D01*
X142501058Y-114323669D01*
X142454315Y-114325065D01*
X142413650Y-114325400D01*
X142282500Y-114325400D01*
X142288106Y-114287204D01*
X142304084Y-114249203D01*
X142335450Y-114214684D01*
X142373723Y-114191316D01*
X142400356Y-114185700D01*
X142451833Y-114197024D01*
X142497148Y-114226945D01*
X142526751Y-114268685D01*
X142538586Y-114298677D01*
X142544608Y-114317196D01*
X142544800Y-114318642D01*
X142601419Y-114318642D01*
X142585261Y-114272451D01*
X142540576Y-114213746D01*
X142477767Y-114172462D01*
X142461808Y-114165805D01*
X142390300Y-114149842D01*
X142321933Y-114155219D01*
X142321933Y-114155219D01*
G37*
X142321933Y-114155219D02*
X142260988Y-114179747D01*
X142211741Y-114221234D01*
X142178471Y-114277489D01*
X142168157Y-114316172D01*
X142160477Y-114363500D01*
X142547033Y-114363500D01*
X142538065Y-114417475D01*
X142519675Y-114486141D01*
X142487871Y-114539277D01*
X142455378Y-114571540D01*
X142396939Y-114606776D01*
X142337000Y-114618207D01*
X142279659Y-114606600D01*
X142229012Y-114572720D01*
X142191714Y-114522279D01*
X142177546Y-114499126D01*
X142169725Y-114497529D01*
X142166626Y-114506673D01*
X142169825Y-114538079D01*
X142186644Y-114579580D01*
X142212724Y-114623323D01*
X142243710Y-114661459D01*
X142261267Y-114677201D01*
X142313031Y-114703415D01*
X142375374Y-114715848D01*
X142437443Y-114713249D01*
X142474950Y-114701803D01*
X142536254Y-114659835D01*
X142582416Y-114599790D01*
X142611336Y-114525388D01*
X142620930Y-114443282D01*
X142611990Y-114348866D01*
X142601419Y-114318642D01*
X142544800Y-114318642D01*
X142532983Y-114321437D01*
X142501058Y-114323669D01*
X142454315Y-114325065D01*
X142413650Y-114325400D01*
X142282500Y-114325400D01*
X142288106Y-114287204D01*
X142304084Y-114249203D01*
X142335450Y-114214684D01*
X142373723Y-114191316D01*
X142400356Y-114185700D01*
X142451833Y-114197024D01*
X142497148Y-114226945D01*
X142526751Y-114268685D01*
X142538586Y-114298677D01*
X142544608Y-114317196D01*
X142544800Y-114318642D01*
X142601419Y-114318642D01*
X142585261Y-114272451D01*
X142540576Y-114213746D01*
X142477767Y-114172462D01*
X142461808Y-114165805D01*
X142390300Y-114149842D01*
X142321933Y-114155219D01*
G36*
X143859281Y-114153871D02*
G01*
X143791593Y-114179063D01*
X143734455Y-114223043D01*
X143691091Y-114282672D01*
X143664727Y-114354811D01*
X143658045Y-114419479D01*
X143668668Y-114504802D01*
X143697556Y-114578910D01*
X143741659Y-114639530D01*
X143797929Y-114684387D01*
X143863315Y-114711208D01*
X143934768Y-114717719D01*
X144009238Y-114701645D01*
X144026742Y-114694392D01*
X144085452Y-114654574D01*
X144131854Y-114597115D01*
X144163297Y-114527869D01*
X144177128Y-114452689D01*
X144173832Y-114414119D01*
X144066245Y-114414119D01*
X144059559Y-114481049D01*
X144050277Y-114522317D01*
X144022695Y-114589753D01*
X143985887Y-114639913D01*
X143942875Y-114671223D01*
X143896680Y-114682108D01*
X143850325Y-114670995D01*
X143814911Y-114644964D01*
X143784607Y-114598204D01*
X143767569Y-114536308D01*
X143763154Y-114465388D01*
X143770714Y-114391558D01*
X143789605Y-114320934D01*
X143819180Y-114259627D01*
X143858794Y-114213752D01*
X143860609Y-114212300D01*
X143907343Y-114190038D01*
X143957345Y-114189997D01*
X144004195Y-114210919D01*
X144038740Y-114247211D01*
X144055499Y-114289174D01*
X144064780Y-114347485D01*
X144066245Y-114414119D01*
X144173832Y-114414119D01*
X144170695Y-114377427D01*
X144170589Y-114376986D01*
X144139716Y-114291226D01*
X144093205Y-114225104D01*
X144031549Y-114179090D01*
X143955239Y-114153655D01*
X143934292Y-114150607D01*
X143859281Y-114153871D01*
X143859281Y-114153871D01*
G37*
X143859281Y-114153871D02*
X143791593Y-114179063D01*
X143734455Y-114223043D01*
X143691091Y-114282672D01*
X143664727Y-114354811D01*
X143658045Y-114419479D01*
X143668668Y-114504802D01*
X143697556Y-114578910D01*
X143741659Y-114639530D01*
X143797929Y-114684387D01*
X143863315Y-114711208D01*
X143934768Y-114717719D01*
X144009238Y-114701645D01*
X144026742Y-114694392D01*
X144085452Y-114654574D01*
X144131854Y-114597115D01*
X144163297Y-114527869D01*
X144177128Y-114452689D01*
X144173832Y-114414119D01*
X144066245Y-114414119D01*
X144059559Y-114481049D01*
X144050277Y-114522317D01*
X144022695Y-114589753D01*
X143985887Y-114639913D01*
X143942875Y-114671223D01*
X143896680Y-114682108D01*
X143850325Y-114670995D01*
X143814911Y-114644964D01*
X143784607Y-114598204D01*
X143767569Y-114536308D01*
X143763154Y-114465388D01*
X143770714Y-114391558D01*
X143789605Y-114320934D01*
X143819180Y-114259627D01*
X143858794Y-114213752D01*
X143860609Y-114212300D01*
X143907343Y-114190038D01*
X143957345Y-114189997D01*
X144004195Y-114210919D01*
X144038740Y-114247211D01*
X144055499Y-114289174D01*
X144064780Y-114347485D01*
X144066245Y-114414119D01*
X144173832Y-114414119D01*
X144170695Y-114377427D01*
X144170589Y-114376986D01*
X144139716Y-114291226D01*
X144093205Y-114225104D01*
X144031549Y-114179090D01*
X143955239Y-114153655D01*
X143934292Y-114150607D01*
X143859281Y-114153871D01*
G36*
X144811781Y-114153871D02*
G01*
X144744093Y-114179063D01*
X144686955Y-114223043D01*
X144643591Y-114282672D01*
X144617227Y-114354811D01*
X144610545Y-114419479D01*
X144621168Y-114504802D01*
X144650056Y-114578910D01*
X144694159Y-114639530D01*
X144750429Y-114684387D01*
X144815815Y-114711208D01*
X144887268Y-114717719D01*
X144961738Y-114701645D01*
X144979242Y-114694392D01*
X145037952Y-114654574D01*
X145084354Y-114597115D01*
X145115797Y-114527869D01*
X145129628Y-114452689D01*
X145126332Y-114414119D01*
X145018745Y-114414119D01*
X145012059Y-114481049D01*
X145002777Y-114522317D01*
X144975195Y-114589753D01*
X144938387Y-114639913D01*
X144895375Y-114671223D01*
X144849180Y-114682108D01*
X144802825Y-114670995D01*
X144767411Y-114644964D01*
X144737107Y-114598204D01*
X144720069Y-114536308D01*
X144715654Y-114465388D01*
X144723214Y-114391558D01*
X144742105Y-114320934D01*
X144771680Y-114259627D01*
X144811294Y-114213752D01*
X144813109Y-114212300D01*
X144859843Y-114190038D01*
X144909845Y-114189997D01*
X144956695Y-114210919D01*
X144991240Y-114247211D01*
X145007999Y-114289174D01*
X145017280Y-114347485D01*
X145018745Y-114414119D01*
X145126332Y-114414119D01*
X145123195Y-114377427D01*
X145123089Y-114376986D01*
X145092216Y-114291226D01*
X145045705Y-114225104D01*
X144984049Y-114179090D01*
X144907739Y-114153655D01*
X144886792Y-114150607D01*
X144811781Y-114153871D01*
X144811781Y-114153871D01*
G37*
X144811781Y-114153871D02*
X144744093Y-114179063D01*
X144686955Y-114223043D01*
X144643591Y-114282672D01*
X144617227Y-114354811D01*
X144610545Y-114419479D01*
X144621168Y-114504802D01*
X144650056Y-114578910D01*
X144694159Y-114639530D01*
X144750429Y-114684387D01*
X144815815Y-114711208D01*
X144887268Y-114717719D01*
X144961738Y-114701645D01*
X144979242Y-114694392D01*
X145037952Y-114654574D01*
X145084354Y-114597115D01*
X145115797Y-114527869D01*
X145129628Y-114452689D01*
X145126332Y-114414119D01*
X145018745Y-114414119D01*
X145012059Y-114481049D01*
X145002777Y-114522317D01*
X144975195Y-114589753D01*
X144938387Y-114639913D01*
X144895375Y-114671223D01*
X144849180Y-114682108D01*
X144802825Y-114670995D01*
X144767411Y-114644964D01*
X144737107Y-114598204D01*
X144720069Y-114536308D01*
X144715654Y-114465388D01*
X144723214Y-114391558D01*
X144742105Y-114320934D01*
X144771680Y-114259627D01*
X144811294Y-114213752D01*
X144813109Y-114212300D01*
X144859843Y-114190038D01*
X144909845Y-114189997D01*
X144956695Y-114210919D01*
X144991240Y-114247211D01*
X145007999Y-114289174D01*
X145017280Y-114347485D01*
X145018745Y-114414119D01*
X145126332Y-114414119D01*
X145123195Y-114377427D01*
X145123089Y-114376986D01*
X145092216Y-114291226D01*
X145045705Y-114225104D01*
X144984049Y-114179090D01*
X144907739Y-114153655D01*
X144886792Y-114150607D01*
X144811781Y-114153871D01*
G36*
X146584196Y-114155920D02*
G01*
X146547815Y-114163334D01*
X146517644Y-114178443D01*
X146509494Y-114184017D01*
X146470245Y-114221220D01*
X146451474Y-114260343D01*
X146455065Y-114297206D01*
X146456846Y-114300831D01*
X146478826Y-114320917D01*
X146507941Y-114322839D01*
X146537447Y-114309705D01*
X146560602Y-114284623D01*
X146570661Y-114250704D01*
X146570700Y-114248342D01*
X146581443Y-114217108D01*
X146609265Y-114196503D01*
X146647555Y-114187990D01*
X146689705Y-114193033D01*
X146729103Y-114213095D01*
X146729277Y-114213232D01*
X146769543Y-114260024D01*
X146792720Y-114319701D01*
X146799107Y-114386633D01*
X146789001Y-114455189D01*
X146762702Y-114519737D01*
X146720508Y-114574648D01*
X146709610Y-114584466D01*
X146679159Y-114606622D01*
X146650651Y-114615546D01*
X146611458Y-114614862D01*
X146605609Y-114614323D01*
X146549340Y-114599311D01*
X146501527Y-114568835D01*
X146468969Y-114527949D01*
X146460907Y-114506726D01*
X146450604Y-114484796D01*
X146438511Y-114477803D01*
X146431473Y-114488763D01*
X146431279Y-114493675D01*
X146437551Y-114518758D01*
X146452894Y-114556253D01*
X146472937Y-114597017D01*
X146493307Y-114631913D01*
X146504724Y-114647198D01*
X146557194Y-114688149D01*
X146620511Y-114711468D01*
X146686964Y-114715396D01*
X146742150Y-114701313D01*
X146795237Y-114667059D01*
X146842429Y-114617406D01*
X146872158Y-114567340D01*
X146881977Y-114531282D01*
X146888890Y-114481606D01*
X146891199Y-114437270D01*
X146881541Y-114347589D01*
X146851202Y-114272492D01*
X146799961Y-114211508D01*
X146775288Y-114192166D01*
X146741043Y-114170630D01*
X146709447Y-114159055D01*
X146669855Y-114154515D01*
X146636281Y-114153950D01*
X146584196Y-114155920D01*
X146584196Y-114155920D01*
G37*
X146584196Y-114155920D02*
X146547815Y-114163334D01*
X146517644Y-114178443D01*
X146509494Y-114184017D01*
X146470245Y-114221220D01*
X146451474Y-114260343D01*
X146455065Y-114297206D01*
X146456846Y-114300831D01*
X146478826Y-114320917D01*
X146507941Y-114322839D01*
X146537447Y-114309705D01*
X146560602Y-114284623D01*
X146570661Y-114250704D01*
X146570700Y-114248342D01*
X146581443Y-114217108D01*
X146609265Y-114196503D01*
X146647555Y-114187990D01*
X146689705Y-114193033D01*
X146729103Y-114213095D01*
X146729277Y-114213232D01*
X146769543Y-114260024D01*
X146792720Y-114319701D01*
X146799107Y-114386633D01*
X146789001Y-114455189D01*
X146762702Y-114519737D01*
X146720508Y-114574648D01*
X146709610Y-114584466D01*
X146679159Y-114606622D01*
X146650651Y-114615546D01*
X146611458Y-114614862D01*
X146605609Y-114614323D01*
X146549340Y-114599311D01*
X146501527Y-114568835D01*
X146468969Y-114527949D01*
X146460907Y-114506726D01*
X146450604Y-114484796D01*
X146438511Y-114477803D01*
X146431473Y-114488763D01*
X146431279Y-114493675D01*
X146437551Y-114518758D01*
X146452894Y-114556253D01*
X146472937Y-114597017D01*
X146493307Y-114631913D01*
X146504724Y-114647198D01*
X146557194Y-114688149D01*
X146620511Y-114711468D01*
X146686964Y-114715396D01*
X146742150Y-114701313D01*
X146795237Y-114667059D01*
X146842429Y-114617406D01*
X146872158Y-114567340D01*
X146881977Y-114531282D01*
X146888890Y-114481606D01*
X146891199Y-114437270D01*
X146881541Y-114347589D01*
X146851202Y-114272492D01*
X146799961Y-114211508D01*
X146775288Y-114192166D01*
X146741043Y-114170630D01*
X146709447Y-114159055D01*
X146669855Y-114154515D01*
X146636281Y-114153950D01*
X146584196Y-114155920D01*
G36*
X147135233Y-114155219D02*
G01*
X147074288Y-114179747D01*
X147025041Y-114221234D01*
X146991771Y-114277489D01*
X146981457Y-114316172D01*
X146973777Y-114363500D01*
X147360333Y-114363500D01*
X147351365Y-114417475D01*
X147332975Y-114486141D01*
X147301171Y-114539277D01*
X147268678Y-114571540D01*
X147210239Y-114606776D01*
X147150300Y-114618207D01*
X147092959Y-114606600D01*
X147042312Y-114572720D01*
X147005014Y-114522279D01*
X146990846Y-114499126D01*
X146983025Y-114497529D01*
X146979926Y-114506673D01*
X146983125Y-114538079D01*
X146999944Y-114579580D01*
X147026024Y-114623323D01*
X147057010Y-114661459D01*
X147074567Y-114677201D01*
X147126331Y-114703415D01*
X147188674Y-114715848D01*
X147250743Y-114713249D01*
X147288250Y-114701803D01*
X147349554Y-114659835D01*
X147395716Y-114599790D01*
X147424636Y-114525388D01*
X147434230Y-114443282D01*
X147425290Y-114348866D01*
X147414719Y-114318642D01*
X147358100Y-114318642D01*
X147346283Y-114321437D01*
X147314358Y-114323669D01*
X147267615Y-114325065D01*
X147226950Y-114325400D01*
X147095800Y-114325400D01*
X147101406Y-114287204D01*
X147117384Y-114249203D01*
X147148750Y-114214684D01*
X147187023Y-114191316D01*
X147213656Y-114185700D01*
X147265133Y-114197024D01*
X147310448Y-114226945D01*
X147340051Y-114268685D01*
X147351886Y-114298677D01*
X147357908Y-114317196D01*
X147358100Y-114318642D01*
X147414719Y-114318642D01*
X147398561Y-114272451D01*
X147353876Y-114213746D01*
X147291067Y-114172462D01*
X147275108Y-114165805D01*
X147203600Y-114149842D01*
X147135233Y-114155219D01*
X147135233Y-114155219D01*
G37*
X147135233Y-114155219D02*
X147074288Y-114179747D01*
X147025041Y-114221234D01*
X146991771Y-114277489D01*
X146981457Y-114316172D01*
X146973777Y-114363500D01*
X147360333Y-114363500D01*
X147351365Y-114417475D01*
X147332975Y-114486141D01*
X147301171Y-114539277D01*
X147268678Y-114571540D01*
X147210239Y-114606776D01*
X147150300Y-114618207D01*
X147092959Y-114606600D01*
X147042312Y-114572720D01*
X147005014Y-114522279D01*
X146990846Y-114499126D01*
X146983025Y-114497529D01*
X146979926Y-114506673D01*
X146983125Y-114538079D01*
X146999944Y-114579580D01*
X147026024Y-114623323D01*
X147057010Y-114661459D01*
X147074567Y-114677201D01*
X147126331Y-114703415D01*
X147188674Y-114715848D01*
X147250743Y-114713249D01*
X147288250Y-114701803D01*
X147349554Y-114659835D01*
X147395716Y-114599790D01*
X147424636Y-114525388D01*
X147434230Y-114443282D01*
X147425290Y-114348866D01*
X147414719Y-114318642D01*
X147358100Y-114318642D01*
X147346283Y-114321437D01*
X147314358Y-114323669D01*
X147267615Y-114325065D01*
X147226950Y-114325400D01*
X147095800Y-114325400D01*
X147101406Y-114287204D01*
X147117384Y-114249203D01*
X147148750Y-114214684D01*
X147187023Y-114191316D01*
X147213656Y-114185700D01*
X147265133Y-114197024D01*
X147310448Y-114226945D01*
X147340051Y-114268685D01*
X147351886Y-114298677D01*
X147357908Y-114317196D01*
X147358100Y-114318642D01*
X147414719Y-114318642D01*
X147398561Y-114272451D01*
X147353876Y-114213746D01*
X147291067Y-114172462D01*
X147275108Y-114165805D01*
X147203600Y-114149842D01*
X147135233Y-114155219D01*
G36*
X143234019Y-114164067D02*
G01*
X143230600Y-114165244D01*
X143181773Y-114177541D01*
X143126457Y-114184748D01*
X143106775Y-114185515D01*
X143065701Y-114187506D01*
X143045084Y-114194099D01*
X143040100Y-114204750D01*
X143048542Y-114218033D01*
X143076481Y-114223473D01*
X143090586Y-114223800D01*
X143122502Y-114224844D01*
X143134499Y-114231097D01*
X143132050Y-114247241D01*
X143128686Y-114256376D01*
X143117109Y-114313752D01*
X143120529Y-114375777D01*
X143138041Y-114430207D01*
X143142087Y-114437388D01*
X143181948Y-114480066D01*
X143238749Y-114510499D01*
X143305821Y-114525808D01*
X143348647Y-114526510D01*
X143387966Y-114525234D01*
X143410666Y-114530122D01*
X143425349Y-114544323D01*
X143433261Y-114557493D01*
X143445436Y-114583074D01*
X143443604Y-114596960D01*
X143433800Y-114604924D01*
X143410415Y-114612200D01*
X143372598Y-114616880D01*
X143351250Y-114617721D01*
X143264752Y-114621653D01*
X143189600Y-114631163D01*
X143130062Y-114645434D01*
X143090404Y-114663652D01*
X143084004Y-114668813D01*
X143053706Y-114712294D01*
X143045628Y-114761748D01*
X143058433Y-114813650D01*
X143090783Y-114864474D01*
X143141342Y-114910696D01*
X143186150Y-114938066D01*
X143243500Y-114957790D01*
X143313968Y-114967909D01*
X143386898Y-114967761D01*
X143451636Y-114956683D01*
X143457382Y-114954906D01*
X143510121Y-114931252D01*
X143549638Y-114900751D01*
X143571061Y-114867672D01*
X143573500Y-114853178D01*
X143565717Y-114829814D01*
X143561303Y-114822373D01*
X143488832Y-114822373D01*
X143481317Y-114837703D01*
X143450434Y-114861955D01*
X143401732Y-114880458D01*
X143342339Y-114892233D01*
X143279384Y-114896301D01*
X143219996Y-114891683D01*
X143176218Y-114879602D01*
X143126560Y-114849769D01*
X143098434Y-114812514D01*
X143093124Y-114774932D01*
X143097764Y-114756392D01*
X143109122Y-114742653D01*
X143130810Y-114732710D01*
X143166440Y-114725557D01*
X143219627Y-114720187D01*
X143293982Y-114715595D01*
X143309017Y-114714817D01*
X143369325Y-114712052D01*
X143409391Y-114711545D01*
X143434322Y-114713993D01*
X143449229Y-114720091D01*
X143459220Y-114730534D01*
X143462761Y-114735741D01*
X143487010Y-114784416D01*
X143488832Y-114822373D01*
X143561303Y-114822373D01*
X143545465Y-114795676D01*
X143521446Y-114763591D01*
X143493747Y-114729386D01*
X143480526Y-114708980D01*
X143479990Y-114696670D01*
X143490343Y-114686754D01*
X143496046Y-114682899D01*
X143518650Y-114655305D01*
X143518412Y-114619164D01*
X143495590Y-114576491D01*
X143480076Y-114557915D01*
X143437451Y-114511403D01*
X143479465Y-114469388D01*
X143517898Y-114416722D01*
X143534050Y-114361587D01*
X143533440Y-114352392D01*
X143430031Y-114352392D01*
X143417592Y-114408750D01*
X143394186Y-114454319D01*
X143362653Y-114486193D01*
X143325828Y-114501467D01*
X143286551Y-114497236D01*
X143249073Y-114472027D01*
X143230762Y-114449315D01*
X143221301Y-114422375D01*
X143218056Y-114382151D01*
X143217900Y-114364904D01*
X143219933Y-114317697D01*
X143225170Y-114276338D01*
X143230093Y-114256883D01*
X143258302Y-114208228D01*
X143294520Y-114180807D01*
X143334025Y-114173877D01*
X143372094Y-114186696D01*
X143404005Y-114218519D01*
X143425035Y-114268602D01*
X143428666Y-114288150D01*
X143430031Y-114352392D01*
X143533440Y-114352392D01*
X143530431Y-114307048D01*
X143509549Y-114256173D01*
X143473914Y-114212028D01*
X143426034Y-114177678D01*
X143368419Y-114156190D01*
X143303578Y-114150631D01*
X143234019Y-114164067D01*
X143234019Y-114164067D01*
G37*
X143234019Y-114164067D02*
X143230600Y-114165244D01*
X143181773Y-114177541D01*
X143126457Y-114184748D01*
X143106775Y-114185515D01*
X143065701Y-114187506D01*
X143045084Y-114194099D01*
X143040100Y-114204750D01*
X143048542Y-114218033D01*
X143076481Y-114223473D01*
X143090586Y-114223800D01*
X143122502Y-114224844D01*
X143134499Y-114231097D01*
X143132050Y-114247241D01*
X143128686Y-114256376D01*
X143117109Y-114313752D01*
X143120529Y-114375777D01*
X143138041Y-114430207D01*
X143142087Y-114437388D01*
X143181948Y-114480066D01*
X143238749Y-114510499D01*
X143305821Y-114525808D01*
X143348647Y-114526510D01*
X143387966Y-114525234D01*
X143410666Y-114530122D01*
X143425349Y-114544323D01*
X143433261Y-114557493D01*
X143445436Y-114583074D01*
X143443604Y-114596960D01*
X143433800Y-114604924D01*
X143410415Y-114612200D01*
X143372598Y-114616880D01*
X143351250Y-114617721D01*
X143264752Y-114621653D01*
X143189600Y-114631163D01*
X143130062Y-114645434D01*
X143090404Y-114663652D01*
X143084004Y-114668813D01*
X143053706Y-114712294D01*
X143045628Y-114761748D01*
X143058433Y-114813650D01*
X143090783Y-114864474D01*
X143141342Y-114910696D01*
X143186150Y-114938066D01*
X143243500Y-114957790D01*
X143313968Y-114967909D01*
X143386898Y-114967761D01*
X143451636Y-114956683D01*
X143457382Y-114954906D01*
X143510121Y-114931252D01*
X143549638Y-114900751D01*
X143571061Y-114867672D01*
X143573500Y-114853178D01*
X143565717Y-114829814D01*
X143561303Y-114822373D01*
X143488832Y-114822373D01*
X143481317Y-114837703D01*
X143450434Y-114861955D01*
X143401732Y-114880458D01*
X143342339Y-114892233D01*
X143279384Y-114896301D01*
X143219996Y-114891683D01*
X143176218Y-114879602D01*
X143126560Y-114849769D01*
X143098434Y-114812514D01*
X143093124Y-114774932D01*
X143097764Y-114756392D01*
X143109122Y-114742653D01*
X143130810Y-114732710D01*
X143166440Y-114725557D01*
X143219627Y-114720187D01*
X143293982Y-114715595D01*
X143309017Y-114714817D01*
X143369325Y-114712052D01*
X143409391Y-114711545D01*
X143434322Y-114713993D01*
X143449229Y-114720091D01*
X143459220Y-114730534D01*
X143462761Y-114735741D01*
X143487010Y-114784416D01*
X143488832Y-114822373D01*
X143561303Y-114822373D01*
X143545465Y-114795676D01*
X143521446Y-114763591D01*
X143493747Y-114729386D01*
X143480526Y-114708980D01*
X143479990Y-114696670D01*
X143490343Y-114686754D01*
X143496046Y-114682899D01*
X143518650Y-114655305D01*
X143518412Y-114619164D01*
X143495590Y-114576491D01*
X143480076Y-114557915D01*
X143437451Y-114511403D01*
X143479465Y-114469388D01*
X143517898Y-114416722D01*
X143534050Y-114361587D01*
X143533440Y-114352392D01*
X143430031Y-114352392D01*
X143417592Y-114408750D01*
X143394186Y-114454319D01*
X143362653Y-114486193D01*
X143325828Y-114501467D01*
X143286551Y-114497236D01*
X143249073Y-114472027D01*
X143230762Y-114449315D01*
X143221301Y-114422375D01*
X143218056Y-114382151D01*
X143217900Y-114364904D01*
X143219933Y-114317697D01*
X143225170Y-114276338D01*
X143230093Y-114256883D01*
X143258302Y-114208228D01*
X143294520Y-114180807D01*
X143334025Y-114173877D01*
X143372094Y-114186696D01*
X143404005Y-114218519D01*
X143425035Y-114268602D01*
X143428666Y-114288150D01*
X143430031Y-114352392D01*
X143533440Y-114352392D01*
X143530431Y-114307048D01*
X143509549Y-114256173D01*
X143473914Y-114212028D01*
X143426034Y-114177678D01*
X143368419Y-114156190D01*
X143303578Y-114150631D01*
X143234019Y-114164067D01*
G36*
X161392504Y-101538935D02*
G01*
X161332376Y-101581798D01*
X161242539Y-101648571D01*
X161128051Y-101735435D01*
X160993967Y-101838575D01*
X160845344Y-101954172D01*
X160778682Y-102006400D01*
X160164025Y-102489000D01*
X159844363Y-102490624D01*
X159524700Y-102492249D01*
X158978600Y-103142206D01*
X158841129Y-103305112D01*
X158707678Y-103461930D01*
X158583392Y-103606713D01*
X158473413Y-103733517D01*
X158382884Y-103836396D01*
X158316950Y-103909404D01*
X158293366Y-103934331D01*
X158222102Y-104010389D01*
X158162422Y-104079923D01*
X158125899Y-104129353D01*
X158123352Y-104133785D01*
X158096333Y-104172892D01*
X158042770Y-104241942D01*
X157969417Y-104332514D01*
X157883030Y-104436184D01*
X157843387Y-104482894D01*
X157594300Y-104774717D01*
X157587692Y-103631858D01*
X157581083Y-102489000D01*
X152654000Y-102489000D01*
X152654000Y-103708200D01*
X154203400Y-103708200D01*
X154203400Y-107213400D01*
X155727400Y-107213400D01*
X155727400Y-103708200D01*
X156184600Y-103708200D01*
X156184600Y-107210025D01*
X156248348Y-107218062D01*
X156267488Y-107223383D01*
X156273910Y-107236443D01*
X156264236Y-107262112D01*
X156235087Y-107305257D01*
X156183086Y-107370747D01*
X156104853Y-107463451D01*
X155997012Y-107588236D01*
X155969567Y-107619800D01*
X155866242Y-107740012D01*
X155775354Y-107848529D01*
X155701913Y-107939138D01*
X155650931Y-108005627D01*
X155627418Y-108041784D01*
X155626419Y-108045250D01*
X155633282Y-108068667D01*
X155657324Y-108073307D01*
X155701846Y-108057149D01*
X155770149Y-108018173D01*
X155865534Y-107954361D01*
X155991302Y-107863692D01*
X156150755Y-107744147D01*
X156280279Y-107645200D01*
X156842540Y-107213400D01*
X157503721Y-107213400D01*
X158158611Y-106462107D01*
X158307218Y-106291519D01*
X158448594Y-106129032D01*
X158578492Y-105979541D01*
X158692668Y-105847939D01*
X158786877Y-105739120D01*
X158856873Y-105657978D01*
X158898412Y-105609406D01*
X158902240Y-105604857D01*
X158952769Y-105545085D01*
X159026988Y-105457999D01*
X159115384Y-105354733D01*
X159208442Y-105246419D01*
X159219740Y-105233299D01*
X159448500Y-104967698D01*
X159455115Y-106090549D01*
X159461729Y-107213400D01*
X160883600Y-107213400D01*
X160883600Y-103708200D01*
X161391600Y-103708200D01*
X161391600Y-107213400D01*
X162915600Y-107213400D01*
X162915600Y-103708200D01*
X164439600Y-103708200D01*
X164439600Y-102489327D01*
X162572898Y-102482813D01*
X160706195Y-102476300D01*
X161074233Y-102062270D01*
X160921145Y-102062270D01*
X160906188Y-102082237D01*
X160860885Y-102136093D01*
X160788728Y-102219836D01*
X160693209Y-102329467D01*
X160577821Y-102460985D01*
X160446054Y-102610389D01*
X160301402Y-102773678D01*
X160232390Y-102851346D01*
X160077330Y-103026841D01*
X159935405Y-103189701D01*
X159809934Y-103335964D01*
X159704241Y-103461664D01*
X159621646Y-103562836D01*
X159565471Y-103635515D01*
X159539037Y-103675737D01*
X159537400Y-103681010D01*
X159558399Y-103721582D01*
X159623148Y-103773521D01*
X159706009Y-103823519D01*
X159874618Y-103917810D01*
X159147209Y-104643934D01*
X158989082Y-104802529D01*
X158842792Y-104950693D01*
X158712152Y-105084457D01*
X158600970Y-105199854D01*
X158513058Y-105292918D01*
X158452227Y-105359682D01*
X158422286Y-105396177D01*
X158419800Y-105401239D01*
X158440663Y-105428020D01*
X158495385Y-105468380D01*
X158572169Y-105513632D01*
X158572996Y-105514073D01*
X158648349Y-105558281D01*
X158700257Y-105596571D01*
X158717795Y-105620846D01*
X158717677Y-105621269D01*
X158696791Y-105640513D01*
X158639871Y-105687140D01*
X158551031Y-105757986D01*
X158434383Y-105849886D01*
X158294038Y-105959677D01*
X158134111Y-106084193D01*
X157958713Y-106220270D01*
X157771956Y-106364745D01*
X157577954Y-106514452D01*
X157380818Y-106666228D01*
X157184662Y-106816907D01*
X156993597Y-106963326D01*
X156811736Y-107102320D01*
X156643191Y-107230724D01*
X156492075Y-107345375D01*
X156362501Y-107443109D01*
X156258581Y-107520759D01*
X156184427Y-107575163D01*
X156144152Y-107603156D01*
X156137978Y-107606241D01*
X156152233Y-107586094D01*
X156196496Y-107531845D01*
X156267279Y-107447583D01*
X156361095Y-107337397D01*
X156474456Y-107205378D01*
X156603873Y-107055613D01*
X156745858Y-106892193D01*
X156798378Y-106831953D01*
X156944655Y-106663319D01*
X157079889Y-106505476D01*
X157200512Y-106362736D01*
X157302954Y-106239411D01*
X157383647Y-106139810D01*
X157439021Y-106068247D01*
X157465508Y-106029031D01*
X157467300Y-106023938D01*
X157446652Y-105988242D01*
X157394196Y-105944393D01*
X157359350Y-105922942D01*
X157296488Y-105884311D01*
X157257572Y-105852783D01*
X157251400Y-105842397D01*
X157268036Y-105819671D01*
X157315478Y-105763797D01*
X157390028Y-105678912D01*
X157487989Y-105569153D01*
X157605663Y-105438657D01*
X157739352Y-105291559D01*
X157885359Y-105131997D01*
X157924500Y-105089395D01*
X158073344Y-104926450D01*
X158210774Y-104773928D01*
X158333072Y-104636112D01*
X158436519Y-104517285D01*
X158517398Y-104421730D01*
X158571990Y-104353729D01*
X158596577Y-104317565D01*
X158597600Y-104314058D01*
X158575689Y-104276561D01*
X158515931Y-104227248D01*
X158457900Y-104190799D01*
X158385519Y-104146497D01*
X158335032Y-104110073D01*
X158318200Y-104091031D01*
X158337560Y-104072887D01*
X158392931Y-104027002D01*
X158480255Y-103956539D01*
X158595472Y-103864663D01*
X158734522Y-103754537D01*
X158893346Y-103629326D01*
X159067885Y-103492194D01*
X159254079Y-103346304D01*
X159447869Y-103194822D01*
X159645194Y-103040910D01*
X159841996Y-102887732D01*
X160034214Y-102738454D01*
X160217791Y-102596239D01*
X160388665Y-102464250D01*
X160542777Y-102345652D01*
X160676068Y-102243609D01*
X160784479Y-102161285D01*
X160863950Y-102101844D01*
X160910421Y-102068450D01*
X160921145Y-102062270D01*
X161074233Y-102062270D01*
X161074298Y-102062198D01*
X161211029Y-101906206D01*
X161314079Y-101783515D01*
X161385569Y-101691384D01*
X161427615Y-101627071D01*
X161442338Y-101587835D01*
X161442400Y-101585948D01*
X161433835Y-101538859D01*
X161417869Y-101523800D01*
X161392504Y-101538935D01*
X161392504Y-101538935D01*
G37*
X161392504Y-101538935D02*
X161332376Y-101581798D01*
X161242539Y-101648571D01*
X161128051Y-101735435D01*
X160993967Y-101838575D01*
X160845344Y-101954172D01*
X160778682Y-102006400D01*
X160164025Y-102489000D01*
X159844363Y-102490624D01*
X159524700Y-102492249D01*
X158978600Y-103142206D01*
X158841129Y-103305112D01*
X158707678Y-103461930D01*
X158583392Y-103606713D01*
X158473413Y-103733517D01*
X158382884Y-103836396D01*
X158316950Y-103909404D01*
X158293366Y-103934331D01*
X158222102Y-104010389D01*
X158162422Y-104079923D01*
X158125899Y-104129353D01*
X158123352Y-104133785D01*
X158096333Y-104172892D01*
X158042770Y-104241942D01*
X157969417Y-104332514D01*
X157883030Y-104436184D01*
X157843387Y-104482894D01*
X157594300Y-104774717D01*
X157587692Y-103631858D01*
X157581083Y-102489000D01*
X152654000Y-102489000D01*
X152654000Y-103708200D01*
X154203400Y-103708200D01*
X154203400Y-107213400D01*
X155727400Y-107213400D01*
X155727400Y-103708200D01*
X156184600Y-103708200D01*
X156184600Y-107210025D01*
X156248348Y-107218062D01*
X156267488Y-107223383D01*
X156273910Y-107236443D01*
X156264236Y-107262112D01*
X156235087Y-107305257D01*
X156183086Y-107370747D01*
X156104853Y-107463451D01*
X155997012Y-107588236D01*
X155969567Y-107619800D01*
X155866242Y-107740012D01*
X155775354Y-107848529D01*
X155701913Y-107939138D01*
X155650931Y-108005627D01*
X155627418Y-108041784D01*
X155626419Y-108045250D01*
X155633282Y-108068667D01*
X155657324Y-108073307D01*
X155701846Y-108057149D01*
X155770149Y-108018173D01*
X155865534Y-107954361D01*
X155991302Y-107863692D01*
X156150755Y-107744147D01*
X156280279Y-107645200D01*
X156842540Y-107213400D01*
X157503721Y-107213400D01*
X158158611Y-106462107D01*
X158307218Y-106291519D01*
X158448594Y-106129032D01*
X158578492Y-105979541D01*
X158692668Y-105847939D01*
X158786877Y-105739120D01*
X158856873Y-105657978D01*
X158898412Y-105609406D01*
X158902240Y-105604857D01*
X158952769Y-105545085D01*
X159026988Y-105457999D01*
X159115384Y-105354733D01*
X159208442Y-105246419D01*
X159219740Y-105233299D01*
X159448500Y-104967698D01*
X159455115Y-106090549D01*
X159461729Y-107213400D01*
X160883600Y-107213400D01*
X160883600Y-103708200D01*
X161391600Y-103708200D01*
X161391600Y-107213400D01*
X162915600Y-107213400D01*
X162915600Y-103708200D01*
X164439600Y-103708200D01*
X164439600Y-102489327D01*
X162572898Y-102482813D01*
X160706195Y-102476300D01*
X161074233Y-102062270D01*
X160921145Y-102062270D01*
X160906188Y-102082237D01*
X160860885Y-102136093D01*
X160788728Y-102219836D01*
X160693209Y-102329467D01*
X160577821Y-102460985D01*
X160446054Y-102610389D01*
X160301402Y-102773678D01*
X160232390Y-102851346D01*
X160077330Y-103026841D01*
X159935405Y-103189701D01*
X159809934Y-103335964D01*
X159704241Y-103461664D01*
X159621646Y-103562836D01*
X159565471Y-103635515D01*
X159539037Y-103675737D01*
X159537400Y-103681010D01*
X159558399Y-103721582D01*
X159623148Y-103773521D01*
X159706009Y-103823519D01*
X159874618Y-103917810D01*
X159147209Y-104643934D01*
X158989082Y-104802529D01*
X158842792Y-104950693D01*
X158712152Y-105084457D01*
X158600970Y-105199854D01*
X158513058Y-105292918D01*
X158452227Y-105359682D01*
X158422286Y-105396177D01*
X158419800Y-105401239D01*
X158440663Y-105428020D01*
X158495385Y-105468380D01*
X158572169Y-105513632D01*
X158572996Y-105514073D01*
X158648349Y-105558281D01*
X158700257Y-105596571D01*
X158717795Y-105620846D01*
X158717677Y-105621269D01*
X158696791Y-105640513D01*
X158639871Y-105687140D01*
X158551031Y-105757986D01*
X158434383Y-105849886D01*
X158294038Y-105959677D01*
X158134111Y-106084193D01*
X157958713Y-106220270D01*
X157771956Y-106364745D01*
X157577954Y-106514452D01*
X157380818Y-106666228D01*
X157184662Y-106816907D01*
X156993597Y-106963326D01*
X156811736Y-107102320D01*
X156643191Y-107230724D01*
X156492075Y-107345375D01*
X156362501Y-107443109D01*
X156258581Y-107520759D01*
X156184427Y-107575163D01*
X156144152Y-107603156D01*
X156137978Y-107606241D01*
X156152233Y-107586094D01*
X156196496Y-107531845D01*
X156267279Y-107447583D01*
X156361095Y-107337397D01*
X156474456Y-107205378D01*
X156603873Y-107055613D01*
X156745858Y-106892193D01*
X156798378Y-106831953D01*
X156944655Y-106663319D01*
X157079889Y-106505476D01*
X157200512Y-106362736D01*
X157302954Y-106239411D01*
X157383647Y-106139810D01*
X157439021Y-106068247D01*
X157465508Y-106029031D01*
X157467300Y-106023938D01*
X157446652Y-105988242D01*
X157394196Y-105944393D01*
X157359350Y-105922942D01*
X157296488Y-105884311D01*
X157257572Y-105852783D01*
X157251400Y-105842397D01*
X157268036Y-105819671D01*
X157315478Y-105763797D01*
X157390028Y-105678912D01*
X157487989Y-105569153D01*
X157605663Y-105438657D01*
X157739352Y-105291559D01*
X157885359Y-105131997D01*
X157924500Y-105089395D01*
X158073344Y-104926450D01*
X158210774Y-104773928D01*
X158333072Y-104636112D01*
X158436519Y-104517285D01*
X158517398Y-104421730D01*
X158571990Y-104353729D01*
X158596577Y-104317565D01*
X158597600Y-104314058D01*
X158575689Y-104276561D01*
X158515931Y-104227248D01*
X158457900Y-104190799D01*
X158385519Y-104146497D01*
X158335032Y-104110073D01*
X158318200Y-104091031D01*
X158337560Y-104072887D01*
X158392931Y-104027002D01*
X158480255Y-103956539D01*
X158595472Y-103864663D01*
X158734522Y-103754537D01*
X158893346Y-103629326D01*
X159067885Y-103492194D01*
X159254079Y-103346304D01*
X159447869Y-103194822D01*
X159645194Y-103040910D01*
X159841996Y-102887732D01*
X160034214Y-102738454D01*
X160217791Y-102596239D01*
X160388665Y-102464250D01*
X160542777Y-102345652D01*
X160676068Y-102243609D01*
X160784479Y-102161285D01*
X160863950Y-102101844D01*
X160910421Y-102068450D01*
X160921145Y-102062270D01*
X161074233Y-102062270D01*
X161074298Y-102062198D01*
X161211029Y-101906206D01*
X161314079Y-101783515D01*
X161385569Y-101691384D01*
X161427615Y-101627071D01*
X161442338Y-101587835D01*
X161442400Y-101585948D01*
X161433835Y-101538859D01*
X161417869Y-101523800D01*
X161392504Y-101538935D01*
M02*
