M48
; DRILL file {KiCad 7.0.11-rc3} date Fri Dec 20 13:56:20 2024
; FORMAT={-:-/ absolute / inch / decimal}
; #@! TF.CreationDate,2024-12-20T13:56:20-07:00
; #@! TF.GenerationSoftware,Kicad,Pcbnew,7.0.11-rc3
; #@! TF.FileFunction,Plated,1,2,PTH
FMAT,2
INCH
; #@! TA.AperFunction,Plated,PTH,ComponentDrill
T1C0.0315
; #@! TA.AperFunction,Plated,PTH,ComponentDrill
T2C0.0354
; #@! TA.AperFunction,Plated,PTH,ComponentDrill
T3C0.0394
; #@! TA.AperFunction,Plated,PTH,ComponentDrill
T4C0.0433
; #@! TA.AperFunction,Plated,PTH,ComponentDrill
T5C0.0669
%
G90
G05
T1
X5.26Y-3.285
X5.26Y-3.5688
X5.26Y-3.8525
X5.26Y-4.1362
X5.26Y-4.42
X5.56Y-3.285
X5.56Y-3.5688
X5.56Y-3.8525
X5.56Y-4.1362
X5.56Y-4.42
X5.7794Y-3.5904
X5.7794Y-3.6904
X5.7794Y-3.7904
X5.7794Y-3.8904
X5.8558Y-4.365
X5.8566Y-4.17
X5.9542Y-4.365
X5.955Y-4.17
X6.0794Y-3.5904
X6.0794Y-3.6904
X6.0794Y-3.7904
X6.0794Y-3.8904
X6.2632Y-3.31
X6.342Y-3.31
T2
X5.8459Y-3.285
X5.9459Y-3.285
T3
X5.8418Y-4.675
X5.9418Y-4.675
X6.34Y-3.6406
X6.34Y-3.7406
X6.34Y-3.8406
X6.34Y-4.095
X6.34Y-4.195
X6.34Y-4.295
T4
X5.26Y-4.68
X5.66Y-4.68
T5
X6.1609Y-4.6525
X6.3168Y-4.6525
M30
