G04 #@! TF.GenerationSoftware,KiCad,Pcbnew,7.0.11-rc3*
G04 #@! TF.CreationDate,2024-12-20T13:56:10-07:00*
G04 #@! TF.ProjectId,UselessBox V2,5573656c-6573-4734-926f-782056322e6b,2*
G04 #@! TF.SameCoordinates,Original*
G04 #@! TF.FileFunction,Soldermask,Top*
G04 #@! TF.FilePolarity,Negative*
%FSLAX46Y46*%
G04 Gerber Fmt 4.6, Leading zero omitted, Abs format (unit mm)*
G04 Created by KiCad (PCBNEW 7.0.11-rc3) date 2024-12-20 13:56:10*
%MOMM*%
%LPD*%
G01*
G04 APERTURE LIST*
G04 APERTURE END LIST*
G36*
X144883517Y-117724882D02*
G01*
X144900062Y-117735938D01*
X144911118Y-117752483D01*
X144915000Y-117772000D01*
X144915000Y-119972000D01*
X144911118Y-119991517D01*
X144900062Y-120008062D01*
X144883517Y-120019118D01*
X144864000Y-120023000D01*
X142664000Y-120023000D01*
X142644483Y-120019118D01*
X142627938Y-120008062D01*
X142616882Y-119991517D01*
X142613000Y-119972000D01*
X142613000Y-117772000D01*
X142616882Y-117752483D01*
X142627938Y-117735938D01*
X142644483Y-117724882D01*
X142664000Y-117721000D01*
X144864000Y-117721000D01*
X144883517Y-117724882D01*
G37*
G36*
X133654672Y-117725910D02*
G01*
X133710201Y-117725910D01*
X133759050Y-117735041D01*
X133803783Y-117738955D01*
X133858691Y-117753667D01*
X133918986Y-117764939D01*
X133959882Y-117780782D01*
X133997500Y-117790862D01*
X134054449Y-117817417D01*
X134117045Y-117841667D01*
X134149350Y-117861669D01*
X134179263Y-117875618D01*
X134235688Y-117915127D01*
X134297632Y-117953482D01*
X134321378Y-117975130D01*
X134343539Y-117990647D01*
X134396543Y-118043651D01*
X134454599Y-118096576D01*
X134470424Y-118117532D01*
X134485352Y-118132460D01*
X134531922Y-118198969D01*
X134582600Y-118266077D01*
X134591677Y-118284307D01*
X134600381Y-118296737D01*
X134637430Y-118376191D01*
X134677276Y-118456211D01*
X134681239Y-118470139D01*
X134685137Y-118478499D01*
X134709709Y-118570204D01*
X134735402Y-118660504D01*
X134736192Y-118669039D01*
X134737044Y-118672216D01*
X134746447Y-118779707D01*
X134755000Y-118872000D01*
X134746447Y-118964299D01*
X134737044Y-119071783D01*
X134736193Y-119074958D01*
X134735402Y-119083496D01*
X134709705Y-119173811D01*
X134685137Y-119265500D01*
X134681239Y-119273857D01*
X134677276Y-119287789D01*
X134637427Y-119367815D01*
X134600381Y-119447263D01*
X134591678Y-119459691D01*
X134582600Y-119477923D01*
X134531917Y-119545037D01*
X134485352Y-119611539D01*
X134470427Y-119626463D01*
X134454599Y-119647424D01*
X134396532Y-119700358D01*
X134343539Y-119753352D01*
X134321383Y-119768865D01*
X134297632Y-119790518D01*
X134235675Y-119828879D01*
X134179263Y-119868381D01*
X134149357Y-119882325D01*
X134117045Y-119902333D01*
X134054436Y-119926587D01*
X133997500Y-119953137D01*
X133959890Y-119963214D01*
X133918986Y-119979061D01*
X133858679Y-119990334D01*
X133803783Y-120005044D01*
X133759060Y-120008956D01*
X133710201Y-120018090D01*
X133654660Y-120018090D01*
X133604000Y-120022522D01*
X133553340Y-120018090D01*
X133497799Y-120018090D01*
X133448940Y-120008956D01*
X133404216Y-120005044D01*
X133349317Y-119990333D01*
X133289014Y-119979061D01*
X133248111Y-119963215D01*
X133210499Y-119953137D01*
X133153557Y-119926585D01*
X133090955Y-119902333D01*
X133058645Y-119882327D01*
X133028736Y-119868381D01*
X132972315Y-119828874D01*
X132910368Y-119790518D01*
X132886619Y-119768868D01*
X132864460Y-119753352D01*
X132811456Y-119700348D01*
X132753401Y-119647424D01*
X132737575Y-119626467D01*
X132722647Y-119611539D01*
X132676069Y-119545019D01*
X132625400Y-119477923D01*
X132616324Y-119459696D01*
X132607618Y-119447263D01*
X132570556Y-119367783D01*
X132530724Y-119287789D01*
X132526761Y-119273863D01*
X132522862Y-119265500D01*
X132498277Y-119173751D01*
X132472598Y-119083496D01*
X132471807Y-119074964D01*
X132470955Y-119071783D01*
X132461534Y-118964106D01*
X132453000Y-118872000D01*
X132461534Y-118779900D01*
X132470955Y-118672216D01*
X132471807Y-118669034D01*
X132472598Y-118660504D01*
X132498273Y-118570264D01*
X132522862Y-118478499D01*
X132526762Y-118470134D01*
X132530724Y-118456211D01*
X132570553Y-118376222D01*
X132607618Y-118296737D01*
X132616324Y-118284302D01*
X132625400Y-118266077D01*
X132676063Y-118198987D01*
X132722647Y-118132460D01*
X132737578Y-118117528D01*
X132753401Y-118096576D01*
X132811444Y-118043662D01*
X132864460Y-117990647D01*
X132886624Y-117975127D01*
X132910368Y-117953482D01*
X132972308Y-117915129D01*
X133028737Y-117875618D01*
X133058649Y-117861669D01*
X133090955Y-117841667D01*
X133153546Y-117817419D01*
X133210499Y-117790862D01*
X133248119Y-117780781D01*
X133289014Y-117764939D01*
X133349304Y-117753668D01*
X133404216Y-117738955D01*
X133448950Y-117735041D01*
X133497799Y-117725910D01*
X133553328Y-117725910D01*
X133604000Y-117721477D01*
X133654672Y-117725910D01*
G37*
G36*
X149251517Y-117847882D02*
G01*
X149268062Y-117858938D01*
X149279118Y-117875483D01*
X149283000Y-117895000D01*
X149283000Y-119595000D01*
X149279118Y-119614517D01*
X149268062Y-119631062D01*
X149251517Y-119642118D01*
X149232000Y-119646000D01*
X147532000Y-119646000D01*
X147512483Y-119642118D01*
X147495938Y-119631062D01*
X147484882Y-119614517D01*
X147481000Y-119595000D01*
X147481000Y-117895000D01*
X147484882Y-117875483D01*
X147495938Y-117858938D01*
X147512483Y-117847882D01*
X147532000Y-117844000D01*
X149232000Y-117844000D01*
X149251517Y-117847882D01*
G37*
G36*
X150965983Y-117848936D02*
G01*
X151016180Y-117848936D01*
X151059524Y-117858149D01*
X151097659Y-117861905D01*
X151145566Y-117876437D01*
X151200424Y-117888098D01*
X151235530Y-117903728D01*
X151266566Y-117913143D01*
X151315884Y-117939504D01*
X151372500Y-117964711D01*
X151398822Y-117983835D01*
X151422232Y-117996348D01*
X151469988Y-118035540D01*
X151524887Y-118075427D01*
X151542711Y-118095223D01*
X151558675Y-118108324D01*
X151601572Y-118160594D01*
X151650924Y-118215405D01*
X151661292Y-118233363D01*
X151670651Y-118244767D01*
X151705273Y-118309542D01*
X151745104Y-118378530D01*
X151749685Y-118392630D01*
X151753856Y-118400433D01*
X151776852Y-118476242D01*
X151803311Y-118557672D01*
X151804242Y-118566532D01*
X151805094Y-118569340D01*
X151813384Y-118653513D01*
X151823000Y-118745000D01*
X151813383Y-118836494D01*
X151805094Y-118920659D01*
X151804242Y-118923466D01*
X151803311Y-118932328D01*
X151776848Y-119013771D01*
X151753856Y-119089566D01*
X151749686Y-119097366D01*
X151745104Y-119111470D01*
X151705266Y-119180470D01*
X151670651Y-119245232D01*
X151661294Y-119256633D01*
X151650924Y-119274595D01*
X151601563Y-119329415D01*
X151558675Y-119381675D01*
X151542714Y-119394773D01*
X151524887Y-119414573D01*
X151469977Y-119454467D01*
X151422232Y-119493651D01*
X151398827Y-119506161D01*
X151372500Y-119525289D01*
X151315873Y-119550500D01*
X151266566Y-119576856D01*
X151235537Y-119586268D01*
X151200424Y-119601902D01*
X151145555Y-119613564D01*
X151097659Y-119628094D01*
X151059532Y-119631849D01*
X151016180Y-119641064D01*
X150965973Y-119641064D01*
X150922000Y-119645395D01*
X150878027Y-119641064D01*
X150827820Y-119641064D01*
X150784467Y-119631849D01*
X150746340Y-119628094D01*
X150698441Y-119613563D01*
X150643576Y-119601902D01*
X150608464Y-119586269D01*
X150577433Y-119576856D01*
X150528120Y-119550498D01*
X150471500Y-119525289D01*
X150445175Y-119506163D01*
X150421767Y-119493651D01*
X150374013Y-119454460D01*
X150319113Y-119414573D01*
X150301287Y-119394776D01*
X150285324Y-119381675D01*
X150242425Y-119329402D01*
X150193076Y-119274595D01*
X150182708Y-119256637D01*
X150173348Y-119245232D01*
X150138719Y-119180447D01*
X150098896Y-119111470D01*
X150094315Y-119097371D01*
X150090143Y-119089566D01*
X150067136Y-119013725D01*
X150040689Y-118932328D01*
X150039758Y-118923471D01*
X150038905Y-118920659D01*
X150030600Y-118836342D01*
X150021000Y-118745000D01*
X150030599Y-118653664D01*
X150038905Y-118569340D01*
X150039758Y-118566527D01*
X150040689Y-118557672D01*
X150067132Y-118476288D01*
X150090143Y-118400433D01*
X150094315Y-118392626D01*
X150098896Y-118378530D01*
X150138712Y-118309565D01*
X150173348Y-118244767D01*
X150182710Y-118233359D01*
X150193076Y-118215405D01*
X150242416Y-118160607D01*
X150285324Y-118108324D01*
X150301291Y-118095219D01*
X150319113Y-118075427D01*
X150374002Y-118035546D01*
X150421767Y-117996348D01*
X150445180Y-117983833D01*
X150471500Y-117964711D01*
X150528109Y-117939506D01*
X150577433Y-117913143D01*
X150608471Y-117903727D01*
X150643576Y-117888098D01*
X150698430Y-117876438D01*
X150746340Y-117861905D01*
X150784476Y-117858148D01*
X150827820Y-117848936D01*
X150878016Y-117848936D01*
X150922000Y-117844604D01*
X150965983Y-117848936D01*
G37*
G36*
X160501054Y-116772500D02*
G01*
X160562090Y-116772500D01*
X160616578Y-116781592D01*
X160665846Y-116785470D01*
X160725175Y-116799713D01*
X160791104Y-116810715D01*
X160837861Y-116826766D01*
X160880269Y-116836948D01*
X160942000Y-116862517D01*
X161010704Y-116886104D01*
X161049077Y-116906870D01*
X161084007Y-116921339D01*
X161145920Y-116959279D01*
X161214901Y-116996610D01*
X161244749Y-117019842D01*
X161272034Y-117036562D01*
X161331657Y-117087484D01*
X161398124Y-117139218D01*
X161419805Y-117162770D01*
X161439720Y-117179779D01*
X161494411Y-117243814D01*
X161555375Y-117310039D01*
X161569704Y-117331971D01*
X161582937Y-117347465D01*
X161629955Y-117424191D01*
X161682366Y-117504412D01*
X161690556Y-117523083D01*
X161698160Y-117535492D01*
X161734804Y-117623959D01*
X161775632Y-117717037D01*
X161779208Y-117731160D01*
X161782551Y-117739230D01*
X161806252Y-117837953D01*
X161832629Y-117942113D01*
X161833351Y-117950830D01*
X161834029Y-117953653D01*
X161842432Y-118060422D01*
X161851802Y-118173500D01*
X161842431Y-118286587D01*
X161834029Y-118393346D01*
X161833351Y-118396168D01*
X161832629Y-118404887D01*
X161806247Y-118509064D01*
X161782551Y-118607769D01*
X161779209Y-118615836D01*
X161775632Y-118629963D01*
X161734797Y-118723057D01*
X161698160Y-118811507D01*
X161690557Y-118823912D01*
X161682366Y-118842588D01*
X161629945Y-118922823D01*
X161582937Y-118999534D01*
X161569706Y-119015024D01*
X161555375Y-119036961D01*
X161494399Y-119103198D01*
X161439720Y-119167220D01*
X161419809Y-119184225D01*
X161398124Y-119207782D01*
X161331643Y-119259525D01*
X161272034Y-119310437D01*
X161244755Y-119327153D01*
X161214901Y-119350390D01*
X161145906Y-119387728D01*
X161084007Y-119425660D01*
X161049085Y-119440124D01*
X161010704Y-119460896D01*
X160941986Y-119484486D01*
X160880269Y-119510051D01*
X160837871Y-119520229D01*
X160791104Y-119536285D01*
X160725162Y-119547288D01*
X160665846Y-119561529D01*
X160616590Y-119565405D01*
X160562090Y-119574500D01*
X160501041Y-119574500D01*
X160446000Y-119578832D01*
X160390959Y-119574500D01*
X160329910Y-119574500D01*
X160275410Y-119565405D01*
X160226153Y-119561529D01*
X160166834Y-119547287D01*
X160100896Y-119536285D01*
X160054130Y-119520230D01*
X160011730Y-119510051D01*
X159950008Y-119484484D01*
X159881296Y-119460896D01*
X159842917Y-119440126D01*
X159807992Y-119425660D01*
X159746085Y-119387723D01*
X159677099Y-119350390D01*
X159647247Y-119327155D01*
X159619965Y-119310437D01*
X159560344Y-119259516D01*
X159493876Y-119207782D01*
X159472194Y-119184229D01*
X159452279Y-119167220D01*
X159397586Y-119103183D01*
X159336625Y-119036961D01*
X159322296Y-119015029D01*
X159309062Y-118999534D01*
X159262038Y-118922798D01*
X159209634Y-118842588D01*
X159201444Y-118823918D01*
X159193839Y-118811507D01*
X159157184Y-118723016D01*
X159116368Y-118629963D01*
X159112792Y-118615842D01*
X159109448Y-118607769D01*
X159085733Y-118508988D01*
X159059371Y-118404887D01*
X159058649Y-118396174D01*
X159057970Y-118393346D01*
X159049548Y-118286346D01*
X159040198Y-118173500D01*
X159049547Y-118060663D01*
X159057970Y-117953653D01*
X159058649Y-117950823D01*
X159059371Y-117942113D01*
X159085728Y-117838029D01*
X159109448Y-117739230D01*
X159112792Y-117731154D01*
X159116368Y-117717037D01*
X159157177Y-117624000D01*
X159193839Y-117535492D01*
X159201446Y-117523077D01*
X159209634Y-117504412D01*
X159262028Y-117424216D01*
X159309062Y-117347465D01*
X159322299Y-117331966D01*
X159336625Y-117310039D01*
X159397575Y-117243829D01*
X159452279Y-117179779D01*
X159472198Y-117162766D01*
X159493876Y-117139218D01*
X159560331Y-117087493D01*
X159619965Y-117036562D01*
X159647253Y-117019839D01*
X159677099Y-116996610D01*
X159746071Y-116959284D01*
X159807992Y-116921339D01*
X159842925Y-116906869D01*
X159881296Y-116886104D01*
X159949993Y-116862519D01*
X160011730Y-116836948D01*
X160054140Y-116826766D01*
X160100896Y-116810715D01*
X160166820Y-116799714D01*
X160226153Y-116785470D01*
X160275421Y-116781592D01*
X160329910Y-116772500D01*
X160390946Y-116772500D01*
X160446000Y-116768167D01*
X160501054Y-116772500D01*
G37*
G36*
X157656107Y-116775420D02*
G01*
X157671757Y-116782330D01*
X157680172Y-116783663D01*
X157715217Y-116801519D01*
X157759052Y-116820874D01*
X157838626Y-116900448D01*
X157857983Y-116944290D01*
X157875836Y-116979327D01*
X157877168Y-116987739D01*
X157884080Y-117003393D01*
X157886999Y-117028562D01*
X157886999Y-117049805D01*
X157887000Y-117049812D01*
X157887000Y-118215405D01*
X157887000Y-119318439D01*
X157884080Y-119343607D01*
X157877168Y-119359260D01*
X157875836Y-119367672D01*
X157857987Y-119402702D01*
X157838626Y-119446552D01*
X157759052Y-119526126D01*
X157715202Y-119545487D01*
X157680172Y-119563336D01*
X157671760Y-119564668D01*
X157656107Y-119571580D01*
X157630938Y-119574499D01*
X157609694Y-119574499D01*
X157609688Y-119574500D01*
X155362312Y-119574500D01*
X155362311Y-119574499D01*
X155341061Y-119574500D01*
X155315893Y-119571580D01*
X155300239Y-119564668D01*
X155291827Y-119563336D01*
X155256790Y-119545483D01*
X155212948Y-119526126D01*
X155133374Y-119446552D01*
X155114019Y-119402717D01*
X155096163Y-119367672D01*
X155094830Y-119359257D01*
X155087920Y-119343607D01*
X155085001Y-119318438D01*
X155085000Y-119297193D01*
X155085000Y-119297187D01*
X155085000Y-117049812D01*
X155085000Y-117049811D01*
X155085000Y-117028561D01*
X155087920Y-117003393D01*
X155094830Y-116987742D01*
X155096163Y-116979327D01*
X155114022Y-116944275D01*
X155133374Y-116900448D01*
X155212948Y-116820874D01*
X155256775Y-116801522D01*
X155291827Y-116783663D01*
X155300242Y-116782330D01*
X155315893Y-116775420D01*
X155341062Y-116772501D01*
X155362305Y-116772500D01*
X155362312Y-116772500D01*
X157609688Y-116772500D01*
X157630939Y-116772500D01*
X157656107Y-116775420D01*
G37*
G36*
X133645199Y-111421662D02*
G01*
X133692954Y-111421662D01*
X133734194Y-111430427D01*
X133769901Y-111433945D01*
X133814759Y-111447552D01*
X133866973Y-111458651D01*
X133900384Y-111473526D01*
X133929435Y-111482339D01*
X133975602Y-111507015D01*
X134029500Y-111531012D01*
X134054554Y-111549215D01*
X134076453Y-111560920D01*
X134121128Y-111597584D01*
X134173430Y-111635584D01*
X134190411Y-111654443D01*
X134205320Y-111666679D01*
X134245387Y-111715501D01*
X134292473Y-111767795D01*
X134302364Y-111784927D01*
X134311079Y-111795546D01*
X134343306Y-111855840D01*
X134381427Y-111921867D01*
X134385813Y-111935368D01*
X134389660Y-111942564D01*
X134410861Y-112012455D01*
X134436404Y-112091067D01*
X134437303Y-112099623D01*
X134438054Y-112102098D01*
X134445371Y-112176389D01*
X134455000Y-112268000D01*
X134445370Y-112359619D01*
X134438054Y-112433901D01*
X134437303Y-112436375D01*
X134436404Y-112444933D01*
X134410856Y-112523558D01*
X134389660Y-112593435D01*
X134385814Y-112600629D01*
X134381427Y-112614133D01*
X134343299Y-112680172D01*
X134311079Y-112740453D01*
X134302366Y-112751069D01*
X134292473Y-112768205D01*
X134245378Y-112820509D01*
X134205320Y-112869320D01*
X134190414Y-112881552D01*
X134173430Y-112900416D01*
X134121118Y-112938423D01*
X134076453Y-112975079D01*
X134054559Y-112986780D01*
X134029500Y-113004988D01*
X133975591Y-113028989D01*
X133929435Y-113053660D01*
X133900391Y-113062470D01*
X133866973Y-113077349D01*
X133814748Y-113088449D01*
X133769901Y-113102054D01*
X133734203Y-113105570D01*
X133692954Y-113114338D01*
X133645188Y-113114338D01*
X133604000Y-113118395D01*
X133562811Y-113114338D01*
X133515046Y-113114338D01*
X133473797Y-113105570D01*
X133438098Y-113102054D01*
X133393248Y-113088448D01*
X133341027Y-113077349D01*
X133307610Y-113062471D01*
X133278564Y-113053660D01*
X133232402Y-113028986D01*
X133178500Y-113004988D01*
X133153443Y-112986783D01*
X133131546Y-112975079D01*
X133086873Y-112938416D01*
X133034570Y-112900416D01*
X133017588Y-112881555D01*
X133002679Y-112869320D01*
X132962610Y-112820496D01*
X132915527Y-112768205D01*
X132905636Y-112751073D01*
X132896920Y-112740453D01*
X132864687Y-112680148D01*
X132826573Y-112614133D01*
X132822186Y-112600634D01*
X132818339Y-112593435D01*
X132797128Y-112523512D01*
X132771596Y-112444933D01*
X132770697Y-112436380D01*
X132769945Y-112433901D01*
X132762613Y-112359467D01*
X132753000Y-112268000D01*
X132762612Y-112176540D01*
X132769945Y-112102098D01*
X132770697Y-112099618D01*
X132771596Y-112091067D01*
X132797123Y-112012502D01*
X132818339Y-111942564D01*
X132822187Y-111935363D01*
X132826573Y-111921867D01*
X132864680Y-111855863D01*
X132896920Y-111795546D01*
X132905638Y-111784923D01*
X132915527Y-111767795D01*
X132962601Y-111715513D01*
X133002679Y-111666679D01*
X133017591Y-111654440D01*
X133034570Y-111635584D01*
X133086862Y-111597591D01*
X133131546Y-111560920D01*
X133153448Y-111549213D01*
X133178500Y-111531012D01*
X133232391Y-111507018D01*
X133278564Y-111482339D01*
X133307617Y-111473525D01*
X133341027Y-111458651D01*
X133393237Y-111447553D01*
X133438098Y-111433945D01*
X133473806Y-111430427D01*
X133515046Y-111421662D01*
X133562801Y-111421662D01*
X133604000Y-111417604D01*
X133645199Y-111421662D01*
G37*
G36*
X141265199Y-111421662D02*
G01*
X141312954Y-111421662D01*
X141354194Y-111430427D01*
X141389901Y-111433945D01*
X141434759Y-111447552D01*
X141486973Y-111458651D01*
X141520384Y-111473526D01*
X141549435Y-111482339D01*
X141595602Y-111507015D01*
X141649500Y-111531012D01*
X141674554Y-111549215D01*
X141696453Y-111560920D01*
X141741128Y-111597584D01*
X141793430Y-111635584D01*
X141810411Y-111654443D01*
X141825320Y-111666679D01*
X141865387Y-111715501D01*
X141912473Y-111767795D01*
X141922364Y-111784927D01*
X141931079Y-111795546D01*
X141963306Y-111855840D01*
X142001427Y-111921867D01*
X142005813Y-111935368D01*
X142009660Y-111942564D01*
X142030861Y-112012455D01*
X142056404Y-112091067D01*
X142057303Y-112099623D01*
X142058054Y-112102098D01*
X142065371Y-112176389D01*
X142075000Y-112268000D01*
X142065370Y-112359619D01*
X142058054Y-112433901D01*
X142057303Y-112436375D01*
X142056404Y-112444933D01*
X142030856Y-112523558D01*
X142009660Y-112593435D01*
X142005814Y-112600629D01*
X142001427Y-112614133D01*
X141963299Y-112680172D01*
X141931079Y-112740453D01*
X141922366Y-112751069D01*
X141912473Y-112768205D01*
X141865378Y-112820509D01*
X141825320Y-112869320D01*
X141810414Y-112881552D01*
X141793430Y-112900416D01*
X141741118Y-112938423D01*
X141696453Y-112975079D01*
X141674559Y-112986780D01*
X141649500Y-113004988D01*
X141595591Y-113028989D01*
X141549435Y-113053660D01*
X141520391Y-113062470D01*
X141486973Y-113077349D01*
X141434748Y-113088449D01*
X141389901Y-113102054D01*
X141354203Y-113105570D01*
X141312954Y-113114338D01*
X141265188Y-113114338D01*
X141224000Y-113118395D01*
X141182811Y-113114338D01*
X141135046Y-113114338D01*
X141093797Y-113105570D01*
X141058098Y-113102054D01*
X141013248Y-113088448D01*
X140961027Y-113077349D01*
X140927610Y-113062471D01*
X140898564Y-113053660D01*
X140852402Y-113028986D01*
X140798500Y-113004988D01*
X140773443Y-112986783D01*
X140751546Y-112975079D01*
X140706873Y-112938416D01*
X140654570Y-112900416D01*
X140637588Y-112881555D01*
X140622679Y-112869320D01*
X140582610Y-112820496D01*
X140535527Y-112768205D01*
X140525636Y-112751073D01*
X140516920Y-112740453D01*
X140484687Y-112680148D01*
X140446573Y-112614133D01*
X140442186Y-112600634D01*
X140438339Y-112593435D01*
X140417128Y-112523512D01*
X140391596Y-112444933D01*
X140390697Y-112436380D01*
X140389945Y-112433901D01*
X140382613Y-112359467D01*
X140373000Y-112268000D01*
X140382612Y-112176540D01*
X140389945Y-112102098D01*
X140390697Y-112099618D01*
X140391596Y-112091067D01*
X140417123Y-112012502D01*
X140438339Y-111942564D01*
X140442187Y-111935363D01*
X140446573Y-111921867D01*
X140484680Y-111855863D01*
X140516920Y-111795546D01*
X140525638Y-111784923D01*
X140535527Y-111767795D01*
X140582601Y-111715513D01*
X140622679Y-111666679D01*
X140637591Y-111654440D01*
X140654570Y-111635584D01*
X140706862Y-111597591D01*
X140751546Y-111560920D01*
X140773448Y-111549213D01*
X140798500Y-111531012D01*
X140852391Y-111507018D01*
X140898564Y-111482339D01*
X140927617Y-111473525D01*
X140961027Y-111458651D01*
X141013237Y-111447553D01*
X141058098Y-111433945D01*
X141093806Y-111430427D01*
X141135046Y-111421662D01*
X141182801Y-111421662D01*
X141224000Y-111417604D01*
X141265199Y-111421662D01*
G37*
G36*
X148778199Y-110024662D02*
G01*
X148825954Y-110024662D01*
X148867194Y-110033427D01*
X148902901Y-110036945D01*
X148947759Y-110050552D01*
X148999973Y-110061651D01*
X149033384Y-110076526D01*
X149062435Y-110085339D01*
X149108602Y-110110015D01*
X149162500Y-110134012D01*
X149187554Y-110152215D01*
X149209453Y-110163920D01*
X149254128Y-110200584D01*
X149306430Y-110238584D01*
X149323411Y-110257443D01*
X149338320Y-110269679D01*
X149378387Y-110318501D01*
X149425473Y-110370795D01*
X149435364Y-110387927D01*
X149444079Y-110398546D01*
X149476306Y-110458840D01*
X149514427Y-110524867D01*
X149518813Y-110538368D01*
X149522660Y-110545564D01*
X149543861Y-110615455D01*
X149569404Y-110694067D01*
X149570303Y-110702623D01*
X149571054Y-110705098D01*
X149578371Y-110779389D01*
X149588000Y-110871000D01*
X149578370Y-110962619D01*
X149571054Y-111036901D01*
X149570303Y-111039375D01*
X149569404Y-111047933D01*
X149543856Y-111126558D01*
X149522660Y-111196435D01*
X149518814Y-111203629D01*
X149514427Y-111217133D01*
X149476299Y-111283172D01*
X149444079Y-111343453D01*
X149435366Y-111354069D01*
X149425473Y-111371205D01*
X149378378Y-111423509D01*
X149338320Y-111472320D01*
X149323414Y-111484552D01*
X149306430Y-111503416D01*
X149254118Y-111541423D01*
X149209453Y-111578079D01*
X149187559Y-111589780D01*
X149162500Y-111607988D01*
X149108591Y-111631989D01*
X149062435Y-111656660D01*
X149033391Y-111665470D01*
X148999973Y-111680349D01*
X148947748Y-111691449D01*
X148902901Y-111705054D01*
X148867203Y-111708570D01*
X148825954Y-111717338D01*
X148778188Y-111717338D01*
X148737000Y-111721395D01*
X148695811Y-111717338D01*
X148648046Y-111717338D01*
X148606797Y-111708570D01*
X148571098Y-111705054D01*
X148526248Y-111691448D01*
X148474027Y-111680349D01*
X148440610Y-111665471D01*
X148411564Y-111656660D01*
X148365402Y-111631986D01*
X148311500Y-111607988D01*
X148286443Y-111589783D01*
X148264546Y-111578079D01*
X148219873Y-111541416D01*
X148167570Y-111503416D01*
X148150588Y-111484555D01*
X148135679Y-111472320D01*
X148095610Y-111423496D01*
X148048527Y-111371205D01*
X148038636Y-111354073D01*
X148029920Y-111343453D01*
X147997687Y-111283148D01*
X147959573Y-111217133D01*
X147955186Y-111203634D01*
X147951339Y-111196435D01*
X147930128Y-111126512D01*
X147904596Y-111047933D01*
X147903697Y-111039380D01*
X147902945Y-111036901D01*
X147895613Y-110962467D01*
X147886000Y-110871000D01*
X147895612Y-110779540D01*
X147902945Y-110705098D01*
X147903697Y-110702618D01*
X147904596Y-110694067D01*
X147930123Y-110615502D01*
X147951339Y-110545564D01*
X147955187Y-110538363D01*
X147959573Y-110524867D01*
X147997680Y-110458863D01*
X148029920Y-110398546D01*
X148038638Y-110387923D01*
X148048527Y-110370795D01*
X148095601Y-110318513D01*
X148135679Y-110269679D01*
X148150591Y-110257440D01*
X148167570Y-110238584D01*
X148219862Y-110200591D01*
X148264546Y-110163920D01*
X148286448Y-110152213D01*
X148311500Y-110134012D01*
X148365391Y-110110018D01*
X148411564Y-110085339D01*
X148440617Y-110076525D01*
X148474027Y-110061651D01*
X148526237Y-110050553D01*
X148571098Y-110036945D01*
X148606806Y-110033427D01*
X148648046Y-110024662D01*
X148695801Y-110024662D01*
X148737000Y-110020604D01*
X148778199Y-110024662D01*
G37*
G36*
X151278199Y-110024662D02*
G01*
X151325954Y-110024662D01*
X151367194Y-110033427D01*
X151402901Y-110036945D01*
X151447759Y-110050552D01*
X151499973Y-110061651D01*
X151533384Y-110076526D01*
X151562435Y-110085339D01*
X151608602Y-110110015D01*
X151662500Y-110134012D01*
X151687554Y-110152215D01*
X151709453Y-110163920D01*
X151754128Y-110200584D01*
X151806430Y-110238584D01*
X151823411Y-110257443D01*
X151838320Y-110269679D01*
X151878387Y-110318501D01*
X151925473Y-110370795D01*
X151935364Y-110387927D01*
X151944079Y-110398546D01*
X151976306Y-110458840D01*
X152014427Y-110524867D01*
X152018813Y-110538368D01*
X152022660Y-110545564D01*
X152043861Y-110615455D01*
X152069404Y-110694067D01*
X152070303Y-110702623D01*
X152071054Y-110705098D01*
X152078371Y-110779389D01*
X152088000Y-110871000D01*
X152078370Y-110962619D01*
X152071054Y-111036901D01*
X152070303Y-111039375D01*
X152069404Y-111047933D01*
X152043856Y-111126558D01*
X152022660Y-111196435D01*
X152018814Y-111203629D01*
X152014427Y-111217133D01*
X151976299Y-111283172D01*
X151944079Y-111343453D01*
X151935366Y-111354069D01*
X151925473Y-111371205D01*
X151878378Y-111423509D01*
X151838320Y-111472320D01*
X151823414Y-111484552D01*
X151806430Y-111503416D01*
X151754118Y-111541423D01*
X151709453Y-111578079D01*
X151687559Y-111589780D01*
X151662500Y-111607988D01*
X151608591Y-111631989D01*
X151562435Y-111656660D01*
X151533391Y-111665470D01*
X151499973Y-111680349D01*
X151447748Y-111691449D01*
X151402901Y-111705054D01*
X151367203Y-111708570D01*
X151325954Y-111717338D01*
X151278188Y-111717338D01*
X151237000Y-111721395D01*
X151195811Y-111717338D01*
X151148046Y-111717338D01*
X151106797Y-111708570D01*
X151071098Y-111705054D01*
X151026248Y-111691448D01*
X150974027Y-111680349D01*
X150940610Y-111665471D01*
X150911564Y-111656660D01*
X150865402Y-111631986D01*
X150811500Y-111607988D01*
X150786443Y-111589783D01*
X150764546Y-111578079D01*
X150719873Y-111541416D01*
X150667570Y-111503416D01*
X150650588Y-111484555D01*
X150635679Y-111472320D01*
X150595610Y-111423496D01*
X150548527Y-111371205D01*
X150538636Y-111354073D01*
X150529920Y-111343453D01*
X150497687Y-111283148D01*
X150459573Y-111217133D01*
X150455186Y-111203634D01*
X150451339Y-111196435D01*
X150430128Y-111126512D01*
X150404596Y-111047933D01*
X150403697Y-111039380D01*
X150402945Y-111036901D01*
X150395613Y-110962467D01*
X150386000Y-110871000D01*
X150395612Y-110779540D01*
X150402945Y-110705098D01*
X150403697Y-110702618D01*
X150404596Y-110694067D01*
X150430123Y-110615502D01*
X150451339Y-110545564D01*
X150455187Y-110538363D01*
X150459573Y-110524867D01*
X150497680Y-110458863D01*
X150529920Y-110398546D01*
X150538638Y-110387923D01*
X150548527Y-110370795D01*
X150595601Y-110318513D01*
X150635679Y-110269679D01*
X150650591Y-110257440D01*
X150667570Y-110238584D01*
X150719862Y-110200591D01*
X150764546Y-110163920D01*
X150786448Y-110152213D01*
X150811500Y-110134012D01*
X150865391Y-110110018D01*
X150911564Y-110085339D01*
X150940617Y-110076525D01*
X150974027Y-110061651D01*
X151026237Y-110050553D01*
X151071098Y-110036945D01*
X151106806Y-110033427D01*
X151148046Y-110024662D01*
X151195801Y-110024662D01*
X151237000Y-110020604D01*
X151278199Y-110024662D01*
G37*
G36*
X161079983Y-108196936D02*
G01*
X161130180Y-108196936D01*
X161173524Y-108206149D01*
X161211659Y-108209905D01*
X161259566Y-108224437D01*
X161314424Y-108236098D01*
X161349530Y-108251728D01*
X161380566Y-108261143D01*
X161429884Y-108287504D01*
X161486500Y-108312711D01*
X161512822Y-108331835D01*
X161536232Y-108344348D01*
X161583988Y-108383540D01*
X161638887Y-108423427D01*
X161656711Y-108443223D01*
X161672675Y-108456324D01*
X161715572Y-108508594D01*
X161764924Y-108563405D01*
X161775292Y-108581363D01*
X161784651Y-108592767D01*
X161819273Y-108657542D01*
X161859104Y-108726530D01*
X161863685Y-108740630D01*
X161867856Y-108748433D01*
X161890852Y-108824242D01*
X161917311Y-108905672D01*
X161918242Y-108914532D01*
X161919094Y-108917340D01*
X161927384Y-109001513D01*
X161937000Y-109093000D01*
X161927383Y-109184494D01*
X161919094Y-109268659D01*
X161918242Y-109271466D01*
X161917311Y-109280328D01*
X161890848Y-109361771D01*
X161867856Y-109437566D01*
X161863686Y-109445366D01*
X161859104Y-109459470D01*
X161819266Y-109528470D01*
X161784651Y-109593232D01*
X161775294Y-109604633D01*
X161764924Y-109622595D01*
X161715563Y-109677415D01*
X161672675Y-109729675D01*
X161656714Y-109742773D01*
X161638887Y-109762573D01*
X161583977Y-109802467D01*
X161536232Y-109841651D01*
X161512827Y-109854161D01*
X161486500Y-109873289D01*
X161429873Y-109898500D01*
X161380566Y-109924856D01*
X161349537Y-109934268D01*
X161314424Y-109949902D01*
X161259555Y-109961564D01*
X161211659Y-109976094D01*
X161173532Y-109979849D01*
X161130180Y-109989064D01*
X161079973Y-109989064D01*
X161036000Y-109993395D01*
X160992027Y-109989064D01*
X160941820Y-109989064D01*
X160898467Y-109979849D01*
X160860340Y-109976094D01*
X160812441Y-109961563D01*
X160757576Y-109949902D01*
X160722464Y-109934269D01*
X160691433Y-109924856D01*
X160642120Y-109898498D01*
X160585500Y-109873289D01*
X160559175Y-109854163D01*
X160535767Y-109841651D01*
X160488013Y-109802460D01*
X160433113Y-109762573D01*
X160415287Y-109742776D01*
X160399324Y-109729675D01*
X160356425Y-109677402D01*
X160307076Y-109622595D01*
X160296708Y-109604637D01*
X160287348Y-109593232D01*
X160252719Y-109528447D01*
X160212896Y-109459470D01*
X160208315Y-109445371D01*
X160204143Y-109437566D01*
X160181136Y-109361725D01*
X160154689Y-109280328D01*
X160153758Y-109271471D01*
X160152905Y-109268659D01*
X160144600Y-109184342D01*
X160135000Y-109093000D01*
X160144599Y-109001664D01*
X160152905Y-108917340D01*
X160153758Y-108914527D01*
X160154689Y-108905672D01*
X160181132Y-108824288D01*
X160204143Y-108748433D01*
X160208315Y-108740626D01*
X160212896Y-108726530D01*
X160252712Y-108657565D01*
X160287348Y-108592767D01*
X160296710Y-108581359D01*
X160307076Y-108563405D01*
X160356416Y-108508607D01*
X160399324Y-108456324D01*
X160415291Y-108443219D01*
X160433113Y-108423427D01*
X160488002Y-108383546D01*
X160535767Y-108344348D01*
X160559180Y-108331833D01*
X160585500Y-108312711D01*
X160642109Y-108287506D01*
X160691433Y-108261143D01*
X160722471Y-108251727D01*
X160757576Y-108236098D01*
X160812430Y-108224438D01*
X160860340Y-108209905D01*
X160898476Y-108206148D01*
X160941820Y-108196936D01*
X160992016Y-108196936D01*
X161036000Y-108192604D01*
X161079983Y-108196936D01*
G37*
G36*
X161079983Y-105656936D02*
G01*
X161130180Y-105656936D01*
X161173524Y-105666149D01*
X161211659Y-105669905D01*
X161259566Y-105684437D01*
X161314424Y-105696098D01*
X161349530Y-105711728D01*
X161380566Y-105721143D01*
X161429884Y-105747504D01*
X161486500Y-105772711D01*
X161512822Y-105791835D01*
X161536232Y-105804348D01*
X161583988Y-105843540D01*
X161638887Y-105883427D01*
X161656711Y-105903223D01*
X161672675Y-105916324D01*
X161715572Y-105968594D01*
X161764924Y-106023405D01*
X161775292Y-106041363D01*
X161784651Y-106052767D01*
X161819273Y-106117542D01*
X161859104Y-106186530D01*
X161863685Y-106200630D01*
X161867856Y-106208433D01*
X161890852Y-106284242D01*
X161917311Y-106365672D01*
X161918242Y-106374532D01*
X161919094Y-106377340D01*
X161927384Y-106461513D01*
X161937000Y-106553000D01*
X161927383Y-106644494D01*
X161919094Y-106728659D01*
X161918242Y-106731466D01*
X161917311Y-106740328D01*
X161890848Y-106821771D01*
X161867856Y-106897566D01*
X161863686Y-106905366D01*
X161859104Y-106919470D01*
X161819266Y-106988470D01*
X161784651Y-107053232D01*
X161775294Y-107064633D01*
X161764924Y-107082595D01*
X161715563Y-107137415D01*
X161672675Y-107189675D01*
X161656714Y-107202773D01*
X161638887Y-107222573D01*
X161583977Y-107262467D01*
X161536232Y-107301651D01*
X161512827Y-107314161D01*
X161486500Y-107333289D01*
X161429873Y-107358500D01*
X161380566Y-107384856D01*
X161349537Y-107394268D01*
X161314424Y-107409902D01*
X161259555Y-107421564D01*
X161211659Y-107436094D01*
X161173532Y-107439849D01*
X161130180Y-107449064D01*
X161079973Y-107449064D01*
X161036000Y-107453395D01*
X160992027Y-107449064D01*
X160941820Y-107449064D01*
X160898467Y-107439849D01*
X160860340Y-107436094D01*
X160812441Y-107421563D01*
X160757576Y-107409902D01*
X160722464Y-107394269D01*
X160691433Y-107384856D01*
X160642120Y-107358498D01*
X160585500Y-107333289D01*
X160559175Y-107314163D01*
X160535767Y-107301651D01*
X160488013Y-107262460D01*
X160433113Y-107222573D01*
X160415287Y-107202776D01*
X160399324Y-107189675D01*
X160356425Y-107137402D01*
X160307076Y-107082595D01*
X160296708Y-107064637D01*
X160287348Y-107053232D01*
X160252719Y-106988447D01*
X160212896Y-106919470D01*
X160208315Y-106905371D01*
X160204143Y-106897566D01*
X160181136Y-106821725D01*
X160154689Y-106740328D01*
X160153758Y-106731471D01*
X160152905Y-106728659D01*
X160144600Y-106644342D01*
X160135000Y-106553000D01*
X160144599Y-106461664D01*
X160152905Y-106377340D01*
X160153758Y-106374527D01*
X160154689Y-106365672D01*
X160181132Y-106284288D01*
X160204143Y-106208433D01*
X160208315Y-106200626D01*
X160212896Y-106186530D01*
X160252712Y-106117565D01*
X160287348Y-106052767D01*
X160296710Y-106041359D01*
X160307076Y-106023405D01*
X160356416Y-105968607D01*
X160399324Y-105916324D01*
X160415291Y-105903219D01*
X160433113Y-105883427D01*
X160488002Y-105843546D01*
X160535767Y-105804348D01*
X160559180Y-105791833D01*
X160585500Y-105772711D01*
X160642109Y-105747506D01*
X160691433Y-105721143D01*
X160722471Y-105711727D01*
X160757576Y-105696098D01*
X160812430Y-105684438D01*
X160860340Y-105669905D01*
X160898476Y-105666148D01*
X160941820Y-105656936D01*
X160992016Y-105656936D01*
X161036000Y-105652604D01*
X161079983Y-105656936D01*
G37*
G36*
X148798199Y-105071662D02*
G01*
X148845954Y-105071662D01*
X148887194Y-105080427D01*
X148922901Y-105083945D01*
X148967759Y-105097552D01*
X149019973Y-105108651D01*
X149053384Y-105123526D01*
X149082435Y-105132339D01*
X149128602Y-105157015D01*
X149182500Y-105181012D01*
X149207554Y-105199215D01*
X149229453Y-105210920D01*
X149274128Y-105247584D01*
X149326430Y-105285584D01*
X149343411Y-105304443D01*
X149358320Y-105316679D01*
X149398387Y-105365501D01*
X149445473Y-105417795D01*
X149455364Y-105434927D01*
X149464079Y-105445546D01*
X149496306Y-105505840D01*
X149534427Y-105571867D01*
X149538813Y-105585368D01*
X149542660Y-105592564D01*
X149563861Y-105662455D01*
X149589404Y-105741067D01*
X149590303Y-105749623D01*
X149591054Y-105752098D01*
X149598371Y-105826389D01*
X149608000Y-105918000D01*
X149598370Y-106009619D01*
X149591054Y-106083901D01*
X149590303Y-106086375D01*
X149589404Y-106094933D01*
X149563856Y-106173558D01*
X149542660Y-106243435D01*
X149538814Y-106250629D01*
X149534427Y-106264133D01*
X149496299Y-106330172D01*
X149464079Y-106390453D01*
X149455366Y-106401069D01*
X149445473Y-106418205D01*
X149398378Y-106470509D01*
X149358320Y-106519320D01*
X149343414Y-106531552D01*
X149326430Y-106550416D01*
X149274118Y-106588423D01*
X149229453Y-106625079D01*
X149207559Y-106636780D01*
X149182500Y-106654988D01*
X149128591Y-106678989D01*
X149082435Y-106703660D01*
X149053391Y-106712470D01*
X149019973Y-106727349D01*
X148967748Y-106738449D01*
X148922901Y-106752054D01*
X148887203Y-106755570D01*
X148845954Y-106764338D01*
X148798188Y-106764338D01*
X148757000Y-106768395D01*
X148715811Y-106764338D01*
X148668046Y-106764338D01*
X148626797Y-106755570D01*
X148591098Y-106752054D01*
X148546248Y-106738448D01*
X148494027Y-106727349D01*
X148460610Y-106712471D01*
X148431564Y-106703660D01*
X148385402Y-106678986D01*
X148331500Y-106654988D01*
X148306443Y-106636783D01*
X148284546Y-106625079D01*
X148239873Y-106588416D01*
X148187570Y-106550416D01*
X148170588Y-106531555D01*
X148155679Y-106519320D01*
X148115610Y-106470496D01*
X148068527Y-106418205D01*
X148058636Y-106401073D01*
X148049920Y-106390453D01*
X148017687Y-106330148D01*
X147979573Y-106264133D01*
X147975186Y-106250634D01*
X147971339Y-106243435D01*
X147950128Y-106173512D01*
X147924596Y-106094933D01*
X147923697Y-106086380D01*
X147922945Y-106083901D01*
X147915613Y-106009467D01*
X147906000Y-105918000D01*
X147915612Y-105826540D01*
X147922945Y-105752098D01*
X147923697Y-105749618D01*
X147924596Y-105741067D01*
X147950123Y-105662502D01*
X147971339Y-105592564D01*
X147975187Y-105585363D01*
X147979573Y-105571867D01*
X148017680Y-105505863D01*
X148049920Y-105445546D01*
X148058638Y-105434923D01*
X148068527Y-105417795D01*
X148115601Y-105365513D01*
X148155679Y-105316679D01*
X148170591Y-105304440D01*
X148187570Y-105285584D01*
X148239862Y-105247591D01*
X148284546Y-105210920D01*
X148306448Y-105199213D01*
X148331500Y-105181012D01*
X148385391Y-105157018D01*
X148431564Y-105132339D01*
X148460617Y-105123525D01*
X148494027Y-105108651D01*
X148546237Y-105097553D01*
X148591098Y-105083945D01*
X148626806Y-105080427D01*
X148668046Y-105071662D01*
X148715801Y-105071662D01*
X148757000Y-105067604D01*
X148798199Y-105071662D01*
G37*
G36*
X151298199Y-105071662D02*
G01*
X151345954Y-105071662D01*
X151387194Y-105080427D01*
X151422901Y-105083945D01*
X151467759Y-105097552D01*
X151519973Y-105108651D01*
X151553384Y-105123526D01*
X151582435Y-105132339D01*
X151628602Y-105157015D01*
X151682500Y-105181012D01*
X151707554Y-105199215D01*
X151729453Y-105210920D01*
X151774128Y-105247584D01*
X151826430Y-105285584D01*
X151843411Y-105304443D01*
X151858320Y-105316679D01*
X151898387Y-105365501D01*
X151945473Y-105417795D01*
X151955364Y-105434927D01*
X151964079Y-105445546D01*
X151996306Y-105505840D01*
X152034427Y-105571867D01*
X152038813Y-105585368D01*
X152042660Y-105592564D01*
X152063861Y-105662455D01*
X152089404Y-105741067D01*
X152090303Y-105749623D01*
X152091054Y-105752098D01*
X152098371Y-105826389D01*
X152108000Y-105918000D01*
X152098370Y-106009619D01*
X152091054Y-106083901D01*
X152090303Y-106086375D01*
X152089404Y-106094933D01*
X152063856Y-106173558D01*
X152042660Y-106243435D01*
X152038814Y-106250629D01*
X152034427Y-106264133D01*
X151996299Y-106330172D01*
X151964079Y-106390453D01*
X151955366Y-106401069D01*
X151945473Y-106418205D01*
X151898378Y-106470509D01*
X151858320Y-106519320D01*
X151843414Y-106531552D01*
X151826430Y-106550416D01*
X151774118Y-106588423D01*
X151729453Y-106625079D01*
X151707559Y-106636780D01*
X151682500Y-106654988D01*
X151628591Y-106678989D01*
X151582435Y-106703660D01*
X151553391Y-106712470D01*
X151519973Y-106727349D01*
X151467748Y-106738449D01*
X151422901Y-106752054D01*
X151387203Y-106755570D01*
X151345954Y-106764338D01*
X151298188Y-106764338D01*
X151257000Y-106768395D01*
X151215811Y-106764338D01*
X151168046Y-106764338D01*
X151126797Y-106755570D01*
X151091098Y-106752054D01*
X151046248Y-106738448D01*
X150994027Y-106727349D01*
X150960610Y-106712471D01*
X150931564Y-106703660D01*
X150885402Y-106678986D01*
X150831500Y-106654988D01*
X150806443Y-106636783D01*
X150784546Y-106625079D01*
X150739873Y-106588416D01*
X150687570Y-106550416D01*
X150670588Y-106531555D01*
X150655679Y-106519320D01*
X150615610Y-106470496D01*
X150568527Y-106418205D01*
X150558636Y-106401073D01*
X150549920Y-106390453D01*
X150517687Y-106330148D01*
X150479573Y-106264133D01*
X150475186Y-106250634D01*
X150471339Y-106243435D01*
X150450128Y-106173512D01*
X150424596Y-106094933D01*
X150423697Y-106086380D01*
X150422945Y-106083901D01*
X150415613Y-106009467D01*
X150406000Y-105918000D01*
X150415612Y-105826540D01*
X150422945Y-105752098D01*
X150423697Y-105749618D01*
X150424596Y-105741067D01*
X150450123Y-105662502D01*
X150471339Y-105592564D01*
X150475187Y-105585363D01*
X150479573Y-105571867D01*
X150517680Y-105505863D01*
X150549920Y-105445546D01*
X150558638Y-105434923D01*
X150568527Y-105417795D01*
X150615601Y-105365513D01*
X150655679Y-105316679D01*
X150670591Y-105304440D01*
X150687570Y-105285584D01*
X150739862Y-105247591D01*
X150784546Y-105210920D01*
X150806448Y-105199213D01*
X150831500Y-105181012D01*
X150885391Y-105157018D01*
X150931564Y-105132339D01*
X150960617Y-105123525D01*
X150994027Y-105108651D01*
X151046237Y-105097553D01*
X151091098Y-105083945D01*
X151126806Y-105080427D01*
X151168046Y-105071662D01*
X151215801Y-105071662D01*
X151257000Y-105067604D01*
X151298199Y-105071662D01*
G37*
G36*
X133645199Y-104214412D02*
G01*
X133692954Y-104214412D01*
X133734194Y-104223177D01*
X133769901Y-104226695D01*
X133814759Y-104240302D01*
X133866973Y-104251401D01*
X133900384Y-104266276D01*
X133929435Y-104275089D01*
X133975602Y-104299765D01*
X134029500Y-104323762D01*
X134054554Y-104341965D01*
X134076453Y-104353670D01*
X134121128Y-104390334D01*
X134173430Y-104428334D01*
X134190411Y-104447193D01*
X134205320Y-104459429D01*
X134245387Y-104508251D01*
X134292473Y-104560545D01*
X134302364Y-104577677D01*
X134311079Y-104588296D01*
X134343306Y-104648590D01*
X134381427Y-104714617D01*
X134385813Y-104728118D01*
X134389660Y-104735314D01*
X134410861Y-104805205D01*
X134436404Y-104883817D01*
X134437303Y-104892373D01*
X134438054Y-104894848D01*
X134445371Y-104969139D01*
X134455000Y-105060750D01*
X134445370Y-105152369D01*
X134438054Y-105226651D01*
X134437303Y-105229125D01*
X134436404Y-105237683D01*
X134410856Y-105316308D01*
X134389660Y-105386185D01*
X134385814Y-105393379D01*
X134381427Y-105406883D01*
X134343299Y-105472922D01*
X134311079Y-105533203D01*
X134302366Y-105543819D01*
X134292473Y-105560955D01*
X134245378Y-105613259D01*
X134205320Y-105662070D01*
X134190414Y-105674302D01*
X134173430Y-105693166D01*
X134121118Y-105731173D01*
X134076453Y-105767829D01*
X134054559Y-105779530D01*
X134029500Y-105797738D01*
X133975591Y-105821739D01*
X133929435Y-105846410D01*
X133900391Y-105855220D01*
X133866973Y-105870099D01*
X133814748Y-105881199D01*
X133769901Y-105894804D01*
X133734203Y-105898320D01*
X133692954Y-105907088D01*
X133645188Y-105907088D01*
X133604000Y-105911145D01*
X133562811Y-105907088D01*
X133515046Y-105907088D01*
X133473797Y-105898320D01*
X133438098Y-105894804D01*
X133393248Y-105881198D01*
X133341027Y-105870099D01*
X133307610Y-105855221D01*
X133278564Y-105846410D01*
X133232402Y-105821736D01*
X133178500Y-105797738D01*
X133153443Y-105779533D01*
X133131546Y-105767829D01*
X133086873Y-105731166D01*
X133034570Y-105693166D01*
X133017588Y-105674305D01*
X133002679Y-105662070D01*
X132962610Y-105613246D01*
X132915527Y-105560955D01*
X132905636Y-105543823D01*
X132896920Y-105533203D01*
X132864687Y-105472898D01*
X132826573Y-105406883D01*
X132822186Y-105393384D01*
X132818339Y-105386185D01*
X132797128Y-105316262D01*
X132771596Y-105237683D01*
X132770697Y-105229130D01*
X132769945Y-105226651D01*
X132762613Y-105152217D01*
X132753000Y-105060750D01*
X132762612Y-104969290D01*
X132769945Y-104894848D01*
X132770697Y-104892368D01*
X132771596Y-104883817D01*
X132797123Y-104805252D01*
X132818339Y-104735314D01*
X132822187Y-104728113D01*
X132826573Y-104714617D01*
X132864680Y-104648613D01*
X132896920Y-104588296D01*
X132905638Y-104577673D01*
X132915527Y-104560545D01*
X132962601Y-104508263D01*
X133002679Y-104459429D01*
X133017591Y-104447190D01*
X133034570Y-104428334D01*
X133086862Y-104390341D01*
X133131546Y-104353670D01*
X133153448Y-104341963D01*
X133178500Y-104323762D01*
X133232391Y-104299768D01*
X133278564Y-104275089D01*
X133307617Y-104266275D01*
X133341027Y-104251401D01*
X133393237Y-104240303D01*
X133438098Y-104226695D01*
X133473806Y-104223177D01*
X133515046Y-104214412D01*
X133562801Y-104214412D01*
X133604000Y-104210354D01*
X133645199Y-104214412D01*
G37*
G36*
X141265199Y-104214412D02*
G01*
X141312954Y-104214412D01*
X141354194Y-104223177D01*
X141389901Y-104226695D01*
X141434759Y-104240302D01*
X141486973Y-104251401D01*
X141520384Y-104266276D01*
X141549435Y-104275089D01*
X141595602Y-104299765D01*
X141649500Y-104323762D01*
X141674554Y-104341965D01*
X141696453Y-104353670D01*
X141741128Y-104390334D01*
X141793430Y-104428334D01*
X141810411Y-104447193D01*
X141825320Y-104459429D01*
X141865387Y-104508251D01*
X141912473Y-104560545D01*
X141922364Y-104577677D01*
X141931079Y-104588296D01*
X141963306Y-104648590D01*
X142001427Y-104714617D01*
X142005813Y-104728118D01*
X142009660Y-104735314D01*
X142030861Y-104805205D01*
X142056404Y-104883817D01*
X142057303Y-104892373D01*
X142058054Y-104894848D01*
X142065371Y-104969139D01*
X142075000Y-105060750D01*
X142065370Y-105152369D01*
X142058054Y-105226651D01*
X142057303Y-105229125D01*
X142056404Y-105237683D01*
X142030856Y-105316308D01*
X142009660Y-105386185D01*
X142005814Y-105393379D01*
X142001427Y-105406883D01*
X141963299Y-105472922D01*
X141931079Y-105533203D01*
X141922366Y-105543819D01*
X141912473Y-105560955D01*
X141865378Y-105613259D01*
X141825320Y-105662070D01*
X141810414Y-105674302D01*
X141793430Y-105693166D01*
X141741118Y-105731173D01*
X141696453Y-105767829D01*
X141674559Y-105779530D01*
X141649500Y-105797738D01*
X141595591Y-105821739D01*
X141549435Y-105846410D01*
X141520391Y-105855220D01*
X141486973Y-105870099D01*
X141434748Y-105881199D01*
X141389901Y-105894804D01*
X141354203Y-105898320D01*
X141312954Y-105907088D01*
X141265188Y-105907088D01*
X141224000Y-105911145D01*
X141182811Y-105907088D01*
X141135046Y-105907088D01*
X141093797Y-105898320D01*
X141058098Y-105894804D01*
X141013248Y-105881198D01*
X140961027Y-105870099D01*
X140927610Y-105855221D01*
X140898564Y-105846410D01*
X140852402Y-105821736D01*
X140798500Y-105797738D01*
X140773443Y-105779533D01*
X140751546Y-105767829D01*
X140706873Y-105731166D01*
X140654570Y-105693166D01*
X140637588Y-105674305D01*
X140622679Y-105662070D01*
X140582610Y-105613246D01*
X140535527Y-105560955D01*
X140525636Y-105543823D01*
X140516920Y-105533203D01*
X140484687Y-105472898D01*
X140446573Y-105406883D01*
X140442186Y-105393384D01*
X140438339Y-105386185D01*
X140417128Y-105316262D01*
X140391596Y-105237683D01*
X140390697Y-105229130D01*
X140389945Y-105226651D01*
X140382613Y-105152217D01*
X140373000Y-105060750D01*
X140382612Y-104969290D01*
X140389945Y-104894848D01*
X140390697Y-104892368D01*
X140391596Y-104883817D01*
X140417123Y-104805252D01*
X140438339Y-104735314D01*
X140442187Y-104728113D01*
X140446573Y-104714617D01*
X140484680Y-104648613D01*
X140516920Y-104588296D01*
X140525638Y-104577673D01*
X140535527Y-104560545D01*
X140582601Y-104508263D01*
X140622679Y-104459429D01*
X140637591Y-104447190D01*
X140654570Y-104428334D01*
X140706862Y-104390341D01*
X140751546Y-104353670D01*
X140773448Y-104341963D01*
X140798500Y-104323762D01*
X140852391Y-104299768D01*
X140898564Y-104275089D01*
X140927617Y-104266275D01*
X140961027Y-104251401D01*
X141013237Y-104240303D01*
X141058098Y-104226695D01*
X141093806Y-104223177D01*
X141135046Y-104214412D01*
X141182801Y-104214412D01*
X141224000Y-104210354D01*
X141265199Y-104214412D01*
G37*
G36*
X161905517Y-103115882D02*
G01*
X161922062Y-103126938D01*
X161933118Y-103143483D01*
X161937000Y-103163000D01*
X161937000Y-104863000D01*
X161933118Y-104882517D01*
X161922062Y-104899062D01*
X161905517Y-104910118D01*
X161886000Y-104914000D01*
X160186000Y-104914000D01*
X160166483Y-104910118D01*
X160149938Y-104899062D01*
X160138882Y-104882517D01*
X160135000Y-104863000D01*
X160135000Y-103163000D01*
X160138882Y-103143483D01*
X160149938Y-103126938D01*
X160166483Y-103115882D01*
X160186000Y-103112000D01*
X161886000Y-103112000D01*
X161905517Y-103115882D01*
G37*
G36*
X147242979Y-97967493D02*
G01*
X147279906Y-97969366D01*
X147280761Y-97969541D01*
X147289009Y-97969989D01*
X147374379Y-97988780D01*
X147451562Y-98004641D01*
X147456958Y-98006956D01*
X147468726Y-98009547D01*
X147542110Y-98043498D01*
X147609677Y-98072494D01*
X147619381Y-98079248D01*
X147635736Y-98086815D01*
X147695216Y-98132030D01*
X147750901Y-98170788D01*
X147763143Y-98183667D01*
X147782232Y-98198178D01*
X147826695Y-98250524D01*
X147869437Y-98295489D01*
X147881975Y-98315605D01*
X147901363Y-98338430D01*
X147930738Y-98393837D01*
X147960453Y-98441510D01*
X147970742Y-98469293D01*
X147987559Y-98501012D01*
X148002739Y-98555686D01*
X148020208Y-98602854D01*
X148025591Y-98637992D01*
X148036789Y-98678324D01*
X148039538Y-98729035D01*
X148046263Y-98772929D01*
X148044163Y-98814329D01*
X148046752Y-98862072D01*
X148039497Y-98906319D01*
X148037548Y-98944768D01*
X148025680Y-98990605D01*
X148016981Y-99043667D01*
X148002589Y-99079787D01*
X147994422Y-99111332D01*
X147970978Y-99159124D01*
X147948869Y-99214616D01*
X147930389Y-99241870D01*
X147918648Y-99265808D01*
X147882475Y-99312539D01*
X147845600Y-99366926D01*
X147826020Y-99385472D01*
X147813331Y-99401866D01*
X147764067Y-99444157D01*
X147712003Y-99493475D01*
X147694003Y-99504305D01*
X147682780Y-99513940D01*
X147620987Y-99548237D01*
X147554326Y-99588347D01*
X147540071Y-99593149D01*
X147532344Y-99597439D01*
X147459639Y-99620250D01*
X147379940Y-99647104D01*
X147370927Y-99648084D01*
X147368174Y-99648948D01*
X147288295Y-99657070D01*
X147197000Y-99667000D01*
X147190657Y-99667000D01*
X146400177Y-99667000D01*
X146397000Y-99667000D01*
X146350865Y-99664498D01*
X146314093Y-99662633D01*
X146313243Y-99662458D01*
X146304991Y-99662011D01*
X146219566Y-99643207D01*
X146142437Y-99627358D01*
X146137044Y-99625043D01*
X146125274Y-99622453D01*
X146051872Y-99588493D01*
X145984322Y-99559505D01*
X145974619Y-99552752D01*
X145958264Y-99545185D01*
X145898778Y-99499965D01*
X145843098Y-99461211D01*
X145830855Y-99448332D01*
X145811768Y-99433822D01*
X145767304Y-99381475D01*
X145724562Y-99336510D01*
X145712022Y-99316392D01*
X145692637Y-99293570D01*
X145663263Y-99238166D01*
X145633546Y-99190489D01*
X145623255Y-99162702D01*
X145606441Y-99130988D01*
X145591262Y-99076320D01*
X145573791Y-99029145D01*
X145568406Y-98994000D01*
X145557211Y-98953676D01*
X145554461Y-98902973D01*
X145547736Y-98859070D01*
X145549836Y-98817660D01*
X145547248Y-98769928D01*
X145554500Y-98725689D01*
X145556451Y-98687231D01*
X145568322Y-98641381D01*
X145577019Y-98588333D01*
X145591407Y-98552221D01*
X145599577Y-98520667D01*
X145623027Y-98472859D01*
X145645131Y-98417384D01*
X145663604Y-98390137D01*
X145675351Y-98366191D01*
X145711537Y-98319442D01*
X145748400Y-98265074D01*
X145767972Y-98246533D01*
X145780668Y-98230133D01*
X145829953Y-98187823D01*
X145881997Y-98138525D01*
X145899989Y-98127699D01*
X145911219Y-98118059D01*
X145973045Y-98083742D01*
X146039674Y-98043653D01*
X146053921Y-98038852D01*
X146061655Y-98034560D01*
X146134417Y-98011730D01*
X146214060Y-97984896D01*
X146223066Y-97983916D01*
X146225825Y-97983051D01*
X146305790Y-97974919D01*
X146397000Y-97965000D01*
X147197000Y-97965000D01*
X147242979Y-97967493D01*
G37*
G36*
X154862979Y-97967493D02*
G01*
X154899906Y-97969366D01*
X154900761Y-97969541D01*
X154909009Y-97969989D01*
X154994379Y-97988780D01*
X155071562Y-98004641D01*
X155076958Y-98006956D01*
X155088726Y-98009547D01*
X155162110Y-98043498D01*
X155229677Y-98072494D01*
X155239381Y-98079248D01*
X155255736Y-98086815D01*
X155315216Y-98132030D01*
X155370901Y-98170788D01*
X155383143Y-98183667D01*
X155402232Y-98198178D01*
X155446695Y-98250524D01*
X155489437Y-98295489D01*
X155501975Y-98315605D01*
X155521363Y-98338430D01*
X155550738Y-98393837D01*
X155580453Y-98441510D01*
X155590742Y-98469293D01*
X155607559Y-98501012D01*
X155622739Y-98555686D01*
X155640208Y-98602854D01*
X155645591Y-98637992D01*
X155656789Y-98678324D01*
X155659538Y-98729035D01*
X155666263Y-98772929D01*
X155664163Y-98814329D01*
X155666752Y-98862072D01*
X155659497Y-98906319D01*
X155657548Y-98944768D01*
X155645680Y-98990605D01*
X155636981Y-99043667D01*
X155622589Y-99079787D01*
X155614422Y-99111332D01*
X155590978Y-99159124D01*
X155568869Y-99214616D01*
X155550389Y-99241870D01*
X155538648Y-99265808D01*
X155502475Y-99312539D01*
X155465600Y-99366926D01*
X155446020Y-99385472D01*
X155433331Y-99401866D01*
X155384067Y-99444157D01*
X155332003Y-99493475D01*
X155314003Y-99504305D01*
X155302780Y-99513940D01*
X155240987Y-99548237D01*
X155174326Y-99588347D01*
X155160071Y-99593149D01*
X155152344Y-99597439D01*
X155079639Y-99620250D01*
X154999940Y-99647104D01*
X154990927Y-99648084D01*
X154988174Y-99648948D01*
X154908295Y-99657070D01*
X154817000Y-99667000D01*
X154810657Y-99667000D01*
X154020177Y-99667000D01*
X154017000Y-99667000D01*
X153970865Y-99664498D01*
X153934093Y-99662633D01*
X153933243Y-99662458D01*
X153924991Y-99662011D01*
X153839566Y-99643207D01*
X153762437Y-99627358D01*
X153757044Y-99625043D01*
X153745274Y-99622453D01*
X153671872Y-99588493D01*
X153604322Y-99559505D01*
X153594619Y-99552752D01*
X153578264Y-99545185D01*
X153518778Y-99499965D01*
X153463098Y-99461211D01*
X153450855Y-99448332D01*
X153431768Y-99433822D01*
X153387304Y-99381475D01*
X153344562Y-99336510D01*
X153332022Y-99316392D01*
X153312637Y-99293570D01*
X153283263Y-99238166D01*
X153253546Y-99190489D01*
X153243255Y-99162702D01*
X153226441Y-99130988D01*
X153211262Y-99076320D01*
X153193791Y-99029145D01*
X153188406Y-98994000D01*
X153177211Y-98953676D01*
X153174461Y-98902973D01*
X153167736Y-98859070D01*
X153169836Y-98817660D01*
X153167248Y-98769928D01*
X153174500Y-98725689D01*
X153176451Y-98687231D01*
X153188322Y-98641381D01*
X153197019Y-98588333D01*
X153211407Y-98552221D01*
X153219577Y-98520667D01*
X153243027Y-98472859D01*
X153265131Y-98417384D01*
X153283604Y-98390137D01*
X153295351Y-98366191D01*
X153331537Y-98319442D01*
X153368400Y-98265074D01*
X153387972Y-98246533D01*
X153400668Y-98230133D01*
X153449953Y-98187823D01*
X153501997Y-98138525D01*
X153519989Y-98127699D01*
X153531219Y-98118059D01*
X153593045Y-98083742D01*
X153659674Y-98043653D01*
X153673921Y-98038852D01*
X153681655Y-98034560D01*
X153754417Y-98011730D01*
X153834060Y-97984896D01*
X153843066Y-97983916D01*
X153845825Y-97983051D01*
X153925790Y-97974919D01*
X154017000Y-97965000D01*
X154817000Y-97965000D01*
X154862979Y-97967493D01*
G37*
G36*
X133645199Y-97007162D02*
G01*
X133692954Y-97007162D01*
X133734194Y-97015927D01*
X133769901Y-97019445D01*
X133814759Y-97033052D01*
X133866973Y-97044151D01*
X133900384Y-97059026D01*
X133929435Y-97067839D01*
X133975602Y-97092515D01*
X134029500Y-97116512D01*
X134054554Y-97134715D01*
X134076453Y-97146420D01*
X134121128Y-97183084D01*
X134173430Y-97221084D01*
X134190411Y-97239943D01*
X134205320Y-97252179D01*
X134245387Y-97301001D01*
X134292473Y-97353295D01*
X134302364Y-97370427D01*
X134311079Y-97381046D01*
X134343306Y-97441340D01*
X134381427Y-97507367D01*
X134385813Y-97520868D01*
X134389660Y-97528064D01*
X134410861Y-97597955D01*
X134436404Y-97676567D01*
X134437303Y-97685123D01*
X134438054Y-97687598D01*
X134445371Y-97761889D01*
X134455000Y-97853500D01*
X134445370Y-97945119D01*
X134438054Y-98019401D01*
X134437303Y-98021875D01*
X134436404Y-98030433D01*
X134410856Y-98109058D01*
X134389660Y-98178935D01*
X134385814Y-98186129D01*
X134381427Y-98199633D01*
X134343299Y-98265672D01*
X134311079Y-98325953D01*
X134302366Y-98336569D01*
X134292473Y-98353705D01*
X134245378Y-98406009D01*
X134205320Y-98454820D01*
X134190414Y-98467052D01*
X134173430Y-98485916D01*
X134121118Y-98523923D01*
X134076453Y-98560579D01*
X134054559Y-98572280D01*
X134029500Y-98590488D01*
X133975591Y-98614489D01*
X133929435Y-98639160D01*
X133900391Y-98647970D01*
X133866973Y-98662849D01*
X133814748Y-98673949D01*
X133769901Y-98687554D01*
X133734203Y-98691070D01*
X133692954Y-98699838D01*
X133645188Y-98699838D01*
X133604000Y-98703895D01*
X133562811Y-98699838D01*
X133515046Y-98699838D01*
X133473797Y-98691070D01*
X133438098Y-98687554D01*
X133393248Y-98673948D01*
X133341027Y-98662849D01*
X133307610Y-98647971D01*
X133278564Y-98639160D01*
X133232402Y-98614486D01*
X133178500Y-98590488D01*
X133153443Y-98572283D01*
X133131546Y-98560579D01*
X133086873Y-98523916D01*
X133034570Y-98485916D01*
X133017588Y-98467055D01*
X133002679Y-98454820D01*
X132962610Y-98405996D01*
X132915527Y-98353705D01*
X132905636Y-98336573D01*
X132896920Y-98325953D01*
X132864687Y-98265648D01*
X132826573Y-98199633D01*
X132822186Y-98186134D01*
X132818339Y-98178935D01*
X132797128Y-98109012D01*
X132771596Y-98030433D01*
X132770697Y-98021880D01*
X132769945Y-98019401D01*
X132762613Y-97944967D01*
X132753000Y-97853500D01*
X132762612Y-97762040D01*
X132769945Y-97687598D01*
X132770697Y-97685118D01*
X132771596Y-97676567D01*
X132797123Y-97598002D01*
X132818339Y-97528064D01*
X132822187Y-97520863D01*
X132826573Y-97507367D01*
X132864680Y-97441363D01*
X132896920Y-97381046D01*
X132905638Y-97370423D01*
X132915527Y-97353295D01*
X132962601Y-97301013D01*
X133002679Y-97252179D01*
X133017591Y-97239940D01*
X133034570Y-97221084D01*
X133086862Y-97183091D01*
X133131546Y-97146420D01*
X133153448Y-97134713D01*
X133178500Y-97116512D01*
X133232391Y-97092518D01*
X133278564Y-97067839D01*
X133307617Y-97059025D01*
X133341027Y-97044151D01*
X133393237Y-97033053D01*
X133438098Y-97019445D01*
X133473806Y-97015927D01*
X133515046Y-97007162D01*
X133562801Y-97007162D01*
X133604000Y-97003104D01*
X133645199Y-97007162D01*
G37*
G36*
X141265199Y-97007162D02*
G01*
X141312954Y-97007162D01*
X141354194Y-97015927D01*
X141389901Y-97019445D01*
X141434759Y-97033052D01*
X141486973Y-97044151D01*
X141520384Y-97059026D01*
X141549435Y-97067839D01*
X141595602Y-97092515D01*
X141649500Y-97116512D01*
X141674554Y-97134715D01*
X141696453Y-97146420D01*
X141741128Y-97183084D01*
X141793430Y-97221084D01*
X141810411Y-97239943D01*
X141825320Y-97252179D01*
X141865387Y-97301001D01*
X141912473Y-97353295D01*
X141922364Y-97370427D01*
X141931079Y-97381046D01*
X141963306Y-97441340D01*
X142001427Y-97507367D01*
X142005813Y-97520868D01*
X142009660Y-97528064D01*
X142030861Y-97597955D01*
X142056404Y-97676567D01*
X142057303Y-97685123D01*
X142058054Y-97687598D01*
X142065371Y-97761889D01*
X142075000Y-97853500D01*
X142065370Y-97945119D01*
X142058054Y-98019401D01*
X142057303Y-98021875D01*
X142056404Y-98030433D01*
X142030856Y-98109058D01*
X142009660Y-98178935D01*
X142005814Y-98186129D01*
X142001427Y-98199633D01*
X141963299Y-98265672D01*
X141931079Y-98325953D01*
X141922366Y-98336569D01*
X141912473Y-98353705D01*
X141865378Y-98406009D01*
X141825320Y-98454820D01*
X141810414Y-98467052D01*
X141793430Y-98485916D01*
X141741118Y-98523923D01*
X141696453Y-98560579D01*
X141674559Y-98572280D01*
X141649500Y-98590488D01*
X141595591Y-98614489D01*
X141549435Y-98639160D01*
X141520391Y-98647970D01*
X141486973Y-98662849D01*
X141434748Y-98673949D01*
X141389901Y-98687554D01*
X141354203Y-98691070D01*
X141312954Y-98699838D01*
X141265188Y-98699838D01*
X141224000Y-98703895D01*
X141182811Y-98699838D01*
X141135046Y-98699838D01*
X141093797Y-98691070D01*
X141058098Y-98687554D01*
X141013248Y-98673948D01*
X140961027Y-98662849D01*
X140927610Y-98647971D01*
X140898564Y-98639160D01*
X140852402Y-98614486D01*
X140798500Y-98590488D01*
X140773443Y-98572283D01*
X140751546Y-98560579D01*
X140706873Y-98523916D01*
X140654570Y-98485916D01*
X140637588Y-98467055D01*
X140622679Y-98454820D01*
X140582610Y-98405996D01*
X140535527Y-98353705D01*
X140525636Y-98336573D01*
X140516920Y-98325953D01*
X140484687Y-98265648D01*
X140446573Y-98199633D01*
X140442186Y-98186134D01*
X140438339Y-98178935D01*
X140417128Y-98109012D01*
X140391596Y-98030433D01*
X140390697Y-98021880D01*
X140389945Y-98019401D01*
X140382613Y-97944967D01*
X140373000Y-97853500D01*
X140382612Y-97762040D01*
X140389945Y-97687598D01*
X140390697Y-97685118D01*
X140391596Y-97676567D01*
X140417123Y-97598002D01*
X140438339Y-97528064D01*
X140442187Y-97520863D01*
X140446573Y-97507367D01*
X140484680Y-97441363D01*
X140516920Y-97381046D01*
X140525638Y-97370423D01*
X140535527Y-97353295D01*
X140582601Y-97301013D01*
X140622679Y-97252179D01*
X140637591Y-97239940D01*
X140654570Y-97221084D01*
X140706862Y-97183091D01*
X140751546Y-97146420D01*
X140773448Y-97134713D01*
X140798500Y-97116512D01*
X140852391Y-97092518D01*
X140898564Y-97067839D01*
X140927617Y-97059025D01*
X140961027Y-97044151D01*
X141013237Y-97033053D01*
X141058098Y-97019445D01*
X141093806Y-97015927D01*
X141135046Y-97007162D01*
X141182801Y-97007162D01*
X141224000Y-97003104D01*
X141265199Y-97007162D01*
G37*
G36*
X161079983Y-96654936D02*
G01*
X161130180Y-96654936D01*
X161173524Y-96664149D01*
X161211659Y-96667905D01*
X161259566Y-96682437D01*
X161314424Y-96694098D01*
X161349530Y-96709728D01*
X161380566Y-96719143D01*
X161429884Y-96745504D01*
X161486500Y-96770711D01*
X161512822Y-96789835D01*
X161536232Y-96802348D01*
X161583988Y-96841540D01*
X161638887Y-96881427D01*
X161656711Y-96901223D01*
X161672675Y-96914324D01*
X161715572Y-96966594D01*
X161764924Y-97021405D01*
X161775292Y-97039363D01*
X161784651Y-97050767D01*
X161819273Y-97115542D01*
X161859104Y-97184530D01*
X161863685Y-97198630D01*
X161867856Y-97206433D01*
X161890852Y-97282242D01*
X161917311Y-97363672D01*
X161918242Y-97372532D01*
X161919094Y-97375340D01*
X161927384Y-97459513D01*
X161937000Y-97551000D01*
X161927383Y-97642494D01*
X161919094Y-97726659D01*
X161918242Y-97729466D01*
X161917311Y-97738328D01*
X161890848Y-97819771D01*
X161867856Y-97895566D01*
X161863686Y-97903366D01*
X161859104Y-97917470D01*
X161819266Y-97986470D01*
X161784651Y-98051232D01*
X161775294Y-98062633D01*
X161764924Y-98080595D01*
X161715563Y-98135415D01*
X161672675Y-98187675D01*
X161656714Y-98200773D01*
X161638887Y-98220573D01*
X161583977Y-98260467D01*
X161536232Y-98299651D01*
X161512827Y-98312161D01*
X161486500Y-98331289D01*
X161429873Y-98356500D01*
X161380566Y-98382856D01*
X161349537Y-98392268D01*
X161314424Y-98407902D01*
X161259555Y-98419564D01*
X161211659Y-98434094D01*
X161173532Y-98437849D01*
X161130180Y-98447064D01*
X161079973Y-98447064D01*
X161036000Y-98451395D01*
X160992027Y-98447064D01*
X160941820Y-98447064D01*
X160898467Y-98437849D01*
X160860340Y-98434094D01*
X160812441Y-98419563D01*
X160757576Y-98407902D01*
X160722464Y-98392269D01*
X160691433Y-98382856D01*
X160642120Y-98356498D01*
X160585500Y-98331289D01*
X160559175Y-98312163D01*
X160535767Y-98299651D01*
X160488013Y-98260460D01*
X160433113Y-98220573D01*
X160415287Y-98200776D01*
X160399324Y-98187675D01*
X160356425Y-98135402D01*
X160307076Y-98080595D01*
X160296708Y-98062637D01*
X160287348Y-98051232D01*
X160252719Y-97986447D01*
X160212896Y-97917470D01*
X160208315Y-97903371D01*
X160204143Y-97895566D01*
X160181136Y-97819725D01*
X160154689Y-97738328D01*
X160153758Y-97729471D01*
X160152905Y-97726659D01*
X160144600Y-97642342D01*
X160135000Y-97551000D01*
X160144599Y-97459664D01*
X160152905Y-97375340D01*
X160153758Y-97372527D01*
X160154689Y-97363672D01*
X160181132Y-97282288D01*
X160204143Y-97206433D01*
X160208315Y-97198626D01*
X160212896Y-97184530D01*
X160252712Y-97115565D01*
X160287348Y-97050767D01*
X160296710Y-97039359D01*
X160307076Y-97021405D01*
X160356416Y-96966607D01*
X160399324Y-96914324D01*
X160415291Y-96901219D01*
X160433113Y-96881427D01*
X160488002Y-96841546D01*
X160535767Y-96802348D01*
X160559180Y-96789833D01*
X160585500Y-96770711D01*
X160642109Y-96745506D01*
X160691433Y-96719143D01*
X160722471Y-96709727D01*
X160757576Y-96694098D01*
X160812430Y-96682438D01*
X160860340Y-96667905D01*
X160898476Y-96664148D01*
X160941820Y-96654936D01*
X160992016Y-96654936D01*
X161036000Y-96650604D01*
X161079983Y-96654936D01*
G37*
G36*
X147242979Y-95427493D02*
G01*
X147279906Y-95429366D01*
X147280761Y-95429541D01*
X147289009Y-95429989D01*
X147374379Y-95448780D01*
X147451562Y-95464641D01*
X147456958Y-95466956D01*
X147468726Y-95469547D01*
X147542110Y-95503498D01*
X147609677Y-95532494D01*
X147619381Y-95539248D01*
X147635736Y-95546815D01*
X147695216Y-95592030D01*
X147750901Y-95630788D01*
X147763143Y-95643667D01*
X147782232Y-95658178D01*
X147826695Y-95710524D01*
X147869437Y-95755489D01*
X147881975Y-95775605D01*
X147901363Y-95798430D01*
X147930738Y-95853837D01*
X147960453Y-95901510D01*
X147970742Y-95929293D01*
X147987559Y-95961012D01*
X148002739Y-96015686D01*
X148020208Y-96062854D01*
X148025591Y-96097992D01*
X148036789Y-96138324D01*
X148039538Y-96189035D01*
X148046263Y-96232929D01*
X148044163Y-96274329D01*
X148046752Y-96322072D01*
X148039497Y-96366319D01*
X148037548Y-96404768D01*
X148025680Y-96450605D01*
X148016981Y-96503667D01*
X148002589Y-96539787D01*
X147994422Y-96571332D01*
X147970978Y-96619124D01*
X147948869Y-96674616D01*
X147930389Y-96701870D01*
X147918648Y-96725808D01*
X147882475Y-96772539D01*
X147845600Y-96826926D01*
X147826020Y-96845472D01*
X147813331Y-96861866D01*
X147764067Y-96904157D01*
X147712003Y-96953475D01*
X147694003Y-96964305D01*
X147682780Y-96973940D01*
X147620987Y-97008237D01*
X147554326Y-97048347D01*
X147540071Y-97053149D01*
X147532344Y-97057439D01*
X147459639Y-97080250D01*
X147379940Y-97107104D01*
X147370927Y-97108084D01*
X147368174Y-97108948D01*
X147288295Y-97117070D01*
X147197000Y-97127000D01*
X147190657Y-97127000D01*
X146400177Y-97127000D01*
X146397000Y-97127000D01*
X146350865Y-97124498D01*
X146314093Y-97122633D01*
X146313243Y-97122458D01*
X146304991Y-97122011D01*
X146219566Y-97103207D01*
X146142437Y-97087358D01*
X146137044Y-97085043D01*
X146125274Y-97082453D01*
X146051872Y-97048493D01*
X145984322Y-97019505D01*
X145974619Y-97012752D01*
X145958264Y-97005185D01*
X145898778Y-96959965D01*
X145843098Y-96921211D01*
X145830855Y-96908332D01*
X145811768Y-96893822D01*
X145767304Y-96841475D01*
X145724562Y-96796510D01*
X145712022Y-96776392D01*
X145692637Y-96753570D01*
X145663263Y-96698166D01*
X145633546Y-96650489D01*
X145623255Y-96622702D01*
X145606441Y-96590988D01*
X145591262Y-96536320D01*
X145573791Y-96489145D01*
X145568406Y-96454000D01*
X145557211Y-96413676D01*
X145554461Y-96362973D01*
X145547736Y-96319070D01*
X145549836Y-96277660D01*
X145547248Y-96229928D01*
X145554500Y-96185689D01*
X145556451Y-96147231D01*
X145568322Y-96101381D01*
X145577019Y-96048333D01*
X145591407Y-96012221D01*
X145599577Y-95980667D01*
X145623027Y-95932859D01*
X145645131Y-95877384D01*
X145663604Y-95850137D01*
X145675351Y-95826191D01*
X145711537Y-95779442D01*
X145748400Y-95725074D01*
X145767972Y-95706533D01*
X145780668Y-95690133D01*
X145829953Y-95647823D01*
X145881997Y-95598525D01*
X145899989Y-95587699D01*
X145911219Y-95578059D01*
X145973045Y-95543742D01*
X146039674Y-95503653D01*
X146053921Y-95498852D01*
X146061655Y-95494560D01*
X146134417Y-95471730D01*
X146214060Y-95444896D01*
X146223066Y-95443916D01*
X146225825Y-95443051D01*
X146305790Y-95434919D01*
X146397000Y-95425000D01*
X147197000Y-95425000D01*
X147242979Y-95427493D01*
G37*
G36*
X154862979Y-95427493D02*
G01*
X154899906Y-95429366D01*
X154900761Y-95429541D01*
X154909009Y-95429989D01*
X154994379Y-95448780D01*
X155071562Y-95464641D01*
X155076958Y-95466956D01*
X155088726Y-95469547D01*
X155162110Y-95503498D01*
X155229677Y-95532494D01*
X155239381Y-95539248D01*
X155255736Y-95546815D01*
X155315216Y-95592030D01*
X155370901Y-95630788D01*
X155383143Y-95643667D01*
X155402232Y-95658178D01*
X155446695Y-95710524D01*
X155489437Y-95755489D01*
X155501975Y-95775605D01*
X155521363Y-95798430D01*
X155550738Y-95853837D01*
X155580453Y-95901510D01*
X155590742Y-95929293D01*
X155607559Y-95961012D01*
X155622739Y-96015686D01*
X155640208Y-96062854D01*
X155645591Y-96097992D01*
X155656789Y-96138324D01*
X155659538Y-96189035D01*
X155666263Y-96232929D01*
X155664163Y-96274329D01*
X155666752Y-96322072D01*
X155659497Y-96366319D01*
X155657548Y-96404768D01*
X155645680Y-96450605D01*
X155636981Y-96503667D01*
X155622589Y-96539787D01*
X155614422Y-96571332D01*
X155590978Y-96619124D01*
X155568869Y-96674616D01*
X155550389Y-96701870D01*
X155538648Y-96725808D01*
X155502475Y-96772539D01*
X155465600Y-96826926D01*
X155446020Y-96845472D01*
X155433331Y-96861866D01*
X155384067Y-96904157D01*
X155332003Y-96953475D01*
X155314003Y-96964305D01*
X155302780Y-96973940D01*
X155240987Y-97008237D01*
X155174326Y-97048347D01*
X155160071Y-97053149D01*
X155152344Y-97057439D01*
X155079639Y-97080250D01*
X154999940Y-97107104D01*
X154990927Y-97108084D01*
X154988174Y-97108948D01*
X154908295Y-97117070D01*
X154817000Y-97127000D01*
X154810657Y-97127000D01*
X154020177Y-97127000D01*
X154017000Y-97127000D01*
X153970865Y-97124498D01*
X153934093Y-97122633D01*
X153933243Y-97122458D01*
X153924991Y-97122011D01*
X153839566Y-97103207D01*
X153762437Y-97087358D01*
X153757044Y-97085043D01*
X153745274Y-97082453D01*
X153671872Y-97048493D01*
X153604322Y-97019505D01*
X153594619Y-97012752D01*
X153578264Y-97005185D01*
X153518778Y-96959965D01*
X153463098Y-96921211D01*
X153450855Y-96908332D01*
X153431768Y-96893822D01*
X153387304Y-96841475D01*
X153344562Y-96796510D01*
X153332022Y-96776392D01*
X153312637Y-96753570D01*
X153283263Y-96698166D01*
X153253546Y-96650489D01*
X153243255Y-96622702D01*
X153226441Y-96590988D01*
X153211262Y-96536320D01*
X153193791Y-96489145D01*
X153188406Y-96454000D01*
X153177211Y-96413676D01*
X153174461Y-96362973D01*
X153167736Y-96319070D01*
X153169836Y-96277660D01*
X153167248Y-96229928D01*
X153174500Y-96185689D01*
X153176451Y-96147231D01*
X153188322Y-96101381D01*
X153197019Y-96048333D01*
X153211407Y-96012221D01*
X153219577Y-95980667D01*
X153243027Y-95932859D01*
X153265131Y-95877384D01*
X153283604Y-95850137D01*
X153295351Y-95826191D01*
X153331537Y-95779442D01*
X153368400Y-95725074D01*
X153387972Y-95706533D01*
X153400668Y-95690133D01*
X153449953Y-95647823D01*
X153501997Y-95598525D01*
X153519989Y-95587699D01*
X153531219Y-95578059D01*
X153593045Y-95543742D01*
X153659674Y-95503653D01*
X153673921Y-95498852D01*
X153681655Y-95494560D01*
X153754417Y-95471730D01*
X153834060Y-95444896D01*
X153843066Y-95443916D01*
X153845825Y-95443051D01*
X153925790Y-95434919D01*
X154017000Y-95425000D01*
X154817000Y-95425000D01*
X154862979Y-95427493D01*
G37*
G36*
X161079983Y-94114936D02*
G01*
X161130180Y-94114936D01*
X161173524Y-94124149D01*
X161211659Y-94127905D01*
X161259566Y-94142437D01*
X161314424Y-94154098D01*
X161349530Y-94169728D01*
X161380566Y-94179143D01*
X161429884Y-94205504D01*
X161486500Y-94230711D01*
X161512822Y-94249835D01*
X161536232Y-94262348D01*
X161583988Y-94301540D01*
X161638887Y-94341427D01*
X161656711Y-94361223D01*
X161672675Y-94374324D01*
X161715572Y-94426594D01*
X161764924Y-94481405D01*
X161775292Y-94499363D01*
X161784651Y-94510767D01*
X161819273Y-94575542D01*
X161859104Y-94644530D01*
X161863685Y-94658630D01*
X161867856Y-94666433D01*
X161890852Y-94742242D01*
X161917311Y-94823672D01*
X161918242Y-94832532D01*
X161919094Y-94835340D01*
X161927384Y-94919513D01*
X161937000Y-95011000D01*
X161927383Y-95102494D01*
X161919094Y-95186659D01*
X161918242Y-95189466D01*
X161917311Y-95198328D01*
X161890848Y-95279771D01*
X161867856Y-95355566D01*
X161863686Y-95363366D01*
X161859104Y-95377470D01*
X161819266Y-95446470D01*
X161784651Y-95511232D01*
X161775294Y-95522633D01*
X161764924Y-95540595D01*
X161715563Y-95595415D01*
X161672675Y-95647675D01*
X161656714Y-95660773D01*
X161638887Y-95680573D01*
X161583977Y-95720467D01*
X161536232Y-95759651D01*
X161512827Y-95772161D01*
X161486500Y-95791289D01*
X161429873Y-95816500D01*
X161380566Y-95842856D01*
X161349537Y-95852268D01*
X161314424Y-95867902D01*
X161259555Y-95879564D01*
X161211659Y-95894094D01*
X161173532Y-95897849D01*
X161130180Y-95907064D01*
X161079973Y-95907064D01*
X161036000Y-95911395D01*
X160992027Y-95907064D01*
X160941820Y-95907064D01*
X160898467Y-95897849D01*
X160860340Y-95894094D01*
X160812441Y-95879563D01*
X160757576Y-95867902D01*
X160722464Y-95852269D01*
X160691433Y-95842856D01*
X160642120Y-95816498D01*
X160585500Y-95791289D01*
X160559175Y-95772163D01*
X160535767Y-95759651D01*
X160488013Y-95720460D01*
X160433113Y-95680573D01*
X160415287Y-95660776D01*
X160399324Y-95647675D01*
X160356425Y-95595402D01*
X160307076Y-95540595D01*
X160296708Y-95522637D01*
X160287348Y-95511232D01*
X160252719Y-95446447D01*
X160212896Y-95377470D01*
X160208315Y-95363371D01*
X160204143Y-95355566D01*
X160181136Y-95279725D01*
X160154689Y-95198328D01*
X160153758Y-95189471D01*
X160152905Y-95186659D01*
X160144600Y-95102342D01*
X160135000Y-95011000D01*
X160144599Y-94919664D01*
X160152905Y-94835340D01*
X160153758Y-94832527D01*
X160154689Y-94823672D01*
X160181132Y-94742288D01*
X160204143Y-94666433D01*
X160208315Y-94658626D01*
X160212896Y-94644530D01*
X160252712Y-94575565D01*
X160287348Y-94510767D01*
X160296710Y-94499359D01*
X160307076Y-94481405D01*
X160356416Y-94426607D01*
X160399324Y-94374324D01*
X160415291Y-94361219D01*
X160433113Y-94341427D01*
X160488002Y-94301546D01*
X160535767Y-94262348D01*
X160559180Y-94249833D01*
X160585500Y-94230711D01*
X160642109Y-94205506D01*
X160691433Y-94179143D01*
X160722471Y-94169727D01*
X160757576Y-94154098D01*
X160812430Y-94142438D01*
X160860340Y-94127905D01*
X160898476Y-94124148D01*
X160941820Y-94114936D01*
X160992016Y-94114936D01*
X161036000Y-94110604D01*
X161079983Y-94114936D01*
G37*
G36*
X147242979Y-92887493D02*
G01*
X147279906Y-92889366D01*
X147280761Y-92889541D01*
X147289009Y-92889989D01*
X147374379Y-92908780D01*
X147451562Y-92924641D01*
X147456958Y-92926956D01*
X147468726Y-92929547D01*
X147542110Y-92963498D01*
X147609677Y-92992494D01*
X147619381Y-92999248D01*
X147635736Y-93006815D01*
X147695216Y-93052030D01*
X147750901Y-93090788D01*
X147763143Y-93103667D01*
X147782232Y-93118178D01*
X147826695Y-93170524D01*
X147869437Y-93215489D01*
X147881975Y-93235605D01*
X147901363Y-93258430D01*
X147930738Y-93313837D01*
X147960453Y-93361510D01*
X147970742Y-93389293D01*
X147987559Y-93421012D01*
X148002739Y-93475686D01*
X148020208Y-93522854D01*
X148025591Y-93557992D01*
X148036789Y-93598324D01*
X148039538Y-93649035D01*
X148046263Y-93692929D01*
X148044163Y-93734329D01*
X148046752Y-93782072D01*
X148039497Y-93826319D01*
X148037548Y-93864768D01*
X148025680Y-93910605D01*
X148016981Y-93963667D01*
X148002589Y-93999787D01*
X147994422Y-94031332D01*
X147970978Y-94079124D01*
X147948869Y-94134616D01*
X147930389Y-94161870D01*
X147918648Y-94185808D01*
X147882475Y-94232539D01*
X147845600Y-94286926D01*
X147826020Y-94305472D01*
X147813331Y-94321866D01*
X147764067Y-94364157D01*
X147712003Y-94413475D01*
X147694003Y-94424305D01*
X147682780Y-94433940D01*
X147620987Y-94468237D01*
X147554326Y-94508347D01*
X147540071Y-94513149D01*
X147532344Y-94517439D01*
X147459639Y-94540250D01*
X147379940Y-94567104D01*
X147370927Y-94568084D01*
X147368174Y-94568948D01*
X147288295Y-94577070D01*
X147197000Y-94587000D01*
X147190657Y-94587000D01*
X146400177Y-94587000D01*
X146397000Y-94587000D01*
X146350865Y-94584498D01*
X146314093Y-94582633D01*
X146313243Y-94582458D01*
X146304991Y-94582011D01*
X146219566Y-94563207D01*
X146142437Y-94547358D01*
X146137044Y-94545043D01*
X146125274Y-94542453D01*
X146051872Y-94508493D01*
X145984322Y-94479505D01*
X145974619Y-94472752D01*
X145958264Y-94465185D01*
X145898778Y-94419965D01*
X145843098Y-94381211D01*
X145830855Y-94368332D01*
X145811768Y-94353822D01*
X145767304Y-94301475D01*
X145724562Y-94256510D01*
X145712022Y-94236392D01*
X145692637Y-94213570D01*
X145663263Y-94158166D01*
X145633546Y-94110489D01*
X145623255Y-94082702D01*
X145606441Y-94050988D01*
X145591262Y-93996320D01*
X145573791Y-93949145D01*
X145568406Y-93914000D01*
X145557211Y-93873676D01*
X145554461Y-93822973D01*
X145547736Y-93779070D01*
X145549836Y-93737660D01*
X145547248Y-93689928D01*
X145554500Y-93645689D01*
X145556451Y-93607231D01*
X145568322Y-93561381D01*
X145577019Y-93508333D01*
X145591407Y-93472221D01*
X145599577Y-93440667D01*
X145623027Y-93392859D01*
X145645131Y-93337384D01*
X145663604Y-93310137D01*
X145675351Y-93286191D01*
X145711537Y-93239442D01*
X145748400Y-93185074D01*
X145767972Y-93166533D01*
X145780668Y-93150133D01*
X145829953Y-93107823D01*
X145881997Y-93058525D01*
X145899989Y-93047699D01*
X145911219Y-93038059D01*
X145973045Y-93003742D01*
X146039674Y-92963653D01*
X146053921Y-92958852D01*
X146061655Y-92954560D01*
X146134417Y-92931730D01*
X146214060Y-92904896D01*
X146223066Y-92903916D01*
X146225825Y-92903051D01*
X146305790Y-92894919D01*
X146397000Y-92885000D01*
X147197000Y-92885000D01*
X147242979Y-92887493D01*
G37*
G36*
X154862979Y-92887493D02*
G01*
X154899906Y-92889366D01*
X154900761Y-92889541D01*
X154909009Y-92889989D01*
X154994379Y-92908780D01*
X155071562Y-92924641D01*
X155076958Y-92926956D01*
X155088726Y-92929547D01*
X155162110Y-92963498D01*
X155229677Y-92992494D01*
X155239381Y-92999248D01*
X155255736Y-93006815D01*
X155315216Y-93052030D01*
X155370901Y-93090788D01*
X155383143Y-93103667D01*
X155402232Y-93118178D01*
X155446695Y-93170524D01*
X155489437Y-93215489D01*
X155501975Y-93235605D01*
X155521363Y-93258430D01*
X155550738Y-93313837D01*
X155580453Y-93361510D01*
X155590742Y-93389293D01*
X155607559Y-93421012D01*
X155622739Y-93475686D01*
X155640208Y-93522854D01*
X155645591Y-93557992D01*
X155656789Y-93598324D01*
X155659538Y-93649035D01*
X155666263Y-93692929D01*
X155664163Y-93734329D01*
X155666752Y-93782072D01*
X155659497Y-93826319D01*
X155657548Y-93864768D01*
X155645680Y-93910605D01*
X155636981Y-93963667D01*
X155622589Y-93999787D01*
X155614422Y-94031332D01*
X155590978Y-94079124D01*
X155568869Y-94134616D01*
X155550389Y-94161870D01*
X155538648Y-94185808D01*
X155502475Y-94232539D01*
X155465600Y-94286926D01*
X155446020Y-94305472D01*
X155433331Y-94321866D01*
X155384067Y-94364157D01*
X155332003Y-94413475D01*
X155314003Y-94424305D01*
X155302780Y-94433940D01*
X155240987Y-94468237D01*
X155174326Y-94508347D01*
X155160071Y-94513149D01*
X155152344Y-94517439D01*
X155079639Y-94540250D01*
X154999940Y-94567104D01*
X154990927Y-94568084D01*
X154988174Y-94568948D01*
X154908295Y-94577070D01*
X154817000Y-94587000D01*
X154810657Y-94587000D01*
X154020177Y-94587000D01*
X154017000Y-94587000D01*
X153970865Y-94584498D01*
X153934093Y-94582633D01*
X153933243Y-94582458D01*
X153924991Y-94582011D01*
X153839566Y-94563207D01*
X153762437Y-94547358D01*
X153757044Y-94545043D01*
X153745274Y-94542453D01*
X153671872Y-94508493D01*
X153604322Y-94479505D01*
X153594619Y-94472752D01*
X153578264Y-94465185D01*
X153518778Y-94419965D01*
X153463098Y-94381211D01*
X153450855Y-94368332D01*
X153431768Y-94353822D01*
X153387304Y-94301475D01*
X153344562Y-94256510D01*
X153332022Y-94236392D01*
X153312637Y-94213570D01*
X153283263Y-94158166D01*
X153253546Y-94110489D01*
X153243255Y-94082702D01*
X153226441Y-94050988D01*
X153211262Y-93996320D01*
X153193791Y-93949145D01*
X153188406Y-93914000D01*
X153177211Y-93873676D01*
X153174461Y-93822973D01*
X153167736Y-93779070D01*
X153169836Y-93737660D01*
X153167248Y-93689928D01*
X153174500Y-93645689D01*
X153176451Y-93607231D01*
X153188322Y-93561381D01*
X153197019Y-93508333D01*
X153211407Y-93472221D01*
X153219577Y-93440667D01*
X153243027Y-93392859D01*
X153265131Y-93337384D01*
X153283604Y-93310137D01*
X153295351Y-93286191D01*
X153331537Y-93239442D01*
X153368400Y-93185074D01*
X153387972Y-93166533D01*
X153400668Y-93150133D01*
X153449953Y-93107823D01*
X153501997Y-93058525D01*
X153519989Y-93047699D01*
X153531219Y-93038059D01*
X153593045Y-93003742D01*
X153659674Y-92963653D01*
X153673921Y-92958852D01*
X153681655Y-92954560D01*
X153754417Y-92931730D01*
X153834060Y-92904896D01*
X153843066Y-92903916D01*
X153845825Y-92903051D01*
X153925790Y-92894919D01*
X154017000Y-92885000D01*
X154817000Y-92885000D01*
X154862979Y-92887493D01*
G37*
G36*
X161905517Y-91573882D02*
G01*
X161922062Y-91584938D01*
X161933118Y-91601483D01*
X161937000Y-91621000D01*
X161937000Y-93321000D01*
X161933118Y-93340517D01*
X161922062Y-93357062D01*
X161905517Y-93368118D01*
X161886000Y-93372000D01*
X160186000Y-93372000D01*
X160166483Y-93368118D01*
X160149938Y-93357062D01*
X160138882Y-93340517D01*
X160135000Y-93321000D01*
X160135000Y-91621000D01*
X160138882Y-91601483D01*
X160149938Y-91584938D01*
X160166483Y-91573882D01*
X160186000Y-91570000D01*
X161886000Y-91570000D01*
X161905517Y-91573882D01*
G37*
G36*
X148016517Y-90348882D02*
G01*
X148033062Y-90359938D01*
X148044118Y-90376483D01*
X148048000Y-90396000D01*
X148048000Y-91996000D01*
X148044118Y-92015517D01*
X148033062Y-92032062D01*
X148016517Y-92043118D01*
X147997000Y-92047000D01*
X145597000Y-92047000D01*
X145577483Y-92043118D01*
X145560938Y-92032062D01*
X145549882Y-92015517D01*
X145546000Y-91996000D01*
X145546000Y-90396000D01*
X145549882Y-90376483D01*
X145560938Y-90359938D01*
X145577483Y-90348882D01*
X145597000Y-90345000D01*
X147997000Y-90345000D01*
X148016517Y-90348882D01*
G37*
G36*
X154862979Y-90347493D02*
G01*
X154899906Y-90349366D01*
X154900761Y-90349541D01*
X154909009Y-90349989D01*
X154994379Y-90368780D01*
X155071562Y-90384641D01*
X155076958Y-90386956D01*
X155088726Y-90389547D01*
X155162110Y-90423498D01*
X155229677Y-90452494D01*
X155239381Y-90459248D01*
X155255736Y-90466815D01*
X155315216Y-90512030D01*
X155370901Y-90550788D01*
X155383143Y-90563667D01*
X155402232Y-90578178D01*
X155446695Y-90630524D01*
X155489437Y-90675489D01*
X155501975Y-90695605D01*
X155521363Y-90718430D01*
X155550738Y-90773837D01*
X155580453Y-90821510D01*
X155590742Y-90849293D01*
X155607559Y-90881012D01*
X155622739Y-90935686D01*
X155640208Y-90982854D01*
X155645591Y-91017992D01*
X155656789Y-91058324D01*
X155659538Y-91109035D01*
X155666263Y-91152929D01*
X155664163Y-91194329D01*
X155666752Y-91242072D01*
X155659497Y-91286319D01*
X155657548Y-91324768D01*
X155645680Y-91370605D01*
X155636981Y-91423667D01*
X155622589Y-91459787D01*
X155614422Y-91491332D01*
X155590978Y-91539124D01*
X155568869Y-91594616D01*
X155550389Y-91621870D01*
X155538648Y-91645808D01*
X155502475Y-91692539D01*
X155465600Y-91746926D01*
X155446020Y-91765472D01*
X155433331Y-91781866D01*
X155384067Y-91824157D01*
X155332003Y-91873475D01*
X155314003Y-91884305D01*
X155302780Y-91893940D01*
X155240987Y-91928237D01*
X155174326Y-91968347D01*
X155160071Y-91973149D01*
X155152344Y-91977439D01*
X155079639Y-92000250D01*
X154999940Y-92027104D01*
X154990927Y-92028084D01*
X154988174Y-92028948D01*
X154908295Y-92037070D01*
X154817000Y-92047000D01*
X154810657Y-92047000D01*
X154020177Y-92047000D01*
X154017000Y-92047000D01*
X153970865Y-92044498D01*
X153934093Y-92042633D01*
X153933243Y-92042458D01*
X153924991Y-92042011D01*
X153839566Y-92023207D01*
X153762437Y-92007358D01*
X153757044Y-92005043D01*
X153745274Y-92002453D01*
X153671872Y-91968493D01*
X153604322Y-91939505D01*
X153594619Y-91932752D01*
X153578264Y-91925185D01*
X153518778Y-91879965D01*
X153463098Y-91841211D01*
X153450855Y-91828332D01*
X153431768Y-91813822D01*
X153387304Y-91761475D01*
X153344562Y-91716510D01*
X153332022Y-91696392D01*
X153312637Y-91673570D01*
X153283263Y-91618166D01*
X153253546Y-91570489D01*
X153243255Y-91542702D01*
X153226441Y-91510988D01*
X153211262Y-91456320D01*
X153193791Y-91409145D01*
X153188406Y-91374000D01*
X153177211Y-91333676D01*
X153174461Y-91282973D01*
X153167736Y-91239070D01*
X153169836Y-91197660D01*
X153167248Y-91149928D01*
X153174500Y-91105689D01*
X153176451Y-91067231D01*
X153188322Y-91021381D01*
X153197019Y-90968333D01*
X153211407Y-90932221D01*
X153219577Y-90900667D01*
X153243027Y-90852859D01*
X153265131Y-90797384D01*
X153283604Y-90770137D01*
X153295351Y-90746191D01*
X153331537Y-90699442D01*
X153368400Y-90645074D01*
X153387972Y-90626533D01*
X153400668Y-90610133D01*
X153449953Y-90567823D01*
X153501997Y-90518525D01*
X153519989Y-90507699D01*
X153531219Y-90498059D01*
X153593045Y-90463742D01*
X153659674Y-90423653D01*
X153673921Y-90418852D01*
X153681655Y-90414560D01*
X153754417Y-90391730D01*
X153834060Y-90364896D01*
X153843066Y-90363916D01*
X153845825Y-90363051D01*
X153925790Y-90354919D01*
X154017000Y-90345000D01*
X154817000Y-90345000D01*
X154862979Y-90347493D01*
G37*
G36*
X133645199Y-89799912D02*
G01*
X133692954Y-89799912D01*
X133734194Y-89808677D01*
X133769901Y-89812195D01*
X133814759Y-89825802D01*
X133866973Y-89836901D01*
X133900384Y-89851776D01*
X133929435Y-89860589D01*
X133975602Y-89885265D01*
X134029500Y-89909262D01*
X134054554Y-89927465D01*
X134076453Y-89939170D01*
X134121128Y-89975834D01*
X134173430Y-90013834D01*
X134190411Y-90032693D01*
X134205320Y-90044929D01*
X134245387Y-90093751D01*
X134292473Y-90146045D01*
X134302364Y-90163177D01*
X134311079Y-90173796D01*
X134343306Y-90234090D01*
X134381427Y-90300117D01*
X134385813Y-90313618D01*
X134389660Y-90320814D01*
X134410861Y-90390705D01*
X134436404Y-90469317D01*
X134437303Y-90477873D01*
X134438054Y-90480348D01*
X134445371Y-90554639D01*
X134455000Y-90646250D01*
X134445370Y-90737869D01*
X134438054Y-90812151D01*
X134437303Y-90814625D01*
X134436404Y-90823183D01*
X134410856Y-90901808D01*
X134389660Y-90971685D01*
X134385814Y-90978879D01*
X134381427Y-90992383D01*
X134343299Y-91058422D01*
X134311079Y-91118703D01*
X134302366Y-91129319D01*
X134292473Y-91146455D01*
X134245378Y-91198759D01*
X134205320Y-91247570D01*
X134190414Y-91259802D01*
X134173430Y-91278666D01*
X134121118Y-91316673D01*
X134076453Y-91353329D01*
X134054559Y-91365030D01*
X134029500Y-91383238D01*
X133975591Y-91407239D01*
X133929435Y-91431910D01*
X133900391Y-91440720D01*
X133866973Y-91455599D01*
X133814748Y-91466699D01*
X133769901Y-91480304D01*
X133734203Y-91483820D01*
X133692954Y-91492588D01*
X133645188Y-91492588D01*
X133604000Y-91496645D01*
X133562811Y-91492588D01*
X133515046Y-91492588D01*
X133473797Y-91483820D01*
X133438098Y-91480304D01*
X133393248Y-91466698D01*
X133341027Y-91455599D01*
X133307610Y-91440721D01*
X133278564Y-91431910D01*
X133232402Y-91407236D01*
X133178500Y-91383238D01*
X133153443Y-91365033D01*
X133131546Y-91353329D01*
X133086873Y-91316666D01*
X133034570Y-91278666D01*
X133017588Y-91259805D01*
X133002679Y-91247570D01*
X132962610Y-91198746D01*
X132915527Y-91146455D01*
X132905636Y-91129323D01*
X132896920Y-91118703D01*
X132864687Y-91058398D01*
X132826573Y-90992383D01*
X132822186Y-90978884D01*
X132818339Y-90971685D01*
X132797128Y-90901762D01*
X132771596Y-90823183D01*
X132770697Y-90814630D01*
X132769945Y-90812151D01*
X132762613Y-90737717D01*
X132753000Y-90646250D01*
X132762612Y-90554790D01*
X132769945Y-90480348D01*
X132770697Y-90477868D01*
X132771596Y-90469317D01*
X132797123Y-90390752D01*
X132818339Y-90320814D01*
X132822187Y-90313613D01*
X132826573Y-90300117D01*
X132864680Y-90234113D01*
X132896920Y-90173796D01*
X132905638Y-90163173D01*
X132915527Y-90146045D01*
X132962601Y-90093763D01*
X133002679Y-90044929D01*
X133017591Y-90032690D01*
X133034570Y-90013834D01*
X133086862Y-89975841D01*
X133131546Y-89939170D01*
X133153448Y-89927463D01*
X133178500Y-89909262D01*
X133232391Y-89885268D01*
X133278564Y-89860589D01*
X133307617Y-89851775D01*
X133341027Y-89836901D01*
X133393237Y-89825803D01*
X133438098Y-89812195D01*
X133473806Y-89808677D01*
X133515046Y-89799912D01*
X133562801Y-89799912D01*
X133604000Y-89795854D01*
X133645199Y-89799912D01*
G37*
G36*
X141265199Y-89799912D02*
G01*
X141312954Y-89799912D01*
X141354194Y-89808677D01*
X141389901Y-89812195D01*
X141434759Y-89825802D01*
X141486973Y-89836901D01*
X141520384Y-89851776D01*
X141549435Y-89860589D01*
X141595602Y-89885265D01*
X141649500Y-89909262D01*
X141674554Y-89927465D01*
X141696453Y-89939170D01*
X141741128Y-89975834D01*
X141793430Y-90013834D01*
X141810411Y-90032693D01*
X141825320Y-90044929D01*
X141865387Y-90093751D01*
X141912473Y-90146045D01*
X141922364Y-90163177D01*
X141931079Y-90173796D01*
X141963306Y-90234090D01*
X142001427Y-90300117D01*
X142005813Y-90313618D01*
X142009660Y-90320814D01*
X142030861Y-90390705D01*
X142056404Y-90469317D01*
X142057303Y-90477873D01*
X142058054Y-90480348D01*
X142065371Y-90554639D01*
X142075000Y-90646250D01*
X142065370Y-90737869D01*
X142058054Y-90812151D01*
X142057303Y-90814625D01*
X142056404Y-90823183D01*
X142030856Y-90901808D01*
X142009660Y-90971685D01*
X142005814Y-90978879D01*
X142001427Y-90992383D01*
X141963299Y-91058422D01*
X141931079Y-91118703D01*
X141922366Y-91129319D01*
X141912473Y-91146455D01*
X141865378Y-91198759D01*
X141825320Y-91247570D01*
X141810414Y-91259802D01*
X141793430Y-91278666D01*
X141741118Y-91316673D01*
X141696453Y-91353329D01*
X141674559Y-91365030D01*
X141649500Y-91383238D01*
X141595591Y-91407239D01*
X141549435Y-91431910D01*
X141520391Y-91440720D01*
X141486973Y-91455599D01*
X141434748Y-91466699D01*
X141389901Y-91480304D01*
X141354203Y-91483820D01*
X141312954Y-91492588D01*
X141265188Y-91492588D01*
X141224000Y-91496645D01*
X141182811Y-91492588D01*
X141135046Y-91492588D01*
X141093797Y-91483820D01*
X141058098Y-91480304D01*
X141013248Y-91466698D01*
X140961027Y-91455599D01*
X140927610Y-91440721D01*
X140898564Y-91431910D01*
X140852402Y-91407236D01*
X140798500Y-91383238D01*
X140773443Y-91365033D01*
X140751546Y-91353329D01*
X140706873Y-91316666D01*
X140654570Y-91278666D01*
X140637588Y-91259805D01*
X140622679Y-91247570D01*
X140582610Y-91198746D01*
X140535527Y-91146455D01*
X140525636Y-91129323D01*
X140516920Y-91118703D01*
X140484687Y-91058398D01*
X140446573Y-90992383D01*
X140442186Y-90978884D01*
X140438339Y-90971685D01*
X140417128Y-90901762D01*
X140391596Y-90823183D01*
X140390697Y-90814630D01*
X140389945Y-90812151D01*
X140382613Y-90737717D01*
X140373000Y-90646250D01*
X140382612Y-90554790D01*
X140389945Y-90480348D01*
X140390697Y-90477868D01*
X140391596Y-90469317D01*
X140417123Y-90390752D01*
X140438339Y-90320814D01*
X140442187Y-90313613D01*
X140446573Y-90300117D01*
X140484680Y-90234113D01*
X140516920Y-90173796D01*
X140525638Y-90163173D01*
X140535527Y-90146045D01*
X140582601Y-90093763D01*
X140622679Y-90044929D01*
X140637591Y-90032690D01*
X140654570Y-90013834D01*
X140706862Y-89975841D01*
X140751546Y-89939170D01*
X140773448Y-89927463D01*
X140798500Y-89909262D01*
X140852391Y-89885268D01*
X140898564Y-89860589D01*
X140927617Y-89851775D01*
X140961027Y-89836901D01*
X141013237Y-89825803D01*
X141058098Y-89812195D01*
X141093806Y-89808677D01*
X141135046Y-89799912D01*
X141182801Y-89799912D01*
X141224000Y-89795854D01*
X141265199Y-89799912D01*
G37*
G36*
X159905517Y-83226882D02*
G01*
X159922062Y-83237938D01*
X159933118Y-83254483D01*
X159937000Y-83274000D01*
X159937000Y-84874000D01*
X159933118Y-84893517D01*
X159922062Y-84910062D01*
X159905517Y-84921118D01*
X159886000Y-84925000D01*
X158286000Y-84925000D01*
X158266483Y-84921118D01*
X158249938Y-84910062D01*
X158238882Y-84893517D01*
X158235000Y-84874000D01*
X158235000Y-83274000D01*
X158238882Y-83254483D01*
X158249938Y-83237938D01*
X158266483Y-83226882D01*
X158286000Y-83223000D01*
X159886000Y-83223000D01*
X159905517Y-83226882D01*
G37*
G36*
X161127199Y-83227662D02*
G01*
X161174954Y-83227662D01*
X161216194Y-83236427D01*
X161251901Y-83239945D01*
X161296759Y-83253552D01*
X161348973Y-83264651D01*
X161382384Y-83279526D01*
X161411435Y-83288339D01*
X161457602Y-83313015D01*
X161511500Y-83337012D01*
X161536554Y-83355215D01*
X161558453Y-83366920D01*
X161603128Y-83403584D01*
X161655430Y-83441584D01*
X161672411Y-83460443D01*
X161687320Y-83472679D01*
X161727387Y-83521501D01*
X161774473Y-83573795D01*
X161784364Y-83590927D01*
X161793079Y-83601546D01*
X161825306Y-83661840D01*
X161863427Y-83727867D01*
X161867813Y-83741368D01*
X161871660Y-83748564D01*
X161892861Y-83818455D01*
X161918404Y-83897067D01*
X161919303Y-83905623D01*
X161920054Y-83908098D01*
X161927371Y-83982389D01*
X161937000Y-84074000D01*
X161927370Y-84165619D01*
X161920054Y-84239901D01*
X161919303Y-84242375D01*
X161918404Y-84250933D01*
X161892856Y-84329558D01*
X161871660Y-84399435D01*
X161867814Y-84406629D01*
X161863427Y-84420133D01*
X161825299Y-84486172D01*
X161793079Y-84546453D01*
X161784366Y-84557069D01*
X161774473Y-84574205D01*
X161727378Y-84626509D01*
X161687320Y-84675320D01*
X161672414Y-84687552D01*
X161655430Y-84706416D01*
X161603118Y-84744423D01*
X161558453Y-84781079D01*
X161536559Y-84792780D01*
X161511500Y-84810988D01*
X161457591Y-84834989D01*
X161411435Y-84859660D01*
X161382391Y-84868470D01*
X161348973Y-84883349D01*
X161296748Y-84894449D01*
X161251901Y-84908054D01*
X161216203Y-84911570D01*
X161174954Y-84920338D01*
X161127188Y-84920338D01*
X161086000Y-84924395D01*
X161044811Y-84920338D01*
X160997046Y-84920338D01*
X160955797Y-84911570D01*
X160920098Y-84908054D01*
X160875248Y-84894448D01*
X160823027Y-84883349D01*
X160789610Y-84868471D01*
X160760564Y-84859660D01*
X160714402Y-84834986D01*
X160660500Y-84810988D01*
X160635443Y-84792783D01*
X160613546Y-84781079D01*
X160568873Y-84744416D01*
X160516570Y-84706416D01*
X160499588Y-84687555D01*
X160484679Y-84675320D01*
X160444610Y-84626496D01*
X160397527Y-84574205D01*
X160387636Y-84557073D01*
X160378920Y-84546453D01*
X160346687Y-84486148D01*
X160308573Y-84420133D01*
X160304186Y-84406634D01*
X160300339Y-84399435D01*
X160279128Y-84329512D01*
X160253596Y-84250933D01*
X160252697Y-84242380D01*
X160251945Y-84239901D01*
X160244613Y-84165467D01*
X160235000Y-84074000D01*
X160244612Y-83982540D01*
X160251945Y-83908098D01*
X160252697Y-83905618D01*
X160253596Y-83897067D01*
X160279123Y-83818502D01*
X160300339Y-83748564D01*
X160304187Y-83741363D01*
X160308573Y-83727867D01*
X160346680Y-83661863D01*
X160378920Y-83601546D01*
X160387638Y-83590923D01*
X160397527Y-83573795D01*
X160444601Y-83521513D01*
X160484679Y-83472679D01*
X160499591Y-83460440D01*
X160516570Y-83441584D01*
X160568862Y-83403591D01*
X160613546Y-83366920D01*
X160635448Y-83355213D01*
X160660500Y-83337012D01*
X160714391Y-83313018D01*
X160760564Y-83288339D01*
X160789617Y-83279525D01*
X160823027Y-83264651D01*
X160875237Y-83253553D01*
X160920098Y-83239945D01*
X160955806Y-83236427D01*
X160997046Y-83227662D01*
X161044801Y-83227662D01*
X161086000Y-83223604D01*
X161127199Y-83227662D01*
G37*
G36*
X149404629Y-82491882D02*
G01*
X149421174Y-82502938D01*
X149432230Y-82519483D01*
X149436112Y-82539000D01*
X149436112Y-84339000D01*
X149432230Y-84358517D01*
X149421174Y-84375062D01*
X149404629Y-84386118D01*
X149385112Y-84390000D01*
X147585112Y-84390000D01*
X147565595Y-84386118D01*
X147549050Y-84375062D01*
X147537994Y-84358517D01*
X147534112Y-84339000D01*
X147534112Y-82539000D01*
X147537994Y-82519483D01*
X147549050Y-82502938D01*
X147565595Y-82491882D01*
X147585112Y-82488000D01*
X149385112Y-82488000D01*
X149404629Y-82491882D01*
G37*
G36*
X151071716Y-82492590D02*
G01*
X151112808Y-82492590D01*
X151158568Y-82501144D01*
X151210643Y-82506273D01*
X151250203Y-82518273D01*
X151285223Y-82524820D01*
X151333729Y-82543611D01*
X151389044Y-82560391D01*
X151420646Y-82577282D01*
X151448768Y-82588177D01*
X151497625Y-82618428D01*
X151553459Y-82648272D01*
X151576921Y-82667526D01*
X151597896Y-82680514D01*
X151644368Y-82722879D01*
X151697571Y-82766541D01*
X151713336Y-82785751D01*
X151727512Y-82798674D01*
X151768669Y-82853174D01*
X151815840Y-82910653D01*
X151824960Y-82927717D01*
X151833211Y-82938642D01*
X151866037Y-83004566D01*
X151903721Y-83075068D01*
X151907740Y-83088316D01*
X151911394Y-83095655D01*
X151932976Y-83171507D01*
X151957839Y-83253469D01*
X151958655Y-83261762D01*
X151959392Y-83264350D01*
X151967049Y-83346982D01*
X151976112Y-83439000D01*
X151967048Y-83531026D01*
X151959392Y-83613649D01*
X151958656Y-83616235D01*
X151957839Y-83624531D01*
X151932971Y-83706507D01*
X151911394Y-83782344D01*
X151907740Y-83789680D01*
X151903721Y-83802932D01*
X151866029Y-83873447D01*
X151833211Y-83939357D01*
X151824962Y-83950279D01*
X151815840Y-83967347D01*
X151768659Y-84024836D01*
X151727512Y-84079325D01*
X151713339Y-84092244D01*
X151697571Y-84111459D01*
X151644357Y-84155129D01*
X151597896Y-84197485D01*
X151576926Y-84210469D01*
X151553459Y-84229728D01*
X151497614Y-84259577D01*
X151448768Y-84289822D01*
X151420653Y-84300713D01*
X151389044Y-84317609D01*
X151333717Y-84334392D01*
X151285223Y-84353179D01*
X151250210Y-84359724D01*
X151210643Y-84371727D01*
X151158565Y-84376856D01*
X151112808Y-84385410D01*
X151071716Y-84385410D01*
X151025112Y-84390000D01*
X150978508Y-84385410D01*
X150937416Y-84385410D01*
X150891657Y-84376856D01*
X150839581Y-84371727D01*
X150800014Y-84359724D01*
X150765000Y-84353179D01*
X150716501Y-84334390D01*
X150661180Y-84317609D01*
X150629573Y-84300714D01*
X150601455Y-84289822D01*
X150552602Y-84259573D01*
X150496765Y-84229728D01*
X150473300Y-84210471D01*
X150452327Y-84197485D01*
X150405856Y-84155121D01*
X150352653Y-84111459D01*
X150336887Y-84092248D01*
X150322711Y-84079325D01*
X150281551Y-84024821D01*
X150234384Y-83967347D01*
X150225263Y-83950284D01*
X150217012Y-83939357D01*
X150184179Y-83873420D01*
X150146503Y-83802932D01*
X150142484Y-83789685D01*
X150138829Y-83782344D01*
X150117236Y-83706454D01*
X150092385Y-83624531D01*
X150091568Y-83616241D01*
X150090831Y-83613649D01*
X150083158Y-83530854D01*
X150074112Y-83439000D01*
X150083157Y-83347153D01*
X150090831Y-83264350D01*
X150091568Y-83261757D01*
X150092385Y-83253469D01*
X150117231Y-83171560D01*
X150138829Y-83095655D01*
X150142485Y-83088311D01*
X150146503Y-83075068D01*
X150184172Y-83004593D01*
X150217012Y-82938642D01*
X150225265Y-82927712D01*
X150234384Y-82910653D01*
X150281542Y-82853190D01*
X150322711Y-82798674D01*
X150336890Y-82785747D01*
X150352653Y-82766541D01*
X150405845Y-82722887D01*
X150452327Y-82680514D01*
X150473305Y-82667524D01*
X150496765Y-82648272D01*
X150552590Y-82618432D01*
X150601455Y-82588177D01*
X150629579Y-82577281D01*
X150661180Y-82560391D01*
X150716489Y-82543612D01*
X150765000Y-82524820D01*
X150800021Y-82518273D01*
X150839581Y-82506273D01*
X150891654Y-82501144D01*
X150937416Y-82492590D01*
X150978508Y-82492590D01*
X151025112Y-82488000D01*
X151071716Y-82492590D01*
G37*
G36*
X133645199Y-82592662D02*
G01*
X133692954Y-82592662D01*
X133734194Y-82601427D01*
X133769901Y-82604945D01*
X133814759Y-82618552D01*
X133866973Y-82629651D01*
X133900384Y-82644526D01*
X133929435Y-82653339D01*
X133975602Y-82678015D01*
X134029500Y-82702012D01*
X134054554Y-82720215D01*
X134076453Y-82731920D01*
X134121128Y-82768584D01*
X134173430Y-82806584D01*
X134190411Y-82825443D01*
X134205320Y-82837679D01*
X134245387Y-82886501D01*
X134292473Y-82938795D01*
X134302364Y-82955927D01*
X134311079Y-82966546D01*
X134343306Y-83026840D01*
X134381427Y-83092867D01*
X134385813Y-83106368D01*
X134389660Y-83113564D01*
X134410861Y-83183455D01*
X134436404Y-83262067D01*
X134437303Y-83270623D01*
X134438054Y-83273098D01*
X134445371Y-83347389D01*
X134455000Y-83439000D01*
X134445370Y-83530619D01*
X134438054Y-83604901D01*
X134437303Y-83607375D01*
X134436404Y-83615933D01*
X134410856Y-83694558D01*
X134389660Y-83764435D01*
X134385814Y-83771629D01*
X134381427Y-83785133D01*
X134343299Y-83851172D01*
X134311079Y-83911453D01*
X134302366Y-83922069D01*
X134292473Y-83939205D01*
X134245378Y-83991509D01*
X134205320Y-84040320D01*
X134190414Y-84052552D01*
X134173430Y-84071416D01*
X134121118Y-84109423D01*
X134076453Y-84146079D01*
X134054559Y-84157780D01*
X134029500Y-84175988D01*
X133975591Y-84199989D01*
X133929435Y-84224660D01*
X133900391Y-84233470D01*
X133866973Y-84248349D01*
X133814748Y-84259449D01*
X133769901Y-84273054D01*
X133734203Y-84276570D01*
X133692954Y-84285338D01*
X133645188Y-84285338D01*
X133604000Y-84289395D01*
X133562811Y-84285338D01*
X133515046Y-84285338D01*
X133473797Y-84276570D01*
X133438098Y-84273054D01*
X133393248Y-84259448D01*
X133341027Y-84248349D01*
X133307610Y-84233471D01*
X133278564Y-84224660D01*
X133232402Y-84199986D01*
X133178500Y-84175988D01*
X133153443Y-84157783D01*
X133131546Y-84146079D01*
X133086873Y-84109416D01*
X133034570Y-84071416D01*
X133017588Y-84052555D01*
X133002679Y-84040320D01*
X132962610Y-83991496D01*
X132915527Y-83939205D01*
X132905636Y-83922073D01*
X132896920Y-83911453D01*
X132864687Y-83851148D01*
X132826573Y-83785133D01*
X132822186Y-83771634D01*
X132818339Y-83764435D01*
X132797128Y-83694512D01*
X132771596Y-83615933D01*
X132770697Y-83607380D01*
X132769945Y-83604901D01*
X132762613Y-83530467D01*
X132753000Y-83439000D01*
X132762612Y-83347540D01*
X132769945Y-83273098D01*
X132770697Y-83270618D01*
X132771596Y-83262067D01*
X132797123Y-83183502D01*
X132818339Y-83113564D01*
X132822187Y-83106363D01*
X132826573Y-83092867D01*
X132864680Y-83026863D01*
X132896920Y-82966546D01*
X132905638Y-82955923D01*
X132915527Y-82938795D01*
X132962601Y-82886513D01*
X133002679Y-82837679D01*
X133017591Y-82825440D01*
X133034570Y-82806584D01*
X133086862Y-82768591D01*
X133131546Y-82731920D01*
X133153448Y-82720213D01*
X133178500Y-82702012D01*
X133232391Y-82678018D01*
X133278564Y-82653339D01*
X133307617Y-82644525D01*
X133341027Y-82629651D01*
X133393237Y-82618553D01*
X133438098Y-82604945D01*
X133473806Y-82601427D01*
X133515046Y-82592662D01*
X133562801Y-82592662D01*
X133604000Y-82588604D01*
X133645199Y-82592662D01*
G37*
G36*
X141265199Y-82592662D02*
G01*
X141312954Y-82592662D01*
X141354194Y-82601427D01*
X141389901Y-82604945D01*
X141434759Y-82618552D01*
X141486973Y-82629651D01*
X141520384Y-82644526D01*
X141549435Y-82653339D01*
X141595602Y-82678015D01*
X141649500Y-82702012D01*
X141674554Y-82720215D01*
X141696453Y-82731920D01*
X141741128Y-82768584D01*
X141793430Y-82806584D01*
X141810411Y-82825443D01*
X141825320Y-82837679D01*
X141865387Y-82886501D01*
X141912473Y-82938795D01*
X141922364Y-82955927D01*
X141931079Y-82966546D01*
X141963306Y-83026840D01*
X142001427Y-83092867D01*
X142005813Y-83106368D01*
X142009660Y-83113564D01*
X142030861Y-83183455D01*
X142056404Y-83262067D01*
X142057303Y-83270623D01*
X142058054Y-83273098D01*
X142065371Y-83347389D01*
X142075000Y-83439000D01*
X142065370Y-83530619D01*
X142058054Y-83604901D01*
X142057303Y-83607375D01*
X142056404Y-83615933D01*
X142030856Y-83694558D01*
X142009660Y-83764435D01*
X142005814Y-83771629D01*
X142001427Y-83785133D01*
X141963299Y-83851172D01*
X141931079Y-83911453D01*
X141922366Y-83922069D01*
X141912473Y-83939205D01*
X141865378Y-83991509D01*
X141825320Y-84040320D01*
X141810414Y-84052552D01*
X141793430Y-84071416D01*
X141741118Y-84109423D01*
X141696453Y-84146079D01*
X141674559Y-84157780D01*
X141649500Y-84175988D01*
X141595591Y-84199989D01*
X141549435Y-84224660D01*
X141520391Y-84233470D01*
X141486973Y-84248349D01*
X141434748Y-84259449D01*
X141389901Y-84273054D01*
X141354203Y-84276570D01*
X141312954Y-84285338D01*
X141265188Y-84285338D01*
X141224000Y-84289395D01*
X141182811Y-84285338D01*
X141135046Y-84285338D01*
X141093797Y-84276570D01*
X141058098Y-84273054D01*
X141013248Y-84259448D01*
X140961027Y-84248349D01*
X140927610Y-84233471D01*
X140898564Y-84224660D01*
X140852402Y-84199986D01*
X140798500Y-84175988D01*
X140773443Y-84157783D01*
X140751546Y-84146079D01*
X140706873Y-84109416D01*
X140654570Y-84071416D01*
X140637588Y-84052555D01*
X140622679Y-84040320D01*
X140582610Y-83991496D01*
X140535527Y-83939205D01*
X140525636Y-83922073D01*
X140516920Y-83911453D01*
X140484687Y-83851148D01*
X140446573Y-83785133D01*
X140442186Y-83771634D01*
X140438339Y-83764435D01*
X140417128Y-83694512D01*
X140391596Y-83615933D01*
X140390697Y-83607380D01*
X140389945Y-83604901D01*
X140382613Y-83530467D01*
X140373000Y-83439000D01*
X140382612Y-83347540D01*
X140389945Y-83273098D01*
X140390697Y-83270618D01*
X140391596Y-83262067D01*
X140417123Y-83183502D01*
X140438339Y-83113564D01*
X140442187Y-83106363D01*
X140446573Y-83092867D01*
X140484680Y-83026863D01*
X140516920Y-82966546D01*
X140525638Y-82955923D01*
X140535527Y-82938795D01*
X140582601Y-82886513D01*
X140622679Y-82837679D01*
X140637591Y-82825440D01*
X140654570Y-82806584D01*
X140706862Y-82768591D01*
X140751546Y-82731920D01*
X140773448Y-82720213D01*
X140798500Y-82702012D01*
X140852391Y-82678018D01*
X140898564Y-82653339D01*
X140927617Y-82644525D01*
X140961027Y-82629651D01*
X141013237Y-82618553D01*
X141058098Y-82604945D01*
X141093806Y-82601427D01*
X141135046Y-82592662D01*
X141182801Y-82592662D01*
X141224000Y-82588604D01*
X141265199Y-82592662D01*
G37*
M02*
