G04 #@! TF.GenerationSoftware,KiCad,Pcbnew,7.0.11-rc3*
G04 #@! TF.CreationDate,2024-12-20T13:56:10-07:00*
G04 #@! TF.ProjectId,UselessBox V2,5573656c-6573-4734-926f-782056322e6b,2*
G04 #@! TF.SameCoordinates,Original*
G04 #@! TF.FileFunction,Legend,Top*
G04 #@! TF.FilePolarity,Positive*
%FSLAX46Y46*%
G04 Gerber Fmt 4.6, Leading zero omitted, Abs format (unit mm)*
G04 Created by KiCad (PCBNEW 7.0.11-rc3) date 2024-12-20 13:56:10*
%MOMM*%
%LPD*%
G01*
G04 APERTURE LIST*
%ADD10C,0.150000*%
%ADD11C,0.120000*%
G04 APERTURE END LIST*
D10*
X166162819Y-117138220D02*
X166972342Y-117138220D01*
X166972342Y-117138220D02*
X167067580Y-117090601D01*
X167067580Y-117090601D02*
X167115200Y-117042982D01*
X167115200Y-117042982D02*
X167162819Y-116947744D01*
X167162819Y-116947744D02*
X167162819Y-116757268D01*
X167162819Y-116757268D02*
X167115200Y-116662030D01*
X167115200Y-116662030D02*
X167067580Y-116614411D01*
X167067580Y-116614411D02*
X166972342Y-116566792D01*
X166972342Y-116566792D02*
X166162819Y-116566792D01*
X167115200Y-116138220D02*
X167162819Y-116042982D01*
X167162819Y-116042982D02*
X167162819Y-115852506D01*
X167162819Y-115852506D02*
X167115200Y-115757268D01*
X167115200Y-115757268D02*
X167019961Y-115709649D01*
X167019961Y-115709649D02*
X166972342Y-115709649D01*
X166972342Y-115709649D02*
X166877104Y-115757268D01*
X166877104Y-115757268D02*
X166829485Y-115852506D01*
X166829485Y-115852506D02*
X166829485Y-115995363D01*
X166829485Y-115995363D02*
X166781866Y-116090601D01*
X166781866Y-116090601D02*
X166686628Y-116138220D01*
X166686628Y-116138220D02*
X166639009Y-116138220D01*
X166639009Y-116138220D02*
X166543771Y-116090601D01*
X166543771Y-116090601D02*
X166496152Y-115995363D01*
X166496152Y-115995363D02*
X166496152Y-115852506D01*
X166496152Y-115852506D02*
X166543771Y-115757268D01*
X167115200Y-114900125D02*
X167162819Y-114995363D01*
X167162819Y-114995363D02*
X167162819Y-115185839D01*
X167162819Y-115185839D02*
X167115200Y-115281077D01*
X167115200Y-115281077D02*
X167019961Y-115328696D01*
X167019961Y-115328696D02*
X166639009Y-115328696D01*
X166639009Y-115328696D02*
X166543771Y-115281077D01*
X166543771Y-115281077D02*
X166496152Y-115185839D01*
X166496152Y-115185839D02*
X166496152Y-114995363D01*
X166496152Y-114995363D02*
X166543771Y-114900125D01*
X166543771Y-114900125D02*
X166639009Y-114852506D01*
X166639009Y-114852506D02*
X166734247Y-114852506D01*
X166734247Y-114852506D02*
X166829485Y-115328696D01*
X167162819Y-114281077D02*
X167115200Y-114376315D01*
X167115200Y-114376315D02*
X167019961Y-114423934D01*
X167019961Y-114423934D02*
X166162819Y-114423934D01*
X167115200Y-113519172D02*
X167162819Y-113614410D01*
X167162819Y-113614410D02*
X167162819Y-113804886D01*
X167162819Y-113804886D02*
X167115200Y-113900124D01*
X167115200Y-113900124D02*
X167019961Y-113947743D01*
X167019961Y-113947743D02*
X166639009Y-113947743D01*
X166639009Y-113947743D02*
X166543771Y-113900124D01*
X166543771Y-113900124D02*
X166496152Y-113804886D01*
X166496152Y-113804886D02*
X166496152Y-113614410D01*
X166496152Y-113614410D02*
X166543771Y-113519172D01*
X166543771Y-113519172D02*
X166639009Y-113471553D01*
X166639009Y-113471553D02*
X166734247Y-113471553D01*
X166734247Y-113471553D02*
X166829485Y-113947743D01*
X167115200Y-113090600D02*
X167162819Y-112995362D01*
X167162819Y-112995362D02*
X167162819Y-112804886D01*
X167162819Y-112804886D02*
X167115200Y-112709648D01*
X167115200Y-112709648D02*
X167019961Y-112662029D01*
X167019961Y-112662029D02*
X166972342Y-112662029D01*
X166972342Y-112662029D02*
X166877104Y-112709648D01*
X166877104Y-112709648D02*
X166829485Y-112804886D01*
X166829485Y-112804886D02*
X166829485Y-112947743D01*
X166829485Y-112947743D02*
X166781866Y-113042981D01*
X166781866Y-113042981D02*
X166686628Y-113090600D01*
X166686628Y-113090600D02*
X166639009Y-113090600D01*
X166639009Y-113090600D02*
X166543771Y-113042981D01*
X166543771Y-113042981D02*
X166496152Y-112947743D01*
X166496152Y-112947743D02*
X166496152Y-112804886D01*
X166496152Y-112804886D02*
X166543771Y-112709648D01*
X167115200Y-112281076D02*
X167162819Y-112185838D01*
X167162819Y-112185838D02*
X167162819Y-111995362D01*
X167162819Y-111995362D02*
X167115200Y-111900124D01*
X167115200Y-111900124D02*
X167019961Y-111852505D01*
X167019961Y-111852505D02*
X166972342Y-111852505D01*
X166972342Y-111852505D02*
X166877104Y-111900124D01*
X166877104Y-111900124D02*
X166829485Y-111995362D01*
X166829485Y-111995362D02*
X166829485Y-112138219D01*
X166829485Y-112138219D02*
X166781866Y-112233457D01*
X166781866Y-112233457D02*
X166686628Y-112281076D01*
X166686628Y-112281076D02*
X166639009Y-112281076D01*
X166639009Y-112281076D02*
X166543771Y-112233457D01*
X166543771Y-112233457D02*
X166496152Y-112138219D01*
X166496152Y-112138219D02*
X166496152Y-111995362D01*
X166496152Y-111995362D02*
X166543771Y-111900124D01*
X166639009Y-110328695D02*
X166686628Y-110185838D01*
X166686628Y-110185838D02*
X166734247Y-110138219D01*
X166734247Y-110138219D02*
X166829485Y-110090600D01*
X166829485Y-110090600D02*
X166972342Y-110090600D01*
X166972342Y-110090600D02*
X167067580Y-110138219D01*
X167067580Y-110138219D02*
X167115200Y-110185838D01*
X167115200Y-110185838D02*
X167162819Y-110281076D01*
X167162819Y-110281076D02*
X167162819Y-110662028D01*
X167162819Y-110662028D02*
X166162819Y-110662028D01*
X166162819Y-110662028D02*
X166162819Y-110328695D01*
X166162819Y-110328695D02*
X166210438Y-110233457D01*
X166210438Y-110233457D02*
X166258057Y-110185838D01*
X166258057Y-110185838D02*
X166353295Y-110138219D01*
X166353295Y-110138219D02*
X166448533Y-110138219D01*
X166448533Y-110138219D02*
X166543771Y-110185838D01*
X166543771Y-110185838D02*
X166591390Y-110233457D01*
X166591390Y-110233457D02*
X166639009Y-110328695D01*
X166639009Y-110328695D02*
X166639009Y-110662028D01*
X167162819Y-109519171D02*
X167115200Y-109614409D01*
X167115200Y-109614409D02*
X167067580Y-109662028D01*
X167067580Y-109662028D02*
X166972342Y-109709647D01*
X166972342Y-109709647D02*
X166686628Y-109709647D01*
X166686628Y-109709647D02*
X166591390Y-109662028D01*
X166591390Y-109662028D02*
X166543771Y-109614409D01*
X166543771Y-109614409D02*
X166496152Y-109519171D01*
X166496152Y-109519171D02*
X166496152Y-109376314D01*
X166496152Y-109376314D02*
X166543771Y-109281076D01*
X166543771Y-109281076D02*
X166591390Y-109233457D01*
X166591390Y-109233457D02*
X166686628Y-109185838D01*
X166686628Y-109185838D02*
X166972342Y-109185838D01*
X166972342Y-109185838D02*
X167067580Y-109233457D01*
X167067580Y-109233457D02*
X167115200Y-109281076D01*
X167115200Y-109281076D02*
X167162819Y-109376314D01*
X167162819Y-109376314D02*
X167162819Y-109519171D01*
X167162819Y-108852504D02*
X166496152Y-108328695D01*
X166496152Y-108852504D02*
X167162819Y-108328695D01*
X166162819Y-107328694D02*
X167162819Y-106995361D01*
X167162819Y-106995361D02*
X166162819Y-106662028D01*
X166162819Y-106423932D02*
X166162819Y-105804885D01*
X166162819Y-105804885D02*
X166543771Y-106138218D01*
X166543771Y-106138218D02*
X166543771Y-105995361D01*
X166543771Y-105995361D02*
X166591390Y-105900123D01*
X166591390Y-105900123D02*
X166639009Y-105852504D01*
X166639009Y-105852504D02*
X166734247Y-105804885D01*
X166734247Y-105804885D02*
X166972342Y-105804885D01*
X166972342Y-105804885D02*
X167067580Y-105852504D01*
X167067580Y-105852504D02*
X167115200Y-105900123D01*
X167115200Y-105900123D02*
X167162819Y-105995361D01*
X167162819Y-105995361D02*
X167162819Y-106281075D01*
X167162819Y-106281075D02*
X167115200Y-106376313D01*
X167115200Y-106376313D02*
X167067580Y-106423932D01*
X167772819Y-117281077D02*
X167772819Y-116709649D01*
X168772819Y-116995363D02*
X167772819Y-116995363D01*
X168772819Y-116376315D02*
X168106152Y-116376315D01*
X167772819Y-116376315D02*
X167820438Y-116423934D01*
X167820438Y-116423934D02*
X167868057Y-116376315D01*
X167868057Y-116376315D02*
X167820438Y-116328696D01*
X167820438Y-116328696D02*
X167772819Y-116376315D01*
X167772819Y-116376315D02*
X167868057Y-116376315D01*
X168772819Y-115900125D02*
X168106152Y-115900125D01*
X168201390Y-115900125D02*
X168153771Y-115852506D01*
X168153771Y-115852506D02*
X168106152Y-115757268D01*
X168106152Y-115757268D02*
X168106152Y-115614411D01*
X168106152Y-115614411D02*
X168153771Y-115519173D01*
X168153771Y-115519173D02*
X168249009Y-115471554D01*
X168249009Y-115471554D02*
X168772819Y-115471554D01*
X168249009Y-115471554D02*
X168153771Y-115423935D01*
X168153771Y-115423935D02*
X168106152Y-115328697D01*
X168106152Y-115328697D02*
X168106152Y-115185840D01*
X168106152Y-115185840D02*
X168153771Y-115090601D01*
X168153771Y-115090601D02*
X168249009Y-115042982D01*
X168249009Y-115042982D02*
X168772819Y-115042982D01*
X168772819Y-114423935D02*
X168725200Y-114519173D01*
X168725200Y-114519173D02*
X168677580Y-114566792D01*
X168677580Y-114566792D02*
X168582342Y-114614411D01*
X168582342Y-114614411D02*
X168296628Y-114614411D01*
X168296628Y-114614411D02*
X168201390Y-114566792D01*
X168201390Y-114566792D02*
X168153771Y-114519173D01*
X168153771Y-114519173D02*
X168106152Y-114423935D01*
X168106152Y-114423935D02*
X168106152Y-114281078D01*
X168106152Y-114281078D02*
X168153771Y-114185840D01*
X168153771Y-114185840D02*
X168201390Y-114138221D01*
X168201390Y-114138221D02*
X168296628Y-114090602D01*
X168296628Y-114090602D02*
X168582342Y-114090602D01*
X168582342Y-114090602D02*
X168677580Y-114138221D01*
X168677580Y-114138221D02*
X168725200Y-114185840D01*
X168725200Y-114185840D02*
X168772819Y-114281078D01*
X168772819Y-114281078D02*
X168772819Y-114423935D01*
X168106152Y-113804887D02*
X168106152Y-113423935D01*
X167772819Y-113662030D02*
X168629961Y-113662030D01*
X168629961Y-113662030D02*
X168725200Y-113614411D01*
X168725200Y-113614411D02*
X168772819Y-113519173D01*
X168772819Y-113519173D02*
X168772819Y-113423935D01*
X168772819Y-113090601D02*
X167772819Y-113090601D01*
X168772819Y-112662030D02*
X168249009Y-112662030D01*
X168249009Y-112662030D02*
X168153771Y-112709649D01*
X168153771Y-112709649D02*
X168106152Y-112804887D01*
X168106152Y-112804887D02*
X168106152Y-112947744D01*
X168106152Y-112947744D02*
X168153771Y-113042982D01*
X168153771Y-113042982D02*
X168201390Y-113090601D01*
X168106152Y-112281077D02*
X168772819Y-112042982D01*
X168106152Y-111804887D02*
X168772819Y-112042982D01*
X168772819Y-112042982D02*
X169010914Y-112138220D01*
X169010914Y-112138220D02*
X169058533Y-112185839D01*
X169058533Y-112185839D02*
X169106152Y-112281077D01*
X168725200Y-110709648D02*
X168772819Y-110566791D01*
X168772819Y-110566791D02*
X168772819Y-110328696D01*
X168772819Y-110328696D02*
X168725200Y-110233458D01*
X168725200Y-110233458D02*
X168677580Y-110185839D01*
X168677580Y-110185839D02*
X168582342Y-110138220D01*
X168582342Y-110138220D02*
X168487104Y-110138220D01*
X168487104Y-110138220D02*
X168391866Y-110185839D01*
X168391866Y-110185839D02*
X168344247Y-110233458D01*
X168344247Y-110233458D02*
X168296628Y-110328696D01*
X168296628Y-110328696D02*
X168249009Y-110519172D01*
X168249009Y-110519172D02*
X168201390Y-110614410D01*
X168201390Y-110614410D02*
X168153771Y-110662029D01*
X168153771Y-110662029D02*
X168058533Y-110709648D01*
X168058533Y-110709648D02*
X167963295Y-110709648D01*
X167963295Y-110709648D02*
X167868057Y-110662029D01*
X167868057Y-110662029D02*
X167820438Y-110614410D01*
X167820438Y-110614410D02*
X167772819Y-110519172D01*
X167772819Y-110519172D02*
X167772819Y-110281077D01*
X167772819Y-110281077D02*
X167820438Y-110138220D01*
X168772819Y-108471553D02*
X168772819Y-108947743D01*
X168772819Y-108947743D02*
X167772819Y-108947743D01*
X168725200Y-107757267D02*
X168772819Y-107852505D01*
X168772819Y-107852505D02*
X168772819Y-108042981D01*
X168772819Y-108042981D02*
X168725200Y-108138219D01*
X168725200Y-108138219D02*
X168629961Y-108185838D01*
X168629961Y-108185838D02*
X168249009Y-108185838D01*
X168249009Y-108185838D02*
X168153771Y-108138219D01*
X168153771Y-108138219D02*
X168106152Y-108042981D01*
X168106152Y-108042981D02*
X168106152Y-107852505D01*
X168106152Y-107852505D02*
X168153771Y-107757267D01*
X168153771Y-107757267D02*
X168249009Y-107709648D01*
X168249009Y-107709648D02*
X168344247Y-107709648D01*
X168344247Y-107709648D02*
X168439485Y-108185838D01*
X168772819Y-107281076D02*
X168106152Y-107281076D01*
X167772819Y-107281076D02*
X167820438Y-107328695D01*
X167820438Y-107328695D02*
X167868057Y-107281076D01*
X167868057Y-107281076D02*
X167820438Y-107233457D01*
X167820438Y-107233457D02*
X167772819Y-107281076D01*
X167772819Y-107281076D02*
X167868057Y-107281076D01*
X168725200Y-106852505D02*
X168772819Y-106757267D01*
X168772819Y-106757267D02*
X168772819Y-106566791D01*
X168772819Y-106566791D02*
X168725200Y-106471553D01*
X168725200Y-106471553D02*
X168629961Y-106423934D01*
X168629961Y-106423934D02*
X168582342Y-106423934D01*
X168582342Y-106423934D02*
X168487104Y-106471553D01*
X168487104Y-106471553D02*
X168439485Y-106566791D01*
X168439485Y-106566791D02*
X168439485Y-106709648D01*
X168439485Y-106709648D02*
X168391866Y-106804886D01*
X168391866Y-106804886D02*
X168296628Y-106852505D01*
X168296628Y-106852505D02*
X168249009Y-106852505D01*
X168249009Y-106852505D02*
X168153771Y-106804886D01*
X168153771Y-106804886D02*
X168106152Y-106709648D01*
X168106152Y-106709648D02*
X168106152Y-106566791D01*
X168106152Y-106566791D02*
X168153771Y-106471553D01*
X168772819Y-105995362D02*
X167772819Y-105995362D01*
X168772819Y-105566791D02*
X168249009Y-105566791D01*
X168249009Y-105566791D02*
X168153771Y-105614410D01*
X168153771Y-105614410D02*
X168106152Y-105709648D01*
X168106152Y-105709648D02*
X168106152Y-105852505D01*
X168106152Y-105852505D02*
X168153771Y-105947743D01*
X168153771Y-105947743D02*
X168201390Y-105995362D01*
X168772819Y-105090600D02*
X168106152Y-105090600D01*
X168201390Y-105090600D02*
X168153771Y-105042981D01*
X168153771Y-105042981D02*
X168106152Y-104947743D01*
X168106152Y-104947743D02*
X168106152Y-104804886D01*
X168106152Y-104804886D02*
X168153771Y-104709648D01*
X168153771Y-104709648D02*
X168249009Y-104662029D01*
X168249009Y-104662029D02*
X168772819Y-104662029D01*
X168249009Y-104662029D02*
X168153771Y-104614410D01*
X168153771Y-104614410D02*
X168106152Y-104519172D01*
X168106152Y-104519172D02*
X168106152Y-104376315D01*
X168106152Y-104376315D02*
X168153771Y-104281076D01*
X168153771Y-104281076D02*
X168249009Y-104233457D01*
X168249009Y-104233457D02*
X168772819Y-104233457D01*
X168772819Y-103328696D02*
X168249009Y-103328696D01*
X168249009Y-103328696D02*
X168153771Y-103376315D01*
X168153771Y-103376315D02*
X168106152Y-103471553D01*
X168106152Y-103471553D02*
X168106152Y-103662029D01*
X168106152Y-103662029D02*
X168153771Y-103757267D01*
X168725200Y-103328696D02*
X168772819Y-103423934D01*
X168772819Y-103423934D02*
X168772819Y-103662029D01*
X168772819Y-103662029D02*
X168725200Y-103757267D01*
X168725200Y-103757267D02*
X168629961Y-103804886D01*
X168629961Y-103804886D02*
X168534723Y-103804886D01*
X168534723Y-103804886D02*
X168439485Y-103757267D01*
X168439485Y-103757267D02*
X168391866Y-103662029D01*
X168391866Y-103662029D02*
X168391866Y-103423934D01*
X168391866Y-103423934D02*
X168344247Y-103328696D01*
X168106152Y-102852505D02*
X168772819Y-102852505D01*
X168201390Y-102852505D02*
X168153771Y-102804886D01*
X168153771Y-102804886D02*
X168106152Y-102709648D01*
X168106152Y-102709648D02*
X168106152Y-102566791D01*
X168106152Y-102566791D02*
X168153771Y-102471553D01*
X168153771Y-102471553D02*
X168249009Y-102423934D01*
X168249009Y-102423934D02*
X168772819Y-102423934D01*
X167868057Y-101233457D02*
X167820438Y-101185838D01*
X167820438Y-101185838D02*
X167772819Y-101090600D01*
X167772819Y-101090600D02*
X167772819Y-100852505D01*
X167772819Y-100852505D02*
X167820438Y-100757267D01*
X167820438Y-100757267D02*
X167868057Y-100709648D01*
X167868057Y-100709648D02*
X167963295Y-100662029D01*
X167963295Y-100662029D02*
X168058533Y-100662029D01*
X168058533Y-100662029D02*
X168201390Y-100709648D01*
X168201390Y-100709648D02*
X168772819Y-101281076D01*
X168772819Y-101281076D02*
X168772819Y-100662029D01*
X167772819Y-100042981D02*
X167772819Y-99947743D01*
X167772819Y-99947743D02*
X167820438Y-99852505D01*
X167820438Y-99852505D02*
X167868057Y-99804886D01*
X167868057Y-99804886D02*
X167963295Y-99757267D01*
X167963295Y-99757267D02*
X168153771Y-99709648D01*
X168153771Y-99709648D02*
X168391866Y-99709648D01*
X168391866Y-99709648D02*
X168582342Y-99757267D01*
X168582342Y-99757267D02*
X168677580Y-99804886D01*
X168677580Y-99804886D02*
X168725200Y-99852505D01*
X168725200Y-99852505D02*
X168772819Y-99947743D01*
X168772819Y-99947743D02*
X168772819Y-100042981D01*
X168772819Y-100042981D02*
X168725200Y-100138219D01*
X168725200Y-100138219D02*
X168677580Y-100185838D01*
X168677580Y-100185838D02*
X168582342Y-100233457D01*
X168582342Y-100233457D02*
X168391866Y-100281076D01*
X168391866Y-100281076D02*
X168153771Y-100281076D01*
X168153771Y-100281076D02*
X167963295Y-100233457D01*
X167963295Y-100233457D02*
X167868057Y-100185838D01*
X167868057Y-100185838D02*
X167820438Y-100138219D01*
X167820438Y-100138219D02*
X167772819Y-100042981D01*
X167868057Y-99328695D02*
X167820438Y-99281076D01*
X167820438Y-99281076D02*
X167772819Y-99185838D01*
X167772819Y-99185838D02*
X167772819Y-98947743D01*
X167772819Y-98947743D02*
X167820438Y-98852505D01*
X167820438Y-98852505D02*
X167868057Y-98804886D01*
X167868057Y-98804886D02*
X167963295Y-98757267D01*
X167963295Y-98757267D02*
X168058533Y-98757267D01*
X168058533Y-98757267D02*
X168201390Y-98804886D01*
X168201390Y-98804886D02*
X168772819Y-99376314D01*
X168772819Y-99376314D02*
X168772819Y-98757267D01*
X167772819Y-97852505D02*
X167772819Y-98328695D01*
X167772819Y-98328695D02*
X168249009Y-98376314D01*
X168249009Y-98376314D02*
X168201390Y-98328695D01*
X168201390Y-98328695D02*
X168153771Y-98233457D01*
X168153771Y-98233457D02*
X168153771Y-97995362D01*
X168153771Y-97995362D02*
X168201390Y-97900124D01*
X168201390Y-97900124D02*
X168249009Y-97852505D01*
X168249009Y-97852505D02*
X168344247Y-97804886D01*
X168344247Y-97804886D02*
X168582342Y-97804886D01*
X168582342Y-97804886D02*
X168677580Y-97852505D01*
X168677580Y-97852505D02*
X168725200Y-97900124D01*
X168725200Y-97900124D02*
X168772819Y-97995362D01*
X168772819Y-97995362D02*
X168772819Y-98233457D01*
X168772819Y-98233457D02*
X168725200Y-98328695D01*
X168725200Y-98328695D02*
X168677580Y-98376314D01*
X154006779Y-115566819D02*
X154006779Y-114566819D01*
X154006779Y-114566819D02*
X154387731Y-114566819D01*
X154387731Y-114566819D02*
X154482969Y-114614438D01*
X154482969Y-114614438D02*
X154530588Y-114662057D01*
X154530588Y-114662057D02*
X154578207Y-114757295D01*
X154578207Y-114757295D02*
X154578207Y-114900152D01*
X154578207Y-114900152D02*
X154530588Y-114995390D01*
X154530588Y-114995390D02*
X154482969Y-115043009D01*
X154482969Y-115043009D02*
X154387731Y-115090628D01*
X154387731Y-115090628D02*
X154006779Y-115090628D01*
X155149636Y-115566819D02*
X155054398Y-115519200D01*
X155054398Y-115519200D02*
X155006779Y-115471580D01*
X155006779Y-115471580D02*
X154959160Y-115376342D01*
X154959160Y-115376342D02*
X154959160Y-115090628D01*
X154959160Y-115090628D02*
X155006779Y-114995390D01*
X155006779Y-114995390D02*
X155054398Y-114947771D01*
X155054398Y-114947771D02*
X155149636Y-114900152D01*
X155149636Y-114900152D02*
X155292493Y-114900152D01*
X155292493Y-114900152D02*
X155387731Y-114947771D01*
X155387731Y-114947771D02*
X155435350Y-114995390D01*
X155435350Y-114995390D02*
X155482969Y-115090628D01*
X155482969Y-115090628D02*
X155482969Y-115376342D01*
X155482969Y-115376342D02*
X155435350Y-115471580D01*
X155435350Y-115471580D02*
X155387731Y-115519200D01*
X155387731Y-115519200D02*
X155292493Y-115566819D01*
X155292493Y-115566819D02*
X155149636Y-115566819D01*
X155816303Y-114900152D02*
X156006779Y-115566819D01*
X156006779Y-115566819D02*
X156197255Y-115090628D01*
X156197255Y-115090628D02*
X156387731Y-115566819D01*
X156387731Y-115566819D02*
X156578207Y-114900152D01*
X157340112Y-115519200D02*
X157244874Y-115566819D01*
X157244874Y-115566819D02*
X157054398Y-115566819D01*
X157054398Y-115566819D02*
X156959160Y-115519200D01*
X156959160Y-115519200D02*
X156911541Y-115423961D01*
X156911541Y-115423961D02*
X156911541Y-115043009D01*
X156911541Y-115043009D02*
X156959160Y-114947771D01*
X156959160Y-114947771D02*
X157054398Y-114900152D01*
X157054398Y-114900152D02*
X157244874Y-114900152D01*
X157244874Y-114900152D02*
X157340112Y-114947771D01*
X157340112Y-114947771D02*
X157387731Y-115043009D01*
X157387731Y-115043009D02*
X157387731Y-115138247D01*
X157387731Y-115138247D02*
X156911541Y-115233485D01*
X157816303Y-115566819D02*
X157816303Y-114900152D01*
X157816303Y-115090628D02*
X157863922Y-114995390D01*
X157863922Y-114995390D02*
X157911541Y-114947771D01*
X157911541Y-114947771D02*
X158006779Y-114900152D01*
X158006779Y-114900152D02*
X158102017Y-114900152D01*
X159149637Y-115519200D02*
X159292494Y-115566819D01*
X159292494Y-115566819D02*
X159530589Y-115566819D01*
X159530589Y-115566819D02*
X159625827Y-115519200D01*
X159625827Y-115519200D02*
X159673446Y-115471580D01*
X159673446Y-115471580D02*
X159721065Y-115376342D01*
X159721065Y-115376342D02*
X159721065Y-115281104D01*
X159721065Y-115281104D02*
X159673446Y-115185866D01*
X159673446Y-115185866D02*
X159625827Y-115138247D01*
X159625827Y-115138247D02*
X159530589Y-115090628D01*
X159530589Y-115090628D02*
X159340113Y-115043009D01*
X159340113Y-115043009D02*
X159244875Y-114995390D01*
X159244875Y-114995390D02*
X159197256Y-114947771D01*
X159197256Y-114947771D02*
X159149637Y-114852533D01*
X159149637Y-114852533D02*
X159149637Y-114757295D01*
X159149637Y-114757295D02*
X159197256Y-114662057D01*
X159197256Y-114662057D02*
X159244875Y-114614438D01*
X159244875Y-114614438D02*
X159340113Y-114566819D01*
X159340113Y-114566819D02*
X159578208Y-114566819D01*
X159578208Y-114566819D02*
X159721065Y-114614438D01*
X160054399Y-114900152D02*
X160244875Y-115566819D01*
X160244875Y-115566819D02*
X160435351Y-115090628D01*
X160435351Y-115090628D02*
X160625827Y-115566819D01*
X160625827Y-115566819D02*
X160816303Y-114900152D01*
X161197256Y-115566819D02*
X161197256Y-114900152D01*
X161197256Y-114566819D02*
X161149637Y-114614438D01*
X161149637Y-114614438D02*
X161197256Y-114662057D01*
X161197256Y-114662057D02*
X161244875Y-114614438D01*
X161244875Y-114614438D02*
X161197256Y-114566819D01*
X161197256Y-114566819D02*
X161197256Y-114662057D01*
X161530589Y-114900152D02*
X161911541Y-114900152D01*
X161673446Y-114566819D02*
X161673446Y-115423961D01*
X161673446Y-115423961D02*
X161721065Y-115519200D01*
X161721065Y-115519200D02*
X161816303Y-115566819D01*
X161816303Y-115566819D02*
X161911541Y-115566819D01*
X162673446Y-115519200D02*
X162578208Y-115566819D01*
X162578208Y-115566819D02*
X162387732Y-115566819D01*
X162387732Y-115566819D02*
X162292494Y-115519200D01*
X162292494Y-115519200D02*
X162244875Y-115471580D01*
X162244875Y-115471580D02*
X162197256Y-115376342D01*
X162197256Y-115376342D02*
X162197256Y-115090628D01*
X162197256Y-115090628D02*
X162244875Y-114995390D01*
X162244875Y-114995390D02*
X162292494Y-114947771D01*
X162292494Y-114947771D02*
X162387732Y-114900152D01*
X162387732Y-114900152D02*
X162578208Y-114900152D01*
X162578208Y-114900152D02*
X162673446Y-114947771D01*
X163102018Y-115566819D02*
X163102018Y-114566819D01*
X163530589Y-115566819D02*
X163530589Y-115043009D01*
X163530589Y-115043009D02*
X163482970Y-114947771D01*
X163482970Y-114947771D02*
X163387732Y-114900152D01*
X163387732Y-114900152D02*
X163244875Y-114900152D01*
X163244875Y-114900152D02*
X163149637Y-114947771D01*
X163149637Y-114947771D02*
X163102018Y-114995390D01*
X150387255Y-115582819D02*
X150577731Y-115582819D01*
X150577731Y-115582819D02*
X150672969Y-115630438D01*
X150672969Y-115630438D02*
X150768207Y-115725676D01*
X150768207Y-115725676D02*
X150815826Y-115916152D01*
X150815826Y-115916152D02*
X150815826Y-116249485D01*
X150815826Y-116249485D02*
X150768207Y-116439961D01*
X150768207Y-116439961D02*
X150672969Y-116535200D01*
X150672969Y-116535200D02*
X150577731Y-116582819D01*
X150577731Y-116582819D02*
X150387255Y-116582819D01*
X150387255Y-116582819D02*
X150292017Y-116535200D01*
X150292017Y-116535200D02*
X150196779Y-116439961D01*
X150196779Y-116439961D02*
X150149160Y-116249485D01*
X150149160Y-116249485D02*
X150149160Y-115916152D01*
X150149160Y-115916152D02*
X150196779Y-115725676D01*
X150196779Y-115725676D02*
X150292017Y-115630438D01*
X150292017Y-115630438D02*
X150387255Y-115582819D01*
X151244398Y-116201866D02*
X152006303Y-116201866D01*
X147720255Y-115582819D02*
X147910731Y-115582819D01*
X147910731Y-115582819D02*
X148005969Y-115630438D01*
X148005969Y-115630438D02*
X148101207Y-115725676D01*
X148101207Y-115725676D02*
X148148826Y-115916152D01*
X148148826Y-115916152D02*
X148148826Y-116249485D01*
X148148826Y-116249485D02*
X148101207Y-116439961D01*
X148101207Y-116439961D02*
X148005969Y-116535200D01*
X148005969Y-116535200D02*
X147910731Y-116582819D01*
X147910731Y-116582819D02*
X147720255Y-116582819D01*
X147720255Y-116582819D02*
X147625017Y-116535200D01*
X147625017Y-116535200D02*
X147529779Y-116439961D01*
X147529779Y-116439961D02*
X147482160Y-116249485D01*
X147482160Y-116249485D02*
X147482160Y-115916152D01*
X147482160Y-115916152D02*
X147529779Y-115725676D01*
X147529779Y-115725676D02*
X147625017Y-115630438D01*
X147625017Y-115630438D02*
X147720255Y-115582819D01*
X148577398Y-116201866D02*
X149339303Y-116201866D01*
X148958350Y-116582819D02*
X148958350Y-115820914D01*
X163877762Y-92037819D02*
X164068238Y-92037819D01*
X164068238Y-92037819D02*
X164163476Y-92085438D01*
X164163476Y-92085438D02*
X164258714Y-92180676D01*
X164258714Y-92180676D02*
X164306333Y-92371152D01*
X164306333Y-92371152D02*
X164306333Y-92704485D01*
X164306333Y-92704485D02*
X164258714Y-92894961D01*
X164258714Y-92894961D02*
X164163476Y-92990200D01*
X164163476Y-92990200D02*
X164068238Y-93037819D01*
X164068238Y-93037819D02*
X163877762Y-93037819D01*
X163877762Y-93037819D02*
X163782524Y-92990200D01*
X163782524Y-92990200D02*
X163687286Y-92894961D01*
X163687286Y-92894961D02*
X163639667Y-92704485D01*
X163639667Y-92704485D02*
X163639667Y-92371152D01*
X163639667Y-92371152D02*
X163687286Y-92180676D01*
X163687286Y-92180676D02*
X163782524Y-92085438D01*
X163782524Y-92085438D02*
X163877762Y-92037819D01*
X165306333Y-93037819D02*
X164973000Y-92561628D01*
X164734905Y-93037819D02*
X164734905Y-92037819D01*
X164734905Y-92037819D02*
X165115857Y-92037819D01*
X165115857Y-92037819D02*
X165211095Y-92085438D01*
X165211095Y-92085438D02*
X165258714Y-92133057D01*
X165258714Y-92133057D02*
X165306333Y-92228295D01*
X165306333Y-92228295D02*
X165306333Y-92371152D01*
X165306333Y-92371152D02*
X165258714Y-92466390D01*
X165258714Y-92466390D02*
X165211095Y-92514009D01*
X165211095Y-92514009D02*
X165115857Y-92561628D01*
X165115857Y-92561628D02*
X164734905Y-92561628D01*
X166258714Y-92085438D02*
X166163476Y-92037819D01*
X166163476Y-92037819D02*
X166020619Y-92037819D01*
X166020619Y-92037819D02*
X165877762Y-92085438D01*
X165877762Y-92085438D02*
X165782524Y-92180676D01*
X165782524Y-92180676D02*
X165734905Y-92275914D01*
X165734905Y-92275914D02*
X165687286Y-92466390D01*
X165687286Y-92466390D02*
X165687286Y-92609247D01*
X165687286Y-92609247D02*
X165734905Y-92799723D01*
X165734905Y-92799723D02*
X165782524Y-92894961D01*
X165782524Y-92894961D02*
X165877762Y-92990200D01*
X165877762Y-92990200D02*
X166020619Y-93037819D01*
X166020619Y-93037819D02*
X166115857Y-93037819D01*
X166115857Y-93037819D02*
X166258714Y-92990200D01*
X166258714Y-92990200D02*
X166306333Y-92942580D01*
X166306333Y-92942580D02*
X166306333Y-92609247D01*
X166306333Y-92609247D02*
X166115857Y-92609247D01*
X164258714Y-95641319D02*
X163925381Y-95165128D01*
X163687286Y-95641319D02*
X163687286Y-94641319D01*
X163687286Y-94641319D02*
X164068238Y-94641319D01*
X164068238Y-94641319D02*
X164163476Y-94688938D01*
X164163476Y-94688938D02*
X164211095Y-94736557D01*
X164211095Y-94736557D02*
X164258714Y-94831795D01*
X164258714Y-94831795D02*
X164258714Y-94974652D01*
X164258714Y-94974652D02*
X164211095Y-95069890D01*
X164211095Y-95069890D02*
X164163476Y-95117509D01*
X164163476Y-95117509D02*
X164068238Y-95165128D01*
X164068238Y-95165128D02*
X163687286Y-95165128D01*
X164687286Y-95117509D02*
X165020619Y-95117509D01*
X165163476Y-95641319D02*
X164687286Y-95641319D01*
X164687286Y-95641319D02*
X164687286Y-94641319D01*
X164687286Y-94641319D02*
X165163476Y-94641319D01*
X165592048Y-95641319D02*
X165592048Y-94641319D01*
X165592048Y-94641319D02*
X165830143Y-94641319D01*
X165830143Y-94641319D02*
X165973000Y-94688938D01*
X165973000Y-94688938D02*
X166068238Y-94784176D01*
X166068238Y-94784176D02*
X166115857Y-94879414D01*
X166115857Y-94879414D02*
X166163476Y-95069890D01*
X166163476Y-95069890D02*
X166163476Y-95212747D01*
X166163476Y-95212747D02*
X166115857Y-95403223D01*
X166115857Y-95403223D02*
X166068238Y-95498461D01*
X166068238Y-95498461D02*
X165973000Y-95593700D01*
X165973000Y-95593700D02*
X165830143Y-95641319D01*
X165830143Y-95641319D02*
X165592048Y-95641319D01*
X164020619Y-97721009D02*
X164163476Y-97768628D01*
X164163476Y-97768628D02*
X164211095Y-97816247D01*
X164211095Y-97816247D02*
X164258714Y-97911485D01*
X164258714Y-97911485D02*
X164258714Y-98054342D01*
X164258714Y-98054342D02*
X164211095Y-98149580D01*
X164211095Y-98149580D02*
X164163476Y-98197200D01*
X164163476Y-98197200D02*
X164068238Y-98244819D01*
X164068238Y-98244819D02*
X163687286Y-98244819D01*
X163687286Y-98244819D02*
X163687286Y-97244819D01*
X163687286Y-97244819D02*
X164020619Y-97244819D01*
X164020619Y-97244819D02*
X164115857Y-97292438D01*
X164115857Y-97292438D02*
X164163476Y-97340057D01*
X164163476Y-97340057D02*
X164211095Y-97435295D01*
X164211095Y-97435295D02*
X164211095Y-97530533D01*
X164211095Y-97530533D02*
X164163476Y-97625771D01*
X164163476Y-97625771D02*
X164115857Y-97673390D01*
X164115857Y-97673390D02*
X164020619Y-97721009D01*
X164020619Y-97721009D02*
X163687286Y-97721009D01*
X165258714Y-98244819D02*
X164925381Y-97768628D01*
X164687286Y-98244819D02*
X164687286Y-97244819D01*
X164687286Y-97244819D02*
X165068238Y-97244819D01*
X165068238Y-97244819D02*
X165163476Y-97292438D01*
X165163476Y-97292438D02*
X165211095Y-97340057D01*
X165211095Y-97340057D02*
X165258714Y-97435295D01*
X165258714Y-97435295D02*
X165258714Y-97578152D01*
X165258714Y-97578152D02*
X165211095Y-97673390D01*
X165211095Y-97673390D02*
X165163476Y-97721009D01*
X165163476Y-97721009D02*
X165068238Y-97768628D01*
X165068238Y-97768628D02*
X164687286Y-97768628D01*
X165687286Y-98244819D02*
X165687286Y-97244819D01*
X165687286Y-97244819D02*
X166258714Y-98244819D01*
X166258714Y-98244819D02*
X166258714Y-97244819D01*
X158184666Y-112992819D02*
X158184666Y-113707104D01*
X158184666Y-113707104D02*
X158137047Y-113849961D01*
X158137047Y-113849961D02*
X158041809Y-113945200D01*
X158041809Y-113945200D02*
X157898952Y-113992819D01*
X157898952Y-113992819D02*
X157803714Y-113992819D01*
X158613238Y-113088057D02*
X158660857Y-113040438D01*
X158660857Y-113040438D02*
X158756095Y-112992819D01*
X158756095Y-112992819D02*
X158994190Y-112992819D01*
X158994190Y-112992819D02*
X159089428Y-113040438D01*
X159089428Y-113040438D02*
X159137047Y-113088057D01*
X159137047Y-113088057D02*
X159184666Y-113183295D01*
X159184666Y-113183295D02*
X159184666Y-113278533D01*
X159184666Y-113278533D02*
X159137047Y-113421390D01*
X159137047Y-113421390D02*
X158565619Y-113992819D01*
X158565619Y-113992819D02*
X159184666Y-113992819D01*
X149845095Y-88320819D02*
X149845095Y-89130342D01*
X149845095Y-89130342D02*
X149892714Y-89225580D01*
X149892714Y-89225580D02*
X149940333Y-89273200D01*
X149940333Y-89273200D02*
X150035571Y-89320819D01*
X150035571Y-89320819D02*
X150226047Y-89320819D01*
X150226047Y-89320819D02*
X150321285Y-89273200D01*
X150321285Y-89273200D02*
X150368904Y-89225580D01*
X150368904Y-89225580D02*
X150416523Y-89130342D01*
X150416523Y-89130342D02*
X150416523Y-88320819D01*
X151416523Y-89320819D02*
X150845095Y-89320819D01*
X151130809Y-89320819D02*
X151130809Y-88320819D01*
X151130809Y-88320819D02*
X151035571Y-88463676D01*
X151035571Y-88463676D02*
X150940333Y-88558914D01*
X150940333Y-88558914D02*
X150845095Y-88606533D01*
X159702667Y-102090200D02*
X159845524Y-102137819D01*
X159845524Y-102137819D02*
X160083619Y-102137819D01*
X160083619Y-102137819D02*
X160178857Y-102090200D01*
X160178857Y-102090200D02*
X160226476Y-102042580D01*
X160226476Y-102042580D02*
X160274095Y-101947342D01*
X160274095Y-101947342D02*
X160274095Y-101852104D01*
X160274095Y-101852104D02*
X160226476Y-101756866D01*
X160226476Y-101756866D02*
X160178857Y-101709247D01*
X160178857Y-101709247D02*
X160083619Y-101661628D01*
X160083619Y-101661628D02*
X159893143Y-101614009D01*
X159893143Y-101614009D02*
X159797905Y-101566390D01*
X159797905Y-101566390D02*
X159750286Y-101518771D01*
X159750286Y-101518771D02*
X159702667Y-101423533D01*
X159702667Y-101423533D02*
X159702667Y-101328295D01*
X159702667Y-101328295D02*
X159750286Y-101233057D01*
X159750286Y-101233057D02*
X159797905Y-101185438D01*
X159797905Y-101185438D02*
X159893143Y-101137819D01*
X159893143Y-101137819D02*
X160131238Y-101137819D01*
X160131238Y-101137819D02*
X160274095Y-101185438D01*
X160607429Y-101137819D02*
X160845524Y-102137819D01*
X160845524Y-102137819D02*
X161036000Y-101423533D01*
X161036000Y-101423533D02*
X161226476Y-102137819D01*
X161226476Y-102137819D02*
X161464572Y-101137819D01*
X162369333Y-102137819D02*
X161797905Y-102137819D01*
X162083619Y-102137819D02*
X162083619Y-101137819D01*
X162083619Y-101137819D02*
X161988381Y-101280676D01*
X161988381Y-101280676D02*
X161893143Y-101375914D01*
X161893143Y-101375914D02*
X161797905Y-101423533D01*
X137247333Y-110352819D02*
X136914000Y-109876628D01*
X136675905Y-110352819D02*
X136675905Y-109352819D01*
X136675905Y-109352819D02*
X137056857Y-109352819D01*
X137056857Y-109352819D02*
X137152095Y-109400438D01*
X137152095Y-109400438D02*
X137199714Y-109448057D01*
X137199714Y-109448057D02*
X137247333Y-109543295D01*
X137247333Y-109543295D02*
X137247333Y-109686152D01*
X137247333Y-109686152D02*
X137199714Y-109781390D01*
X137199714Y-109781390D02*
X137152095Y-109829009D01*
X137152095Y-109829009D02*
X137056857Y-109876628D01*
X137056857Y-109876628D02*
X136675905Y-109876628D01*
X138152095Y-109352819D02*
X137675905Y-109352819D01*
X137675905Y-109352819D02*
X137628286Y-109829009D01*
X137628286Y-109829009D02*
X137675905Y-109781390D01*
X137675905Y-109781390D02*
X137771143Y-109733771D01*
X137771143Y-109733771D02*
X138009238Y-109733771D01*
X138009238Y-109733771D02*
X138104476Y-109781390D01*
X138104476Y-109781390D02*
X138152095Y-109829009D01*
X138152095Y-109829009D02*
X138199714Y-109924247D01*
X138199714Y-109924247D02*
X138199714Y-110162342D01*
X138199714Y-110162342D02*
X138152095Y-110257580D01*
X138152095Y-110257580D02*
X138104476Y-110305200D01*
X138104476Y-110305200D02*
X138009238Y-110352819D01*
X138009238Y-110352819D02*
X137771143Y-110352819D01*
X137771143Y-110352819D02*
X137675905Y-110305200D01*
X137675905Y-110305200D02*
X137628286Y-110257580D01*
X135675904Y-115092819D02*
X135104476Y-115092819D01*
X135390190Y-115092819D02*
X135390190Y-114092819D01*
X135390190Y-114092819D02*
X135294952Y-114235676D01*
X135294952Y-114235676D02*
X135199714Y-114330914D01*
X135199714Y-114330914D02*
X135104476Y-114378533D01*
X136294952Y-114092819D02*
X136390190Y-114092819D01*
X136390190Y-114092819D02*
X136485428Y-114140438D01*
X136485428Y-114140438D02*
X136533047Y-114188057D01*
X136533047Y-114188057D02*
X136580666Y-114283295D01*
X136580666Y-114283295D02*
X136628285Y-114473771D01*
X136628285Y-114473771D02*
X136628285Y-114711866D01*
X136628285Y-114711866D02*
X136580666Y-114902342D01*
X136580666Y-114902342D02*
X136533047Y-114997580D01*
X136533047Y-114997580D02*
X136485428Y-115045200D01*
X136485428Y-115045200D02*
X136390190Y-115092819D01*
X136390190Y-115092819D02*
X136294952Y-115092819D01*
X136294952Y-115092819D02*
X136199714Y-115045200D01*
X136199714Y-115045200D02*
X136152095Y-114997580D01*
X136152095Y-114997580D02*
X136104476Y-114902342D01*
X136104476Y-114902342D02*
X136056857Y-114711866D01*
X136056857Y-114711866D02*
X136056857Y-114473771D01*
X136056857Y-114473771D02*
X136104476Y-114283295D01*
X136104476Y-114283295D02*
X136152095Y-114188057D01*
X136152095Y-114188057D02*
X136199714Y-114140438D01*
X136199714Y-114140438D02*
X136294952Y-114092819D01*
X137247333Y-114092819D02*
X137342571Y-114092819D01*
X137342571Y-114092819D02*
X137437809Y-114140438D01*
X137437809Y-114140438D02*
X137485428Y-114188057D01*
X137485428Y-114188057D02*
X137533047Y-114283295D01*
X137533047Y-114283295D02*
X137580666Y-114473771D01*
X137580666Y-114473771D02*
X137580666Y-114711866D01*
X137580666Y-114711866D02*
X137533047Y-114902342D01*
X137533047Y-114902342D02*
X137485428Y-114997580D01*
X137485428Y-114997580D02*
X137437809Y-115045200D01*
X137437809Y-115045200D02*
X137342571Y-115092819D01*
X137342571Y-115092819D02*
X137247333Y-115092819D01*
X137247333Y-115092819D02*
X137152095Y-115045200D01*
X137152095Y-115045200D02*
X137104476Y-114997580D01*
X137104476Y-114997580D02*
X137056857Y-114902342D01*
X137056857Y-114902342D02*
X137009238Y-114711866D01*
X137009238Y-114711866D02*
X137009238Y-114473771D01*
X137009238Y-114473771D02*
X137056857Y-114283295D01*
X137056857Y-114283295D02*
X137104476Y-114188057D01*
X137104476Y-114188057D02*
X137152095Y-114140438D01*
X137152095Y-114140438D02*
X137247333Y-114092819D01*
X138009238Y-115092819D02*
X138009238Y-114092819D01*
X138580666Y-115092819D02*
X138152095Y-114521390D01*
X138580666Y-114092819D02*
X138009238Y-114664247D01*
X138961619Y-115092819D02*
X139199714Y-115092819D01*
X139199714Y-115092819D02*
X139199714Y-114902342D01*
X139199714Y-114902342D02*
X139104476Y-114854723D01*
X139104476Y-114854723D02*
X139009238Y-114759485D01*
X139009238Y-114759485D02*
X138961619Y-114616628D01*
X138961619Y-114616628D02*
X138961619Y-114378533D01*
X138961619Y-114378533D02*
X139009238Y-114235676D01*
X139009238Y-114235676D02*
X139104476Y-114140438D01*
X139104476Y-114140438D02*
X139247333Y-114092819D01*
X139247333Y-114092819D02*
X139437809Y-114092819D01*
X139437809Y-114092819D02*
X139580666Y-114140438D01*
X139580666Y-114140438D02*
X139675904Y-114235676D01*
X139675904Y-114235676D02*
X139723523Y-114378533D01*
X139723523Y-114378533D02*
X139723523Y-114616628D01*
X139723523Y-114616628D02*
X139675904Y-114759485D01*
X139675904Y-114759485D02*
X139580666Y-114854723D01*
X139580666Y-114854723D02*
X139485428Y-114902342D01*
X139485428Y-114902342D02*
X139485428Y-115092819D01*
X139485428Y-115092819D02*
X139723523Y-115092819D01*
X137247333Y-103145569D02*
X136914000Y-102669378D01*
X136675905Y-103145569D02*
X136675905Y-102145569D01*
X136675905Y-102145569D02*
X137056857Y-102145569D01*
X137056857Y-102145569D02*
X137152095Y-102193188D01*
X137152095Y-102193188D02*
X137199714Y-102240807D01*
X137199714Y-102240807D02*
X137247333Y-102336045D01*
X137247333Y-102336045D02*
X137247333Y-102478902D01*
X137247333Y-102478902D02*
X137199714Y-102574140D01*
X137199714Y-102574140D02*
X137152095Y-102621759D01*
X137152095Y-102621759D02*
X137056857Y-102669378D01*
X137056857Y-102669378D02*
X136675905Y-102669378D01*
X138104476Y-102478902D02*
X138104476Y-103145569D01*
X137866381Y-102097950D02*
X137628286Y-102812235D01*
X137628286Y-102812235D02*
X138247333Y-102812235D01*
X135842571Y-107885569D02*
X135271143Y-107885569D01*
X135556857Y-107885569D02*
X135556857Y-106885569D01*
X135556857Y-106885569D02*
X135461619Y-107028426D01*
X135461619Y-107028426D02*
X135366381Y-107123664D01*
X135366381Y-107123664D02*
X135271143Y-107171283D01*
X136271143Y-107790330D02*
X136318762Y-107837950D01*
X136318762Y-107837950D02*
X136271143Y-107885569D01*
X136271143Y-107885569D02*
X136223524Y-107837950D01*
X136223524Y-107837950D02*
X136271143Y-107790330D01*
X136271143Y-107790330D02*
X136271143Y-107885569D01*
X136699714Y-106980807D02*
X136747333Y-106933188D01*
X136747333Y-106933188D02*
X136842571Y-106885569D01*
X136842571Y-106885569D02*
X137080666Y-106885569D01*
X137080666Y-106885569D02*
X137175904Y-106933188D01*
X137175904Y-106933188D02*
X137223523Y-106980807D01*
X137223523Y-106980807D02*
X137271142Y-107076045D01*
X137271142Y-107076045D02*
X137271142Y-107171283D01*
X137271142Y-107171283D02*
X137223523Y-107314140D01*
X137223523Y-107314140D02*
X136652095Y-107885569D01*
X136652095Y-107885569D02*
X137271142Y-107885569D01*
X137699714Y-107885569D02*
X137699714Y-106885569D01*
X137699714Y-106885569D02*
X138033047Y-107599854D01*
X138033047Y-107599854D02*
X138366380Y-106885569D01*
X138366380Y-106885569D02*
X138366380Y-107885569D01*
X138794952Y-107885569D02*
X139033047Y-107885569D01*
X139033047Y-107885569D02*
X139033047Y-107695092D01*
X139033047Y-107695092D02*
X138937809Y-107647473D01*
X138937809Y-107647473D02*
X138842571Y-107552235D01*
X138842571Y-107552235D02*
X138794952Y-107409378D01*
X138794952Y-107409378D02*
X138794952Y-107171283D01*
X138794952Y-107171283D02*
X138842571Y-107028426D01*
X138842571Y-107028426D02*
X138937809Y-106933188D01*
X138937809Y-106933188D02*
X139080666Y-106885569D01*
X139080666Y-106885569D02*
X139271142Y-106885569D01*
X139271142Y-106885569D02*
X139413999Y-106933188D01*
X139413999Y-106933188D02*
X139509237Y-107028426D01*
X139509237Y-107028426D02*
X139556856Y-107171283D01*
X139556856Y-107171283D02*
X139556856Y-107409378D01*
X139556856Y-107409378D02*
X139509237Y-107552235D01*
X139509237Y-107552235D02*
X139413999Y-107647473D01*
X139413999Y-107647473D02*
X139318761Y-107695092D01*
X139318761Y-107695092D02*
X139318761Y-107885569D01*
X139318761Y-107885569D02*
X139556856Y-107885569D01*
X137247333Y-95938319D02*
X136914000Y-95462128D01*
X136675905Y-95938319D02*
X136675905Y-94938319D01*
X136675905Y-94938319D02*
X137056857Y-94938319D01*
X137056857Y-94938319D02*
X137152095Y-94985938D01*
X137152095Y-94985938D02*
X137199714Y-95033557D01*
X137199714Y-95033557D02*
X137247333Y-95128795D01*
X137247333Y-95128795D02*
X137247333Y-95271652D01*
X137247333Y-95271652D02*
X137199714Y-95366890D01*
X137199714Y-95366890D02*
X137152095Y-95414509D01*
X137152095Y-95414509D02*
X137056857Y-95462128D01*
X137056857Y-95462128D02*
X136675905Y-95462128D01*
X137580667Y-94938319D02*
X138199714Y-94938319D01*
X138199714Y-94938319D02*
X137866381Y-95319271D01*
X137866381Y-95319271D02*
X138009238Y-95319271D01*
X138009238Y-95319271D02*
X138104476Y-95366890D01*
X138104476Y-95366890D02*
X138152095Y-95414509D01*
X138152095Y-95414509D02*
X138199714Y-95509747D01*
X138199714Y-95509747D02*
X138199714Y-95747842D01*
X138199714Y-95747842D02*
X138152095Y-95843080D01*
X138152095Y-95843080D02*
X138104476Y-95890700D01*
X138104476Y-95890700D02*
X138009238Y-95938319D01*
X138009238Y-95938319D02*
X137723524Y-95938319D01*
X137723524Y-95938319D02*
X137628286Y-95890700D01*
X137628286Y-95890700D02*
X137580667Y-95843080D01*
X135675904Y-100678319D02*
X135104476Y-100678319D01*
X135390190Y-100678319D02*
X135390190Y-99678319D01*
X135390190Y-99678319D02*
X135294952Y-99821176D01*
X135294952Y-99821176D02*
X135199714Y-99916414D01*
X135199714Y-99916414D02*
X135104476Y-99964033D01*
X136294952Y-99678319D02*
X136390190Y-99678319D01*
X136390190Y-99678319D02*
X136485428Y-99725938D01*
X136485428Y-99725938D02*
X136533047Y-99773557D01*
X136533047Y-99773557D02*
X136580666Y-99868795D01*
X136580666Y-99868795D02*
X136628285Y-100059271D01*
X136628285Y-100059271D02*
X136628285Y-100297366D01*
X136628285Y-100297366D02*
X136580666Y-100487842D01*
X136580666Y-100487842D02*
X136533047Y-100583080D01*
X136533047Y-100583080D02*
X136485428Y-100630700D01*
X136485428Y-100630700D02*
X136390190Y-100678319D01*
X136390190Y-100678319D02*
X136294952Y-100678319D01*
X136294952Y-100678319D02*
X136199714Y-100630700D01*
X136199714Y-100630700D02*
X136152095Y-100583080D01*
X136152095Y-100583080D02*
X136104476Y-100487842D01*
X136104476Y-100487842D02*
X136056857Y-100297366D01*
X136056857Y-100297366D02*
X136056857Y-100059271D01*
X136056857Y-100059271D02*
X136104476Y-99868795D01*
X136104476Y-99868795D02*
X136152095Y-99773557D01*
X136152095Y-99773557D02*
X136199714Y-99725938D01*
X136199714Y-99725938D02*
X136294952Y-99678319D01*
X137247333Y-99678319D02*
X137342571Y-99678319D01*
X137342571Y-99678319D02*
X137437809Y-99725938D01*
X137437809Y-99725938D02*
X137485428Y-99773557D01*
X137485428Y-99773557D02*
X137533047Y-99868795D01*
X137533047Y-99868795D02*
X137580666Y-100059271D01*
X137580666Y-100059271D02*
X137580666Y-100297366D01*
X137580666Y-100297366D02*
X137533047Y-100487842D01*
X137533047Y-100487842D02*
X137485428Y-100583080D01*
X137485428Y-100583080D02*
X137437809Y-100630700D01*
X137437809Y-100630700D02*
X137342571Y-100678319D01*
X137342571Y-100678319D02*
X137247333Y-100678319D01*
X137247333Y-100678319D02*
X137152095Y-100630700D01*
X137152095Y-100630700D02*
X137104476Y-100583080D01*
X137104476Y-100583080D02*
X137056857Y-100487842D01*
X137056857Y-100487842D02*
X137009238Y-100297366D01*
X137009238Y-100297366D02*
X137009238Y-100059271D01*
X137009238Y-100059271D02*
X137056857Y-99868795D01*
X137056857Y-99868795D02*
X137104476Y-99773557D01*
X137104476Y-99773557D02*
X137152095Y-99725938D01*
X137152095Y-99725938D02*
X137247333Y-99678319D01*
X138009238Y-100678319D02*
X138009238Y-99678319D01*
X138580666Y-100678319D02*
X138152095Y-100106890D01*
X138580666Y-99678319D02*
X138009238Y-100249747D01*
X138961619Y-100678319D02*
X139199714Y-100678319D01*
X139199714Y-100678319D02*
X139199714Y-100487842D01*
X139199714Y-100487842D02*
X139104476Y-100440223D01*
X139104476Y-100440223D02*
X139009238Y-100344985D01*
X139009238Y-100344985D02*
X138961619Y-100202128D01*
X138961619Y-100202128D02*
X138961619Y-99964033D01*
X138961619Y-99964033D02*
X139009238Y-99821176D01*
X139009238Y-99821176D02*
X139104476Y-99725938D01*
X139104476Y-99725938D02*
X139247333Y-99678319D01*
X139247333Y-99678319D02*
X139437809Y-99678319D01*
X139437809Y-99678319D02*
X139580666Y-99725938D01*
X139580666Y-99725938D02*
X139675904Y-99821176D01*
X139675904Y-99821176D02*
X139723523Y-99964033D01*
X139723523Y-99964033D02*
X139723523Y-100202128D01*
X139723523Y-100202128D02*
X139675904Y-100344985D01*
X139675904Y-100344985D02*
X139580666Y-100440223D01*
X139580666Y-100440223D02*
X139485428Y-100487842D01*
X139485428Y-100487842D02*
X139485428Y-100678319D01*
X139485428Y-100678319D02*
X139723523Y-100678319D01*
X137247333Y-88731069D02*
X136914000Y-88254878D01*
X136675905Y-88731069D02*
X136675905Y-87731069D01*
X136675905Y-87731069D02*
X137056857Y-87731069D01*
X137056857Y-87731069D02*
X137152095Y-87778688D01*
X137152095Y-87778688D02*
X137199714Y-87826307D01*
X137199714Y-87826307D02*
X137247333Y-87921545D01*
X137247333Y-87921545D02*
X137247333Y-88064402D01*
X137247333Y-88064402D02*
X137199714Y-88159640D01*
X137199714Y-88159640D02*
X137152095Y-88207259D01*
X137152095Y-88207259D02*
X137056857Y-88254878D01*
X137056857Y-88254878D02*
X136675905Y-88254878D01*
X137628286Y-87826307D02*
X137675905Y-87778688D01*
X137675905Y-87778688D02*
X137771143Y-87731069D01*
X137771143Y-87731069D02*
X138009238Y-87731069D01*
X138009238Y-87731069D02*
X138104476Y-87778688D01*
X138104476Y-87778688D02*
X138152095Y-87826307D01*
X138152095Y-87826307D02*
X138199714Y-87921545D01*
X138199714Y-87921545D02*
X138199714Y-88016783D01*
X138199714Y-88016783D02*
X138152095Y-88159640D01*
X138152095Y-88159640D02*
X137580667Y-88731069D01*
X137580667Y-88731069D02*
X138199714Y-88731069D01*
X135580667Y-92566307D02*
X135628286Y-92518688D01*
X135628286Y-92518688D02*
X135723524Y-92471069D01*
X135723524Y-92471069D02*
X135961619Y-92471069D01*
X135961619Y-92471069D02*
X136056857Y-92518688D01*
X136056857Y-92518688D02*
X136104476Y-92566307D01*
X136104476Y-92566307D02*
X136152095Y-92661545D01*
X136152095Y-92661545D02*
X136152095Y-92756783D01*
X136152095Y-92756783D02*
X136104476Y-92899640D01*
X136104476Y-92899640D02*
X135533048Y-93471069D01*
X135533048Y-93471069D02*
X136152095Y-93471069D01*
X136485429Y-92471069D02*
X137152095Y-92471069D01*
X137152095Y-92471069D02*
X136723524Y-93471069D01*
X137533048Y-93471069D02*
X137533048Y-92471069D01*
X138104476Y-93471069D02*
X137675905Y-92899640D01*
X138104476Y-92471069D02*
X137533048Y-93042497D01*
X138485429Y-93471069D02*
X138723524Y-93471069D01*
X138723524Y-93471069D02*
X138723524Y-93280592D01*
X138723524Y-93280592D02*
X138628286Y-93232973D01*
X138628286Y-93232973D02*
X138533048Y-93137735D01*
X138533048Y-93137735D02*
X138485429Y-92994878D01*
X138485429Y-92994878D02*
X138485429Y-92756783D01*
X138485429Y-92756783D02*
X138533048Y-92613926D01*
X138533048Y-92613926D02*
X138628286Y-92518688D01*
X138628286Y-92518688D02*
X138771143Y-92471069D01*
X138771143Y-92471069D02*
X138961619Y-92471069D01*
X138961619Y-92471069D02*
X139104476Y-92518688D01*
X139104476Y-92518688D02*
X139199714Y-92613926D01*
X139199714Y-92613926D02*
X139247333Y-92756783D01*
X139247333Y-92756783D02*
X139247333Y-92994878D01*
X139247333Y-92994878D02*
X139199714Y-93137735D01*
X139199714Y-93137735D02*
X139104476Y-93232973D01*
X139104476Y-93232973D02*
X139009238Y-93280592D01*
X139009238Y-93280592D02*
X139009238Y-93471069D01*
X139009238Y-93471069D02*
X139247333Y-93471069D01*
X137247333Y-81523819D02*
X136914000Y-81047628D01*
X136675905Y-81523819D02*
X136675905Y-80523819D01*
X136675905Y-80523819D02*
X137056857Y-80523819D01*
X137056857Y-80523819D02*
X137152095Y-80571438D01*
X137152095Y-80571438D02*
X137199714Y-80619057D01*
X137199714Y-80619057D02*
X137247333Y-80714295D01*
X137247333Y-80714295D02*
X137247333Y-80857152D01*
X137247333Y-80857152D02*
X137199714Y-80952390D01*
X137199714Y-80952390D02*
X137152095Y-81000009D01*
X137152095Y-81000009D02*
X137056857Y-81047628D01*
X137056857Y-81047628D02*
X136675905Y-81047628D01*
X138199714Y-81523819D02*
X137628286Y-81523819D01*
X137914000Y-81523819D02*
X137914000Y-80523819D01*
X137914000Y-80523819D02*
X137818762Y-80666676D01*
X137818762Y-80666676D02*
X137723524Y-80761914D01*
X137723524Y-80761914D02*
X137628286Y-80809533D01*
X136128285Y-85263819D02*
X135652095Y-85263819D01*
X135652095Y-85263819D02*
X135604476Y-85740009D01*
X135604476Y-85740009D02*
X135652095Y-85692390D01*
X135652095Y-85692390D02*
X135747333Y-85644771D01*
X135747333Y-85644771D02*
X135985428Y-85644771D01*
X135985428Y-85644771D02*
X136080666Y-85692390D01*
X136080666Y-85692390D02*
X136128285Y-85740009D01*
X136128285Y-85740009D02*
X136175904Y-85835247D01*
X136175904Y-85835247D02*
X136175904Y-86073342D01*
X136175904Y-86073342D02*
X136128285Y-86168580D01*
X136128285Y-86168580D02*
X136080666Y-86216200D01*
X136080666Y-86216200D02*
X135985428Y-86263819D01*
X135985428Y-86263819D02*
X135747333Y-86263819D01*
X135747333Y-86263819D02*
X135652095Y-86216200D01*
X135652095Y-86216200D02*
X135604476Y-86168580D01*
X137033047Y-85263819D02*
X136842571Y-85263819D01*
X136842571Y-85263819D02*
X136747333Y-85311438D01*
X136747333Y-85311438D02*
X136699714Y-85359057D01*
X136699714Y-85359057D02*
X136604476Y-85501914D01*
X136604476Y-85501914D02*
X136556857Y-85692390D01*
X136556857Y-85692390D02*
X136556857Y-86073342D01*
X136556857Y-86073342D02*
X136604476Y-86168580D01*
X136604476Y-86168580D02*
X136652095Y-86216200D01*
X136652095Y-86216200D02*
X136747333Y-86263819D01*
X136747333Y-86263819D02*
X136937809Y-86263819D01*
X136937809Y-86263819D02*
X137033047Y-86216200D01*
X137033047Y-86216200D02*
X137080666Y-86168580D01*
X137080666Y-86168580D02*
X137128285Y-86073342D01*
X137128285Y-86073342D02*
X137128285Y-85835247D01*
X137128285Y-85835247D02*
X137080666Y-85740009D01*
X137080666Y-85740009D02*
X137033047Y-85692390D01*
X137033047Y-85692390D02*
X136937809Y-85644771D01*
X136937809Y-85644771D02*
X136747333Y-85644771D01*
X136747333Y-85644771D02*
X136652095Y-85692390D01*
X136652095Y-85692390D02*
X136604476Y-85740009D01*
X136604476Y-85740009D02*
X136556857Y-85835247D01*
X137747333Y-85263819D02*
X137842571Y-85263819D01*
X137842571Y-85263819D02*
X137937809Y-85311438D01*
X137937809Y-85311438D02*
X137985428Y-85359057D01*
X137985428Y-85359057D02*
X138033047Y-85454295D01*
X138033047Y-85454295D02*
X138080666Y-85644771D01*
X138080666Y-85644771D02*
X138080666Y-85882866D01*
X138080666Y-85882866D02*
X138033047Y-86073342D01*
X138033047Y-86073342D02*
X137985428Y-86168580D01*
X137985428Y-86168580D02*
X137937809Y-86216200D01*
X137937809Y-86216200D02*
X137842571Y-86263819D01*
X137842571Y-86263819D02*
X137747333Y-86263819D01*
X137747333Y-86263819D02*
X137652095Y-86216200D01*
X137652095Y-86216200D02*
X137604476Y-86168580D01*
X137604476Y-86168580D02*
X137556857Y-86073342D01*
X137556857Y-86073342D02*
X137509238Y-85882866D01*
X137509238Y-85882866D02*
X137509238Y-85644771D01*
X137509238Y-85644771D02*
X137556857Y-85454295D01*
X137556857Y-85454295D02*
X137604476Y-85359057D01*
X137604476Y-85359057D02*
X137652095Y-85311438D01*
X137652095Y-85311438D02*
X137747333Y-85263819D01*
X138461619Y-86263819D02*
X138699714Y-86263819D01*
X138699714Y-86263819D02*
X138699714Y-86073342D01*
X138699714Y-86073342D02*
X138604476Y-86025723D01*
X138604476Y-86025723D02*
X138509238Y-85930485D01*
X138509238Y-85930485D02*
X138461619Y-85787628D01*
X138461619Y-85787628D02*
X138461619Y-85549533D01*
X138461619Y-85549533D02*
X138509238Y-85406676D01*
X138509238Y-85406676D02*
X138604476Y-85311438D01*
X138604476Y-85311438D02*
X138747333Y-85263819D01*
X138747333Y-85263819D02*
X138937809Y-85263819D01*
X138937809Y-85263819D02*
X139080666Y-85311438D01*
X139080666Y-85311438D02*
X139175904Y-85406676D01*
X139175904Y-85406676D02*
X139223523Y-85549533D01*
X139223523Y-85549533D02*
X139223523Y-85787628D01*
X139223523Y-85787628D02*
X139175904Y-85930485D01*
X139175904Y-85930485D02*
X139080666Y-86025723D01*
X139080666Y-86025723D02*
X138985428Y-86073342D01*
X138985428Y-86073342D02*
X138985428Y-86263819D01*
X138985428Y-86263819D02*
X139223523Y-86263819D01*
X160702666Y-89595819D02*
X160702666Y-90310104D01*
X160702666Y-90310104D02*
X160655047Y-90452961D01*
X160655047Y-90452961D02*
X160559809Y-90548200D01*
X160559809Y-90548200D02*
X160416952Y-90595819D01*
X160416952Y-90595819D02*
X160321714Y-90595819D01*
X161083619Y-89595819D02*
X161702666Y-89595819D01*
X161702666Y-89595819D02*
X161369333Y-89976771D01*
X161369333Y-89976771D02*
X161512190Y-89976771D01*
X161512190Y-89976771D02*
X161607428Y-90024390D01*
X161607428Y-90024390D02*
X161655047Y-90072009D01*
X161655047Y-90072009D02*
X161702666Y-90167247D01*
X161702666Y-90167247D02*
X161702666Y-90405342D01*
X161702666Y-90405342D02*
X161655047Y-90500580D01*
X161655047Y-90500580D02*
X161607428Y-90548200D01*
X161607428Y-90548200D02*
X161512190Y-90595819D01*
X161512190Y-90595819D02*
X161226476Y-90595819D01*
X161226476Y-90595819D02*
X161131238Y-90548200D01*
X161131238Y-90548200D02*
X161083619Y-90500580D01*
X149308076Y-114008819D02*
X149308076Y-114723104D01*
X149308076Y-114723104D02*
X149260457Y-114865961D01*
X149260457Y-114865961D02*
X149165219Y-114961200D01*
X149165219Y-114961200D02*
X149022362Y-115008819D01*
X149022362Y-115008819D02*
X148927124Y-115008819D01*
X150308076Y-115008819D02*
X149736648Y-115008819D01*
X150022362Y-115008819D02*
X150022362Y-114008819D01*
X150022362Y-114008819D02*
X149927124Y-114151676D01*
X149927124Y-114151676D02*
X149831886Y-114246914D01*
X149831886Y-114246914D02*
X149736648Y-114294533D01*
X137691905Y-116913819D02*
X137691905Y-115913819D01*
X137691905Y-115913819D02*
X137930000Y-115913819D01*
X137930000Y-115913819D02*
X138072857Y-115961438D01*
X138072857Y-115961438D02*
X138168095Y-116056676D01*
X138168095Y-116056676D02*
X138215714Y-116151914D01*
X138215714Y-116151914D02*
X138263333Y-116342390D01*
X138263333Y-116342390D02*
X138263333Y-116485247D01*
X138263333Y-116485247D02*
X138215714Y-116675723D01*
X138215714Y-116675723D02*
X138168095Y-116770961D01*
X138168095Y-116770961D02*
X138072857Y-116866200D01*
X138072857Y-116866200D02*
X137930000Y-116913819D01*
X137930000Y-116913819D02*
X137691905Y-116913819D01*
X138644286Y-116009057D02*
X138691905Y-115961438D01*
X138691905Y-115961438D02*
X138787143Y-115913819D01*
X138787143Y-115913819D02*
X139025238Y-115913819D01*
X139025238Y-115913819D02*
X139120476Y-115961438D01*
X139120476Y-115961438D02*
X139168095Y-116009057D01*
X139168095Y-116009057D02*
X139215714Y-116104295D01*
X139215714Y-116104295D02*
X139215714Y-116199533D01*
X139215714Y-116199533D02*
X139168095Y-116342390D01*
X139168095Y-116342390D02*
X138596667Y-116913819D01*
X138596667Y-116913819D02*
X139215714Y-116913819D01*
X143375095Y-116913819D02*
X143375095Y-115913819D01*
X143946523Y-116913819D02*
X143517952Y-116342390D01*
X143946523Y-115913819D02*
X143375095Y-116485247D01*
X149017017Y-80933819D02*
X149017017Y-79933819D01*
X149017017Y-79933819D02*
X149255112Y-79933819D01*
X149255112Y-79933819D02*
X149397969Y-79981438D01*
X149397969Y-79981438D02*
X149493207Y-80076676D01*
X149493207Y-80076676D02*
X149540826Y-80171914D01*
X149540826Y-80171914D02*
X149588445Y-80362390D01*
X149588445Y-80362390D02*
X149588445Y-80505247D01*
X149588445Y-80505247D02*
X149540826Y-80695723D01*
X149540826Y-80695723D02*
X149493207Y-80790961D01*
X149493207Y-80790961D02*
X149397969Y-80886200D01*
X149397969Y-80886200D02*
X149255112Y-80933819D01*
X149255112Y-80933819D02*
X149017017Y-80933819D01*
X150540826Y-80933819D02*
X149969398Y-80933819D01*
X150255112Y-80933819D02*
X150255112Y-79933819D01*
X150255112Y-79933819D02*
X150159874Y-80076676D01*
X150159874Y-80076676D02*
X150064636Y-80171914D01*
X150064636Y-80171914D02*
X149969398Y-80219533D01*
X149820333Y-108730580D02*
X149772714Y-108778200D01*
X149772714Y-108778200D02*
X149629857Y-108825819D01*
X149629857Y-108825819D02*
X149534619Y-108825819D01*
X149534619Y-108825819D02*
X149391762Y-108778200D01*
X149391762Y-108778200D02*
X149296524Y-108682961D01*
X149296524Y-108682961D02*
X149248905Y-108587723D01*
X149248905Y-108587723D02*
X149201286Y-108397247D01*
X149201286Y-108397247D02*
X149201286Y-108254390D01*
X149201286Y-108254390D02*
X149248905Y-108063914D01*
X149248905Y-108063914D02*
X149296524Y-107968676D01*
X149296524Y-107968676D02*
X149391762Y-107873438D01*
X149391762Y-107873438D02*
X149534619Y-107825819D01*
X149534619Y-107825819D02*
X149629857Y-107825819D01*
X149629857Y-107825819D02*
X149772714Y-107873438D01*
X149772714Y-107873438D02*
X149820333Y-107921057D01*
X150153667Y-107825819D02*
X150772714Y-107825819D01*
X150772714Y-107825819D02*
X150439381Y-108206771D01*
X150439381Y-108206771D02*
X150582238Y-108206771D01*
X150582238Y-108206771D02*
X150677476Y-108254390D01*
X150677476Y-108254390D02*
X150725095Y-108302009D01*
X150725095Y-108302009D02*
X150772714Y-108397247D01*
X150772714Y-108397247D02*
X150772714Y-108635342D01*
X150772714Y-108635342D02*
X150725095Y-108730580D01*
X150725095Y-108730580D02*
X150677476Y-108778200D01*
X150677476Y-108778200D02*
X150582238Y-108825819D01*
X150582238Y-108825819D02*
X150296524Y-108825819D01*
X150296524Y-108825819D02*
X150201286Y-108778200D01*
X150201286Y-108778200D02*
X150153667Y-108730580D01*
X149840333Y-103777580D02*
X149792714Y-103825200D01*
X149792714Y-103825200D02*
X149649857Y-103872819D01*
X149649857Y-103872819D02*
X149554619Y-103872819D01*
X149554619Y-103872819D02*
X149411762Y-103825200D01*
X149411762Y-103825200D02*
X149316524Y-103729961D01*
X149316524Y-103729961D02*
X149268905Y-103634723D01*
X149268905Y-103634723D02*
X149221286Y-103444247D01*
X149221286Y-103444247D02*
X149221286Y-103301390D01*
X149221286Y-103301390D02*
X149268905Y-103110914D01*
X149268905Y-103110914D02*
X149316524Y-103015676D01*
X149316524Y-103015676D02*
X149411762Y-102920438D01*
X149411762Y-102920438D02*
X149554619Y-102872819D01*
X149554619Y-102872819D02*
X149649857Y-102872819D01*
X149649857Y-102872819D02*
X149792714Y-102920438D01*
X149792714Y-102920438D02*
X149840333Y-102968057D01*
X150221286Y-102968057D02*
X150268905Y-102920438D01*
X150268905Y-102920438D02*
X150364143Y-102872819D01*
X150364143Y-102872819D02*
X150602238Y-102872819D01*
X150602238Y-102872819D02*
X150697476Y-102920438D01*
X150697476Y-102920438D02*
X150745095Y-102968057D01*
X150745095Y-102968057D02*
X150792714Y-103063295D01*
X150792714Y-103063295D02*
X150792714Y-103158533D01*
X150792714Y-103158533D02*
X150745095Y-103301390D01*
X150745095Y-103301390D02*
X150173667Y-103872819D01*
X150173667Y-103872819D02*
X150792714Y-103872819D01*
X159919333Y-80683580D02*
X159871714Y-80731200D01*
X159871714Y-80731200D02*
X159728857Y-80778819D01*
X159728857Y-80778819D02*
X159633619Y-80778819D01*
X159633619Y-80778819D02*
X159490762Y-80731200D01*
X159490762Y-80731200D02*
X159395524Y-80635961D01*
X159395524Y-80635961D02*
X159347905Y-80540723D01*
X159347905Y-80540723D02*
X159300286Y-80350247D01*
X159300286Y-80350247D02*
X159300286Y-80207390D01*
X159300286Y-80207390D02*
X159347905Y-80016914D01*
X159347905Y-80016914D02*
X159395524Y-79921676D01*
X159395524Y-79921676D02*
X159490762Y-79826438D01*
X159490762Y-79826438D02*
X159633619Y-79778819D01*
X159633619Y-79778819D02*
X159728857Y-79778819D01*
X159728857Y-79778819D02*
X159871714Y-79826438D01*
X159871714Y-79826438D02*
X159919333Y-79874057D01*
X160871714Y-80778819D02*
X160300286Y-80778819D01*
X160586000Y-80778819D02*
X160586000Y-79778819D01*
X160586000Y-79778819D02*
X160490762Y-79921676D01*
X160490762Y-79921676D02*
X160395524Y-80016914D01*
X160395524Y-80016914D02*
X160300286Y-80064533D01*
X158919333Y-87612152D02*
X158919333Y-88278819D01*
X158681238Y-87231200D02*
X158443143Y-87945485D01*
X158443143Y-87945485D02*
X159062190Y-87945485D01*
X159347905Y-87278819D02*
X160014571Y-87278819D01*
X160014571Y-87278819D02*
X159586000Y-88278819D01*
X160824095Y-87612152D02*
X160824095Y-88278819D01*
X160395524Y-87612152D02*
X160395524Y-88135961D01*
X160395524Y-88135961D02*
X160443143Y-88231200D01*
X160443143Y-88231200D02*
X160538381Y-88278819D01*
X160538381Y-88278819D02*
X160681238Y-88278819D01*
X160681238Y-88278819D02*
X160776476Y-88231200D01*
X160776476Y-88231200D02*
X160824095Y-88183580D01*
X161633619Y-87755009D02*
X161300286Y-87755009D01*
X161300286Y-88278819D02*
X161300286Y-87278819D01*
X161300286Y-87278819D02*
X161776476Y-87278819D01*
G36*
X130237454Y-100978521D02*
G01*
X130247265Y-101113530D01*
X130241298Y-101230346D01*
X130212662Y-101333901D01*
X130208520Y-101342436D01*
X130168753Y-101463381D01*
X130143837Y-101635814D01*
X130133384Y-101848670D01*
X130137007Y-102090880D01*
X130154316Y-102351379D01*
X130184923Y-102619099D01*
X130228441Y-102882973D01*
X130269160Y-103071043D01*
X130325477Y-103299785D01*
X130372612Y-103479708D01*
X130415152Y-103624889D01*
X130457685Y-103749404D01*
X130504800Y-103867332D01*
X130561085Y-103992748D01*
X130588634Y-104051192D01*
X130633579Y-104153730D01*
X130663865Y-104238281D01*
X130672055Y-104277426D01*
X130689687Y-104340689D01*
X130724156Y-104402712D01*
X130767204Y-104478201D01*
X130815038Y-104581884D01*
X130833189Y-104627176D01*
X130944281Y-104902547D01*
X131072244Y-105190681D01*
X131208687Y-105474336D01*
X131345216Y-105736272D01*
X131473442Y-105959247D01*
X131509490Y-106016671D01*
X131543453Y-106074232D01*
X131591353Y-106160692D01*
X131609097Y-106193730D01*
X131664580Y-106290326D01*
X131739144Y-106410514D01*
X131802590Y-106507245D01*
X131865171Y-106603846D01*
X131910004Y-106680862D01*
X131927561Y-106721902D01*
X131927568Y-106722245D01*
X131947468Y-106769361D01*
X131967809Y-106795043D01*
X132023816Y-106872661D01*
X132091165Y-106993785D01*
X132160778Y-107140861D01*
X132214575Y-107272184D01*
X132270958Y-107488062D01*
X132277033Y-107693176D01*
X132236472Y-107879104D01*
X132152950Y-108037427D01*
X132030140Y-108159723D01*
X131871716Y-108237570D01*
X131785153Y-108256529D01*
X131701593Y-108271634D01*
X131659621Y-108286082D01*
X131661979Y-108293655D01*
X131698419Y-108333812D01*
X131702220Y-108355248D01*
X131723158Y-108400664D01*
X131778323Y-108475936D01*
X131856235Y-108565567D01*
X131864588Y-108574461D01*
X131997683Y-108746733D01*
X132110205Y-108953426D01*
X132197802Y-109179575D01*
X132256121Y-109410212D01*
X132280811Y-109630369D01*
X132267519Y-109825081D01*
X132249144Y-109896948D01*
X132172143Y-110075219D01*
X132070307Y-110232258D01*
X131956921Y-110348215D01*
X131937688Y-110362253D01*
X131865188Y-110403727D01*
X131785826Y-110426526D01*
X131677426Y-110435390D01*
X131592615Y-110436014D01*
X131516218Y-110433958D01*
X131484295Y-110433099D01*
X131391460Y-110422966D01*
X131299994Y-110401198D01*
X131195784Y-110363376D01*
X131064715Y-110305085D01*
X130892671Y-110221906D01*
X130865211Y-110208368D01*
X130631249Y-110088960D01*
X130437568Y-109979820D01*
X130264228Y-109868441D01*
X130091286Y-109742316D01*
X129970435Y-109647139D01*
X129756233Y-109478596D01*
X129579716Y-109350762D01*
X129431663Y-109260238D01*
X129403121Y-109247694D01*
X129302855Y-109203628D01*
X129184072Y-109177531D01*
X129066096Y-109178549D01*
X128939705Y-109203285D01*
X128844107Y-109231965D01*
X128646458Y-109275706D01*
X128501797Y-109279035D01*
X128361843Y-109251862D01*
X128193382Y-109196534D01*
X128017631Y-109122319D01*
X127855809Y-109038485D01*
X127729134Y-108954301D01*
X127699039Y-108928381D01*
X127633153Y-108871197D01*
X129866379Y-108871197D01*
X129900613Y-108924662D01*
X129975006Y-108986640D01*
X129994013Y-109000411D01*
X130197988Y-109145687D01*
X130361722Y-109260248D01*
X130496964Y-109351361D01*
X130615461Y-109426292D01*
X130728962Y-109492307D01*
X130849217Y-109556671D01*
X130987972Y-109626651D01*
X131078935Y-109671393D01*
X131250455Y-109749678D01*
X131382603Y-109795891D01*
X131489005Y-109814519D01*
X131516218Y-109815403D01*
X131607693Y-109810948D01*
X131669644Y-109799732D01*
X131680758Y-109793942D01*
X131701094Y-109729924D01*
X131687600Y-109615203D01*
X131641372Y-109455470D01*
X131596377Y-109334603D01*
X131548310Y-109220231D01*
X131524193Y-109169680D01*
X131475577Y-109094550D01*
X131401285Y-109000585D01*
X131313343Y-108900619D01*
X131223776Y-108807489D01*
X131144612Y-108734031D01*
X131087876Y-108693080D01*
X131073505Y-108688661D01*
X131021989Y-108666132D01*
X130992220Y-108638249D01*
X130886270Y-108555607D01*
X130738598Y-108502515D01*
X130593879Y-108485940D01*
X130485614Y-108493020D01*
X130379028Y-108521781D01*
X130250690Y-108579265D01*
X130205262Y-108602733D01*
X130041746Y-108692012D01*
X129933235Y-108761858D01*
X129876016Y-108819257D01*
X129866379Y-108871197D01*
X127633153Y-108871197D01*
X127625233Y-108864323D01*
X127567718Y-108824243D01*
X127549522Y-108817431D01*
X127515968Y-108795517D01*
X127447840Y-108736067D01*
X127354594Y-108648521D01*
X127245689Y-108542318D01*
X127130581Y-108426898D01*
X127018729Y-108311701D01*
X126919588Y-108206165D01*
X126842618Y-108119731D01*
X126808937Y-108078240D01*
X126731698Y-107979324D01*
X126648690Y-107877620D01*
X126638928Y-107866038D01*
X126578817Y-107783329D01*
X126506646Y-107667260D01*
X126437854Y-107542686D01*
X126436699Y-107540435D01*
X126361419Y-107396184D01*
X126306754Y-107300414D01*
X126265558Y-107243517D01*
X126230681Y-107215880D01*
X126194976Y-107207896D01*
X126189273Y-107207799D01*
X126158960Y-107214003D01*
X126144157Y-107241839D01*
X126142517Y-107305139D01*
X126151694Y-107417738D01*
X126152413Y-107425099D01*
X126166824Y-107540060D01*
X126183878Y-107630282D01*
X126199413Y-107675256D01*
X126212352Y-107717857D01*
X126229922Y-107811730D01*
X126250049Y-107944115D01*
X126270665Y-108102248D01*
X126275962Y-108146978D01*
X126297646Y-108324037D01*
X126320361Y-108492614D01*
X126341583Y-108634959D01*
X126358787Y-108733321D01*
X126360580Y-108741877D01*
X126387904Y-108875939D01*
X126414877Y-109019974D01*
X126421657Y-109058876D01*
X126446685Y-109194082D01*
X126475870Y-109335462D01*
X126484361Y-109373351D01*
X126509946Y-109495247D01*
X126531205Y-109614738D01*
X126535965Y-109646989D01*
X126553850Y-109749214D01*
X126581401Y-109876191D01*
X126598133Y-109944174D01*
X126650966Y-110148645D01*
X126689491Y-110300516D01*
X126715898Y-110409422D01*
X126732380Y-110485000D01*
X126741128Y-110536884D01*
X126744332Y-110574709D01*
X126744552Y-110588023D01*
X126755221Y-110642111D01*
X126781879Y-110724367D01*
X126816503Y-110814493D01*
X126851069Y-110892191D01*
X126877555Y-110937162D01*
X126884242Y-110941425D01*
X126913417Y-110928105D01*
X126984740Y-110893949D01*
X127079022Y-110848175D01*
X127187937Y-110801034D01*
X127282678Y-110770458D01*
X127336563Y-110763179D01*
X127412337Y-110776270D01*
X127536068Y-110802824D01*
X127693580Y-110839421D01*
X127870699Y-110882638D01*
X128053247Y-110929056D01*
X128227051Y-110975254D01*
X128305895Y-110997103D01*
X128445872Y-111035207D01*
X128573047Y-111067450D01*
X128667204Y-111088796D01*
X128692207Y-111093326D01*
X128778523Y-111109776D01*
X128837074Y-111125852D01*
X128906711Y-111144177D01*
X128965618Y-111154293D01*
X129050507Y-111174074D01*
X129149797Y-111208232D01*
X129158774Y-111211911D01*
X129234403Y-111239247D01*
X129356276Y-111278707D01*
X129508481Y-111325607D01*
X129675111Y-111375258D01*
X129840256Y-111422974D01*
X129988007Y-111464069D01*
X130102455Y-111493855D01*
X130156973Y-111505974D01*
X130221776Y-111521971D01*
X130329811Y-111553005D01*
X130463199Y-111593831D01*
X130543284Y-111619331D01*
X130809417Y-111705008D01*
X131021980Y-111772631D01*
X131188508Y-111824434D01*
X131316535Y-111862650D01*
X131413598Y-111889512D01*
X131487230Y-111907255D01*
X131544968Y-111918113D01*
X131557353Y-111919950D01*
X131643829Y-111937061D01*
X131771284Y-111968292D01*
X131919274Y-112008459D01*
X132008050Y-112034280D01*
X132151920Y-112076518D01*
X132280595Y-112112921D01*
X132376552Y-112138602D01*
X132412987Y-112147212D01*
X132494821Y-112192936D01*
X132548554Y-112279909D01*
X132571399Y-112390178D01*
X132560564Y-112505790D01*
X132513261Y-112608791D01*
X132489096Y-112637030D01*
X132413938Y-112694487D01*
X132334932Y-112706138D01*
X132303988Y-112702179D01*
X132167401Y-112673915D01*
X131991212Y-112629604D01*
X131796427Y-112574929D01*
X131604052Y-112515572D01*
X131557353Y-112500185D01*
X131417563Y-112458322D01*
X131275305Y-112423524D01*
X131171041Y-112404786D01*
X131071921Y-112387724D01*
X130999288Y-112366621D01*
X130979495Y-112355603D01*
X130925340Y-112332422D01*
X130873270Y-112326430D01*
X130788000Y-112311549D01*
X130710697Y-112281815D01*
X130630967Y-112251201D01*
X130516968Y-112219261D01*
X130430610Y-112200324D01*
X130301564Y-112172238D01*
X130143755Y-112133034D01*
X129989856Y-112090859D01*
X129979913Y-112087959D01*
X129531528Y-111963224D01*
X129095344Y-111854774D01*
X128693797Y-111768174D01*
X128676111Y-111764726D01*
X128528711Y-111733904D01*
X128385895Y-111700276D01*
X128274318Y-111670193D01*
X128257606Y-111665003D01*
X128147608Y-111633962D01*
X128001495Y-111598916D01*
X127832051Y-111562246D01*
X127652062Y-111526337D01*
X127474313Y-111493570D01*
X127311591Y-111466330D01*
X127176679Y-111447000D01*
X127082363Y-111437961D01*
X127046419Y-111439250D01*
X126998481Y-111457578D01*
X126976369Y-111490297D01*
X126979703Y-111549924D01*
X127008104Y-111648976D01*
X127037494Y-111733874D01*
X127084810Y-111874467D01*
X127134769Y-112034283D01*
X127163677Y-112133274D01*
X127195604Y-112239948D01*
X127243285Y-112390037D01*
X127301090Y-112566225D01*
X127363390Y-112751198D01*
X127385817Y-112816555D01*
X127442200Y-112982530D01*
X127490176Y-113128641D01*
X127526091Y-113243360D01*
X127546286Y-113315160D01*
X127549368Y-113332114D01*
X127563724Y-113384968D01*
X127599565Y-113466279D01*
X127613753Y-113493774D01*
X127654790Y-113582772D01*
X127677590Y-113656264D01*
X127679162Y-113670356D01*
X127698766Y-113740178D01*
X127727451Y-113789300D01*
X127765230Y-113863822D01*
X127774717Y-113913101D01*
X127792627Y-113982306D01*
X127834572Y-114059863D01*
X127879491Y-114140684D01*
X127927317Y-114251502D01*
X127949833Y-114314326D01*
X127995349Y-114426036D01*
X128040972Y-114477078D01*
X128091181Y-114471020D01*
X128118457Y-114448647D01*
X128169247Y-114427126D01*
X128258704Y-114411940D01*
X128310003Y-114408406D01*
X128466859Y-114402856D01*
X128476342Y-114618587D01*
X128479930Y-114734154D01*
X128474187Y-114803150D01*
X128453442Y-114843282D01*
X128412024Y-114872262D01*
X128391671Y-114883008D01*
X128276668Y-114953841D01*
X128179984Y-115033956D01*
X128115581Y-115110178D01*
X128096643Y-115161418D01*
X128067389Y-115221871D01*
X127991350Y-115274517D01*
X127886113Y-115310188D01*
X127791721Y-115320346D01*
X127704418Y-115309363D01*
X127656910Y-115269130D01*
X127646372Y-115247913D01*
X127603272Y-115141658D01*
X127548890Y-115002530D01*
X127488798Y-114845392D01*
X127428572Y-114685109D01*
X127373783Y-114536546D01*
X127330007Y-114414566D01*
X127302816Y-114334036D01*
X127299334Y-114322374D01*
X127251292Y-114161333D01*
X127192498Y-113978159D01*
X127129038Y-113790529D01*
X127067003Y-113616121D01*
X127012481Y-113472612D01*
X126980306Y-113396163D01*
X126922052Y-113253725D01*
X126855017Y-113062083D01*
X126777752Y-112816824D01*
X126688810Y-112513535D01*
X126676791Y-112471297D01*
X126634439Y-112323152D01*
X126584572Y-112150374D01*
X126537904Y-111990079D01*
X126537414Y-111988407D01*
X126495132Y-111836074D01*
X126447630Y-111652595D01*
X126403062Y-111469803D01*
X126388998Y-111408939D01*
X126332756Y-111164789D01*
X126284963Y-110966560D01*
X126245800Y-110813375D01*
X126227431Y-110735525D01*
X126203409Y-110623664D01*
X126178839Y-110502820D01*
X126158827Y-110398016D01*
X126149101Y-110339388D01*
X126139150Y-110274851D01*
X126132646Y-110250004D01*
X126122675Y-110225340D01*
X126103279Y-110147010D01*
X126090251Y-110089041D01*
X126078116Y-110021261D01*
X126062495Y-109917694D01*
X126052932Y-109847596D01*
X126031820Y-109710534D01*
X126003468Y-109556367D01*
X125986977Y-109477381D01*
X125960987Y-109355375D01*
X125939063Y-109244059D01*
X125929204Y-109187647D01*
X125911672Y-109086619D01*
X125896321Y-109010587D01*
X125879455Y-108917509D01*
X125859039Y-108777843D01*
X125837540Y-108609106D01*
X125827303Y-108520630D01*
X125818145Y-108439309D01*
X125805178Y-108324827D01*
X125796331Y-108246993D01*
X125759855Y-107827718D01*
X125746750Y-107402835D01*
X125756235Y-106945625D01*
X125757460Y-106917582D01*
X125769571Y-106798357D01*
X125793095Y-106672634D01*
X125823775Y-106554814D01*
X125857353Y-106459297D01*
X125889572Y-106400481D01*
X125913305Y-106390447D01*
X125938596Y-106383627D01*
X125939736Y-106375166D01*
X125963820Y-106325767D01*
X126022734Y-106260543D01*
X126096470Y-106197410D01*
X126165021Y-106154280D01*
X126196309Y-106145441D01*
X126257331Y-106173930D01*
X126290504Y-106249937D01*
X126293855Y-106291512D01*
X126276790Y-106343809D01*
X126233934Y-106422565D01*
X126213373Y-106454334D01*
X126163948Y-106536673D01*
X126135559Y-106602381D01*
X126132891Y-106617738D01*
X126154648Y-106662038D01*
X126201098Y-106686857D01*
X126244008Y-106681056D01*
X126254558Y-106665741D01*
X126313808Y-106582421D01*
X126414490Y-106537015D01*
X126469030Y-106531753D01*
X126534051Y-106536791D01*
X126572474Y-106562790D01*
X126600090Y-106626074D01*
X126616932Y-106684668D01*
X126650670Y-106789372D01*
X126687456Y-106876298D01*
X126701598Y-106901084D01*
X126735785Y-106968967D01*
X126744552Y-107008340D01*
X126763510Y-107052645D01*
X126811301Y-107127146D01*
X126874304Y-107213635D01*
X126938895Y-107293906D01*
X126991452Y-107349750D01*
X127010218Y-107363422D01*
X127039075Y-107393927D01*
X127091348Y-107463493D01*
X127155085Y-107556120D01*
X127280535Y-107722016D01*
X127438000Y-107894251D01*
X127618218Y-108065816D01*
X127811926Y-108229700D01*
X128009861Y-108378893D01*
X128202761Y-108506384D01*
X128381362Y-108605164D01*
X128536403Y-108668221D01*
X128651512Y-108688661D01*
X128698632Y-108675786D01*
X128702817Y-108635435D01*
X128662315Y-108565021D01*
X128575376Y-108461954D01*
X128440248Y-108323646D01*
X128338061Y-108225272D01*
X128211735Y-108103055D01*
X128103938Y-107993926D01*
X128022682Y-107906386D01*
X127975978Y-107848934D01*
X127967872Y-107832511D01*
X127943514Y-107779563D01*
X127925689Y-107764722D01*
X127877285Y-107720265D01*
X127829111Y-107659381D01*
X127791616Y-107612181D01*
X127774786Y-107606148D01*
X127774717Y-107607444D01*
X127757620Y-107596157D01*
X127711943Y-107542394D01*
X127646111Y-107456368D01*
X127614714Y-107413403D01*
X127548236Y-107321434D01*
X127494258Y-107247522D01*
X127443645Y-107179676D01*
X127387259Y-107105906D01*
X127315964Y-107014219D01*
X127220622Y-106892627D01*
X127131174Y-106778836D01*
X127052090Y-106674133D01*
X126946484Y-106528313D01*
X126823273Y-106354017D01*
X126691373Y-106163883D01*
X126559701Y-105970549D01*
X126534194Y-105932633D01*
X126381046Y-105700997D01*
X126282284Y-105544305D01*
X126948646Y-105544305D01*
X126960414Y-105573705D01*
X127000528Y-105642247D01*
X127060093Y-105736546D01*
X127130217Y-105843222D01*
X127202006Y-105948891D01*
X127266566Y-106040170D01*
X127315004Y-106103678D01*
X127333796Y-106123859D01*
X127375852Y-106169123D01*
X127438792Y-106249916D01*
X127501937Y-106338597D01*
X127572628Y-106438676D01*
X127636297Y-106522896D01*
X127674619Y-106568045D01*
X127725159Y-106621603D01*
X127783540Y-106689110D01*
X127857448Y-106780020D01*
X127954572Y-106903785D01*
X128080449Y-107067056D01*
X128301152Y-107341159D01*
X128562051Y-107641796D01*
X128852108Y-107956510D01*
X129052041Y-108163726D01*
X129160931Y-108272035D01*
X129239223Y-108341191D01*
X129299612Y-108379698D01*
X129354794Y-108396063D01*
X129403121Y-108398927D01*
X129545506Y-108368203D01*
X129624348Y-108321731D01*
X129714268Y-108261907D01*
X129840025Y-108189403D01*
X129985082Y-108112525D01*
X130132903Y-108039580D01*
X130266950Y-107978875D01*
X130370688Y-107938717D01*
X130406466Y-107928850D01*
X130477455Y-107907749D01*
X130510742Y-107884174D01*
X130511092Y-107881976D01*
X130488099Y-107848902D01*
X130428777Y-107790843D01*
X130370957Y-107741133D01*
X130289263Y-107678083D01*
X130226060Y-107636331D01*
X130201946Y-107626201D01*
X130162626Y-107609429D01*
X130086179Y-107565368D01*
X129988510Y-107503236D01*
X129979913Y-107497533D01*
X129881409Y-107434340D01*
X129803047Y-107388428D01*
X129760616Y-107369000D01*
X129759173Y-107368864D01*
X129720891Y-107350438D01*
X129649322Y-107302669D01*
X129575863Y-107248040D01*
X129455325Y-107157472D01*
X129321085Y-107060742D01*
X129254725Y-107014643D01*
X129150051Y-106939236D01*
X129054881Y-106863830D01*
X129007409Y-106821487D01*
X128961430Y-106781587D01*
X128947363Y-106780926D01*
X128950866Y-106789294D01*
X128949968Y-106806510D01*
X128909805Y-106780358D01*
X128898602Y-106770969D01*
X128812546Y-106703201D01*
X128682560Y-106608581D01*
X128519351Y-106494325D01*
X128333624Y-106367647D01*
X128136086Y-106235761D01*
X127937441Y-106105883D01*
X127748396Y-105985227D01*
X127579658Y-105881006D01*
X127563776Y-105871444D01*
X127443561Y-105797649D01*
X127339367Y-105730764D01*
X127267408Y-105681316D01*
X127250213Y-105667863D01*
X127196370Y-105633629D01*
X127117177Y-105595519D01*
X127034665Y-105562559D01*
X126970860Y-105543775D01*
X126948646Y-105544305D01*
X126282284Y-105544305D01*
X126263053Y-105513793D01*
X126176553Y-105364081D01*
X126117888Y-105244923D01*
X126083398Y-105149380D01*
X126069423Y-105070512D01*
X126068686Y-105050006D01*
X126084450Y-104990218D01*
X126121663Y-104926431D01*
X126164654Y-104880540D01*
X126195560Y-104872771D01*
X126218976Y-104857046D01*
X126239999Y-104796906D01*
X126240841Y-104792828D01*
X126267387Y-104722042D01*
X126319084Y-104697673D01*
X126339243Y-104696772D01*
X126433555Y-104684810D01*
X126498411Y-104666365D01*
X126550733Y-104656142D01*
X126615427Y-104667255D01*
X126707607Y-104704007D01*
X126814385Y-104756334D01*
X126943851Y-104823483D01*
X127067544Y-104889510D01*
X127161186Y-104941429D01*
X127170119Y-104946601D01*
X127259540Y-104997650D01*
X127379910Y-105064899D01*
X127505507Y-105133983D01*
X127508142Y-105135418D01*
X127638266Y-105209634D01*
X127767455Y-105288713D01*
X127865253Y-105353822D01*
X127949790Y-105412886D01*
X128070500Y-105495292D01*
X128209726Y-105589054D01*
X128320102Y-105662552D01*
X128481885Y-105769825D01*
X128658839Y-105887398D01*
X128824346Y-105997576D01*
X128905612Y-106051790D01*
X129032838Y-106136212D01*
X129151208Y-106213790D01*
X129243141Y-106273046D01*
X129275360Y-106293235D01*
X129411631Y-106379098D01*
X129567515Y-106480956D01*
X129726225Y-106587480D01*
X129870976Y-106687343D01*
X129984979Y-106769215D01*
X130019782Y-106795611D01*
X130147725Y-106885645D01*
X130306859Y-106984075D01*
X130470237Y-107075103D01*
X130610908Y-107142933D01*
X130615718Y-107144955D01*
X130678688Y-107179916D01*
X130704248Y-107210948D01*
X130730369Y-107236729D01*
X130752537Y-107239991D01*
X130795378Y-107257375D01*
X130800826Y-107272184D01*
X130826822Y-107300924D01*
X130848022Y-107304377D01*
X130908433Y-107317482D01*
X130988113Y-107349378D01*
X131064373Y-107388936D01*
X131114519Y-107425027D01*
X131122752Y-107439110D01*
X131149765Y-107460436D01*
X131187137Y-107465340D01*
X131239481Y-107476706D01*
X131251523Y-107492437D01*
X131279436Y-107517136D01*
X131348429Y-107546766D01*
X131436379Y-107573965D01*
X131521166Y-107591372D01*
X131557064Y-107594111D01*
X131594361Y-107582695D01*
X131600642Y-107537022D01*
X131593302Y-107492173D01*
X131559170Y-107395391D01*
X131503702Y-107297680D01*
X131498811Y-107290969D01*
X131451161Y-107217118D01*
X131387191Y-107104659D01*
X131317912Y-106973282D01*
X131290305Y-106918065D01*
X131222120Y-106787073D01*
X131154116Y-106669549D01*
X131097272Y-106584011D01*
X131078918Y-106561591D01*
X131018076Y-106481774D01*
X130978352Y-106404430D01*
X130977923Y-106403103D01*
X130936700Y-106321360D01*
X130889939Y-106260590D01*
X130837921Y-106190116D01*
X130781946Y-106091034D01*
X130762012Y-106048863D01*
X130704665Y-105919830D01*
X130664499Y-105832924D01*
X130633067Y-105771206D01*
X130601919Y-105717740D01*
X130577352Y-105678648D01*
X130534620Y-105596916D01*
X130513737Y-105528437D01*
X130513445Y-105524387D01*
X130490703Y-105459305D01*
X130446706Y-105397594D01*
X130398866Y-105322132D01*
X130382321Y-105255973D01*
X130369500Y-105190233D01*
X130350128Y-105163566D01*
X130322105Y-105117698D01*
X130317936Y-105087623D01*
X130298409Y-105018337D01*
X130281854Y-104995494D01*
X130242973Y-104935962D01*
X130187553Y-104820864D01*
X130118117Y-104656130D01*
X130037186Y-104447694D01*
X129963207Y-104246075D01*
X129907518Y-104091390D01*
X129853775Y-103943053D01*
X129809305Y-103821243D01*
X129787850Y-103763185D01*
X129746678Y-103636767D01*
X129711852Y-103503401D01*
X129705555Y-103473452D01*
X129678729Y-103343323D01*
X129648578Y-103207345D01*
X129643055Y-103183718D01*
X129619481Y-103080780D01*
X129601231Y-102995273D01*
X129597239Y-102974465D01*
X129585433Y-102909924D01*
X129566192Y-102806131D01*
X129546679Y-102701585D01*
X129530936Y-102587055D01*
X129519031Y-102441125D01*
X129511182Y-102278421D01*
X129507603Y-102113572D01*
X129508510Y-101961203D01*
X129514119Y-101835942D01*
X129524645Y-101752417D01*
X129532352Y-101729974D01*
X129552356Y-101669363D01*
X129563840Y-101582833D01*
X129563860Y-101582440D01*
X129579061Y-101465634D01*
X129609398Y-101337816D01*
X129647673Y-101224564D01*
X129684336Y-101154399D01*
X129810894Y-101038364D01*
X129965138Y-100976547D01*
X130083970Y-100968686D01*
X130237454Y-100978521D01*
G37*
G36*
X130478899Y-107867748D02*
G01*
X130462803Y-107883844D01*
X130446706Y-107867748D01*
X130462803Y-107851652D01*
X130478899Y-107867748D01*
G37*
G36*
X128362491Y-94912561D02*
G01*
X128369460Y-94926638D01*
X128376999Y-94947504D01*
X128384454Y-94973036D01*
X128391172Y-95001111D01*
X128396499Y-95029605D01*
X128398338Y-95042545D01*
X128401693Y-95072144D01*
X128403132Y-95095235D01*
X128402639Y-95116342D01*
X128400196Y-95139988D01*
X128397936Y-95156271D01*
X128383556Y-95217336D01*
X128358723Y-95277418D01*
X128324175Y-95335273D01*
X128280648Y-95389655D01*
X128231502Y-95437099D01*
X128210208Y-95454296D01*
X128183599Y-95474284D01*
X128153126Y-95496115D01*
X128120238Y-95518847D01*
X128086387Y-95541533D01*
X128053023Y-95563231D01*
X128021597Y-95582994D01*
X127993559Y-95599878D01*
X127970361Y-95612938D01*
X127953452Y-95621230D01*
X127944752Y-95623836D01*
X127940831Y-95622197D01*
X127940515Y-95616424D01*
X127944274Y-95605230D01*
X127952576Y-95587332D01*
X127965892Y-95561442D01*
X127971136Y-95551545D01*
X127997424Y-95502755D01*
X128025844Y-95451070D01*
X128055878Y-95397354D01*
X128087008Y-95342474D01*
X128118716Y-95287294D01*
X128150484Y-95232680D01*
X128181794Y-95179497D01*
X128212128Y-95128611D01*
X128240967Y-95080886D01*
X128267796Y-95037188D01*
X128292094Y-94998382D01*
X128313344Y-94965334D01*
X128331028Y-94938909D01*
X128344629Y-94919971D01*
X128353627Y-94909387D01*
X128356745Y-94907397D01*
X128362491Y-94912561D01*
G37*
G36*
X127954630Y-92587701D02*
G01*
X127972111Y-92596471D01*
X127995749Y-92609929D01*
X128024095Y-92627128D01*
X128055700Y-92647119D01*
X128089115Y-92668956D01*
X128122893Y-92691691D01*
X128155584Y-92714377D01*
X128185740Y-92736065D01*
X128211911Y-92755808D01*
X128232651Y-92772658D01*
X128233758Y-92773615D01*
X128282745Y-92821800D01*
X128324646Y-92874647D01*
X128358289Y-92930371D01*
X128382506Y-92987188D01*
X128389709Y-93011432D01*
X128396445Y-93047344D01*
X128400385Y-93089045D01*
X128401253Y-93131418D01*
X128398772Y-93169345D01*
X128398388Y-93172271D01*
X128394576Y-93193720D01*
X128388853Y-93218535D01*
X128381978Y-93244168D01*
X128374706Y-93268069D01*
X128367795Y-93287688D01*
X128362002Y-93300476D01*
X128359325Y-93303843D01*
X128354337Y-93300545D01*
X128344394Y-93288317D01*
X128330004Y-93268001D01*
X128311672Y-93240441D01*
X128289902Y-93206478D01*
X128265201Y-93166956D01*
X128238075Y-93122716D01*
X128209028Y-93074603D01*
X128178567Y-93023458D01*
X128147198Y-92970125D01*
X128115425Y-92915445D01*
X128083754Y-92860261D01*
X128052691Y-92805417D01*
X128022742Y-92751755D01*
X127994412Y-92700117D01*
X127971136Y-92656858D01*
X127956164Y-92628218D01*
X127946350Y-92607969D01*
X127941227Y-92594825D01*
X127940324Y-92587501D01*
X127943173Y-92584712D01*
X127944754Y-92584568D01*
X127954630Y-92587701D01*
G37*
G36*
X132268824Y-93411104D02*
G01*
X132289185Y-93416904D01*
X132312004Y-93424810D01*
X132334693Y-93434006D01*
X132352918Y-93442742D01*
X132381410Y-93461050D01*
X132413295Y-93486977D01*
X132446364Y-93518449D01*
X132478408Y-93553394D01*
X132502050Y-93582760D01*
X132544166Y-93646919D01*
X132578468Y-93717491D01*
X132605292Y-93795299D01*
X132624978Y-93881164D01*
X132625327Y-93883113D01*
X132629447Y-93913008D01*
X132632965Y-93951609D01*
X132635814Y-93996443D01*
X132637926Y-94045036D01*
X132639234Y-94094913D01*
X132639670Y-94143599D01*
X132639168Y-94188620D01*
X132637659Y-94227502D01*
X132635446Y-94254674D01*
X132621693Y-94344480D01*
X132601659Y-94425744D01*
X132575004Y-94499410D01*
X132541388Y-94566423D01*
X132502050Y-94625643D01*
X132472449Y-94661879D01*
X132440038Y-94696318D01*
X132407025Y-94726889D01*
X132375619Y-94751516D01*
X132352918Y-94765661D01*
X132332573Y-94775322D01*
X132309759Y-94784429D01*
X132287064Y-94792166D01*
X132267079Y-94797720D01*
X132252394Y-94800275D01*
X132245840Y-94799330D01*
X132246576Y-94793062D01*
X132251722Y-94779633D01*
X132260237Y-94761663D01*
X132262643Y-94757011D01*
X132272264Y-94738300D01*
X132279434Y-94723587D01*
X132282878Y-94715508D01*
X132283009Y-94714875D01*
X132277913Y-94713123D01*
X132264621Y-94711900D01*
X132248027Y-94711491D01*
X132204466Y-94710041D01*
X132153612Y-94705994D01*
X132098603Y-94699790D01*
X132042577Y-94691866D01*
X131988673Y-94682663D01*
X131940029Y-94672619D01*
X131903662Y-94663317D01*
X131844603Y-94644406D01*
X131792223Y-94623983D01*
X131748440Y-94602822D01*
X131735379Y-94595311D01*
X131716315Y-94582894D01*
X131696039Y-94568292D01*
X131676656Y-94553207D01*
X131660273Y-94539343D01*
X131648997Y-94528402D01*
X131644931Y-94522181D01*
X131650254Y-94520990D01*
X131665126Y-94519939D01*
X131687902Y-94519086D01*
X131716937Y-94518488D01*
X131750586Y-94518200D01*
X131761072Y-94518183D01*
X131801066Y-94517811D01*
X131841929Y-94516786D01*
X131880624Y-94515228D01*
X131914114Y-94513259D01*
X131938783Y-94511068D01*
X131999567Y-94503244D01*
X132061361Y-94493797D01*
X132122243Y-94483114D01*
X132180294Y-94471585D01*
X132233595Y-94459599D01*
X132280225Y-94447546D01*
X132318265Y-94435815D01*
X132328892Y-94431972D01*
X132360782Y-94419858D01*
X132378543Y-94373974D01*
X132387605Y-94348667D01*
X132397816Y-94317177D01*
X132407691Y-94284202D01*
X132413354Y-94263721D01*
X132419741Y-94238820D01*
X132424303Y-94218099D01*
X132427345Y-94198715D01*
X132429169Y-94177827D01*
X132430081Y-94152591D01*
X132430384Y-94120166D01*
X132430403Y-94104202D01*
X132430261Y-94068023D01*
X132429635Y-94040195D01*
X132428220Y-94017875D01*
X132425711Y-93998220D01*
X132421807Y-93978389D01*
X132416202Y-93955538D01*
X132413354Y-93944682D01*
X132404525Y-93913326D01*
X132394373Y-93880324D01*
X132384381Y-93850375D01*
X132378543Y-93834430D01*
X132360782Y-93788545D01*
X132328892Y-93776494D01*
X132284980Y-93762015D01*
X132230531Y-93747725D01*
X132166201Y-93733781D01*
X132095504Y-93720822D01*
X132036074Y-93711090D01*
X131984776Y-93703570D01*
X131938825Y-93698007D01*
X131895432Y-93694146D01*
X131851812Y-93691733D01*
X131805177Y-93690512D01*
X131761072Y-93690221D01*
X131726384Y-93690040D01*
X131695827Y-93689543D01*
X131671049Y-93688783D01*
X131653692Y-93687815D01*
X131645404Y-93686695D01*
X131644931Y-93686346D01*
X131648837Y-93680981D01*
X131659076Y-93670636D01*
X131673385Y-93657592D01*
X131720981Y-93622384D01*
X131778507Y-93591110D01*
X131845345Y-93563949D01*
X131920876Y-93541084D01*
X132004484Y-93522697D01*
X132095551Y-93508969D01*
X132193458Y-93500082D01*
X132212386Y-93498977D01*
X132239012Y-93497366D01*
X132261047Y-93495676D01*
X132276384Y-93494095D01*
X132282917Y-93492810D01*
X132283009Y-93492675D01*
X132280587Y-93486875D01*
X132274166Y-93473766D01*
X132265013Y-93455919D01*
X132262643Y-93451392D01*
X132253479Y-93432728D01*
X132247438Y-93417983D01*
X132245560Y-93409775D01*
X132245840Y-93409073D01*
X132253513Y-93408222D01*
X132268824Y-93411104D01*
G37*
G36*
X130660939Y-93128695D02*
G01*
X130696571Y-93129708D01*
X130730257Y-93131241D01*
X130760123Y-93133283D01*
X130784294Y-93135821D01*
X130785764Y-93136022D01*
X130898505Y-93157250D01*
X131007176Y-93188881D01*
X131111982Y-93230993D01*
X131213125Y-93283663D01*
X131281114Y-93326358D01*
X131314145Y-93348776D01*
X131338848Y-93366003D01*
X131356312Y-93378899D01*
X131367629Y-93388321D01*
X131373890Y-93395129D01*
X131376185Y-93400180D01*
X131376266Y-93401254D01*
X131371363Y-93403774D01*
X131356426Y-93405611D01*
X131331114Y-93406786D01*
X131295087Y-93407320D01*
X131279715Y-93407359D01*
X131237875Y-93407640D01*
X131189299Y-93408432D01*
X131135979Y-93409663D01*
X131079906Y-93411262D01*
X131023074Y-93413158D01*
X130967474Y-93415280D01*
X130915098Y-93417556D01*
X130867940Y-93419915D01*
X130827990Y-93422287D01*
X130797240Y-93424599D01*
X130797234Y-93424600D01*
X130769127Y-93427588D01*
X130743448Y-93431212D01*
X130723212Y-93434993D01*
X130712164Y-93438126D01*
X130694453Y-93450242D01*
X130674580Y-93472087D01*
X130653084Y-93502527D01*
X130630505Y-93540429D01*
X130607385Y-93584657D01*
X130584262Y-93634080D01*
X130561677Y-93687561D01*
X130540170Y-93743968D01*
X130520281Y-93802167D01*
X130502550Y-93861023D01*
X130492234Y-93899905D01*
X130476311Y-93971208D01*
X130466328Y-94035897D01*
X130462285Y-94096847D01*
X130464181Y-94156932D01*
X130472015Y-94219025D01*
X130485785Y-94286001D01*
X130492109Y-94311521D01*
X130508382Y-94369740D01*
X130527134Y-94428093D01*
X130547818Y-94485444D01*
X130569891Y-94540659D01*
X130592807Y-94592602D01*
X130616021Y-94640137D01*
X130638988Y-94682130D01*
X130661164Y-94717444D01*
X130682004Y-94744944D01*
X130700962Y-94763494D01*
X130712280Y-94770326D01*
X130726554Y-94774054D01*
X130750850Y-94777783D01*
X130783996Y-94781448D01*
X130824820Y-94784986D01*
X130872149Y-94788331D01*
X130924811Y-94791421D01*
X130981634Y-94794190D01*
X131041445Y-94796576D01*
X131103074Y-94798514D01*
X131165347Y-94799940D01*
X131227092Y-94800790D01*
X131274118Y-94801012D01*
X131311527Y-94801180D01*
X131339042Y-94801716D01*
X131357962Y-94802716D01*
X131369584Y-94804275D01*
X131375206Y-94806489D01*
X131376266Y-94808547D01*
X131371974Y-94814795D01*
X131360404Y-94825630D01*
X131343518Y-94839320D01*
X131330345Y-94849126D01*
X131231052Y-94914605D01*
X131130047Y-94969112D01*
X131026938Y-95012791D01*
X130921329Y-95045786D01*
X130812828Y-95068243D01*
X130701041Y-95080305D01*
X130699532Y-95080396D01*
X130669369Y-95081666D01*
X130636939Y-95082144D01*
X130604321Y-95081902D01*
X130573593Y-95081011D01*
X130546835Y-95079543D01*
X130526125Y-95077570D01*
X130513542Y-95075164D01*
X130511016Y-95073894D01*
X130512069Y-95067840D01*
X130518775Y-95056373D01*
X130524838Y-95048156D01*
X130538360Y-95028698D01*
X130550600Y-95006953D01*
X130559840Y-94986391D01*
X130564361Y-94970482D01*
X130564552Y-94967959D01*
X130562482Y-94960366D01*
X130556599Y-94944005D01*
X130547497Y-94920397D01*
X130535774Y-94891063D01*
X130522023Y-94857525D01*
X130510865Y-94830828D01*
X130465849Y-94722875D01*
X130425807Y-94624474D01*
X130390601Y-94535215D01*
X130360093Y-94454693D01*
X130334147Y-94382497D01*
X130312626Y-94318220D01*
X130295392Y-94261454D01*
X130282307Y-94211790D01*
X130273236Y-94168821D01*
X130268040Y-94132139D01*
X130266564Y-94104202D01*
X130268394Y-94072820D01*
X130273977Y-94035519D01*
X130283449Y-93991890D01*
X130296948Y-93941525D01*
X130314610Y-93884016D01*
X130336574Y-93818955D01*
X130362976Y-93745933D01*
X130393954Y-93664543D01*
X130429644Y-93574377D01*
X130470185Y-93475025D01*
X130510865Y-93377575D01*
X130525735Y-93341901D01*
X130539019Y-93309303D01*
X130550123Y-93281302D01*
X130558450Y-93259419D01*
X130563406Y-93245176D01*
X130564552Y-93240444D01*
X130561294Y-93226018D01*
X130552942Y-93206180D01*
X130541212Y-93184397D01*
X130527825Y-93164141D01*
X130524838Y-93160248D01*
X130515574Y-93146952D01*
X130511047Y-93137149D01*
X130511280Y-93134232D01*
X130519214Y-93131866D01*
X130536452Y-93130093D01*
X130561118Y-93128901D01*
X130591338Y-93128280D01*
X130625236Y-93128215D01*
X130660939Y-93128695D01*
G37*
G36*
X128643123Y-89112307D02*
G01*
X128652584Y-89126177D01*
X128666960Y-89147468D01*
X128685614Y-89175230D01*
X128707906Y-89208511D01*
X128733198Y-89246358D01*
X128760851Y-89287820D01*
X128785081Y-89324211D01*
X128827233Y-89387966D01*
X128863201Y-89443260D01*
X128893362Y-89490701D01*
X128918093Y-89530897D01*
X128937772Y-89564457D01*
X128952776Y-89591988D01*
X128959233Y-89604906D01*
X128971275Y-89630488D01*
X128981313Y-89652743D01*
X128988438Y-89669588D01*
X128991744Y-89678940D01*
X128991868Y-89679801D01*
X128996328Y-89684231D01*
X129010059Y-89683486D01*
X129099753Y-89668177D01*
X129180757Y-89655523D01*
X129255204Y-89645318D01*
X129325227Y-89637357D01*
X129392959Y-89631433D01*
X129460533Y-89627343D01*
X129530082Y-89624879D01*
X129603738Y-89623837D01*
X129629946Y-89623770D01*
X129820319Y-89629159D01*
X130009009Y-89645368D01*
X130196341Y-89672461D01*
X130382639Y-89710504D01*
X130568228Y-89759559D01*
X130753432Y-89819691D01*
X130900506Y-89875401D01*
X130941340Y-89892504D01*
X130987950Y-89913128D01*
X131037940Y-89936122D01*
X131088914Y-89960336D01*
X131138476Y-89984619D01*
X131184230Y-90007818D01*
X131223780Y-90028784D01*
X131247531Y-90042117D01*
X131260593Y-90050027D01*
X131281158Y-90062885D01*
X131308130Y-90079978D01*
X131340411Y-90100595D01*
X131376902Y-90124021D01*
X131416508Y-90149543D01*
X131458128Y-90176450D01*
X131500667Y-90204027D01*
X131543026Y-90231562D01*
X131584108Y-90258341D01*
X131622815Y-90283653D01*
X131658049Y-90306784D01*
X131688713Y-90327020D01*
X131713709Y-90343649D01*
X131731939Y-90355959D01*
X131742305Y-90363235D01*
X131744049Y-90364618D01*
X131743425Y-90367677D01*
X131737386Y-90373623D01*
X131725342Y-90382852D01*
X131706702Y-90395759D01*
X131680875Y-90412740D01*
X131647273Y-90434191D01*
X131605303Y-90460506D01*
X131554375Y-90492083D01*
X131546701Y-90496820D01*
X131342588Y-90622756D01*
X131355229Y-90633038D01*
X131421611Y-90690317D01*
X131491354Y-90756746D01*
X131563361Y-90831205D01*
X131636538Y-90912576D01*
X131687482Y-90972580D01*
X131772078Y-91070416D01*
X131859134Y-91162660D01*
X131949957Y-91250436D01*
X132045857Y-91334864D01*
X132148141Y-91417065D01*
X132258116Y-91498163D01*
X132377092Y-91579279D01*
X132449287Y-91625857D01*
X132551196Y-91690401D01*
X132540734Y-91710699D01*
X132521586Y-91742891D01*
X132496028Y-91778808D01*
X132466467Y-91815576D01*
X132435314Y-91850321D01*
X132404978Y-91880169D01*
X132383759Y-91897956D01*
X132364169Y-91912782D01*
X132394074Y-91912844D01*
X132428384Y-91910427D01*
X132469760Y-91903564D01*
X132515362Y-91893024D01*
X132562351Y-91879577D01*
X132607887Y-91863991D01*
X132649130Y-91847034D01*
X132664756Y-91839554D01*
X132678570Y-91832044D01*
X132700106Y-91819656D01*
X132727593Y-91803443D01*
X132759258Y-91784455D01*
X132793330Y-91763744D01*
X132815126Y-91750351D01*
X132847648Y-91730377D01*
X132876874Y-91712619D01*
X132901507Y-91697847D01*
X132920252Y-91686832D01*
X132931814Y-91680347D01*
X132935018Y-91678936D01*
X132947442Y-91694079D01*
X132965281Y-91716712D01*
X132987363Y-91745272D01*
X133012517Y-91778198D01*
X133039569Y-91813927D01*
X133067350Y-91850898D01*
X133094686Y-91887548D01*
X133120405Y-91922317D01*
X133143337Y-91953642D01*
X133162308Y-91979961D01*
X133176146Y-91999713D01*
X133179874Y-92005259D01*
X133206255Y-92047662D01*
X133234343Y-92096878D01*
X133262382Y-92149534D01*
X133288617Y-92202257D01*
X133311294Y-92251672D01*
X133324252Y-92282850D01*
X133333426Y-92305638D01*
X133341067Y-92321122D01*
X133349697Y-92332434D01*
X133361838Y-92342703D01*
X133380013Y-92355060D01*
X133385136Y-92358412D01*
X133418843Y-92381277D01*
X133458720Y-92409694D01*
X133502448Y-92441919D01*
X133547705Y-92476209D01*
X133592172Y-92510820D01*
X133633530Y-92544008D01*
X133648721Y-92556527D01*
X133680309Y-92583865D01*
X133717681Y-92617975D01*
X133759222Y-92657240D01*
X133803315Y-92700041D01*
X133848345Y-92744761D01*
X133892696Y-92789780D01*
X133934752Y-92833481D01*
X133972898Y-92874246D01*
X134005517Y-92910457D01*
X134025828Y-92934189D01*
X134138175Y-93077145D01*
X134242176Y-93224668D01*
X134337304Y-93375849D01*
X134423035Y-93529777D01*
X134498841Y-93685543D01*
X134564196Y-93842237D01*
X134587482Y-93905502D01*
X134599765Y-93941472D01*
X134611557Y-93978318D01*
X134622324Y-94014124D01*
X134631527Y-94046978D01*
X134638630Y-94074963D01*
X134643096Y-94096167D01*
X134644398Y-94108493D01*
X134642660Y-94119014D01*
X134638474Y-94137337D01*
X134632542Y-94160518D01*
X134628037Y-94176965D01*
X134596698Y-94277114D01*
X134557721Y-94382699D01*
X134511989Y-94491893D01*
X134460384Y-94602870D01*
X134403788Y-94713804D01*
X134343082Y-94822866D01*
X134279149Y-94928231D01*
X134227280Y-95007154D01*
X134166444Y-95093928D01*
X134106623Y-95173932D01*
X134045669Y-95249745D01*
X133981436Y-95323950D01*
X133911777Y-95399128D01*
X133842186Y-95470239D01*
X133729099Y-95578785D01*
X133617694Y-95676596D01*
X133507637Y-95763950D01*
X133398596Y-95841122D01*
X133385136Y-95849991D01*
X133365274Y-95863240D01*
X133352007Y-95873703D01*
X133342814Y-95884512D01*
X133335172Y-95898796D01*
X133326557Y-95919686D01*
X133324252Y-95925553D01*
X133305161Y-95970581D01*
X133281267Y-96021307D01*
X133254326Y-96074359D01*
X133226091Y-96126362D01*
X133198319Y-96173942D01*
X133179874Y-96203144D01*
X133168335Y-96219935D01*
X133151211Y-96243898D01*
X133129674Y-96273471D01*
X133104894Y-96307092D01*
X133078045Y-96343200D01*
X133050297Y-96380232D01*
X133022824Y-96416627D01*
X132996796Y-96450823D01*
X132973386Y-96481258D01*
X132953767Y-96506369D01*
X132939109Y-96524596D01*
X132935018Y-96529468D01*
X132930069Y-96527121D01*
X132916911Y-96519633D01*
X132896837Y-96507775D01*
X132871144Y-96492320D01*
X132841128Y-96474038D01*
X132815126Y-96458053D01*
X132780450Y-96436798D01*
X132747069Y-96416607D01*
X132716755Y-96398532D01*
X132691281Y-96383622D01*
X132672418Y-96372931D01*
X132664756Y-96368849D01*
X132626216Y-96351542D01*
X132582169Y-96335275D01*
X132535453Y-96320819D01*
X132488910Y-96308942D01*
X132445379Y-96300412D01*
X132407700Y-96296000D01*
X132394074Y-96295560D01*
X132364169Y-96295622D01*
X132383759Y-96310448D01*
X132411833Y-96334588D01*
X132442575Y-96365831D01*
X132473572Y-96401304D01*
X132502417Y-96438130D01*
X132526700Y-96473437D01*
X132540734Y-96497704D01*
X132551196Y-96518002D01*
X132449287Y-96582547D01*
X132324607Y-96664172D01*
X132209672Y-96745143D01*
X132103173Y-96826579D01*
X132003803Y-96909603D01*
X131910252Y-96995337D01*
X131821213Y-97084901D01*
X131735378Y-97179419D01*
X131687482Y-97235824D01*
X131614137Y-97321337D01*
X131541201Y-97400717D01*
X131469770Y-97472843D01*
X131400937Y-97536597D01*
X131355229Y-97575365D01*
X131342588Y-97585647D01*
X131546701Y-97711584D01*
X131598897Y-97743908D01*
X131642054Y-97770918D01*
X131676763Y-97793009D01*
X131703615Y-97810577D01*
X131723201Y-97824017D01*
X131736110Y-97833724D01*
X131742933Y-97840094D01*
X131744262Y-97843524D01*
X131744049Y-97843785D01*
X131737310Y-97848737D01*
X131722246Y-97859021D01*
X131699957Y-97873924D01*
X131671538Y-97892734D01*
X131638088Y-97914736D01*
X131600705Y-97939219D01*
X131560486Y-97965470D01*
X131518530Y-97992775D01*
X131475932Y-98020421D01*
X131433793Y-98047696D01*
X131393208Y-98073886D01*
X131355276Y-98098278D01*
X131321094Y-98120161D01*
X131291761Y-98138820D01*
X131268373Y-98153542D01*
X131252029Y-98163615D01*
X131247531Y-98166286D01*
X131214078Y-98184872D01*
X131172658Y-98206539D01*
X131125666Y-98230136D01*
X131075498Y-98254512D01*
X131024551Y-98278516D01*
X130975221Y-98300997D01*
X130929903Y-98320803D01*
X130900506Y-98333002D01*
X130715051Y-98401948D01*
X130528367Y-98459965D01*
X130340687Y-98507020D01*
X130152242Y-98543080D01*
X129963263Y-98568114D01*
X129773981Y-98582087D01*
X129584629Y-98584968D01*
X129395436Y-98576723D01*
X129266130Y-98564646D01*
X129230444Y-98560285D01*
X129191728Y-98554925D01*
X129148197Y-98548290D01*
X129098067Y-98540103D01*
X129039554Y-98530087D01*
X129010059Y-98524917D01*
X128996291Y-98524180D01*
X128991868Y-98528602D01*
X128989553Y-98535970D01*
X128983212Y-98551303D01*
X128973753Y-98572517D01*
X128962085Y-98597528D01*
X128959233Y-98603497D01*
X128946664Y-98627941D01*
X128929629Y-98658075D01*
X128907752Y-98694508D01*
X128880655Y-98737848D01*
X128847961Y-98788703D01*
X128809293Y-98847681D01*
X128785081Y-98884193D01*
X128755956Y-98927928D01*
X128728663Y-98968836D01*
X128703842Y-99005966D01*
X128682130Y-99038366D01*
X128664166Y-99065083D01*
X128650589Y-99085166D01*
X128642038Y-99097664D01*
X128639217Y-99101593D01*
X128634994Y-99098328D01*
X128624749Y-99087044D01*
X128618128Y-99079202D01*
X128609217Y-99068648D01*
X128589135Y-99044043D01*
X128565237Y-99014137D01*
X128538258Y-98979835D01*
X128508935Y-98942043D01*
X128496047Y-98925282D01*
X128428700Y-98837884D01*
X128366811Y-98758535D01*
X128309415Y-98686116D01*
X128255548Y-98619509D01*
X128204247Y-98557593D01*
X128154545Y-98499250D01*
X128105480Y-98443360D01*
X128056087Y-98388804D01*
X128005401Y-98334462D01*
X127952459Y-98279216D01*
X127896295Y-98221945D01*
X127850536Y-98176052D01*
X127768279Y-98095474D01*
X127691361Y-98023160D01*
X127618714Y-97958193D01*
X127549272Y-97899656D01*
X127481968Y-97846632D01*
X127415735Y-97798204D01*
X127390556Y-97780769D01*
X127323756Y-97735211D01*
X127258065Y-97772827D01*
X127096122Y-97862082D01*
X126934313Y-97944407D01*
X126773371Y-98019530D01*
X126614027Y-98087180D01*
X126457013Y-98147085D01*
X126303060Y-98198972D01*
X126152902Y-98242572D01*
X126007269Y-98277611D01*
X125866894Y-98303818D01*
X125803046Y-98312993D01*
X125785789Y-98314935D01*
X125760052Y-98317441D01*
X125727082Y-98320415D01*
X125688126Y-98323763D01*
X125644431Y-98327391D01*
X125597241Y-98331203D01*
X125547806Y-98335106D01*
X125497369Y-98339005D01*
X125447180Y-98342804D01*
X125398482Y-98346410D01*
X125352525Y-98349728D01*
X125310553Y-98352663D01*
X125273814Y-98355120D01*
X125243553Y-98357006D01*
X125221019Y-98358225D01*
X125207456Y-98358682D01*
X125203920Y-98358468D01*
X125205137Y-98352880D01*
X125209437Y-98337686D01*
X125216497Y-98313945D01*
X125225992Y-98282714D01*
X125237599Y-98245051D01*
X125250993Y-98202014D01*
X125265852Y-98154660D01*
X125280550Y-98108150D01*
X125297630Y-98053907D01*
X125314450Y-97999785D01*
X125317767Y-97988976D01*
X125667663Y-97988976D01*
X125667841Y-97992257D01*
X125670581Y-97994247D01*
X125677246Y-97994922D01*
X125689196Y-97994257D01*
X125707793Y-97992231D01*
X125734401Y-97988817D01*
X125770380Y-97983994D01*
X125781886Y-97982445D01*
X125903424Y-97962194D01*
X126031122Y-97933426D01*
X126164233Y-97896437D01*
X126302011Y-97851522D01*
X126443712Y-97798976D01*
X126588590Y-97739094D01*
X126735899Y-97672171D01*
X126884895Y-97598502D01*
X127034830Y-97518382D01*
X127184961Y-97432107D01*
X127210303Y-97416937D01*
X127239962Y-97399261D01*
X127266548Y-97383758D01*
X127288511Y-97371305D01*
X127304301Y-97362778D01*
X127312366Y-97359054D01*
X127312875Y-97358962D01*
X127321786Y-97361660D01*
X127338566Y-97369126D01*
X127361453Y-97380418D01*
X127388690Y-97394593D01*
X127418515Y-97410708D01*
X127449169Y-97427821D01*
X127478892Y-97444988D01*
X127505924Y-97461268D01*
X127517798Y-97468727D01*
X127607819Y-97529722D01*
X127702000Y-97600104D01*
X127799623Y-97679185D01*
X127899967Y-97766275D01*
X128002315Y-97860688D01*
X128105946Y-97961735D01*
X128210142Y-98068727D01*
X128314184Y-98180977D01*
X128417352Y-98297796D01*
X128518928Y-98418496D01*
X128549784Y-98456352D01*
X128618128Y-98540837D01*
X128628615Y-98523594D01*
X128658674Y-98467311D01*
X128686426Y-98401585D01*
X128711319Y-98328026D01*
X128732799Y-98248247D01*
X128748594Y-98173351D01*
X128752829Y-98151090D01*
X128756412Y-98133487D01*
X128758813Y-98123085D01*
X128759406Y-98121378D01*
X128765006Y-98122308D01*
X128779541Y-98125899D01*
X128801204Y-98131672D01*
X128828185Y-98139148D01*
X128849764Y-98145281D01*
X128996984Y-98183491D01*
X129142933Y-98213007D01*
X129290204Y-98234219D01*
X129441388Y-98247516D01*
X129565579Y-98252686D01*
X129685155Y-98253402D01*
X129798509Y-98249722D01*
X129909834Y-98241355D01*
X130023321Y-98228010D01*
X130111304Y-98214733D01*
X130252310Y-98187865D01*
X130395056Y-98153331D01*
X130537469Y-98111836D01*
X130677474Y-98064087D01*
X130812996Y-98010790D01*
X130941961Y-97952650D01*
X131059190Y-97892097D01*
X131088207Y-97875932D01*
X131108592Y-97864172D01*
X131121550Y-97855883D01*
X131128286Y-97850129D01*
X131130007Y-97845975D01*
X131127916Y-97842485D01*
X131125627Y-97840547D01*
X131116559Y-97833850D01*
X131100743Y-97822513D01*
X131080626Y-97808279D01*
X131064194Y-97796757D01*
X131038557Y-97778069D01*
X131009577Y-97755635D01*
X130978443Y-97730506D01*
X130946341Y-97703733D01*
X130914460Y-97676368D01*
X130883987Y-97649462D01*
X130856109Y-97624067D01*
X130832013Y-97601234D01*
X130812887Y-97582013D01*
X130799919Y-97567457D01*
X130794295Y-97558617D01*
X130794155Y-97557661D01*
X130798881Y-97552871D01*
X130811490Y-97544511D01*
X130829815Y-97533943D01*
X130843103Y-97526877D01*
X130879981Y-97506400D01*
X130922952Y-97480129D01*
X130969682Y-97449634D01*
X131017833Y-97416487D01*
X131065072Y-97382258D01*
X131109061Y-97348519D01*
X131113434Y-97345039D01*
X131150064Y-97314330D01*
X131191545Y-97277123D01*
X131235827Y-97235450D01*
X131280860Y-97191343D01*
X131324594Y-97146835D01*
X131364978Y-97103958D01*
X131399963Y-97064745D01*
X131418402Y-97042721D01*
X131521451Y-96920358D01*
X131626147Y-96805610D01*
X131731663Y-96699306D01*
X131837171Y-96602274D01*
X131941842Y-96515343D01*
X131956964Y-96503577D01*
X132019923Y-96455017D01*
X132007356Y-96444605D01*
X131985024Y-96429774D01*
X131953809Y-96414243D01*
X131915917Y-96398821D01*
X131873557Y-96384314D01*
X131828936Y-96371531D01*
X131784264Y-96361278D01*
X131774403Y-96359398D01*
X131747622Y-96353817D01*
X131731848Y-96348870D01*
X131726916Y-96344502D01*
X131727163Y-96343780D01*
X131776550Y-96269487D01*
X131834961Y-96199713D01*
X131900616Y-96136281D01*
X131971733Y-96081009D01*
X132005949Y-96058729D01*
X132075034Y-96022821D01*
X132150402Y-95995502D01*
X132231032Y-95976877D01*
X132315902Y-95967052D01*
X132403989Y-95966134D01*
X132494272Y-95974229D01*
X132585729Y-95991443D01*
X132605788Y-95996434D01*
X132663436Y-96013371D01*
X132723039Y-96034369D01*
X132779574Y-96057570D01*
X132810517Y-96072067D01*
X132853869Y-96093592D01*
X132875210Y-96064410D01*
X132915282Y-96004436D01*
X132954096Y-95936497D01*
X132990028Y-95863817D01*
X133021454Y-95789620D01*
X133041052Y-95735036D01*
X133065047Y-95662111D01*
X133124550Y-95624783D01*
X133268744Y-95527753D01*
X133406597Y-95421707D01*
X133537707Y-95307115D01*
X133661675Y-95184448D01*
X133778100Y-95054178D01*
X133886582Y-94916774D01*
X133986719Y-94772709D01*
X134078113Y-94622453D01*
X134160361Y-94466478D01*
X134219911Y-94336485D01*
X134231877Y-94307691D01*
X134244726Y-94275326D01*
X134257786Y-94241249D01*
X134270382Y-94207320D01*
X134281843Y-94175399D01*
X134291493Y-94147344D01*
X134298661Y-94125015D01*
X134302671Y-94110273D01*
X134303283Y-94106291D01*
X134301650Y-94097854D01*
X134296960Y-94081095D01*
X134289883Y-94058249D01*
X134281093Y-94031550D01*
X134278674Y-94024440D01*
X134242208Y-93926562D01*
X134198511Y-93824110D01*
X134148842Y-93719807D01*
X134094458Y-93616378D01*
X134070869Y-93574473D01*
X133977409Y-93422574D01*
X133875587Y-93277587D01*
X133765769Y-93139890D01*
X133648320Y-93009866D01*
X133523606Y-92887895D01*
X133391991Y-92774356D01*
X133253842Y-92669632D01*
X133112073Y-92575676D01*
X133065178Y-92546690D01*
X133041118Y-92473567D01*
X133014228Y-92400587D01*
X132981665Y-92326711D01*
X132945043Y-92255149D01*
X132905975Y-92189107D01*
X132875410Y-92144265D01*
X132854271Y-92115355D01*
X132804106Y-92139914D01*
X132749235Y-92164171D01*
X132687245Y-92187116D01*
X132622210Y-92207375D01*
X132558204Y-92223576D01*
X132551794Y-92224967D01*
X132526200Y-92230208D01*
X132503932Y-92234073D01*
X132482452Y-92236767D01*
X132459220Y-92238497D01*
X132431699Y-92239469D01*
X132397351Y-92239888D01*
X132366967Y-92239964D01*
X132326326Y-92239846D01*
X132294623Y-92239345D01*
X132269606Y-92238285D01*
X132249021Y-92236490D01*
X132230614Y-92233783D01*
X132212132Y-92229991D01*
X132199052Y-92226870D01*
X132117478Y-92202147D01*
X132042294Y-92169507D01*
X131970983Y-92127811D01*
X131953096Y-92115579D01*
X131917812Y-92087759D01*
X131879480Y-92052414D01*
X131840249Y-92011931D01*
X131802270Y-91968700D01*
X131767694Y-91925108D01*
X131738671Y-91883543D01*
X131727120Y-91864624D01*
X131730204Y-91860339D01*
X131744168Y-91855474D01*
X131769148Y-91849986D01*
X131774403Y-91849006D01*
X131804107Y-91842744D01*
X131838249Y-91834300D01*
X131870712Y-91825213D01*
X131879252Y-91822579D01*
X131903072Y-91814253D01*
X131928912Y-91803966D01*
X131954777Y-91792674D01*
X131978673Y-91781335D01*
X131998606Y-91770904D01*
X132012582Y-91762339D01*
X132018606Y-91756596D01*
X132018634Y-91755709D01*
X132013888Y-91751032D01*
X132001958Y-91740944D01*
X131984548Y-91726841D01*
X131963357Y-91710123D01*
X131959070Y-91706786D01*
X131868996Y-91633649D01*
X131780043Y-91554868D01*
X131691236Y-91469470D01*
X131601604Y-91376481D01*
X131510174Y-91274930D01*
X131415975Y-91163841D01*
X131413017Y-91160254D01*
X131343557Y-91080643D01*
X131268423Y-91003076D01*
X131189181Y-90928867D01*
X131107402Y-90859329D01*
X131024653Y-90795772D01*
X130942503Y-90739511D01*
X130862521Y-90691856D01*
X130836787Y-90678199D01*
X130817481Y-90667681D01*
X130802718Y-90658485D01*
X130794826Y-90652107D01*
X130794113Y-90650742D01*
X130798221Y-90643100D01*
X130809902Y-90629541D01*
X130827965Y-90611117D01*
X130851224Y-90588880D01*
X130878489Y-90563882D01*
X130908572Y-90537176D01*
X130940284Y-90509814D01*
X130972437Y-90482848D01*
X131003842Y-90457330D01*
X131033311Y-90434312D01*
X131059655Y-90414846D01*
X131064194Y-90411647D01*
X131085932Y-90396384D01*
X131105206Y-90382709D01*
X131119567Y-90372366D01*
X131125640Y-90367847D01*
X131129294Y-90364324D01*
X131129788Y-90360648D01*
X131125917Y-90355886D01*
X131116473Y-90349104D01*
X131100249Y-90339367D01*
X131076039Y-90325742D01*
X131059202Y-90316430D01*
X130923238Y-90246819D01*
X130779178Y-90183344D01*
X130628631Y-90126557D01*
X130473202Y-90077013D01*
X130314502Y-90035265D01*
X130154136Y-90001866D01*
X130136491Y-89998730D01*
X130018709Y-89980161D01*
X129906743Y-89966867D01*
X129796700Y-89958554D01*
X129684686Y-89954925D01*
X129568377Y-89955648D01*
X129408984Y-89963214D01*
X129255533Y-89978644D01*
X129105669Y-90002292D01*
X128957035Y-90034510D01*
X128849764Y-90063123D01*
X128820087Y-90071524D01*
X128794433Y-90078565D01*
X128774610Y-90083767D01*
X128762428Y-90086651D01*
X128759406Y-90087025D01*
X128757795Y-90081187D01*
X128754738Y-90066873D01*
X128750764Y-90046627D01*
X128748594Y-90035052D01*
X128726263Y-89933118D01*
X128698644Y-89840737D01*
X128665615Y-89757531D01*
X128645694Y-89716679D01*
X128619697Y-89666970D01*
X128601928Y-89688693D01*
X128498591Y-89813334D01*
X128400023Y-89928718D01*
X128305682Y-90035440D01*
X128215023Y-90134096D01*
X128127503Y-90225281D01*
X128042579Y-90309590D01*
X127987828Y-90361626D01*
X127917615Y-90426425D01*
X127853493Y-90483963D01*
X127794103Y-90535332D01*
X127738085Y-90581627D01*
X127684078Y-90623940D01*
X127630724Y-90663365D01*
X127576664Y-90700995D01*
X127520536Y-90737923D01*
X127517138Y-90740098D01*
X127490812Y-90756380D01*
X127461235Y-90773767D01*
X127430159Y-90791327D01*
X127399338Y-90808129D01*
X127370524Y-90823240D01*
X127345470Y-90835729D01*
X127325928Y-90844665D01*
X127313651Y-90849116D01*
X127311442Y-90849442D01*
X127303736Y-90846591D01*
X127288993Y-90838891D01*
X127269546Y-90827616D01*
X127253647Y-90817817D01*
X127194905Y-90781844D01*
X127127904Y-90742759D01*
X127054749Y-90701681D01*
X126977547Y-90659727D01*
X126898403Y-90618014D01*
X126819422Y-90577660D01*
X126742711Y-90539783D01*
X126670376Y-90505500D01*
X126633805Y-90488844D01*
X126493028Y-90428726D01*
X126354321Y-90375334D01*
X126218683Y-90328978D01*
X126087109Y-90289970D01*
X125960596Y-90258618D01*
X125840142Y-90235233D01*
X125798677Y-90228857D01*
X125756907Y-90222911D01*
X125724950Y-90218464D01*
X125701532Y-90215466D01*
X125685380Y-90213871D01*
X125675218Y-90213630D01*
X125669773Y-90214696D01*
X125667772Y-90217021D01*
X125667939Y-90220556D01*
X125668722Y-90223975D01*
X125670878Y-90232778D01*
X125675394Y-90250760D01*
X125681846Y-90276259D01*
X125689814Y-90307609D01*
X125698875Y-90343148D01*
X125705368Y-90368553D01*
X125748158Y-90547938D01*
X125787247Y-90736763D01*
X125822463Y-90933845D01*
X125853636Y-91138001D01*
X125880593Y-91348047D01*
X125903164Y-91562800D01*
X125921177Y-91781078D01*
X125930190Y-91921302D01*
X125932947Y-91973577D01*
X125935412Y-92028335D01*
X125937556Y-92084128D01*
X125939346Y-92139508D01*
X125940752Y-92193026D01*
X125941742Y-92243236D01*
X125942284Y-92288688D01*
X125942348Y-92327935D01*
X125941902Y-92359528D01*
X125940914Y-92382021D01*
X125940308Y-92388598D01*
X125936179Y-92410579D01*
X125927816Y-92442836D01*
X125915211Y-92485390D01*
X125898358Y-92538259D01*
X125879309Y-92595405D01*
X125846389Y-92693612D01*
X125817322Y-92782520D01*
X125792158Y-92861962D01*
X125770946Y-92931770D01*
X125753737Y-92991780D01*
X125740580Y-93041825D01*
X125731525Y-93081737D01*
X125728430Y-93098582D01*
X125726430Y-93130629D01*
X125729219Y-93172402D01*
X125736702Y-93223554D01*
X125748782Y-93283740D01*
X125765366Y-93352611D01*
X125786357Y-93429822D01*
X125811660Y-93515026D01*
X125841180Y-93607875D01*
X125874822Y-93708024D01*
X125912491Y-93815126D01*
X125954091Y-93928834D01*
X125963199Y-93953201D01*
X126019926Y-94104448D01*
X125966190Y-94247053D01*
X125924555Y-94359504D01*
X125886558Y-94466154D01*
X125852311Y-94566591D01*
X125821928Y-94660404D01*
X125795523Y-94747180D01*
X125773209Y-94826509D01*
X125755099Y-94897977D01*
X125741307Y-94961173D01*
X125731946Y-95015686D01*
X125727130Y-95061103D01*
X125726973Y-95097013D01*
X125728430Y-95109821D01*
X125735306Y-95144327D01*
X125746309Y-95189047D01*
X125761385Y-95243809D01*
X125780483Y-95308441D01*
X125803553Y-95382772D01*
X125830541Y-95466629D01*
X125861397Y-95559841D01*
X125879202Y-95612682D01*
X125899705Y-95674306D01*
X125916119Y-95726059D01*
X125928407Y-95767815D01*
X125936531Y-95799451D01*
X125940330Y-95819778D01*
X125941643Y-95838230D01*
X125942372Y-95866452D01*
X125942548Y-95903038D01*
X125942200Y-95946582D01*
X125941360Y-95995675D01*
X125940058Y-96048913D01*
X125938324Y-96104887D01*
X125936190Y-96162191D01*
X125933685Y-96219419D01*
X125930841Y-96275163D01*
X125930172Y-96287102D01*
X125915837Y-96498436D01*
X125897125Y-96707672D01*
X125874214Y-96913565D01*
X125847286Y-97114868D01*
X125816521Y-97310336D01*
X125782099Y-97498724D01*
X125744201Y-97678787D01*
X125705316Y-97840319D01*
X125695737Y-97877667D01*
X125686975Y-97911947D01*
X125679453Y-97941490D01*
X125673595Y-97964631D01*
X125669825Y-97979702D01*
X125668685Y-97984428D01*
X125667663Y-97988976D01*
X125317767Y-97988976D01*
X125330532Y-97947376D01*
X125345395Y-97898273D01*
X125358560Y-97854068D01*
X125369547Y-97816351D01*
X125377877Y-97786715D01*
X125381483Y-97773153D01*
X125422514Y-97601358D01*
X125460084Y-97420256D01*
X125494011Y-97231244D01*
X125524112Y-97035720D01*
X125550205Y-96835078D01*
X125572108Y-96630718D01*
X125589638Y-96424034D01*
X125602613Y-96216424D01*
X125610589Y-96018437D01*
X125614998Y-95867313D01*
X125546139Y-95660218D01*
X125517300Y-95572473D01*
X125491134Y-95490796D01*
X125467855Y-95415900D01*
X125447675Y-95348497D01*
X125430807Y-95289302D01*
X125417464Y-95239028D01*
X125407858Y-95198388D01*
X125406688Y-95192853D01*
X125399372Y-95140979D01*
X125397027Y-95081855D01*
X125399623Y-95018247D01*
X125407129Y-94952920D01*
X125409507Y-94938181D01*
X125423753Y-94864806D01*
X125442947Y-94782527D01*
X125466794Y-94692331D01*
X125495000Y-94595204D01*
X125527268Y-94492134D01*
X125563304Y-94384107D01*
X125602814Y-94272110D01*
X125633774Y-94188159D01*
X125644095Y-94160313D01*
X125652834Y-94136055D01*
X125659295Y-94117369D01*
X125662782Y-94106240D01*
X125663196Y-94104202D01*
X125661317Y-94097233D01*
X125656143Y-94081791D01*
X125648369Y-94059859D01*
X125638693Y-94033423D01*
X125633774Y-94020244D01*
X125591909Y-93905966D01*
X125553301Y-93794935D01*
X125518245Y-93688139D01*
X125487035Y-93586564D01*
X125459968Y-93491197D01*
X125437338Y-93403024D01*
X125419440Y-93323033D01*
X125409507Y-93270222D01*
X125400893Y-93204890D01*
X125397183Y-93140651D01*
X125398407Y-93080270D01*
X125404595Y-93026513D01*
X125406688Y-93015550D01*
X125415678Y-92976510D01*
X125428441Y-92927722D01*
X125444762Y-92869900D01*
X125464429Y-92803756D01*
X125487229Y-92730006D01*
X125512949Y-92649360D01*
X125541376Y-92562535D01*
X125546139Y-92548186D01*
X125614998Y-92341090D01*
X125610589Y-92189966D01*
X125602137Y-91982777D01*
X125588957Y-91775179D01*
X125571229Y-91568568D01*
X125549136Y-91364343D01*
X125522862Y-91163899D01*
X125492587Y-90968633D01*
X125458495Y-90779942D01*
X125420767Y-90599224D01*
X125381483Y-90435251D01*
X125375032Y-90411395D01*
X125365627Y-90378477D01*
X125353749Y-90338087D01*
X125339877Y-90291818D01*
X125324491Y-90241261D01*
X125308070Y-90188008D01*
X125291094Y-90133652D01*
X125280550Y-90100253D01*
X125264630Y-90049860D01*
X125249875Y-90002810D01*
X125236610Y-89960159D01*
X125225159Y-89922967D01*
X125215845Y-89892291D01*
X125208992Y-89869188D01*
X125204924Y-89854717D01*
X125203920Y-89849936D01*
X125209915Y-89849758D01*
X125225820Y-89850414D01*
X125250387Y-89851807D01*
X125282371Y-89853843D01*
X125320524Y-89856428D01*
X125363601Y-89859466D01*
X125410354Y-89862864D01*
X125459538Y-89866527D01*
X125509905Y-89870360D01*
X125560209Y-89874268D01*
X125609204Y-89878158D01*
X125655643Y-89881933D01*
X125698279Y-89885500D01*
X125735867Y-89888765D01*
X125767159Y-89891631D01*
X125790908Y-89894006D01*
X125803046Y-89895410D01*
X125940703Y-89917379D01*
X126083960Y-89948308D01*
X126232086Y-89987925D01*
X126384349Y-90035957D01*
X126540017Y-90092134D01*
X126698359Y-90156183D01*
X126858643Y-90227834D01*
X127020136Y-90306813D01*
X127182108Y-90392851D01*
X127258065Y-90435577D01*
X127323756Y-90473192D01*
X127390556Y-90427635D01*
X127456662Y-90380717D01*
X127523432Y-90329553D01*
X127591933Y-90273225D01*
X127663233Y-90210816D01*
X127738398Y-90141409D01*
X127818495Y-90064089D01*
X127850536Y-90032351D01*
X127909817Y-89972776D01*
X127965138Y-89916081D01*
X128017464Y-89861148D01*
X128067760Y-89806856D01*
X128116990Y-89752087D01*
X128166118Y-89695722D01*
X128216108Y-89636641D01*
X128267925Y-89573725D01*
X128322533Y-89505854D01*
X128380897Y-89431909D01*
X128443981Y-89350772D01*
X128496047Y-89283122D01*
X128526138Y-89244129D01*
X128554195Y-89208245D01*
X128579481Y-89176375D01*
X128601262Y-89149425D01*
X128618802Y-89128301D01*
X128631366Y-89113907D01*
X128638218Y-89107151D01*
X128639217Y-89106810D01*
X128643123Y-89112307D01*
G37*
G36*
X128457154Y-90395962D02*
G01*
X128458232Y-90410831D01*
X128459118Y-90433715D01*
X128459757Y-90463024D01*
X128460096Y-90497170D01*
X128460136Y-90514264D01*
X128460136Y-90638054D01*
X128472730Y-90635131D01*
X128481543Y-90632959D01*
X128499532Y-90628428D01*
X128525029Y-90621961D01*
X128556366Y-90613982D01*
X128591875Y-90604915D01*
X128616857Y-90598522D01*
X128817216Y-90551571D01*
X129013908Y-90514392D01*
X129208350Y-90486783D01*
X129401960Y-90468544D01*
X129596156Y-90459474D01*
X129599162Y-90459405D01*
X129648964Y-90458735D01*
X129700691Y-90458869D01*
X129753158Y-90459732D01*
X129805182Y-90461251D01*
X129855577Y-90463352D01*
X129903159Y-90465960D01*
X129946743Y-90469002D01*
X129985144Y-90472403D01*
X130017177Y-90476089D01*
X130041659Y-90479986D01*
X130057404Y-90484020D01*
X130063228Y-90488118D01*
X130063232Y-90488424D01*
X130058391Y-90493812D01*
X130046305Y-90502177D01*
X130032447Y-90510143D01*
X129912952Y-90576123D01*
X129802627Y-90641929D01*
X129701892Y-90707284D01*
X129611164Y-90771909D01*
X129530863Y-90835524D01*
X129487218Y-90873677D01*
X129453635Y-90904268D01*
X129481621Y-90907935D01*
X129564554Y-90920010D01*
X129639881Y-90933736D01*
X129711159Y-90949929D01*
X129781945Y-90969402D01*
X129855798Y-90992972D01*
X129861930Y-90995054D01*
X130000697Y-91048240D01*
X130134828Y-91111596D01*
X130264213Y-91185053D01*
X130388740Y-91268543D01*
X130508298Y-91361996D01*
X130622777Y-91465345D01*
X130628323Y-91470729D01*
X130724377Y-91569562D01*
X130813154Y-91672117D01*
X130895695Y-91779842D01*
X130973040Y-91894184D01*
X131046227Y-92016589D01*
X131116298Y-92148506D01*
X131118575Y-92153051D01*
X131164506Y-92244871D01*
X131120662Y-92241344D01*
X131085345Y-92236735D01*
X131042116Y-92228256D01*
X130993306Y-92216553D01*
X130941247Y-92202272D01*
X130888270Y-92186056D01*
X130836707Y-92168551D01*
X130788890Y-92150403D01*
X130782330Y-92147725D01*
X130762986Y-92140217D01*
X130747922Y-92135248D01*
X130739822Y-92133678D01*
X130739225Y-92133890D01*
X130739454Y-92140951D01*
X130744965Y-92155412D01*
X130754819Y-92175366D01*
X130768077Y-92198907D01*
X130783388Y-92223501D01*
X130835446Y-92293228D01*
X130897467Y-92358425D01*
X130969097Y-92418899D01*
X131049980Y-92474460D01*
X131139762Y-92524917D01*
X131238087Y-92570079D01*
X131344600Y-92609755D01*
X131458946Y-92643754D01*
X131580770Y-92671885D01*
X131636535Y-92682334D01*
X131731260Y-92697227D01*
X131826125Y-92708674D01*
X131923613Y-92716869D01*
X132026208Y-92722009D01*
X132136392Y-92724285D01*
X132174643Y-92724442D01*
X132220975Y-92724201D01*
X132269722Y-92723487D01*
X132319188Y-92722365D01*
X132367678Y-92720900D01*
X132413496Y-92719156D01*
X132454946Y-92717198D01*
X132490333Y-92715091D01*
X132517960Y-92712900D01*
X132536133Y-92710689D01*
X132536460Y-92710632D01*
X132548633Y-92710561D01*
X132555844Y-92717814D01*
X132558323Y-92723202D01*
X132561328Y-92736835D01*
X132563229Y-92758198D01*
X132564018Y-92783879D01*
X132563681Y-92810466D01*
X132562210Y-92834547D01*
X132559593Y-92852712D01*
X132558739Y-92855997D01*
X132553685Y-92872755D01*
X132602032Y-92892698D01*
X132653392Y-92916407D01*
X132709758Y-92946985D01*
X132768592Y-92983028D01*
X132786756Y-92994972D01*
X132890103Y-93070217D01*
X132991167Y-93156208D01*
X133089722Y-93252691D01*
X133185547Y-93359409D01*
X133278416Y-93476106D01*
X133368106Y-93602525D01*
X133454394Y-93738411D01*
X133491764Y-93802075D01*
X133510357Y-93835182D01*
X133530080Y-93871457D01*
X133550220Y-93909475D01*
X133570066Y-93947809D01*
X133588906Y-93985034D01*
X133606028Y-94019723D01*
X133620719Y-94050451D01*
X133632267Y-94075792D01*
X133639962Y-94094319D01*
X133643089Y-94104608D01*
X133643124Y-94105194D01*
X133640678Y-94113045D01*
X133633809Y-94129325D01*
X133623224Y-94152511D01*
X133609628Y-94181082D01*
X133593727Y-94213517D01*
X133582467Y-94235993D01*
X133500596Y-94389598D01*
X133415216Y-94533251D01*
X133326420Y-94666845D01*
X133234302Y-94790271D01*
X133138956Y-94903419D01*
X133040474Y-95006180D01*
X132938952Y-95098445D01*
X132834481Y-95180105D01*
X132727157Y-95251052D01*
X132694036Y-95270448D01*
X132666286Y-95285448D01*
X132635817Y-95300707D01*
X132607764Y-95313689D01*
X132598528Y-95317611D01*
X132577032Y-95326552D01*
X132564089Y-95332841D01*
X132557892Y-95338066D01*
X132556636Y-95343815D01*
X132558513Y-95351676D01*
X132558777Y-95352550D01*
X132561708Y-95368778D01*
X132563457Y-95391802D01*
X132564040Y-95418196D01*
X132563474Y-95444532D01*
X132561774Y-95467383D01*
X132558958Y-95483321D01*
X132558140Y-95485682D01*
X132550776Y-95497134D01*
X132541875Y-95498596D01*
X132528633Y-95496327D01*
X132505657Y-95494147D01*
X132474409Y-95492100D01*
X132436348Y-95490229D01*
X132392935Y-95488575D01*
X132345630Y-95487183D01*
X132295895Y-95486094D01*
X132245189Y-95485353D01*
X132194974Y-95485001D01*
X132146709Y-95485082D01*
X132101857Y-95485638D01*
X132101190Y-95485651D01*
X132005164Y-95488334D01*
X131917871Y-95492664D01*
X131836940Y-95498880D01*
X131760000Y-95507225D01*
X131684678Y-95517940D01*
X131608603Y-95531266D01*
X131562511Y-95540428D01*
X131443769Y-95568729D01*
X131331961Y-95603002D01*
X131227533Y-95642991D01*
X131130931Y-95688443D01*
X131042600Y-95739104D01*
X130962986Y-95794720D01*
X130892533Y-95855036D01*
X130831686Y-95919799D01*
X130783388Y-95984903D01*
X130767716Y-96010106D01*
X130754531Y-96033581D01*
X130744773Y-96053423D01*
X130739381Y-96067724D01*
X130739225Y-96074514D01*
X130745327Y-96073837D01*
X130759047Y-96069561D01*
X130777733Y-96062539D01*
X130783190Y-96060323D01*
X130823246Y-96044862D01*
X130867935Y-96029414D01*
X130915298Y-96014500D01*
X130963375Y-96000641D01*
X131010207Y-95988361D01*
X131053833Y-95978180D01*
X131092294Y-95970621D01*
X131123631Y-95966205D01*
X131140159Y-95965264D01*
X131162914Y-95965264D01*
X131139456Y-96014241D01*
X131062086Y-96164351D01*
X130977624Y-96306533D01*
X130886281Y-96440523D01*
X130788267Y-96566058D01*
X130683793Y-96682876D01*
X130573070Y-96790714D01*
X130456308Y-96889308D01*
X130410753Y-96924033D01*
X130290833Y-97006394D01*
X130165462Y-97080079D01*
X130036020Y-97144373D01*
X129903887Y-97198556D01*
X129838815Y-97221121D01*
X129776139Y-97240704D01*
X129717823Y-97256942D01*
X129660597Y-97270560D01*
X129601192Y-97282286D01*
X129536337Y-97292846D01*
X129481621Y-97300509D01*
X129453635Y-97304216D01*
X129487218Y-97334869D01*
X129566832Y-97402728D01*
X129657461Y-97471022D01*
X129759145Y-97539776D01*
X129871921Y-97609017D01*
X129995829Y-97678769D01*
X130032447Y-97698356D01*
X130048496Y-97707655D01*
X130059666Y-97715665D01*
X130063232Y-97719980D01*
X130058208Y-97724247D01*
X130043144Y-97728416D01*
X130019197Y-97732414D01*
X129987521Y-97736169D01*
X129949272Y-97739608D01*
X129905605Y-97742661D01*
X129857675Y-97745254D01*
X129806638Y-97747316D01*
X129753648Y-97748774D01*
X129699861Y-97749557D01*
X129646432Y-97749593D01*
X129599244Y-97748918D01*
X129403976Y-97739992D01*
X129257734Y-97726326D01*
X129209339Y-97721804D01*
X129013961Y-97694160D01*
X128816470Y-97656863D01*
X128615493Y-97609719D01*
X128605663Y-97607186D01*
X128569919Y-97597957D01*
X128537240Y-97589554D01*
X128509389Y-97582425D01*
X128488125Y-97577022D01*
X128475210Y-97573794D01*
X128472730Y-97573203D01*
X128460136Y-97570349D01*
X128460136Y-97698214D01*
X128460136Y-97826078D01*
X128441945Y-97803840D01*
X128402937Y-97758597D01*
X128355176Y-97707435D01*
X128299136Y-97650768D01*
X128235293Y-97589014D01*
X128164122Y-97522589D01*
X128086097Y-97451909D01*
X128001693Y-97377391D01*
X127911386Y-97299450D01*
X127815650Y-97218505D01*
X127714960Y-97134970D01*
X127609791Y-97049263D01*
X127500618Y-96961799D01*
X127387915Y-96872996D01*
X127320609Y-96820646D01*
X127258539Y-96772599D01*
X127219860Y-96823578D01*
X127192167Y-96857829D01*
X127157704Y-96896909D01*
X127118505Y-96938736D01*
X127076605Y-96981228D01*
X127034040Y-97022303D01*
X126992845Y-97059878D01*
X126967946Y-97081290D01*
X126853773Y-97170538D01*
X126729981Y-97255672D01*
X126597567Y-97336124D01*
X126457529Y-97411329D01*
X126310864Y-97480719D01*
X126158571Y-97543728D01*
X126142904Y-97549720D01*
X126117092Y-97559129D01*
X126095303Y-97566337D01*
X126079501Y-97570748D01*
X126071649Y-97571769D01*
X126071160Y-97571426D01*
X126072131Y-97564552D01*
X126076057Y-97549226D01*
X126082335Y-97527611D01*
X126090363Y-97501870D01*
X126091693Y-97497751D01*
X126114620Y-97422735D01*
X126138119Y-97337653D01*
X126161969Y-97243601D01*
X126185951Y-97141680D01*
X126209843Y-97032989D01*
X126233427Y-96918626D01*
X126256482Y-96799690D01*
X126278788Y-96677281D01*
X126300126Y-96552497D01*
X126320274Y-96426437D01*
X126339014Y-96300200D01*
X126355358Y-96180755D01*
X126360650Y-96140795D01*
X126364827Y-96110627D01*
X126368127Y-96088928D01*
X126370792Y-96074379D01*
X126373061Y-96065659D01*
X126375173Y-96061446D01*
X126377216Y-96060416D01*
X126383043Y-96063554D01*
X126395838Y-96072065D01*
X126413618Y-96084592D01*
X126431344Y-96097509D01*
X126466114Y-96122476D01*
X126508360Y-96151621D01*
X126555882Y-96183486D01*
X126606481Y-96216618D01*
X126657959Y-96249560D01*
X126708115Y-96280856D01*
X126711271Y-96282795D01*
X126745173Y-96303839D01*
X126771354Y-96320012D01*
X126790244Y-96330673D01*
X126802278Y-96335179D01*
X126807888Y-96332891D01*
X126807506Y-96323165D01*
X126801564Y-96305360D01*
X126790497Y-96278836D01*
X126774735Y-96242949D01*
X126760327Y-96210042D01*
X126707319Y-96087179D01*
X126656128Y-95966950D01*
X126607021Y-95850032D01*
X126590746Y-95810720D01*
X127079187Y-95810720D01*
X127080590Y-95816862D01*
X127088269Y-95830475D01*
X127101361Y-95850407D01*
X127119002Y-95875506D01*
X127140328Y-95904623D01*
X127164475Y-95936605D01*
X127190580Y-95970302D01*
X127217778Y-96004563D01*
X127245206Y-96038236D01*
X127272000Y-96070170D01*
X127286477Y-96086947D01*
X127402208Y-96211764D01*
X127523870Y-96328072D01*
X127650993Y-96435576D01*
X127783105Y-96533979D01*
X127919737Y-96622985D01*
X128060418Y-96702300D01*
X128204676Y-96771627D01*
X128352040Y-96830670D01*
X128502041Y-96879133D01*
X128580475Y-96899944D01*
X128661399Y-96918564D01*
X128738787Y-96933556D01*
X128815335Y-96945253D01*
X128893738Y-96953987D01*
X128976690Y-96960090D01*
X129066886Y-96963896D01*
X129106610Y-96964869D01*
X129257734Y-96967905D01*
X129240942Y-96954953D01*
X129163594Y-96892582D01*
X129096884Y-96832982D01*
X129040649Y-96775988D01*
X128994723Y-96721438D01*
X128970110Y-96686894D01*
X128956294Y-96665333D01*
X128945151Y-96646823D01*
X128937956Y-96633555D01*
X128935896Y-96628085D01*
X128940279Y-96624440D01*
X128953925Y-96621471D01*
X128977582Y-96619052D01*
X128996066Y-96617857D01*
X129157398Y-96604500D01*
X129314873Y-96582746D01*
X129467898Y-96552801D01*
X129615877Y-96514871D01*
X129758216Y-96469160D01*
X129894320Y-96415874D01*
X130023595Y-96355219D01*
X130145446Y-96287399D01*
X130259279Y-96212621D01*
X130335191Y-96155189D01*
X130351850Y-96141316D01*
X130372784Y-96123127D01*
X130396631Y-96101885D01*
X130422029Y-96078856D01*
X130447617Y-96055306D01*
X130472034Y-96032498D01*
X130493918Y-96011699D01*
X130511906Y-95994172D01*
X130524638Y-95981184D01*
X130530752Y-95973999D01*
X130531092Y-95973186D01*
X130526360Y-95974319D01*
X130513865Y-95978866D01*
X130496157Y-95985890D01*
X130493311Y-95987058D01*
X130384051Y-96027013D01*
X130271998Y-96058295D01*
X130158538Y-96080747D01*
X130045056Y-96094212D01*
X129932939Y-96098532D01*
X129823571Y-96093549D01*
X129820927Y-96093186D01*
X129718339Y-96079106D01*
X129705508Y-96076621D01*
X129604134Y-96050662D01*
X129506165Y-96014248D01*
X129412029Y-95967718D01*
X129322159Y-95911409D01*
X129236983Y-95845659D01*
X129156931Y-95770805D01*
X129082434Y-95687186D01*
X129013922Y-95595139D01*
X128951825Y-95495001D01*
X128941780Y-95476910D01*
X128930579Y-95457532D01*
X128920779Y-95442619D01*
X128913917Y-95434427D01*
X128912248Y-95433532D01*
X128910197Y-95438794D01*
X128908984Y-95453316D01*
X128908539Y-95475198D01*
X128908791Y-95502543D01*
X128909671Y-95533452D01*
X128911109Y-95566027D01*
X128913035Y-95598370D01*
X128915379Y-95628581D01*
X128918071Y-95654764D01*
X128921041Y-95675019D01*
X128921165Y-95675680D01*
X128947286Y-95783652D01*
X128984285Y-95889405D01*
X129032007Y-95992614D01*
X129090296Y-96092950D01*
X129158996Y-96190085D01*
X129175318Y-96210776D01*
X129192283Y-96232354D01*
X129206031Y-96250751D01*
X129215354Y-96264282D01*
X129219045Y-96271259D01*
X129218966Y-96271764D01*
X129209656Y-96275684D01*
X129190623Y-96279466D01*
X129163341Y-96283020D01*
X129129282Y-96286255D01*
X129089917Y-96289080D01*
X129046719Y-96291406D01*
X129001160Y-96293141D01*
X128954713Y-96294195D01*
X128908850Y-96294477D01*
X128865042Y-96293897D01*
X128860947Y-96293791D01*
X128768282Y-96289176D01*
X128680110Y-96280597D01*
X128597801Y-96268280D01*
X128522723Y-96252456D01*
X128456246Y-96233354D01*
X128420343Y-96220124D01*
X128402003Y-96212931D01*
X128387773Y-96207828D01*
X128380856Y-96205943D01*
X128379520Y-96210548D01*
X128382935Y-96223316D01*
X128390326Y-96242674D01*
X128400916Y-96267049D01*
X128413930Y-96294868D01*
X128428593Y-96324558D01*
X128444129Y-96354547D01*
X128459763Y-96383263D01*
X128474720Y-96409131D01*
X128488223Y-96430580D01*
X128498852Y-96445250D01*
X128512139Y-96462204D01*
X128522111Y-96476078D01*
X128527053Y-96484447D01*
X128527302Y-96485439D01*
X128522494Y-96486042D01*
X128509683Y-96483154D01*
X128491287Y-96477368D01*
X128483924Y-96474750D01*
X128410148Y-96446393D01*
X128342445Y-96417608D01*
X128281471Y-96388778D01*
X128227886Y-96360287D01*
X128182347Y-96332518D01*
X128145512Y-96305856D01*
X128118039Y-96280685D01*
X128100586Y-96257386D01*
X128096663Y-96248956D01*
X128090193Y-96217811D01*
X128091095Y-96179212D01*
X128099101Y-96133884D01*
X128113941Y-96082554D01*
X128135345Y-96025948D01*
X128163045Y-95964792D01*
X128196770Y-95899812D01*
X128236252Y-95831734D01*
X128272877Y-95773890D01*
X128303819Y-95728584D01*
X128330393Y-95693540D01*
X128352631Y-95668722D01*
X128370562Y-95654098D01*
X128384219Y-95649634D01*
X128386595Y-95649997D01*
X128400683Y-95657682D01*
X128418934Y-95673751D01*
X128440065Y-95696806D01*
X128462793Y-95725451D01*
X128485323Y-95757512D01*
X128499247Y-95778085D01*
X128511035Y-95794676D01*
X128519283Y-95805364D01*
X128522415Y-95808371D01*
X128527015Y-95803457D01*
X128533915Y-95789661D01*
X128542365Y-95768872D01*
X128551614Y-95742980D01*
X128560912Y-95713871D01*
X128563675Y-95704529D01*
X128580112Y-95640896D01*
X128594821Y-95570238D01*
X128607019Y-95496683D01*
X128614883Y-95434457D01*
X128618437Y-95389649D01*
X128620541Y-95337739D01*
X128621241Y-95281551D01*
X128620584Y-95223907D01*
X128618618Y-95167632D01*
X128615389Y-95115549D01*
X128610945Y-95070482D01*
X128608512Y-95052924D01*
X128603843Y-95025149D01*
X128597994Y-94993701D01*
X128591481Y-94961024D01*
X128584822Y-94929563D01*
X128578536Y-94901762D01*
X128573139Y-94880067D01*
X128569149Y-94866921D01*
X128569108Y-94866817D01*
X128568328Y-94860137D01*
X128574727Y-94857436D01*
X128584074Y-94857089D01*
X128614239Y-94860614D01*
X128650154Y-94870307D01*
X128689008Y-94885126D01*
X128727990Y-94904028D01*
X128757296Y-94921335D01*
X128776000Y-94933302D01*
X128786938Y-94939606D01*
X128791705Y-94940717D01*
X128791900Y-94937107D01*
X128789753Y-94930916D01*
X128768342Y-94883832D01*
X128738820Y-94832780D01*
X128702660Y-94779580D01*
X128661333Y-94726054D01*
X128616309Y-94674020D01*
X128569062Y-94625300D01*
X128521062Y-94581713D01*
X128483400Y-94551976D01*
X128461952Y-94537048D01*
X128437114Y-94520987D01*
X128410946Y-94504986D01*
X128385513Y-94490234D01*
X128362877Y-94477924D01*
X128345100Y-94469245D01*
X128334245Y-94465389D01*
X128333283Y-94465299D01*
X128328924Y-94469222D01*
X128328158Y-94469911D01*
X128319254Y-94482475D01*
X128307898Y-94500980D01*
X128297354Y-94519792D01*
X128282346Y-94547198D01*
X128262579Y-94582628D01*
X128238982Y-94624465D01*
X128212484Y-94671091D01*
X128184012Y-94720888D01*
X128154495Y-94772239D01*
X128124862Y-94823527D01*
X128096041Y-94873134D01*
X128068961Y-94919441D01*
X128044550Y-94960832D01*
X128034719Y-94977362D01*
X127963952Y-95094627D01*
X127897618Y-95201746D01*
X127835644Y-95298819D01*
X127777960Y-95385947D01*
X127724493Y-95463233D01*
X127675171Y-95530777D01*
X127629923Y-95588679D01*
X127588677Y-95637043D01*
X127551361Y-95675968D01*
X127518079Y-95705416D01*
X127476093Y-95734908D01*
X127472337Y-95737546D01*
X127421251Y-95766446D01*
X127368554Y-95790257D01*
X127317979Y-95807118D01*
X127309916Y-95809146D01*
X127274424Y-95815595D01*
X127234097Y-95819685D01*
X127192504Y-95821317D01*
X127153214Y-95820393D01*
X127119797Y-95816815D01*
X127109074Y-95814666D01*
X127092939Y-95811402D01*
X127081864Y-95810238D01*
X127079187Y-95810720D01*
X126590746Y-95810720D01*
X126560268Y-95737102D01*
X126516137Y-95628836D01*
X126474897Y-95525913D01*
X126436816Y-95429008D01*
X126402163Y-95338800D01*
X126371207Y-95255964D01*
X126344215Y-95181178D01*
X126321458Y-95115120D01*
X126303202Y-95058465D01*
X126302305Y-95055539D01*
X126291080Y-95016740D01*
X126284090Y-94985322D01*
X126281452Y-94958254D01*
X126283284Y-94932507D01*
X126289705Y-94905051D01*
X126300832Y-94872855D01*
X126310372Y-94848627D01*
X126327788Y-94807433D01*
X126348837Y-94760746D01*
X126372394Y-94710822D01*
X126397333Y-94659919D01*
X126422527Y-94610295D01*
X126446850Y-94564207D01*
X126469176Y-94523914D01*
X126488379Y-94491672D01*
X126488677Y-94491198D01*
X126519359Y-94444980D01*
X126546924Y-94408799D01*
X126571860Y-94382096D01*
X126594655Y-94364309D01*
X126603114Y-94359646D01*
X126618896Y-94353311D01*
X126643481Y-94345058D01*
X126675195Y-94335324D01*
X126712362Y-94324546D01*
X126753309Y-94313161D01*
X126796360Y-94301607D01*
X126839840Y-94290320D01*
X126882074Y-94279739D01*
X126921388Y-94270299D01*
X126956106Y-94262440D01*
X126984553Y-94256596D01*
X127005055Y-94253207D01*
X127013458Y-94252527D01*
X127018764Y-94253871D01*
X127021033Y-94259597D01*
X127020737Y-94272240D01*
X127019450Y-94284849D01*
X127011008Y-94337770D01*
X126997585Y-94395336D01*
X126980229Y-94454251D01*
X126959990Y-94511216D01*
X126937921Y-94562934D01*
X126919576Y-94598448D01*
X126884884Y-94652183D01*
X126848310Y-94695179D01*
X126809448Y-94727792D01*
X126767894Y-94750379D01*
X126735294Y-94760821D01*
X126695526Y-94770154D01*
X126698697Y-94873758D01*
X126706300Y-94986676D01*
X126721901Y-95097127D01*
X126745146Y-95204089D01*
X126775680Y-95306536D01*
X126813147Y-95403444D01*
X126857192Y-95493789D01*
X126907459Y-95576546D01*
X126963593Y-95650691D01*
X126971286Y-95659625D01*
X126986803Y-95677029D01*
X126999388Y-95690498D01*
X127007399Y-95698311D01*
X127009378Y-95699540D01*
X127008832Y-95693788D01*
X127006240Y-95678935D01*
X127001953Y-95656813D01*
X126996324Y-95629256D01*
X126991464Y-95606267D01*
X126972177Y-95510325D01*
X126954737Y-95411809D01*
X126940049Y-95315995D01*
X126934432Y-95274012D01*
X126931262Y-95243275D01*
X126928625Y-95206504D01*
X126926570Y-95165954D01*
X126925144Y-95123886D01*
X126924395Y-95082556D01*
X126924371Y-95044223D01*
X126925120Y-95011143D01*
X126926690Y-94985577D01*
X126928083Y-94974563D01*
X126931288Y-94960370D01*
X126936602Y-94950583D01*
X126946653Y-94942099D01*
X126964066Y-94931817D01*
X126964465Y-94931596D01*
X127000282Y-94908309D01*
X127038748Y-94877285D01*
X127077327Y-94840703D01*
X127104667Y-94811094D01*
X127161396Y-94737829D01*
X127212464Y-94655005D01*
X127257813Y-94562751D01*
X127297383Y-94461198D01*
X127331116Y-94350477D01*
X127354546Y-94252153D01*
X127360399Y-94225546D01*
X127365794Y-94203028D01*
X127370171Y-94186812D01*
X127372968Y-94179109D01*
X127373160Y-94178872D01*
X127379416Y-94176954D01*
X127395343Y-94173229D01*
X127419612Y-94167976D01*
X127450896Y-94161473D01*
X127487867Y-94153996D01*
X127529196Y-94145825D01*
X127556191Y-94140578D01*
X127599400Y-94132196D01*
X127638950Y-94124457D01*
X127673539Y-94117620D01*
X127701862Y-94111945D01*
X127722615Y-94107694D01*
X127734495Y-94105126D01*
X127736834Y-94104492D01*
X127732008Y-94103081D01*
X127717627Y-94099887D01*
X127695136Y-94095207D01*
X127665981Y-94089335D01*
X127631605Y-94082569D01*
X127599703Y-94076400D01*
X127558770Y-94068523D01*
X127518813Y-94060789D01*
X127481998Y-94053621D01*
X127450496Y-94047443D01*
X127426473Y-94042676D01*
X127416262Y-94040610D01*
X127371485Y-94031422D01*
X127365124Y-94003445D01*
X127361311Y-93986665D01*
X127355796Y-93962383D01*
X127349353Y-93934012D01*
X127343516Y-93908300D01*
X127314680Y-93799374D01*
X127279292Y-93697262D01*
X127237663Y-93602588D01*
X127190108Y-93515978D01*
X127136940Y-93438056D01*
X127078473Y-93369446D01*
X127067252Y-93357975D01*
X127048010Y-93340074D01*
X127024910Y-93320611D01*
X127000270Y-93301323D01*
X126976407Y-93283947D01*
X126955641Y-93270221D01*
X126940290Y-93261883D01*
X126937712Y-93260891D01*
X126933309Y-93254044D01*
X126929456Y-93237781D01*
X126926296Y-93213872D01*
X126923973Y-93184087D01*
X126922629Y-93150198D01*
X126922569Y-93140346D01*
X127464389Y-93140346D01*
X127481349Y-93160507D01*
X127536854Y-93228513D01*
X127585641Y-93293004D01*
X127629917Y-93357223D01*
X127671888Y-93424413D01*
X127713760Y-93497818D01*
X127725429Y-93519296D01*
X127758400Y-93584535D01*
X127790449Y-93655474D01*
X127820487Y-93729265D01*
X127847424Y-93803057D01*
X127870172Y-93874001D01*
X127887641Y-93939246D01*
X127890166Y-93950279D01*
X127895392Y-93975810D01*
X127899054Y-93999511D01*
X127901404Y-94024381D01*
X127902698Y-94053416D01*
X127903188Y-94089612D01*
X127903217Y-94104202D01*
X127902579Y-94148794D01*
X127900358Y-94188370D01*
X127896086Y-94225497D01*
X127889300Y-94262739D01*
X127879533Y-94302661D01*
X127866321Y-94347831D01*
X127849707Y-94399283D01*
X127808093Y-94511095D01*
X127757823Y-94623411D01*
X127700226Y-94733809D01*
X127636634Y-94839867D01*
X127568376Y-94939163D01*
X127516725Y-95005551D01*
X127495788Y-95031424D01*
X127481837Y-95049730D01*
X127474370Y-95061226D01*
X127472889Y-95066671D01*
X127476093Y-95067070D01*
X127485478Y-95063402D01*
X127502786Y-95055685D01*
X127525930Y-95044885D01*
X127552823Y-95031966D01*
X127567386Y-95024835D01*
X127655634Y-94975154D01*
X127738151Y-94916090D01*
X127814663Y-94848035D01*
X127884898Y-94771381D01*
X127948582Y-94686519D01*
X128005443Y-94593839D01*
X128055207Y-94493733D01*
X128097601Y-94386593D01*
X128132352Y-94272810D01*
X128152682Y-94186051D01*
X128158378Y-94158418D01*
X128163203Y-94135051D01*
X128166741Y-94117963D01*
X128168575Y-94109171D01*
X128168734Y-94108436D01*
X128167853Y-94102758D01*
X128165194Y-94088154D01*
X128161141Y-94066684D01*
X128156081Y-94040406D01*
X128154734Y-94033487D01*
X128126040Y-93911422D01*
X128088951Y-93796248D01*
X128043577Y-93688152D01*
X127990029Y-93587322D01*
X127928417Y-93493946D01*
X127858852Y-93408213D01*
X127781443Y-93330310D01*
X127704517Y-93266561D01*
X127680354Y-93249542D01*
X127651037Y-93230768D01*
X127618598Y-93211348D01*
X127585068Y-93192396D01*
X127552478Y-93175024D01*
X127522861Y-93160342D01*
X127498247Y-93149462D01*
X127480668Y-93143497D01*
X127478964Y-93143132D01*
X127464389Y-93140346D01*
X126922569Y-93140346D01*
X126922407Y-93113974D01*
X126923251Y-93081612D01*
X126930113Y-92982966D01*
X126942681Y-92875230D01*
X126960886Y-92758899D01*
X126984655Y-92634472D01*
X126991464Y-92602136D01*
X126997864Y-92571719D01*
X127003185Y-92545371D01*
X127007074Y-92524925D01*
X127009179Y-92512215D01*
X127009378Y-92508863D01*
X127005246Y-92512069D01*
X126995484Y-92522070D01*
X126981726Y-92537143D01*
X126971286Y-92548993D01*
X126913092Y-92624024D01*
X126861088Y-92708021D01*
X126815481Y-92800491D01*
X126776477Y-92900939D01*
X126744283Y-93008872D01*
X126719105Y-93123794D01*
X126710942Y-93172271D01*
X126707716Y-93198016D01*
X126704597Y-93231627D01*
X126701835Y-93269779D01*
X126699681Y-93309146D01*
X126698686Y-93335063D01*
X126695504Y-93439085D01*
X126726744Y-93445359D01*
X126772288Y-93460173D01*
X126815331Y-93485656D01*
X126855591Y-93521505D01*
X126892787Y-93567415D01*
X126926639Y-93623084D01*
X126956866Y-93688208D01*
X126960791Y-93698059D01*
X126971999Y-93728957D01*
X126982990Y-93763288D01*
X126993363Y-93799312D01*
X127002718Y-93835290D01*
X127010651Y-93869482D01*
X127016763Y-93900148D01*
X127020651Y-93925549D01*
X127021915Y-93943944D01*
X127020153Y-93953594D01*
X127019825Y-93953981D01*
X127012751Y-93954477D01*
X126996349Y-93952356D01*
X126972085Y-93947964D01*
X126941425Y-93941651D01*
X126905836Y-93933762D01*
X126866782Y-93924646D01*
X126825732Y-93914650D01*
X126784150Y-93904121D01*
X126743503Y-93893408D01*
X126705258Y-93882857D01*
X126670880Y-93872816D01*
X126650219Y-93866380D01*
X126620499Y-93856008D01*
X126598675Y-93846200D01*
X126581649Y-93835394D01*
X126570794Y-93826273D01*
X126548448Y-93802213D01*
X126523075Y-93768841D01*
X126495367Y-93727403D01*
X126466019Y-93679142D01*
X126435726Y-93625305D01*
X126405182Y-93567138D01*
X126375079Y-93505884D01*
X126346114Y-93442790D01*
X126318980Y-93379100D01*
X126312276Y-93362511D01*
X126298899Y-93328613D01*
X126289399Y-93302836D01*
X126283356Y-93282966D01*
X126280352Y-93266785D01*
X126279968Y-93252078D01*
X126281785Y-93236630D01*
X126285188Y-93219157D01*
X126293920Y-93183696D01*
X126307155Y-93138617D01*
X126324684Y-93084455D01*
X126346299Y-93021747D01*
X126371791Y-92951029D01*
X126400949Y-92872836D01*
X126433567Y-92787705D01*
X126469434Y-92696171D01*
X126508341Y-92598771D01*
X126550080Y-92496040D01*
X126591702Y-92395155D01*
X127079170Y-92395155D01*
X127079187Y-92397684D01*
X127085631Y-92397988D01*
X127099266Y-92395946D01*
X127109074Y-92393859D01*
X127126357Y-92391169D01*
X127151022Y-92389037D01*
X127179256Y-92387736D01*
X127197972Y-92387465D01*
X127262549Y-92391138D01*
X127322600Y-92402751D01*
X127381741Y-92423158D01*
X127416262Y-92438969D01*
X127449498Y-92456670D01*
X127481159Y-92476362D01*
X127511924Y-92498802D01*
X127542471Y-92524746D01*
X127573480Y-92554951D01*
X127605629Y-92590172D01*
X127639598Y-92631166D01*
X127676065Y-92678689D01*
X127715709Y-92733497D01*
X127759209Y-92796347D01*
X127807244Y-92867993D01*
X127823361Y-92892412D01*
X127898735Y-93009370D01*
X127977744Y-93136646D01*
X128060256Y-93274017D01*
X128146137Y-93421260D01*
X128235253Y-93578152D01*
X128238405Y-93583774D01*
X128259198Y-93620835D01*
X128278384Y-93654977D01*
X128295235Y-93684906D01*
X128309023Y-93709331D01*
X128319018Y-93726959D01*
X128324492Y-93736497D01*
X128325143Y-93737586D01*
X128328924Y-93740679D01*
X128335798Y-93740424D01*
X128347593Y-93736236D01*
X128366135Y-93727530D01*
X128382656Y-93719179D01*
X128447138Y-93681168D01*
X128511712Y-93633606D01*
X128574678Y-93577992D01*
X128634333Y-93515825D01*
X128687314Y-93450829D01*
X128711276Y-93417061D01*
X128734983Y-93380466D01*
X128756800Y-93343811D01*
X128775093Y-93309863D01*
X128788225Y-93281388D01*
X128789753Y-93277487D01*
X128792169Y-93270268D01*
X128791333Y-93267410D01*
X128785630Y-93269372D01*
X128773447Y-93276611D01*
X128757945Y-93286514D01*
X128716141Y-93310619D01*
X128673786Y-93329945D01*
X128633337Y-93343581D01*
X128597250Y-93350614D01*
X128583266Y-93351381D01*
X128571211Y-93350348D01*
X128567906Y-93346169D01*
X128569108Y-93341586D01*
X128573076Y-93328568D01*
X128578458Y-93306969D01*
X128584737Y-93279232D01*
X128591394Y-93247803D01*
X128597912Y-93215126D01*
X128603774Y-93183646D01*
X128608461Y-93155808D01*
X128608512Y-93155480D01*
X128613498Y-93114578D01*
X128617290Y-93065364D01*
X128619841Y-93010662D01*
X128621105Y-92953296D01*
X128621033Y-92896089D01*
X128619580Y-92841864D01*
X128617053Y-92799433D01*
X129148325Y-92799433D01*
X129151336Y-92848864D01*
X129164693Y-92902212D01*
X129188391Y-92959437D01*
X129222420Y-93020498D01*
X129266773Y-93085356D01*
X129321442Y-93153970D01*
X129386419Y-93226299D01*
X129412519Y-93253430D01*
X129483700Y-93326194D01*
X129451696Y-93261384D01*
X129420984Y-93193122D01*
X129395657Y-93124223D01*
X129376231Y-93056621D01*
X129363219Y-92992249D01*
X129357133Y-92933041D01*
X129356887Y-92904623D01*
X129358358Y-92876004D01*
X129361552Y-92857818D01*
X129367655Y-92849313D01*
X129377857Y-92849742D01*
X129393345Y-92858354D01*
X129410534Y-92870778D01*
X129433203Y-92889384D01*
X129462182Y-92915575D01*
X129496555Y-92948381D01*
X129535409Y-92986836D01*
X129577827Y-93029971D01*
X129622897Y-93076819D01*
X129669702Y-93126412D01*
X129717330Y-93177782D01*
X129764864Y-93229962D01*
X129811390Y-93281983D01*
X129855995Y-93332878D01*
X129897763Y-93381679D01*
X129930640Y-93421141D01*
X129941290Y-93433140D01*
X129948952Y-93439977D01*
X129951157Y-93440624D01*
X129951055Y-93434101D01*
X129948158Y-93418560D01*
X129942921Y-93395694D01*
X129935793Y-93367198D01*
X129927229Y-93334768D01*
X129917681Y-93300097D01*
X129907599Y-93264880D01*
X129897438Y-93230812D01*
X129887649Y-93199588D01*
X129883268Y-93186264D01*
X129859446Y-93118400D01*
X129831917Y-93045414D01*
X129802500Y-92971921D01*
X129773015Y-92902536D01*
X129759726Y-92872822D01*
X129749191Y-92848750D01*
X129741106Y-92828402D01*
X129736251Y-92813887D01*
X129735407Y-92807315D01*
X129735446Y-92807268D01*
X129742442Y-92806321D01*
X129757135Y-92807679D01*
X129776185Y-92811016D01*
X129823880Y-92825795D01*
X129874232Y-92850341D01*
X129926209Y-92883848D01*
X129978778Y-92925515D01*
X130030907Y-92974539D01*
X130081564Y-93030115D01*
X130120289Y-93078693D01*
X130143807Y-93111441D01*
X130165329Y-93144103D01*
X130183884Y-93174966D01*
X130198500Y-93202316D01*
X130208206Y-93224442D01*
X130212030Y-93239629D01*
X130212053Y-93240506D01*
X130210681Y-93249040D01*
X130206782Y-93267101D01*
X130200686Y-93293390D01*
X130192721Y-93326611D01*
X130183214Y-93365465D01*
X130172494Y-93408656D01*
X130160890Y-93454884D01*
X130148730Y-93502854D01*
X130136341Y-93551266D01*
X130124053Y-93598823D01*
X130112193Y-93644227D01*
X130101090Y-93686182D01*
X130091071Y-93723389D01*
X130082467Y-93754550D01*
X130078435Y-93768712D01*
X130063403Y-93819198D01*
X130048566Y-93866156D01*
X130034449Y-93908067D01*
X130021581Y-93943411D01*
X130010488Y-93970670D01*
X130003054Y-93985979D01*
X129990964Y-94007686D01*
X129934993Y-94004523D01*
X129864988Y-93995106D01*
X129795323Y-93975063D01*
X129727566Y-93944893D01*
X129701245Y-93930040D01*
X129658183Y-93901965D01*
X129615991Y-93870340D01*
X129576058Y-93836531D01*
X129539769Y-93801901D01*
X129508511Y-93767813D01*
X129483670Y-93735633D01*
X129466634Y-93706724D01*
X129461600Y-93694302D01*
X129457660Y-93665399D01*
X129464191Y-93636515D01*
X129480554Y-93609041D01*
X129506111Y-93584369D01*
X129514955Y-93578067D01*
X129528980Y-93568030D01*
X129538180Y-93560130D01*
X129540268Y-93557148D01*
X129535409Y-93551905D01*
X129521865Y-93543766D01*
X129501500Y-93533579D01*
X129476181Y-93522191D01*
X129447771Y-93510450D01*
X129418136Y-93499204D01*
X129395544Y-93491377D01*
X129367780Y-93482577D01*
X129339267Y-93474152D01*
X129312001Y-93466618D01*
X129287979Y-93460489D01*
X129269196Y-93456281D01*
X129257649Y-93454511D01*
X129254935Y-93455053D01*
X129256806Y-93460563D01*
X129262086Y-93475203D01*
X129270276Y-93497613D01*
X129280877Y-93526433D01*
X129293390Y-93560302D01*
X129307316Y-93597862D01*
X129308640Y-93601425D01*
X129333258Y-93668549D01*
X129356930Y-93734755D01*
X129379225Y-93798741D01*
X129399710Y-93859207D01*
X129417952Y-93914848D01*
X129433521Y-93964363D01*
X129445983Y-94006450D01*
X129454905Y-94039806D01*
X129456798Y-94047785D01*
X129469449Y-94103312D01*
X129456853Y-94159729D01*
X129449128Y-94190394D01*
X129437692Y-94230222D01*
X129422957Y-94277968D01*
X129405334Y-94332386D01*
X129385238Y-94392233D01*
X129363080Y-94456264D01*
X129339272Y-94523233D01*
X129314227Y-94591897D01*
X129308640Y-94606978D01*
X129294610Y-94644806D01*
X129281947Y-94679069D01*
X129271151Y-94708406D01*
X129262720Y-94731457D01*
X129257154Y-94746862D01*
X129254952Y-94753262D01*
X129254935Y-94753350D01*
X129259955Y-94753569D01*
X129273663Y-94751056D01*
X129294033Y-94746326D01*
X129319042Y-94739891D01*
X129346663Y-94732265D01*
X129374870Y-94723960D01*
X129392066Y-94718600D01*
X129419065Y-94709307D01*
X129447360Y-94698447D01*
X129475008Y-94686904D01*
X129500064Y-94675560D01*
X129520584Y-94665298D01*
X129534625Y-94657003D01*
X129540241Y-94651557D01*
X129540268Y-94651264D01*
X129535920Y-94646111D01*
X129524868Y-94637273D01*
X129514955Y-94630337D01*
X129497065Y-94616219D01*
X129480836Y-94599854D01*
X129475421Y-94592965D01*
X129462828Y-94570275D01*
X129457384Y-94547553D01*
X129459472Y-94523789D01*
X129469474Y-94497976D01*
X129487776Y-94469105D01*
X129514760Y-94436167D01*
X129548725Y-94400253D01*
X129610418Y-94343903D01*
X129674750Y-94296342D01*
X129740845Y-94257998D01*
X129807827Y-94229293D01*
X129874821Y-94210652D01*
X129940949Y-94202501D01*
X129957379Y-94202152D01*
X129976438Y-94202470D01*
X129987833Y-94204494D01*
X129995091Y-94209833D01*
X130001742Y-94220094D01*
X130003458Y-94223142D01*
X130012721Y-94242687D01*
X130024173Y-94271801D01*
X130037379Y-94309171D01*
X130051899Y-94353486D01*
X130067297Y-94403432D01*
X130083136Y-94457697D01*
X130091264Y-94486690D01*
X130101852Y-94525511D01*
X130113409Y-94568805D01*
X130125610Y-94615279D01*
X130138134Y-94663637D01*
X130150655Y-94712586D01*
X130162850Y-94760831D01*
X130174397Y-94807077D01*
X130184970Y-94850031D01*
X130194248Y-94888397D01*
X130201905Y-94920882D01*
X130207619Y-94946190D01*
X130211066Y-94963028D01*
X130211974Y-94969599D01*
X130208901Y-94982205D01*
X130200551Y-95001815D01*
X130188081Y-95026269D01*
X130172646Y-95053411D01*
X130155403Y-95081082D01*
X130140563Y-95102881D01*
X130089700Y-95169199D01*
X130036801Y-95228589D01*
X129982684Y-95280392D01*
X129928170Y-95323949D01*
X129874078Y-95358600D01*
X129821227Y-95383686D01*
X129774258Y-95397779D01*
X129754703Y-95401511D01*
X129739914Y-95403684D01*
X129732823Y-95403875D01*
X129732650Y-95403769D01*
X129733969Y-95398129D01*
X129739178Y-95384342D01*
X129747467Y-95364422D01*
X129758026Y-95340382D01*
X129759104Y-95337990D01*
X129802860Y-95236593D01*
X129843106Y-95134472D01*
X129878972Y-95034054D01*
X129909587Y-94937769D01*
X129932366Y-94854923D01*
X129939527Y-94825823D01*
X129945404Y-94800782D01*
X129949573Y-94781695D01*
X129951615Y-94770456D01*
X129951657Y-94768279D01*
X129947205Y-94770867D01*
X129938255Y-94779708D01*
X129933466Y-94785071D01*
X129860084Y-94869496D01*
X129790696Y-94948153D01*
X129725557Y-95020779D01*
X129664928Y-95087110D01*
X129609066Y-95146885D01*
X129558229Y-95199839D01*
X129512676Y-95245712D01*
X129472664Y-95284239D01*
X129438453Y-95315159D01*
X129410300Y-95338208D01*
X129388463Y-95353124D01*
X129373201Y-95359645D01*
X129368555Y-95359771D01*
X129363513Y-95357277D01*
X129360246Y-95350664D01*
X129358227Y-95337731D01*
X129356927Y-95316277D01*
X129356690Y-95310332D01*
X129356682Y-95281072D01*
X129358364Y-95249321D01*
X129361375Y-95221767D01*
X129361520Y-95220839D01*
X129372071Y-95168983D01*
X129387820Y-95111469D01*
X129407560Y-95051819D01*
X129430082Y-94993555D01*
X129454178Y-94940200D01*
X129465051Y-94919031D01*
X129484834Y-94882210D01*
X129413086Y-94954973D01*
X129344770Y-95027561D01*
X129286810Y-95096301D01*
X129239109Y-95161356D01*
X129201570Y-95222889D01*
X129174098Y-95281063D01*
X129156596Y-95336040D01*
X129148968Y-95387982D01*
X129148589Y-95401946D01*
X129151961Y-95441819D01*
X129162843Y-95476714D01*
X129182381Y-95509220D01*
X129209646Y-95539897D01*
X129246555Y-95571503D01*
X129286964Y-95595952D01*
X129291317Y-95598109D01*
X129321854Y-95611526D01*
X129362681Y-95627107D01*
X129413152Y-95644639D01*
X129472619Y-95663909D01*
X129540433Y-95684702D01*
X129615948Y-95706805D01*
X129651904Y-95717019D01*
X129700260Y-95730407D01*
X129739633Y-95740530D01*
X129771732Y-95747450D01*
X129798261Y-95751228D01*
X129820927Y-95751927D01*
X129841437Y-95749609D01*
X129861498Y-95744336D01*
X129882815Y-95736170D01*
X129904869Y-95726219D01*
X129932840Y-95712292D01*
X129960815Y-95696510D01*
X129990322Y-95677839D01*
X130022889Y-95655241D01*
X130060043Y-95627681D01*
X130103313Y-95594123D01*
X130124778Y-95577114D01*
X130211720Y-95507869D01*
X130255265Y-95504000D01*
X130305865Y-95498884D01*
X130364898Y-95491876D01*
X130429834Y-95483344D01*
X130498143Y-95473657D01*
X130567294Y-95463184D01*
X130634756Y-95452294D01*
X130697999Y-95441354D01*
X130743785Y-95432829D01*
X130852265Y-95410303D01*
X130951629Y-95386332D01*
X131043928Y-95360305D01*
X131131210Y-95331613D01*
X131215522Y-95299645D01*
X131274747Y-95274605D01*
X131429875Y-95209532D01*
X131578902Y-95153679D01*
X131722001Y-95106998D01*
X131859342Y-95069436D01*
X131991098Y-95040943D01*
X132117440Y-95021468D01*
X132134684Y-95019460D01*
X132171367Y-95016455D01*
X132215039Y-95014613D01*
X132262725Y-95013904D01*
X132311451Y-95014303D01*
X132358244Y-95015781D01*
X132400129Y-95018311D01*
X132434132Y-95021865D01*
X132436955Y-95022271D01*
X132467901Y-95027576D01*
X132501059Y-95034392D01*
X132530845Y-95041538D01*
X132540274Y-95044140D01*
X132566995Y-95051155D01*
X132587034Y-95053871D01*
X132604121Y-95052098D01*
X132621987Y-95045645D01*
X132634894Y-95039312D01*
X132663122Y-95021119D01*
X132690299Y-94995978D01*
X132716844Y-94963224D01*
X132743173Y-94922190D01*
X132769704Y-94872211D01*
X132796854Y-94812621D01*
X132825042Y-94742755D01*
X132831366Y-94726092D01*
X132866813Y-94634606D01*
X132906746Y-94536566D01*
X132949865Y-94434998D01*
X132994869Y-94332931D01*
X133040457Y-94233391D01*
X133068496Y-94174166D01*
X133080179Y-94149618D01*
X133089904Y-94128791D01*
X133096734Y-94113717D01*
X133099735Y-94106425D01*
X133099795Y-94106159D01*
X133097648Y-94100201D01*
X133091427Y-94085718D01*
X133081846Y-94064301D01*
X133069617Y-94037542D01*
X133055456Y-94007035D01*
X133053024Y-94001837D01*
X132996802Y-93879897D01*
X132946193Y-93765962D01*
X132900630Y-93658702D01*
X132859548Y-93556788D01*
X132826627Y-93470402D01*
X132798025Y-93397728D01*
X132769862Y-93335625D01*
X132741758Y-93283504D01*
X132713329Y-93240772D01*
X132684193Y-93206837D01*
X132653970Y-93181108D01*
X132630754Y-93167041D01*
X132612150Y-93159082D01*
X132594331Y-93155663D01*
X132574050Y-93156745D01*
X132548066Y-93162289D01*
X132534882Y-93165878D01*
X132480198Y-93178846D01*
X132421233Y-93187790D01*
X132355837Y-93192953D01*
X132283009Y-93194581D01*
X132246377Y-93194234D01*
X132209307Y-93193286D01*
X132175053Y-93191860D01*
X132146870Y-93190079D01*
X132134684Y-93188943D01*
X132011170Y-93171010D01*
X131881597Y-93144183D01*
X131746495Y-93108618D01*
X131606393Y-93064473D01*
X131461822Y-93011903D01*
X131313310Y-92951065D01*
X131277607Y-92935458D01*
X131211488Y-92907195D01*
X131148778Y-92882625D01*
X131086847Y-92860913D01*
X131023067Y-92841220D01*
X130954807Y-92822710D01*
X130879439Y-92804548D01*
X130834934Y-92794606D01*
X130768770Y-92780986D01*
X130694337Y-92767093D01*
X130614496Y-92753369D01*
X130532104Y-92740257D01*
X130450018Y-92728201D01*
X130371098Y-92717642D01*
X130298202Y-92709023D01*
X130252641Y-92704415D01*
X130212070Y-92700664D01*
X130124443Y-92631203D01*
X130065947Y-92585844D01*
X130014351Y-92548109D01*
X129968812Y-92517535D01*
X129928490Y-92493658D01*
X129892544Y-92476016D01*
X129860133Y-92464146D01*
X129830415Y-92457584D01*
X129805959Y-92455832D01*
X129788672Y-92457621D01*
X129761437Y-92463012D01*
X129724095Y-92472044D01*
X129676487Y-92484754D01*
X129631923Y-92497303D01*
X129559503Y-92518306D01*
X129497017Y-92536990D01*
X129443520Y-92553672D01*
X129398067Y-92568669D01*
X129359712Y-92582299D01*
X129327510Y-92594878D01*
X129300517Y-92606723D01*
X129288750Y-92612434D01*
X129239908Y-92641679D01*
X129201453Y-92675042D01*
X129173376Y-92712482D01*
X129155669Y-92753959D01*
X129148325Y-92799433D01*
X128617053Y-92799433D01*
X128616697Y-92793447D01*
X128614883Y-92773946D01*
X128605460Y-92701195D01*
X128592855Y-92627801D01*
X128577852Y-92557893D01*
X128563675Y-92503874D01*
X128554514Y-92474155D01*
X128545170Y-92447068D01*
X128536393Y-92424502D01*
X128528935Y-92408345D01*
X128523544Y-92400488D01*
X128522415Y-92400032D01*
X128518089Y-92404484D01*
X128509080Y-92416408D01*
X128496791Y-92433881D01*
X128485323Y-92450892D01*
X128462864Y-92482834D01*
X128440575Y-92510975D01*
X128419786Y-92533857D01*
X128401825Y-92550024D01*
X128388024Y-92558019D01*
X128387383Y-92558201D01*
X128375360Y-92556914D01*
X128360251Y-92547241D01*
X128341672Y-92528780D01*
X128319241Y-92501132D01*
X128292576Y-92463898D01*
X128281678Y-92447788D01*
X128234806Y-92374443D01*
X128193897Y-92303840D01*
X128159300Y-92236776D01*
X128131360Y-92174045D01*
X128110424Y-92116440D01*
X128096839Y-92064757D01*
X128090951Y-92019789D01*
X128090722Y-92010167D01*
X128092360Y-91980212D01*
X128098145Y-91957322D01*
X128109390Y-91937731D01*
X128120451Y-91924769D01*
X128142665Y-91904875D01*
X128173711Y-91882363D01*
X128211826Y-91858238D01*
X128255250Y-91833509D01*
X128302222Y-91809180D01*
X128350982Y-91786261D01*
X128395768Y-91767339D01*
X128440365Y-91749898D01*
X128476115Y-91736576D01*
X128502697Y-91727483D01*
X128519784Y-91722728D01*
X128527053Y-91722421D01*
X128527302Y-91722965D01*
X128523987Y-91729462D01*
X128515186Y-91742108D01*
X128502613Y-91758479D01*
X128498852Y-91763153D01*
X128486028Y-91781249D01*
X128470082Y-91807255D01*
X128452274Y-91838781D01*
X128433865Y-91873437D01*
X128416114Y-91908832D01*
X128400281Y-91942575D01*
X128387626Y-91972276D01*
X128384881Y-91979389D01*
X128379631Y-91994099D01*
X128378580Y-92000767D01*
X128381822Y-92001767D01*
X128385732Y-92000676D01*
X128395012Y-91997590D01*
X128412178Y-91991784D01*
X128434530Y-91984176D01*
X128452653Y-91977982D01*
X128517344Y-91958158D01*
X128584566Y-91942357D01*
X128656181Y-91930290D01*
X128734050Y-91921671D01*
X128820033Y-91916215D01*
X128863983Y-91914655D01*
X128906841Y-91913984D01*
X128952019Y-91914187D01*
X128998031Y-91915175D01*
X129043390Y-91916853D01*
X129086609Y-91919131D01*
X129126201Y-91921916D01*
X129160680Y-91925116D01*
X129188559Y-91928639D01*
X129208350Y-91932393D01*
X129218568Y-91936287D01*
X129218966Y-91936640D01*
X129216767Y-91941838D01*
X129208654Y-91953986D01*
X129195834Y-91971396D01*
X129179514Y-91992380D01*
X129175318Y-91997627D01*
X129104372Y-92094022D01*
X129043803Y-92193689D01*
X128993768Y-92296300D01*
X128954420Y-92401528D01*
X128925917Y-92509044D01*
X128921165Y-92532723D01*
X128918185Y-92552701D01*
X128915480Y-92578683D01*
X128913121Y-92608770D01*
X128911178Y-92641063D01*
X128909719Y-92673665D01*
X128908815Y-92704678D01*
X128908536Y-92732202D01*
X128908952Y-92754340D01*
X128910133Y-92769193D01*
X128912148Y-92774863D01*
X128912248Y-92774872D01*
X128917370Y-92770274D01*
X128926091Y-92757983D01*
X128936876Y-92740254D01*
X128941780Y-92731493D01*
X128985271Y-92658197D01*
X129035535Y-92584384D01*
X129090076Y-92513410D01*
X129146402Y-92448629D01*
X129171437Y-92422621D01*
X129253253Y-92348072D01*
X129339919Y-92283582D01*
X129431304Y-92229185D01*
X129527276Y-92184914D01*
X129627705Y-92150803D01*
X129732460Y-92126884D01*
X129841410Y-92113193D01*
X129954424Y-92109762D01*
X130071371Y-92116626D01*
X130192121Y-92133816D01*
X130251233Y-92145711D01*
X130280121Y-92152833D01*
X130316080Y-92162868D01*
X130356293Y-92174919D01*
X130397943Y-92188086D01*
X130438214Y-92201472D01*
X130474287Y-92214177D01*
X130503347Y-92225303D01*
X130511502Y-92228728D01*
X130520144Y-92232212D01*
X130524168Y-92232668D01*
X130522901Y-92229096D01*
X130515667Y-92220491D01*
X130501792Y-92205853D01*
X130483516Y-92187146D01*
X130459277Y-92163324D01*
X130429926Y-92135795D01*
X130399068Y-92107876D01*
X130370308Y-92082884D01*
X130368774Y-92081588D01*
X130261211Y-91998064D01*
X130145404Y-91921649D01*
X130021924Y-91852552D01*
X129891341Y-91790982D01*
X129754225Y-91737148D01*
X129611149Y-91691259D01*
X129462681Y-91653524D01*
X129309394Y-91624151D01*
X129151858Y-91603351D01*
X129036850Y-91593846D01*
X129004955Y-91591714D01*
X128977099Y-91589585D01*
X128955139Y-91587620D01*
X128940930Y-91585986D01*
X128936341Y-91584983D01*
X128936980Y-91578192D01*
X128943523Y-91564133D01*
X128955026Y-91544391D01*
X128970543Y-91520554D01*
X128989131Y-91494208D01*
X128995492Y-91485616D01*
X129021449Y-91453840D01*
X129054343Y-91418019D01*
X129091862Y-91380416D01*
X129131696Y-91343291D01*
X129171532Y-91308908D01*
X129196311Y-91289115D01*
X129216954Y-91273145D01*
X129234543Y-91259377D01*
X129247036Y-91249422D01*
X129252137Y-91245145D01*
X129248775Y-91243551D01*
X129235711Y-91242509D01*
X129214419Y-91241979D01*
X129186374Y-91241921D01*
X129153052Y-91242295D01*
X129115929Y-91243061D01*
X129076479Y-91244178D01*
X129036179Y-91245608D01*
X128996504Y-91247309D01*
X128958928Y-91249242D01*
X128924929Y-91251366D01*
X128895980Y-91253642D01*
X128880046Y-91255243D01*
X128720493Y-91278930D01*
X128563652Y-91313390D01*
X128409807Y-91358471D01*
X128259241Y-91414017D01*
X128112234Y-91479877D01*
X127969071Y-91555896D01*
X127830033Y-91641920D01*
X127695404Y-91737796D01*
X127565465Y-91843370D01*
X127440499Y-91958489D01*
X127320789Y-92082999D01*
X127286080Y-92122004D01*
X127260196Y-92152222D01*
X127233154Y-92184874D01*
X127205821Y-92218808D01*
X127179064Y-92252866D01*
X127153750Y-92285895D01*
X127130747Y-92316738D01*
X127110920Y-92344241D01*
X127095137Y-92367248D01*
X127084264Y-92384604D01*
X127079170Y-92395155D01*
X126591702Y-92395155D01*
X126594442Y-92388514D01*
X126641218Y-92276729D01*
X126690198Y-92161222D01*
X126741174Y-92042528D01*
X126768966Y-91978425D01*
X126819592Y-91862036D01*
X126787693Y-91880053D01*
X126747768Y-91903375D01*
X126701046Y-91931948D01*
X126649711Y-91964342D01*
X126595948Y-91999124D01*
X126541940Y-92034865D01*
X126489873Y-92070133D01*
X126441930Y-92103496D01*
X126400295Y-92133525D01*
X126396245Y-92136525D01*
X126384139Y-92144191D01*
X126375920Y-92146978D01*
X126374681Y-92146549D01*
X126372932Y-92140210D01*
X126370005Y-92124457D01*
X126366172Y-92100976D01*
X126361705Y-92071454D01*
X126356875Y-92037577D01*
X126355367Y-92026608D01*
X126334458Y-91879045D01*
X126312367Y-91734344D01*
X126289263Y-91593351D01*
X126265314Y-91456907D01*
X126240690Y-91325858D01*
X126215561Y-91201047D01*
X126190094Y-91083317D01*
X126164459Y-90973513D01*
X126138826Y-90872479D01*
X126113363Y-90781057D01*
X126091693Y-90710653D01*
X126083450Y-90684454D01*
X126076867Y-90662030D01*
X126072547Y-90645554D01*
X126071093Y-90637194D01*
X126071160Y-90636774D01*
X126076753Y-90636912D01*
X126091161Y-90640899D01*
X126112909Y-90648175D01*
X126140522Y-90658179D01*
X126172526Y-90670350D01*
X126207445Y-90684127D01*
X126243807Y-90698949D01*
X126280136Y-90714254D01*
X126314958Y-90729482D01*
X126315861Y-90729886D01*
X126476436Y-90806882D01*
X126628067Y-90890241D01*
X126771197Y-90980230D01*
X126906270Y-91077113D01*
X126943300Y-91105983D01*
X126970677Y-91128954D01*
X127002956Y-91158040D01*
X127038432Y-91191522D01*
X127075397Y-91227682D01*
X127112148Y-91264802D01*
X127146979Y-91301164D01*
X127178183Y-91335050D01*
X127204056Y-91364742D01*
X127220261Y-91384974D01*
X127258953Y-91436350D01*
X127292830Y-91409725D01*
X127388875Y-91334086D01*
X127476864Y-91264446D01*
X127557687Y-91200075D01*
X127632232Y-91140240D01*
X127701389Y-91084211D01*
X127766048Y-91031255D01*
X127827096Y-90980643D01*
X127885423Y-90931641D01*
X127941918Y-90883519D01*
X127997470Y-90835544D01*
X128052969Y-90786987D01*
X128096065Y-90748882D01*
X128130271Y-90718021D01*
X128167340Y-90683714D01*
X128206088Y-90647133D01*
X128245327Y-90609448D01*
X128283872Y-90571829D01*
X128320538Y-90535448D01*
X128354137Y-90501474D01*
X128383485Y-90471080D01*
X128407395Y-90445434D01*
X128424681Y-90425708D01*
X128429351Y-90419898D01*
X128441401Y-90405041D01*
X128451029Y-90394511D01*
X128455938Y-90390698D01*
X128457154Y-90395962D01*
G37*
D11*
X149607000Y-89866000D02*
G75*
G03*
X151607000Y-89866000I1000000J0D01*
G01*
X149607000Y-89866000D02*
X148357000Y-89866000D01*
X152857000Y-100146000D02*
X152857000Y-89866000D01*
X148357000Y-100146000D02*
X152857000Y-100146000D01*
X152857000Y-89866000D02*
X151607000Y-89866000D01*
X148357000Y-89866000D02*
X148357000Y-100146000D01*
X159706000Y-110423000D02*
X162366000Y-110423000D01*
X159706000Y-105283000D02*
X159706000Y-110423000D01*
X159706000Y-104013000D02*
X159706000Y-102683000D01*
X162366000Y-105283000D02*
X162366000Y-110423000D01*
X159706000Y-102683000D02*
X161036000Y-102683000D01*
X159706000Y-105283000D02*
X162366000Y-105283000D01*
X140684000Y-110898000D02*
X140684000Y-111228000D01*
X134144000Y-111228000D02*
X134144000Y-110898000D01*
X134144000Y-113308000D02*
X134144000Y-113638000D01*
X134144000Y-113638000D02*
X140684000Y-113638000D01*
X134144000Y-110898000D02*
X140684000Y-110898000D01*
X140684000Y-113638000D02*
X140684000Y-113308000D01*
X140684000Y-103690750D02*
X140684000Y-104020750D01*
X134144000Y-104020750D02*
X134144000Y-103690750D01*
X134144000Y-106100750D02*
X134144000Y-106430750D01*
X134144000Y-106430750D02*
X140684000Y-106430750D01*
X134144000Y-103690750D02*
X140684000Y-103690750D01*
X140684000Y-106430750D02*
X140684000Y-106100750D01*
X140684000Y-96483500D02*
X140684000Y-96813500D01*
X134144000Y-96813500D02*
X134144000Y-96483500D01*
X134144000Y-98893500D02*
X134144000Y-99223500D01*
X134144000Y-99223500D02*
X140684000Y-99223500D01*
X134144000Y-96483500D02*
X140684000Y-96483500D01*
X140684000Y-99223500D02*
X140684000Y-98893500D01*
X140684000Y-89276250D02*
X140684000Y-89606250D01*
X134144000Y-89606250D02*
X134144000Y-89276250D01*
X134144000Y-91686250D02*
X134144000Y-92016250D01*
X134144000Y-92016250D02*
X140684000Y-92016250D01*
X134144000Y-89276250D02*
X140684000Y-89276250D01*
X140684000Y-92016250D02*
X140684000Y-91686250D01*
X134144000Y-82069000D02*
X134144000Y-82399000D01*
X140684000Y-84809000D02*
X134144000Y-84809000D01*
X140684000Y-82069000D02*
X134144000Y-82069000D01*
X140684000Y-82399000D02*
X140684000Y-82069000D01*
X140684000Y-84479000D02*
X140684000Y-84809000D01*
X134144000Y-84809000D02*
X134144000Y-84479000D01*
X159706000Y-98881000D02*
X162366000Y-98881000D01*
X159706000Y-93741000D02*
X159706000Y-98881000D01*
X159706000Y-92471000D02*
X159706000Y-91141000D01*
X162366000Y-93741000D02*
X162366000Y-98881000D01*
X159706000Y-91141000D02*
X161036000Y-91141000D01*
X159706000Y-93741000D02*
X162366000Y-93741000D01*
X148382000Y-120075000D02*
X147052000Y-120075000D01*
X152252000Y-120075000D02*
X152252000Y-117415000D01*
X149652000Y-120075000D02*
X152252000Y-120075000D01*
X149652000Y-120075000D02*
X149652000Y-117415000D01*
X147052000Y-120075000D02*
X147052000Y-118745000D01*
X149652000Y-117415000D02*
X152252000Y-117415000D01*
X135964000Y-120342000D02*
X141404000Y-120342000D01*
X142424000Y-118872000D02*
X141404000Y-118872000D01*
X135964000Y-117402000D02*
X135964000Y-120342000D01*
X140624000Y-120342000D02*
X140624000Y-117402000D01*
X141404000Y-120342000D02*
X141404000Y-117402000D01*
X134944000Y-118872000D02*
X135964000Y-118872000D01*
X141404000Y-117402000D02*
X135964000Y-117402000D01*
X140384000Y-120342000D02*
X140384000Y-117402000D01*
X140504000Y-120342000D02*
X140504000Y-117402000D01*
X151427446Y-82360392D02*
G75*
G03*
X148195113Y-82203485I-1672334J-1078608D01*
G01*
X148714152Y-84518999D02*
G75*
G03*
X150796241Y-84518836I1040960J1079999D01*
G01*
X148195113Y-84674515D02*
G75*
G03*
X151427446Y-84517608I1559999J1235515D01*
G01*
X150796241Y-82359164D02*
G75*
G03*
X148714152Y-82359001I-1041129J-1079836D01*
G01*
X148195112Y-84519000D02*
X148195112Y-84675000D01*
X148195112Y-82203000D02*
X148195112Y-82359000D01*
X152107000Y-109501000D02*
X152107000Y-110206000D01*
X147867000Y-111536000D02*
X147867000Y-112241000D01*
X152107000Y-111536000D02*
X152107000Y-112241000D01*
X147867000Y-109501000D02*
X152107000Y-109501000D01*
X147867000Y-112241000D02*
X152107000Y-112241000D01*
X147867000Y-109501000D02*
X147867000Y-110206000D01*
X152127000Y-104548000D02*
X152127000Y-105253000D01*
X147887000Y-106583000D02*
X147887000Y-107288000D01*
X152127000Y-106583000D02*
X152127000Y-107288000D01*
X147887000Y-104548000D02*
X152127000Y-104548000D01*
X147887000Y-107288000D02*
X152127000Y-107288000D01*
X147887000Y-104548000D02*
X147887000Y-105253000D01*
X162706000Y-84074000D02*
G75*
G03*
X157466000Y-84074000I-2620000J0D01*
G01*
X157466000Y-84074000D02*
G75*
G03*
X162706000Y-84074000I2620000J0D01*
G01*
X162047000Y-82375000D02*
X162047000Y-83034000D01*
X160726000Y-81573000D02*
X160726000Y-83034000D01*
X160126000Y-81494000D02*
X160126000Y-83034000D01*
X161847000Y-85114000D02*
X161847000Y-85975000D01*
X161687000Y-85114000D02*
X161687000Y-86109000D01*
X160646000Y-81554000D02*
X160646000Y-83034000D01*
X160566000Y-85114000D02*
X160566000Y-86610000D01*
X161767000Y-85114000D02*
X161767000Y-86045000D01*
X160486000Y-81524000D02*
X160486000Y-83034000D01*
X157531225Y-82349000D02*
X157531225Y-82849000D01*
X161407000Y-81850000D02*
X161407000Y-83034000D01*
X160726000Y-85114000D02*
X160726000Y-86575000D01*
X160526000Y-81531000D02*
X160526000Y-83034000D01*
X161807000Y-82137000D02*
X161807000Y-83034000D01*
X160326000Y-81505000D02*
X160326000Y-83034000D01*
X161287000Y-81784000D02*
X161287000Y-83034000D01*
X161487000Y-81899000D02*
X161487000Y-83034000D01*
X161527000Y-85114000D02*
X161527000Y-86223000D01*
X161727000Y-82070000D02*
X161727000Y-83034000D01*
X160807000Y-81594000D02*
X160807000Y-83034000D01*
X161967000Y-85114000D02*
X161967000Y-85859000D01*
X160766000Y-85114000D02*
X160766000Y-86565000D01*
X160166000Y-85114000D02*
X160166000Y-86653000D01*
X160366000Y-85114000D02*
X160366000Y-86639000D01*
X160887000Y-85114000D02*
X160887000Y-86529000D01*
X161927000Y-85114000D02*
X161927000Y-85900000D01*
X162247000Y-82631000D02*
X162247000Y-85517000D01*
X160526000Y-85114000D02*
X160526000Y-86617000D01*
X160446000Y-81518000D02*
X160446000Y-83034000D01*
X160927000Y-81632000D02*
X160927000Y-83034000D01*
X160606000Y-85114000D02*
X160606000Y-86602000D01*
X160847000Y-85114000D02*
X160847000Y-86542000D01*
X161567000Y-85114000D02*
X161567000Y-86196000D01*
X162127000Y-82469000D02*
X162127000Y-85679000D01*
X161687000Y-82039000D02*
X161687000Y-83034000D01*
X162007000Y-82331000D02*
X162007000Y-83034000D01*
X161447000Y-85114000D02*
X161447000Y-86274000D01*
X162407000Y-82896000D02*
X162407000Y-85252000D01*
X161367000Y-81827000D02*
X161367000Y-83034000D01*
X161047000Y-81676000D02*
X161047000Y-83034000D01*
X162287000Y-82691000D02*
X162287000Y-85457000D01*
X162327000Y-82755000D02*
X162327000Y-85393000D01*
X160486000Y-85114000D02*
X160486000Y-86624000D01*
X161247000Y-85114000D02*
X161247000Y-86384000D01*
X161807000Y-85114000D02*
X161807000Y-86011000D01*
X160686000Y-85114000D02*
X160686000Y-86585000D01*
X162687000Y-83790000D02*
X162687000Y-84358000D01*
X162647000Y-83556000D02*
X162647000Y-84592000D01*
X161207000Y-85114000D02*
X161207000Y-86403000D01*
X161887000Y-85114000D02*
X161887000Y-85938000D01*
X160286000Y-81501000D02*
X160286000Y-83034000D01*
X160166000Y-81495000D02*
X160166000Y-83034000D01*
X160366000Y-81509000D02*
X160366000Y-83034000D01*
X160206000Y-81496000D02*
X160206000Y-83034000D01*
X162447000Y-82976000D02*
X162447000Y-85172000D01*
X162007000Y-85114000D02*
X162007000Y-85817000D01*
X161887000Y-82210000D02*
X161887000Y-83034000D01*
X161447000Y-81874000D02*
X161447000Y-83034000D01*
X161287000Y-85114000D02*
X161287000Y-86364000D01*
X161567000Y-81952000D02*
X161567000Y-83034000D01*
X160887000Y-81619000D02*
X160887000Y-83034000D01*
X160086000Y-85114000D02*
X160086000Y-86654000D01*
X157281225Y-82599000D02*
X157781225Y-82599000D01*
X162527000Y-83159000D02*
X162527000Y-84989000D01*
X162167000Y-82520000D02*
X162167000Y-85628000D01*
X162487000Y-83063000D02*
X162487000Y-85085000D01*
X160766000Y-81583000D02*
X160766000Y-83034000D01*
X161087000Y-81692000D02*
X161087000Y-83034000D01*
X160246000Y-85114000D02*
X160246000Y-86650000D01*
X161047000Y-85114000D02*
X161047000Y-86472000D01*
X161007000Y-85114000D02*
X161007000Y-86488000D01*
X160406000Y-85114000D02*
X160406000Y-86635000D01*
X161607000Y-81979000D02*
X161607000Y-83034000D01*
X161967000Y-82289000D02*
X161967000Y-83034000D01*
X161327000Y-85114000D02*
X161327000Y-86342000D01*
X161167000Y-81726000D02*
X161167000Y-83034000D01*
X160967000Y-85114000D02*
X160967000Y-86502000D01*
X161087000Y-85114000D02*
X161087000Y-86456000D01*
X160847000Y-81606000D02*
X160847000Y-83034000D01*
X161607000Y-85114000D02*
X161607000Y-86169000D01*
X161647000Y-85114000D02*
X161647000Y-86139000D01*
X162607000Y-83397000D02*
X162607000Y-84751000D01*
X161167000Y-85114000D02*
X161167000Y-86422000D01*
X160446000Y-85114000D02*
X160446000Y-86630000D01*
X162207000Y-82574000D02*
X162207000Y-85574000D01*
X162367000Y-82823000D02*
X162367000Y-85325000D01*
X162567000Y-83269000D02*
X162567000Y-84879000D01*
X160566000Y-81538000D02*
X160566000Y-83034000D01*
X161127000Y-81709000D02*
X161127000Y-83034000D01*
X160406000Y-81513000D02*
X160406000Y-83034000D01*
X160086000Y-81494000D02*
X160086000Y-83034000D01*
X161127000Y-85114000D02*
X161127000Y-86439000D01*
X162087000Y-82421000D02*
X162087000Y-83034000D01*
X161927000Y-82248000D02*
X161927000Y-83034000D01*
X161527000Y-81925000D02*
X161527000Y-83034000D01*
X160606000Y-81546000D02*
X160606000Y-83034000D01*
X160206000Y-85114000D02*
X160206000Y-86652000D01*
X161487000Y-85114000D02*
X161487000Y-86249000D01*
X161367000Y-85114000D02*
X161367000Y-86321000D01*
X160646000Y-85114000D02*
X160646000Y-86594000D01*
X160927000Y-85114000D02*
X160927000Y-86516000D01*
X160326000Y-85114000D02*
X160326000Y-86643000D01*
X160686000Y-81563000D02*
X160686000Y-83034000D01*
X161847000Y-82173000D02*
X161847000Y-83034000D01*
X161007000Y-81660000D02*
X161007000Y-83034000D01*
X160967000Y-81646000D02*
X160967000Y-83034000D01*
X160807000Y-85114000D02*
X160807000Y-86554000D01*
X160126000Y-85114000D02*
X160126000Y-86654000D01*
X161647000Y-82009000D02*
X161647000Y-83034000D01*
X160246000Y-81498000D02*
X160246000Y-83034000D01*
X161727000Y-85114000D02*
X161727000Y-86078000D01*
X162047000Y-85114000D02*
X162047000Y-85773000D01*
X161767000Y-82103000D02*
X161767000Y-83034000D01*
X161247000Y-81764000D02*
X161247000Y-83034000D01*
X161207000Y-81745000D02*
X161207000Y-83034000D01*
X161327000Y-81806000D02*
X161327000Y-83034000D01*
X160286000Y-85114000D02*
X160286000Y-86647000D01*
X161407000Y-85114000D02*
X161407000Y-86298000D01*
X162087000Y-85114000D02*
X162087000Y-85727000D01*
M02*
