G04 #@! TF.GenerationSoftware,KiCad,Pcbnew,7.0.11-rc3*
G04 #@! TF.CreationDate,2024-12-20T13:56:10-07:00*
G04 #@! TF.ProjectId,UselessBox V2,5573656c-6573-4734-926f-782056322e6b,2*
G04 #@! TF.SameCoordinates,Original*
G04 #@! TF.FileFunction,Copper,L1,Top*
G04 #@! TF.FilePolarity,Positive*
%FSLAX46Y46*%
G04 Gerber Fmt 4.6, Leading zero omitted, Abs format (unit mm)*
G04 Created by KiCad (PCBNEW 7.0.11-rc3) date 2024-12-20 13:56:10*
%MOMM*%
%LPD*%
G01*
G04 APERTURE LIST*
G04 Aperture macros list*
%AMRoundRect*
0 Rectangle with rounded corners*
0 $1 Rounding radius*
0 $2 $3 $4 $5 $6 $7 $8 $9 X,Y pos of 4 corners*
0 Add a 4 corners polygon primitive as box body*
4,1,4,$2,$3,$4,$5,$6,$7,$8,$9,$2,$3,0*
0 Add four circle primitives for the rounded corners*
1,1,$1+$1,$2,$3*
1,1,$1+$1,$4,$5*
1,1,$1+$1,$6,$7*
1,1,$1+$1,$8,$9*
0 Add four rect primitives between the rounded corners*
20,1,$1+$1,$2,$3,$4,$5,0*
20,1,$1+$1,$4,$5,$6,$7,0*
20,1,$1+$1,$6,$7,$8,$9,0*
20,1,$1+$1,$8,$9,$2,$3,0*%
G04 Aperture macros list end*
G04 #@! TA.AperFunction,ComponentPad*
%ADD10C,2.700000*%
G04 #@! TD*
G04 #@! TA.AperFunction,ComponentPad*
%ADD11RoundRect,0.250001X-1.099999X-1.099999X1.099999X-1.099999X1.099999X1.099999X-1.099999X1.099999X0*%
G04 #@! TD*
G04 #@! TA.AperFunction,ComponentPad*
%ADD12O,2.400000X1.600000*%
G04 #@! TD*
G04 #@! TA.AperFunction,ComponentPad*
%ADD13R,2.400000X1.600000*%
G04 #@! TD*
G04 #@! TA.AperFunction,ComponentPad*
%ADD14R,1.700000X1.700000*%
G04 #@! TD*
G04 #@! TA.AperFunction,ComponentPad*
%ADD15O,1.700000X1.700000*%
G04 #@! TD*
G04 #@! TA.AperFunction,ComponentPad*
%ADD16O,1.600000X1.600000*%
G04 #@! TD*
G04 #@! TA.AperFunction,ComponentPad*
%ADD17C,1.600000*%
G04 #@! TD*
G04 #@! TA.AperFunction,ComponentPad*
%ADD18O,2.200000X2.200000*%
G04 #@! TD*
G04 #@! TA.AperFunction,ComponentPad*
%ADD19R,2.200000X2.200000*%
G04 #@! TD*
G04 #@! TA.AperFunction,ComponentPad*
%ADD20C,1.800000*%
G04 #@! TD*
G04 #@! TA.AperFunction,ComponentPad*
%ADD21R,1.800000X1.800000*%
G04 #@! TD*
G04 #@! TA.AperFunction,ComponentPad*
%ADD22R,1.600000X1.600000*%
G04 #@! TD*
G04 #@! TA.AperFunction,Conductor*
%ADD23C,0.250000*%
G04 #@! TD*
G04 APERTURE END LIST*
D10*
X160446000Y-118173500D03*
D11*
X156486000Y-118173500D03*
D12*
X154417000Y-91196000D03*
X154417000Y-93736000D03*
X154417000Y-96276000D03*
X154417000Y-98816000D03*
X146797000Y-98816000D03*
X146797000Y-96276000D03*
X146797000Y-93736000D03*
D13*
X146797000Y-91196000D03*
D14*
X161036000Y-104013000D03*
D15*
X161036000Y-106553000D03*
X161036000Y-109093000D03*
D16*
X141224000Y-112268000D03*
D17*
X133604000Y-112268000D03*
D16*
X141224000Y-105060750D03*
D17*
X133604000Y-105060750D03*
D16*
X141224000Y-97853500D03*
D17*
X133604000Y-97853500D03*
D16*
X141224000Y-90646250D03*
D17*
X133604000Y-90646250D03*
X141224000Y-83439000D03*
D16*
X133604000Y-83439000D03*
D14*
X161036000Y-92471000D03*
D15*
X161036000Y-95011000D03*
X161036000Y-97551000D03*
D14*
X148382000Y-118745000D03*
D15*
X150922000Y-118745000D03*
D18*
X133604000Y-118872000D03*
D19*
X143764000Y-118872000D03*
D20*
X151025112Y-83439000D03*
D21*
X148485112Y-83439000D03*
D17*
X151237000Y-110871000D03*
X148737000Y-110871000D03*
X151257000Y-105918000D03*
X148757000Y-105918000D03*
X161086000Y-84074000D03*
D22*
X159086000Y-84074000D03*
D23*
X154114500Y-118173500D02*
X152019000Y-116078000D01*
X156486000Y-118173500D02*
X154114500Y-118173500D01*
X151049000Y-116078000D02*
X152019000Y-116078000D01*
X148382000Y-118745000D02*
X151049000Y-116078000D01*
X145034000Y-103378000D02*
X147574000Y-105918000D01*
X145034000Y-95499000D02*
X145034000Y-103378000D01*
X146797000Y-93736000D02*
X145034000Y-95499000D01*
X152273000Y-102402000D02*
X152273000Y-98420000D01*
X152273000Y-98420000D02*
X154417000Y-96276000D01*
X148757000Y-105918000D02*
X152273000Y-102402000D01*
X154417000Y-105191000D02*
X154417000Y-98816000D01*
X148737000Y-110871000D02*
X154417000Y-105191000D01*
X156972000Y-96291000D02*
X154417000Y-93736000D01*
X156972000Y-102489000D02*
X156972000Y-96291000D01*
X161036000Y-106553000D02*
X156972000Y-102489000D01*
X130937000Y-104140000D02*
X137223500Y-97853500D01*
X130937000Y-119380000D02*
X130937000Y-104140000D01*
X133223000Y-121666000D02*
X130937000Y-119380000D01*
X144907000Y-121666000D02*
X133223000Y-121666000D01*
X145669000Y-120904000D02*
X144907000Y-121666000D01*
X145669000Y-117094000D02*
X145669000Y-120904000D01*
X137223500Y-97853500D02*
X141224000Y-97853500D01*
X147701000Y-115062000D02*
X145669000Y-117094000D01*
X150368000Y-115062000D02*
X147701000Y-115062000D01*
X156337000Y-109093000D02*
X150368000Y-115062000D01*
X161036000Y-109093000D02*
X156337000Y-109093000D01*
X147574000Y-105918000D02*
X148757000Y-105918000D01*
X141224000Y-112268000D02*
X147574000Y-105918000D01*
X133604000Y-112268000D02*
X140811250Y-105060750D01*
X140811250Y-105060750D02*
X141224000Y-105060750D01*
X131572000Y-107092750D02*
X133604000Y-105060750D01*
X131572000Y-113919000D02*
X131572000Y-107092750D01*
X133604000Y-115951000D02*
X131572000Y-113919000D01*
X133604000Y-118872000D02*
X133604000Y-115951000D01*
X143764000Y-114808000D02*
X141224000Y-112268000D01*
X143764000Y-118872000D02*
X143764000Y-114808000D01*
X150114000Y-95123000D02*
X148961000Y-96276000D01*
X151511000Y-89154000D02*
X150114000Y-90551000D01*
X150114000Y-90551000D02*
X150114000Y-95123000D01*
X148961000Y-96276000D02*
X146797000Y-96276000D01*
X158765000Y-92471000D02*
X155448000Y-89154000D01*
X155448000Y-89154000D02*
X151511000Y-89154000D01*
X161036000Y-92471000D02*
X158765000Y-92471000D01*
X141224000Y-83439000D02*
X148485112Y-83439000D01*
G04 #@! TA.AperFunction,Conductor*
G36*
X153442318Y-89807502D02*
G01*
X153488811Y-89861158D01*
X153498915Y-89931432D01*
X153469421Y-89996012D01*
X153427447Y-90027695D01*
X153360501Y-90058912D01*
X153173025Y-90190184D01*
X153173019Y-90190189D01*
X153011189Y-90352019D01*
X153011184Y-90352025D01*
X152879912Y-90539501D01*
X152783188Y-90746926D01*
X152783186Y-90746931D01*
X152730917Y-90942000D01*
X154105314Y-90942000D01*
X154089359Y-90957955D01*
X154031835Y-91070852D01*
X154012014Y-91196000D01*
X154031835Y-91321148D01*
X154089359Y-91434045D01*
X154105314Y-91450000D01*
X152730918Y-91450000D01*
X152783186Y-91645068D01*
X152783188Y-91645073D01*
X152879912Y-91852498D01*
X153011184Y-92039974D01*
X153011189Y-92039980D01*
X153173019Y-92201810D01*
X153173025Y-92201815D01*
X153360503Y-92333089D01*
X153400049Y-92351530D01*
X153453334Y-92398447D01*
X153472794Y-92466724D01*
X153452252Y-92534684D01*
X153400049Y-92579918D01*
X153360252Y-92598475D01*
X153172703Y-92729799D01*
X153172697Y-92729804D01*
X153010804Y-92891697D01*
X153010799Y-92891703D01*
X152879477Y-93079250D01*
X152782717Y-93286753D01*
X152782715Y-93286759D01*
X152760508Y-93369638D01*
X152723457Y-93507913D01*
X152703502Y-93736000D01*
X152723457Y-93964087D01*
X152757670Y-94091771D01*
X152782715Y-94185240D01*
X152782717Y-94185246D01*
X152879477Y-94392749D01*
X153002574Y-94568550D01*
X153010802Y-94580300D01*
X153172700Y-94742198D01*
X153360251Y-94873523D01*
X153395359Y-94889894D01*
X153399457Y-94891805D01*
X153452742Y-94938722D01*
X153472203Y-95006999D01*
X153451661Y-95074959D01*
X153399457Y-95120195D01*
X153360250Y-95138477D01*
X153172703Y-95269799D01*
X153172697Y-95269804D01*
X153010804Y-95431697D01*
X153010799Y-95431703D01*
X152879477Y-95619250D01*
X152782717Y-95826753D01*
X152782715Y-95826759D01*
X152763187Y-95899638D01*
X152723457Y-96047913D01*
X152703502Y-96276000D01*
X152723457Y-96504087D01*
X152754306Y-96619215D01*
X152782715Y-96725240D01*
X152782719Y-96725250D01*
X152837379Y-96842471D01*
X152848040Y-96912662D01*
X152819060Y-96977475D01*
X152812279Y-96984815D01*
X152343594Y-97453500D01*
X151884335Y-97912759D01*
X151871900Y-97922722D01*
X151872088Y-97922949D01*
X151865983Y-97927999D01*
X151819356Y-97977652D01*
X151816603Y-97980491D01*
X151796859Y-98000234D01*
X151796858Y-98000236D01*
X151794375Y-98003437D01*
X151786686Y-98012438D01*
X151756418Y-98044673D01*
X151756411Y-98044683D01*
X151746651Y-98062435D01*
X151735803Y-98078950D01*
X151723386Y-98094958D01*
X151705824Y-98135540D01*
X151700604Y-98146195D01*
X151679305Y-98184939D01*
X151679303Y-98184944D01*
X151674267Y-98204559D01*
X151667864Y-98223262D01*
X151659819Y-98241852D01*
X151652901Y-98285525D01*
X151650495Y-98297142D01*
X151639500Y-98339968D01*
X151639500Y-98360223D01*
X151637949Y-98379933D01*
X151634780Y-98399942D01*
X151638941Y-98443961D01*
X151639500Y-98455819D01*
X151639500Y-102087404D01*
X151619498Y-102155525D01*
X151602595Y-102176499D01*
X149170246Y-104608847D01*
X149107934Y-104642873D01*
X149048540Y-104641459D01*
X148985090Y-104624457D01*
X148757000Y-104604502D01*
X148528913Y-104624457D01*
X148307759Y-104683715D01*
X148307753Y-104683717D01*
X148100250Y-104780477D01*
X147912703Y-104911799D01*
X147777298Y-105047204D01*
X147714986Y-105081229D01*
X147644170Y-105076164D01*
X147599108Y-105047203D01*
X145704405Y-103152500D01*
X145670379Y-103090188D01*
X145667500Y-103063405D01*
X145667500Y-100116827D01*
X145687502Y-100048706D01*
X145741158Y-100002213D01*
X145811432Y-99992109D01*
X145846750Y-100002632D01*
X145947926Y-100049811D01*
X145947931Y-100049813D01*
X146168999Y-100109048D01*
X146168995Y-100109048D01*
X146339901Y-100124000D01*
X146543000Y-100124000D01*
X146543000Y-99127686D01*
X146558955Y-99143641D01*
X146671852Y-99201165D01*
X146765519Y-99216000D01*
X146828481Y-99216000D01*
X146922148Y-99201165D01*
X147035045Y-99143641D01*
X147051000Y-99127686D01*
X147051000Y-100124000D01*
X147254099Y-100124000D01*
X147425002Y-100109048D01*
X147646068Y-100049813D01*
X147646073Y-100049811D01*
X147853498Y-99953087D01*
X148040974Y-99821815D01*
X148040980Y-99821810D01*
X148202810Y-99659980D01*
X148202815Y-99659974D01*
X148334087Y-99472498D01*
X148430811Y-99265073D01*
X148430813Y-99265068D01*
X148483082Y-99070000D01*
X147108686Y-99070000D01*
X147124641Y-99054045D01*
X147182165Y-98941148D01*
X147201986Y-98816000D01*
X147182165Y-98690852D01*
X147124641Y-98577955D01*
X147108686Y-98562000D01*
X148483082Y-98562000D01*
X148430813Y-98366931D01*
X148430811Y-98366926D01*
X148334087Y-98159501D01*
X148202815Y-97972025D01*
X148202810Y-97972019D01*
X148040980Y-97810189D01*
X148040974Y-97810184D01*
X147853497Y-97678911D01*
X147813949Y-97660469D01*
X147760665Y-97613551D01*
X147741205Y-97545273D01*
X147761748Y-97477314D01*
X147813950Y-97432081D01*
X147853749Y-97413523D01*
X148041300Y-97282198D01*
X148203198Y-97120300D01*
X148298065Y-96984816D01*
X148313181Y-96963229D01*
X148368638Y-96918901D01*
X148416394Y-96909500D01*
X148877147Y-96909500D01*
X148892988Y-96911249D01*
X148893016Y-96910956D01*
X148900902Y-96911700D01*
X148900909Y-96911702D01*
X148968986Y-96909562D01*
X148972945Y-96909500D01*
X149000851Y-96909500D01*
X149000856Y-96909500D01*
X149004867Y-96908992D01*
X149016699Y-96908061D01*
X149060889Y-96906673D01*
X149080347Y-96901019D01*
X149099694Y-96897013D01*
X149119797Y-96894474D01*
X149160910Y-96878195D01*
X149172130Y-96874353D01*
X149196913Y-96867154D01*
X149214591Y-96862019D01*
X149214595Y-96862017D01*
X149232026Y-96851708D01*
X149249780Y-96843009D01*
X149268617Y-96835552D01*
X149304392Y-96809558D01*
X149314298Y-96803051D01*
X149352362Y-96780542D01*
X149366685Y-96766218D01*
X149381724Y-96753374D01*
X149398107Y-96741472D01*
X149426303Y-96707386D01*
X149434272Y-96698630D01*
X150502657Y-95630245D01*
X150515092Y-95620284D01*
X150514905Y-95620057D01*
X150521016Y-95615001D01*
X150521015Y-95615001D01*
X150521018Y-95615000D01*
X150567676Y-95565312D01*
X150570367Y-95562535D01*
X150590134Y-95542770D01*
X150592617Y-95539567D01*
X150600308Y-95530562D01*
X150630586Y-95498321D01*
X150640345Y-95480567D01*
X150651197Y-95464046D01*
X150663613Y-95448041D01*
X150681168Y-95407470D01*
X150686392Y-95396808D01*
X150697754Y-95376142D01*
X150707695Y-95358060D01*
X150712733Y-95338435D01*
X150719138Y-95319730D01*
X150727181Y-95301145D01*
X150734096Y-95257481D01*
X150736504Y-95245852D01*
X150747500Y-95203030D01*
X150747500Y-95182775D01*
X150749051Y-95163063D01*
X150749861Y-95157950D01*
X150752220Y-95143057D01*
X150748059Y-95099036D01*
X150747500Y-95087179D01*
X150747500Y-90865594D01*
X150767502Y-90797473D01*
X150784405Y-90776499D01*
X151736499Y-89824405D01*
X151798811Y-89790379D01*
X151825594Y-89787500D01*
X153374197Y-89787500D01*
X153442318Y-89807502D01*
G37*
G04 #@! TD.AperFunction*
G04 #@! TA.AperFunction,Conductor*
G36*
X169422118Y-77876770D02*
G01*
X169442721Y-77878120D01*
X169663915Y-77892618D01*
X169676340Y-77894056D01*
X169708574Y-77899428D01*
X169712249Y-77900100D01*
X169929232Y-77943261D01*
X169945135Y-77947522D01*
X170178042Y-78026584D01*
X170193249Y-78032883D01*
X170413851Y-78141671D01*
X170428108Y-78149902D01*
X170570867Y-78245291D01*
X170632614Y-78286549D01*
X170645680Y-78296575D01*
X170830597Y-78458741D01*
X170842250Y-78470395D01*
X170960114Y-78604792D01*
X170973423Y-78623039D01*
X171131892Y-78887153D01*
X171190805Y-78985341D01*
X171199749Y-79003372D01*
X171363933Y-79413835D01*
X171370524Y-79436048D01*
X171405723Y-79613001D01*
X171407874Y-79629342D01*
X171424230Y-79878880D01*
X171424500Y-79887121D01*
X171424500Y-122427845D01*
X171424230Y-122436084D01*
X171413004Y-122607388D01*
X171410827Y-122623860D01*
X171331462Y-123020687D01*
X171327222Y-123036478D01*
X171310880Y-123084619D01*
X171304265Y-123100466D01*
X171084502Y-123539993D01*
X171076570Y-123553645D01*
X171063766Y-123572808D01*
X171048095Y-123591903D01*
X170577902Y-124062095D01*
X170558810Y-124077763D01*
X170428131Y-124165082D01*
X170413857Y-124173324D01*
X170238785Y-124259661D01*
X170217671Y-124267807D01*
X169693396Y-124417600D01*
X169667021Y-124422178D01*
X169422680Y-124438192D01*
X169414428Y-124438462D01*
X126398343Y-124434503D01*
X126398328Y-124434500D01*
X126373285Y-124434500D01*
X126369122Y-124434500D01*
X126360881Y-124434230D01*
X126111342Y-124417874D01*
X126095001Y-124415723D01*
X126060670Y-124408894D01*
X126050637Y-124406467D01*
X125584611Y-124273316D01*
X125563498Y-124265170D01*
X125425087Y-124196914D01*
X125369153Y-124169331D01*
X125354887Y-124161094D01*
X125293173Y-124119858D01*
X125212128Y-124065705D01*
X125193035Y-124050035D01*
X124742963Y-123599963D01*
X124727293Y-123580870D01*
X124699980Y-123539993D01*
X124631902Y-123438108D01*
X124623671Y-123423851D01*
X124527824Y-123229492D01*
X124519683Y-123208390D01*
X124418903Y-122855659D01*
X124386529Y-122742353D01*
X124384110Y-122732356D01*
X124377273Y-122697983D01*
X124375126Y-122681668D01*
X124358770Y-122432118D01*
X124358500Y-122423878D01*
X124358500Y-121158000D01*
X126116852Y-121158000D01*
X126136138Y-121415360D01*
X126193566Y-121666966D01*
X126193567Y-121666968D01*
X126287849Y-121907197D01*
X126287851Y-121907201D01*
X126416889Y-122130702D01*
X126416891Y-122130705D01*
X126416892Y-122130706D01*
X126577801Y-122332480D01*
X126766986Y-122508018D01*
X126766992Y-122508022D01*
X126980218Y-122653397D01*
X126980226Y-122653402D01*
X127212732Y-122765371D01*
X127212750Y-122765378D01*
X127459344Y-122841442D01*
X127459346Y-122841442D01*
X127459355Y-122841445D01*
X127714551Y-122879910D01*
X127714555Y-122879910D01*
X127972625Y-122879910D01*
X127972629Y-122879910D01*
X128227825Y-122841445D01*
X128283609Y-122824238D01*
X128474429Y-122765378D01*
X128474431Y-122765376D01*
X128474438Y-122765375D01*
X128474443Y-122765372D01*
X128474447Y-122765371D01*
X128706953Y-122653402D01*
X128706953Y-122653401D01*
X128706959Y-122653399D01*
X128920194Y-122508018D01*
X129109379Y-122332480D01*
X129270288Y-122130706D01*
X129399327Y-121907204D01*
X129493614Y-121666965D01*
X129551042Y-121415357D01*
X129570328Y-121158000D01*
X129551042Y-120900643D01*
X129493614Y-120649035D01*
X129427469Y-120480500D01*
X129399330Y-120408802D01*
X129399328Y-120408798D01*
X129270290Y-120185297D01*
X129263935Y-120177328D01*
X129109379Y-119983520D01*
X128920194Y-119807982D01*
X128887489Y-119785684D01*
X128706961Y-119662602D01*
X128706953Y-119662597D01*
X128474447Y-119550628D01*
X128474429Y-119550621D01*
X128227835Y-119474557D01*
X128227827Y-119474555D01*
X128227825Y-119474555D01*
X127972629Y-119436090D01*
X127714551Y-119436090D01*
X127459355Y-119474555D01*
X127459353Y-119474555D01*
X127459344Y-119474557D01*
X127212750Y-119550621D01*
X127212732Y-119550628D01*
X126980226Y-119662597D01*
X126980218Y-119662602D01*
X126766992Y-119807977D01*
X126766987Y-119807981D01*
X126766986Y-119807982D01*
X126577801Y-119983520D01*
X126548192Y-120020649D01*
X126416889Y-120185297D01*
X126287851Y-120408798D01*
X126287849Y-120408802D01*
X126193567Y-120649031D01*
X126193566Y-120649033D01*
X126136138Y-120900639D01*
X126116852Y-121158000D01*
X124358500Y-121158000D01*
X124358500Y-104119942D01*
X130298780Y-104119942D01*
X130302941Y-104163961D01*
X130303500Y-104175819D01*
X130303500Y-119296146D01*
X130301751Y-119311988D01*
X130302044Y-119312016D01*
X130301298Y-119319907D01*
X130303438Y-119387984D01*
X130303500Y-119391943D01*
X130303500Y-119419851D01*
X130303501Y-119419869D01*
X130304007Y-119423877D01*
X130304937Y-119435696D01*
X130306326Y-119479888D01*
X130306327Y-119479893D01*
X130311977Y-119499339D01*
X130315986Y-119518697D01*
X130318525Y-119538793D01*
X130318526Y-119538800D01*
X130334800Y-119579903D01*
X130338644Y-119591129D01*
X130350982Y-119633593D01*
X130361294Y-119651031D01*
X130369988Y-119668779D01*
X130377444Y-119687609D01*
X130377450Y-119687620D01*
X130403432Y-119723381D01*
X130409949Y-119733301D01*
X130432458Y-119771362D01*
X130432459Y-119771363D01*
X130432461Y-119771366D01*
X130446779Y-119785684D01*
X130459617Y-119800714D01*
X130471526Y-119817104D01*
X130471530Y-119817109D01*
X130505598Y-119845292D01*
X130514378Y-119853282D01*
X132715753Y-122054657D01*
X132725720Y-122067097D01*
X132725947Y-122066910D01*
X132730999Y-122073017D01*
X132731000Y-122073018D01*
X132756965Y-122097401D01*
X132780666Y-122119657D01*
X132783510Y-122122414D01*
X132803226Y-122142131D01*
X132806423Y-122144611D01*
X132815444Y-122152316D01*
X132847679Y-122182586D01*
X132847680Y-122182586D01*
X132847682Y-122182588D01*
X132865429Y-122192344D01*
X132881959Y-122203202D01*
X132897959Y-122215613D01*
X132938536Y-122233172D01*
X132949187Y-122238390D01*
X132987940Y-122259695D01*
X133007562Y-122264733D01*
X133026263Y-122271135D01*
X133038814Y-122276567D01*
X133044852Y-122279180D01*
X133044853Y-122279180D01*
X133044855Y-122279181D01*
X133088530Y-122286098D01*
X133100141Y-122288502D01*
X133142970Y-122299500D01*
X133163224Y-122299500D01*
X133182934Y-122301051D01*
X133185141Y-122301400D01*
X133202943Y-122304220D01*
X133246961Y-122300058D01*
X133258819Y-122299500D01*
X144823147Y-122299500D01*
X144838988Y-122301249D01*
X144839016Y-122300956D01*
X144846902Y-122301700D01*
X144846909Y-122301702D01*
X144914986Y-122299562D01*
X144918945Y-122299500D01*
X144946851Y-122299500D01*
X144946856Y-122299500D01*
X144950867Y-122298992D01*
X144962699Y-122298061D01*
X145006889Y-122296673D01*
X145026347Y-122291019D01*
X145045694Y-122287013D01*
X145065797Y-122284474D01*
X145106910Y-122268195D01*
X145118130Y-122264353D01*
X145142913Y-122257154D01*
X145160591Y-122252019D01*
X145160595Y-122252017D01*
X145178026Y-122241708D01*
X145195780Y-122233009D01*
X145214617Y-122225552D01*
X145250392Y-122199558D01*
X145260298Y-122193051D01*
X145298362Y-122170542D01*
X145312685Y-122156218D01*
X145327724Y-122143374D01*
X145329435Y-122142131D01*
X145344107Y-122131472D01*
X145372303Y-122097386D01*
X145380272Y-122088630D01*
X146057657Y-121411245D01*
X146070097Y-121401282D01*
X146069908Y-121401054D01*
X146076012Y-121396003D01*
X146076018Y-121396000D01*
X146122662Y-121346327D01*
X146125352Y-121343551D01*
X146145135Y-121323770D01*
X146147614Y-121320573D01*
X146155311Y-121311559D01*
X146185586Y-121279321D01*
X146195346Y-121261565D01*
X146206195Y-121245050D01*
X146218614Y-121229041D01*
X146236179Y-121188446D01*
X146241384Y-121177821D01*
X146252282Y-121158000D01*
X166116852Y-121158000D01*
X166136138Y-121415360D01*
X166193566Y-121666966D01*
X166193567Y-121666968D01*
X166287849Y-121907197D01*
X166287851Y-121907201D01*
X166416889Y-122130702D01*
X166416891Y-122130705D01*
X166416892Y-122130706D01*
X166577801Y-122332480D01*
X166766986Y-122508018D01*
X166766992Y-122508022D01*
X166980218Y-122653397D01*
X166980226Y-122653402D01*
X167212732Y-122765371D01*
X167212750Y-122765378D01*
X167459344Y-122841442D01*
X167459346Y-122841442D01*
X167459355Y-122841445D01*
X167714551Y-122879910D01*
X167714555Y-122879910D01*
X167972625Y-122879910D01*
X167972629Y-122879910D01*
X168227825Y-122841445D01*
X168283609Y-122824238D01*
X168474429Y-122765378D01*
X168474431Y-122765376D01*
X168474438Y-122765375D01*
X168474443Y-122765372D01*
X168474447Y-122765371D01*
X168706953Y-122653402D01*
X168706953Y-122653401D01*
X168706959Y-122653399D01*
X168920194Y-122508018D01*
X169109379Y-122332480D01*
X169270288Y-122130706D01*
X169399327Y-121907204D01*
X169493614Y-121666965D01*
X169551042Y-121415357D01*
X169570328Y-121158000D01*
X169551042Y-120900643D01*
X169493614Y-120649035D01*
X169427469Y-120480500D01*
X169399330Y-120408802D01*
X169399328Y-120408798D01*
X169270290Y-120185297D01*
X169263935Y-120177328D01*
X169109379Y-119983520D01*
X168920194Y-119807982D01*
X168887489Y-119785684D01*
X168706961Y-119662602D01*
X168706953Y-119662597D01*
X168474447Y-119550628D01*
X168474429Y-119550621D01*
X168227835Y-119474557D01*
X168227827Y-119474555D01*
X168227825Y-119474555D01*
X167972629Y-119436090D01*
X167714551Y-119436090D01*
X167459355Y-119474555D01*
X167459353Y-119474555D01*
X167459344Y-119474557D01*
X167212750Y-119550621D01*
X167212732Y-119550628D01*
X166980226Y-119662597D01*
X166980218Y-119662602D01*
X166766992Y-119807977D01*
X166766987Y-119807981D01*
X166766986Y-119807982D01*
X166577801Y-119983520D01*
X166548192Y-120020649D01*
X166416889Y-120185297D01*
X166287851Y-120408798D01*
X166287849Y-120408802D01*
X166193567Y-120649031D01*
X166193566Y-120649033D01*
X166136138Y-120900639D01*
X166116852Y-121158000D01*
X146252282Y-121158000D01*
X146262695Y-121139060D01*
X146267733Y-121119434D01*
X146274137Y-121100732D01*
X146282180Y-121082147D01*
X146282179Y-121082147D01*
X146282181Y-121082145D01*
X146289096Y-121038481D01*
X146291504Y-121026852D01*
X146299530Y-120995595D01*
X146302500Y-120984030D01*
X146302500Y-120963775D01*
X146304051Y-120944063D01*
X146307220Y-120924057D01*
X146303059Y-120880036D01*
X146302500Y-120868179D01*
X146302500Y-117408594D01*
X146322502Y-117340473D01*
X146339405Y-117319499D01*
X147926500Y-115732405D01*
X147988812Y-115698379D01*
X148015595Y-115695500D01*
X150231405Y-115695500D01*
X150299526Y-115715502D01*
X150346019Y-115769158D01*
X150356123Y-115839432D01*
X150326629Y-115904012D01*
X150320500Y-115910595D01*
X148881500Y-117349595D01*
X148819188Y-117383621D01*
X148792405Y-117386500D01*
X147483350Y-117386500D01*
X147422803Y-117393009D01*
X147422795Y-117393011D01*
X147285797Y-117444110D01*
X147285792Y-117444112D01*
X147168738Y-117531738D01*
X147081112Y-117648792D01*
X147081110Y-117648797D01*
X147030011Y-117785795D01*
X147030009Y-117785803D01*
X147023500Y-117846350D01*
X147023500Y-119643649D01*
X147030009Y-119704196D01*
X147030011Y-119704204D01*
X147081110Y-119841202D01*
X147081112Y-119841207D01*
X147168738Y-119958261D01*
X147285792Y-120045887D01*
X147285794Y-120045888D01*
X147285796Y-120045889D01*
X147340900Y-120066442D01*
X147422795Y-120096988D01*
X147422803Y-120096990D01*
X147483350Y-120103499D01*
X147483355Y-120103499D01*
X147483362Y-120103500D01*
X147483368Y-120103500D01*
X149280632Y-120103500D01*
X149280638Y-120103500D01*
X149280645Y-120103499D01*
X149280649Y-120103499D01*
X149341196Y-120096990D01*
X149341199Y-120096989D01*
X149341201Y-120096989D01*
X149478204Y-120045889D01*
X149496758Y-120032000D01*
X149595261Y-119958261D01*
X149682886Y-119841208D01*
X149682885Y-119841208D01*
X149682889Y-119841204D01*
X149726999Y-119722939D01*
X149769545Y-119666107D01*
X149836066Y-119641296D01*
X149905440Y-119656388D01*
X149937753Y-119681635D01*
X149998760Y-119747906D01*
X149998762Y-119747908D01*
X150028896Y-119771362D01*
X150176424Y-119886189D01*
X150374426Y-119993342D01*
X150374427Y-119993342D01*
X150374428Y-119993343D01*
X150456118Y-120021387D01*
X150587365Y-120066444D01*
X150809431Y-120103500D01*
X150809435Y-120103500D01*
X151034565Y-120103500D01*
X151034569Y-120103500D01*
X151256635Y-120066444D01*
X151469574Y-119993342D01*
X151667576Y-119886189D01*
X151845240Y-119747906D01*
X151997722Y-119582268D01*
X152120860Y-119393791D01*
X152211296Y-119187616D01*
X152266564Y-118969368D01*
X152285156Y-118745000D01*
X152266564Y-118520632D01*
X152226698Y-118363204D01*
X152211297Y-118302387D01*
X152211296Y-118302386D01*
X152211296Y-118302384D01*
X152120860Y-118096209D01*
X152064915Y-118010578D01*
X151997724Y-117907734D01*
X151997720Y-117907729D01*
X151845237Y-117742091D01*
X151725256Y-117648706D01*
X151667576Y-117603811D01*
X151469574Y-117496658D01*
X151469572Y-117496657D01*
X151469571Y-117496656D01*
X151256639Y-117423557D01*
X151256630Y-117423555D01*
X151212476Y-117416187D01*
X151034569Y-117386500D01*
X150940594Y-117386500D01*
X150872473Y-117366498D01*
X150825980Y-117312842D01*
X150815876Y-117242568D01*
X150845370Y-117177988D01*
X150851499Y-117171404D01*
X150968971Y-117053933D01*
X151274500Y-116748404D01*
X151336812Y-116714379D01*
X151363595Y-116711500D01*
X151704406Y-116711500D01*
X151772527Y-116731502D01*
X151793501Y-116748405D01*
X153607253Y-118562157D01*
X153617220Y-118574597D01*
X153617447Y-118574410D01*
X153622499Y-118580517D01*
X153672166Y-118627157D01*
X153675010Y-118629914D01*
X153694730Y-118649634D01*
X153697916Y-118652105D01*
X153706947Y-118659818D01*
X153739178Y-118690085D01*
X153739182Y-118690088D01*
X153756930Y-118699845D01*
X153773457Y-118710701D01*
X153789460Y-118723114D01*
X153830039Y-118740674D01*
X153840687Y-118745891D01*
X153879434Y-118767192D01*
X153879436Y-118767193D01*
X153879440Y-118767195D01*
X153899062Y-118772233D01*
X153917763Y-118778635D01*
X153930314Y-118784067D01*
X153936352Y-118786680D01*
X153936353Y-118786680D01*
X153936355Y-118786681D01*
X153980030Y-118793598D01*
X153991641Y-118796002D01*
X154034470Y-118807000D01*
X154054724Y-118807000D01*
X154074434Y-118808551D01*
X154076641Y-118808900D01*
X154094443Y-118811720D01*
X154138461Y-118807558D01*
X154150319Y-118807000D01*
X154501500Y-118807000D01*
X154569621Y-118827002D01*
X154616114Y-118880658D01*
X154627500Y-118933000D01*
X154627500Y-119324052D01*
X154627499Y-119324052D01*
X154638112Y-119427921D01*
X154638112Y-119427923D01*
X154638113Y-119427925D01*
X154693885Y-119596238D01*
X154786970Y-119747151D01*
X154786975Y-119747157D01*
X154912342Y-119872524D01*
X154912348Y-119872529D01*
X154912349Y-119872530D01*
X155063262Y-119965615D01*
X155231575Y-120021387D01*
X155259906Y-120024281D01*
X155335448Y-120032000D01*
X155335456Y-120032000D01*
X157636552Y-120032000D01*
X157705798Y-120024924D01*
X157740425Y-120021387D01*
X157908738Y-119965615D01*
X158059651Y-119872530D01*
X158185030Y-119747151D01*
X158278115Y-119596238D01*
X158333887Y-119427925D01*
X158339745Y-119370589D01*
X158344500Y-119324052D01*
X158344500Y-118363204D01*
X158364502Y-118295083D01*
X158418158Y-118248590D01*
X158488432Y-118238486D01*
X158553012Y-118267980D01*
X158591396Y-118327706D01*
X158596179Y-118354215D01*
X158602213Y-118438592D01*
X158658707Y-118698293D01*
X158751587Y-118947314D01*
X158878958Y-119180576D01*
X158964903Y-119295385D01*
X158964903Y-119295386D01*
X159692806Y-118567482D01*
X159738316Y-118653322D01*
X159858009Y-118794235D01*
X160005195Y-118906123D01*
X160051269Y-118927439D01*
X159324112Y-119654595D01*
X159324113Y-119654596D01*
X159438919Y-119740539D01*
X159672185Y-119867912D01*
X159921206Y-119960792D01*
X160180907Y-120017286D01*
X160446000Y-120036245D01*
X160711092Y-120017286D01*
X160970793Y-119960792D01*
X161219814Y-119867912D01*
X161453076Y-119740542D01*
X161567885Y-119654595D01*
X161567886Y-119654595D01*
X160841077Y-118927786D01*
X160963431Y-118854169D01*
X161097658Y-118727023D01*
X161201413Y-118573995D01*
X161202635Y-118570926D01*
X161927095Y-119295386D01*
X161927095Y-119295385D01*
X162013042Y-119180576D01*
X162140412Y-118947314D01*
X162233292Y-118698293D01*
X162289786Y-118438592D01*
X162308745Y-118173500D01*
X162289786Y-117908407D01*
X162233292Y-117648706D01*
X162140412Y-117399685D01*
X162013039Y-117166419D01*
X161927096Y-117051613D01*
X161927095Y-117051612D01*
X161199192Y-117779515D01*
X161153684Y-117693678D01*
X161033991Y-117552765D01*
X160886805Y-117440877D01*
X160840729Y-117419560D01*
X161567886Y-116692403D01*
X161453076Y-116606458D01*
X161219814Y-116479087D01*
X160970793Y-116386207D01*
X160711092Y-116329713D01*
X160446000Y-116310754D01*
X160180907Y-116329713D01*
X159921206Y-116386207D01*
X159672185Y-116479087D01*
X159438924Y-116606457D01*
X159324113Y-116692402D01*
X159324112Y-116692403D01*
X160050922Y-117419213D01*
X159928569Y-117492831D01*
X159794342Y-117619977D01*
X159690587Y-117773005D01*
X159689364Y-117776073D01*
X158964903Y-117051612D01*
X158964902Y-117051613D01*
X158878957Y-117166424D01*
X158751587Y-117399685D01*
X158658707Y-117648706D01*
X158602213Y-117908407D01*
X158596179Y-117992784D01*
X158571368Y-118059304D01*
X158514532Y-118101851D01*
X158443717Y-118106915D01*
X158381405Y-118072890D01*
X158347379Y-118010578D01*
X158344500Y-117983795D01*
X158344500Y-117022947D01*
X158333887Y-116919078D01*
X158333887Y-116919075D01*
X158278115Y-116750762D01*
X158185030Y-116599849D01*
X158185029Y-116599848D01*
X158185024Y-116599842D01*
X158059657Y-116474475D01*
X158059651Y-116474470D01*
X157908738Y-116381385D01*
X157740425Y-116325613D01*
X157740423Y-116325612D01*
X157740421Y-116325612D01*
X157636552Y-116315000D01*
X157636544Y-116315000D01*
X155335456Y-116315000D01*
X155335448Y-116315000D01*
X155231578Y-116325612D01*
X155063262Y-116381385D01*
X155063260Y-116381386D01*
X154912348Y-116474470D01*
X154912342Y-116474475D01*
X154786975Y-116599842D01*
X154786970Y-116599848D01*
X154693886Y-116750760D01*
X154693885Y-116750762D01*
X154638112Y-116919078D01*
X154627500Y-117022947D01*
X154627500Y-117414000D01*
X154607498Y-117482121D01*
X154553842Y-117528614D01*
X154501500Y-117540000D01*
X154429094Y-117540000D01*
X154360973Y-117519998D01*
X154339999Y-117503095D01*
X153443362Y-116606458D01*
X152526244Y-115689339D01*
X152516279Y-115676901D01*
X152516052Y-115677090D01*
X152511001Y-115670984D01*
X152511000Y-115670982D01*
X152461347Y-115624355D01*
X152458504Y-115621599D01*
X152438777Y-115601871D01*
X152438771Y-115601866D01*
X152435567Y-115599380D01*
X152426556Y-115591683D01*
X152394325Y-115561417D01*
X152394319Y-115561413D01*
X152376563Y-115551651D01*
X152360047Y-115540802D01*
X152344041Y-115528386D01*
X152303464Y-115510827D01*
X152292807Y-115505605D01*
X152254063Y-115484306D01*
X152254060Y-115484305D01*
X152234436Y-115479266D01*
X152215736Y-115472864D01*
X152197145Y-115464819D01*
X152197143Y-115464818D01*
X152197141Y-115464818D01*
X152153474Y-115457901D01*
X152141855Y-115455495D01*
X152099030Y-115444500D01*
X152078776Y-115444500D01*
X152059066Y-115442949D01*
X152039057Y-115439780D01*
X151995039Y-115443941D01*
X151983181Y-115444500D01*
X151185593Y-115444500D01*
X151117472Y-115424498D01*
X151070979Y-115370842D01*
X151060875Y-115300568D01*
X151090369Y-115235988D01*
X151096498Y-115229405D01*
X155195428Y-111130477D01*
X156562500Y-109763405D01*
X156624812Y-109729379D01*
X156651595Y-109726500D01*
X159758962Y-109726500D01*
X159827083Y-109746502D01*
X159864445Y-109783585D01*
X159960275Y-109930265D01*
X159960279Y-109930270D01*
X160112762Y-110095908D01*
X160167331Y-110138381D01*
X160290424Y-110234189D01*
X160488426Y-110341342D01*
X160488427Y-110341342D01*
X160488428Y-110341343D01*
X160600227Y-110379723D01*
X160701365Y-110414444D01*
X160923431Y-110451500D01*
X160923435Y-110451500D01*
X161148565Y-110451500D01*
X161148569Y-110451500D01*
X161370635Y-110414444D01*
X161583574Y-110341342D01*
X161781576Y-110234189D01*
X161959240Y-110095906D01*
X162111722Y-109930268D01*
X162234860Y-109741791D01*
X162325296Y-109535616D01*
X162380564Y-109317368D01*
X162399156Y-109093000D01*
X162380564Y-108868632D01*
X162325296Y-108650384D01*
X162234860Y-108444209D01*
X162207555Y-108402415D01*
X162111724Y-108255734D01*
X162111720Y-108255729D01*
X161959237Y-108090091D01*
X161877382Y-108026381D01*
X161781576Y-107951811D01*
X161748319Y-107933813D01*
X161697929Y-107883802D01*
X161682576Y-107814485D01*
X161707136Y-107747872D01*
X161748320Y-107712186D01*
X161781576Y-107694189D01*
X161959240Y-107555906D01*
X162111722Y-107390268D01*
X162234860Y-107201791D01*
X162325296Y-106995616D01*
X162380564Y-106777368D01*
X162399156Y-106553000D01*
X162380564Y-106328632D01*
X162356208Y-106232453D01*
X162325297Y-106110387D01*
X162325296Y-106110386D01*
X162325296Y-106110384D01*
X162234860Y-105904209D01*
X162185661Y-105828904D01*
X162111724Y-105715734D01*
X162111719Y-105715729D01*
X162095626Y-105698248D01*
X161968524Y-105560179D01*
X161937103Y-105496514D01*
X161945090Y-105425968D01*
X161989948Y-105370939D01*
X162017183Y-105356789D01*
X162132204Y-105313889D01*
X162132254Y-105313852D01*
X162249261Y-105226261D01*
X162336887Y-105109207D01*
X162336887Y-105109206D01*
X162336889Y-105109204D01*
X162387989Y-104972201D01*
X162388710Y-104965501D01*
X162394499Y-104911649D01*
X162394500Y-104911632D01*
X162394500Y-103114367D01*
X162394499Y-103114350D01*
X162387990Y-103053803D01*
X162387988Y-103053795D01*
X162358924Y-102975875D01*
X162336889Y-102916796D01*
X162336888Y-102916794D01*
X162336887Y-102916792D01*
X162249261Y-102799738D01*
X162132207Y-102712112D01*
X162132202Y-102712110D01*
X161995204Y-102661011D01*
X161995196Y-102661009D01*
X161934649Y-102654500D01*
X161934638Y-102654500D01*
X160137362Y-102654500D01*
X160137350Y-102654500D01*
X160076803Y-102661009D01*
X160076795Y-102661011D01*
X159939797Y-102712110D01*
X159939792Y-102712112D01*
X159822738Y-102799738D01*
X159735112Y-102916792D01*
X159735110Y-102916797D01*
X159684011Y-103053795D01*
X159684009Y-103053803D01*
X159677500Y-103114350D01*
X159677500Y-103994405D01*
X159657498Y-104062526D01*
X159603842Y-104109019D01*
X159533568Y-104119123D01*
X159468988Y-104089629D01*
X159462405Y-104083500D01*
X157642405Y-102263500D01*
X157608379Y-102201188D01*
X157605500Y-102174405D01*
X157605500Y-96374854D01*
X157607249Y-96359012D01*
X157606956Y-96358985D01*
X157607700Y-96351099D01*
X157607702Y-96351092D01*
X157605562Y-96283000D01*
X157605500Y-96279042D01*
X157605500Y-96251150D01*
X157605500Y-96251144D01*
X157604993Y-96247135D01*
X157604062Y-96235306D01*
X157602674Y-96191111D01*
X157597020Y-96171652D01*
X157593012Y-96152297D01*
X157590474Y-96132203D01*
X157574195Y-96091087D01*
X157570356Y-96079872D01*
X157558019Y-96037407D01*
X157547703Y-96019964D01*
X157539005Y-96002209D01*
X157531552Y-95983383D01*
X157505563Y-95947612D01*
X157499052Y-95937700D01*
X157476542Y-95899638D01*
X157462214Y-95885310D01*
X157449384Y-95870289D01*
X157437472Y-95853893D01*
X157437469Y-95853891D01*
X157437469Y-95853890D01*
X157403394Y-95825700D01*
X157394616Y-95817712D01*
X156021719Y-94444815D01*
X155987693Y-94382503D01*
X155992758Y-94311688D01*
X155996615Y-94302479D01*
X156051284Y-94185243D01*
X156110543Y-93964087D01*
X156130498Y-93736000D01*
X156110543Y-93507913D01*
X156051284Y-93286757D01*
X155954523Y-93079251D01*
X155823198Y-92891700D01*
X155661300Y-92729802D01*
X155661291Y-92729796D01*
X155473749Y-92598477D01*
X155433951Y-92579919D01*
X155380666Y-92533002D01*
X155361205Y-92464725D01*
X155381747Y-92396765D01*
X155433951Y-92351529D01*
X155473498Y-92333087D01*
X155660974Y-92201815D01*
X155660980Y-92201810D01*
X155822810Y-92039980D01*
X155822815Y-92039974D01*
X155954087Y-91852498D01*
X156050811Y-91645073D01*
X156050813Y-91645068D01*
X156103082Y-91450000D01*
X154728686Y-91450000D01*
X154744641Y-91434045D01*
X154802165Y-91321148D01*
X154821986Y-91196000D01*
X154802165Y-91070852D01*
X154744641Y-90957955D01*
X154728686Y-90942000D01*
X156103082Y-90942000D01*
X156118524Y-90921876D01*
X156175862Y-90880009D01*
X156246733Y-90875787D01*
X156307581Y-90909485D01*
X158257753Y-92859657D01*
X158267720Y-92872097D01*
X158267947Y-92871910D01*
X158272999Y-92878017D01*
X158322666Y-92924657D01*
X158325510Y-92927414D01*
X158345226Y-92947131D01*
X158348423Y-92949611D01*
X158357444Y-92957316D01*
X158389679Y-92987586D01*
X158389680Y-92987586D01*
X158389682Y-92987588D01*
X158407429Y-92997344D01*
X158423959Y-93008202D01*
X158439959Y-93020613D01*
X158480536Y-93038172D01*
X158491187Y-93043390D01*
X158529940Y-93064695D01*
X158549562Y-93069733D01*
X158568263Y-93076135D01*
X158586855Y-93084181D01*
X158630522Y-93091096D01*
X158642125Y-93093498D01*
X158684970Y-93104500D01*
X158705231Y-93104500D01*
X158724939Y-93106050D01*
X158744943Y-93109219D01*
X158788954Y-93105058D01*
X158800811Y-93104500D01*
X159551500Y-93104500D01*
X159619621Y-93124502D01*
X159666114Y-93178158D01*
X159677500Y-93230500D01*
X159677500Y-93369649D01*
X159684009Y-93430196D01*
X159684011Y-93430204D01*
X159735110Y-93567202D01*
X159735112Y-93567207D01*
X159822738Y-93684261D01*
X159939792Y-93771887D01*
X159939796Y-93771889D01*
X160055312Y-93814975D01*
X160112148Y-93857522D01*
X160136958Y-93924042D01*
X160121866Y-93993416D01*
X160103981Y-94018367D01*
X159960674Y-94174041D01*
X159837580Y-94362451D01*
X159747179Y-94568543D01*
X159747176Y-94568550D01*
X159699455Y-94756999D01*
X159699456Y-94757000D01*
X160604884Y-94757000D01*
X160576507Y-94801156D01*
X160536000Y-94939111D01*
X160536000Y-95082889D01*
X160576507Y-95220844D01*
X160604884Y-95265000D01*
X159699455Y-95265000D01*
X159747176Y-95453449D01*
X159747179Y-95453456D01*
X159837580Y-95659548D01*
X159960674Y-95847958D01*
X160113097Y-96013534D01*
X160290698Y-96151767D01*
X160290704Y-96151771D01*
X160324207Y-96169902D01*
X160374597Y-96219915D01*
X160389949Y-96289232D01*
X160365388Y-96355845D01*
X160324207Y-96391528D01*
X160290430Y-96409807D01*
X160290424Y-96409811D01*
X160112762Y-96548091D01*
X159960279Y-96713729D01*
X159960275Y-96713734D01*
X159837141Y-96902206D01*
X159746703Y-97108386D01*
X159746702Y-97108387D01*
X159691437Y-97326624D01*
X159691436Y-97326630D01*
X159691436Y-97326632D01*
X159672844Y-97551000D01*
X159681892Y-97660195D01*
X159691437Y-97775375D01*
X159746702Y-97993612D01*
X159746703Y-97993613D01*
X159746704Y-97993616D01*
X159830625Y-98184939D01*
X159837141Y-98199793D01*
X159960275Y-98388265D01*
X159960279Y-98388270D01*
X160112762Y-98553908D01*
X160143658Y-98577955D01*
X160290424Y-98692189D01*
X160488426Y-98799342D01*
X160488427Y-98799342D01*
X160488428Y-98799343D01*
X160536949Y-98816000D01*
X160701365Y-98872444D01*
X160923431Y-98909500D01*
X160923435Y-98909500D01*
X161148565Y-98909500D01*
X161148569Y-98909500D01*
X161370635Y-98872444D01*
X161583574Y-98799342D01*
X161781576Y-98692189D01*
X161959240Y-98553906D01*
X162111722Y-98388268D01*
X162234860Y-98199791D01*
X162325296Y-97993616D01*
X162380564Y-97775368D01*
X162399156Y-97551000D01*
X162380564Y-97326632D01*
X162365584Y-97267478D01*
X162325297Y-97108387D01*
X162325296Y-97108386D01*
X162325296Y-97108384D01*
X162234860Y-96902209D01*
X162198986Y-96847299D01*
X162111724Y-96713734D01*
X162111720Y-96713729D01*
X161986579Y-96577792D01*
X161959240Y-96548094D01*
X161959239Y-96548093D01*
X161959237Y-96548091D01*
X161877382Y-96484381D01*
X161781576Y-96409811D01*
X161747792Y-96391528D01*
X161697402Y-96341516D01*
X161682050Y-96272199D01*
X161706610Y-96205586D01*
X161747793Y-96169901D01*
X161781300Y-96151767D01*
X161781301Y-96151767D01*
X161958902Y-96013534D01*
X162111325Y-95847958D01*
X162234419Y-95659548D01*
X162324820Y-95453456D01*
X162324823Y-95453449D01*
X162372544Y-95265000D01*
X161467116Y-95265000D01*
X161495493Y-95220844D01*
X161536000Y-95082889D01*
X161536000Y-94939111D01*
X161495493Y-94801156D01*
X161467116Y-94757000D01*
X162372544Y-94757000D01*
X162372544Y-94756999D01*
X162324823Y-94568550D01*
X162324820Y-94568543D01*
X162234419Y-94362451D01*
X162111325Y-94174041D01*
X161968018Y-94018367D01*
X161936598Y-93954702D01*
X161944585Y-93884156D01*
X161989444Y-93829127D01*
X162016679Y-93814977D01*
X162132204Y-93771889D01*
X162249261Y-93684261D01*
X162336889Y-93567204D01*
X162387989Y-93430201D01*
X162394500Y-93369638D01*
X162394500Y-91572362D01*
X162394499Y-91572350D01*
X162387990Y-91511803D01*
X162387988Y-91511795D01*
X162336889Y-91374797D01*
X162336887Y-91374792D01*
X162249261Y-91257738D01*
X162132207Y-91170112D01*
X162132202Y-91170110D01*
X161995204Y-91119011D01*
X161995196Y-91119009D01*
X161934649Y-91112500D01*
X161934638Y-91112500D01*
X160137362Y-91112500D01*
X160137350Y-91112500D01*
X160076803Y-91119009D01*
X160076795Y-91119011D01*
X159939797Y-91170110D01*
X159939792Y-91170112D01*
X159822738Y-91257738D01*
X159735112Y-91374792D01*
X159735110Y-91374797D01*
X159684011Y-91511795D01*
X159684009Y-91511803D01*
X159677500Y-91572350D01*
X159677500Y-91711500D01*
X159657498Y-91779621D01*
X159603842Y-91826114D01*
X159551500Y-91837500D01*
X159079595Y-91837500D01*
X159011474Y-91817498D01*
X158990500Y-91800595D01*
X155955244Y-88765339D01*
X155945279Y-88752901D01*
X155945052Y-88753090D01*
X155940001Y-88746984D01*
X155940000Y-88746982D01*
X155890348Y-88700356D01*
X155887505Y-88697600D01*
X155867777Y-88677871D01*
X155867771Y-88677866D01*
X155864567Y-88675380D01*
X155855556Y-88667683D01*
X155823325Y-88637417D01*
X155823319Y-88637413D01*
X155805563Y-88627651D01*
X155789047Y-88616802D01*
X155773041Y-88604386D01*
X155740691Y-88590387D01*
X155732464Y-88586827D01*
X155721807Y-88581605D01*
X155683063Y-88560306D01*
X155683060Y-88560305D01*
X155663436Y-88555266D01*
X155644736Y-88548864D01*
X155626145Y-88540819D01*
X155626143Y-88540818D01*
X155626141Y-88540818D01*
X155582474Y-88533901D01*
X155570855Y-88531495D01*
X155528030Y-88520500D01*
X155507776Y-88520500D01*
X155488066Y-88518949D01*
X155468057Y-88515780D01*
X155433518Y-88519045D01*
X155424039Y-88519941D01*
X155412181Y-88520500D01*
X151594849Y-88520500D01*
X151579010Y-88518751D01*
X151578983Y-88519045D01*
X151571091Y-88518299D01*
X151550410Y-88518949D01*
X151503033Y-88520438D01*
X151499075Y-88520500D01*
X151471144Y-88520500D01*
X151468957Y-88520776D01*
X151467111Y-88521009D01*
X151455304Y-88521937D01*
X151411110Y-88523326D01*
X151411105Y-88523327D01*
X151391660Y-88528977D01*
X151372302Y-88532986D01*
X151352210Y-88535524D01*
X151352203Y-88535526D01*
X151311096Y-88551801D01*
X151299871Y-88555644D01*
X151269212Y-88564552D01*
X151257407Y-88567982D01*
X151257405Y-88567982D01*
X151257402Y-88567984D01*
X151239963Y-88578297D01*
X151222218Y-88586990D01*
X151203379Y-88594449D01*
X151167627Y-88620426D01*
X151157704Y-88626944D01*
X151119640Y-88649454D01*
X151105307Y-88663787D01*
X151090281Y-88676620D01*
X151073895Y-88688525D01*
X151045711Y-88722593D01*
X151037723Y-88731370D01*
X149725336Y-90043757D01*
X149712901Y-90053721D01*
X149713089Y-90053948D01*
X149706979Y-90059002D01*
X149660370Y-90108635D01*
X149657620Y-90111473D01*
X149637863Y-90131231D01*
X149635374Y-90134439D01*
X149627688Y-90143436D01*
X149597418Y-90175673D01*
X149597411Y-90175683D01*
X149587651Y-90193435D01*
X149576803Y-90209950D01*
X149564386Y-90225958D01*
X149546824Y-90266540D01*
X149541604Y-90277195D01*
X149520305Y-90315939D01*
X149520303Y-90315944D01*
X149515267Y-90335559D01*
X149508864Y-90354262D01*
X149500819Y-90372852D01*
X149493901Y-90416525D01*
X149491495Y-90428142D01*
X149480500Y-90470968D01*
X149480500Y-90491223D01*
X149478949Y-90510933D01*
X149475780Y-90530942D01*
X149479941Y-90574961D01*
X149480500Y-90586819D01*
X149480500Y-94808405D01*
X149460498Y-94876526D01*
X149443595Y-94897500D01*
X148735500Y-95605595D01*
X148673188Y-95639621D01*
X148646405Y-95642500D01*
X148416394Y-95642500D01*
X148348273Y-95622498D01*
X148313181Y-95588771D01*
X148203200Y-95431703D01*
X148203195Y-95431697D01*
X148041302Y-95269804D01*
X148041296Y-95269799D01*
X147904421Y-95173958D01*
X147853749Y-95138477D01*
X147822014Y-95123679D01*
X147814543Y-95120195D01*
X147761258Y-95073279D01*
X147741796Y-95005002D01*
X147762337Y-94937042D01*
X147814543Y-94891805D01*
X147816997Y-94890660D01*
X147853749Y-94873523D01*
X148041300Y-94742198D01*
X148203198Y-94580300D01*
X148334523Y-94392749D01*
X148431284Y-94185243D01*
X148490543Y-93964087D01*
X148510498Y-93736000D01*
X148490543Y-93507913D01*
X148431284Y-93286757D01*
X148334523Y-93079251D01*
X148203198Y-92891700D01*
X148041300Y-92729802D01*
X148041295Y-92729799D01*
X148041292Y-92729796D01*
X148037995Y-92727487D01*
X147993669Y-92672028D01*
X147986363Y-92601409D01*
X148018396Y-92538049D01*
X148079599Y-92502067D01*
X148096801Y-92498999D01*
X148106201Y-92497989D01*
X148243204Y-92446889D01*
X148249125Y-92442457D01*
X148360261Y-92359261D01*
X148447887Y-92242207D01*
X148447887Y-92242206D01*
X148447889Y-92242204D01*
X148498989Y-92105201D01*
X148505500Y-92044638D01*
X148505500Y-90347362D01*
X148502409Y-90318609D01*
X148498990Y-90286803D01*
X148498988Y-90286795D01*
X148447889Y-90149797D01*
X148447887Y-90149792D01*
X148360261Y-90032738D01*
X148243207Y-89945112D01*
X148243202Y-89945110D01*
X148106204Y-89894011D01*
X148106196Y-89894009D01*
X148045649Y-89887500D01*
X148045638Y-89887500D01*
X145548362Y-89887500D01*
X145548350Y-89887500D01*
X145487803Y-89894009D01*
X145487795Y-89894011D01*
X145350797Y-89945110D01*
X145350792Y-89945112D01*
X145233738Y-90032738D01*
X145146112Y-90149792D01*
X145146110Y-90149797D01*
X145095011Y-90286795D01*
X145095009Y-90286803D01*
X145088500Y-90347350D01*
X145088500Y-92044649D01*
X145095009Y-92105196D01*
X145095011Y-92105204D01*
X145146110Y-92242202D01*
X145146112Y-92242207D01*
X145233738Y-92359261D01*
X145350792Y-92446887D01*
X145350794Y-92446888D01*
X145350796Y-92446889D01*
X145487799Y-92497989D01*
X145497191Y-92498998D01*
X145562784Y-92526163D01*
X145603279Y-92584479D01*
X145605817Y-92655430D01*
X145569593Y-92716490D01*
X145556010Y-92727483D01*
X145552708Y-92729795D01*
X145552697Y-92729804D01*
X145390804Y-92891697D01*
X145390799Y-92891703D01*
X145259477Y-93079250D01*
X145162717Y-93286753D01*
X145162715Y-93286759D01*
X145140508Y-93369638D01*
X145103457Y-93507913D01*
X145083502Y-93736000D01*
X145103457Y-93964087D01*
X145137670Y-94091771D01*
X145162715Y-94185240D01*
X145162717Y-94185246D01*
X145217379Y-94302469D01*
X145228040Y-94372661D01*
X145199060Y-94437474D01*
X145192279Y-94444815D01*
X144645333Y-94991760D01*
X144632901Y-95001721D01*
X144633089Y-95001948D01*
X144626979Y-95007002D01*
X144580370Y-95056635D01*
X144577620Y-95059473D01*
X144557863Y-95079231D01*
X144555374Y-95082439D01*
X144547688Y-95091436D01*
X144517418Y-95123673D01*
X144517411Y-95123683D01*
X144507651Y-95141435D01*
X144496803Y-95157950D01*
X144484386Y-95173958D01*
X144466824Y-95214540D01*
X144461604Y-95225195D01*
X144440305Y-95263939D01*
X144440303Y-95263944D01*
X144435267Y-95283559D01*
X144428864Y-95302262D01*
X144420819Y-95320852D01*
X144413901Y-95364525D01*
X144411495Y-95376142D01*
X144400500Y-95418968D01*
X144400500Y-95439223D01*
X144398949Y-95458933D01*
X144395780Y-95478942D01*
X144399941Y-95522961D01*
X144400500Y-95534819D01*
X144400500Y-103294146D01*
X144398751Y-103309988D01*
X144399044Y-103310016D01*
X144398298Y-103317907D01*
X144400438Y-103385984D01*
X144400500Y-103389943D01*
X144400500Y-103417851D01*
X144400501Y-103417869D01*
X144401007Y-103421877D01*
X144401937Y-103433696D01*
X144403326Y-103477888D01*
X144403327Y-103477893D01*
X144408977Y-103497339D01*
X144412986Y-103516697D01*
X144415525Y-103536793D01*
X144415526Y-103536800D01*
X144431800Y-103577903D01*
X144435644Y-103589129D01*
X144447982Y-103631593D01*
X144458294Y-103649031D01*
X144466988Y-103666779D01*
X144474444Y-103685609D01*
X144474450Y-103685620D01*
X144500432Y-103721381D01*
X144506949Y-103731301D01*
X144529458Y-103769362D01*
X144529459Y-103769363D01*
X144529461Y-103769366D01*
X144543779Y-103783684D01*
X144556617Y-103798714D01*
X144566156Y-103811843D01*
X144568420Y-103814959D01*
X144568526Y-103815104D01*
X144568530Y-103815109D01*
X144602598Y-103843292D01*
X144611378Y-103851282D01*
X146589000Y-105828904D01*
X146623026Y-105891216D01*
X146617961Y-105962031D01*
X146589000Y-106007094D01*
X141637246Y-110958847D01*
X141574934Y-110992873D01*
X141515540Y-110991459D01*
X141452090Y-110974457D01*
X141224000Y-110954502D01*
X140995913Y-110974457D01*
X140774759Y-111033715D01*
X140774753Y-111033717D01*
X140567250Y-111130477D01*
X140379703Y-111261799D01*
X140379697Y-111261804D01*
X140217804Y-111423697D01*
X140217799Y-111423703D01*
X140086477Y-111611250D01*
X139989717Y-111818753D01*
X139989715Y-111818759D01*
X139974056Y-111877200D01*
X139930457Y-112039913D01*
X139910502Y-112268000D01*
X139930457Y-112496087D01*
X139947459Y-112559538D01*
X139980070Y-112681246D01*
X139989716Y-112717243D01*
X140086477Y-112924749D01*
X140217802Y-113112300D01*
X140379700Y-113274198D01*
X140567251Y-113405523D01*
X140774757Y-113502284D01*
X140995913Y-113561543D01*
X141224000Y-113581498D01*
X141452087Y-113561543D01*
X141515541Y-113544540D01*
X141586516Y-113546228D01*
X141637247Y-113577151D01*
X143093595Y-115033499D01*
X143127621Y-115095811D01*
X143130500Y-115122594D01*
X143130500Y-117137500D01*
X143110498Y-117205621D01*
X143056842Y-117252114D01*
X143004500Y-117263500D01*
X142615350Y-117263500D01*
X142554803Y-117270009D01*
X142554795Y-117270011D01*
X142417797Y-117321110D01*
X142417792Y-117321112D01*
X142300738Y-117408738D01*
X142213112Y-117525792D01*
X142213110Y-117525797D01*
X142162011Y-117662795D01*
X142162009Y-117662803D01*
X142155500Y-117723350D01*
X142155500Y-120020649D01*
X142162009Y-120081196D01*
X142162011Y-120081204D01*
X142213110Y-120218202D01*
X142213112Y-120218207D01*
X142300738Y-120335261D01*
X142417792Y-120422887D01*
X142417794Y-120422888D01*
X142417796Y-120422889D01*
X142445122Y-120433081D01*
X142554795Y-120473988D01*
X142554803Y-120473990D01*
X142615350Y-120480499D01*
X142615355Y-120480499D01*
X142615362Y-120480500D01*
X142615368Y-120480500D01*
X144892405Y-120480500D01*
X144960526Y-120500502D01*
X145007019Y-120554158D01*
X145017123Y-120624432D01*
X144987629Y-120689012D01*
X144981500Y-120695595D01*
X144681500Y-120995595D01*
X144619188Y-121029621D01*
X144592405Y-121032500D01*
X133537595Y-121032500D01*
X133469474Y-121012498D01*
X133448500Y-120995595D01*
X133097600Y-120644695D01*
X133063574Y-120582383D01*
X133068639Y-120511568D01*
X133111186Y-120454732D01*
X133177706Y-120429921D01*
X133216105Y-120433080D01*
X133351597Y-120465609D01*
X133604000Y-120485474D01*
X133856403Y-120465609D01*
X134102591Y-120406505D01*
X134336502Y-120309616D01*
X134552376Y-120177328D01*
X134744898Y-120012898D01*
X134909328Y-119820376D01*
X135041616Y-119604502D01*
X135138505Y-119370591D01*
X135197609Y-119124403D01*
X135217474Y-118872000D01*
X135197609Y-118619597D01*
X135138505Y-118373409D01*
X135041616Y-118139498D01*
X134909328Y-117923624D01*
X134744898Y-117731102D01*
X134552376Y-117566672D01*
X134336502Y-117434384D01*
X134315279Y-117425593D01*
X134259999Y-117381043D01*
X134237580Y-117313679D01*
X134237500Y-117309185D01*
X134237500Y-116034853D01*
X134239249Y-116019011D01*
X134238956Y-116018984D01*
X134239702Y-116011091D01*
X134237562Y-115943000D01*
X134237500Y-115939042D01*
X134237500Y-115911150D01*
X134237500Y-115911144D01*
X134236993Y-115907135D01*
X134236062Y-115895306D01*
X134234674Y-115851111D01*
X134229017Y-115831642D01*
X134225012Y-115812298D01*
X134222474Y-115792203D01*
X134206196Y-115751092D01*
X134202356Y-115739877D01*
X134190018Y-115697407D01*
X134179706Y-115679970D01*
X134171010Y-115662221D01*
X134163552Y-115643383D01*
X134137552Y-115607598D01*
X134131059Y-115597714D01*
X134108542Y-115559638D01*
X134094214Y-115545310D01*
X134081384Y-115530289D01*
X134069472Y-115513893D01*
X134069469Y-115513891D01*
X134069469Y-115513890D01*
X134035394Y-115485700D01*
X134026616Y-115477712D01*
X132242405Y-113693500D01*
X132208379Y-113631188D01*
X132205500Y-113604405D01*
X132205500Y-112933431D01*
X132225502Y-112865310D01*
X132279158Y-112818817D01*
X132349432Y-112808713D01*
X132414012Y-112838207D01*
X132445695Y-112880182D01*
X132466477Y-112924749D01*
X132597802Y-113112300D01*
X132759700Y-113274198D01*
X132947251Y-113405523D01*
X133154757Y-113502284D01*
X133375913Y-113561543D01*
X133604000Y-113581498D01*
X133832087Y-113561543D01*
X134053243Y-113502284D01*
X134260749Y-113405523D01*
X134448300Y-113274198D01*
X134610198Y-113112300D01*
X134741523Y-112924749D01*
X134838284Y-112717243D01*
X134897543Y-112496087D01*
X134917498Y-112268000D01*
X134897543Y-112039913D01*
X134880540Y-111976457D01*
X134882229Y-111905481D01*
X134913149Y-111854753D01*
X140506490Y-106261412D01*
X140568800Y-106227388D01*
X140639615Y-106232453D01*
X140648821Y-106236309D01*
X140774757Y-106295034D01*
X140995913Y-106354293D01*
X141224000Y-106374248D01*
X141452087Y-106354293D01*
X141673243Y-106295034D01*
X141880749Y-106198273D01*
X142068300Y-106066948D01*
X142230198Y-105905050D01*
X142361523Y-105717499D01*
X142458284Y-105509993D01*
X142517543Y-105288837D01*
X142537498Y-105060750D01*
X142517543Y-104832663D01*
X142458284Y-104611507D01*
X142361523Y-104404001D01*
X142230198Y-104216450D01*
X142068300Y-104054552D01*
X141998282Y-104005525D01*
X141880749Y-103923227D01*
X141673246Y-103826467D01*
X141673240Y-103826465D01*
X141569672Y-103798714D01*
X141452087Y-103767207D01*
X141224000Y-103747252D01*
X140995913Y-103767207D01*
X140774759Y-103826465D01*
X140774753Y-103826467D01*
X140567250Y-103923227D01*
X140379703Y-104054549D01*
X140379697Y-104054554D01*
X140217804Y-104216447D01*
X140217799Y-104216453D01*
X140086477Y-104404000D01*
X139989717Y-104611503D01*
X139989715Y-104611509D01*
X139930456Y-104832668D01*
X139914033Y-105020373D01*
X139888170Y-105086491D01*
X139877608Y-105098486D01*
X134017246Y-110958847D01*
X133954934Y-110992873D01*
X133895540Y-110991459D01*
X133832090Y-110974457D01*
X133604000Y-110954502D01*
X133375913Y-110974457D01*
X133154759Y-111033715D01*
X133154753Y-111033717D01*
X132947250Y-111130477D01*
X132759703Y-111261799D01*
X132759697Y-111261804D01*
X132597804Y-111423697D01*
X132597799Y-111423703D01*
X132466477Y-111611250D01*
X132445695Y-111655818D01*
X132398778Y-111709103D01*
X132330500Y-111728564D01*
X132262540Y-111708022D01*
X132216475Y-111653999D01*
X132205500Y-111602568D01*
X132205500Y-107407344D01*
X132225502Y-107339223D01*
X132242399Y-107318254D01*
X133190755Y-106369898D01*
X133253064Y-106335876D01*
X133312457Y-106337289D01*
X133375913Y-106354293D01*
X133604000Y-106374248D01*
X133832087Y-106354293D01*
X134053243Y-106295034D01*
X134260749Y-106198273D01*
X134448300Y-106066948D01*
X134610198Y-105905050D01*
X134741523Y-105717499D01*
X134838284Y-105509993D01*
X134897543Y-105288837D01*
X134917498Y-105060750D01*
X134897543Y-104832663D01*
X134838284Y-104611507D01*
X134741523Y-104404001D01*
X134610198Y-104216450D01*
X134448300Y-104054552D01*
X134378282Y-104005525D01*
X134260749Y-103923227D01*
X134053246Y-103826467D01*
X134053240Y-103826465D01*
X133949672Y-103798714D01*
X133832087Y-103767207D01*
X133604000Y-103747252D01*
X133375913Y-103767207D01*
X133154759Y-103826465D01*
X133154753Y-103826467D01*
X132947250Y-103923227D01*
X132759703Y-104054549D01*
X132759697Y-104054554D01*
X132597804Y-104216447D01*
X132597799Y-104216453D01*
X132466477Y-104404000D01*
X132369717Y-104611503D01*
X132369715Y-104611509D01*
X132310457Y-104832663D01*
X132290502Y-105060750D01*
X132310457Y-105288840D01*
X132327459Y-105352290D01*
X132325769Y-105423266D01*
X132294847Y-105473996D01*
X131785595Y-105983248D01*
X131723283Y-106017274D01*
X131652468Y-106012209D01*
X131595632Y-105969662D01*
X131570821Y-105903142D01*
X131570500Y-105894153D01*
X131570500Y-104454594D01*
X131590502Y-104386473D01*
X131607405Y-104365499D01*
X137448999Y-98523905D01*
X137511311Y-98489879D01*
X137538094Y-98487000D01*
X140004606Y-98487000D01*
X140072727Y-98507002D01*
X140107819Y-98540729D01*
X140163241Y-98619879D01*
X140217802Y-98697800D01*
X140379700Y-98859698D01*
X140567251Y-98991023D01*
X140774757Y-99087784D01*
X140995913Y-99147043D01*
X141224000Y-99166998D01*
X141452087Y-99147043D01*
X141673243Y-99087784D01*
X141880749Y-98991023D01*
X142068300Y-98859698D01*
X142230198Y-98697800D01*
X142361523Y-98510249D01*
X142458284Y-98302743D01*
X142517543Y-98081587D01*
X142537498Y-97853500D01*
X142517543Y-97625413D01*
X142458284Y-97404257D01*
X142361523Y-97196751D01*
X142230198Y-97009200D01*
X142068300Y-96847302D01*
X142062163Y-96843005D01*
X141880749Y-96715977D01*
X141673246Y-96619217D01*
X141673240Y-96619215D01*
X141579771Y-96594170D01*
X141452087Y-96559957D01*
X141224000Y-96540002D01*
X140995913Y-96559957D01*
X140774759Y-96619215D01*
X140774753Y-96619217D01*
X140567250Y-96715977D01*
X140379703Y-96847299D01*
X140379697Y-96847304D01*
X140217804Y-97009197D01*
X140217799Y-97009203D01*
X140107819Y-97166271D01*
X140052362Y-97210599D01*
X140004606Y-97220000D01*
X137307354Y-97220000D01*
X137291512Y-97218250D01*
X137291485Y-97218544D01*
X137283592Y-97217797D01*
X137215502Y-97219938D01*
X137211544Y-97220000D01*
X137183644Y-97220000D01*
X137183638Y-97220000D01*
X137183632Y-97220001D01*
X137179633Y-97220506D01*
X137167813Y-97221436D01*
X137123611Y-97222825D01*
X137104150Y-97228479D01*
X137084804Y-97232485D01*
X137064704Y-97235025D01*
X137064703Y-97235025D01*
X137023595Y-97251300D01*
X137012370Y-97255143D01*
X136969913Y-97267478D01*
X136969904Y-97267482D01*
X136952462Y-97277797D01*
X136934715Y-97286491D01*
X136915883Y-97293947D01*
X136915881Y-97293948D01*
X136880114Y-97319934D01*
X136870200Y-97326447D01*
X136832136Y-97348959D01*
X136832133Y-97348961D01*
X136817812Y-97363283D01*
X136802783Y-97376119D01*
X136786393Y-97388027D01*
X136758200Y-97422105D01*
X136750213Y-97430881D01*
X130548336Y-103632757D01*
X130535901Y-103642721D01*
X130536089Y-103642948D01*
X130529979Y-103648002D01*
X130483370Y-103697635D01*
X130480620Y-103700473D01*
X130460863Y-103720231D01*
X130458374Y-103723439D01*
X130450688Y-103732436D01*
X130420418Y-103764673D01*
X130420411Y-103764683D01*
X130410651Y-103782435D01*
X130399803Y-103798950D01*
X130387386Y-103814958D01*
X130369824Y-103855540D01*
X130364604Y-103866195D01*
X130343305Y-103904939D01*
X130343303Y-103904944D01*
X130338267Y-103924559D01*
X130331864Y-103943262D01*
X130323819Y-103961852D01*
X130316901Y-104005525D01*
X130314495Y-104017142D01*
X130303500Y-104059968D01*
X130303500Y-104080223D01*
X130301949Y-104099933D01*
X130298780Y-104119942D01*
X124358500Y-104119942D01*
X124358500Y-97853500D01*
X132291004Y-97853500D01*
X132310951Y-98081502D01*
X132370186Y-98302568D01*
X132370188Y-98302573D01*
X132466913Y-98510001D01*
X132516899Y-98581388D01*
X133205272Y-97893016D01*
X133218835Y-97978648D01*
X133276359Y-98091545D01*
X133365955Y-98181141D01*
X133478852Y-98238665D01*
X133564482Y-98252227D01*
X132876110Y-98940598D01*
X132876110Y-98940600D01*
X132947498Y-98990586D01*
X133154926Y-99087311D01*
X133154931Y-99087313D01*
X133375999Y-99146548D01*
X133375995Y-99146548D01*
X133604000Y-99166495D01*
X133832002Y-99146548D01*
X134053068Y-99087313D01*
X134053073Y-99087311D01*
X134260497Y-98990588D01*
X134331888Y-98940599D01*
X134331888Y-98940597D01*
X133643518Y-98252227D01*
X133729148Y-98238665D01*
X133842045Y-98181141D01*
X133931641Y-98091545D01*
X133989165Y-97978648D01*
X134002727Y-97893018D01*
X134691097Y-98581388D01*
X134691099Y-98581388D01*
X134741088Y-98509997D01*
X134837811Y-98302573D01*
X134837813Y-98302568D01*
X134897048Y-98081502D01*
X134916995Y-97853500D01*
X134897048Y-97625497D01*
X134837813Y-97404431D01*
X134837811Y-97404426D01*
X134741086Y-97196998D01*
X134691100Y-97125610D01*
X134691098Y-97125610D01*
X134002727Y-97813981D01*
X133989165Y-97728352D01*
X133931641Y-97615455D01*
X133842045Y-97525859D01*
X133729148Y-97468335D01*
X133643517Y-97454772D01*
X134331888Y-96766399D01*
X134331888Y-96766398D01*
X134260501Y-96716413D01*
X134053073Y-96619688D01*
X134053068Y-96619686D01*
X133832000Y-96560451D01*
X133832004Y-96560451D01*
X133604000Y-96540504D01*
X133375997Y-96560451D01*
X133154931Y-96619686D01*
X133154926Y-96619688D01*
X132947500Y-96716413D01*
X132876109Y-96766400D01*
X133564481Y-97454772D01*
X133478852Y-97468335D01*
X133365955Y-97525859D01*
X133276359Y-97615455D01*
X133218835Y-97728352D01*
X133205272Y-97813981D01*
X132516900Y-97125609D01*
X132466913Y-97197000D01*
X132370188Y-97404426D01*
X132370186Y-97404431D01*
X132310951Y-97625497D01*
X132291004Y-97853500D01*
X124358500Y-97853500D01*
X124358500Y-90646250D01*
X132291004Y-90646250D01*
X132310951Y-90874252D01*
X132370186Y-91095318D01*
X132370188Y-91095323D01*
X132466913Y-91302751D01*
X132516899Y-91374138D01*
X133205272Y-90685766D01*
X133218835Y-90771398D01*
X133276359Y-90884295D01*
X133365955Y-90973891D01*
X133478852Y-91031415D01*
X133564482Y-91044977D01*
X132876110Y-91733348D01*
X132876110Y-91733350D01*
X132947498Y-91783336D01*
X133154926Y-91880061D01*
X133154931Y-91880063D01*
X133375999Y-91939298D01*
X133375995Y-91939298D01*
X133604000Y-91959245D01*
X133832002Y-91939298D01*
X134053068Y-91880063D01*
X134053073Y-91880061D01*
X134260497Y-91783338D01*
X134331888Y-91733349D01*
X134331888Y-91733347D01*
X133643518Y-91044977D01*
X133729148Y-91031415D01*
X133842045Y-90973891D01*
X133931641Y-90884295D01*
X133989165Y-90771398D01*
X134002727Y-90685768D01*
X134691097Y-91374138D01*
X134691099Y-91374138D01*
X134741088Y-91302747D01*
X134837811Y-91095323D01*
X134837813Y-91095318D01*
X134897048Y-90874252D01*
X134916995Y-90646250D01*
X139910502Y-90646250D01*
X139930457Y-90874337D01*
X139952863Y-90957955D01*
X139989715Y-91095490D01*
X139989717Y-91095496D01*
X140086477Y-91302999D01*
X140189408Y-91450000D01*
X140217802Y-91490550D01*
X140379700Y-91652448D01*
X140567251Y-91783773D01*
X140774757Y-91880534D01*
X140995913Y-91939793D01*
X141224000Y-91959748D01*
X141452087Y-91939793D01*
X141673243Y-91880534D01*
X141880749Y-91783773D01*
X142068300Y-91652448D01*
X142230198Y-91490550D01*
X142361523Y-91302999D01*
X142458284Y-91095493D01*
X142517543Y-90874337D01*
X142537498Y-90646250D01*
X142517543Y-90418163D01*
X142458284Y-90197007D01*
X142361523Y-89989501D01*
X142230198Y-89801950D01*
X142068300Y-89640052D01*
X141952757Y-89559148D01*
X141880749Y-89508727D01*
X141673246Y-89411967D01*
X141673240Y-89411965D01*
X141579771Y-89386920D01*
X141452087Y-89352707D01*
X141224000Y-89332752D01*
X140995913Y-89352707D01*
X140774759Y-89411965D01*
X140774753Y-89411967D01*
X140567250Y-89508727D01*
X140379703Y-89640049D01*
X140379697Y-89640054D01*
X140217804Y-89801947D01*
X140217799Y-89801953D01*
X140086477Y-89989500D01*
X139989717Y-90197003D01*
X139989715Y-90197009D01*
X139952591Y-90335559D01*
X139930457Y-90418163D01*
X139910502Y-90646250D01*
X134916995Y-90646250D01*
X134897048Y-90418247D01*
X134837813Y-90197181D01*
X134837811Y-90197176D01*
X134741086Y-89989748D01*
X134691100Y-89918360D01*
X134691098Y-89918360D01*
X134002727Y-90606731D01*
X133989165Y-90521102D01*
X133931641Y-90408205D01*
X133842045Y-90318609D01*
X133729148Y-90261085D01*
X133643517Y-90247522D01*
X134331888Y-89559149D01*
X134331888Y-89559148D01*
X134260501Y-89509163D01*
X134053073Y-89412438D01*
X134053068Y-89412436D01*
X133832000Y-89353201D01*
X133832004Y-89353201D01*
X133604000Y-89333254D01*
X133375997Y-89353201D01*
X133154931Y-89412436D01*
X133154926Y-89412438D01*
X132947500Y-89509163D01*
X132876109Y-89559150D01*
X133564481Y-90247522D01*
X133478852Y-90261085D01*
X133365955Y-90318609D01*
X133276359Y-90408205D01*
X133218835Y-90521102D01*
X133205272Y-90606731D01*
X132516900Y-89918359D01*
X132466913Y-89989750D01*
X132370188Y-90197176D01*
X132370186Y-90197181D01*
X132310951Y-90418247D01*
X132291004Y-90646250D01*
X124358500Y-90646250D01*
X124358500Y-84922597D01*
X157778000Y-84922597D01*
X157784505Y-84983093D01*
X157835555Y-85119964D01*
X157835555Y-85119965D01*
X157923095Y-85236904D01*
X158040034Y-85324444D01*
X158176906Y-85375494D01*
X158237402Y-85381999D01*
X158237415Y-85382000D01*
X158832000Y-85382000D01*
X158832000Y-84385686D01*
X158847955Y-84401641D01*
X158960852Y-84459165D01*
X159054519Y-84474000D01*
X159117481Y-84474000D01*
X159211148Y-84459165D01*
X159324045Y-84401641D01*
X159340000Y-84385686D01*
X159340000Y-85382000D01*
X159934585Y-85382000D01*
X159934597Y-85381999D01*
X159995093Y-85375494D01*
X160131964Y-85324444D01*
X160131965Y-85324444D01*
X160248901Y-85236906D01*
X160250237Y-85235122D01*
X160252027Y-85233781D01*
X160255277Y-85230532D01*
X160255744Y-85230999D01*
X160307071Y-85192572D01*
X160377886Y-85187503D01*
X160423382Y-85207414D01*
X160429251Y-85211523D01*
X160636757Y-85308284D01*
X160857913Y-85367543D01*
X161086000Y-85387498D01*
X161314087Y-85367543D01*
X161535243Y-85308284D01*
X161742749Y-85211523D01*
X161930300Y-85080198D01*
X162092198Y-84918300D01*
X162223523Y-84730749D01*
X162320284Y-84523243D01*
X162379543Y-84302087D01*
X162399498Y-84074000D01*
X162379543Y-83845913D01*
X162320284Y-83624757D01*
X162223523Y-83417251D01*
X162092198Y-83229700D01*
X161930300Y-83067802D01*
X161874862Y-83028984D01*
X161742749Y-82936477D01*
X161535246Y-82839717D01*
X161535240Y-82839715D01*
X161365055Y-82794114D01*
X161314087Y-82780457D01*
X161086000Y-82760502D01*
X160857913Y-82780457D01*
X160636759Y-82839715D01*
X160636753Y-82839717D01*
X160429245Y-82936479D01*
X160429244Y-82936480D01*
X160423380Y-82940587D01*
X160356106Y-82963275D01*
X160287246Y-82945990D01*
X160255318Y-82917426D01*
X160255277Y-82917468D01*
X160254522Y-82916713D01*
X160250241Y-82912883D01*
X160248901Y-82911093D01*
X160131965Y-82823555D01*
X159995093Y-82772505D01*
X159934597Y-82766000D01*
X159340000Y-82766000D01*
X159340000Y-83762314D01*
X159324045Y-83746359D01*
X159211148Y-83688835D01*
X159117481Y-83674000D01*
X159054519Y-83674000D01*
X158960852Y-83688835D01*
X158847955Y-83746359D01*
X158832000Y-83762314D01*
X158832000Y-82766000D01*
X158237402Y-82766000D01*
X158176906Y-82772505D01*
X158040035Y-82823555D01*
X158040034Y-82823555D01*
X157923095Y-82911095D01*
X157835555Y-83028034D01*
X157835555Y-83028035D01*
X157784505Y-83164906D01*
X157778000Y-83225402D01*
X157778000Y-83820000D01*
X158774314Y-83820000D01*
X158758359Y-83835955D01*
X158700835Y-83948852D01*
X158681014Y-84074000D01*
X158700835Y-84199148D01*
X158758359Y-84312045D01*
X158774314Y-84328000D01*
X157778000Y-84328000D01*
X157778000Y-84922597D01*
X124358500Y-84922597D01*
X124358500Y-83439000D01*
X132290502Y-83439000D01*
X132310457Y-83667087D01*
X132325369Y-83722740D01*
X132369715Y-83888240D01*
X132369717Y-83888246D01*
X132397978Y-83948852D01*
X132466477Y-84095749D01*
X132597802Y-84283300D01*
X132759700Y-84445198D01*
X132947251Y-84576523D01*
X133154757Y-84673284D01*
X133375913Y-84732543D01*
X133604000Y-84752498D01*
X133832087Y-84732543D01*
X134053243Y-84673284D01*
X134260749Y-84576523D01*
X134448300Y-84445198D01*
X134610198Y-84283300D01*
X134741523Y-84095749D01*
X134838284Y-83888243D01*
X134897543Y-83667087D01*
X134917498Y-83439000D01*
X139910502Y-83439000D01*
X139930457Y-83667087D01*
X139945369Y-83722740D01*
X139989715Y-83888240D01*
X139989717Y-83888246D01*
X140017978Y-83948852D01*
X140086477Y-84095749D01*
X140217802Y-84283300D01*
X140379700Y-84445198D01*
X140567251Y-84576523D01*
X140774757Y-84673284D01*
X140995913Y-84732543D01*
X141224000Y-84752498D01*
X141452087Y-84732543D01*
X141673243Y-84673284D01*
X141880749Y-84576523D01*
X142068300Y-84445198D01*
X142230198Y-84283300D01*
X142340181Y-84126229D01*
X142395638Y-84081901D01*
X142443394Y-84072500D01*
X146950612Y-84072500D01*
X147018733Y-84092502D01*
X147065226Y-84146158D01*
X147076612Y-84198500D01*
X147076612Y-84387649D01*
X147083121Y-84448196D01*
X147083123Y-84448204D01*
X147134222Y-84585202D01*
X147134224Y-84585207D01*
X147221850Y-84702261D01*
X147338904Y-84789887D01*
X147338906Y-84789888D01*
X147338908Y-84789889D01*
X147389052Y-84808592D01*
X147475907Y-84840988D01*
X147475915Y-84840990D01*
X147536462Y-84847499D01*
X147536467Y-84847499D01*
X147536474Y-84847500D01*
X147536480Y-84847500D01*
X149433744Y-84847500D01*
X149433750Y-84847500D01*
X149433757Y-84847499D01*
X149433761Y-84847499D01*
X149494308Y-84840990D01*
X149494311Y-84840989D01*
X149494313Y-84840989D01*
X149631316Y-84789889D01*
X149681265Y-84752498D01*
X149748373Y-84702261D01*
X149835999Y-84585207D01*
X149835999Y-84585206D01*
X149836001Y-84585204D01*
X149887101Y-84448201D01*
X149887425Y-84445195D01*
X149893611Y-84387649D01*
X149893612Y-84387632D01*
X149893612Y-84263480D01*
X149913614Y-84195359D01*
X149930517Y-84174384D01*
X150580267Y-83524633D01*
X150581439Y-83540265D01*
X150630999Y-83666541D01*
X150715577Y-83772599D01*
X150827659Y-83849016D01*
X150939734Y-83883586D01*
X150223792Y-84599528D01*
X150223792Y-84599529D01*
X150252363Y-84621767D01*
X150252371Y-84621772D01*
X150457586Y-84732827D01*
X150457589Y-84732829D01*
X150678279Y-84808592D01*
X150678288Y-84808594D01*
X150908446Y-84847000D01*
X151141778Y-84847000D01*
X151371935Y-84808594D01*
X151371944Y-84808592D01*
X151592634Y-84732829D01*
X151592637Y-84732827D01*
X151797853Y-84621771D01*
X151797862Y-84621765D01*
X151826430Y-84599529D01*
X151826431Y-84599528D01*
X151108428Y-83881525D01*
X151159250Y-83873865D01*
X151281469Y-83815007D01*
X151380910Y-83722740D01*
X151448737Y-83605260D01*
X151467662Y-83522341D01*
X152184312Y-84238991D01*
X152184314Y-84238991D01*
X152267656Y-84111427D01*
X152361385Y-83897747D01*
X152361387Y-83897743D01*
X152418667Y-83671549D01*
X152437937Y-83439000D01*
X152418667Y-83206450D01*
X152361387Y-82980256D01*
X152361385Y-82980252D01*
X152267656Y-82766572D01*
X152184313Y-82639007D01*
X151469956Y-83353364D01*
X151468785Y-83337735D01*
X151419225Y-83211459D01*
X151334647Y-83105401D01*
X151222565Y-83028984D01*
X151110488Y-82994413D01*
X151826430Y-82278470D01*
X151797852Y-82256227D01*
X151592637Y-82145172D01*
X151592634Y-82145170D01*
X151371944Y-82069407D01*
X151371935Y-82069405D01*
X151141778Y-82031000D01*
X150908446Y-82031000D01*
X150678288Y-82069405D01*
X150678279Y-82069407D01*
X150457589Y-82145170D01*
X150457586Y-82145172D01*
X150252370Y-82256227D01*
X150223792Y-82278469D01*
X150223792Y-82278471D01*
X150941795Y-82996474D01*
X150890974Y-83004135D01*
X150768755Y-83062993D01*
X150669314Y-83155260D01*
X150601487Y-83272740D01*
X150582561Y-83355658D01*
X149930517Y-82703614D01*
X149896491Y-82641302D01*
X149893612Y-82614519D01*
X149893612Y-82490367D01*
X149893611Y-82490350D01*
X149887102Y-82429803D01*
X149887100Y-82429795D01*
X149858036Y-82351875D01*
X149836001Y-82292796D01*
X149836000Y-82292794D01*
X149835999Y-82292792D01*
X149748373Y-82175738D01*
X149631319Y-82088112D01*
X149631314Y-82088110D01*
X149494316Y-82037011D01*
X149494308Y-82037009D01*
X149433761Y-82030500D01*
X149433750Y-82030500D01*
X147536474Y-82030500D01*
X147536462Y-82030500D01*
X147475915Y-82037009D01*
X147475907Y-82037011D01*
X147338909Y-82088110D01*
X147338904Y-82088112D01*
X147221850Y-82175738D01*
X147134224Y-82292792D01*
X147134222Y-82292797D01*
X147083123Y-82429795D01*
X147083121Y-82429803D01*
X147076612Y-82490350D01*
X147076612Y-82679500D01*
X147056610Y-82747621D01*
X147002954Y-82794114D01*
X146950612Y-82805500D01*
X142443394Y-82805500D01*
X142375273Y-82785498D01*
X142340181Y-82751771D01*
X142230200Y-82594703D01*
X142230195Y-82594697D01*
X142068302Y-82432804D01*
X142068296Y-82432799D01*
X141880749Y-82301477D01*
X141673246Y-82204717D01*
X141673240Y-82204715D01*
X141565096Y-82175738D01*
X141452087Y-82145457D01*
X141224000Y-82125502D01*
X140995913Y-82145457D01*
X140774759Y-82204715D01*
X140774753Y-82204717D01*
X140567250Y-82301477D01*
X140379703Y-82432799D01*
X140379697Y-82432804D01*
X140217804Y-82594697D01*
X140217799Y-82594703D01*
X140086477Y-82782250D01*
X139989717Y-82989753D01*
X139989715Y-82989759D01*
X139958729Y-83105401D01*
X139930457Y-83210913D01*
X139910502Y-83439000D01*
X134917498Y-83439000D01*
X134897543Y-83210913D01*
X134838284Y-82989757D01*
X134741523Y-82782251D01*
X134610198Y-82594700D01*
X134448300Y-82432802D01*
X134444011Y-82429799D01*
X134260749Y-82301477D01*
X134053246Y-82204717D01*
X134053240Y-82204715D01*
X133945096Y-82175738D01*
X133832087Y-82145457D01*
X133604000Y-82125502D01*
X133375913Y-82145457D01*
X133154759Y-82204715D01*
X133154753Y-82204717D01*
X132947250Y-82301477D01*
X132759703Y-82432799D01*
X132759697Y-82432804D01*
X132597804Y-82594697D01*
X132597799Y-82594703D01*
X132466477Y-82782250D01*
X132369717Y-82989753D01*
X132369715Y-82989759D01*
X132338729Y-83105401D01*
X132310457Y-83210913D01*
X132290502Y-83439000D01*
X124358500Y-83439000D01*
X124358500Y-81158000D01*
X126116852Y-81158000D01*
X126136138Y-81415360D01*
X126193566Y-81666966D01*
X126193567Y-81666968D01*
X126287849Y-81907197D01*
X126287851Y-81907201D01*
X126416889Y-82130702D01*
X126416891Y-82130705D01*
X126416892Y-82130706D01*
X126577801Y-82332480D01*
X126766986Y-82508018D01*
X126766992Y-82508022D01*
X126980218Y-82653397D01*
X126980226Y-82653402D01*
X127212732Y-82765371D01*
X127212750Y-82765378D01*
X127459344Y-82841442D01*
X127459346Y-82841442D01*
X127459355Y-82841445D01*
X127714551Y-82879910D01*
X127714555Y-82879910D01*
X127972625Y-82879910D01*
X127972629Y-82879910D01*
X128227825Y-82841445D01*
X128233427Y-82839717D01*
X128474429Y-82765378D01*
X128474431Y-82765376D01*
X128474438Y-82765375D01*
X128474443Y-82765372D01*
X128474447Y-82765371D01*
X128706953Y-82653402D01*
X128706953Y-82653401D01*
X128706959Y-82653399D01*
X128920194Y-82508018D01*
X129109379Y-82332480D01*
X129270288Y-82130706D01*
X129399327Y-81907204D01*
X129493614Y-81666965D01*
X129551042Y-81415357D01*
X129570328Y-81158000D01*
X166116852Y-81158000D01*
X166136138Y-81415360D01*
X166193566Y-81666966D01*
X166193567Y-81666968D01*
X166287849Y-81907197D01*
X166287851Y-81907201D01*
X166416889Y-82130702D01*
X166416891Y-82130705D01*
X166416892Y-82130706D01*
X166577801Y-82332480D01*
X166766986Y-82508018D01*
X166766992Y-82508022D01*
X166980218Y-82653397D01*
X166980226Y-82653402D01*
X167212732Y-82765371D01*
X167212750Y-82765378D01*
X167459344Y-82841442D01*
X167459346Y-82841442D01*
X167459355Y-82841445D01*
X167714551Y-82879910D01*
X167714555Y-82879910D01*
X167972625Y-82879910D01*
X167972629Y-82879910D01*
X168227825Y-82841445D01*
X168233427Y-82839717D01*
X168474429Y-82765378D01*
X168474431Y-82765376D01*
X168474438Y-82765375D01*
X168474443Y-82765372D01*
X168474447Y-82765371D01*
X168706953Y-82653402D01*
X168706953Y-82653401D01*
X168706959Y-82653399D01*
X168920194Y-82508018D01*
X169109379Y-82332480D01*
X169270288Y-82130706D01*
X169399327Y-81907204D01*
X169493614Y-81666965D01*
X169551042Y-81415357D01*
X169570328Y-81158000D01*
X169551042Y-80900643D01*
X169493614Y-80649035D01*
X169408834Y-80433019D01*
X169399330Y-80408802D01*
X169399328Y-80408798D01*
X169270290Y-80185297D01*
X169270288Y-80185294D01*
X169109379Y-79983520D01*
X168920194Y-79807982D01*
X168777873Y-79710949D01*
X168706961Y-79662602D01*
X168706953Y-79662597D01*
X168474447Y-79550628D01*
X168474429Y-79550621D01*
X168227835Y-79474557D01*
X168227827Y-79474555D01*
X168227825Y-79474555D01*
X167972629Y-79436090D01*
X167714551Y-79436090D01*
X167459355Y-79474555D01*
X167459353Y-79474555D01*
X167459344Y-79474557D01*
X167212750Y-79550621D01*
X167212732Y-79550628D01*
X166980226Y-79662597D01*
X166980218Y-79662602D01*
X166766992Y-79807977D01*
X166766987Y-79807981D01*
X166577802Y-79983519D01*
X166416889Y-80185297D01*
X166287851Y-80408798D01*
X166287849Y-80408802D01*
X166193567Y-80649031D01*
X166193566Y-80649033D01*
X166136138Y-80900639D01*
X166116852Y-81158000D01*
X129570328Y-81158000D01*
X129551042Y-80900643D01*
X129493614Y-80649035D01*
X129408834Y-80433019D01*
X129399330Y-80408802D01*
X129399328Y-80408798D01*
X129270290Y-80185297D01*
X129270288Y-80185294D01*
X129109379Y-79983520D01*
X128920194Y-79807982D01*
X128777873Y-79710949D01*
X128706961Y-79662602D01*
X128706953Y-79662597D01*
X128474447Y-79550628D01*
X128474429Y-79550621D01*
X128227835Y-79474557D01*
X128227827Y-79474555D01*
X128227825Y-79474555D01*
X127972629Y-79436090D01*
X127714551Y-79436090D01*
X127459355Y-79474555D01*
X127459353Y-79474555D01*
X127459344Y-79474557D01*
X127212750Y-79550621D01*
X127212732Y-79550628D01*
X126980226Y-79662597D01*
X126980218Y-79662602D01*
X126766992Y-79807977D01*
X126766987Y-79807981D01*
X126577802Y-79983519D01*
X126416889Y-80185297D01*
X126287851Y-80408798D01*
X126287849Y-80408802D01*
X126193567Y-80649031D01*
X126193566Y-80649033D01*
X126136138Y-80900639D01*
X126116852Y-81158000D01*
X124358500Y-81158000D01*
X124358500Y-79887121D01*
X124358770Y-79878881D01*
X124367339Y-79748144D01*
X124375126Y-79629331D01*
X124377274Y-79613014D01*
X124425260Y-79371771D01*
X124429525Y-79355858D01*
X124475568Y-79220219D01*
X124508586Y-79122951D01*
X124514880Y-79107755D01*
X124623676Y-78887138D01*
X124631895Y-78872901D01*
X124727303Y-78730114D01*
X124742949Y-78711049D01*
X124968000Y-78486000D01*
X125193048Y-78260951D01*
X125212126Y-78245295D01*
X125354884Y-78149908D01*
X125369146Y-78141672D01*
X125589760Y-78032878D01*
X125604951Y-78026586D01*
X125837860Y-77947524D01*
X125853771Y-77943260D01*
X126095014Y-77895274D01*
X126111331Y-77893126D01*
X126333109Y-77878590D01*
X126360882Y-77876770D01*
X126369122Y-77876500D01*
X126373285Y-77876500D01*
X169409715Y-77876500D01*
X169413878Y-77876500D01*
X169422118Y-77876770D01*
G37*
G04 #@! TD.AperFunction*
M02*
